<svg width="1065" height="424" viewBox="0 0 1065 424" fill="none" xmlns="http://www.w3.org/2000/svg">
<rect width="1065" height="424" fill="white"/>
<path d="M228.896 285C214.816 317 243.654 299.474 266 301C282.219 302.107 273.795 330.296 290 329C302.5 328 328 324 339.914 301C341.43 285 330.814 286.359 313 280C295.562 273.775 283.595 250.234 266 256C255.5 259.441 242 265 228.896 285Z" fill="#D9D9D9" stroke="black"/>
<path d="M228.896 285C242 265 255.5 259.441 266 256C283.595 250.234 295.562 273.775 313 280C330.814 286.359 341.43 285 339.914 301" stroke="#D9D9D9" stroke-dasharray="2 2"/>
<path d="M680.721 316.901C666.641 348.901 695.479 331.376 717.825 332.901C734.045 334.009 725.62 362.198 741.825 360.901C754.325 359.901 779.825 355.901 791.74 332.901C793.255 316.901 782.639 318.261 764.825 311.901C747.387 305.676 735.42 282.135 717.825 287.901C707.325 291.343 693.825 296.901 680.721 316.901Z" fill="#D9D9D9" stroke="black"/>
<path d="M680.721 316.901C693.825 296.901 707.325 291.343 717.825 287.901C735.42 282.135 747.387 305.676 764.825 311.901C782.639 318.261 793.255 316.901 791.74 332.901" stroke="#D9D9D9" stroke-dasharray="2 2"/>
<path d="M680.721 87.9015C666.641 119.901 695.479 102.376 717.825 103.901C734.045 105.009 725.62 133.198 741.825 131.901C754.325 130.901 779.825 126.901 791.74 103.901C793.255 87.9015 782.639 89.2608 764.825 82.9015C747.387 76.6763 735.42 53.1352 717.825 58.9015C707.325 62.3425 693.825 67.9015 680.721 87.9015Z" fill="#D9D9D9" stroke="black"/>
<path d="M680.721 87.9015C693.825 67.9015 707.325 62.3425 717.825 58.9015C735.42 53.1352 747.387 76.6763 764.825 82.9015C782.639 89.2608 793.255 87.9015 791.74 103.901" stroke="#D9D9D9" stroke-dasharray="2 2"/>
<path d="M245 95C249 126.901 263.479 96.3758 285.825 97.9015C302.045 99.0088 293.568 125.901 309.825 125.901C325.5 125.901 374.5 105 389 83C398.571 68.4778 365.314 66.8593 347.5 60.5C330.062 54.2749 317.095 36.2338 299.5 42C280.358 48.2732 242.116 72 245 95Z" fill="#D9D9D9" stroke="black"/>
<path d="M245 95C242.116 72 280.358 48.2732 299.5 42C317.095 36.2338 330.062 54.2749 347.5 60.5C365.314 66.8593 398.571 68.4778 389 83" stroke="#D9D9D9" stroke-dasharray="2 2"/>
<path d="M247 7C227.5 41.5 262 142 247 219C232 296 217.5 322 141.5 390M472 25C413 49.5 368 88 353 165C338 242 355.5 327.5 301.5 406.5" stroke="black"/>
<line x1="677.5" y1="41" x2="677.5" y2="393" stroke="black"/>
<line x1="792.5" y1="41" x2="792.5" y2="393" stroke="black"/>
<path d="M364.419 312.575C364.389 312.619 364.287 313.505 364.111 315.233C363.936 316.96 363.833 317.854 363.804 317.912V318H357.501C354.28 318 352.406 318 351.878 318C351.351 318 351.073 317.963 351.044 317.89V317.868C351 317.78 351 317.7 351.044 317.627L351.395 317.209C351.63 316.946 351.981 316.551 352.449 316.023C352.918 315.496 353.365 314.991 353.789 314.508L356.49 311.433L351.022 303.857L351 303.549C351 303.271 351.037 303.102 351.11 303.044C351.154 303.015 353.284 303 357.501 303H363.804V303.088C363.833 303.161 363.936 304.003 364.111 305.613C364.287 307.224 364.389 308.081 364.419 308.183V308.271H363.54V308.183C363.423 307.334 363.262 306.631 363.057 306.075C362.852 305.518 362.523 305.064 362.069 304.713C361.63 304.406 361.037 304.215 360.29 304.142C359.543 304.069 358.482 304.025 357.105 304.01H356.249H353.943L356.227 307.151C356.534 307.575 356.915 308.102 357.369 308.732C358.174 309.845 358.577 310.445 358.577 310.533C358.577 310.562 358.57 310.584 358.555 310.599L353.174 316.748C356.878 316.748 358.884 316.741 359.192 316.726C359.895 316.697 360.48 316.624 360.949 316.507C361.417 316.389 361.732 316.28 361.893 316.177C362.054 316.075 362.23 315.928 362.42 315.738C362.713 315.416 362.955 314.984 363.145 314.442C363.335 313.9 363.452 313.439 363.496 313.059L363.54 312.488H364.419V312.575Z" fill="black"/>
<path d="M811.419 355.575C811.389 355.619 811.287 356.505 811.111 358.233C810.936 359.96 810.833 360.854 810.804 360.912V361H804.501C801.28 361 799.406 361 798.878 361C798.351 361 798.073 360.963 798.044 360.89V360.868C798 360.78 798 360.7 798.044 360.627L798.395 360.209C798.63 359.946 798.981 359.551 799.449 359.023C799.918 358.496 800.365 357.991 800.789 357.508L803.49 354.433L798.022 346.857L798 346.549C798 346.271 798.037 346.102 798.11 346.044C798.154 346.015 800.284 346 804.501 346H810.804V346.088C810.833 346.161 810.936 347.003 811.111 348.613C811.287 350.224 811.389 351.081 811.419 351.183V351.271H810.54V351.183C810.423 350.334 810.262 349.631 810.057 349.075C809.852 348.518 809.523 348.064 809.069 347.713C808.63 347.406 808.037 347.215 807.29 347.142C806.543 347.069 805.482 347.025 804.105 347.01H803.249H800.943L803.227 350.151C803.534 350.575 803.915 351.102 804.369 351.732C805.174 352.845 805.577 353.445 805.577 353.533C805.577 353.562 805.57 353.584 805.555 353.599L800.174 359.748C803.878 359.748 805.884 359.741 806.192 359.726C806.895 359.697 807.48 359.624 807.949 359.507C808.417 359.389 808.732 359.28 808.893 359.177C809.054 359.075 809.23 358.928 809.42 358.738C809.713 358.416 809.955 357.984 810.145 357.442C810.335 356.9 810.452 356.439 810.496 356.059L810.54 355.488H811.419V355.575Z" fill="black"/>
<path d="M398.69 89.302C398.746 89.218 398.83 89.176 398.942 89.176H399.11H399.383C399.467 89.26 399.509 89.316 399.509 89.344C399.509 89.442 399.299 90.303 398.879 91.927C398.781 92.319 398.683 92.732 398.585 93.166C398.487 93.6 398.403 93.922 398.333 94.132L398.249 94.468C398.249 94.482 398.312 94.489 398.438 94.489C398.564 94.489 398.788 94.531 399.11 94.615C399.432 94.699 399.768 94.818 400.118 94.972C400.734 95.266 401.245 95.693 401.651 96.253C402.057 96.813 402.26 97.492 402.26 98.29C402.26 99.088 402.043 99.851 401.609 100.579C401.175 101.307 400.636 101.909 399.992 102.385C399.348 102.861 398.669 103.239 397.955 103.519C397.241 103.799 396.576 103.946 395.96 103.96H395.876L395.372 105.955C395.288 106.277 395.197 106.662 395.099 107.11C394.987 107.558 394.91 107.824 394.868 107.908C394.826 107.992 394.742 108.041 394.616 108.055H394.49C394.21 108.055 394.07 108.006 394.07 107.908C394.07 107.838 394.224 107.173 394.532 105.913L395.015 103.981C395.015 103.967 394.959 103.96 394.847 103.96C394.777 103.96 394.637 103.946 394.427 103.918C394.217 103.89 393.902 103.792 393.482 103.624C393.062 103.456 392.684 103.246 392.348 102.994C392.012 102.742 391.697 102.371 391.403 101.881C391.109 101.391 390.976 100.817 391.004 100.159C391.004 99.319 391.235 98.528 391.697 97.786C392.159 97.044 392.726 96.442 393.398 95.98C394.07 95.518 394.749 95.154 395.435 94.888C396.121 94.622 396.737 94.489 397.283 94.489C397.353 94.489 397.395 94.461 397.409 94.405L398.039 91.843C398.473 90.177 398.69 89.33 398.69 89.302ZM392.663 100.6C392.663 101.076 392.747 101.489 392.915 101.839C393.083 102.189 393.314 102.455 393.608 102.637C393.902 102.819 394.154 102.945 394.364 103.015C394.574 103.085 394.812 103.141 395.078 103.183H395.225L397.178 95.266C397.122 95.266 397.045 95.273 396.947 95.287C396.849 95.301 396.646 95.357 396.338 95.455C396.03 95.553 395.736 95.665 395.456 95.791C395.176 95.917 394.868 96.12 394.532 96.4C394.196 96.68 393.909 97.002 393.671 97.366C393.419 97.758 393.188 98.227 392.978 98.773C392.768 99.417 392.663 100.026 392.663 100.6ZM400.601 97.828C400.601 97.296 400.489 96.841 400.265 96.463C400.041 96.085 399.761 95.819 399.425 95.665C399.089 95.511 398.816 95.406 398.606 95.35C398.396 95.294 398.228 95.266 398.102 95.266H398.039L397.073 99.193L396.065 103.141C396.065 103.169 396.072 103.183 396.086 103.183C396.198 103.183 396.422 103.141 396.758 103.057C397.094 102.973 397.374 102.875 397.598 102.763C398.2 102.497 398.718 102.126 399.152 101.65C399.586 101.174 399.894 100.684 400.076 100.18C400.258 99.676 400.391 99.228 400.475 98.836C400.559 98.444 400.601 98.108 400.601 97.828Z" fill="black"/>
<path d="M404.591 98.5C404.591 97.534 404.661 96.617 404.801 95.749C404.941 94.881 405.102 94.132 405.284 93.502C405.466 92.872 405.725 92.256 406.061 91.654C406.397 91.052 406.663 90.583 406.859 90.247C407.055 89.911 407.349 89.547 407.741 89.155C408.133 88.763 408.364 88.525 408.434 88.441C408.504 88.357 408.679 88.21 408.959 88H409.232H409.316C409.512 88 409.61 88.063 409.61 88.189C409.61 88.231 409.491 88.378 409.253 88.63C409.015 88.882 408.728 89.253 408.392 89.743C408.056 90.233 407.713 90.835 407.363 91.549C407.013 92.263 406.719 93.229 406.481 94.447C406.243 95.665 406.124 97.016 406.124 98.5C406.124 99.984 406.243 101.328 406.481 102.532C406.719 103.736 407.006 104.709 407.342 105.451C407.678 106.193 408.021 106.795 408.371 107.257C408.721 107.719 409.015 108.09 409.253 108.37C409.491 108.65 409.61 108.797 409.61 108.811C409.61 108.937 409.505 109 409.295 109H409.232H408.959L408.371 108.496C407.055 107.306 406.096 105.822 405.494 104.044C404.892 102.266 404.591 100.418 404.591 98.5Z" fill="black"/>
<path d="M424.772 98.563C424.744 98.605 424.646 99.452 424.478 101.104C424.31 102.756 424.212 103.61 424.184 103.666V103.75H418.157C415.077 103.75 413.285 103.75 412.781 103.75C412.277 103.75 412.011 103.715 411.983 103.645V103.624C411.941 103.54 411.941 103.463 411.983 103.393L412.319 102.994C412.543 102.742 412.879 102.364 413.327 101.86C413.775 101.356 414.202 100.873 414.608 100.411L417.191 97.471L411.962 90.226L411.941 89.932C411.941 89.666 411.976 89.505 412.046 89.449C412.088 89.421 414.125 89.407 418.157 89.407H424.184V89.491C424.212 89.561 424.31 90.366 424.478 91.906C424.646 93.446 424.744 94.265 424.772 94.363V94.447H423.932V94.363C423.82 93.551 423.666 92.879 423.47 92.347C423.274 91.815 422.959 91.381 422.525 91.045C422.105 90.751 421.538 90.569 420.824 90.499C420.11 90.429 419.095 90.387 417.779 90.373H416.96H414.755L416.939 93.376C417.233 93.782 417.597 94.286 418.031 94.888C418.801 95.952 419.186 96.526 419.186 96.61C419.186 96.638 419.179 96.659 419.165 96.673L414.02 102.553C417.562 102.553 419.48 102.546 419.774 102.532C420.446 102.504 421.006 102.434 421.454 102.322C421.902 102.21 422.203 102.105 422.357 102.007C422.511 101.909 422.679 101.769 422.861 101.587C423.141 101.279 423.372 100.866 423.554 100.348C423.736 99.83 423.848 99.389 423.89 99.025L423.932 98.479H424.772V98.563Z" fill="black"/>
<path d="M427.586 103.015C427.586 103.015 427.586 102.84 427.586 102.49C427.586 102.14 427.698 101.839 427.922 101.587C428.146 101.335 428.447 101.209 428.825 101.209C429.217 101.209 429.567 101.384 429.875 101.734C430.183 102.084 430.344 102.7 430.358 103.582C430.358 104.072 430.295 104.548 430.169 105.01C430.043 105.472 429.896 105.871 429.728 106.207C429.56 106.543 429.378 106.83 429.182 107.068C428.986 107.306 428.818 107.495 428.678 107.635C428.538 107.775 428.447 107.838 428.405 107.824C428.349 107.824 428.258 107.761 428.132 107.635C428.006 107.509 427.943 107.418 427.943 107.362C427.943 107.306 428.02 107.194 428.174 107.026C428.328 106.858 428.503 106.648 428.699 106.396C428.895 106.144 429.077 105.794 429.245 105.346C429.413 104.898 429.525 104.387 429.581 103.813V103.561L429.56 103.582C429.532 103.596 429.497 103.61 429.455 103.624C429.413 103.638 429.371 103.659 429.329 103.687C429.287 103.715 429.224 103.729 429.14 103.729C429.056 103.729 428.972 103.736 428.888 103.75C428.51 103.75 428.202 103.631 427.964 103.393L427.586 103.015Z" fill="black"/>
<path d="M435.832 95.665C435.734 95.567 435.685 95.497 435.685 95.455C435.685 95.399 435.706 95.287 435.748 95.119C435.79 94.951 435.825 94.853 435.853 94.825C435.881 94.755 435.944 94.72 436.042 94.72C436.14 94.72 436.497 94.713 437.113 94.699H438.226L438.625 93.019C438.667 92.865 438.716 92.662 438.772 92.41C438.828 92.158 438.877 91.976 438.919 91.864C438.961 91.752 439.003 91.612 439.045 91.444C439.087 91.276 439.143 91.157 439.213 91.087C439.283 91.017 439.353 90.933 439.423 90.835C439.493 90.737 439.591 90.674 439.717 90.646C439.843 90.618 439.969 90.604 440.095 90.604C440.347 90.618 440.522 90.695 440.62 90.835C440.718 90.975 440.767 91.108 440.767 91.234C440.767 91.332 440.704 91.661 440.578 92.221C440.452 92.781 440.312 93.334 440.158 93.88L439.948 94.657C439.948 94.685 440.298 94.699 440.998 94.699H442.069C442.167 94.797 442.216 94.874 442.216 94.93C442.216 95.238 442.125 95.483 441.943 95.665H439.696L438.94 98.71C438.394 100.95 438.121 102.154 438.121 102.322C438.121 102.91 438.31 103.204 438.688 103.204C439.178 103.204 439.654 102.966 440.116 102.49C440.578 102.014 440.949 101.426 441.229 100.726C441.257 100.642 441.292 100.593 441.334 100.579C441.376 100.565 441.481 100.551 441.649 100.537H441.733C441.943 100.537 442.048 100.593 442.048 100.705C442.048 100.747 442.027 100.831 441.985 100.957C441.915 101.181 441.789 101.447 441.607 101.755C441.425 102.063 441.187 102.392 440.893 102.742C440.599 103.092 440.242 103.386 439.822 103.624C439.402 103.862 438.975 103.981 438.541 103.981C438.121 103.981 437.722 103.876 437.344 103.666C436.966 103.456 436.693 103.092 436.525 102.574C436.497 102.462 436.483 102.273 436.483 102.007V101.629L437.218 98.689C437.708 96.715 437.96 95.721 437.974 95.707C437.974 95.679 437.617 95.665 436.903 95.665H435.832Z" fill="black"/>
<path d="M444.127 88.021L444.211 88C444.281 88 444.351 88 444.421 88H444.673L445.261 88.504C446.577 89.694 447.536 91.178 448.138 92.956C448.74 94.734 449.041 96.582 449.041 98.5C449.041 99.452 448.971 100.369 448.831 101.251C448.691 102.133 448.53 102.882 448.348 103.498C448.166 104.114 447.907 104.73 447.571 105.346C447.235 105.962 446.969 106.431 446.773 106.753C446.577 107.075 446.29 107.432 445.912 107.824C445.534 108.216 445.31 108.447 445.24 108.517C445.17 108.587 445.009 108.72 444.757 108.916C444.715 108.958 444.687 108.986 444.673 109H444.421C444.309 109 444.232 109 444.19 109C444.148 109 444.113 108.979 444.085 108.937C444.057 108.895 444.036 108.832 444.022 108.748C444.036 108.734 444.113 108.643 444.253 108.475C446.423 106.221 447.508 102.896 447.508 98.5C447.508 94.104 446.423 90.779 444.253 88.525C444.113 88.357 444.036 88.266 444.022 88.252C444.022 88.14 444.057 88.063 444.127 88.021Z" fill="black"/>
<path d="M466.658 42.2252C466.658 42.1361 466.235 42.0767 465.388 42.047C465.032 42.047 464.802 42.0395 464.698 42.0247C464.594 42.0098 464.542 41.9356 464.542 41.8019C464.542 41.7871 464.557 41.7054 464.586 41.5569C464.601 41.5123 464.616 41.4604 464.631 41.401C464.646 41.3416 464.653 41.3044 464.653 41.2896C464.653 41.2747 464.668 41.2376 464.698 41.1782C464.728 41.1188 464.742 41.0965 464.742 41.1114C464.742 41.1262 464.772 41.1114 464.831 41.0668C464.891 41.0223 464.928 41.0074 464.943 41.0223C464.958 41.0371 465.017 41.0371 465.121 41.0223C465.225 41.0074 465.314 41 465.388 41C465.477 41 465.7 41 466.057 41C466.413 41 466.747 41.0074 467.059 41.0223C468.232 41.0223 468.908 41.0223 469.086 41.0223C469.264 41.0223 469.383 41.0594 469.443 41.1336C469.457 41.193 469.732 43.287 470.267 47.4155L471.069 53.6305L471.581 52.8063C471.938 52.2717 472.413 51.5291 473.007 50.5787C473.601 49.6283 474.254 48.5887 474.967 47.46C477.566 43.3167 478.88 41.2302 478.91 41.2005C478.925 41.1856 478.947 41.1633 478.977 41.1336C479.006 41.1039 479.036 41.0817 479.066 41.0668L479.2 41.0223H481.338C481.591 41.0223 481.888 41.0223 482.229 41.0223C482.571 41.0223 482.786 41.0148 482.875 41C483.38 41 483.632 41.0817 483.632 41.245C483.632 41.3193 483.61 41.4455 483.566 41.6237C483.521 41.8019 483.499 41.8985 483.499 41.9133C483.439 42.0024 483.165 42.047 482.675 42.047C482.081 42.0618 481.702 42.0841 481.539 42.1138C481.375 42.1435 481.242 42.2252 481.138 42.3588C481.093 42.4331 480.558 44.5345 479.534 48.663C478.509 52.7915 477.989 54.878 477.974 54.9225C477.974 54.9819 477.982 55.0191 477.997 55.0339C478.011 55.0488 478.063 55.0785 478.153 55.123C478.242 55.1676 478.368 55.1824 478.531 55.1676C478.695 55.1527 478.94 55.1676 479.266 55.2121H479.957C480.046 55.3458 480.091 55.4275 480.091 55.4572C480.091 55.6948 480.039 55.9175 479.935 56.1254C479.86 56.1997 479.742 56.2368 479.578 56.2368C479.504 56.2368 479.2 56.2294 478.665 56.2145C478.13 56.1997 477.447 56.1923 476.616 56.1923C475.71 56.1923 475.026 56.1923 474.566 56.1923C474.106 56.1923 473.846 56.1997 473.786 56.2145C473.534 56.2145 473.408 56.1403 473.408 55.9918C473.408 55.9621 473.423 55.8581 473.452 55.6799C473.512 55.4423 473.571 55.3086 473.631 55.2789C473.69 55.2492 473.861 55.227 474.143 55.2121C474.544 55.2121 474.989 55.1898 475.479 55.1453C475.687 55.1007 475.828 55.0116 475.903 54.878C475.932 54.8186 476.215 53.7345 476.749 51.6257C477.284 49.5169 477.811 47.4155 478.331 45.3215C478.851 43.2276 479.11 42.1806 479.11 42.1806L474.789 49.0639C471.878 53.6973 470.386 56.0512 470.311 56.1254C470.282 56.1403 470.252 56.1551 470.222 56.17C470.148 56.2145 470.029 56.2368 469.866 56.2368C469.643 56.2368 469.509 56.1848 469.465 56.0809C469.435 56.0215 469.131 53.7196 468.552 49.1753L467.683 42.3366L466.168 48.3511C465.173 52.3014 464.676 54.3434 464.676 54.477C464.765 54.9671 465.299 55.2121 466.279 55.2121H466.502C466.591 55.2864 466.643 55.3532 466.658 55.4126C466.673 55.472 466.651 55.6057 466.591 55.8136C466.532 56.0512 466.472 56.1848 466.413 56.2145C466.354 56.2294 466.272 56.2368 466.168 56.2368C466.138 56.2368 466.049 56.2368 465.901 56.2368C465.752 56.2368 465.5 56.2294 465.143 56.2145C464.787 56.1997 464.312 56.1923 463.718 56.1923C463.272 56.1923 462.812 56.1997 462.337 56.2145C461.861 56.2294 461.587 56.2368 461.512 56.2368C461.29 56.2368 461.149 56.222 461.089 56.1923C461.03 56.1626 461 56.0957 461 55.9918C461 55.9621 461.022 55.8581 461.067 55.6799C461.111 55.5017 461.149 55.3903 461.178 55.3458C461.208 55.2567 461.371 55.2121 461.668 55.2121C462.708 55.2121 463.369 54.9151 463.651 54.3211C463.71 54.232 464.223 52.242 465.188 48.3511C466.153 44.4602 466.643 42.4182 466.658 42.2252Z" fill="black"/>
<path d="M803.022 48.4024C803.022 48.2981 803.104 48.1639 803.268 48H807.583C810.474 48.0298 812.099 48.0745 812.457 48.1341C812.784 48.1937 813.097 48.2683 813.395 48.3577C813.694 48.4471 813.954 48.544 814.178 48.6483C814.401 48.7526 814.61 48.8644 814.804 48.9836C814.998 49.1029 815.162 49.2221 815.296 49.3413C815.43 49.4606 815.564 49.5798 815.698 49.699C815.832 49.8183 815.929 49.93 815.989 50.0344C816.048 50.1387 816.123 50.243 816.212 50.3473C816.302 50.4517 816.354 50.5486 816.369 50.638C816.384 50.7274 816.414 50.8094 816.458 50.8839L816.525 51.018C816.6 51.2863 816.637 51.6663 816.637 52.1582C816.637 52.9034 816.54 53.4846 816.346 53.9019C815.825 54.9601 814.782 55.6531 813.217 55.981L812.814 56.0928C812.919 56.2567 813.053 56.4729 813.217 56.7411C813.381 57.0094 813.708 57.5012 814.2 58.2166C814.692 58.932 815.147 59.5654 815.564 60.1169C815.981 60.6683 816.421 61.1825 816.883 61.6594C817.345 62.1363 817.71 62.4121 817.978 62.4866C818.262 62.5611 818.403 62.7027 818.403 62.9113C818.403 63.0455 818.314 63.1722 818.135 63.2914H814.044C813.939 63.1871 813.15 61.9947 811.674 59.7144L809.483 56.3387H808.634V59.1779C808.663 60.9068 808.686 61.8308 808.701 61.95C808.745 62.2034 808.894 62.3599 809.148 62.4195C809.207 62.4344 809.416 62.4568 809.774 62.4866C810.146 62.4866 810.4 62.5387 810.534 62.6431C810.668 62.807 810.668 62.9933 810.534 63.202L810.377 63.2914H803.268C803.089 63.202 803 63.0753 803 62.9113C803 62.6282 803.291 62.4866 803.872 62.4866C804.483 62.4419 804.826 62.3152 804.9 62.1065C804.975 61.9873 805.012 59.8337 805.012 55.6457C805.012 51.4577 804.975 49.2892 804.9 49.1401C804.811 48.9464 804.468 48.8272 803.872 48.7824C803.306 48.7824 803.022 48.6558 803.022 48.4024ZM808.03 62.4866C807.985 62.3822 807.956 62.3077 807.941 62.263C807.926 62.2183 807.911 61.9724 807.896 61.5253C807.881 61.0782 807.866 60.4447 807.851 59.625C807.836 58.8053 807.836 57.5087 807.851 55.7351V49.386L807.941 49.0731L808.097 48.7824H805.616C805.66 48.8868 805.69 48.9613 805.705 49.006C805.72 49.0507 805.735 49.3115 805.75 49.7885C805.765 50.2654 805.78 50.9062 805.794 51.7111C805.809 52.5159 805.809 53.8274 805.794 55.6457C805.794 58.7755 805.787 60.6534 805.772 61.2794C805.757 61.9053 805.713 62.2928 805.638 62.4419C805.623 62.4568 805.616 62.4717 805.616 62.4866H808.03ZM812.859 52.1805C812.859 51.5248 812.799 50.9733 812.68 50.5262C812.561 50.0791 812.382 49.7437 812.144 49.5202C811.905 49.2966 811.719 49.155 811.585 49.0954C811.451 49.0358 811.279 48.9687 811.07 48.8942C811.026 48.8942 810.743 48.857 810.221 48.7824C809.64 48.7824 809.207 48.8793 808.924 49.0731C808.775 49.1774 808.693 49.3637 808.678 49.632C808.663 49.9002 808.649 50.8615 808.634 52.5159V55.5339H808.991C809.632 55.5339 810.31 55.4892 811.026 55.3998C811.711 55.2209 812.188 54.9228 812.457 54.5055C812.725 54.0882 812.859 53.3132 812.859 52.1805ZM813.641 51.2639C813.641 51.2639 813.641 51.5695 813.641 52.1805C813.641 52.7916 813.612 53.3058 813.552 53.7231C813.492 54.1404 813.418 54.4236 813.328 54.5726C813.239 54.7216 813.172 54.8558 813.127 54.975C813.082 55.0942 813.045 55.1688 813.015 55.1986C813.015 55.2135 813.023 55.2209 813.038 55.2209C813.097 55.2209 813.336 55.1464 813.753 54.9974C815.184 54.5502 815.899 53.6188 815.899 52.2029C815.899 50.7572 815.035 49.7512 813.306 49.1848L812.859 49.0284L812.948 49.2743C813.142 49.4978 813.343 49.9822 813.552 50.7274C813.612 51.0851 813.641 51.5695 813.641 52.1805V51.2639ZM813.015 57.8366C812.226 56.7337 811.823 56.1822 811.808 56.1822C811.719 56.1822 811.652 56.1971 811.607 56.2269C811.354 56.2269 811.123 56.2493 810.914 56.294H810.377L814.401 62.4866H816.481L816.19 62.1512C815.4 61.2719 814.342 59.8337 813.015 57.8366Z" fill="black"/>
<path d="M837.835 62.6207C837.835 62.9188 837.678 63.0678 837.365 63.0678C837.291 63.0678 837.127 62.9486 836.874 62.7101C836.62 62.4717 835.92 61.7786 834.772 60.631L832.447 58.306L830.1 60.6534C828.52 62.2034 827.708 62.9933 827.663 63.0231C827.603 63.0529 827.551 63.0678 827.506 63.0678C827.387 63.0678 827.283 63.0231 827.194 62.9337C827.104 62.8443 827.052 62.7399 827.037 62.6207C827.037 62.5164 827.141 62.3524 827.35 62.1289C827.559 61.9053 828.259 61.1974 829.451 60.0051L831.776 57.6801L829.451 55.355C828.244 54.1478 827.544 53.4399 827.35 53.2312C827.156 53.0226 827.052 52.8586 827.037 52.7394C827.037 52.6053 827.082 52.5009 827.171 52.4264C827.261 52.3519 827.372 52.3146 827.506 52.3146C827.581 52.3146 827.633 52.3221 827.663 52.337C827.708 52.3668 828.52 53.1567 830.1 54.7067L832.447 57.0541L834.772 54.7291C835.92 53.5815 836.62 52.8884 836.874 52.65C837.127 52.4115 837.291 52.2923 837.365 52.2923C837.678 52.2923 837.835 52.4413 837.835 52.7394C837.835 52.8437 837.76 52.9779 837.611 53.1418C837.462 53.3058 836.732 54.036 835.42 55.3327L833.095 57.6801L835.42 60.0274C836.672 61.2793 837.388 62.0022 837.567 62.1959C837.745 62.3897 837.835 62.5313 837.835 62.6207Z" fill="black"/>
<path d="M861 57.7472C860.97 57.7919 860.866 58.6935 860.687 60.4522C860.508 62.2109 860.404 63.12 860.374 63.1796V63.269H853.958C850.679 63.269 848.771 63.269 848.235 63.269C847.698 63.269 847.415 63.2318 847.385 63.1573V63.1349C847.341 63.0455 847.341 62.9635 847.385 62.889L847.743 62.4642C847.981 62.196 848.339 61.7936 848.816 61.257C849.293 60.7205 849.748 60.2063 850.18 59.7145L852.93 56.5846L847.363 48.8719L847.341 48.5589C847.341 48.2757 847.378 48.1043 847.452 48.0447C847.497 48.0149 849.666 48 853.958 48H860.374V48.0894C860.404 48.1639 860.508 49.0209 860.687 50.6603C860.866 52.2998 860.97 53.1717 861 53.276V53.3654H860.106V53.276C859.987 52.4116 859.823 51.6962 859.614 51.1298C859.405 50.5635 859.07 50.1015 858.608 49.7438C858.161 49.4308 857.557 49.237 856.797 49.1625C856.037 49.088 854.956 49.0433 853.556 49.0284H852.684H850.336L852.661 52.2253C852.974 52.6575 853.362 53.194 853.824 53.8349C854.643 54.9676 855.053 55.5786 855.053 55.6681C855.053 55.6979 855.046 55.7202 855.031 55.7351L849.554 61.9948C853.324 61.9948 855.366 61.9873 855.679 61.9724C856.395 61.9426 856.991 61.8681 857.468 61.7488C857.945 61.6296 858.265 61.5178 858.429 61.4135C858.593 61.3092 858.772 61.1601 858.966 60.9664C859.264 60.6385 859.51 60.1988 859.703 59.6474C859.897 59.096 860.016 58.6265 860.061 58.239L860.106 57.6577H861V57.7472Z" fill="black"/>
<path d="M635 225.625L630.998 221.464L629.395 227.011L635 225.625ZM428.139 226.105C467.974 214.573 499.138 208.713 530.052 208.506C560.965 208.298 591.657 213.743 630.545 224.858L630.82 223.897C591.881 212.767 561.089 207.297 530.046 207.506C499.004 207.714 467.741 213.6 427.861 225.145L428.139 226.105Z" fill="black"/>
<path d="M523 188.963C523 187.728 523.379 186.593 524.136 185.556C524.893 184.519 525.889 184 527.123 184C527.749 184 528.358 184.148 528.951 184.444C529.543 184.741 530.086 185.111 530.58 185.556C531.074 186 531.56 186.428 532.037 186.84C532.514 187.251 533.033 187.613 533.593 187.926C534.152 188.239 534.728 188.395 535.321 188.395C536.342 188.395 537.173 188.008 537.815 187.235C538.457 186.461 538.778 185.621 538.778 184.716C538.778 184.519 538.811 184.354 538.877 184.222C538.942 184.091 539.025 184.016 539.123 184C539.354 184 539.469 184.272 539.469 184.815C539.469 186.033 539.099 187.16 538.358 188.198C537.617 189.235 536.671 189.753 535.519 189.753H535.321C534.712 189.753 534.111 189.605 533.519 189.309C532.926 189.012 532.374 188.65 531.864 188.222C531.354 187.794 530.868 187.358 530.407 186.914C529.947 186.469 529.428 186.107 528.852 185.827C528.276 185.547 527.708 185.399 527.148 185.383C526.424 185.383 525.782 185.588 525.222 186C524.63 186.477 524.226 187.037 524.012 187.679C523.798 188.321 523.667 188.831 523.617 189.21C523.568 189.588 523.477 189.778 523.346 189.778C523.115 189.778 523 189.506 523 188.963ZM523.025 192.716C523.025 192.502 523.14 192.337 523.37 192.222H539.099C539.346 192.354 539.469 192.519 539.469 192.716C539.469 192.897 539.354 193.053 539.123 193.185L531.272 193.21H523.42C523.156 193.128 523.025 192.963 523.025 192.716ZM523.025 197.506C523.025 197.259 523.156 197.095 523.42 197.012H539.123C539.354 197.177 539.469 197.342 539.469 197.506C539.469 197.704 539.346 197.868 539.099 198H523.37C523.14 197.885 523.025 197.72 523.025 197.506Z" fill="black"/>
</svg>
