<svg width="1875" height="570" viewBox="0 0 1875 570" fill="none" xmlns="http://www.w3.org/2000/svg">
<path d="M549.347 560L549.347 9.99998" stroke="black" stroke-width="4" stroke-linecap="round"/>
<path d="M547.347 560C547.347 561.105 548.242 562 549.347 562C550.452 562 551.347 561.105 551.347 560L547.347 560ZM549.347 285L537.8 305L560.894 305L549.347 285ZM551.347 560L551.347 303L547.347 303L547.347 560L551.347 560Z" fill="black"/>
<path d="M584.319 289.182C584.35 289.09 584.381 288.966 584.411 288.812C584.442 288.658 584.519 288.318 584.643 287.794C584.766 287.269 584.92 286.791 585.106 286.359C585.291 285.927 585.522 285.418 585.8 284.832C586.077 284.246 586.386 283.783 586.725 283.444C587.065 283.104 587.466 282.765 587.929 282.426C588.391 282.086 588.9 281.947 589.456 282.009C590.196 282.009 590.859 282.117 591.446 282.333C592.032 282.549 592.495 282.827 592.834 283.166C593.173 283.505 593.42 283.845 593.574 284.184C593.729 284.523 593.852 284.817 593.945 285.063L594.037 285.387C594.037 285.449 594.053 285.48 594.083 285.48L594.593 284.971C596.474 282.996 598.619 282.009 601.025 282.009C602.691 282.009 604.033 282.426 605.051 283.259C606.069 284.092 606.594 285.31 606.625 286.915V287.377C606.625 288.118 605.637 292.329 603.663 300.011C601.874 307.261 600.917 310.994 600.794 311.21C600.393 312.043 599.698 312.46 598.711 312.46C598.31 312.46 597.971 312.336 597.693 312.09C597.415 311.843 597.246 311.503 597.184 311.071C597.184 310.794 598.094 307.045 599.914 299.826L602.784 288.257C602.876 287.794 602.923 287.208 602.923 286.498C602.923 284.678 602.244 283.768 600.886 283.768H600.655C598.002 283.768 595.765 285.326 593.945 288.442L593.621 288.997L592.094 295.198C591.075 299.24 590.489 301.415 590.335 301.723C589.934 302.556 589.271 302.973 588.345 302.973C587.944 302.973 587.62 302.88 587.373 302.695C587.126 302.51 586.957 302.325 586.864 302.14C586.772 301.955 586.741 301.8 586.772 301.677C586.772 301.276 587.389 298.623 588.623 293.717C589.857 288.812 590.474 286.082 590.474 285.526C590.474 284.323 590.073 283.721 589.271 283.721C588.623 283.721 588.067 284.153 587.605 285.017C587.142 285.881 586.772 286.822 586.494 287.84C586.216 288.858 586.047 289.414 585.985 289.506C585.923 289.568 585.676 289.599 585.244 289.599H584.597C584.411 289.414 584.319 289.275 584.319 289.182Z" fill="black"/>
<path d="M911.347 349.187C911.378 349.095 911.409 348.971 911.44 348.817C911.47 348.663 911.548 348.323 911.671 347.799C911.794 347.274 911.949 346.796 912.134 346.364C912.319 345.932 912.55 345.423 912.828 344.837C913.106 344.251 913.414 343.788 913.753 343.449C914.093 343.109 914.494 342.77 914.957 342.431C915.419 342.091 915.929 341.953 916.484 342.014C917.224 342.014 917.888 342.122 918.474 342.338C919.06 342.554 919.523 342.832 919.862 343.171C920.202 343.511 920.448 343.85 920.603 344.189C920.757 344.529 920.88 344.822 920.973 345.069L921.065 345.393C921.065 345.454 921.081 345.485 921.112 345.485L921.621 344.976C923.503 343.001 925.647 342.014 928.053 342.014C929.719 342.014 931.061 342.431 932.079 343.264C933.098 344.097 933.622 345.315 933.653 346.92V347.382C933.653 348.123 932.666 352.334 930.691 360.016C928.902 367.266 927.945 370.999 927.822 371.215C927.421 372.048 926.727 372.465 925.739 372.465C925.338 372.465 924.999 372.342 924.721 372.095C924.444 371.848 924.274 371.509 924.212 371.077C924.212 370.799 925.122 367.05 926.943 359.831L929.812 348.262C929.904 347.799 929.951 347.213 929.951 346.503C929.951 344.683 929.272 343.773 927.914 343.773H927.683C925.03 343.773 922.793 345.331 920.973 348.447L920.649 349.002L919.122 355.203C918.104 359.245 917.517 361.42 917.363 361.729C916.962 362.562 916.299 362.978 915.373 362.978C914.972 362.978 914.648 362.885 914.401 362.7C914.155 362.515 913.985 362.33 913.892 362.145C913.8 361.96 913.769 361.806 913.8 361.682C913.8 361.281 914.417 358.628 915.651 353.722C916.885 348.817 917.502 346.087 917.502 345.531C917.502 344.328 917.101 343.727 916.299 343.727C915.651 343.727 915.096 344.158 914.633 345.022C914.17 345.886 913.8 346.827 913.522 347.845C913.244 348.863 913.075 349.419 913.013 349.511C912.951 349.573 912.705 349.604 912.273 349.604H911.625C911.44 349.419 911.347 349.28 911.347 349.187Z" fill="black"/>
<path d="M760.347 287.051C760.347 286.595 760.592 286.245 761.082 286H794.545C795.071 286.28 795.333 286.63 795.333 287.051C795.333 287.436 795.088 287.769 794.598 288.049L777.893 288.101H761.188C760.627 287.926 760.347 287.576 760.347 287.051ZM760.347 297.242C760.347 296.716 760.627 296.366 761.188 296.191H794.598C795.088 296.541 795.333 296.892 795.333 297.242C795.333 297.697 795.071 298.047 794.545 298.292H761.082C760.592 298.047 760.347 297.697 760.347 297.242Z" fill="black"/>
<circle cx="685.347" cy="293" r="4" fill="black"/>
<path d="M696.616 329C694.462 329 692.72 328.287 691.39 326.862C690.06 325.437 689.379 323.647 689.347 321.493C689.347 318.326 690.503 315.38 692.815 312.656C695.128 309.932 697.82 308.396 700.892 308.048C700.924 308.016 703.141 308 707.544 308H714.1C714.132 308.032 714.18 308.063 714.243 308.095C714.306 308.127 714.37 308.158 714.433 308.19C714.496 308.222 714.544 308.253 714.576 308.285C714.607 308.317 714.655 308.364 714.718 308.428C714.781 308.491 714.813 308.523 714.813 308.523C714.813 308.523 714.845 308.586 714.908 308.713C714.971 308.839 714.987 308.903 714.956 308.903C714.924 308.903 714.94 308.982 715.003 309.14C715.066 309.299 715.082 309.394 715.051 309.425C715.051 310.819 714.021 311.516 711.962 311.516C711.741 311.516 711.471 311.516 711.155 311.516C710.838 311.516 710.616 311.5 710.49 311.468H707.639L707.876 311.943C708.447 313.147 708.732 314.493 708.732 315.982C708.732 319.466 707.465 322.507 704.931 325.104C702.397 327.701 699.625 329 696.616 329ZM705.026 315.269C705.026 312.735 703.68 311.468 700.987 311.468C697.06 311.468 694.51 314.224 693.338 319.735C693.306 319.862 693.29 319.957 693.29 320.02C693.037 321.192 692.91 322.158 692.91 322.919C692.91 324.502 693.306 325.611 694.098 326.244C694.89 326.878 695.793 327.21 696.806 327.242C698.517 327.242 700.085 326.498 701.51 325.009C702.428 324.059 703.173 322.792 703.743 321.208C704.313 319.624 704.662 318.357 704.788 317.407C704.915 316.457 704.994 315.744 705.026 315.269Z" fill="black"/>
<path d="M979.347 560L979.347 9.99998" stroke="black" stroke-width="4" stroke-linecap="round"/>
<path d="M977.347 560C977.347 561.105 978.242 562 979.347 562C980.452 562 981.347 561.105 981.347 560L977.347 560ZM979.347 285L967.8 305L990.894 305L979.347 285ZM981.347 560L981.347 303L977.347 303L977.347 560L981.347 560Z" fill="black"/>
<path d="M1014.32 289.182C1014.35 289.09 1014.38 288.966 1014.41 288.812C1014.44 288.658 1014.52 288.318 1014.64 287.794C1014.77 287.269 1014.92 286.791 1015.11 286.359C1015.29 285.927 1015.52 285.418 1015.8 284.832C1016.08 284.246 1016.39 283.783 1016.73 283.444C1017.06 283.104 1017.47 282.765 1017.93 282.426C1018.39 282.086 1018.9 281.947 1019.46 282.009C1020.2 282.009 1020.86 282.117 1021.45 282.333C1022.03 282.549 1022.49 282.827 1022.83 283.166C1023.17 283.505 1023.42 283.845 1023.57 284.184C1023.73 284.523 1023.85 284.817 1023.94 285.063L1024.04 285.387C1024.04 285.449 1024.05 285.48 1024.08 285.48L1024.59 284.971C1026.47 282.996 1028.62 282.009 1031.03 282.009C1032.69 282.009 1034.03 282.426 1035.05 283.259C1036.07 284.092 1036.59 285.31 1036.62 286.915V287.377C1036.62 288.118 1035.64 292.329 1033.66 300.011C1031.87 307.261 1030.92 310.994 1030.79 311.21C1030.39 312.043 1029.7 312.46 1028.71 312.46C1028.31 312.46 1027.97 312.336 1027.69 312.09C1027.42 311.843 1027.25 311.503 1027.18 311.071C1027.18 310.794 1028.09 307.045 1029.91 299.826L1032.78 288.257C1032.88 287.794 1032.92 287.208 1032.92 286.498C1032.92 284.678 1032.24 283.768 1030.89 283.768H1030.65C1028 283.768 1025.76 285.326 1023.94 288.442L1023.62 288.997L1022.09 295.198C1021.08 299.24 1020.49 301.415 1020.33 301.723C1019.93 302.556 1019.27 302.973 1018.35 302.973C1017.94 302.973 1017.62 302.88 1017.37 302.695C1017.13 302.51 1016.96 302.325 1016.86 302.14C1016.77 301.955 1016.74 301.8 1016.77 301.677C1016.77 301.276 1017.39 298.623 1018.62 293.717C1019.86 288.812 1020.47 286.082 1020.47 285.526C1020.47 284.323 1020.07 283.721 1019.27 283.721C1018.62 283.721 1018.07 284.153 1017.6 285.017C1017.14 285.881 1016.77 286.822 1016.49 287.84C1016.22 288.858 1016.05 289.414 1015.98 289.506C1015.92 289.568 1015.68 289.599 1015.24 289.599H1014.6C1014.41 289.414 1014.32 289.275 1014.32 289.182Z" fill="black"/>
<path d="M1090.35 287.051C1090.35 286.595 1090.59 286.245 1091.08 286H1124.55C1125.07 286.28 1125.33 286.63 1125.33 287.051C1125.33 287.436 1125.09 287.769 1124.6 288.049L1107.89 288.101H1091.19C1090.63 287.926 1090.35 287.576 1090.35 287.051ZM1090.35 297.242C1090.35 296.716 1090.63 296.366 1091.19 296.191H1124.6C1125.09 296.541 1125.33 296.892 1125.33 297.242C1125.33 297.697 1125.07 298.047 1124.55 298.292H1091.08C1090.59 298.047 1090.35 297.697 1090.35 297.242Z" fill="black"/>
<circle cx="881.347" cy="293" r="4" fill="black"/>
<path d="M892.616 329C890.462 329 888.72 328.287 887.39 326.862C886.06 325.437 885.379 323.647 885.347 321.493C885.347 318.326 886.503 315.38 888.815 312.656C891.128 309.932 893.82 308.396 896.892 308.048C896.924 308.016 899.141 308 903.544 308H910.1C910.132 308.032 910.18 308.063 910.243 308.095C910.306 308.127 910.37 308.158 910.433 308.19C910.496 308.222 910.544 308.253 910.576 308.285C910.607 308.317 910.655 308.364 910.718 308.428C910.781 308.491 910.813 308.523 910.813 308.523C910.813 308.523 910.845 308.586 910.908 308.713C910.971 308.839 910.987 308.903 910.956 308.903C910.924 308.903 910.94 308.982 911.003 309.14C911.066 309.299 911.082 309.394 911.051 309.425C911.051 310.819 910.021 311.516 907.962 311.516C907.741 311.516 907.471 311.516 907.155 311.516C906.838 311.516 906.616 311.5 906.49 311.468H903.639L903.876 311.943C904.447 313.147 904.732 314.493 904.732 315.982C904.732 319.466 903.465 322.507 900.931 325.104C898.397 327.701 895.625 329 892.616 329ZM901.026 315.269C901.026 312.735 899.68 311.468 896.987 311.468C893.06 311.468 890.51 314.224 889.338 319.735C889.306 319.862 889.29 319.957 889.29 320.02C889.037 321.192 888.91 322.158 888.91 322.919C888.91 324.502 889.306 325.611 890.098 326.244C890.89 326.878 891.793 327.21 892.806 327.242C894.517 327.242 896.085 326.498 897.51 325.009C898.428 324.059 899.173 322.792 899.743 321.208C900.313 319.624 900.662 318.357 900.788 317.407C900.915 316.457 900.994 315.744 901.026 315.269Z" fill="black"/>
<circle cx="884.347" cy="293" r="48" stroke="black" stroke-width="4"/>
<path d="M1276.35 560L1276.35 9.99998" stroke="black" stroke-width="4" stroke-linecap="round"/>
<path d="M1274.35 560C1274.35 561.105 1275.24 562 1276.35 562C1277.45 562 1278.35 561.105 1278.35 560L1274.35 560ZM1276.35 285L1264.8 305L1287.89 305L1276.35 285ZM1278.35 560L1278.35 303L1274.35 303L1274.35 560L1278.35 560Z" fill="black"/>
<path d="M1303.35 289.187C1303.38 289.095 1303.41 288.971 1303.44 288.817C1303.47 288.663 1303.55 288.323 1303.67 287.799C1303.79 287.274 1303.95 286.796 1304.13 286.364C1304.32 285.932 1304.55 285.423 1304.83 284.837C1305.11 284.251 1305.41 283.788 1305.75 283.449C1306.09 283.109 1306.49 282.77 1306.96 282.431C1307.42 282.091 1307.93 281.953 1308.48 282.014C1309.22 282.014 1309.89 282.122 1310.47 282.338C1311.06 282.554 1311.52 282.832 1311.86 283.171C1312.2 283.511 1312.45 283.85 1312.6 284.189C1312.76 284.529 1312.88 284.822 1312.97 285.069L1313.07 285.393C1313.07 285.454 1313.08 285.485 1313.11 285.485L1313.62 284.976C1315.5 283.001 1317.65 282.014 1320.05 282.014C1321.72 282.014 1323.06 282.431 1324.08 283.264C1325.1 284.097 1325.62 285.315 1325.65 286.92V287.382C1325.65 288.123 1324.67 292.334 1322.69 300.016C1320.9 307.266 1319.95 310.999 1319.82 311.215C1319.42 312.048 1318.73 312.465 1317.74 312.465C1317.34 312.465 1317 312.342 1316.72 312.095C1316.44 311.848 1316.27 311.509 1316.21 311.077C1316.21 310.799 1317.12 307.05 1318.94 299.831L1321.81 288.262C1321.9 287.799 1321.95 287.213 1321.95 286.503C1321.95 284.683 1321.27 283.773 1319.91 283.773H1319.68C1317.03 283.773 1314.79 285.331 1312.97 288.447L1312.65 289.002L1311.12 295.203C1310.1 299.245 1309.52 301.42 1309.36 301.729C1308.96 302.562 1308.3 302.978 1307.37 302.978C1306.97 302.978 1306.65 302.885 1306.4 302.7C1306.15 302.515 1305.98 302.33 1305.89 302.145C1305.8 301.96 1305.77 301.806 1305.8 301.682C1305.8 301.281 1306.42 298.628 1307.65 293.722C1308.88 288.817 1309.5 286.087 1309.5 285.531C1309.5 284.328 1309.1 283.727 1308.3 283.727C1307.65 283.727 1307.1 284.158 1306.63 285.022C1306.17 285.886 1305.8 286.827 1305.52 287.845C1305.24 288.863 1305.07 289.419 1305.01 289.511C1304.95 289.573 1304.7 289.604 1304.27 289.604H1303.62C1303.44 289.419 1303.35 289.28 1303.35 289.187Z" fill="black"/>
<path d="M1159.35 319.039C1159.35 319.039 1159.35 318.837 1159.35 318.433C1159.35 318.029 1159.56 317.719 1160 317.501H1187.07C1187.53 317.75 1187.77 318.06 1187.77 318.433C1187.77 318.806 1187.53 319.116 1187.07 319.365H1160C1159.56 319.147 1159.35 318.837 1159.35 318.433V319.039Z" fill="black"/>
<path d="M1200.25 330.593C1198.14 330.593 1196.43 329.894 1195.13 328.497C1193.82 327.099 1193.16 325.344 1193.13 323.232C1193.13 320.126 1194.26 317.237 1196.53 314.566C1198.79 311.895 1201.43 310.388 1204.45 310.047C1204.48 310.016 1206.65 310 1210.97 310H1217.4C1217.43 310.031 1217.48 310.062 1217.54 310.093C1217.6 310.124 1217.66 310.155 1217.73 310.186C1217.79 310.217 1217.83 310.248 1217.87 310.28C1217.9 310.311 1217.94 310.357 1218.01 310.419C1218.07 310.481 1218.1 310.513 1218.1 310.513C1218.1 310.513 1218.13 310.575 1218.19 310.699C1218.25 310.823 1218.27 310.885 1218.24 310.885C1218.21 310.885 1218.22 310.963 1218.28 311.118C1218.35 311.274 1218.36 311.367 1218.33 311.398C1218.33 312.764 1217.32 313.448 1215.3 313.448C1215.09 313.448 1214.82 313.448 1214.51 313.448C1214.2 313.448 1213.98 313.432 1213.86 313.401H1211.06L1211.3 313.867C1211.86 315.047 1212.13 316.367 1212.13 317.827C1212.13 321.244 1210.89 324.226 1208.41 326.773C1205.92 329.32 1203.2 330.593 1200.25 330.593ZM1208.5 317.128C1208.5 314.644 1207.18 313.401 1204.54 313.401C1200.69 313.401 1198.19 316.103 1197.04 321.508C1197.01 321.632 1196.99 321.725 1196.99 321.788C1196.74 322.937 1196.62 323.884 1196.62 324.63C1196.62 326.183 1197.01 327.27 1197.78 327.891C1198.56 328.512 1199.45 328.838 1200.44 328.869C1202.12 328.869 1203.66 328.14 1205.05 326.68C1205.95 325.748 1206.68 324.505 1207.24 322.952C1207.8 321.399 1208.14 320.157 1208.27 319.225C1208.39 318.293 1208.47 317.594 1208.5 317.128Z" fill="black"/>
<circle cx="1185.35" cy="293" r="4" fill="black"/>
</svg>
