<svg width="1516" height="411" viewBox="0 0 1516 411" fill="none" xmlns="http://www.w3.org/2000/svg">
<path d="M228.014 48.5C170.014 71.5 150.014 152 159.514 215.5C169.014 279 212.014 345.5 259.014 354.5" stroke="#235BA4" stroke-width="2" stroke-linecap="round" stroke-dasharray="5 5"/>
<path d="M414 106C389.685 83.2587 328.212 109.583 287.5 99C254.754 90.4878 263 35.5 227 48.5" stroke="#E2644B" stroke-linecap="round" stroke-dasharray="2 2"/>
<path d="M167.081 309.613C240.536 404.895 444.483 339.691 459.526 220.241C459.535 220.164 459.545 220.086 459.555 220.009C459.567 219.905 459.58 219.802 459.593 219.698C473.9 101.379 293.407 -5.67957 196.906 64.1857C148.96 98.8974 126.883 158.396 131.649 216.172C134.407 249.609 146.155 282.468 167.081 309.613Z" fill="#D9D9D9" fill-opacity="0.3"/>
<path d="M459.526 220.241C444.483 339.691 240.536 404.895 167.081 309.613C146.155 282.468 134.407 249.609 131.649 216.172C126.883 158.396 148.96 98.8974 196.906 64.1857C293.407 -5.67957 473.9 101.379 459.593 219.698M459.526 220.241C459.548 220.06 459.571 219.879 459.593 219.698M459.526 220.241L459.593 219.698" stroke="black"/>
<path d="M326 270.5C284 193 469.49 161.217 414 106" stroke="#E2644B" stroke-linecap="round"/>
<path d="M341.588 262.2C341.639 262.123 341.717 262.084 341.82 262.084H341.975H342.227C342.304 262.161 342.343 262.213 342.343 262.239C342.343 262.329 342.149 263.123 341.762 264.62C341.672 264.981 341.581 265.362 341.491 265.762C341.401 266.162 341.323 266.459 341.259 266.652L341.181 266.962C341.181 266.975 341.239 266.981 341.356 266.981C341.472 266.981 341.678 267.02 341.975 267.097C342.272 267.175 342.581 267.284 342.904 267.426C343.472 267.697 343.943 268.091 344.317 268.607C344.691 269.123 344.878 269.749 344.878 270.485C344.878 271.22 344.678 271.924 344.278 272.595C343.878 273.266 343.382 273.821 342.788 274.259C342.194 274.698 341.569 275.046 340.91 275.305C340.252 275.563 339.639 275.698 339.072 275.711H338.994L338.53 277.55C338.452 277.847 338.368 278.202 338.278 278.614C338.175 279.027 338.104 279.273 338.065 279.35C338.026 279.427 337.949 279.473 337.833 279.486H337.717C337.458 279.486 337.329 279.44 337.329 279.35C337.329 279.286 337.471 278.673 337.755 277.511L338.2 275.73C338.2 275.717 338.149 275.711 338.046 275.711C337.981 275.711 337.852 275.698 337.658 275.672C337.465 275.646 337.175 275.556 336.787 275.401C336.4 275.246 336.052 275.053 335.742 274.821C335.432 274.588 335.142 274.246 334.871 273.795C334.6 273.343 334.478 272.814 334.503 272.207C334.503 271.433 334.716 270.704 335.142 270.02C335.568 269.336 336.091 268.781 336.71 268.356C337.329 267.93 337.955 267.594 338.588 267.349C339.22 267.104 339.788 266.981 340.291 266.981C340.355 266.981 340.394 266.955 340.407 266.904L340.988 264.542C341.388 263.007 341.588 262.226 341.588 262.2ZM336.033 272.614C336.033 273.053 336.11 273.433 336.265 273.756C336.42 274.079 336.633 274.324 336.904 274.492C337.175 274.659 337.407 274.775 337.6 274.84C337.794 274.904 338.013 274.956 338.259 274.995H338.394L340.194 267.697C340.143 267.697 340.072 267.704 339.981 267.717C339.891 267.73 339.704 267.781 339.42 267.872C339.136 267.962 338.865 268.065 338.607 268.181C338.349 268.297 338.065 268.485 337.755 268.743C337.446 269.001 337.181 269.298 336.962 269.633C336.729 269.994 336.516 270.427 336.323 270.93C336.129 271.524 336.033 272.085 336.033 272.614ZM343.349 270.059C343.349 269.569 343.246 269.149 343.04 268.801C342.833 268.452 342.575 268.207 342.265 268.065C341.956 267.923 341.704 267.826 341.51 267.775C341.317 267.723 341.162 267.697 341.046 267.697H340.988L340.097 271.317L339.168 274.956C339.168 274.982 339.175 274.995 339.188 274.995C339.291 274.995 339.497 274.956 339.807 274.879C340.117 274.801 340.375 274.711 340.581 274.608C341.136 274.363 341.614 274.021 342.014 273.582C342.414 273.143 342.698 272.691 342.865 272.227C343.033 271.762 343.156 271.349 343.233 270.988C343.311 270.627 343.349 270.317 343.349 270.059Z" fill="black"/>
<path d="M347.027 270.678C347.027 269.788 347.092 268.943 347.221 268.143C347.35 267.343 347.498 266.652 347.666 266.071C347.834 265.491 348.072 264.923 348.382 264.368C348.692 263.813 348.937 263.381 349.118 263.071C349.298 262.761 349.569 262.426 349.931 262.065C350.292 261.703 350.505 261.484 350.569 261.407C350.634 261.329 350.795 261.194 351.053 261H351.305H351.382C351.563 261 351.653 261.058 351.653 261.174C351.653 261.213 351.544 261.348 351.324 261.581C351.105 261.813 350.84 262.155 350.531 262.607C350.221 263.058 349.905 263.613 349.582 264.271C349.26 264.929 348.989 265.82 348.769 266.942C348.55 268.065 348.44 269.31 348.44 270.678C348.44 272.046 348.55 273.285 348.769 274.395C348.989 275.505 349.253 276.401 349.563 277.085C349.873 277.769 350.189 278.324 350.511 278.75C350.834 279.176 351.105 279.518 351.324 279.776C351.544 280.034 351.653 280.169 351.653 280.182C351.653 280.298 351.557 280.357 351.363 280.357H351.305H351.053L350.511 279.892C349.298 278.795 348.414 277.427 347.859 275.788C347.305 274.15 347.027 272.446 347.027 270.678Z" fill="black"/>
<path d="M353.744 269.923C353.834 269.381 354.183 268.756 354.789 268.046C355.396 267.336 356.144 266.975 357.034 266.962C357.486 266.962 357.899 267.078 358.273 267.31C358.647 267.543 358.925 267.833 359.106 268.181C359.648 267.368 360.299 266.962 361.061 266.962C361.538 266.962 361.951 267.104 362.299 267.388C362.648 267.672 362.828 268.052 362.841 268.53C362.841 268.904 362.751 269.207 362.57 269.439C362.39 269.672 362.216 269.814 362.048 269.865C361.88 269.917 361.732 269.943 361.603 269.943C361.357 269.943 361.157 269.872 361.002 269.73C360.848 269.588 360.77 269.401 360.77 269.168C360.77 268.575 361.093 268.168 361.738 267.949C361.596 267.781 361.338 267.697 360.964 267.697C360.796 267.697 360.673 267.71 360.596 267.736C360.106 267.943 359.744 268.368 359.512 269.014C358.738 271.865 358.351 273.53 358.351 274.008C358.351 274.369 358.454 274.627 358.66 274.782C358.867 274.937 359.093 275.014 359.338 275.014C359.815 275.014 360.286 274.801 360.751 274.375C361.215 273.95 361.532 273.427 361.699 272.808C361.738 272.678 361.777 272.607 361.815 272.595C361.854 272.582 361.957 272.569 362.125 272.556H362.203C362.396 272.556 362.493 272.607 362.493 272.711C362.493 272.724 362.48 272.795 362.454 272.924C362.248 273.659 361.848 274.311 361.254 274.879C360.661 275.446 359.97 275.73 359.183 275.73C358.28 275.73 357.596 275.324 357.131 274.511C356.602 275.311 355.996 275.711 355.312 275.711H355.196C354.563 275.711 354.112 275.543 353.841 275.208C353.57 274.872 353.428 274.517 353.415 274.143C353.415 273.73 353.537 273.395 353.783 273.137C354.028 272.878 354.318 272.749 354.654 272.749C355.208 272.749 355.486 273.02 355.486 273.562C355.486 273.821 355.408 274.046 355.254 274.24C355.099 274.433 354.95 274.563 354.808 274.627C354.666 274.692 354.583 274.724 354.557 274.724L354.499 274.743C354.499 274.756 354.537 274.782 354.615 274.821C354.692 274.859 354.796 274.904 354.925 274.956C355.054 275.008 355.176 275.027 355.292 275.014C355.757 275.014 356.157 274.724 356.492 274.143C356.609 273.937 356.757 273.498 356.938 272.827C357.118 272.156 357.299 271.459 357.48 270.736C357.66 270.014 357.764 269.588 357.789 269.459C357.854 269.11 357.886 268.859 357.886 268.704C357.886 268.343 357.789 268.085 357.596 267.93C357.402 267.775 357.183 267.697 356.938 267.697C356.421 267.697 355.938 267.904 355.486 268.317C355.034 268.73 354.718 269.259 354.537 269.904C354.512 270.02 354.479 270.085 354.441 270.098C354.402 270.11 354.299 270.123 354.131 270.136H353.86C353.783 270.059 353.744 269.988 353.744 269.923Z" fill="black"/>
<path d="M364.971 261.019L365.048 261C365.113 261 365.177 261 365.242 261H365.474L366.016 261.465C367.229 262.561 368.113 263.929 368.668 265.568C369.223 267.207 369.5 268.91 369.5 270.678C369.5 271.556 369.435 272.401 369.306 273.214C369.177 274.027 369.029 274.717 368.861 275.285C368.693 275.853 368.455 276.421 368.145 276.989C367.835 277.556 367.59 277.989 367.409 278.285C367.229 278.582 366.964 278.911 366.616 279.273C366.267 279.634 366.061 279.847 365.996 279.911C365.932 279.976 365.784 280.098 365.551 280.279C365.513 280.318 365.487 280.344 365.474 280.357H365.242C365.138 280.357 365.067 280.357 365.029 280.357C364.99 280.357 364.958 280.337 364.932 280.298C364.906 280.26 364.887 280.202 364.874 280.124C364.887 280.111 364.958 280.028 365.087 279.873C367.087 277.795 368.087 274.73 368.087 270.678C368.087 266.626 367.087 263.562 365.087 261.484C364.958 261.329 364.887 261.245 364.874 261.232C364.874 261.129 364.906 261.058 364.971 261.019Z" fill="black"/>
<circle cx="326" cy="270.5" r="2.5" fill="black"/>
<path d="M259.014 354.5C297.014 360.5 241.514 283.5 237.514 255C233.514 226.5 258.014 190.5 293.014 140C328.014 89.5 286.014 25.5 228.014 48.5" stroke="#235BA4" stroke-width="2" stroke-linecap="round"/>
<path d="M285.278 339.678C285.278 340.119 285.7 340.376 286.544 340.449C286.875 340.449 287.04 340.55 287.04 340.752C287.04 340.77 287.021 340.89 286.985 341.11C286.93 341.367 286.875 341.532 286.82 341.606C286.764 341.679 286.645 341.716 286.462 341.716C286.425 341.716 286.315 341.716 286.131 341.716C285.948 341.716 285.635 341.707 285.195 341.688C284.754 341.67 284.167 341.661 283.433 341.661C282.129 341.661 281.294 341.679 280.927 341.716H280.707C280.578 341.587 280.514 341.486 280.514 341.413C280.551 340.917 280.67 340.596 280.872 340.449H281.257C282.542 340.394 283.478 339.935 284.066 339.072C284.176 338.962 285.837 336.163 289.05 330.674C292.262 325.185 293.896 322.404 293.951 322.33C294.08 322.11 294.3 322 294.612 322H294.832H295.301C295.411 322.165 295.466 322.257 295.466 322.275L296.237 331.169C296.751 337.099 297.026 340.091 297.063 340.146C297.155 340.348 297.751 340.449 298.853 340.449C299.312 340.449 299.541 340.541 299.541 340.724C299.541 340.761 299.514 340.89 299.459 341.11C299.403 341.385 299.358 341.551 299.321 341.606C299.284 341.661 299.156 341.697 298.935 341.716C298.88 341.716 298.752 341.716 298.55 341.716C298.348 341.716 297.99 341.707 297.476 341.688C296.962 341.67 296.292 341.661 295.466 341.661C293.74 341.661 292.611 341.679 292.079 341.716H291.748C291.638 341.606 291.583 341.523 291.583 341.468C291.583 341.413 291.602 341.248 291.638 340.972C291.712 340.734 291.767 340.587 291.804 340.532L291.914 340.449H292.464C293.456 340.394 294.043 340.238 294.227 339.981L293.896 335.851H287.343L286.406 337.448C285.654 338.714 285.278 339.458 285.278 339.678ZM293.759 334.556C293.759 334.354 293.648 332.923 293.428 330.261C293.208 327.599 293.079 326.259 293.043 326.241L292.299 327.425C292.005 327.92 291.427 328.902 290.564 330.371L288.086 334.556L290.922 334.584C292.813 334.584 293.759 334.575 293.759 334.556Z" fill="black"/>
<path d="M510.014 200.404C510.014 199.949 510.259 199.599 510.749 199.354H544.212C544.737 199.634 545 199.984 545 200.404C545 200.79 544.755 201.122 544.265 201.403L527.559 201.455H510.854C510.294 201.28 510.014 200.93 510.014 200.404ZM510.014 210.596C510.014 210.07 510.294 209.72 510.854 209.545H544.265C544.755 209.895 545 210.245 545 210.596C545 211.051 544.737 211.401 544.212 211.646H510.749C510.259 211.401 510.014 211.051 510.014 210.596Z" fill="black"/>
<path d="M689 48.5C657 63 713.5 110 735.5 137.5C757.5 165 746.158 247 715.079 276C684 305 673 345.5 720 354.5" stroke="#235BA4" stroke-width="2" stroke-linecap="round" stroke-dasharray="5 5"/>
<path d="M874.986 106C850.671 83.2587 789.198 109.583 748.486 99C715.74 90.4878 723.986 35.5 687.986 48.5" stroke="#E2644B" stroke-linecap="round" stroke-dasharray="2 2"/>
<path d="M628.067 309.613C701.522 404.895 905.47 339.691 920.512 220.241C920.522 220.164 920.531 220.086 920.541 220.009C920.554 219.905 920.566 219.802 920.579 219.698C934.886 101.379 754.394 -5.67957 657.892 64.1857C609.946 98.8974 587.87 158.396 592.635 216.172C595.393 249.609 607.141 282.468 628.067 309.613Z" fill="#D9D9D9" fill-opacity="0.3"/>
<path d="M920.512 220.241C905.47 339.691 701.522 404.895 628.067 309.613C607.141 282.468 595.393 249.609 592.635 216.172C587.87 158.396 609.946 98.8974 657.892 64.1857C754.394 -5.67957 934.886 101.379 920.579 219.698M920.512 220.241C920.535 220.06 920.557 219.879 920.579 219.698M920.512 220.241L920.579 219.698" stroke="black"/>
<path d="M786.986 270.5C744.986 193 930.476 161.217 874.986 106" stroke="#E2644B" stroke-linecap="round"/>
<path d="M720 354.5C758 360.5 790.5 300 786.5 271.5C782.5 243 738 220 817.5 175C897 130 762.5 28.5 689 48.5" stroke="#235BA4" stroke-width="2" stroke-linecap="round"/>
<path d="M802.574 262.2C802.626 262.123 802.703 262.084 802.806 262.084H802.961H803.213C803.29 262.161 803.329 262.213 803.329 262.239C803.329 262.329 803.135 263.123 802.748 264.62C802.658 264.981 802.567 265.362 802.477 265.762C802.387 266.162 802.309 266.459 802.245 266.652L802.167 266.962C802.167 266.975 802.226 266.981 802.342 266.981C802.458 266.981 802.664 267.02 802.961 267.097C803.258 267.175 803.568 267.284 803.89 267.426C804.458 267.697 804.929 268.091 805.303 268.607C805.677 269.123 805.865 269.749 805.865 270.485C805.865 271.22 805.665 271.924 805.265 272.595C804.864 273.266 804.368 273.821 803.774 274.259C803.18 274.698 802.555 275.046 801.896 275.305C801.238 275.563 800.625 275.698 800.058 275.711H799.98L799.516 277.55C799.438 277.847 799.354 278.202 799.264 278.614C799.161 279.027 799.09 279.273 799.051 279.35C799.012 279.427 798.935 279.473 798.819 279.486H798.703C798.445 279.486 798.316 279.44 798.316 279.35C798.316 279.286 798.457 278.673 798.741 277.511L799.187 275.73C799.187 275.717 799.135 275.711 799.032 275.711C798.967 275.711 798.838 275.698 798.645 275.672C798.451 275.646 798.161 275.556 797.774 275.401C797.386 275.246 797.038 275.053 796.728 274.821C796.419 274.588 796.128 274.246 795.857 273.795C795.586 273.343 795.464 272.814 795.489 272.207C795.489 271.433 795.702 270.704 796.128 270.02C796.554 269.336 797.077 268.781 797.696 268.356C798.316 267.93 798.941 267.594 799.574 267.349C800.206 267.104 800.774 266.981 801.277 266.981C801.342 266.981 801.38 266.955 801.393 266.904L801.974 264.542C802.374 263.007 802.574 262.226 802.574 262.2ZM797.019 272.614C797.019 273.053 797.096 273.433 797.251 273.756C797.406 274.079 797.619 274.324 797.89 274.492C798.161 274.659 798.393 274.775 798.586 274.84C798.78 274.904 798.999 274.956 799.245 274.995H799.38L801.18 267.697C801.129 267.697 801.058 267.704 800.967 267.717C800.877 267.73 800.69 267.781 800.406 267.872C800.122 267.962 799.851 268.065 799.593 268.181C799.335 268.297 799.051 268.485 798.741 268.743C798.432 269.001 798.167 269.298 797.948 269.633C797.715 269.994 797.503 270.427 797.309 270.93C797.115 271.524 797.019 272.085 797.019 272.614ZM804.335 270.059C804.335 269.569 804.232 269.149 804.026 268.801C803.819 268.452 803.561 268.207 803.251 268.065C802.942 267.923 802.69 267.826 802.497 267.775C802.303 267.723 802.148 267.697 802.032 267.697H801.974L801.083 271.317L800.154 274.956C800.154 274.982 800.161 274.995 800.174 274.995C800.277 274.995 800.483 274.956 800.793 274.879C801.103 274.801 801.361 274.711 801.567 274.608C802.122 274.363 802.6 274.021 803 273.582C803.4 273.143 803.684 272.691 803.851 272.227C804.019 271.762 804.142 271.349 804.219 270.988C804.297 270.627 804.335 270.317 804.335 270.059Z" fill="black"/>
<path d="M808.013 270.678C808.013 269.788 808.078 268.943 808.207 268.143C808.336 267.343 808.484 266.652 808.652 266.071C808.82 265.491 809.058 264.923 809.368 264.368C809.678 263.813 809.923 263.381 810.104 263.071C810.284 262.761 810.555 262.426 810.917 262.065C811.278 261.703 811.491 261.484 811.555 261.407C811.62 261.329 811.781 261.194 812.039 261H812.291H812.368C812.549 261 812.639 261.058 812.639 261.174C812.639 261.213 812.53 261.348 812.31 261.581C812.091 261.813 811.826 262.155 811.517 262.607C811.207 263.058 810.891 263.613 810.568 264.271C810.246 264.929 809.975 265.82 809.755 266.942C809.536 268.065 809.426 269.31 809.426 270.678C809.426 272.046 809.536 273.285 809.755 274.395C809.975 275.505 810.239 276.401 810.549 277.085C810.859 277.769 811.175 278.324 811.497 278.75C811.82 279.176 812.091 279.518 812.31 279.776C812.53 280.034 812.639 280.169 812.639 280.182C812.639 280.298 812.543 280.357 812.349 280.357H812.291H812.039L811.497 279.892C810.284 278.795 809.4 277.427 808.846 275.788C808.291 274.15 808.013 272.446 808.013 270.678Z" fill="black"/>
<path d="M814.73 269.923C814.82 269.381 815.169 268.756 815.775 268.046C816.382 267.336 817.13 266.975 818.02 266.962C818.472 266.962 818.885 267.078 819.259 267.31C819.633 267.543 819.911 267.833 820.092 268.181C820.634 267.368 821.285 266.962 822.047 266.962C822.524 266.962 822.937 267.104 823.285 267.388C823.634 267.672 823.814 268.052 823.827 268.53C823.827 268.904 823.737 269.207 823.556 269.439C823.376 269.672 823.202 269.814 823.034 269.865C822.866 269.917 822.718 269.943 822.589 269.943C822.343 269.943 822.143 269.872 821.989 269.73C821.834 269.588 821.756 269.401 821.756 269.168C821.756 268.575 822.079 268.168 822.724 267.949C822.582 267.781 822.324 267.697 821.95 267.697C821.782 267.697 821.659 267.71 821.582 267.736C821.092 267.943 820.73 268.368 820.498 269.014C819.724 271.865 819.337 273.53 819.337 274.008C819.337 274.369 819.44 274.627 819.646 274.782C819.853 274.937 820.079 275.014 820.324 275.014C820.801 275.014 821.272 274.801 821.737 274.375C822.201 273.95 822.518 273.427 822.685 272.808C822.724 272.678 822.763 272.607 822.801 272.595C822.84 272.582 822.943 272.569 823.111 272.556H823.189C823.382 272.556 823.479 272.607 823.479 272.711C823.479 272.724 823.466 272.795 823.44 272.924C823.234 273.659 822.834 274.311 822.24 274.879C821.647 275.446 820.956 275.73 820.169 275.73C819.266 275.73 818.582 275.324 818.117 274.511C817.588 275.311 816.982 275.711 816.298 275.711H816.182C815.549 275.711 815.098 275.543 814.827 275.208C814.556 274.872 814.414 274.517 814.401 274.143C814.401 273.73 814.523 273.395 814.769 273.137C815.014 272.878 815.304 272.749 815.64 272.749C816.194 272.749 816.472 273.02 816.472 273.562C816.472 273.821 816.394 274.046 816.24 274.24C816.085 274.433 815.936 274.563 815.794 274.627C815.652 274.692 815.569 274.724 815.543 274.724L815.485 274.743C815.485 274.756 815.523 274.782 815.601 274.821C815.678 274.859 815.782 274.904 815.911 274.956C816.04 275.008 816.162 275.027 816.278 275.014C816.743 275.014 817.143 274.724 817.478 274.143C817.595 273.937 817.743 273.498 817.924 272.827C818.104 272.156 818.285 271.459 818.466 270.736C818.646 270.014 818.75 269.588 818.775 269.459C818.84 269.11 818.872 268.859 818.872 268.704C818.872 268.343 818.775 268.085 818.582 267.93C818.388 267.775 818.169 267.697 817.924 267.697C817.407 267.697 816.924 267.904 816.472 268.317C816.02 268.73 815.704 269.259 815.523 269.904C815.498 270.02 815.465 270.085 815.427 270.098C815.388 270.11 815.285 270.123 815.117 270.136H814.846C814.769 270.059 814.73 269.988 814.73 269.923Z" fill="black"/>
<path d="M825.957 261.019L826.034 261C826.099 261 826.163 261 826.228 261H826.46L827.002 261.465C828.215 262.561 829.099 263.929 829.654 265.568C830.209 267.207 830.486 268.91 830.486 270.678C830.486 271.556 830.422 272.401 830.293 273.214C830.163 274.027 830.015 274.717 829.847 275.285C829.68 275.853 829.441 276.421 829.131 276.989C828.821 277.556 828.576 277.989 828.396 278.285C828.215 278.582 827.95 278.911 827.602 279.273C827.254 279.634 827.047 279.847 826.983 279.911C826.918 279.976 826.77 280.098 826.537 280.279C826.499 280.318 826.473 280.344 826.46 280.357H826.228C826.124 280.357 826.053 280.357 826.015 280.357C825.976 280.357 825.944 280.337 825.918 280.298C825.892 280.26 825.873 280.202 825.86 280.124C825.873 280.111 825.944 280.028 826.073 279.873C828.073 277.795 829.073 274.73 829.073 270.678C829.073 266.626 828.073 263.562 826.073 261.484C825.944 261.329 825.873 261.245 825.86 261.232C825.86 261.129 825.892 261.058 825.957 261.019Z" fill="black"/>
<circle cx="786.986" cy="270.5" r="2.5" fill="black"/>
<path d="M743.764 329.678C743.764 330.119 744.186 330.376 745.03 330.449C745.361 330.449 745.526 330.55 745.526 330.752C745.526 330.77 745.508 330.89 745.471 331.11C745.416 331.367 745.361 331.532 745.306 331.606C745.251 331.679 745.131 331.716 744.948 331.716C744.911 331.716 744.801 331.716 744.617 331.716C744.434 331.716 744.122 331.707 743.681 331.688C743.241 331.67 742.653 331.661 741.919 331.661C740.615 331.661 739.78 331.679 739.413 331.716H739.193C739.064 331.587 739 331.486 739 331.413C739.037 330.917 739.156 330.596 739.358 330.449H739.743C741.028 330.394 741.965 329.935 742.552 329.072C742.662 328.962 744.324 326.163 747.536 320.674C750.749 315.185 752.382 312.404 752.438 312.33C752.566 312.11 752.786 312 753.098 312H753.319H753.787C753.897 312.165 753.952 312.257 753.952 312.275L754.723 321.169C755.237 327.099 755.512 330.091 755.549 330.146C755.641 330.348 756.238 330.449 757.339 330.449C757.798 330.449 758.027 330.541 758.027 330.724C758.027 330.761 758 330.89 757.945 331.11C757.89 331.385 757.844 331.551 757.807 331.606C757.77 331.661 757.642 331.697 757.422 331.716C757.366 331.716 757.238 331.716 757.036 331.716C756.834 331.716 756.476 331.707 755.962 331.688C755.448 331.67 754.778 331.661 753.952 331.661C752.226 331.661 751.097 331.679 750.565 331.716H750.235C750.125 331.606 750.069 331.523 750.069 331.468C750.069 331.413 750.088 331.248 750.125 330.972C750.198 330.734 750.253 330.587 750.29 330.532L750.4 330.449H750.951C751.942 330.394 752.529 330.238 752.713 329.981L752.382 325.851H745.829L744.893 327.448C744.14 328.714 743.764 329.458 743.764 329.678ZM752.245 324.556C752.245 324.354 752.135 322.923 751.914 320.261C751.694 317.599 751.566 316.259 751.529 316.241L750.785 317.425C750.492 317.92 749.913 318.902 749.051 320.371L746.572 324.556L749.409 324.584C751.299 324.584 752.245 324.575 752.245 324.556Z" fill="black"/>
<path d="M971 200.404C971 199.949 971.245 199.599 971.735 199.354H1005.2C1005.72 199.634 1005.99 199.984 1005.99 200.404C1005.99 200.79 1005.74 201.122 1005.25 201.403L988.546 201.455H971.841C971.28 201.28 971 200.93 971 200.404ZM971 210.596C971 210.07 971.28 209.72 971.841 209.545H1005.25C1005.74 209.895 1005.99 210.245 1005.99 210.596C1005.99 211.051 1005.72 211.401 1005.2 211.646H971.735C971.245 211.401 971 211.051 971 210.596Z" fill="black"/>
<path d="M1335.5 105C1295.5 61.5 1190.58 83 1160.5 138C1130.42 193 1191.58 211 1160.5 240C1129.42 269 1133.99 345.5 1180.99 354.5" stroke="#235BA4" stroke-width="2" stroke-linecap="round" stroke-dasharray="5 5"/>
<path d="M1089.05 309.613C1162.51 404.895 1366.46 339.691 1381.5 220.241C1381.51 220.164 1381.52 220.086 1381.53 220.009C1381.54 219.905 1381.55 219.802 1381.57 219.698C1395.87 101.379 1215.38 -5.67957 1118.88 64.1857C1070.93 98.8974 1048.86 158.396 1053.62 216.172C1056.38 249.609 1068.13 282.468 1089.05 309.613Z" fill="#D9D9D9" fill-opacity="0.3"/>
<path d="M1381.5 220.241C1366.46 339.691 1162.51 404.895 1089.05 309.613C1068.13 282.468 1056.38 249.609 1053.62 216.172C1048.86 158.396 1070.93 98.8974 1118.88 64.1857C1215.38 -5.67957 1395.87 101.379 1381.57 219.698M1381.5 220.241C1381.52 220.06 1381.54 219.879 1381.57 219.698M1381.5 220.241L1381.57 219.698" stroke="black"/>
<path d="M1180.99 354.5C1218.99 360.5 1254.47 303.5 1247.49 271.5C1240.5 239.5 1239.5 217.85 1290 185C1340.5 152.15 1359.5 133.5 1336 105" stroke="#235BA4" stroke-width="2" stroke-linecap="round"/>
<path d="M1263.56 262.2C1263.61 262.123 1263.69 262.084 1263.79 262.084H1263.95H1264.2C1264.28 262.161 1264.32 262.213 1264.32 262.239C1264.32 262.329 1264.12 263.123 1263.73 264.62C1263.64 264.981 1263.55 265.362 1263.46 265.762C1263.37 266.162 1263.3 266.459 1263.23 266.652L1263.15 266.962C1263.15 266.975 1263.21 266.981 1263.33 266.981C1263.44 266.981 1263.65 267.02 1263.95 267.097C1264.24 267.175 1264.55 267.284 1264.88 267.426C1265.44 267.697 1265.92 268.091 1266.29 268.607C1266.66 269.123 1266.85 269.749 1266.85 270.485C1266.85 271.22 1266.65 271.924 1266.25 272.595C1265.85 273.266 1265.35 273.821 1264.76 274.259C1264.17 274.698 1263.54 275.046 1262.88 275.305C1262.22 275.563 1261.61 275.698 1261.04 275.711H1260.97L1260.5 277.55C1260.42 277.847 1260.34 278.202 1260.25 278.614C1260.15 279.027 1260.08 279.273 1260.04 279.35C1260 279.427 1259.92 279.473 1259.8 279.486H1259.69C1259.43 279.486 1259.3 279.44 1259.3 279.35C1259.3 279.286 1259.44 278.673 1259.73 277.511L1260.17 275.73C1260.17 275.717 1260.12 275.711 1260.02 275.711C1259.95 275.711 1259.82 275.698 1259.63 275.672C1259.44 275.646 1259.15 275.556 1258.76 275.401C1258.37 275.246 1258.02 275.053 1257.71 274.821C1257.4 274.588 1257.11 274.246 1256.84 273.795C1256.57 273.343 1256.45 272.814 1256.48 272.207C1256.48 271.433 1256.69 270.704 1257.11 270.02C1257.54 269.336 1258.06 268.781 1258.68 268.356C1259.3 267.93 1259.93 267.594 1260.56 267.349C1261.19 267.104 1261.76 266.981 1262.26 266.981C1262.33 266.981 1262.37 266.955 1262.38 266.904L1262.96 264.542C1263.36 263.007 1263.56 262.226 1263.56 262.2ZM1258 272.614C1258 273.053 1258.08 273.433 1258.24 273.756C1258.39 274.079 1258.6 274.324 1258.88 274.492C1259.15 274.659 1259.38 274.775 1259.57 274.84C1259.77 274.904 1259.99 274.956 1260.23 274.995H1260.37L1262.17 267.697C1262.11 267.697 1262.04 267.704 1261.95 267.717C1261.86 267.73 1261.68 267.781 1261.39 267.872C1261.11 267.962 1260.84 268.065 1260.58 268.181C1260.32 268.297 1260.04 268.485 1259.73 268.743C1259.42 269.001 1259.15 269.298 1258.93 269.633C1258.7 269.994 1258.49 270.427 1258.3 270.93C1258.1 271.524 1258 272.085 1258 272.614ZM1265.32 270.059C1265.32 269.569 1265.22 269.149 1265.01 268.801C1264.81 268.452 1264.55 268.207 1264.24 268.065C1263.93 267.923 1263.68 267.826 1263.48 267.775C1263.29 267.723 1263.13 267.697 1263.02 267.697H1262.96L1262.07 271.317L1261.14 274.956C1261.14 274.982 1261.15 274.995 1261.16 274.995C1261.26 274.995 1261.47 274.956 1261.78 274.879C1262.09 274.801 1262.35 274.711 1262.55 274.608C1263.11 274.363 1263.59 274.021 1263.99 273.582C1264.39 273.143 1264.67 272.691 1264.84 272.227C1265.01 271.762 1265.13 271.349 1265.21 270.988C1265.28 270.627 1265.32 270.317 1265.32 270.059Z" fill="black"/>
<path d="M1269 270.678C1269 269.788 1269.06 268.943 1269.19 268.143C1269.32 267.343 1269.47 266.652 1269.64 266.071C1269.81 265.491 1270.04 264.923 1270.35 264.368C1270.66 263.813 1270.91 263.381 1271.09 263.071C1271.27 262.761 1271.54 262.426 1271.9 262.065C1272.26 261.703 1272.48 261.484 1272.54 261.407C1272.61 261.329 1272.77 261.194 1273.03 261H1273.28H1273.35C1273.54 261 1273.63 261.058 1273.63 261.174C1273.63 261.213 1273.52 261.348 1273.3 261.581C1273.08 261.813 1272.81 262.155 1272.5 262.607C1272.19 263.058 1271.88 263.613 1271.55 264.271C1271.23 264.929 1270.96 265.82 1270.74 266.942C1270.52 268.065 1270.41 269.31 1270.41 270.678C1270.41 272.046 1270.52 273.285 1270.74 274.395C1270.96 275.505 1271.23 276.401 1271.54 277.085C1271.84 277.769 1272.16 278.324 1272.48 278.75C1272.81 279.176 1273.08 279.518 1273.3 279.776C1273.52 280.034 1273.63 280.169 1273.63 280.182C1273.63 280.298 1273.53 280.357 1273.34 280.357H1273.28H1273.03L1272.48 279.892C1271.27 278.795 1270.39 277.427 1269.83 275.788C1269.28 274.15 1269 272.446 1269 270.678Z" fill="black"/>
<path d="M1275.72 269.923C1275.81 269.381 1276.15 268.756 1276.76 268.046C1277.37 267.336 1278.12 266.975 1279.01 266.962C1279.46 266.962 1279.87 267.078 1280.25 267.31C1280.62 267.543 1280.9 267.833 1281.08 268.181C1281.62 267.368 1282.27 266.962 1283.03 266.962C1283.51 266.962 1283.92 267.104 1284.27 267.388C1284.62 267.672 1284.8 268.052 1284.81 268.53C1284.81 268.904 1284.72 269.207 1284.54 269.439C1284.36 269.672 1284.19 269.814 1284.02 269.865C1283.85 269.917 1283.7 269.943 1283.57 269.943C1283.33 269.943 1283.13 269.872 1282.97 269.73C1282.82 269.588 1282.74 269.401 1282.74 269.168C1282.74 268.575 1283.07 268.168 1283.71 267.949C1283.57 267.781 1283.31 267.697 1282.94 267.697C1282.77 267.697 1282.65 267.71 1282.57 267.736C1282.08 267.943 1281.72 268.368 1281.48 269.014C1280.71 271.865 1280.32 273.53 1280.32 274.008C1280.32 274.369 1280.43 274.627 1280.63 274.782C1280.84 274.937 1281.06 275.014 1281.31 275.014C1281.79 275.014 1282.26 274.801 1282.72 274.375C1283.19 273.95 1283.5 273.427 1283.67 272.808C1283.71 272.678 1283.75 272.607 1283.79 272.595C1283.83 272.582 1283.93 272.569 1284.1 272.556H1284.17C1284.37 272.556 1284.47 272.607 1284.47 272.711C1284.47 272.724 1284.45 272.795 1284.43 272.924C1284.22 273.659 1283.82 274.311 1283.23 274.879C1282.63 275.446 1281.94 275.73 1281.16 275.73C1280.25 275.73 1279.57 275.324 1279.1 274.511C1278.57 275.311 1277.97 275.711 1277.28 275.711H1277.17C1276.54 275.711 1276.08 275.543 1275.81 275.208C1275.54 274.872 1275.4 274.517 1275.39 274.143C1275.39 273.73 1275.51 273.395 1275.75 273.137C1276 272.878 1276.29 272.749 1276.63 272.749C1277.18 272.749 1277.46 273.02 1277.46 273.562C1277.46 273.821 1277.38 274.046 1277.23 274.24C1277.07 274.433 1276.92 274.563 1276.78 274.627C1276.64 274.692 1276.55 274.724 1276.53 274.724L1276.47 274.743C1276.47 274.756 1276.51 274.782 1276.59 274.821C1276.66 274.859 1276.77 274.904 1276.9 274.956C1277.03 275.008 1277.15 275.027 1277.26 275.014C1277.73 275.014 1278.13 274.724 1278.46 274.143C1278.58 273.937 1278.73 273.498 1278.91 272.827C1279.09 272.156 1279.27 271.459 1279.45 270.736C1279.63 270.014 1279.74 269.588 1279.76 269.459C1279.83 269.11 1279.86 268.859 1279.86 268.704C1279.86 268.343 1279.76 268.085 1279.57 267.93C1279.37 267.775 1279.16 267.697 1278.91 267.697C1278.39 267.697 1277.91 267.904 1277.46 268.317C1277.01 268.73 1276.69 269.259 1276.51 269.904C1276.48 270.02 1276.45 270.085 1276.41 270.098C1276.37 270.11 1276.27 270.123 1276.1 270.136H1275.83C1275.75 270.059 1275.72 269.988 1275.72 269.923Z" fill="black"/>
<path d="M1286.94 261.019L1287.02 261C1287.08 261 1287.15 261 1287.21 261H1287.45L1287.99 261.465C1289.2 262.561 1290.09 263.929 1290.64 265.568C1291.19 267.207 1291.47 268.91 1291.47 270.678C1291.47 271.556 1291.41 272.401 1291.28 273.214C1291.15 274.027 1291 274.717 1290.83 275.285C1290.67 275.853 1290.43 276.421 1290.12 276.989C1289.81 277.556 1289.56 277.989 1289.38 278.285C1289.2 278.582 1288.94 278.911 1288.59 279.273C1288.24 279.634 1288.03 279.847 1287.97 279.911C1287.9 279.976 1287.76 280.098 1287.52 280.279C1287.48 280.318 1287.46 280.344 1287.45 280.357H1287.21C1287.11 280.357 1287.04 280.357 1287 280.357C1286.96 280.357 1286.93 280.337 1286.9 280.298C1286.88 280.26 1286.86 280.202 1286.85 280.124C1286.86 280.111 1286.93 280.028 1287.06 279.873C1289.06 277.795 1290.06 274.73 1290.06 270.678C1290.06 266.626 1289.06 263.562 1287.06 261.484C1286.93 261.329 1286.86 261.245 1286.85 261.232C1286.85 261.129 1286.88 261.058 1286.94 261.019Z" fill="black"/>
<circle cx="1247.97" cy="270.5" r="2.5" fill="black"/>
<path d="M1203.76 329.678C1203.76 330.119 1204.19 330.376 1205.03 330.449C1205.36 330.449 1205.53 330.55 1205.53 330.752C1205.53 330.77 1205.51 330.89 1205.47 331.11C1205.42 331.367 1205.36 331.532 1205.31 331.606C1205.25 331.679 1205.13 331.716 1204.95 331.716C1204.91 331.716 1204.8 331.716 1204.62 331.716C1204.43 331.716 1204.12 331.707 1203.68 331.688C1203.24 331.67 1202.65 331.661 1201.92 331.661C1200.62 331.661 1199.78 331.679 1199.41 331.716H1199.19C1199.06 331.587 1199 331.486 1199 331.413C1199.04 330.917 1199.16 330.596 1199.36 330.449H1199.74C1201.03 330.394 1201.96 329.935 1202.55 329.072C1202.66 328.962 1204.32 326.163 1207.54 320.674C1210.75 315.185 1212.38 312.404 1212.44 312.33C1212.57 312.11 1212.79 312 1213.1 312H1213.32H1213.79C1213.9 312.165 1213.95 312.257 1213.95 312.275L1214.72 321.169C1215.24 327.099 1215.51 330.091 1215.55 330.146C1215.64 330.348 1216.24 330.449 1217.34 330.449C1217.8 330.449 1218.03 330.541 1218.03 330.724C1218.03 330.761 1218 330.89 1217.94 331.11C1217.89 331.385 1217.84 331.551 1217.81 331.606C1217.77 331.661 1217.64 331.697 1217.42 331.716C1217.37 331.716 1217.24 331.716 1217.04 331.716C1216.83 331.716 1216.48 331.707 1215.96 331.688C1215.45 331.67 1214.78 331.661 1213.95 331.661C1212.23 331.661 1211.1 331.679 1210.57 331.716H1210.23C1210.12 331.606 1210.07 331.523 1210.07 331.468C1210.07 331.413 1210.09 331.248 1210.12 330.972C1210.2 330.734 1210.25 330.587 1210.29 330.532L1210.4 330.449H1210.95C1211.94 330.394 1212.53 330.238 1212.71 329.981L1212.38 325.851H1205.83L1204.89 327.448C1204.14 328.714 1203.76 329.458 1203.76 329.678ZM1212.24 324.556C1212.24 324.354 1212.13 322.923 1211.91 320.261C1211.69 317.599 1211.57 316.259 1211.53 316.241L1210.79 317.425C1210.49 317.92 1209.91 318.902 1209.05 320.371L1206.57 324.556L1209.41 324.584C1211.3 324.584 1212.24 324.575 1212.24 324.556Z" fill="black"/>
</svg>
