<svg width="1516" height="411" viewBox="0 0 1516 411" fill="none" xmlns="http://www.w3.org/2000/svg">
<path d="M317 48.5C259 71.5 266 115 317 153C368 191 228 199 221.5 215" stroke="#235BA4" stroke-linecap="round" stroke-dasharray="2 2"/>
<path d="M548.512 220.241C533.47 339.691 329.522 404.895 256.067 309.613C235.141 282.468 223.393 249.609 220.635 216.172C215.87 158.396 237.946 98.8974 285.892 64.1857C382.394 -5.67957 562.886 101.379 548.579 219.698C548.566 219.802 548.554 219.905 548.541 220.009C548.531 220.086 548.522 220.164 548.512 220.241Z" fill="#D9D9D9" fill-opacity="0.3"/>
<path d="M548.512 220.241C533.47 339.691 329.522 404.895 256.067 309.613C235.141 282.468 223.393 249.609 220.635 216.172M548.512 220.241C545.755 232.984 510.691 223.864 456.029 236.684C401.368 249.504 349.428 222.903 315.235 223.864C252.992 225.612 220.82 228.602 220.82 216.618L220.635 216.172M548.512 220.241C548.535 220.06 548.557 219.879 548.579 219.698M548.512 220.241L548.579 219.698M220.635 216.172C215.87 158.396 237.946 98.8974 285.892 64.1857C382.394 -5.67957 562.886 101.379 548.579 219.698" stroke="black"/>
<path d="M256.067 309.613C235.141 282.468 223.393 249.609 220.635 216.172L220.887 216.075C224.199 204.927 308.934 188.058 387.631 190.993C448.929 193.278 545.818 210.78 548.579 219.698C548.569 219.777 548.56 219.856 548.55 219.935C548.537 220.037 548.525 220.139 548.512 220.241C548.464 220.624 548.413 221.007 548.361 221.389C532.162 340.108 329.286 404.589 256.067 309.613Z" fill="#B7E2F5" fill-opacity="0.3"/>
<path d="M256.067 309.613C329.522 404.895 533.47 339.691 548.512 220.241C545.755 232.984 510.691 223.864 456.029 236.684C401.368 249.504 349.428 222.903 315.235 223.864C252.992 225.612 220.82 228.602 220.82 216.618L220.635 216.172C223.393 249.609 235.141 282.468 256.067 309.613Z" fill="#B7E2F5" fill-opacity="0.3"/>
<path d="M548.512 220.241C533.47 339.691 329.522 404.895 256.067 309.613C235.141 282.468 223.393 249.609 220.635 216.172L220.82 216.618C220.82 228.602 252.992 225.612 315.235 223.864C349.428 222.903 401.368 249.504 456.029 236.684C510.691 223.864 545.755 232.984 548.512 220.241ZM548.512 220.241C548.535 220.06 548.557 219.879 548.579 219.698L548.512 220.241Z" stroke="black"/>
<path d="M220.845 216.064C224.157 204.916 308.892 188.047 387.589 190.981C448.887 193.267 545.776 210.768 548.537 219.687" stroke="black" stroke-dasharray="2 2"/>
<path d="M220.845 216.064C220.845 228.047 253.017 225.058 315.26 223.31C349.453 222.349 401.393 248.949 456.054 236.129C510.716 223.31 545.78 232.43 548.537 219.687" stroke="black"/>
<path d="M368.088 326.7C368.139 326.623 368.217 326.584 368.32 326.584H368.475H368.727C368.804 326.661 368.843 326.713 368.843 326.739C368.843 326.829 368.649 327.623 368.262 329.12C368.172 329.481 368.081 329.862 367.991 330.262C367.901 330.662 367.823 330.959 367.759 331.152L367.681 331.462C367.681 331.475 367.739 331.481 367.856 331.481C367.972 331.481 368.178 331.52 368.475 331.597C368.772 331.675 369.081 331.784 369.404 331.926C369.972 332.197 370.443 332.591 370.817 333.107C371.191 333.623 371.378 334.249 371.378 334.985C371.378 335.72 371.178 336.424 370.778 337.095C370.378 337.766 369.882 338.321 369.288 338.759C368.694 339.198 368.069 339.546 367.41 339.805C366.752 340.063 366.139 340.198 365.572 340.211H365.494L365.03 342.05C364.952 342.347 364.868 342.702 364.778 343.114C364.675 343.527 364.604 343.773 364.565 343.85C364.526 343.927 364.449 343.973 364.333 343.986H364.217C363.958 343.986 363.829 343.94 363.829 343.85C363.829 343.786 363.971 343.173 364.255 342.011L364.7 340.23C364.7 340.217 364.649 340.211 364.546 340.211C364.481 340.211 364.352 340.198 364.158 340.172C363.965 340.146 363.675 340.056 363.287 339.901C362.9 339.746 362.552 339.553 362.242 339.321C361.932 339.088 361.642 338.746 361.371 338.295C361.1 337.843 360.978 337.314 361.003 336.707C361.003 335.933 361.216 335.204 361.642 334.52C362.068 333.836 362.591 333.281 363.21 332.856C363.829 332.43 364.455 332.094 365.088 331.849C365.72 331.604 366.288 331.481 366.791 331.481C366.855 331.481 366.894 331.455 366.907 331.404L367.488 329.042C367.888 327.507 368.088 326.726 368.088 326.7ZM362.533 337.114C362.533 337.553 362.61 337.933 362.765 338.256C362.92 338.579 363.133 338.824 363.404 338.992C363.675 339.159 363.907 339.275 364.1 339.34C364.294 339.404 364.513 339.456 364.759 339.495H364.894L366.694 332.197C366.643 332.197 366.572 332.204 366.481 332.217C366.391 332.23 366.204 332.281 365.92 332.372C365.636 332.462 365.365 332.565 365.107 332.681C364.849 332.797 364.565 332.985 364.255 333.243C363.946 333.501 363.681 333.798 363.462 334.133C363.229 334.494 363.016 334.927 362.823 335.43C362.629 336.024 362.533 336.585 362.533 337.114ZM369.849 334.559C369.849 334.069 369.746 333.649 369.54 333.301C369.333 332.952 369.075 332.707 368.765 332.565C368.456 332.423 368.204 332.326 368.01 332.275C367.817 332.223 367.662 332.197 367.546 332.197H367.488L366.597 335.817L365.668 339.456C365.668 339.482 365.675 339.495 365.688 339.495C365.791 339.495 365.997 339.456 366.307 339.379C366.617 339.301 366.875 339.211 367.081 339.108C367.636 338.863 368.114 338.521 368.514 338.082C368.914 337.643 369.198 337.191 369.365 336.727C369.533 336.262 369.656 335.849 369.733 335.488C369.811 335.127 369.849 334.817 369.849 334.559Z" fill="black"/>
<path d="M373.527 335.178C373.527 334.288 373.592 333.443 373.721 332.643C373.85 331.843 373.998 331.152 374.166 330.571C374.334 329.991 374.572 329.423 374.882 328.868C375.192 328.313 375.437 327.881 375.618 327.571C375.798 327.261 376.069 326.926 376.431 326.565C376.792 326.203 377.005 325.984 377.069 325.907C377.134 325.829 377.295 325.694 377.553 325.5H377.805H377.882C378.063 325.5 378.153 325.558 378.153 325.674C378.153 325.713 378.044 325.848 377.824 326.081C377.605 326.313 377.34 326.655 377.031 327.107C376.721 327.558 376.405 328.113 376.082 328.771C375.76 329.429 375.489 330.32 375.269 331.442C375.05 332.565 374.94 333.81 374.94 335.178C374.94 336.546 375.05 337.785 375.269 338.895C375.489 340.005 375.753 340.901 376.063 341.585C376.373 342.269 376.689 342.824 377.011 343.25C377.334 343.676 377.605 344.018 377.824 344.276C378.044 344.534 378.153 344.669 378.153 344.682C378.153 344.798 378.057 344.857 377.863 344.857H377.805H377.553L377.011 344.392C375.798 343.295 374.914 341.927 374.359 340.288C373.805 338.65 373.527 336.946 373.527 335.178Z" fill="black"/>
<path d="M380.244 334.423C380.334 333.881 380.683 333.256 381.289 332.546C381.896 331.836 382.644 331.475 383.534 331.462C383.986 331.462 384.399 331.578 384.773 331.81C385.147 332.043 385.425 332.333 385.606 332.681C386.148 331.868 386.799 331.462 387.561 331.462C388.038 331.462 388.451 331.604 388.799 331.888C389.148 332.172 389.328 332.552 389.341 333.03C389.341 333.404 389.251 333.707 389.07 333.939C388.89 334.172 388.716 334.314 388.548 334.365C388.38 334.417 388.232 334.443 388.103 334.443C387.857 334.443 387.657 334.372 387.502 334.23C387.348 334.088 387.27 333.901 387.27 333.668C387.27 333.075 387.593 332.668 388.238 332.449C388.096 332.281 387.838 332.197 387.464 332.197C387.296 332.197 387.173 332.21 387.096 332.236C386.606 332.443 386.244 332.868 386.012 333.514C385.238 336.365 384.851 338.03 384.851 338.508C384.851 338.869 384.954 339.127 385.16 339.282C385.367 339.437 385.593 339.514 385.838 339.514C386.315 339.514 386.786 339.301 387.251 338.875C387.715 338.45 388.032 337.927 388.199 337.308C388.238 337.178 388.277 337.107 388.315 337.095C388.354 337.082 388.457 337.069 388.625 337.056H388.703C388.896 337.056 388.993 337.107 388.993 337.211C388.993 337.224 388.98 337.295 388.954 337.424C388.748 338.159 388.348 338.811 387.754 339.379C387.161 339.946 386.47 340.23 385.683 340.23C384.78 340.23 384.096 339.824 383.631 339.011C383.102 339.811 382.496 340.211 381.812 340.211H381.696C381.063 340.211 380.612 340.043 380.341 339.708C380.07 339.372 379.928 339.017 379.915 338.643C379.915 338.23 380.037 337.895 380.283 337.637C380.528 337.378 380.818 337.249 381.154 337.249C381.708 337.249 381.986 337.52 381.986 338.062C381.986 338.321 381.908 338.546 381.754 338.74C381.599 338.933 381.45 339.063 381.308 339.127C381.166 339.192 381.083 339.224 381.057 339.224L380.999 339.243C380.999 339.256 381.037 339.282 381.115 339.321C381.192 339.359 381.296 339.404 381.425 339.456C381.554 339.508 381.676 339.527 381.792 339.514C382.257 339.514 382.657 339.224 382.992 338.643C383.109 338.437 383.257 337.998 383.438 337.327C383.618 336.656 383.799 335.959 383.98 335.236C384.16 334.514 384.264 334.088 384.289 333.959C384.354 333.61 384.386 333.359 384.386 333.204C384.386 332.843 384.289 332.585 384.096 332.43C383.902 332.275 383.683 332.197 383.438 332.197C382.921 332.197 382.438 332.404 381.986 332.817C381.534 333.23 381.218 333.759 381.037 334.404C381.012 334.52 380.979 334.585 380.941 334.598C380.902 334.61 380.799 334.623 380.631 334.636H380.36C380.283 334.559 380.244 334.488 380.244 334.423Z" fill="black"/>
<path d="M391.471 325.519L391.548 325.5C391.613 325.5 391.677 325.5 391.742 325.5H391.974L392.516 325.965C393.729 327.061 394.613 328.429 395.168 330.068C395.723 331.707 396 333.41 396 335.178C396 336.056 395.935 336.901 395.806 337.714C395.677 338.527 395.529 339.217 395.361 339.785C395.193 340.353 394.955 340.921 394.645 341.489C394.335 342.056 394.09 342.489 393.909 342.785C393.729 343.082 393.464 343.411 393.116 343.773C392.767 344.134 392.561 344.347 392.496 344.411C392.432 344.476 392.284 344.598 392.051 344.779C392.013 344.818 391.987 344.844 391.974 344.857H391.742C391.638 344.857 391.567 344.857 391.529 344.857C391.49 344.857 391.458 344.837 391.432 344.798C391.406 344.76 391.387 344.702 391.374 344.624C391.387 344.611 391.458 344.528 391.587 344.373C393.587 342.295 394.587 339.23 394.587 335.178C394.587 331.126 393.587 328.062 391.587 325.984C391.458 325.829 391.387 325.745 391.374 325.732C391.374 325.629 391.406 325.558 391.471 325.519Z" fill="black"/>
<path d="M352.5 335C346 297.5 300 282 296 253.5C292 225 361.5 208 396.5 157.5C431.5 107 375 25.5 317 48.5" stroke="#235BA4" stroke-linecap="round"/>
<circle cx="352.5" cy="335" r="2.5" fill="black"/>
<circle cx="360.5" cy="289.5" r="2.5" fill="black"/>
<path d="M569.5 219.45C569.5 219.275 569.617 219.109 569.85 218.954H579.124L579.328 219.071C579.522 219.343 579.522 219.576 579.328 219.77C579.192 219.907 578.861 219.975 578.336 219.975C577.753 220.033 577.413 220.101 577.315 220.179C577.082 220.256 576.956 220.431 576.936 220.704C576.917 220.976 576.888 222.201 576.849 224.378V228.082H583.994V224.378C583.994 223.95 583.984 223.406 583.964 222.745C583.945 221.54 583.916 220.83 583.877 220.616C583.838 220.402 583.731 220.256 583.556 220.179H583.527C583.41 220.101 583.06 220.033 582.477 219.975C581.719 219.975 581.34 219.809 581.34 219.479C581.34 219.343 581.398 219.207 581.515 219.071L581.719 218.954H590.993C591.206 219.09 591.313 219.255 591.313 219.45C591.313 219.8 590.944 219.975 590.205 219.975C589.428 220.033 588.971 220.188 588.835 220.441C588.796 220.558 588.776 223.387 588.776 228.927C588.776 234.449 588.796 237.258 588.835 237.355C588.971 237.627 589.428 237.793 590.205 237.851C590.944 237.851 591.313 238.036 591.313 238.405C591.313 238.6 591.206 238.765 590.993 238.901H581.719L581.515 238.784C581.398 238.648 581.34 238.512 581.34 238.376C581.34 238.026 581.719 237.851 582.477 237.851C583.294 237.793 583.751 237.627 583.848 237.355C583.945 237.122 583.994 235.781 583.994 233.331V229.452H576.849V233.331C576.849 235.858 576.897 237.2 576.995 237.355C577.092 237.627 577.539 237.793 578.336 237.851C578.822 237.851 579.153 237.919 579.328 238.055C579.503 238.269 579.503 238.512 579.328 238.784L579.124 238.901H569.85C569.617 238.784 569.5 238.619 569.5 238.405C569.5 238.036 569.879 237.851 570.637 237.851C571.434 237.793 571.882 237.627 571.979 237.355C572.076 237.2 572.125 234.39 572.125 228.927C572.125 223.464 572.076 220.636 571.979 220.441C571.862 220.188 571.415 220.033 570.637 219.975C569.879 219.975 569.5 219.8 569.5 219.45ZM575.887 228.927V222.745C575.887 221.151 575.945 220.227 576.062 219.975H572.912C572.97 220.111 573.009 220.208 573.029 220.266C573.048 220.325 573.068 220.665 573.087 221.287C573.106 221.909 573.126 222.745 573.145 223.795C573.165 224.845 573.165 226.556 573.145 228.927C573.145 233.01 573.136 235.46 573.116 236.276C573.097 237.093 573.038 237.598 572.941 237.793C572.922 237.812 572.912 237.832 572.912 237.851H576.062C575.945 237.618 575.887 236.704 575.887 235.11V228.927ZM587.726 228.927V224.611C587.726 223.464 587.726 222.619 587.726 222.074C587.726 221.53 587.736 221.102 587.756 220.791C587.775 220.48 587.794 220.295 587.814 220.237C587.833 220.179 587.872 220.091 587.931 219.975H584.752L584.898 220.237C584.975 220.509 585.014 223.406 585.014 228.927C585.014 233.03 585.005 235.489 584.985 236.305C584.966 237.122 584.898 237.618 584.781 237.793C584.762 237.812 584.752 237.832 584.752 237.851H587.931C587.872 237.734 587.843 237.666 587.843 237.647C587.843 237.627 587.824 237.501 587.785 237.268C587.746 237.034 587.726 236.753 587.726 236.422C587.726 236.092 587.726 235.547 587.726 234.789V228.927Z" fill="black"/>
<path d="M600.213 229.061C600.268 228.979 600.35 228.937 600.46 228.937H600.625H600.893C600.975 229.02 601.017 229.075 601.017 229.102C601.017 229.198 600.811 230.044 600.398 231.638C600.302 232.023 600.206 232.429 600.11 232.855C600.013 233.281 599.931 233.597 599.862 233.803L599.78 234.133C599.78 234.147 599.842 234.154 599.965 234.154C600.089 234.154 600.309 234.195 600.625 234.277C600.941 234.36 601.271 234.477 601.615 234.628C602.219 234.916 602.721 235.336 603.12 235.886C603.518 236.435 603.718 237.102 603.718 237.885C603.718 238.669 603.505 239.418 603.078 240.133C602.652 240.847 602.123 241.439 601.491 241.906C600.859 242.373 600.192 242.744 599.491 243.019C598.79 243.294 598.137 243.438 597.532 243.452H597.45L596.955 245.411C596.873 245.727 596.783 246.105 596.687 246.545C596.577 246.985 596.501 247.246 596.46 247.328C596.419 247.411 596.337 247.459 596.213 247.473H596.089C595.814 247.473 595.677 247.425 595.677 247.328C595.677 247.26 595.828 246.607 596.13 245.37L596.605 243.473C596.605 243.459 596.55 243.452 596.44 243.452C596.371 243.452 596.233 243.438 596.027 243.411C595.821 243.383 595.512 243.287 595.099 243.122C594.687 242.957 594.316 242.751 593.986 242.504C593.656 242.256 593.347 241.892 593.058 241.411C592.77 240.93 592.639 240.366 592.667 239.72C592.667 238.896 592.893 238.119 593.347 237.391C593.801 236.662 594.357 236.071 595.017 235.617C595.677 235.164 596.343 234.807 597.017 234.545C597.69 234.284 598.295 234.154 598.831 234.154C598.9 234.154 598.941 234.126 598.955 234.071L599.573 231.556C600 229.92 600.213 229.089 600.213 229.061ZM594.295 240.153C594.295 240.621 594.378 241.026 594.543 241.37C594.708 241.713 594.934 241.975 595.223 242.153C595.512 242.332 595.759 242.456 595.965 242.524C596.172 242.593 596.405 242.648 596.666 242.689H596.811L598.728 234.916C598.673 234.916 598.598 234.923 598.501 234.937C598.405 234.951 598.206 235.006 597.903 235.102C597.601 235.198 597.312 235.308 597.038 235.432C596.763 235.556 596.46 235.755 596.13 236.03C595.8 236.305 595.519 236.621 595.285 236.978C595.038 237.363 594.811 237.824 594.605 238.36C594.398 238.992 594.295 239.59 594.295 240.153ZM602.089 237.432C602.089 236.91 601.979 236.463 601.759 236.092C601.539 235.721 601.264 235.459 600.934 235.308C600.604 235.157 600.336 235.054 600.13 234.999C599.924 234.944 599.759 234.916 599.635 234.916H599.573L598.625 238.772L597.635 242.648C597.635 242.676 597.642 242.689 597.656 242.689C597.766 242.689 597.986 242.648 598.316 242.566C598.646 242.483 598.921 242.387 599.141 242.277C599.732 242.016 600.24 241.652 600.666 241.184C601.092 240.717 601.395 240.236 601.573 239.741C601.752 239.246 601.883 238.806 601.965 238.421C602.048 238.037 602.089 237.707 602.089 237.432Z" fill="black"/>
<path d="M608.268 231.581C608.268 230.24 608.366 228.966 608.56 227.761C608.754 226.555 608.978 225.515 609.231 224.64C609.483 223.766 609.843 222.91 610.31 222.074C610.776 221.238 611.146 220.587 611.418 220.12C611.69 219.654 612.098 219.148 612.643 218.604C613.187 218.06 613.508 217.729 613.605 217.612C613.702 217.496 613.945 217.292 614.334 217H614.713H614.83C615.102 217 615.238 217.087 615.238 217.262C615.238 217.321 615.073 217.525 614.742 217.875C614.412 218.225 614.013 218.74 613.547 219.42C613.08 220.101 612.604 220.937 612.118 221.928C611.632 222.92 611.223 224.261 610.893 225.953C610.562 227.644 610.397 229.52 610.397 231.581C610.397 233.642 610.562 235.508 610.893 237.18C611.223 238.852 611.622 240.203 612.089 241.234C612.555 242.264 613.031 243.1 613.518 243.742C614.004 244.383 614.412 244.899 614.742 245.287C615.073 245.676 615.238 245.88 615.238 245.9C615.238 246.075 615.092 246.162 614.801 246.162H614.713H614.334L613.518 245.462C611.69 243.81 610.358 241.749 609.522 239.28C608.686 236.811 608.268 234.245 608.268 231.581Z" fill="black"/>
<path d="M636.293 231.669C636.254 231.727 636.118 232.903 635.885 235.197C635.652 237.491 635.516 238.677 635.477 238.755V238.872H627.107C622.83 238.872 620.341 238.872 619.642 238.872C618.942 238.872 618.572 238.823 618.533 238.726V238.697C618.475 238.58 618.475 238.473 618.533 238.376L619 237.822C619.311 237.472 619.778 236.947 620.4 236.247C621.022 235.547 621.615 234.876 622.179 234.235L625.766 230.152L618.504 220.091L618.475 219.683C618.475 219.314 618.524 219.09 618.621 219.012C618.679 218.973 621.508 218.954 627.107 218.954H635.477V219.071C635.516 219.168 635.652 220.286 635.885 222.424C636.118 224.563 636.254 225.7 636.293 225.836V225.953H635.127V225.836C634.971 224.709 634.757 223.775 634.485 223.037C634.213 222.298 633.776 221.695 633.173 221.229C632.59 220.82 631.802 220.568 630.811 220.47C629.819 220.373 628.41 220.315 626.582 220.295H625.445H622.383L625.416 224.466C625.824 225.029 626.329 225.729 626.932 226.565C628.001 228.043 628.536 228.84 628.536 228.957C628.536 228.995 628.526 229.025 628.507 229.044L621.362 237.209C626.281 237.209 628.944 237.2 629.353 237.18C630.286 237.141 631.063 237.044 631.686 236.889C632.308 236.733 632.726 236.587 632.94 236.451C633.153 236.315 633.387 236.121 633.639 235.868C634.028 235.44 634.349 234.867 634.602 234.147C634.855 233.428 635.01 232.816 635.068 232.31L635.127 231.552H636.293V231.669Z" fill="black"/>
<path d="M639.676 217.029L639.793 217C639.89 217 639.987 217 640.084 217H640.434L641.251 217.7C643.078 219.352 644.41 221.413 645.246 223.882C646.082 226.351 646.5 228.918 646.5 231.581C646.5 232.903 646.403 234.177 646.208 235.401C646.014 236.626 645.79 237.666 645.538 238.522C645.285 239.377 644.925 240.233 644.459 241.088C643.992 241.943 643.623 242.595 643.35 243.042C643.078 243.489 642.68 243.985 642.155 244.529C641.63 245.074 641.319 245.394 641.222 245.491C641.124 245.589 640.901 245.773 640.551 246.046C640.493 246.104 640.454 246.143 640.434 246.162H640.084C639.929 246.162 639.822 246.162 639.763 246.162C639.705 246.162 639.657 246.133 639.618 246.075C639.579 246.016 639.55 245.929 639.53 245.812C639.55 245.793 639.657 245.666 639.851 245.433C642.864 242.303 644.371 237.686 644.371 231.581C644.371 225.476 642.864 220.859 639.851 217.729C639.657 217.496 639.55 217.369 639.53 217.35C639.53 217.194 639.579 217.087 639.676 217.029Z" fill="black"/>
<path d="M368.951 287.512C369.527 287.512 369.983 287.681 370.321 288.018C370.658 288.356 370.826 288.77 370.826 289.262C370.826 289.543 370.602 290.287 370.152 291.496C369.702 292.704 369.485 293.582 369.499 294.13C369.541 294.72 369.73 295.184 370.068 295.521C370.363 295.774 370.665 295.943 370.974 296.027C371.227 296.14 371.445 296.196 371.627 296.196H371.648L373.377 289.22C374.557 284.569 375.154 282.236 375.168 282.222C375.21 282.194 375.323 282.18 375.505 282.18C375.786 282.18 375.927 282.229 375.927 282.328C375.927 282.454 375.358 284.78 374.22 289.304C373.067 293.913 372.491 296.224 372.491 296.238C372.491 296.252 372.534 296.259 372.618 296.259C373.826 296.259 374.971 295.641 376.053 294.404C377.135 293.168 377.683 292.016 377.697 290.948C377.697 290.611 377.641 290.323 377.529 290.084C377.416 289.845 377.29 289.676 377.149 289.578C377.009 289.48 376.882 289.353 376.77 289.199C376.657 289.044 376.601 288.882 376.601 288.714C376.601 288.419 376.721 288.138 376.96 287.871C377.198 287.604 377.493 287.47 377.845 287.47C378.112 287.47 378.358 287.597 378.582 287.85C378.807 288.103 378.92 288.517 378.92 289.093C378.92 289.501 378.842 290.049 378.688 290.737C378.533 291.426 378.407 291.903 378.308 292.17C377.859 293.505 377.065 294.65 375.927 295.606C374.789 296.561 373.644 297.039 372.491 297.039H372.281L371.796 298.999C371.459 300.32 371.29 300.987 371.29 301.001C371.262 301.085 371.121 301.128 370.869 301.128H370.595C370.51 301.043 370.468 300.987 370.468 300.959C370.468 300.889 370.63 300.221 370.953 298.957C371.276 297.692 371.438 297.039 371.438 296.997C371.339 296.983 371.241 296.976 371.143 296.976C368.908 296.666 367.791 295.634 367.791 293.877C367.791 293.386 368.023 292.507 368.487 291.243C368.951 289.978 369.189 289.17 369.204 288.819C369.204 288.805 369.204 288.791 369.204 288.777C369.204 288.651 369.204 288.566 369.204 288.524C369.204 288.482 369.175 288.433 369.119 288.377C369.063 288.32 368.986 288.292 368.887 288.292H368.803C368.48 288.292 368.185 288.426 367.918 288.693C367.651 288.96 367.44 289.248 367.286 289.557C367.131 289.866 367.012 290.161 366.927 290.442C366.843 290.723 366.787 290.878 366.759 290.906C366.731 290.934 366.618 290.948 366.422 290.948H366.126C366.042 290.864 366 290.8 366 290.758C366 290.59 366.091 290.266 366.274 289.789C366.457 289.311 366.794 288.812 367.286 288.292C367.777 287.772 368.332 287.512 368.951 287.512Z" fill="black"/>
<path d="M381.259 291.538C381.259 290.569 381.329 289.648 381.47 288.777C381.61 287.906 381.772 287.154 381.955 286.522C382.137 285.89 382.397 285.271 382.734 284.667C383.072 284.063 383.339 283.592 383.535 283.255C383.732 282.918 384.027 282.553 384.42 282.159C384.814 281.766 385.046 281.527 385.116 281.443C385.186 281.358 385.362 281.211 385.643 281H385.917H386.001C386.198 281 386.296 281.063 386.296 281.19C386.296 281.232 386.177 281.379 385.938 281.632C385.699 281.885 385.411 282.258 385.074 282.749C384.737 283.241 384.392 283.845 384.041 284.562C383.69 285.278 383.395 286.248 383.156 287.47C382.917 288.693 382.798 290.049 382.798 291.538C382.798 293.027 382.917 294.376 383.156 295.585C383.395 296.793 383.683 297.769 384.02 298.514C384.357 299.259 384.701 299.863 385.053 300.327C385.404 300.79 385.699 301.163 385.938 301.444C386.177 301.725 386.296 301.872 386.296 301.886C386.296 302.013 386.191 302.076 385.98 302.076H385.917H385.643L385.053 301.57C383.732 300.376 382.769 298.886 382.165 297.102C381.561 295.318 381.259 293.463 381.259 291.538Z" fill="black"/>
<path d="M387.919 290.758C387.919 290.561 388.024 290.224 388.235 289.747C388.446 289.269 388.783 288.77 389.247 288.25C389.71 287.73 390.23 287.477 390.806 287.491C391.382 287.491 391.846 287.653 392.197 287.976C392.549 288.299 392.731 288.749 392.745 289.325C392.717 289.592 392.696 289.74 392.682 289.768C392.682 289.81 392.57 290.133 392.345 290.737C392.12 291.341 391.888 292.023 391.649 292.781C391.411 293.54 391.298 294.144 391.312 294.594C391.312 295.198 391.411 295.62 391.607 295.859C391.804 296.097 392.099 296.224 392.492 296.238C392.816 296.238 393.118 296.161 393.399 296.006C393.68 295.852 393.898 295.69 394.052 295.521C394.207 295.353 394.396 295.121 394.621 294.826C394.621 294.812 394.656 294.671 394.727 294.404C394.797 294.137 394.895 293.723 395.022 293.161C395.148 292.599 395.282 292.079 395.422 291.601C395.956 289.494 396.251 288.391 396.307 288.292C396.49 287.913 396.792 287.723 397.214 287.723C397.396 287.723 397.544 287.772 397.656 287.871C397.769 287.969 397.846 288.053 397.888 288.124C397.93 288.194 397.944 288.257 397.93 288.313C397.93 288.496 397.586 289.971 396.897 292.739C396.209 295.507 395.815 297.025 395.717 297.292C395.324 298.458 394.642 299.385 393.673 300.074C392.703 300.762 391.734 301.114 390.764 301.128C390.132 301.128 389.577 300.973 389.099 300.664C388.622 300.355 388.383 299.891 388.383 299.273C388.383 298.964 388.432 298.704 388.53 298.493C388.629 298.282 388.762 298.128 388.931 298.029C389.099 297.931 389.24 297.861 389.352 297.819C389.465 297.776 389.584 297.755 389.71 297.755C390.329 297.755 390.638 298.05 390.638 298.641C390.638 298.922 390.554 299.167 390.385 299.378C390.216 299.589 390.055 299.73 389.9 299.8C389.746 299.87 389.654 299.905 389.626 299.905L389.563 299.926C389.591 299.996 389.725 300.081 389.963 300.179C390.202 300.277 390.441 300.327 390.68 300.327H390.849C391.087 300.327 391.27 300.313 391.397 300.285C391.86 300.158 392.289 299.891 392.682 299.484C393.076 299.076 393.378 298.641 393.588 298.177C393.799 297.713 393.961 297.32 394.073 296.997C394.186 296.674 394.242 296.463 394.242 296.364L394.115 296.449C394.031 296.505 393.898 296.582 393.715 296.681C393.532 296.779 393.35 296.863 393.167 296.933C392.886 297.004 392.612 297.039 392.345 297.039C391.699 297.039 391.13 296.884 390.638 296.575C390.146 296.266 389.823 295.767 389.668 295.079C389.654 294.98 389.647 294.763 389.647 294.425C389.647 293.625 389.893 292.578 390.385 291.285C390.877 289.992 391.123 289.17 391.123 288.819C391.123 288.805 391.123 288.791 391.123 288.777C391.123 288.651 391.123 288.566 391.123 288.524C391.123 288.482 391.094 288.433 391.038 288.377C390.982 288.32 390.905 288.292 390.806 288.292H390.722C390.399 288.292 390.104 288.426 389.837 288.693C389.57 288.96 389.359 289.248 389.205 289.557C389.05 289.866 388.931 290.161 388.846 290.442C388.762 290.723 388.706 290.878 388.678 290.906C388.65 290.934 388.537 290.948 388.341 290.948H388.045C387.961 290.864 387.919 290.8 387.919 290.758Z" fill="black"/>
<path d="M399.068 281.021L399.153 281C399.223 281 399.293 281 399.363 281H399.616L400.206 281.506C401.527 282.7 402.49 284.19 403.094 285.974C403.698 287.758 404 289.613 404 291.538C404 292.493 403.93 293.414 403.789 294.299C403.649 295.184 403.487 295.936 403.305 296.554C403.122 297.172 402.862 297.791 402.525 298.409C402.188 299.027 401.921 299.498 401.724 299.821C401.527 300.144 401.239 300.502 400.86 300.896C400.48 301.289 400.256 301.521 400.185 301.591C400.115 301.661 399.953 301.795 399.701 301.992C399.658 302.034 399.63 302.062 399.616 302.076H399.363C399.251 302.076 399.174 302.076 399.131 302.076C399.089 302.076 399.054 302.055 399.026 302.013C398.998 301.971 398.977 301.907 398.963 301.823C398.977 301.809 399.054 301.718 399.195 301.549C401.373 299.287 402.462 295.95 402.462 291.538C402.462 287.126 401.373 283.789 399.195 281.527C399.054 281.358 398.977 281.267 398.963 281.253C398.963 281.141 398.998 281.063 399.068 281.021Z" fill="black"/>
<path d="M881 218.5L876 215.613L876 221.387L881 218.5ZM671 218.5L671 219L876.5 219L876.5 218.5L876.5 218L671 218L671 218.5Z" fill="black"/>
<path d="M678.869 189.015C678.739 188.885 678.637 188.801 678.562 188.764C678.488 188.727 678.34 188.699 678.117 188.68C677.894 188.662 677.495 188.634 676.919 188.597H676V187.316H678.952C680.549 187.316 681.45 187.325 681.654 187.344C681.858 187.362 682.016 187.427 682.127 187.538C682.146 187.557 683.121 190.129 685.052 195.253L687.948 202.885L690.845 195.253C692.776 190.129 693.76 187.557 693.797 187.538C693.853 187.427 693.992 187.362 694.215 187.344C694.438 187.325 695.347 187.316 696.944 187.316H699.896V188.597H698.977C698.235 188.615 697.761 188.643 697.557 188.68C697.353 188.718 697.186 188.829 697.056 189.015V204.639C697.167 204.825 697.325 204.936 697.529 204.973C697.733 205.01 698.216 205.038 698.977 205.057H699.896V206.338H699.59C699.2 206.282 697.9 206.255 695.691 206.255C693.259 206.255 691.959 206.282 691.792 206.338H691.485V205.057H692.404C693.184 205.038 693.658 205.01 693.825 204.973C693.992 204.936 694.168 204.825 694.354 204.639V196.674C694.354 195.244 694.354 194.186 694.354 193.499C694.354 192.812 694.354 192.023 694.354 191.131C694.354 190.24 694.354 189.618 694.354 189.265L694.326 188.736C690 200.211 687.8 206.013 687.725 206.143C687.651 206.255 687.465 206.31 687.168 206.31C686.871 206.31 686.686 206.255 686.611 206.143C686.593 206.106 685.497 203.237 683.325 197.537L680.094 188.959V189.46C680.076 189.794 680.066 190.379 680.066 191.215C680.066 192.05 680.066 192.793 680.066 193.443C680.066 194.093 680.066 195.086 680.066 196.423L680.094 203.943C680.298 204.611 681.087 204.983 682.461 205.057H682.935V206.338H682.684C682.406 206.282 681.338 206.255 679.481 206.255C677.588 206.255 676.501 206.282 676.223 206.338H676V205.057H676.473C677.068 205.02 677.55 204.927 677.922 204.778C678.293 204.63 678.516 204.509 678.59 204.416C678.664 204.323 678.757 204.166 678.869 203.943V189.015Z" fill="black"/>
<path d="M701.512 200.378C701.512 198.614 702.115 197.091 703.322 195.81C704.529 194.529 705.986 193.879 707.695 193.861C709.366 193.861 710.805 194.492 712.012 195.755C713.219 197.017 713.831 198.549 713.85 200.35C713.85 202.114 713.256 203.599 712.067 204.806C710.879 206.013 709.421 206.617 707.695 206.617C705.894 206.617 704.418 205.995 703.266 204.751C702.115 203.507 701.53 202.049 701.512 200.378ZM707.695 205.503C709.96 205.503 711.093 203.989 711.093 200.963V200.072V199.375C711.093 198.967 711.083 198.614 711.065 198.317C711.046 198.02 710.981 197.667 710.87 197.259C710.758 196.85 710.61 196.516 710.424 196.256C710.238 195.996 709.951 195.736 709.561 195.476C709.171 195.216 708.716 195.03 708.196 194.919C708.103 194.9 707.955 194.891 707.75 194.891C707.193 194.891 706.664 195.003 706.163 195.225C705.364 195.634 704.845 196.2 704.603 196.924C704.362 197.648 704.241 198.503 704.241 199.487V200.044C704.241 201.826 704.418 203.079 704.77 203.804C705.364 204.936 706.339 205.503 707.695 205.503Z" fill="black"/>
<path d="M724.071 194.334C724.183 194.371 724.963 194.39 726.411 194.39C727.469 194.39 728.221 194.371 728.667 194.334H728.806V195.615H728.5C727.423 195.69 726.736 196.061 726.439 196.729C726.402 196.804 725.78 198.41 724.573 201.548C723.366 204.686 722.734 206.301 722.679 206.394C722.586 206.561 722.354 206.644 721.982 206.644C721.63 206.644 721.407 206.561 721.314 206.394C718.715 199.691 717.406 196.293 717.387 196.2C717.294 195.94 717.146 195.782 716.941 195.727C716.737 195.671 716.375 195.634 715.855 195.615H715.187V194.334H715.354L715.577 194.362C715.725 194.362 715.911 194.362 716.134 194.362C716.357 194.362 716.598 194.362 716.858 194.362C717.118 194.362 717.35 194.371 717.554 194.39C717.758 194.408 717.925 194.418 718.055 194.418C719.819 194.418 720.841 194.39 721.119 194.334H721.342V195.615H720.952C720.228 195.634 719.838 195.773 719.782 196.033C719.782 196.107 720.256 197.37 721.203 199.821L722.623 203.497L725.158 196.841V196.618C725.158 196.358 725.065 196.145 724.879 195.977C724.693 195.81 724.526 195.708 724.378 195.671C724.229 195.634 724.099 195.615 723.988 195.615H723.876V194.334H724.071Z" fill="black"/>
<path d="M730.143 200.267C730.143 199.245 730.328 198.317 730.7 197.481C731.071 196.646 731.535 195.968 732.092 195.448C732.649 194.928 733.253 194.538 733.903 194.279C734.553 194.019 735.165 193.879 735.741 193.861C736.725 193.861 737.57 194.028 738.275 194.362C738.981 194.696 739.519 195.16 739.891 195.755C740.262 196.349 740.522 196.943 740.671 197.537C740.819 198.131 740.903 198.79 740.921 199.515C740.921 199.645 740.856 199.774 740.726 199.904H732.872V200.322C732.872 203.07 733.801 204.741 735.657 205.335C736.029 205.447 736.437 205.503 736.883 205.503C737.663 205.503 738.331 205.205 738.888 204.611C739.204 204.296 739.454 203.906 739.64 203.442L739.919 202.773C739.974 202.717 740.123 202.69 740.364 202.69H740.448C740.763 202.69 740.921 202.782 740.921 202.968C740.921 203.042 740.893 203.163 740.838 203.33C740.485 204.351 739.9 205.159 739.083 205.753C738.266 206.347 737.347 206.644 736.326 206.644C734.562 206.644 733.095 206.004 731.925 204.723C730.756 203.442 730.161 201.956 730.143 200.267ZM738.637 198.679C738.433 196.302 737.551 195.04 735.992 194.891H735.936C735.787 194.891 735.639 194.901 735.49 194.919C735.342 194.938 735.11 195.012 734.794 195.142C734.478 195.272 734.209 195.467 733.986 195.727C733.763 195.987 733.55 196.367 733.346 196.869C733.141 197.37 732.993 197.983 732.9 198.707V198.902H738.637V198.679Z" fill="black"/>
<path d="M752.507 197.843C752.507 197.843 752.303 197.843 751.895 197.843C751.486 197.843 751.143 197.704 750.864 197.426C750.586 197.147 750.446 196.785 750.446 196.339C750.446 195.69 750.762 195.114 751.393 194.613C752.025 194.111 753.148 193.861 754.763 193.861C756.119 193.861 757.214 194.158 758.05 194.752C758.885 195.346 759.442 196.052 759.721 196.869C759.814 197.129 759.86 197.416 759.86 197.732C759.86 198.048 759.869 199.115 759.888 200.935V202.885C759.888 203.776 759.934 204.389 760.027 204.723C760.12 205.057 760.315 205.224 760.612 205.224C760.891 205.224 761.076 205.076 761.169 204.778C761.262 204.481 761.308 203.989 761.308 203.302V202.3H762.423V203.386C762.404 204.129 762.376 204.565 762.339 204.695C762.172 205.252 761.847 205.688 761.364 206.004C760.881 206.32 760.371 206.487 759.832 206.505C759.294 206.524 758.858 206.357 758.523 206.004C758.189 205.651 757.966 205.261 757.855 204.834V204.723L757.799 204.806C757.762 204.862 757.716 204.918 757.66 204.973C757.604 205.029 757.53 205.113 757.437 205.224C757.344 205.335 757.233 205.438 757.103 205.53C756.973 205.623 756.834 205.735 756.685 205.865C756.537 205.995 756.37 206.097 756.184 206.171C755.998 206.245 755.794 206.32 755.571 206.394C755.348 206.468 755.107 206.524 754.847 206.561C754.587 206.598 754.299 206.626 753.984 206.644C752.87 206.644 751.867 206.357 750.976 205.781C750.084 205.205 749.639 204.398 749.639 203.358C749.639 202.968 749.704 202.597 749.834 202.244C749.964 201.891 750.214 201.511 750.586 201.102C750.957 200.694 751.403 200.35 751.923 200.072C752.442 199.793 753.167 199.533 754.095 199.292C755.023 199.05 756.045 198.911 757.159 198.874H757.549V198.261C757.549 197.63 757.493 197.166 757.381 196.869C756.973 195.55 756.072 194.891 754.68 194.891C754.346 194.891 754.03 194.901 753.733 194.919C753.436 194.938 753.204 194.975 753.037 195.03C752.87 195.086 752.795 195.114 752.814 195.114C753.222 195.393 753.427 195.801 753.427 196.339C753.427 196.804 753.278 197.166 752.981 197.426L752.507 197.843ZM752.201 203.386C752.201 203.961 752.424 204.472 752.87 204.918C753.315 205.363 753.863 205.595 754.513 205.614C755.218 205.614 755.84 205.4 756.379 204.973C756.917 204.546 757.279 203.989 757.465 203.302C757.502 203.172 757.53 202.56 757.549 201.464C757.549 200.387 757.539 199.849 757.521 199.849C757.372 199.849 757.177 199.858 756.936 199.877C756.694 199.895 756.277 199.979 755.683 200.127C755.088 200.276 754.55 200.461 754.067 200.684C753.584 200.907 753.157 201.251 752.786 201.715C752.415 202.179 752.22 202.736 752.201 203.386Z" fill="black"/>
<path d="M763.787 205.057H764.177C764.901 205.057 765.338 204.927 765.486 204.667V204.444C765.486 204.277 765.486 204.064 765.486 203.804C765.486 203.544 765.486 203.237 765.486 202.885C765.486 202.532 765.495 202.133 765.514 201.687C765.533 201.241 765.533 200.777 765.514 200.294C765.495 199.812 765.495 199.301 765.514 198.763C765.533 198.224 765.533 197.695 765.514 197.175C765.514 196.488 765.514 195.764 765.514 195.003C765.514 194.241 765.514 193.545 765.514 192.914C765.514 192.282 765.514 191.725 765.514 191.243C765.514 190.76 765.505 190.351 765.486 190.017C765.468 189.683 765.468 189.525 765.486 189.544C765.43 189.191 765.3 188.959 765.096 188.847C764.892 188.736 764.474 188.653 763.843 188.597H763.342V187.956C763.342 187.529 763.36 187.316 763.397 187.316L763.676 187.288C763.861 187.269 764.131 187.251 764.483 187.232C764.836 187.214 765.18 187.195 765.514 187.176C765.83 187.158 766.173 187.139 766.544 187.121C766.916 187.102 767.194 187.074 767.38 187.037C767.566 187 767.668 186.991 767.686 187.009H767.77V195.782C767.77 201.668 767.779 204.63 767.798 204.667C767.872 204.816 767.983 204.918 768.132 204.973C768.522 205.029 768.977 205.057 769.497 205.057H769.942V206.338H769.719L769.079 206.31C768.652 206.292 768.197 206.282 767.714 206.282C767.231 206.282 766.879 206.273 766.656 206.255C766.433 206.236 766.08 206.236 765.598 206.255C765.115 206.273 764.651 206.292 764.205 206.31L763.564 206.338H763.342V205.057H763.787Z" fill="black"/>
<path d="M771.14 200.378C771.14 198.614 771.743 197.091 772.95 195.81C774.157 194.529 775.615 193.879 777.323 193.861C778.994 193.861 780.433 194.492 781.64 195.755C782.847 197.017 783.459 198.549 783.478 200.35C783.478 202.114 782.884 203.599 781.696 204.806C780.507 206.013 779.05 206.617 777.323 206.617C775.522 206.617 774.046 205.995 772.895 204.751C771.743 203.507 771.158 202.049 771.14 200.378ZM777.323 205.503C779.588 205.503 780.721 203.989 780.721 200.963V200.072V199.375C780.721 198.967 780.711 198.614 780.693 198.317C780.674 198.02 780.609 197.667 780.498 197.259C780.387 196.85 780.238 196.516 780.052 196.256C779.867 195.996 779.579 195.736 779.189 195.476C778.799 195.216 778.344 195.03 777.824 194.919C777.731 194.9 777.583 194.891 777.379 194.891C776.822 194.891 776.292 195.003 775.791 195.225C774.993 195.634 774.473 196.2 774.231 196.924C773.99 197.648 773.869 198.503 773.869 199.487V200.044C773.869 201.826 774.046 203.079 774.398 203.804C774.993 204.936 775.967 205.503 777.323 205.503Z" fill="black"/>
<path d="M785.428 205.057H785.818C786.542 205.057 786.978 204.927 787.127 204.667V204.444C787.127 204.277 787.127 204.064 787.127 203.804C787.127 203.544 787.127 203.256 787.127 202.94C787.127 202.625 787.136 202.263 787.154 201.854C787.173 201.446 787.173 201.056 787.154 200.684C787.154 200.109 787.154 199.496 787.154 198.846C787.154 198.196 787.145 197.648 787.127 197.203V196.562C787.071 196.209 786.941 195.977 786.737 195.866C786.532 195.755 786.115 195.671 785.483 195.615H784.982V194.975C784.982 194.548 785.001 194.334 785.038 194.334L785.316 194.306C785.502 194.288 785.762 194.269 786.096 194.251C786.43 194.232 786.774 194.213 787.127 194.195C787.442 194.176 787.776 194.158 788.129 194.139C788.482 194.121 788.751 194.093 788.937 194.056C789.123 194.019 789.225 194.009 789.243 194.028H789.327V195.142C789.327 195.847 789.336 196.2 789.355 196.2C789.373 196.2 789.42 196.154 789.494 196.061C789.568 195.968 789.68 195.829 789.828 195.643C789.977 195.458 790.153 195.29 790.357 195.142C790.562 194.993 790.831 194.817 791.165 194.613C791.499 194.408 791.852 194.26 792.223 194.167C792.595 194.074 793.068 194.028 793.644 194.028C795.76 194.102 796.94 195.151 797.181 197.175C797.199 197.305 797.209 198.595 797.209 201.046V203.442C797.209 204.147 797.227 204.565 797.264 204.695C797.302 204.825 797.404 204.918 797.571 204.973C797.961 205.029 798.416 205.057 798.936 205.057H799.381V206.338H799.158L798.49 206.31C798.063 206.292 797.599 206.282 797.097 206.282C796.596 206.282 796.243 206.273 796.039 206.255C794.127 206.255 793.087 206.282 792.92 206.338H792.697V205.057H793.142C794.275 205.057 794.841 204.908 794.841 204.611C794.86 204.574 794.869 203.293 794.869 200.768C794.851 198.261 794.832 196.934 794.814 196.785C794.702 196.265 794.516 195.875 794.257 195.615C793.997 195.355 793.774 195.198 793.588 195.142C793.402 195.086 793.161 195.068 792.864 195.086C792.028 195.086 791.295 195.402 790.664 196.033C790.162 196.534 789.847 197.045 789.717 197.565C789.587 198.085 789.513 198.855 789.494 199.877V201.659V203.33C789.494 203.887 789.503 204.259 789.522 204.444C789.54 204.63 789.568 204.751 789.605 204.806C789.643 204.862 789.726 204.918 789.856 204.973C790.246 205.029 790.701 205.057 791.221 205.057H791.666V206.338H791.444L790.803 206.31C790.357 206.292 789.884 206.282 789.383 206.282C788.881 206.282 788.528 206.273 788.324 206.255C786.412 206.255 785.372 206.282 785.205 206.338H784.982V205.057H785.428Z" fill="black"/>
<path d="M808.934 194.947C809.751 194.13 810.679 193.721 811.719 193.721C812.276 193.721 812.675 193.898 812.917 194.251C813.158 194.603 813.279 194.956 813.279 195.309C813.279 195.569 813.195 195.801 813.028 196.005C812.861 196.209 812.61 196.312 812.276 196.312C811.664 196.312 811.32 196.033 811.246 195.476C811.209 195.216 811.236 195.021 811.329 194.891C811.329 194.873 811.339 194.845 811.357 194.808V194.78C810.837 194.835 810.345 195.04 809.881 195.393C809.733 195.485 809.658 195.55 809.658 195.587C809.658 195.606 809.695 195.652 809.77 195.727C809.844 195.801 809.927 195.912 810.02 196.061C810.113 196.209 810.215 196.377 810.327 196.562C810.438 196.748 810.522 196.989 810.577 197.286C810.633 197.583 810.67 197.89 810.689 198.206C810.689 199.357 810.234 200.331 809.324 201.13C808.414 201.928 807.291 202.337 805.954 202.355C805.026 202.355 804.107 202.095 803.197 201.576C802.993 201.91 802.89 202.263 802.89 202.634C802.89 203.284 803.132 203.766 803.615 204.082C803.782 204.194 803.939 204.249 804.088 204.249C804.237 204.249 804.905 204.268 806.093 204.305C807.653 204.324 808.656 204.379 809.101 204.472C810.234 204.639 811.125 205.02 811.775 205.614C812.499 206.338 812.861 207.248 812.861 208.343C812.861 209.587 812.137 210.544 810.689 211.212C809.575 211.788 808.256 212.075 806.734 212.075C805.193 212.075 803.865 211.788 802.751 211.212C801.303 210.562 800.579 209.634 800.579 208.427C800.579 207.758 800.774 207.201 801.164 206.756C801.554 206.31 801.943 206.004 802.333 205.837L802.64 205.67C801.971 205.094 801.637 204.314 801.637 203.33C801.637 202.457 801.906 201.668 802.445 200.963C801.628 200.146 801.219 199.227 801.219 198.206C801.219 197.036 801.684 196.052 802.612 195.253C803.54 194.455 804.664 194.046 805.982 194.028C806.929 194.028 807.811 194.269 808.628 194.752L808.934 194.947ZM808.099 196.785C808.006 196.265 807.764 195.857 807.374 195.56C806.985 195.263 806.502 195.105 805.926 195.086C805.388 195.086 804.924 195.235 804.534 195.532C804.144 195.829 803.902 196.247 803.809 196.785C803.754 197.101 803.726 197.574 803.726 198.206C803.726 199.022 803.791 199.626 803.921 200.016C804.051 200.406 804.329 200.731 804.756 200.991C805.072 201.176 805.471 201.269 805.954 201.269C806.363 201.269 806.715 201.204 807.012 201.074C807.309 200.944 807.523 200.777 807.653 200.573C807.783 200.369 807.885 200.183 807.959 200.016C808.034 199.849 808.08 199.709 808.099 199.598C808.154 199.301 808.182 198.837 808.182 198.206C808.182 197.574 808.154 197.101 808.099 196.785ZM810.995 208.427C810.995 207.963 810.865 207.582 810.605 207.285C810.345 206.988 809.965 206.774 809.463 206.644C808.962 206.514 808.507 206.431 808.099 206.394C807.69 206.357 807.189 206.338 806.595 206.338H805.843C804.599 206.338 803.856 206.394 803.615 206.505C803.243 206.672 802.955 206.932 802.751 207.285C802.547 207.638 802.435 208.009 802.417 208.399C802.417 208.585 802.473 208.798 802.584 209.04C802.695 209.281 802.89 209.56 803.169 209.875C803.447 210.191 803.893 210.451 804.506 210.655C805.118 210.859 805.861 210.971 806.734 210.989C808.015 210.989 809.046 210.729 809.825 210.209C810.605 209.69 810.995 209.095 810.995 208.427Z" fill="black"/>
<path d="M821.662 210.46H822.052C822.776 210.46 823.213 210.33 823.361 210.07V209.847C823.361 209.717 823.361 209.541 823.361 209.318C823.361 209.095 823.361 208.817 823.361 208.483C823.361 208.148 823.37 207.786 823.389 207.396C823.408 207.006 823.408 206.598 823.389 206.171C823.37 205.744 823.37 205.289 823.389 204.806C823.408 204.323 823.408 203.85 823.389 203.386C823.389 202.755 823.389 202.095 823.389 201.408C823.389 200.721 823.389 200.109 823.389 199.57C823.389 199.032 823.389 198.54 823.389 198.094C823.389 197.648 823.38 197.286 823.361 197.008C823.343 196.729 823.343 196.581 823.361 196.562C823.305 196.209 823.175 195.977 822.971 195.866C822.767 195.755 822.349 195.671 821.718 195.615H821.217V194.975C821.217 194.548 821.235 194.334 821.272 194.334L821.551 194.306C821.736 194.288 822.006 194.269 822.358 194.251C822.711 194.232 823.055 194.213 823.389 194.195C823.705 194.176 824.048 194.158 824.419 194.139C824.791 194.121 825.069 194.093 825.255 194.056C825.441 194.019 825.543 194.009 825.561 194.028H825.645V194.752L825.673 195.476L825.896 195.281C826.991 194.464 828.272 194.056 829.739 194.056C831.243 194.056 832.524 194.65 833.583 195.838C834.641 197.026 835.179 198.521 835.198 200.322C835.198 202.198 834.594 203.72 833.388 204.89C832.181 206.06 830.816 206.644 829.293 206.644C828.031 206.644 826.917 206.236 825.951 205.419L825.728 205.224V207.591V209.151C825.728 209.652 825.747 209.959 825.784 210.07C825.821 210.182 825.923 210.284 826.091 210.376C826.48 210.432 826.935 210.46 827.455 210.46H827.901V211.741H827.678L827.01 211.713C826.583 211.695 826.118 211.686 825.617 211.686C825.116 211.686 824.763 211.676 824.559 211.658C822.646 211.658 821.606 211.686 821.439 211.741H821.217V210.46H821.662ZM832.468 200.266C832.468 198.892 832.153 197.695 831.522 196.674C830.89 195.652 830.101 195.142 829.154 195.142C827.836 195.142 826.694 195.745 825.728 196.952V203.609C826.471 204.946 827.511 205.614 828.848 205.614C829.795 205.614 830.63 205.113 831.354 204.11C832.079 203.107 832.45 201.826 832.468 200.266Z" fill="black"/>
<path d="M839.96 197.843C839.96 197.843 839.756 197.843 839.348 197.843C838.939 197.843 838.596 197.704 838.317 197.426C838.039 197.147 837.899 196.785 837.899 196.339C837.899 195.69 838.215 195.114 838.846 194.613C839.478 194.111 840.601 193.861 842.216 193.861C843.572 193.861 844.667 194.158 845.503 194.752C846.338 195.346 846.895 196.052 847.174 196.869C847.267 197.129 847.313 197.416 847.313 197.732C847.313 198.048 847.322 199.115 847.341 200.935V202.885C847.341 203.776 847.387 204.389 847.48 204.723C847.573 205.057 847.768 205.224 848.065 205.224C848.344 205.224 848.529 205.076 848.622 204.778C848.715 204.481 848.761 203.989 848.761 203.302V202.3H849.876V203.386C849.857 204.129 849.829 204.565 849.792 204.695C849.625 205.252 849.3 205.688 848.817 206.004C848.334 206.32 847.824 206.487 847.285 206.505C846.747 206.524 846.311 206.357 845.976 206.004C845.642 205.651 845.419 205.261 845.308 204.834V204.723L845.252 204.806C845.215 204.862 845.169 204.918 845.113 204.973C845.057 205.029 844.983 205.113 844.89 205.224C844.797 205.335 844.686 205.438 844.556 205.53C844.426 205.623 844.287 205.735 844.138 205.865C843.99 205.995 843.823 206.097 843.637 206.171C843.451 206.245 843.247 206.32 843.024 206.394C842.801 206.468 842.56 206.524 842.3 206.561C842.04 206.598 841.752 206.626 841.437 206.644C840.323 206.644 839.32 206.357 838.429 205.781C837.537 205.205 837.092 204.398 837.092 203.358C837.092 202.968 837.157 202.597 837.287 202.244C837.417 201.891 837.667 201.511 838.039 201.102C838.41 200.694 838.856 200.35 839.376 200.072C839.895 199.793 840.62 199.533 841.548 199.292C842.476 199.05 843.498 198.911 844.612 198.874H845.002V198.261C845.002 197.63 844.946 197.166 844.834 196.869C844.426 195.55 843.525 194.891 842.133 194.891C841.799 194.891 841.483 194.901 841.186 194.919C840.889 194.938 840.657 194.975 840.49 195.03C840.323 195.086 840.248 195.114 840.267 195.114C840.675 195.393 840.88 195.801 840.88 196.339C840.88 196.804 840.731 197.166 840.434 197.426L839.96 197.843ZM839.654 203.386C839.654 203.961 839.877 204.472 840.323 204.918C840.768 205.363 841.316 205.595 841.966 205.614C842.671 205.614 843.293 205.4 843.832 204.973C844.37 204.546 844.732 203.989 844.918 203.302C844.955 203.172 844.983 202.56 845.002 201.464C845.002 200.387 844.992 199.849 844.974 199.849C844.825 199.849 844.63 199.858 844.389 199.877C844.147 199.895 843.73 199.979 843.136 200.127C842.541 200.276 842.003 200.461 841.52 200.684C841.037 200.907 840.61 201.251 840.239 201.715C839.868 202.179 839.673 202.736 839.654 203.386Z" fill="black"/>
<path d="M850.822 194.585C851.807 194.511 852.568 193.991 853.106 193.025C853.645 192.06 853.942 190.927 853.997 189.627V189.21H855.112V194.334H858.871V195.615H855.112V199.626C855.13 201.947 855.139 203.256 855.139 203.553C855.139 203.85 855.204 204.147 855.334 204.444C855.594 205.168 856.049 205.53 856.699 205.53C857.516 205.53 858.017 204.871 858.203 203.553C858.222 203.404 858.231 202.977 858.231 202.272V201.297H859.345V202.272V202.606C859.345 204.036 858.955 205.122 858.175 205.865C857.674 206.366 857.024 206.617 856.226 206.617C855.594 206.617 855.047 206.505 854.582 206.282C854.118 206.06 853.765 205.772 853.524 205.419C853.283 205.066 853.106 204.741 852.995 204.444C852.883 204.147 852.818 203.85 852.8 203.553C852.781 203.423 852.772 202.049 852.772 199.431V195.615H850.572V194.585H850.822Z" fill="black"/>
<path d="M862.046 205.057H862.436C863.161 205.057 863.597 204.927 863.745 204.667V204.444C863.745 204.277 863.745 204.064 863.745 203.804C863.745 203.544 863.745 203.237 863.745 202.885C863.745 202.532 863.745 202.133 863.745 201.687C863.745 201.241 863.755 200.777 863.773 200.294C863.792 199.812 863.792 199.301 863.773 198.763C863.755 198.224 863.755 197.695 863.773 197.175C863.773 196.488 863.773 195.764 863.773 195.003C863.773 194.241 863.773 193.545 863.773 192.914C863.773 192.282 863.764 191.725 863.745 191.243C863.727 190.76 863.727 190.351 863.745 190.017C863.764 189.683 863.764 189.525 863.745 189.544C863.69 189.191 863.56 188.959 863.355 188.847C863.151 188.736 862.733 188.653 862.102 188.597H861.601V187.956C861.601 187.529 861.619 187.316 861.657 187.316L861.935 187.288C862.121 187.269 862.39 187.251 862.743 187.232C863.096 187.214 863.439 187.195 863.773 187.176C864.089 187.158 864.432 187.139 864.804 187.121C865.175 187.102 865.454 187.074 865.639 187.037C865.825 187 865.927 186.991 865.946 187.009H866.029V196.117C867.143 194.724 868.48 194.028 870.04 194.028C872.324 194.028 873.577 195.077 873.8 197.175C873.818 197.305 873.828 198.595 873.828 201.046V203.442C873.828 204.147 873.846 204.565 873.883 204.695C873.92 204.825 874.022 204.918 874.19 204.973C874.58 205.029 875.034 205.057 875.554 205.057H876V206.338H875.777L875.109 206.31C874.682 206.292 874.217 206.282 873.716 206.282C873.215 206.282 872.862 206.273 872.658 206.255C870.745 206.255 869.706 206.282 869.538 206.338H869.316V205.057H869.761C870.894 205.057 871.46 204.908 871.46 204.611C871.479 204.574 871.488 203.293 871.488 200.768C871.469 198.261 871.451 196.934 871.432 196.785C871.321 196.265 871.135 195.875 870.875 195.615C870.615 195.355 870.393 195.198 870.207 195.142C870.021 195.086 869.78 195.068 869.483 195.086C868.647 195.086 867.914 195.402 867.282 196.033C866.781 196.534 866.466 197.045 866.336 197.565C866.206 198.085 866.131 198.855 866.113 199.877V201.659V203.33C866.113 203.887 866.122 204.259 866.141 204.444C866.159 204.63 866.187 204.751 866.224 204.806C866.261 204.862 866.345 204.918 866.475 204.973C866.865 205.029 867.32 205.057 867.84 205.057H868.285V206.338H868.062L867.422 206.31C866.976 206.292 866.503 206.282 866.001 206.282C865.5 206.282 865.147 206.273 864.943 206.255C863.031 206.255 861.991 206.282 861.824 206.338H861.601V205.057H862.046Z" fill="black"/>
<path d="M1031.5 55.5C973.5 78.5 980.5 122 1031.5 160C1082.5 198 942.5 206 936 222" stroke="#235BA4" stroke-linecap="round" stroke-dasharray="2 2"/>
<path d="M1074.5 256.5L1069.5 253.613V259.387L1074.5 256.5ZM1070 256.5V256H1069.5V256.5V257H1070V256.5Z" fill="black"/>
<path d="M951 284C938.5 257.5 1055.5 254 1119 257.5C1182.5 261 1260.5 249 1249.5 268.5" stroke="black" stroke-linecap="round" stroke-dasharray="2 2"/>
<path d="M1263.01 227.241C1247.97 346.691 1044.02 411.895 970.567 316.613C949.641 289.468 937.893 256.609 935.135 223.172C930.37 165.396 952.446 105.897 1000.39 71.1857C1096.89 1.32043 1277.39 108.379 1263.08 226.698C1263.07 226.802 1263.05 226.905 1263.04 227.009C1263.03 227.086 1263.02 227.164 1263.01 227.241Z" fill="#D9D9D9" fill-opacity="0.3"/>
<path d="M1263.01 227.241C1247.97 346.691 1044.02 411.895 970.567 316.613C949.641 289.468 937.893 256.609 935.135 223.172M1263.01 227.241C1260.26 239.984 1225.19 230.864 1170.53 243.684C1115.87 256.504 1063.93 229.903 1029.73 230.864C967.492 232.612 935.32 235.602 935.32 223.618L935.135 223.172M1263.01 227.241C1263.03 227.06 1263.06 226.879 1263.08 226.698M1263.01 227.241L1263.08 226.698M935.135 223.172C930.37 165.396 952.446 105.897 1000.39 71.1857C1096.89 1.32043 1277.39 108.379 1263.08 226.698" stroke="black"/>
<path d="M970.567 316.613C949.641 289.468 937.893 256.609 935.135 223.172L935.387 223.075C938.699 211.927 1023.43 195.058 1102.13 197.993C1163.43 200.278 1260.32 217.78 1263.08 226.698C1263.07 226.777 1263.06 226.856 1263.05 226.935C1263.04 227.037 1263.02 227.139 1263.01 227.241C1262.96 227.624 1262.91 228.007 1262.86 228.389C1246.66 347.108 1043.79 411.589 970.567 316.613Z" fill="#B7E2F5" fill-opacity="0.3"/>
<path d="M970.567 316.613C1044.02 411.895 1247.97 346.691 1263.01 227.241C1260.25 239.984 1225.19 230.864 1170.53 243.684C1115.87 256.504 1063.93 229.903 1029.73 230.864C967.492 232.612 935.32 235.602 935.32 223.618L935.135 223.172C937.893 256.609 949.641 289.468 970.567 316.613Z" fill="#B7E2F5" fill-opacity="0.3"/>
<path d="M1263.01 227.241C1247.97 346.691 1044.02 411.895 970.567 316.613C949.641 289.468 937.893 256.609 935.135 223.172L935.32 223.618C935.32 235.602 967.492 232.612 1029.73 230.864C1063.93 229.903 1115.87 256.504 1170.53 243.684C1225.19 230.864 1260.25 239.984 1263.01 227.241ZM1263.01 227.241C1263.03 227.06 1263.06 226.879 1263.08 226.698L1263.01 227.241Z" stroke="black"/>
<path d="M984.5 300L989.5 302.887V297.113L984.5 300ZM989 300V300.5H989.5V300V299.5H989V300Z" fill="black"/>
<path d="M935.345 223.064C938.657 211.916 1023.39 195.047 1102.09 197.981C1163.39 200.267 1260.28 217.768 1263.04 226.687" stroke="black" stroke-dasharray="2 2"/>
<path d="M935.345 223.064C935.345 235.047 967.517 232.058 1029.76 230.31C1063.95 229.349 1115.89 255.949 1170.55 243.129C1225.22 230.31 1260.28 239.43 1263.04 226.687" stroke="black"/>
<path d="M1075 296.5C1071.13 297.5 1060.28 298.508 1049 299.5M951 284C958.807 300.551 996.797 302.278 1029.5 301M1249.5 268.5C1238.5 288 1159 295 1159 295" stroke="black" stroke-dasharray="2 2"/>
<path d="M1082.59 333.7C1082.64 333.623 1082.72 333.584 1082.82 333.584H1082.98H1083.23C1083.3 333.661 1083.34 333.713 1083.34 333.739C1083.34 333.829 1083.15 334.623 1082.76 336.12C1082.67 336.481 1082.58 336.862 1082.49 337.262C1082.4 337.662 1082.32 337.959 1082.26 338.152L1082.18 338.462C1082.18 338.475 1082.24 338.481 1082.36 338.481C1082.47 338.481 1082.68 338.52 1082.98 338.597C1083.27 338.675 1083.58 338.784 1083.9 338.926C1084.47 339.197 1084.94 339.591 1085.32 340.107C1085.69 340.623 1085.88 341.249 1085.88 341.985C1085.88 342.72 1085.68 343.424 1085.28 344.095C1084.88 344.766 1084.38 345.321 1083.79 345.759C1083.19 346.198 1082.57 346.546 1081.91 346.805C1081.25 347.063 1080.64 347.198 1080.07 347.211H1079.99L1079.53 349.05C1079.45 349.347 1079.37 349.702 1079.28 350.114C1079.17 350.527 1079.1 350.773 1079.07 350.85C1079.03 350.927 1078.95 350.973 1078.83 350.986H1078.72C1078.46 350.986 1078.33 350.94 1078.33 350.85C1078.33 350.786 1078.47 350.173 1078.76 349.011L1079.2 347.23C1079.2 347.217 1079.15 347.211 1079.05 347.211C1078.98 347.211 1078.85 347.198 1078.66 347.172C1078.47 347.146 1078.17 347.056 1077.79 346.901C1077.4 346.746 1077.05 346.553 1076.74 346.321C1076.43 346.088 1076.14 345.746 1075.87 345.295C1075.6 344.843 1075.48 344.314 1075.5 343.707C1075.5 342.933 1075.72 342.204 1076.14 341.52C1076.57 340.836 1077.09 340.281 1077.71 339.856C1078.33 339.43 1078.96 339.094 1079.59 338.849C1080.22 338.604 1080.79 338.481 1081.29 338.481C1081.36 338.481 1081.39 338.455 1081.41 338.404L1081.99 336.042C1082.39 334.507 1082.59 333.726 1082.59 333.7ZM1077.03 344.114C1077.03 344.553 1077.11 344.933 1077.26 345.256C1077.42 345.579 1077.63 345.824 1077.9 345.992C1078.17 346.159 1078.41 346.275 1078.6 346.34C1078.79 346.404 1079.01 346.456 1079.26 346.495H1079.39L1081.19 339.197C1081.14 339.197 1081.07 339.204 1080.98 339.217C1080.89 339.23 1080.7 339.281 1080.42 339.372C1080.14 339.462 1079.87 339.565 1079.61 339.681C1079.35 339.797 1079.07 339.985 1078.76 340.243C1078.45 340.501 1078.18 340.798 1077.96 341.133C1077.73 341.494 1077.52 341.927 1077.32 342.43C1077.13 343.024 1077.03 343.585 1077.03 344.114ZM1084.35 341.559C1084.35 341.069 1084.25 340.649 1084.04 340.301C1083.83 339.952 1083.58 339.707 1083.27 339.565C1082.96 339.423 1082.7 339.326 1082.51 339.275C1082.32 339.223 1082.16 339.197 1082.05 339.197H1081.99L1081.1 342.817L1080.17 346.456C1080.17 346.482 1080.17 346.495 1080.19 346.495C1080.29 346.495 1080.5 346.456 1080.81 346.379C1081.12 346.301 1081.37 346.211 1081.58 346.108C1082.14 345.863 1082.61 345.521 1083.01 345.082C1083.41 344.643 1083.7 344.191 1083.87 343.727C1084.03 343.262 1084.16 342.849 1084.23 342.488C1084.31 342.127 1084.35 341.817 1084.35 341.559Z" fill="black"/>
<path d="M1088.03 342.178C1088.03 341.288 1088.09 340.443 1088.22 339.643C1088.35 338.843 1088.5 338.152 1088.67 337.571C1088.83 336.991 1089.07 336.423 1089.38 335.868C1089.69 335.313 1089.94 334.881 1090.12 334.571C1090.3 334.261 1090.57 333.926 1090.93 333.565C1091.29 333.203 1091.5 332.984 1091.57 332.907C1091.63 332.829 1091.8 332.694 1092.05 332.5H1092.3H1092.38C1092.56 332.5 1092.65 332.558 1092.65 332.674C1092.65 332.713 1092.54 332.848 1092.32 333.081C1092.1 333.313 1091.84 333.655 1091.53 334.107C1091.22 334.558 1090.9 335.113 1090.58 335.771C1090.26 336.429 1089.99 337.32 1089.77 338.442C1089.55 339.565 1089.44 340.81 1089.44 342.178C1089.44 343.546 1089.55 344.785 1089.77 345.895C1089.99 347.005 1090.25 347.901 1090.56 348.585C1090.87 349.269 1091.19 349.824 1091.51 350.25C1091.83 350.676 1092.1 351.018 1092.32 351.276C1092.54 351.534 1092.65 351.669 1092.65 351.682C1092.65 351.798 1092.56 351.857 1092.36 351.857H1092.3H1092.05L1091.51 351.392C1090.3 350.295 1089.41 348.927 1088.86 347.288C1088.3 345.65 1088.03 343.946 1088.03 342.178Z" fill="black"/>
<path d="M1094.74 341.423C1094.83 340.881 1095.18 340.256 1095.79 339.546C1096.4 338.836 1097.14 338.475 1098.03 338.462C1098.49 338.462 1098.9 338.578 1099.27 338.81C1099.65 339.043 1099.92 339.333 1100.11 339.681C1100.65 338.868 1101.3 338.462 1102.06 338.462C1102.54 338.462 1102.95 338.604 1103.3 338.888C1103.65 339.172 1103.83 339.552 1103.84 340.03C1103.84 340.404 1103.75 340.707 1103.57 340.939C1103.39 341.172 1103.22 341.314 1103.05 341.365C1102.88 341.417 1102.73 341.443 1102.6 341.443C1102.36 341.443 1102.16 341.372 1102 341.23C1101.85 341.088 1101.77 340.901 1101.77 340.668C1101.77 340.075 1102.09 339.668 1102.74 339.449C1102.6 339.281 1102.34 339.197 1101.96 339.197C1101.8 339.197 1101.67 339.21 1101.6 339.236C1101.11 339.443 1100.74 339.868 1100.51 340.514C1099.74 343.365 1099.35 345.03 1099.35 345.508C1099.35 345.869 1099.45 346.127 1099.66 346.282C1099.87 346.437 1100.09 346.514 1100.34 346.514C1100.82 346.514 1101.29 346.301 1101.75 345.875C1102.22 345.45 1102.53 344.927 1102.7 344.308C1102.74 344.178 1102.78 344.107 1102.82 344.095C1102.85 344.082 1102.96 344.069 1103.13 344.056H1103.2C1103.4 344.056 1103.49 344.107 1103.49 344.211C1103.49 344.224 1103.48 344.295 1103.45 344.424C1103.25 345.159 1102.85 345.811 1102.25 346.379C1101.66 346.946 1100.97 347.23 1100.18 347.23C1099.28 347.23 1098.6 346.824 1098.13 346.011C1097.6 346.811 1097 347.211 1096.31 347.211H1096.2C1095.56 347.211 1095.11 347.043 1094.84 346.708C1094.57 346.372 1094.43 346.017 1094.41 345.643C1094.41 345.23 1094.54 344.895 1094.78 344.637C1095.03 344.378 1095.32 344.249 1095.65 344.249C1096.21 344.249 1096.49 344.52 1096.49 345.062C1096.49 345.321 1096.41 345.546 1096.25 345.74C1096.1 345.933 1095.95 346.063 1095.81 346.127C1095.67 346.192 1095.58 346.224 1095.56 346.224L1095.5 346.243C1095.5 346.256 1095.54 346.282 1095.61 346.321C1095.69 346.359 1095.8 346.404 1095.92 346.456C1096.05 346.508 1096.18 346.527 1096.29 346.514C1096.76 346.514 1097.16 346.224 1097.49 345.643C1097.61 345.437 1097.76 344.998 1097.94 344.327C1098.12 343.656 1098.3 342.959 1098.48 342.236C1098.66 341.514 1098.76 341.088 1098.79 340.959C1098.85 340.61 1098.89 340.359 1098.89 340.204C1098.89 339.843 1098.79 339.585 1098.6 339.43C1098.4 339.275 1098.18 339.197 1097.94 339.197C1097.42 339.197 1096.94 339.404 1096.49 339.817C1096.03 340.23 1095.72 340.759 1095.54 341.404C1095.51 341.52 1095.48 341.585 1095.44 341.598C1095.4 341.61 1095.3 341.623 1095.13 341.636H1094.86C1094.78 341.559 1094.74 341.488 1094.74 341.423Z" fill="black"/>
<path d="M1105.97 332.519L1106.05 332.5C1106.11 332.5 1106.18 332.5 1106.24 332.5H1106.47L1107.02 332.965C1108.23 334.061 1109.11 335.429 1109.67 337.068C1110.22 338.707 1110.5 340.41 1110.5 342.178C1110.5 343.056 1110.44 343.901 1110.31 344.714C1110.18 345.527 1110.03 346.217 1109.86 346.785C1109.69 347.353 1109.45 347.921 1109.15 348.489C1108.84 349.056 1108.59 349.489 1108.41 349.785C1108.23 350.082 1107.96 350.411 1107.62 350.773C1107.27 351.134 1107.06 351.347 1107 351.411C1106.93 351.476 1106.78 351.598 1106.55 351.779C1106.51 351.818 1106.49 351.844 1106.47 351.857H1106.24C1106.14 351.857 1106.07 351.857 1106.03 351.857C1105.99 351.857 1105.96 351.837 1105.93 351.798C1105.91 351.76 1105.89 351.702 1105.87 351.624C1105.89 351.611 1105.96 351.528 1106.09 351.373C1108.09 349.295 1109.09 346.23 1109.09 342.178C1109.09 338.126 1108.09 335.062 1106.09 332.984C1105.96 332.829 1105.89 332.745 1105.87 332.732C1105.87 332.629 1105.91 332.558 1105.97 332.519Z" fill="black"/>
<path d="M1067 342C1060.5 304.5 1014.5 289 1010.5 260.5C1006.5 232 1076 215 1111 164.5C1146 114 1089.5 32.5 1031.5 55.5" stroke="#235BA4" stroke-linecap="round"/>
<circle cx="1067" cy="342" r="2.5" fill="black"/>
<circle cx="1075" cy="296.5" r="2.5" fill="black"/>
<path d="M1284 226.45C1284 226.275 1284.12 226.109 1284.35 225.954H1293.62L1293.83 226.071C1294.02 226.343 1294.02 226.576 1293.83 226.77C1293.69 226.907 1293.36 226.975 1292.84 226.975C1292.25 227.033 1291.91 227.101 1291.82 227.179C1291.58 227.256 1291.46 227.431 1291.44 227.704C1291.42 227.976 1291.39 229.201 1291.35 231.378V235.082H1298.49V231.378C1298.49 230.95 1298.48 230.406 1298.46 229.745C1298.45 228.54 1298.42 227.83 1298.38 227.616C1298.34 227.402 1298.23 227.256 1298.06 227.179H1298.03C1297.91 227.101 1297.56 227.033 1296.98 226.975C1296.22 226.975 1295.84 226.809 1295.84 226.479C1295.84 226.343 1295.9 226.207 1296.01 226.071L1296.22 225.954H1305.49C1305.71 226.09 1305.81 226.255 1305.81 226.45C1305.81 226.8 1305.44 226.975 1304.71 226.975C1303.93 227.033 1303.47 227.188 1303.33 227.441C1303.3 227.558 1303.28 230.387 1303.28 235.927C1303.28 241.449 1303.3 244.258 1303.33 244.355C1303.47 244.627 1303.93 244.793 1304.71 244.851C1305.44 244.851 1305.81 245.036 1305.81 245.405C1305.81 245.6 1305.71 245.765 1305.49 245.901H1296.22L1296.01 245.784C1295.9 245.648 1295.84 245.512 1295.84 245.376C1295.84 245.026 1296.22 244.851 1296.98 244.851C1297.79 244.793 1298.25 244.627 1298.35 244.355C1298.45 244.122 1298.49 242.781 1298.49 240.331V236.452H1291.35V240.331C1291.35 242.858 1291.4 244.2 1291.49 244.355C1291.59 244.627 1292.04 244.793 1292.84 244.851C1293.32 244.851 1293.65 244.919 1293.83 245.055C1294 245.269 1294 245.512 1293.83 245.784L1293.62 245.901H1284.35C1284.12 245.784 1284 245.619 1284 245.405C1284 245.036 1284.38 244.851 1285.14 244.851C1285.93 244.793 1286.38 244.627 1286.48 244.355C1286.58 244.2 1286.62 241.39 1286.62 235.927C1286.62 230.464 1286.58 227.636 1286.48 227.441C1286.36 227.188 1285.91 227.033 1285.14 226.975C1284.38 226.975 1284 226.8 1284 226.45ZM1290.39 235.927V229.745C1290.39 228.151 1290.44 227.227 1290.56 226.975H1287.41C1287.47 227.111 1287.51 227.208 1287.53 227.266C1287.55 227.325 1287.57 227.665 1287.59 228.287C1287.61 228.909 1287.63 229.745 1287.65 230.795C1287.66 231.845 1287.66 233.556 1287.65 235.927C1287.65 240.01 1287.64 242.46 1287.62 243.276C1287.6 244.093 1287.54 244.598 1287.44 244.793C1287.42 244.812 1287.41 244.832 1287.41 244.851H1290.56C1290.44 244.618 1290.39 243.704 1290.39 242.11V235.927ZM1302.23 235.927V231.611C1302.23 230.464 1302.23 229.619 1302.23 229.074C1302.23 228.53 1302.24 228.102 1302.26 227.791C1302.28 227.48 1302.29 227.295 1302.31 227.237C1302.33 227.179 1302.37 227.091 1302.43 226.975H1299.25L1299.4 227.237C1299.48 227.509 1299.51 230.406 1299.51 235.927C1299.51 240.03 1299.5 242.489 1299.49 243.305C1299.47 244.122 1299.4 244.618 1299.28 244.793C1299.26 244.812 1299.25 244.832 1299.25 244.851H1302.43C1302.37 244.734 1302.34 244.666 1302.34 244.647C1302.34 244.627 1302.32 244.501 1302.28 244.268C1302.25 244.034 1302.23 243.753 1302.23 243.422C1302.23 243.092 1302.23 242.547 1302.23 241.789V235.927Z" fill="black"/>
<path d="M1314.71 236.061C1314.77 235.979 1314.85 235.937 1314.96 235.937H1315.12H1315.39C1315.48 236.02 1315.52 236.075 1315.52 236.102C1315.52 236.198 1315.31 237.044 1314.9 238.638C1314.8 239.023 1314.71 239.429 1314.61 239.855C1314.51 240.281 1314.43 240.597 1314.36 240.803L1314.28 241.133C1314.28 241.147 1314.34 241.154 1314.47 241.154C1314.59 241.154 1314.81 241.195 1315.12 241.277C1315.44 241.36 1315.77 241.477 1316.11 241.628C1316.72 241.916 1317.22 242.336 1317.62 242.886C1318.02 243.435 1318.22 244.102 1318.22 244.885C1318.22 245.669 1318 246.418 1317.58 247.133C1317.15 247.847 1316.62 248.439 1315.99 248.906C1315.36 249.373 1314.69 249.744 1313.99 250.019C1313.29 250.294 1312.64 250.438 1312.03 250.452H1311.95L1311.46 252.411C1311.37 252.727 1311.28 253.105 1311.19 253.545C1311.08 253.985 1311 254.246 1310.96 254.328C1310.92 254.411 1310.84 254.459 1310.71 254.473H1310.59C1310.31 254.473 1310.18 254.425 1310.18 254.328C1310.18 254.26 1310.33 253.607 1310.63 252.37L1311.1 250.473C1311.1 250.459 1311.05 250.452 1310.94 250.452C1310.87 250.452 1310.73 250.438 1310.53 250.411C1310.32 250.383 1310.01 250.287 1309.6 250.122C1309.19 249.957 1308.82 249.751 1308.49 249.504C1308.16 249.256 1307.85 248.892 1307.56 248.411C1307.27 247.93 1307.14 247.366 1307.17 246.72C1307.17 245.896 1307.39 245.119 1307.85 244.391C1308.3 243.662 1308.86 243.071 1309.52 242.617C1310.18 242.164 1310.84 241.807 1311.52 241.545C1312.19 241.284 1312.8 241.154 1313.33 241.154C1313.4 241.154 1313.44 241.126 1313.45 241.071L1314.07 238.556C1314.5 236.92 1314.71 236.089 1314.71 236.061ZM1308.8 247.153C1308.8 247.621 1308.88 248.026 1309.04 248.37C1309.21 248.713 1309.43 248.975 1309.72 249.153C1310.01 249.332 1310.26 249.456 1310.47 249.524C1310.67 249.593 1310.91 249.648 1311.17 249.689H1311.31L1313.23 241.916C1313.17 241.916 1313.1 241.923 1313 241.937C1312.91 241.951 1312.71 242.006 1312.4 242.102C1312.1 242.198 1311.81 242.308 1311.54 242.432C1311.26 242.556 1310.96 242.755 1310.63 243.03C1310.3 243.305 1310.02 243.621 1309.78 243.978C1309.54 244.363 1309.31 244.824 1309.1 245.36C1308.9 245.992 1308.8 246.59 1308.8 247.153ZM1316.59 244.432C1316.59 243.91 1316.48 243.463 1316.26 243.092C1316.04 242.721 1315.76 242.459 1315.43 242.308C1315.1 242.157 1314.84 242.054 1314.63 241.999C1314.42 241.944 1314.26 241.916 1314.14 241.916H1314.07L1313.13 245.772L1312.14 249.648C1312.14 249.676 1312.14 249.689 1312.16 249.689C1312.27 249.689 1312.49 249.648 1312.82 249.566C1313.15 249.483 1313.42 249.387 1313.64 249.277C1314.23 249.016 1314.74 248.652 1315.17 248.184C1315.59 247.717 1315.89 247.236 1316.07 246.741C1316.25 246.246 1316.38 245.806 1316.47 245.421C1316.55 245.037 1316.59 244.707 1316.59 244.432Z" fill="black"/>
<path d="M1322.77 238.581C1322.77 237.24 1322.87 235.966 1323.06 234.761C1323.25 233.555 1323.48 232.515 1323.73 231.64C1323.98 230.766 1324.34 229.91 1324.81 229.074C1325.28 228.238 1325.65 227.587 1325.92 227.12C1326.19 226.654 1326.6 226.148 1327.14 225.604C1327.69 225.06 1328.01 224.729 1328.11 224.612C1328.2 224.496 1328.45 224.292 1328.83 224H1329.21H1329.33C1329.6 224 1329.74 224.087 1329.74 224.262C1329.74 224.321 1329.57 224.525 1329.24 224.875C1328.91 225.225 1328.51 225.74 1328.05 226.42C1327.58 227.101 1327.1 227.937 1326.62 228.928C1326.13 229.92 1325.72 231.261 1325.39 232.953C1325.06 234.644 1324.9 236.52 1324.9 238.581C1324.9 240.642 1325.06 242.508 1325.39 244.18C1325.72 245.852 1326.12 247.203 1326.59 248.234C1327.06 249.264 1327.53 250.1 1328.02 250.742C1328.5 251.383 1328.91 251.899 1329.24 252.287C1329.57 252.676 1329.74 252.88 1329.74 252.9C1329.74 253.075 1329.59 253.162 1329.3 253.162H1329.21H1328.83L1328.02 252.462C1326.19 250.81 1324.86 248.749 1324.02 246.28C1323.19 243.811 1322.77 241.245 1322.77 238.581Z" fill="black"/>
<path d="M1350.79 238.669C1350.75 238.727 1350.62 239.903 1350.38 242.197C1350.15 244.491 1350.02 245.677 1349.98 245.755V245.872H1341.61C1337.33 245.872 1334.84 245.872 1334.14 245.872C1333.44 245.872 1333.07 245.823 1333.03 245.726V245.697C1332.98 245.58 1332.98 245.473 1333.03 245.376L1333.5 244.822C1333.81 244.472 1334.28 243.947 1334.9 243.247C1335.52 242.547 1336.11 241.876 1336.68 241.235L1340.27 237.152L1333 227.091L1332.98 226.683C1332.98 226.314 1333.02 226.09 1333.12 226.012C1333.18 225.973 1336.01 225.954 1341.61 225.954H1349.98V226.071C1350.02 226.168 1350.15 227.286 1350.38 229.424C1350.62 231.563 1350.75 232.7 1350.79 232.836V232.953H1349.63V232.836C1349.47 231.709 1349.26 230.775 1348.99 230.037C1348.71 229.298 1348.28 228.695 1347.67 228.229C1347.09 227.82 1346.3 227.568 1345.31 227.47C1344.32 227.373 1342.91 227.315 1341.08 227.295H1339.94H1336.88L1339.92 231.466C1340.32 232.029 1340.83 232.729 1341.43 233.565C1342.5 235.043 1343.04 235.84 1343.04 235.957C1343.04 235.995 1343.03 236.025 1343.01 236.044L1335.86 244.209C1340.78 244.209 1343.44 244.2 1343.85 244.18C1344.79 244.141 1345.56 244.044 1346.19 243.889C1346.81 243.733 1347.23 243.587 1347.44 243.451C1347.65 243.315 1347.89 243.121 1348.14 242.868C1348.53 242.44 1348.85 241.867 1349.1 241.147C1349.35 240.428 1349.51 239.816 1349.57 239.31L1349.63 238.552H1350.79V238.669Z" fill="black"/>
<path d="M1354.18 224.029L1354.29 224C1354.39 224 1354.49 224 1354.58 224H1354.93L1355.75 224.7C1357.58 226.352 1358.91 228.413 1359.75 230.882C1360.58 233.351 1361 235.918 1361 238.581C1361 239.903 1360.9 241.177 1360.71 242.401C1360.51 243.626 1360.29 244.666 1360.04 245.522C1359.78 246.377 1359.43 247.233 1358.96 248.088C1358.49 248.943 1358.12 249.595 1357.85 250.042C1357.58 250.489 1357.18 250.985 1356.65 251.529C1356.13 252.074 1355.82 252.394 1355.72 252.491C1355.62 252.589 1355.4 252.773 1355.05 253.046C1354.99 253.104 1354.95 253.143 1354.93 253.162H1354.58C1354.43 253.162 1354.32 253.162 1354.26 253.162C1354.21 253.162 1354.16 253.133 1354.12 253.075C1354.08 253.016 1354.05 252.929 1354.03 252.812C1354.05 252.793 1354.16 252.666 1354.35 252.433C1357.36 249.303 1358.87 244.686 1358.87 238.581C1358.87 232.476 1357.36 227.859 1354.35 224.729C1354.16 224.496 1354.05 224.369 1354.03 224.35C1354.03 224.194 1354.08 224.087 1354.18 224.029Z" fill="black"/>
<path d="M1087.05 303.387C1086.83 303.575 1086.51 303.778 1086.09 303.996C1085.67 304.214 1085.23 304.322 1084.77 304.322C1083.85 304.322 1083.12 303.996 1082.57 303.343C1082.02 302.69 1081.73 301.856 1081.72 300.84C1081.72 299.317 1082.28 297.917 1083.39 296.64C1084.51 295.363 1085.75 294.718 1087.12 294.703C1087.8 294.703 1088.43 295.051 1089.01 295.748L1089.07 295.661C1089.1 295.617 1089.14 295.574 1089.18 295.53C1089.23 295.487 1089.29 295.428 1089.38 295.356C1089.47 295.283 1089.56 295.233 1089.66 295.204C1089.76 295.175 1089.88 295.153 1090.01 295.138C1090.21 295.138 1090.38 295.204 1090.51 295.334C1090.64 295.465 1090.71 295.603 1090.73 295.748C1090.73 295.965 1090.32 297.721 1089.49 301.014C1088.66 304.308 1088.23 305.991 1088.18 306.063C1087.92 306.847 1087.36 307.492 1086.51 308C1085.65 308.508 1084.67 308.769 1083.57 308.784C1081.52 308.784 1080.5 308.29 1080.5 307.304C1080.5 306.927 1080.63 306.593 1080.89 306.303C1081.15 306.013 1081.49 305.868 1081.89 305.868C1082.11 305.868 1082.31 305.933 1082.5 306.063C1082.69 306.194 1082.79 306.419 1082.81 306.738C1082.81 306.883 1082.79 307.021 1082.76 307.152C1082.73 307.282 1082.68 307.384 1082.61 307.456C1082.54 307.529 1082.48 307.601 1082.44 307.674C1082.39 307.746 1082.34 307.804 1082.28 307.848L1082.24 307.891H1082.26C1082.41 307.935 1082.84 307.957 1083.57 307.957C1084.12 307.957 1084.56 307.87 1084.87 307.696C1085.21 307.536 1085.52 307.297 1085.81 306.977C1086.1 306.658 1086.3 306.317 1086.42 305.955C1086.51 305.679 1086.62 305.229 1086.77 304.605C1086.96 303.909 1087.05 303.503 1087.05 303.387ZM1088.64 297.184L1088.55 296.945C1088.51 296.785 1088.47 296.676 1088.44 296.618C1088.41 296.56 1088.37 296.459 1088.31 296.314C1088.25 296.168 1088.18 296.067 1088.1 296.009C1088.01 295.951 1087.91 295.871 1087.81 295.769C1087.71 295.668 1087.58 295.603 1087.42 295.574C1087.26 295.545 1087.1 295.523 1086.94 295.508C1086.3 295.508 1085.69 295.893 1085.09 296.662C1084.66 297.228 1084.29 298.091 1084 299.252C1083.71 300.412 1083.57 301.254 1083.57 301.776C1083.57 302.922 1084.02 303.495 1084.92 303.495C1085.73 303.495 1086.53 302.988 1087.31 301.972L1087.49 301.754L1088.64 297.184Z" fill="black"/>
<path d="M1097.2 298.882C1097.2 298.533 1097.32 298.229 1097.57 297.967C1097.81 297.706 1098.13 297.576 1098.5 297.576C1098.85 297.576 1099.16 297.692 1099.42 297.924C1099.68 298.156 1099.82 298.468 1099.83 298.86C1099.83 299.222 1099.71 299.534 1099.46 299.796C1099.21 300.057 1098.9 300.187 1098.52 300.187C1098.15 300.187 1097.84 300.064 1097.59 299.817C1097.34 299.571 1097.21 299.259 1097.2 298.882Z" fill="black"/>
<path d="M1109.89 294.725C1110.48 294.725 1110.96 294.899 1111.3 295.247C1111.65 295.595 1111.83 296.023 1111.83 296.531C1111.83 296.821 1111.59 297.59 1111.13 298.838C1110.66 300.086 1110.44 300.993 1110.45 301.558C1110.5 302.168 1110.69 302.647 1111.04 302.995C1111.35 303.256 1111.66 303.43 1111.98 303.517C1112.24 303.633 1112.46 303.691 1112.65 303.691H1112.67L1114.46 296.488C1115.68 291.685 1116.29 289.277 1116.31 289.262C1116.35 289.233 1116.47 289.219 1116.66 289.219C1116.95 289.219 1117.09 289.27 1117.09 289.371C1117.09 289.502 1116.5 291.903 1115.33 296.575C1114.14 301.334 1113.54 303.72 1113.54 303.735C1113.54 303.749 1113.59 303.756 1113.68 303.756C1114.92 303.756 1116.11 303.118 1117.22 301.841C1118.34 300.565 1118.91 299.375 1118.92 298.272C1118.92 297.924 1118.86 297.627 1118.75 297.38C1118.63 297.133 1118.5 296.959 1118.35 296.858C1118.21 296.756 1118.08 296.625 1117.96 296.466C1117.85 296.306 1117.79 296.139 1117.79 295.965C1117.79 295.661 1117.91 295.37 1118.16 295.095C1118.41 294.819 1118.71 294.681 1119.07 294.681C1119.35 294.681 1119.6 294.812 1119.83 295.073C1120.07 295.334 1120.18 295.762 1120.18 296.357C1120.18 296.778 1120.1 297.344 1119.94 298.055C1119.78 298.765 1119.65 299.259 1119.55 299.534C1119.09 300.913 1118.27 302.095 1117.09 303.082C1115.92 304.068 1114.73 304.562 1113.54 304.562H1113.33L1112.83 306.586C1112.48 307.95 1112.3 308.639 1112.3 308.653C1112.28 308.74 1112.13 308.784 1111.87 308.784H1111.59C1111.5 308.697 1111.46 308.639 1111.46 308.61C1111.46 308.537 1111.62 307.848 1111.96 306.542C1112.29 305.236 1112.46 304.562 1112.46 304.518C1112.36 304.504 1112.25 304.496 1112.15 304.496C1109.85 304.177 1108.69 303.111 1108.69 301.297C1108.69 300.789 1108.93 299.883 1109.41 298.577C1109.89 297.271 1110.14 296.437 1110.15 296.074C1110.15 296.06 1110.15 296.045 1110.15 296.031C1110.15 295.9 1110.15 295.813 1110.15 295.769C1110.15 295.726 1110.12 295.675 1110.06 295.617C1110 295.559 1109.93 295.53 1109.82 295.53H1109.74C1109.4 295.53 1109.1 295.668 1108.82 295.944C1108.55 296.219 1108.33 296.517 1108.17 296.836C1108.01 297.155 1107.89 297.46 1107.8 297.75C1107.71 298.04 1107.65 298.2 1107.63 298.229C1107.6 298.258 1107.48 298.272 1107.28 298.272H1106.97C1106.89 298.185 1106.84 298.12 1106.84 298.076C1106.84 297.902 1106.94 297.569 1107.12 297.075C1107.31 296.582 1107.66 296.067 1108.17 295.53C1108.68 294.993 1109.25 294.725 1109.89 294.725Z" fill="black"/>
<path d="M1122.6 298.882C1122.6 297.88 1122.67 296.93 1122.82 296.031C1122.96 295.131 1123.13 294.355 1123.32 293.702C1123.51 293.049 1123.77 292.411 1124.12 291.787C1124.47 291.163 1124.75 290.677 1124.95 290.329C1125.15 289.98 1125.46 289.603 1125.86 289.197C1126.27 288.791 1126.51 288.544 1126.58 288.457C1126.65 288.37 1126.84 288.218 1127.13 288H1127.41H1127.5C1127.7 288 1127.8 288.065 1127.8 288.196C1127.8 288.239 1127.68 288.392 1127.43 288.653C1127.18 288.914 1126.89 289.299 1126.54 289.806C1126.19 290.314 1125.83 290.938 1125.47 291.678C1125.11 292.418 1124.8 293.419 1124.56 294.681C1124.31 295.944 1124.19 297.344 1124.19 298.882C1124.19 300.419 1124.31 301.812 1124.56 303.06C1124.8 304.308 1125.1 305.316 1125.45 306.085C1125.8 306.854 1126.15 307.478 1126.52 307.957C1126.88 308.436 1127.18 308.82 1127.43 309.11C1127.68 309.4 1127.8 309.553 1127.8 309.567C1127.8 309.698 1127.69 309.763 1127.47 309.763H1127.41H1127.13L1126.52 309.241C1125.15 308.008 1124.16 306.47 1123.53 304.627C1122.91 302.784 1122.6 300.869 1122.6 298.882Z" fill="black"/>
<path d="M1129.48 298.076C1129.48 297.873 1129.58 297.525 1129.8 297.032C1130.02 296.538 1130.37 296.023 1130.85 295.487C1131.33 294.95 1131.86 294.689 1132.46 294.703C1133.05 294.703 1133.53 294.87 1133.89 295.204C1134.26 295.537 1134.44 296.002 1134.46 296.596C1134.43 296.872 1134.41 297.024 1134.39 297.053C1134.39 297.097 1134.28 297.431 1134.05 298.055C1133.81 298.678 1133.57 299.382 1133.33 300.166C1133.08 300.949 1132.96 301.573 1132.98 302.037C1132.98 302.661 1133.08 303.096 1133.28 303.343C1133.49 303.59 1133.79 303.72 1134.2 303.735C1134.53 303.735 1134.84 303.655 1135.13 303.495C1135.42 303.336 1135.65 303.169 1135.81 302.995C1135.97 302.821 1136.16 302.581 1136.4 302.277C1136.4 302.262 1136.43 302.117 1136.51 301.841C1136.58 301.566 1136.68 301.138 1136.81 300.557C1136.94 299.977 1137.08 299.44 1137.22 298.947C1137.77 296.771 1138.08 295.632 1138.14 295.53C1138.33 295.138 1138.64 294.942 1139.07 294.942C1139.26 294.942 1139.41 294.993 1139.53 295.095C1139.65 295.196 1139.73 295.283 1139.77 295.356C1139.81 295.428 1139.83 295.494 1139.81 295.552C1139.81 295.74 1139.46 297.264 1138.75 300.122C1138.04 302.98 1137.63 304.547 1137.53 304.823C1137.12 306.027 1136.42 306.985 1135.42 307.696C1134.42 308.407 1133.41 308.769 1132.41 308.784C1131.76 308.784 1131.19 308.624 1130.69 308.305C1130.2 307.986 1129.95 307.507 1129.95 306.869C1129.95 306.549 1130.01 306.281 1130.11 306.063C1130.21 305.846 1130.35 305.686 1130.52 305.585C1130.69 305.483 1130.84 305.41 1130.96 305.367C1131.07 305.323 1131.19 305.302 1131.33 305.302C1131.96 305.302 1132.28 305.606 1132.28 306.216C1132.28 306.506 1132.2 306.76 1132.02 306.977C1131.85 307.195 1131.68 307.34 1131.52 307.413C1131.36 307.485 1131.27 307.521 1131.24 307.521L1131.17 307.543C1131.2 307.616 1131.34 307.703 1131.59 307.804C1131.83 307.906 1132.08 307.957 1132.33 307.957H1132.5C1132.75 307.957 1132.94 307.942 1133.07 307.913C1133.55 307.783 1133.99 307.507 1134.39 307.086C1134.8 306.665 1135.11 306.216 1135.33 305.737C1135.55 305.258 1135.71 304.852 1135.83 304.518C1135.95 304.184 1136 303.967 1136 303.865L1135.87 303.952C1135.79 304.01 1135.65 304.09 1135.46 304.192C1135.27 304.293 1135.08 304.38 1134.89 304.453C1134.6 304.525 1134.32 304.562 1134.05 304.562C1133.38 304.562 1132.79 304.402 1132.28 304.083C1131.78 303.764 1131.44 303.249 1131.28 302.538C1131.27 302.436 1131.26 302.211 1131.26 301.863C1131.26 301.036 1131.51 299.955 1132.02 298.62C1132.53 297.286 1132.78 296.437 1132.78 296.074C1132.78 296.06 1132.78 296.045 1132.78 296.031C1132.78 295.9 1132.78 295.813 1132.78 295.769C1132.78 295.726 1132.75 295.675 1132.7 295.617C1132.64 295.559 1132.56 295.53 1132.46 295.53H1132.37C1132.04 295.53 1131.73 295.668 1131.46 295.944C1131.18 296.219 1130.96 296.517 1130.8 296.836C1130.64 297.155 1130.52 297.46 1130.43 297.75C1130.35 298.04 1130.29 298.2 1130.26 298.229C1130.23 298.258 1130.11 298.272 1129.91 298.272H1129.61C1129.52 298.185 1129.48 298.12 1129.48 298.076Z" fill="black"/>
<path d="M1140.99 288.022L1141.08 288C1141.15 288 1141.22 288 1141.29 288H1141.55L1142.16 288.522C1143.53 289.756 1144.52 291.293 1145.14 293.136C1145.77 294.979 1146.08 296.894 1146.08 298.882C1146.08 299.868 1146.01 300.818 1145.86 301.732C1145.72 302.647 1145.55 303.423 1145.36 304.061C1145.17 304.7 1144.91 305.338 1144.56 305.976C1144.21 306.615 1143.93 307.101 1143.73 307.434C1143.53 307.768 1143.23 308.138 1142.84 308.544C1142.45 308.951 1142.21 309.19 1142.14 309.263C1142.07 309.335 1141.9 309.473 1141.64 309.676C1141.6 309.72 1141.57 309.749 1141.55 309.763H1141.29C1141.18 309.763 1141.1 309.763 1141.05 309.763C1141.01 309.763 1140.97 309.741 1140.94 309.698C1140.92 309.654 1140.89 309.589 1140.88 309.502C1140.89 309.487 1140.97 309.393 1141.12 309.219C1143.37 306.883 1144.49 303.437 1144.49 298.882C1144.49 294.326 1143.37 290.88 1141.12 288.544C1140.97 288.37 1140.89 288.276 1140.88 288.261C1140.88 288.145 1140.92 288.065 1140.99 288.022Z" fill="black"/>
<path d="M1157.5 295L1162.5 297.887V292.113L1157.5 295ZM1162 295V295.5H1162.5V295V294.5H1162V295Z" fill="black"/>
<path d="M1047 299.5L1052 302.387V296.613L1047 299.5ZM1051.5 299.5V300H1052V299.5V299H1051.5V299.5Z" fill="black"/>
</svg>
