<svg width="1516" height="411" viewBox="0 0 1516 411" fill="none" xmlns="http://www.w3.org/2000/svg">
<path d="M229.514 48.5C171.514 71.5 151.514 152 161.014 215.5C170.514 279 213.514 345.5 260.514 354.5" stroke="#235BA4" stroke-width="2" stroke-linecap="round" stroke-dasharray="5 5"/>
<path d="M168.581 309.613C242.036 404.895 445.983 339.691 461.026 220.241C461.035 220.164 461.045 220.086 461.055 220.009C461.067 219.905 461.08 219.802 461.093 219.698C475.4 101.379 294.907 -5.67957 198.406 64.1857C150.46 98.8974 128.383 158.396 133.149 216.172C135.907 249.609 147.655 282.468 168.581 309.613Z" fill="#D9D9D9" fill-opacity="0.3"/>
<path d="M461.026 220.241C445.983 339.691 242.036 404.895 168.581 309.613C147.655 282.468 135.907 249.609 133.149 216.172C128.383 158.396 150.46 98.8974 198.406 64.1857C294.907 -5.67957 475.4 101.379 461.093 219.698M461.026 220.241C461.048 220.06 461.071 219.879 461.093 219.698M461.026 220.241L461.093 219.698" stroke="black"/>
<path d="M260.514 354.5C298.514 360.5 243.014 283.5 239.014 255C235.014 226.5 259.514 190.5 294.514 140C329.514 89.5 287.514 25.5 229.514 48.5" stroke="#235BA4" stroke-width="2" stroke-linecap="round"/>
<path d="M461.026 220.241C445.983 339.691 242.036 404.895 168.581 309.613C147.655 282.468 135.907 249.609 133.149 216.172C128.383 158.396 150.46 98.8974 198.406 64.1857C294.907 -5.67957 475.4 101.379 461.093 219.698M461.026 220.241C461.048 220.06 461.071 219.879 461.093 219.698M461.026 220.241L461.093 219.698" stroke="black"/>
<path d="M271.878 248.507C261.378 235.007 281.378 205.506 305.378 206.006C329.378 206.506 361.378 219.506 333.378 243.006C305.378 266.506 282.378 262.007 271.878 248.507Z" stroke="black"/>
<path d="M286.778 339.678C286.778 340.119 287.2 340.376 288.044 340.449C288.375 340.449 288.54 340.55 288.54 340.752C288.54 340.77 288.521 340.89 288.485 341.11C288.43 341.367 288.375 341.532 288.32 341.606C288.264 341.679 288.145 341.716 287.962 341.716C287.925 341.716 287.815 341.716 287.631 341.716C287.448 341.716 287.135 341.707 286.695 341.688C286.254 341.67 285.667 341.661 284.933 341.661C283.629 341.661 282.794 341.679 282.427 341.716H282.207C282.078 341.587 282.014 341.486 282.014 341.413C282.051 340.917 282.17 340.596 282.372 340.449H282.757C284.042 340.394 284.978 339.935 285.566 339.072C285.676 338.962 287.337 336.163 290.55 330.674C293.762 325.185 295.396 322.404 295.451 322.33C295.58 322.11 295.8 322 296.112 322H296.332H296.801C296.911 322.165 296.966 322.257 296.966 322.275L297.737 331.169C298.251 337.099 298.526 340.091 298.563 340.146C298.655 340.348 299.251 340.449 300.353 340.449C300.812 340.449 301.041 340.541 301.041 340.724C301.041 340.761 301.014 340.89 300.959 341.11C300.903 341.385 300.858 341.551 300.821 341.606C300.784 341.661 300.656 341.697 300.435 341.716C300.38 341.716 300.252 341.716 300.05 341.716C299.848 341.716 299.49 341.707 298.976 341.688C298.462 341.67 297.792 341.661 296.966 341.661C295.24 341.661 294.111 341.679 293.579 341.716H293.248C293.138 341.606 293.083 341.523 293.083 341.468C293.083 341.413 293.102 341.248 293.138 340.972C293.212 340.734 293.267 340.587 293.304 340.532L293.414 340.449H293.964C294.956 340.394 295.543 340.238 295.727 339.981L295.396 335.851H288.843L287.906 337.448C287.154 338.714 286.778 339.458 286.778 339.678ZM295.259 334.556C295.259 334.354 295.148 332.923 294.928 330.261C294.708 327.599 294.579 326.259 294.543 326.241L293.799 327.425C293.505 327.92 292.927 328.902 292.064 330.371L289.586 334.556L292.422 334.584C294.313 334.584 295.259 334.575 295.259 334.556Z" fill="black"/>
<path d="M354.403 219.265C353.78 219.265 353.45 219.228 353.413 219.155C353.395 219.118 353.386 219.045 353.386 218.935C353.386 218.495 353.487 218.193 353.688 218.028C353.725 218.009 353.862 218 354.101 218C355.091 218.055 356.255 218.083 357.593 218.083C360.178 218.083 361.662 218.055 362.047 218H362.377C362.487 218.11 362.542 218.193 362.542 218.248C362.542 218.303 362.524 218.467 362.487 218.742C362.396 219.017 362.313 219.192 362.24 219.265H361.195C359.93 219.283 359.188 219.366 358.968 219.512C358.839 219.586 358.711 219.842 358.583 220.282C358.454 220.722 357.84 223.142 356.74 227.542C356.447 228.733 356.136 229.998 355.806 231.336C355.476 232.674 355.228 233.683 355.063 234.361L354.816 235.351C354.816 235.424 354.898 235.461 355.063 235.461C355.228 235.461 355.769 235.479 356.686 235.516H357.153C357.74 235.516 358.207 235.507 358.555 235.488C358.904 235.47 359.353 235.406 359.903 235.296C360.453 235.186 360.911 235.021 361.278 234.801C361.644 234.581 362.047 234.269 362.487 233.866C362.927 233.463 363.312 232.958 363.642 232.354C363.936 231.804 364.211 231.19 364.467 230.511C364.724 229.833 364.88 229.448 364.935 229.356C365.026 229.301 365.182 229.274 365.402 229.274H365.76C365.87 229.439 365.925 229.54 365.925 229.576C365.925 229.613 365.741 230.154 365.375 231.199C365.008 232.244 364.605 233.343 364.165 234.498C363.725 235.653 363.486 236.331 363.45 236.533C363.413 236.625 363.376 236.68 363.34 236.698C363.303 236.716 363.157 236.744 362.9 236.781C362.643 236.817 362.249 236.826 361.717 236.808C361.516 236.808 360.819 236.808 359.628 236.808C358.436 236.808 357.3 236.799 356.218 236.781H351.324C349.784 236.781 349.014 236.689 349.014 236.506C349.014 236.377 349.032 236.249 349.069 236.121C349.16 235.772 349.252 235.58 349.344 235.543C349.417 235.525 349.555 235.516 349.756 235.516H349.921C350.416 235.516 350.966 235.488 351.571 235.433C351.828 235.378 352.002 235.268 352.093 235.103C352.148 235.03 352.808 232.482 354.073 227.459C355.338 222.436 355.971 219.787 355.971 219.512C355.971 219.384 355.448 219.302 354.403 219.265Z" fill="black"/>
<path d="M372.905 240.069C372.711 240.238 372.426 240.419 372.05 240.614C371.674 240.808 371.279 240.905 370.864 240.905C370.048 240.905 369.393 240.614 368.901 240.03C368.408 239.447 368.155 238.702 368.143 237.795C368.143 236.434 368.641 235.183 369.639 234.043C370.637 232.902 371.745 232.325 372.964 232.312C373.573 232.312 374.137 232.623 374.655 233.246L374.713 233.168C374.739 233.129 374.772 233.09 374.811 233.051C374.849 233.012 374.908 232.96 374.986 232.896C375.063 232.831 375.148 232.785 375.238 232.76C375.329 232.734 375.433 232.714 375.549 232.701C375.731 232.701 375.88 232.76 375.996 232.876C376.113 232.993 376.178 233.116 376.191 233.246C376.191 233.44 375.821 235.008 375.083 237.95C374.344 240.892 373.955 242.396 373.916 242.46C373.683 243.16 373.184 243.737 372.419 244.191C371.655 244.644 370.78 244.877 369.795 244.89C367.968 244.89 367.054 244.45 367.054 243.568C367.054 243.232 367.17 242.933 367.404 242.674C367.637 242.415 367.935 242.285 368.298 242.285C368.492 242.285 368.674 242.344 368.842 242.46C369.011 242.577 369.102 242.778 369.115 243.063C369.115 243.193 369.102 243.316 369.076 243.432C369.05 243.549 369.004 243.64 368.94 243.705C368.875 243.769 368.823 243.834 368.784 243.899C368.745 243.964 368.7 244.016 368.648 244.055L368.609 244.093H368.629C368.758 244.132 369.147 244.152 369.795 244.152C370.287 244.152 370.676 244.074 370.961 243.918C371.259 243.776 371.538 243.562 371.797 243.277C372.057 242.992 372.238 242.687 372.342 242.363C372.419 242.117 372.523 241.715 372.653 241.158C372.821 240.536 372.905 240.173 372.905 240.069ZM374.325 234.529L374.247 234.315C374.208 234.172 374.176 234.075 374.15 234.023C374.124 233.971 374.085 233.881 374.033 233.751C373.981 233.621 373.916 233.531 373.839 233.479C373.761 233.427 373.677 233.356 373.586 233.265C373.495 233.174 373.378 233.116 373.236 233.09C373.093 233.064 372.951 233.045 372.808 233.032C372.238 233.032 371.687 233.375 371.156 234.062C370.767 234.568 370.443 235.339 370.184 236.376C369.925 237.412 369.795 238.164 369.795 238.631C369.795 239.654 370.197 240.166 371 240.166C371.726 240.166 372.439 239.713 373.139 238.806L373.294 238.611L374.325 234.529Z" fill="black"/>
<path d="M511.514 200.404C511.514 199.949 511.759 199.599 512.249 199.354H545.712C546.237 199.634 546.5 199.984 546.5 200.404C546.5 200.79 546.255 201.122 545.765 201.403L529.059 201.455H512.354C511.794 201.28 511.514 200.93 511.514 200.404ZM511.514 210.596C511.514 210.07 511.794 209.72 512.354 209.545H545.765C546.255 209.895 546.5 210.245 546.5 210.596C546.5 211.051 546.237 211.401 545.712 211.646H512.249C511.759 211.401 511.514 211.051 511.514 210.596Z" fill="black"/>
<path d="M692.5 48.5C634.5 71.5 614.5 152 624 215.5C633.5 279 676.5 345.5 723.5 354.5" stroke="#235BA4" stroke-width="2" stroke-linecap="round" stroke-dasharray="5 5"/>
<path d="M631.567 309.613C705.022 404.895 908.97 339.691 924.012 220.241C924.022 220.164 924.031 220.086 924.041 220.009C924.054 219.905 924.066 219.802 924.079 219.698C938.386 101.379 757.894 -5.67957 661.392 64.1857C613.446 98.8974 591.37 158.396 596.135 216.172C598.893 249.609 610.641 282.468 631.567 309.613Z" fill="#D9D9D9" fill-opacity="0.3"/>
<path d="M924.012 220.241C908.97 339.691 705.022 404.895 631.567 309.613C610.641 282.468 598.893 249.609 596.135 216.172C591.37 158.396 613.446 98.8974 661.392 64.1857C757.894 -5.67957 938.386 101.379 924.079 219.698M924.012 220.241C924.035 220.06 924.057 219.879 924.079 219.698M924.012 220.241L924.079 219.698" stroke="black"/>
<path d="M764 259.248C773.506 257.906 784.485 252.976 796.364 243.006C824.364 219.506 792.364 206.506 768.364 206.006C765.541 205.947 762.774 206.304 760.105 207" stroke="black"/>
<path d="M723.5 354.5C761.5 360.5 767.5 279.5 763.5 251C759.5 222.5 760 192 757.5 140C755 88 750.5 25.5 692.5 48.5" stroke="#235BA4" stroke-width="2" stroke-linecap="round"/>
<path d="M924.012 220.241C908.97 339.691 705.022 404.895 631.567 309.613C610.641 282.468 598.893 249.609 596.135 216.172C591.37 158.396 613.446 98.8974 661.392 64.1857C757.894 -5.67957 938.386 101.379 924.079 219.698M924.012 220.241C924.035 220.06 924.057 219.879 924.079 219.698M924.012 220.241L924.079 219.698" stroke="black"/>
<path d="M817.389 219.265C816.766 219.265 816.436 219.228 816.4 219.155C816.381 219.118 816.372 219.045 816.372 218.935C816.372 218.495 816.473 218.193 816.675 218.028C816.711 218.009 816.849 218 817.087 218C818.077 218.055 819.241 218.083 820.579 218.083C823.164 218.083 824.649 218.055 825.034 218H825.364C825.474 218.11 825.529 218.193 825.529 218.248C825.529 218.303 825.51 218.467 825.474 218.742C825.382 219.017 825.299 219.192 825.226 219.265H824.181C822.916 219.283 822.174 219.366 821.954 219.512C821.826 219.586 821.697 219.842 821.569 220.282C821.441 220.722 820.827 223.142 819.727 227.542C819.433 228.733 819.122 229.998 818.792 231.336C818.462 232.674 818.214 233.683 818.049 234.361L817.802 235.351C817.802 235.424 817.884 235.461 818.049 235.461C818.214 235.461 818.755 235.479 819.672 235.516H820.139C820.726 235.516 821.193 235.507 821.542 235.488C821.89 235.47 822.339 235.406 822.889 235.296C823.439 235.186 823.897 235.021 824.264 234.801C824.63 234.581 825.034 234.269 825.474 233.866C825.914 233.463 826.299 232.958 826.628 232.354C826.922 231.804 827.197 231.19 827.453 230.511C827.71 229.833 827.866 229.448 827.921 229.356C828.013 229.301 828.168 229.274 828.388 229.274H828.746C828.856 229.439 828.911 229.54 828.911 229.576C828.911 229.613 828.727 230.154 828.361 231.199C827.994 232.244 827.591 233.343 827.151 234.498C826.711 235.653 826.473 236.331 826.436 236.533C826.399 236.625 826.363 236.68 826.326 236.698C826.289 236.716 826.143 236.744 825.886 236.781C825.629 236.817 825.235 236.826 824.704 236.808C824.502 236.808 823.805 236.808 822.614 236.808C821.422 236.808 820.286 236.799 819.204 236.781H814.31C812.77 236.781 812 236.689 812 236.506C812 236.377 812.018 236.249 812.055 236.121C812.147 235.772 812.238 235.58 812.33 235.543C812.403 235.525 812.541 235.516 812.742 235.516H812.907C813.402 235.516 813.952 235.488 814.557 235.433C814.814 235.378 814.988 235.268 815.08 235.103C815.135 235.03 815.795 232.482 817.059 227.459C818.324 222.436 818.957 219.787 818.957 219.512C818.957 219.384 818.434 219.302 817.389 219.265Z" fill="black"/>
<path d="M835.892 240.069C835.697 240.238 835.412 240.419 835.036 240.614C834.661 240.808 834.265 240.905 833.85 240.905C833.034 240.905 832.38 240.614 831.887 240.03C831.395 239.447 831.142 238.702 831.129 237.795C831.129 236.434 831.628 235.183 832.626 234.043C833.624 232.902 834.732 232.325 835.95 232.312C836.559 232.312 837.123 232.623 837.641 233.246L837.7 233.168C837.726 233.129 837.758 233.09 837.797 233.051C837.836 233.012 837.894 232.96 837.972 232.896C838.05 232.831 838.134 232.785 838.225 232.76C838.315 232.734 838.419 232.714 838.536 232.701C838.717 232.701 838.866 232.76 838.983 232.876C839.099 232.993 839.164 233.116 839.177 233.246C839.177 233.44 838.808 235.008 838.069 237.95C837.33 240.892 836.942 242.396 836.903 242.46C836.669 243.16 836.17 243.737 835.406 244.191C834.641 244.644 833.766 244.877 832.781 244.89C830.954 244.89 830.04 244.45 830.04 243.568C830.04 243.232 830.157 242.933 830.39 242.674C830.623 242.415 830.921 242.285 831.284 242.285C831.479 242.285 831.66 242.344 831.829 242.46C831.997 242.577 832.088 242.778 832.101 243.063C832.101 243.193 832.088 243.316 832.062 243.432C832.036 243.549 831.991 243.64 831.926 243.705C831.861 243.769 831.809 243.834 831.77 243.899C831.731 243.964 831.686 244.016 831.634 244.055L831.595 244.093H831.615C831.744 244.132 832.133 244.152 832.781 244.152C833.274 244.152 833.663 244.074 833.948 243.918C834.246 243.776 834.524 243.562 834.784 243.277C835.043 242.992 835.224 242.687 835.328 242.363C835.406 242.117 835.509 241.715 835.639 241.158C835.808 240.536 835.892 240.173 835.892 240.069ZM837.311 234.529L837.233 234.315C837.194 234.172 837.162 234.075 837.136 234.023C837.11 233.971 837.071 233.881 837.019 233.751C836.967 233.621 836.903 233.531 836.825 233.479C836.747 233.427 836.663 233.356 836.572 233.265C836.481 233.174 836.365 233.116 836.222 233.09C836.08 233.064 835.937 233.045 835.795 233.032C835.224 233.032 834.673 233.375 834.142 234.062C833.753 234.568 833.429 235.339 833.17 236.376C832.911 237.412 832.781 238.164 832.781 238.631C832.781 239.654 833.183 240.166 833.987 240.166C834.712 240.166 835.425 239.713 836.125 238.806L836.281 238.611L837.311 234.529Z" fill="black"/>
<path d="M765.764 338.678C765.764 339.119 766.186 339.376 767.03 339.449C767.361 339.449 767.526 339.55 767.526 339.752C767.526 339.77 767.508 339.89 767.471 340.11C767.416 340.367 767.361 340.532 767.306 340.606C767.251 340.679 767.131 340.716 766.948 340.716C766.911 340.716 766.801 340.716 766.617 340.716C766.434 340.716 766.122 340.707 765.681 340.688C765.241 340.67 764.653 340.661 763.919 340.661C762.615 340.661 761.78 340.679 761.413 340.716H761.193C761.064 340.587 761 340.486 761 340.413C761.037 339.917 761.156 339.596 761.358 339.449H761.743C763.028 339.394 763.965 338.935 764.552 338.072C764.662 337.962 766.324 335.163 769.536 329.674C772.749 324.185 774.382 321.404 774.438 321.33C774.566 321.11 774.786 321 775.098 321H775.319H775.787C775.897 321.165 775.952 321.257 775.952 321.275L776.723 330.169C777.237 336.099 777.512 339.091 777.549 339.146C777.641 339.348 778.238 339.449 779.339 339.449C779.798 339.449 780.027 339.541 780.027 339.724C780.027 339.761 780 339.89 779.945 340.11C779.89 340.385 779.844 340.551 779.807 340.606C779.77 340.661 779.642 340.697 779.422 340.716C779.366 340.716 779.238 340.716 779.036 340.716C778.834 340.716 778.476 340.707 777.962 340.688C777.448 340.67 776.778 340.661 775.952 340.661C774.226 340.661 773.097 340.679 772.565 340.716H772.235C772.125 340.606 772.069 340.523 772.069 340.468C772.069 340.413 772.088 340.248 772.125 339.972C772.198 339.734 772.253 339.587 772.29 339.532L772.4 339.449H772.951C773.942 339.394 774.529 339.238 774.713 338.981L774.382 334.851H767.829L766.893 336.448C766.14 337.714 765.764 338.458 765.764 338.678ZM774.245 333.556C774.245 333.354 774.135 331.923 773.914 329.261C773.694 326.599 773.566 325.259 773.529 325.241L772.785 326.425C772.492 326.92 771.913 327.902 771.051 329.371L768.572 333.556L771.409 333.584C773.299 333.584 774.245 333.575 774.245 333.556Z" fill="black"/>
<path d="M976.5 200.404C976.5 199.949 976.745 199.599 977.235 199.354H1010.7C1011.22 199.634 1011.49 199.984 1011.49 200.404C1011.49 200.79 1011.24 201.122 1010.75 201.403L994.046 201.455H977.341C976.78 201.28 976.5 200.93 976.5 200.404ZM976.5 210.596C976.5 210.07 976.78 209.72 977.341 209.545H1010.75C1011.24 209.895 1011.49 210.245 1011.49 210.596C1011.49 211.051 1011.22 211.401 1010.7 211.646H977.235C976.745 211.401 976.5 211.051 976.5 210.596Z" fill="black"/>
<path d="M1152.49 48.5C1094.49 71.5 1074.49 152 1083.99 215.5C1093.49 279 1136.49 345.5 1183.49 354.5" stroke="#235BA4" stroke-width="2" stroke-linecap="round" stroke-dasharray="5 5"/>
<path d="M1091.55 309.613C1165.01 404.895 1368.96 339.691 1384 220.241C1384.01 220.164 1384.02 220.086 1384.03 220.009C1384.04 219.905 1384.05 219.802 1384.07 219.698C1398.37 101.379 1217.88 -5.67957 1121.38 64.1857C1073.43 98.8974 1051.36 158.396 1056.12 216.172C1058.88 249.609 1070.63 282.468 1091.55 309.613Z" fill="#D9D9D9" fill-opacity="0.3"/>
<path d="M1384 220.241C1368.96 339.691 1165.01 404.895 1091.55 309.613C1070.63 282.468 1058.88 249.609 1056.12 216.172C1051.36 158.396 1073.43 98.8974 1121.38 64.1857C1217.88 -5.67957 1398.37 101.379 1384.07 219.698M1384 220.241C1384.02 220.06 1384.04 219.879 1384.07 219.698M1384 220.241L1384.07 219.698" stroke="black"/>
<path d="M1183.49 354.5C1221.49 360.5 1282.99 248.5 1278.99 220C1274.99 191.5 1232.49 188.5 1217.49 140C1202.49 91.5 1210.49 25.5 1152.49 48.5" stroke="#235BA4" stroke-width="2" stroke-linecap="round"/>
<path d="M1384 220.241C1368.96 339.691 1165.01 404.895 1091.55 309.613C1070.63 282.468 1058.88 249.609 1056.12 216.172C1051.36 158.396 1073.43 98.8974 1121.38 64.1857C1217.88 -5.67957 1398.37 101.379 1384.07 219.698M1384 220.241C1384.02 220.06 1384.04 219.879 1384.07 219.698M1384 220.241L1384.07 219.698" stroke="black"/>
<path d="M1240.75 335.678C1240.75 336.119 1241.17 336.376 1242.02 336.449C1242.35 336.449 1242.51 336.55 1242.51 336.752C1242.51 336.77 1242.49 336.89 1242.46 337.11C1242.4 337.367 1242.35 337.532 1242.29 337.606C1242.24 337.679 1242.12 337.716 1241.93 337.716C1241.9 337.716 1241.79 337.716 1241.6 337.716C1241.42 337.716 1241.11 337.707 1240.67 337.688C1240.23 337.67 1239.64 337.661 1238.91 337.661C1237.6 337.661 1236.77 337.679 1236.4 337.716H1236.18C1236.05 337.587 1235.99 337.486 1235.99 337.413C1236.02 336.917 1236.14 336.596 1236.34 336.449H1236.73C1238.01 336.394 1238.95 335.935 1239.54 335.072C1239.65 334.962 1241.31 332.163 1244.52 326.674C1247.73 321.185 1249.37 318.404 1249.42 318.33C1249.55 318.11 1249.77 318 1250.08 318H1250.3H1250.77C1250.88 318.165 1250.94 318.257 1250.94 318.275L1251.71 327.169C1252.22 333.099 1252.5 336.091 1252.54 336.146C1252.63 336.348 1253.22 336.449 1254.33 336.449C1254.78 336.449 1255.01 336.541 1255.01 336.724C1255.01 336.761 1254.99 336.89 1254.93 337.11C1254.88 337.385 1254.83 337.551 1254.79 337.606C1254.76 337.661 1254.63 337.697 1254.41 337.716C1254.35 337.716 1254.22 337.716 1254.02 337.716C1253.82 337.716 1253.46 337.707 1252.95 337.688C1252.43 337.67 1251.76 337.661 1250.94 337.661C1249.21 337.661 1248.08 337.679 1247.55 337.716H1247.22C1247.11 337.606 1247.06 337.523 1247.06 337.468C1247.06 337.413 1247.07 337.248 1247.11 336.972C1247.18 336.734 1247.24 336.587 1247.28 336.532L1247.39 336.449H1247.94C1248.93 336.394 1249.52 336.238 1249.7 335.981L1249.37 331.851H1242.82L1241.88 333.448C1241.13 334.714 1240.75 335.458 1240.75 335.678ZM1249.23 330.556C1249.23 330.354 1249.12 328.923 1248.9 326.261C1248.68 323.599 1248.55 322.259 1248.52 322.241L1247.77 323.425C1247.48 323.92 1246.9 324.902 1246.04 326.371L1243.56 330.556L1246.39 330.584C1248.29 330.584 1249.23 330.575 1249.23 330.556Z" fill="black"/>
</svg>
