<svg width="1863" height="556" viewBox="0 0 1863 556" fill="none" xmlns="http://www.w3.org/2000/svg">
<path d="M710.029 283.061C710.029 195.02 559.465 123.648 373.737 123.648C188.008 123.648 37.4445 195.02 37.4445 283.061" stroke="#3090FF" stroke-width="3" stroke-dasharray="6 6"/>
<path d="M710.444 282.662C710.444 358.817 559.788 420.553 373.945 420.553C188.101 420.553 37.4445 358.817 37.4445 282.662" stroke="#3090FF" stroke-width="3"/>
<path d="M373.737 63.1849C521.432 63.1851 647.123 124.082 692.114 209.032L692.161 209.12L692.189 209.216L693.799 214.652C697.864 223.646 700.003 232.96 700.003 242.5C700.003 262.37 690.735 281.22 674.141 298.276C657.55 315.327 633.591 330.637 604.064 343.473C545.007 369.146 463.491 385 373.503 385C283.515 385 201.998 369.146 142.941 343.473C113.414 330.637 89.4556 315.327 72.8651 298.276C56.2703 281.22 47.0029 262.37 47.0028 242.5C47.0028 230.783 50.2262 219.41 56.2821 208.552L58.662 203.1L58.6855 203.047L58.7148 202.996C106.357 121.216 229.555 63.1849 373.737 63.1849ZM374.363 212.768C314.743 212.768 264.048 237.368 245.438 271.659C264.048 305.949 314.743 330.548 374.363 330.548C433.983 330.548 484.678 305.949 503.287 271.659C484.678 237.368 433.984 212.768 374.363 212.768Z" fill="#D9D9D9" fill-opacity="0.3"/>
<path d="M373.503 100C452.66 100 525.255 112.267 581.775 132.689C635.251 152.012 674.532 178.71 691.191 209.408L692.114 209.032C703.573 230.668 709.795 253.865 709.795 278C709.795 337.503 672.002 391.23 611.196 430.033C550.379 468.843 466.421 492.815 373.736 492.815C281.051 492.815 197.094 468.843 136.277 430.033C75.4715 391.23 37.6786 337.503 37.6786 278C37.6786 251.605 45.1197 226.332 58.7138 202.997L59.4218 203.355C78.3804 174.223 117.94 149.024 170.536 130.812C226.259 111.518 296.801 100 373.503 100ZM374.363 212.769C314.743 212.769 264.048 237.368 245.438 271.658C264.048 305.949 314.743 330.548 374.363 330.548C433.983 330.548 484.678 305.949 503.287 271.658C484.678 237.368 433.984 212.769 374.363 212.769Z" fill="#82D5FF" fill-opacity="0.3"/>
<path d="M373.502 384C553.271 384 699.002 320.648 699.002 242.5C699.002 233.091 696.89 223.896 692.859 215L691.231 209.5C646.483 125.01 521.241 64.1849 373.737 64.1849C229.748 64.1849 106.973 122.145 59.5783 203.5L57.1786 209C51.1811 219.74 48.0025 230.958 48.0025 242.5C48.0025 320.648 193.734 384 373.502 384Z" stroke="black" stroke-width="2"/>
<path d="M373.737 491.815C558.784 491.815 708.795 396.087 708.795 278C708.795 254.042 702.62 231.005 691.231 209.5L692.859 215C663.415 150.014 531.626 101 373.502 101C220.283 101 91.7903 147.021 57.1786 209L59.5783 203.5C46.0638 226.698 38.6786 251.799 38.6786 278C38.6786 396.087 188.689 491.815 373.737 491.815Z" stroke="black" stroke-width="2"/>
<path d="M373.502 101.5C463.335 101.5 544.639 117.33 603.466 142.903C632.881 155.69 656.653 170.903 673.065 187.771C689.474 204.636 698.502 223.13 698.502 242.5C698.502 261.87 689.474 280.364 673.065 297.229C656.653 314.097 632.881 329.31 603.466 342.097C544.639 367.67 463.335 383.5 373.502 383.5C283.67 383.5 202.366 367.67 143.539 342.097C114.124 329.31 90.3515 314.097 73.94 297.229C57.5307 280.364 48.5025 261.87 48.5025 242.5C48.5025 223.13 57.5307 204.636 73.94 187.771C90.3515 170.903 114.124 155.69 143.539 142.903C202.366 117.33 283.67 101.5 373.502 101.5Z" stroke="black"/>
<path d="M238.091 248.102C242.453 294.106 301.796 330.548 374.363 330.548C447.405 330.548 507.05 293.627 510.713 247.196" stroke="black" stroke-width="2"/>
<path d="M503.376 271.822C484.839 237.446 434.078 212.768 374.363 212.768C314.742 212.768 264.048 237.367 245.438 271.658" stroke="black" stroke-width="2"/>
<path d="M456.472 445.008C456.472 445.607 457.045 445.956 458.192 446.056C458.641 446.056 458.865 446.193 458.865 446.467C458.865 446.492 458.84 446.654 458.791 446.953C458.716 447.302 458.641 447.526 458.566 447.626C458.491 447.726 458.329 447.776 458.08 447.776C458.03 447.776 457.881 447.776 457.631 447.776C457.382 447.776 456.958 447.763 456.36 447.738C455.761 447.713 454.964 447.701 453.966 447.701C452.196 447.701 451.062 447.726 450.563 447.776H450.264C450.09 447.601 450.002 447.464 450.002 447.364C450.052 446.691 450.214 446.255 450.489 446.056H451.012C452.757 445.981 454.029 445.357 454.827 444.186C454.976 444.036 457.232 440.234 461.595 432.78C465.958 425.326 468.177 421.549 468.252 421.449C468.426 421.15 468.726 421 469.149 421H469.449H470.084C470.234 421.224 470.309 421.349 470.309 421.374L471.356 433.453C472.054 441.506 472.428 445.569 472.478 445.644C472.602 445.918 473.413 446.056 474.908 446.056C475.532 446.056 475.843 446.18 475.843 446.429C475.843 446.479 475.806 446.654 475.731 446.953C475.656 447.327 475.594 447.551 475.544 447.626C475.494 447.701 475.32 447.751 475.021 447.776C474.946 447.776 474.771 447.776 474.497 447.776C474.223 447.776 473.737 447.763 473.039 447.738C472.341 447.713 471.431 447.701 470.309 447.701C467.965 447.701 466.432 447.726 465.709 447.776H465.26C465.111 447.626 465.036 447.514 465.036 447.439C465.036 447.364 465.061 447.14 465.111 446.766C465.21 446.442 465.285 446.243 465.335 446.168L465.485 446.056H466.232C467.579 445.981 468.377 445.769 468.626 445.42L468.177 439.81H459.277L458.005 441.979C456.983 443.7 456.472 444.709 456.472 445.008ZM467.99 438.053C467.99 437.778 467.84 435.834 467.541 432.219C467.242 428.604 467.068 426.784 467.018 426.759L466.008 428.367C465.609 429.04 464.824 430.374 463.652 432.368L460.286 438.053L464.138 438.09C466.706 438.09 467.99 438.078 467.99 438.053Z" fill="black"/>
<path d="M704.485 178.719C704.485 179.257 705.001 179.571 706.031 179.66C706.435 179.66 706.636 179.784 706.636 180.03C706.636 180.052 706.614 180.198 706.569 180.467C706.502 180.781 706.435 180.982 706.367 181.072C706.3 181.162 706.154 181.206 705.93 181.206C705.886 181.206 705.751 181.206 705.527 181.206C705.303 181.206 704.922 181.195 704.384 181.173C703.847 181.15 703.13 181.139 702.233 181.139C700.643 181.139 699.623 181.162 699.175 181.206H698.906C698.749 181.05 698.671 180.926 698.671 180.837C698.716 180.232 698.861 179.84 699.108 179.66H699.578C701.147 179.593 702.289 179.033 703.006 177.98C703.141 177.846 705.169 174.429 709.09 167.729C713.011 161.03 715.005 157.636 715.072 157.546C715.229 157.277 715.498 157.143 715.879 157.143H716.147H716.719C716.853 157.344 716.92 157.456 716.92 157.479L717.861 168.334C718.489 175.571 718.825 179.223 718.87 179.291C718.982 179.537 719.71 179.66 721.054 179.66C721.614 179.66 721.894 179.772 721.894 179.996C721.894 180.041 721.861 180.198 721.794 180.467C721.726 180.803 721.67 181.005 721.626 181.072C721.581 181.139 721.424 181.184 721.155 181.206C721.088 181.206 720.931 181.206 720.685 181.206C720.438 181.206 720.001 181.195 719.374 181.173C718.746 181.15 717.929 181.139 716.92 181.139C714.814 181.139 713.436 181.162 712.787 181.206H712.383C712.249 181.072 712.182 180.971 712.182 180.904C712.182 180.837 712.204 180.635 712.249 180.299C712.338 180.008 712.406 179.828 712.45 179.761L712.585 179.66H713.257C714.467 179.593 715.184 179.403 715.408 179.089L715.005 174.048H707.006L705.863 175.997C704.945 177.543 704.485 178.45 704.485 178.719ZM714.837 172.468C714.837 172.222 714.702 170.474 714.433 167.225C714.164 163.976 714.008 162.341 713.963 162.318L713.055 163.764C712.697 164.369 711.991 165.567 710.938 167.36L707.913 172.468L711.375 172.502C713.683 172.502 714.837 172.491 714.837 172.468Z" fill="black"/>
<path d="M728.774 158.823C728.774 158.621 728.909 158.431 729.177 158.252H739.865L740.1 158.386C740.324 158.7 740.324 158.969 740.1 159.193C739.943 159.35 739.562 159.428 738.957 159.428C738.285 159.495 737.893 159.574 737.781 159.663C737.512 159.753 737.367 159.955 737.344 160.268C737.322 160.582 737.288 161.994 737.243 164.503V168.771H745.478V164.503C745.478 164.01 745.466 163.383 745.444 162.621C745.422 161.232 745.388 160.414 745.343 160.167C745.298 159.921 745.175 159.753 744.973 159.663H744.94C744.805 159.574 744.402 159.495 743.73 159.428C742.856 159.428 742.419 159.238 742.419 158.857C742.419 158.7 742.486 158.543 742.621 158.386L742.856 158.252H753.544C753.79 158.409 753.913 158.599 753.913 158.823C753.913 159.226 753.488 159.428 752.636 159.428C751.74 159.495 751.213 159.675 751.057 159.966C751.012 160.1 750.989 163.36 750.989 169.746C750.989 176.109 751.012 179.347 751.057 179.459C751.213 179.772 751.74 179.963 752.636 180.03C753.488 180.03 753.913 180.243 753.913 180.669C753.913 180.893 753.79 181.083 753.544 181.24H742.856L742.621 181.106C742.486 180.949 742.419 180.792 742.419 180.635C742.419 180.232 742.856 180.03 743.73 180.03C744.671 179.963 745.197 179.772 745.309 179.459C745.422 179.19 745.478 177.644 745.478 174.821V170.351H737.243V174.821C737.243 177.734 737.299 179.279 737.411 179.459C737.524 179.772 738.039 179.963 738.957 180.03C739.518 180.03 739.899 180.109 740.1 180.265C740.302 180.512 740.302 180.792 740.1 181.106L739.865 181.24H729.177C728.909 181.106 728.774 180.915 728.774 180.669C728.774 180.243 729.211 180.03 730.085 180.03C731.003 179.963 731.519 179.772 731.631 179.459C731.743 179.279 731.799 176.042 731.799 169.746C731.799 163.45 731.743 160.19 731.631 159.966C731.496 159.675 730.981 159.495 730.085 159.428C729.211 159.428 728.774 159.226 728.774 158.823ZM736.134 169.746V162.621C736.134 160.784 736.202 159.719 736.336 159.428H732.706C732.774 159.585 732.818 159.697 732.841 159.764C732.863 159.831 732.886 160.223 732.908 160.94C732.93 161.657 732.953 162.621 732.975 163.831C732.998 165.041 732.998 167.012 732.975 169.746C732.975 174.451 732.964 177.274 732.942 178.215C732.919 179.156 732.852 179.739 732.74 179.963C732.718 179.985 732.706 180.008 732.706 180.03H736.336C736.202 179.761 736.134 178.708 736.134 176.871V169.746ZM749.779 169.746V164.772C749.779 163.45 749.779 162.475 749.779 161.848C749.779 161.221 749.791 160.728 749.813 160.369C749.835 160.011 749.858 159.798 749.88 159.731C749.903 159.663 749.947 159.563 750.015 159.428H746.351L746.519 159.731C746.609 160.044 746.654 163.383 746.654 169.746C746.654 174.473 746.643 177.308 746.62 178.249C746.598 179.19 746.519 179.761 746.385 179.963C746.363 179.985 746.351 180.008 746.351 180.03H750.015C749.947 179.896 749.914 179.817 749.914 179.795C749.914 179.772 749.891 179.627 749.847 179.358C749.802 179.089 749.779 178.764 749.779 178.383C749.779 178.002 749.779 177.375 749.779 176.501V169.746Z" fill="black"/>
<path d="M757.61 172.804C757.61 171.258 757.722 169.791 757.946 168.402C758.17 167.012 758.428 165.814 758.719 164.805C759.011 163.797 759.425 162.811 759.963 161.848C760.501 160.884 760.926 160.134 761.24 159.596C761.554 159.058 762.024 158.476 762.651 157.848C763.279 157.221 763.649 156.84 763.761 156.706C763.873 156.571 764.153 156.336 764.601 156H765.038H765.172C765.486 156 765.643 156.101 765.643 156.302C765.643 156.37 765.452 156.605 765.071 157.008C764.69 157.412 764.231 158.005 763.693 158.79C763.156 159.574 762.607 160.537 762.047 161.68C761.486 162.823 761.016 164.369 760.635 166.318C760.254 168.267 760.064 170.429 760.064 172.804C760.064 175.179 760.254 177.33 760.635 179.257C761.016 181.184 761.475 182.741 762.013 183.929C762.551 185.116 763.1 186.08 763.66 186.819C764.22 187.558 764.69 188.152 765.071 188.6C765.452 189.048 765.643 189.284 765.643 189.306C765.643 189.508 765.475 189.609 765.139 189.609H765.038H764.601L763.66 188.802C761.554 186.897 760.019 184.522 759.055 181.677C758.092 178.831 757.61 175.874 757.61 172.804Z" fill="black"/>
<path d="M789.908 172.905C789.863 172.972 789.706 174.328 789.437 176.972C789.169 179.616 789.012 180.982 788.967 181.072V181.206H779.321C774.392 181.206 771.524 181.206 770.718 181.206C769.911 181.206 769.485 181.15 769.44 181.038V181.005C769.373 180.87 769.373 180.747 769.44 180.635L769.978 179.996C770.337 179.593 770.874 178.988 771.591 178.182C772.308 177.375 772.992 176.602 773.641 175.863L777.775 171.157L769.407 159.562L769.373 159.092C769.373 158.666 769.429 158.409 769.541 158.319C769.608 158.274 772.868 158.252 779.321 158.252H788.967V158.386C789.012 158.498 789.169 159.787 789.437 162.251C789.706 164.716 789.863 166.027 789.908 166.183V166.318H788.564V166.183C788.384 164.884 788.138 163.808 787.824 162.957C787.511 162.106 787.006 161.411 786.312 160.873C785.64 160.403 784.732 160.111 783.59 159.999C782.447 159.887 780.822 159.82 778.716 159.798H777.406H773.877L777.372 164.604C777.843 165.254 778.425 166.06 779.12 167.024C780.352 168.726 780.968 169.645 780.968 169.779C780.968 169.824 780.957 169.858 780.935 169.88L772.7 179.291C778.369 179.291 781.439 179.279 781.909 179.257C782.985 179.212 783.881 179.1 784.598 178.921C785.315 178.742 785.797 178.574 786.043 178.417C786.289 178.26 786.558 178.036 786.85 177.745C787.298 177.252 787.667 176.591 787.959 175.762C788.25 174.933 788.429 174.227 788.496 173.644L788.564 172.771H789.908V172.905Z" fill="black"/>
<path d="M793.807 156.034L793.941 156C794.053 156 794.165 156 794.277 156H794.68L795.621 156.807C797.728 158.711 799.262 161.086 800.226 163.932C801.189 166.777 801.671 169.735 801.671 172.804C801.671 174.328 801.559 175.795 801.335 177.207C801.111 178.619 800.853 179.817 800.562 180.803C800.271 181.789 799.856 182.775 799.318 183.761C798.781 184.746 798.355 185.497 798.041 186.012C797.728 186.528 797.268 187.099 796.663 187.726C796.058 188.354 795.7 188.723 795.588 188.836C795.476 188.948 795.218 189.16 794.815 189.474C794.748 189.541 794.703 189.586 794.68 189.609H794.277C794.098 189.609 793.975 189.609 793.907 189.609C793.84 189.609 793.784 189.575 793.739 189.508C793.695 189.44 793.661 189.34 793.639 189.205C793.661 189.183 793.784 189.037 794.008 188.768C797.481 185.161 799.218 179.84 799.218 172.804C799.218 165.769 797.481 160.448 794.008 156.84C793.784 156.571 793.661 156.426 793.639 156.403C793.639 156.224 793.695 156.101 793.807 156.034Z" fill="black"/>
<path d="M1026.67 291L1021.67 288.113L1021.67 293.887L1026.67 291ZM816.671 291L816.671 291.5L1022.17 291.5L1022.17 291L1022.17 290.5L816.671 290.5L816.671 291Z" fill="black"/>
<path d="M821.671 265.037C821.671 262.993 822.373 261.27 823.776 259.866C825.18 258.463 826.793 257.761 828.615 257.761H829.132C831.225 257.761 833.047 258.537 834.598 260.088L835.374 258.943C835.497 258.771 835.62 258.586 835.743 258.389C835.866 258.192 835.989 258.032 836.112 257.909L836.223 257.761C836.248 257.761 836.297 257.761 836.371 257.761C836.445 257.761 836.519 257.749 836.592 257.724H836.74C836.814 257.724 836.925 257.798 837.073 257.946V266.699L836.851 266.921H836.186C835.915 266.921 835.755 266.884 835.706 266.81C835.657 266.736 835.595 266.49 835.521 266.071C835.103 262.969 833.859 260.913 831.791 259.903C830.88 259.509 829.957 259.312 829.021 259.312C827.716 259.312 826.657 259.755 825.845 260.642C825.032 261.528 824.626 262.563 824.626 263.744C824.626 264.582 824.835 265.345 825.254 266.034C825.672 266.724 826.263 267.278 827.026 267.696C827.273 267.795 828.331 268.078 830.203 268.546C832.074 269.014 833.108 269.297 833.305 269.395C834.709 269.937 835.854 270.86 836.74 272.165C837.627 273.47 838.082 274.985 838.107 276.708C838.107 278.703 837.467 280.5 836.186 282.101C834.906 283.701 833.096 284.514 830.757 284.539C829.378 284.539 828.147 284.329 827.063 283.911C825.98 283.492 825.229 283.11 824.81 282.766L824.146 282.249C824.047 282.372 823.862 282.618 823.592 282.987C823.321 283.357 823.074 283.701 822.853 284.021C822.631 284.342 822.52 284.514 822.52 284.539C822.471 284.563 822.348 284.575 822.151 284.575H822.003C821.93 284.575 821.819 284.502 821.671 284.354V280.033C821.671 277.102 821.683 275.613 821.708 275.563C821.757 275.44 822.003 275.379 822.447 275.379H822.927C823.074 275.527 823.148 275.687 823.148 275.859C823.148 276.647 823.271 277.422 823.518 278.186C823.764 278.949 824.183 279.7 824.773 280.439C825.364 281.177 826.177 281.768 827.211 282.212C828.245 282.655 829.476 282.876 830.905 282.876C832.062 282.876 833.059 282.409 833.896 281.473C834.733 280.537 835.152 279.392 835.152 278.038C835.152 276.979 834.881 276.019 834.339 275.157C833.798 274.295 833.084 273.704 832.197 273.384C830.818 273.04 829.907 272.806 829.464 272.683C829.341 272.658 829.009 272.584 828.467 272.461C827.925 272.338 827.519 272.239 827.248 272.165C826.977 272.092 826.583 271.956 826.066 271.759C825.549 271.562 825.143 271.341 824.847 271.094C824.552 270.848 824.195 270.553 823.776 270.208C823.358 269.863 823.025 269.432 822.779 268.915C822.04 267.709 821.671 266.416 821.671 265.037Z" fill="black"/>
<path d="M840.581 277.152V274.455H850.406V277.152H840.581Z" fill="black"/>
<path d="M853.804 267.401C853.829 267.278 853.952 265.862 854.173 263.153C854.395 260.445 854.506 259.054 854.506 258.98V258.758H877.073V258.98C877.097 259.103 877.22 260.519 877.442 263.227C877.664 265.936 877.774 267.327 877.774 267.401V267.623H876.297V267.401C876.297 267.352 876.26 266.921 876.186 266.108C876.112 265.296 875.977 264.483 875.78 263.671C875.583 262.858 875.324 262.255 875.004 261.861C874.586 261.344 873.909 260.95 872.973 260.679C872.456 260.556 871.508 260.494 870.129 260.494H869.132H868.836C868.196 260.494 867.839 260.642 867.765 260.937C867.741 260.987 867.728 264.422 867.728 271.242V281.436C867.901 281.682 868.221 281.842 868.689 281.916C869.156 281.99 870.252 282.039 871.976 282.064H873.084V283.763H872.604L865.808 283.652C861.499 283.701 859.233 283.738 859.012 283.763H858.532V282.064H859.64C861.363 282.064 862.459 282.027 862.927 281.953C863.395 281.879 863.715 281.707 863.887 281.436V271.242V263.449C863.887 261.725 863.825 260.802 863.702 260.679C863.579 260.556 863.173 260.494 862.484 260.494H861.486H860.748C859.024 260.494 857.731 260.851 856.87 261.565C856.426 261.959 856.106 262.538 855.909 263.301C855.712 264.065 855.564 264.902 855.466 265.813C855.368 266.724 855.306 267.253 855.281 267.401V267.623H853.804V267.401Z" fill="black"/>
<path d="M880.471 282.064H880.988C881.948 282.064 882.527 281.892 882.724 281.547V281.251C882.724 281.03 882.724 280.747 882.724 280.402C882.724 280.057 882.736 279.675 882.761 279.257C882.785 278.838 882.785 278.358 882.761 277.816C882.736 277.275 882.736 276.758 882.761 276.265C882.761 275.502 882.761 274.689 882.761 273.828C882.761 272.966 882.761 272.239 882.761 271.648L882.724 270.799C882.65 270.331 882.477 270.023 882.207 269.876C881.936 269.728 881.382 269.617 880.544 269.543H879.88V268.694C879.88 268.127 879.904 267.844 879.954 267.844L880.323 267.807C880.569 267.783 880.914 267.758 881.357 267.733C881.8 267.709 882.243 267.684 882.687 267.659C883.081 267.635 883.512 267.61 883.979 267.586C884.447 267.561 884.804 267.524 885.05 267.475C885.297 267.426 885.432 267.413 885.457 267.438H885.568V269.986C886.528 268.312 887.722 267.475 889.15 267.475H889.372C890.48 267.475 891.292 267.746 891.809 268.287C892.327 268.829 892.585 269.395 892.585 269.986C892.585 270.503 892.425 270.947 892.105 271.316C891.785 271.685 891.317 271.87 890.701 271.87C890.086 271.87 889.63 271.673 889.335 271.279C889.039 270.885 888.879 270.466 888.855 270.023C888.855 269.802 888.879 269.605 888.929 269.432C888.978 269.26 889.039 269.112 889.113 268.989C889.187 268.866 889.224 268.804 889.224 268.804C889.175 268.755 888.892 268.804 888.375 268.952C887.981 269.149 887.685 269.334 887.488 269.506C886.331 270.614 885.752 272.818 885.752 276.117V278.075C885.752 278.395 885.752 278.727 885.752 279.072C885.752 279.417 885.752 279.737 885.752 280.032C885.752 280.328 885.765 280.574 885.789 280.771C885.814 280.968 885.814 281.153 885.789 281.325V281.51C885.814 281.559 885.851 281.608 885.9 281.658C885.949 281.707 886.011 281.744 886.085 281.768C886.158 281.793 886.22 281.83 886.269 281.879C886.319 281.928 886.405 281.953 886.528 281.953C886.651 281.953 886.737 281.965 886.786 281.99C886.836 282.015 886.946 282.027 887.119 282.027C887.291 282.027 887.402 282.027 887.451 282.027C887.5 282.027 887.624 282.039 887.821 282.064C888.018 282.089 888.141 282.089 888.19 282.064H889.335V283.763H889.002C888.559 283.689 886.996 283.652 884.312 283.652C881.776 283.652 880.397 283.689 880.175 283.763H879.88V282.064H880.471Z" fill="black"/>
<path d="M898.679 272.498C898.679 272.498 898.408 272.498 897.867 272.498C897.325 272.498 896.869 272.313 896.5 271.944C896.131 271.575 895.946 271.094 895.946 270.503C895.946 269.642 896.365 268.878 897.202 268.213C898.039 267.549 899.529 267.216 901.671 267.216C903.468 267.216 904.921 267.61 906.029 268.398C907.137 269.186 907.876 270.122 908.245 271.205C908.368 271.55 908.43 271.932 908.43 272.35C908.43 272.769 908.442 274.185 908.467 276.598V279.183C908.467 280.365 908.528 281.177 908.652 281.621C908.775 282.064 909.033 282.286 909.427 282.286C909.797 282.286 910.043 282.089 910.166 281.695C910.289 281.301 910.351 280.648 910.351 279.737V278.407H911.828V279.848C911.803 280.833 911.766 281.411 911.717 281.584C911.495 282.322 911.065 282.901 910.424 283.32C909.784 283.738 909.107 283.96 908.393 283.984C907.679 284.009 907.1 283.788 906.657 283.32C906.214 282.852 905.918 282.335 905.771 281.768V281.621L905.697 281.731C905.648 281.805 905.586 281.879 905.512 281.953C905.438 282.027 905.34 282.138 905.217 282.286C905.094 282.433 904.946 282.569 904.773 282.692C904.601 282.815 904.416 282.963 904.219 283.135C904.022 283.307 903.801 283.443 903.555 283.541C903.308 283.64 903.038 283.738 902.742 283.837C902.447 283.935 902.126 284.009 901.782 284.058C901.437 284.108 901.055 284.145 900.637 284.169C899.159 284.169 897.83 283.788 896.648 283.024C895.466 282.261 894.875 281.19 894.875 279.811C894.875 279.294 894.961 278.801 895.134 278.334C895.306 277.866 895.638 277.361 896.131 276.819C896.623 276.277 897.214 275.822 897.904 275.453C898.593 275.083 899.553 274.739 900.785 274.418C902.016 274.098 903.37 273.914 904.847 273.864H905.364V273.052C905.364 272.215 905.291 271.599 905.143 271.205C904.601 269.457 903.407 268.583 901.56 268.583C901.117 268.583 900.698 268.595 900.304 268.62C899.91 268.644 899.603 268.694 899.381 268.767C899.159 268.841 899.061 268.878 899.086 268.878C899.627 269.248 899.898 269.789 899.898 270.503C899.898 271.119 899.701 271.599 899.307 271.944L898.679 272.498ZM898.273 279.848C898.273 280.611 898.568 281.288 899.159 281.879C899.75 282.47 900.477 282.778 901.339 282.803C902.274 282.803 903.099 282.519 903.813 281.953C904.527 281.387 905.007 280.648 905.254 279.737C905.303 279.565 905.34 278.752 905.364 277.299C905.364 275.871 905.352 275.157 905.327 275.157C905.13 275.157 904.872 275.169 904.552 275.194C904.232 275.219 903.678 275.33 902.89 275.526C902.102 275.723 901.388 275.97 900.748 276.265C900.107 276.561 899.541 277.016 899.049 277.632C898.556 278.247 898.298 278.986 898.273 279.848Z" fill="black"/>
<path d="M913.601 282.064H914.118C915.078 282.064 915.657 281.892 915.854 281.547V281.251C915.854 281.03 915.854 280.747 915.854 280.402C915.854 280.057 915.854 279.675 915.854 279.257C915.854 278.838 915.866 278.358 915.891 277.816C915.915 277.275 915.915 276.758 915.891 276.265C915.891 275.502 915.891 274.689 915.891 273.828C915.891 272.966 915.878 272.239 915.854 271.648V270.799C915.78 270.331 915.608 270.023 915.337 269.876C915.066 269.728 914.512 269.617 913.675 269.543H913.01V268.694C913.01 268.127 913.034 267.844 913.084 267.844L913.453 267.807C913.699 267.783 914.044 267.758 914.487 267.733C914.93 267.709 915.386 267.684 915.854 267.659C916.272 267.635 916.716 267.61 917.183 267.586C917.651 267.561 918.008 267.524 918.255 267.475C918.501 267.426 918.636 267.413 918.661 267.438H918.772V268.915C918.772 269.851 918.784 270.319 918.809 270.319C918.833 270.319 918.895 270.257 918.993 270.134C919.092 270.011 919.239 269.826 919.436 269.58C919.633 269.334 919.867 269.112 920.138 268.915C920.409 268.718 920.766 268.484 921.209 268.213C921.652 267.943 922.12 267.746 922.613 267.623C923.105 267.499 923.733 267.438 924.496 267.438C927.303 267.536 928.867 268.928 929.187 271.611C929.212 271.784 929.224 273.495 929.224 276.745V279.922C929.224 280.857 929.249 281.411 929.298 281.584C929.347 281.756 929.483 281.879 929.704 281.953C930.221 282.027 930.825 282.064 931.514 282.064H932.105V283.763H931.809L930.923 283.726C930.357 283.701 929.741 283.689 929.076 283.689C928.411 283.689 927.944 283.677 927.673 283.652C925.137 283.652 923.758 283.689 923.536 283.763H923.241V282.064H923.832C925.334 282.064 926.085 281.867 926.085 281.473C926.109 281.424 926.122 279.725 926.122 276.376C926.097 273.052 926.072 271.291 926.048 271.094C925.9 270.405 925.654 269.888 925.309 269.543C924.964 269.198 924.669 268.989 924.423 268.915C924.176 268.841 923.856 268.817 923.462 268.841C922.354 268.841 921.382 269.26 920.544 270.097C919.88 270.762 919.461 271.439 919.289 272.129C919.116 272.818 919.018 273.84 918.993 275.194V277.558V279.774C918.993 280.513 919.006 281.005 919.03 281.251C919.055 281.498 919.092 281.658 919.141 281.731C919.19 281.805 919.301 281.879 919.473 281.953C919.99 282.027 920.594 282.064 921.283 282.064H921.874V283.763H921.579L920.729 283.726C920.138 283.701 919.51 283.689 918.845 283.689C918.181 283.689 917.713 283.677 917.442 283.652C914.906 283.652 913.527 283.689 913.305 283.763H913.01V282.064H913.601Z" fill="black"/>
<path d="M943.518 272.092C943.518 271.107 943.185 270.257 942.52 269.543C941.856 268.829 940.895 268.472 939.64 268.472C938.753 268.472 937.99 268.632 937.35 268.952C936.611 269.42 936.242 270.06 936.242 270.873C936.217 270.996 936.217 271.156 936.242 271.353C936.266 271.55 936.463 271.845 936.833 272.239C937.202 272.633 937.731 272.941 938.421 273.163C938.864 273.286 939.406 273.397 940.046 273.495C940.686 273.594 941.228 273.704 941.671 273.828C942.114 273.951 942.508 274.111 942.853 274.308C943.271 274.505 943.678 274.751 944.072 275.046C944.466 275.342 944.86 275.847 945.254 276.561C945.648 277.275 945.857 278.038 945.882 278.851C945.882 280.377 945.414 281.633 944.478 282.618C943.542 283.603 942.028 284.108 939.935 284.132H939.64C938.359 284.132 937.177 283.689 936.094 282.803L935.798 283.061L935.466 283.394C935.318 283.541 935.171 283.677 935.023 283.8L934.617 284.169H934.321H934.173C934.099 284.169 933.989 284.095 933.841 283.948V281.03V278.888C933.841 278.37 933.866 278.063 933.915 277.964C933.964 277.866 934.087 277.804 934.284 277.78H934.617C934.912 277.78 935.109 277.829 935.207 277.927C935.306 278.026 935.368 278.173 935.392 278.37C935.417 278.567 935.503 278.9 935.651 279.368C935.798 279.836 936.032 280.353 936.352 280.919C937.214 282.175 938.408 282.803 939.935 282.803C942.323 282.803 943.518 281.842 943.518 279.922C943.518 279.208 943.296 278.629 942.853 278.186C942.36 277.595 941.339 277.152 939.787 276.856C938.236 276.561 937.214 276.277 936.722 276.007C935.835 275.588 935.134 275.022 934.617 274.308C934.099 273.594 933.841 272.83 933.841 272.018C933.841 271.057 934.05 270.245 934.469 269.58C934.887 268.915 935.417 268.423 936.057 268.103C936.697 267.783 937.313 267.561 937.904 267.438C938.495 267.315 939.036 267.253 939.529 267.253H939.935C940.92 267.253 941.782 267.438 942.52 267.807L943.074 268.103L943.407 267.844C943.653 267.623 943.924 267.413 944.219 267.216H944.515H944.663C944.737 267.216 944.847 267.29 944.995 267.438V272.313L944.773 272.535H943.739C943.592 272.387 943.518 272.239 943.518 272.092Z" fill="black"/>
<path d="M957.257 283.763C956.814 283.689 955.251 283.652 952.567 283.652C950.03 283.652 948.652 283.689 948.43 283.763H948.135V282.064H948.725C949.415 282.064 950.018 282.027 950.535 281.953C950.732 281.879 950.88 281.744 950.978 281.547C951.003 281.498 951.015 279.478 951.015 275.49V269.543H948.393V267.844H951.015V265.406L951.052 262.932L951.126 262.563C951.594 260.962 952.382 259.805 953.49 259.091C954.598 258.377 955.768 257.933 956.999 257.761C957.023 257.761 957.134 257.761 957.331 257.761C957.528 257.761 957.701 257.749 957.848 257.724C958.858 257.798 959.621 258.118 960.138 258.684C960.655 259.251 960.914 259.891 960.914 260.605C960.914 261.171 960.741 261.627 960.397 261.972C960.052 262.316 959.597 262.489 959.03 262.489C958.464 262.489 958.008 262.316 957.664 261.972C957.319 261.627 957.147 261.171 957.147 260.605C957.147 260.113 957.368 259.62 957.811 259.128H957.664C957.565 259.103 957.43 259.091 957.257 259.091C956.568 259.091 955.952 259.349 955.411 259.866C954.869 260.383 954.45 261.061 954.155 261.898C954.007 262.39 953.921 263.56 953.896 265.406V267.844H957.996V269.543H954.007V275.453C954.007 279.442 954.019 281.461 954.044 281.51C954.069 281.559 954.106 281.608 954.155 281.658C954.204 281.707 954.266 281.744 954.34 281.768C954.413 281.793 954.475 281.83 954.524 281.879C954.573 281.928 954.66 281.953 954.783 281.953C954.906 281.953 954.992 281.965 955.041 281.99C955.091 282.015 955.201 282.027 955.374 282.027C955.546 282.027 955.657 282.027 955.706 282.027C955.755 282.027 955.878 282.039 956.075 282.064C956.272 282.089 956.396 282.089 956.445 282.064H957.59V283.763H957.257Z" fill="black"/>
<path d="M959.51 275.859C959.51 273.52 960.311 271.501 961.911 269.802C963.512 268.103 965.444 267.241 967.71 267.216C969.926 267.216 971.834 268.053 973.435 269.728C975.035 271.402 975.848 273.434 975.872 275.822C975.872 278.161 975.084 280.131 973.508 281.731C971.933 283.332 970 284.132 967.71 284.132C965.321 284.132 963.364 283.307 961.837 281.658C960.311 280.008 959.535 278.075 959.51 275.859ZM967.71 282.655C970.714 282.655 972.216 280.648 972.216 276.635V275.453V274.529C972.216 273.988 972.203 273.52 972.179 273.126C972.154 272.732 972.068 272.264 971.92 271.722C971.773 271.181 971.576 270.737 971.329 270.393C971.083 270.048 970.701 269.703 970.184 269.358C969.667 269.014 969.064 268.767 968.375 268.62C968.251 268.595 968.054 268.583 967.784 268.583C967.045 268.583 966.343 268.731 965.678 269.026C964.62 269.568 963.93 270.319 963.61 271.279C963.29 272.239 963.13 273.372 963.13 274.677V275.416C963.13 277.78 963.364 279.442 963.832 280.402C964.62 281.904 965.912 282.655 967.71 282.655Z" fill="black"/>
<path d="M978.273 282.064H978.79C979.75 282.064 980.329 281.892 980.526 281.547V281.251C980.526 281.03 980.526 280.747 980.526 280.402C980.526 280.057 980.538 279.675 980.563 279.257C980.588 278.838 980.588 278.358 980.563 277.816C980.538 277.275 980.538 276.758 980.563 276.265C980.563 275.502 980.563 274.689 980.563 273.828C980.563 272.966 980.563 272.239 980.563 271.648L980.526 270.799C980.452 270.331 980.28 270.023 980.009 269.876C979.738 269.728 979.184 269.617 978.347 269.543H977.682V268.694C977.682 268.127 977.707 267.844 977.756 267.844L978.125 267.807C978.372 267.783 978.716 267.758 979.159 267.733C979.603 267.709 980.046 267.684 980.489 267.659C980.883 267.635 981.314 267.61 981.782 267.586C982.25 267.561 982.607 267.524 982.853 267.475C983.099 267.426 983.235 267.413 983.259 267.438H983.37V269.986C984.33 268.312 985.524 267.475 986.953 267.475H987.174C988.282 267.475 989.095 267.746 989.612 268.287C990.129 268.829 990.388 269.395 990.388 269.986C990.388 270.503 990.227 270.947 989.907 271.316C989.587 271.685 989.119 271.87 988.504 271.87C987.888 271.87 987.433 271.673 987.137 271.279C986.842 270.885 986.682 270.466 986.657 270.023C986.657 269.802 986.682 269.605 986.731 269.432C986.78 269.26 986.842 269.112 986.916 268.989C986.99 268.866 987.026 268.804 987.026 268.804C986.977 268.755 986.694 268.804 986.177 268.952C985.783 269.149 985.488 269.334 985.291 269.506C984.133 270.614 983.555 272.818 983.555 276.117V278.075C983.555 278.395 983.555 278.727 983.555 279.072C983.555 279.417 983.555 279.737 983.555 280.032C983.555 280.328 983.567 280.574 983.592 280.771C983.616 280.968 983.616 281.153 983.592 281.325V281.51C983.616 281.559 983.653 281.608 983.702 281.658C983.752 281.707 983.813 281.744 983.887 281.768C983.961 281.793 984.022 281.83 984.072 281.879C984.121 281.928 984.207 281.953 984.33 281.953C984.453 281.953 984.54 281.965 984.589 281.99C984.638 282.015 984.749 282.027 984.921 282.027C985.094 282.027 985.204 282.027 985.254 282.027C985.303 282.027 985.426 282.039 985.623 282.064C985.82 282.089 985.943 282.089 985.992 282.064H987.137V283.763H986.805C986.362 283.689 984.798 283.652 982.114 283.652C979.578 283.652 978.199 283.689 977.978 283.763H977.682V282.064H978.273Z" fill="black"/>
<path d="M992.936 282.064H993.453C994.413 282.064 994.992 281.892 995.189 281.547V281.251C995.189 281.03 995.189 280.747 995.189 280.402C995.189 280.057 995.189 279.675 995.189 279.257C995.189 278.838 995.201 278.358 995.226 277.816C995.251 277.275 995.251 276.758 995.226 276.265C995.226 275.502 995.226 274.689 995.226 273.828C995.226 272.966 995.214 272.239 995.189 271.648V270.799C995.115 270.331 994.943 270.023 994.672 269.876C994.401 269.728 993.847 269.617 993.01 269.543H992.345V268.694C992.345 268.127 992.37 267.844 992.419 267.844L992.788 267.807C993.034 267.783 993.379 267.758 993.822 267.733C994.266 267.709 994.721 267.684 995.189 267.659C995.608 267.635 996.051 267.61 996.519 267.586C996.986 267.561 997.343 267.524 997.59 267.475C997.836 267.426 997.971 267.413 997.996 267.438H998.107V268.915C998.107 269.851 998.119 270.319 998.144 270.319C998.168 270.319 998.23 270.257 998.328 270.134C998.427 270.011 998.575 269.826 998.772 269.58C998.969 269.334 999.203 269.112 999.473 268.915C999.744 268.718 1000.1 268.484 1000.54 268.213C1000.99 267.943 1001.46 267.746 1001.95 267.623C1002.44 267.499 1003.07 267.438 1003.83 267.438C1004.2 267.438 1004.55 267.462 1004.87 267.512C1005.19 267.561 1005.47 267.635 1005.72 267.733C1005.96 267.832 1006.2 267.93 1006.42 268.029C1006.64 268.127 1006.82 268.238 1006.97 268.361C1007.12 268.484 1007.25 268.62 1007.38 268.767C1007.5 268.915 1007.61 269.051 1007.71 269.174C1007.81 269.297 1007.89 269.432 1007.97 269.58C1008.04 269.728 1008.09 269.851 1008.12 269.949C1008.14 270.048 1008.18 270.146 1008.23 270.245L1008.3 270.43L1008.41 270.282C1008.49 270.183 1008.56 270.085 1008.63 269.986C1008.71 269.888 1008.82 269.752 1008.97 269.58C1009.11 269.408 1009.27 269.248 1009.45 269.1C1009.62 268.952 1009.8 268.792 1010 268.62C1010.2 268.447 1010.44 268.3 1010.74 268.177C1011.03 268.053 1011.32 267.93 1011.59 267.807C1011.86 267.684 1012.18 267.598 1012.55 267.549C1012.92 267.499 1013.3 267.462 1013.69 267.438C1016.8 267.438 1018.48 268.829 1018.75 271.611C1018.78 271.784 1018.79 273.495 1018.79 276.745V279.922C1018.79 280.857 1018.81 281.411 1018.86 281.584C1018.91 281.756 1019.05 281.879 1019.27 281.953C1019.79 282.027 1020.39 282.064 1021.08 282.064H1021.67V283.763H1021.38L1020.53 283.726C1019.94 283.701 1019.31 283.689 1018.64 283.689C1017.98 283.689 1017.51 283.677 1017.24 283.652C1014.7 283.652 1013.32 283.689 1013.1 283.763H1012.81V282.064H1013.4C1014.9 282.064 1015.65 281.867 1015.65 281.473C1015.68 281.424 1015.69 279.725 1015.69 276.376C1015.66 273.052 1015.64 271.291 1015.61 271.094C1015.47 270.405 1015.22 269.888 1014.88 269.543C1014.53 269.198 1014.23 268.989 1013.99 268.915C1013.74 268.841 1013.42 268.817 1013.03 268.841C1011.92 268.841 1010.95 269.26 1010.11 270.097C1009.45 270.762 1009.03 271.439 1008.85 272.129C1008.68 272.818 1008.58 273.84 1008.56 275.194V277.558V279.774C1008.56 280.513 1008.57 281.005 1008.6 281.251C1008.62 281.498 1008.66 281.658 1008.71 281.731C1008.76 281.805 1008.87 281.879 1009.04 281.953C1009.56 282.027 1010.16 282.064 1010.85 282.064H1011.44V283.763H1011.14L1010.26 283.726C1009.69 283.701 1009.08 283.689 1008.41 283.689C1007.75 283.689 1007.28 283.677 1007.01 283.652C1004.47 283.652 1003.09 283.689 1002.87 283.763H1002.58V282.064H1003.17C1004.67 282.064 1005.42 281.867 1005.42 281.473C1005.44 281.424 1005.46 279.725 1005.46 276.376C1005.43 273.052 1005.41 271.291 1005.38 271.094C1005.24 270.405 1004.99 269.888 1004.64 269.543C1004.3 269.198 1004 268.989 1003.76 268.915C1003.51 268.841 1003.19 268.817 1002.8 268.841C1001.69 268.841 1000.72 269.26 999.88 270.097C999.215 270.762 998.796 271.439 998.624 272.129C998.452 272.818 998.353 273.84 998.328 275.194V277.558V279.774C998.328 280.513 998.341 281.005 998.365 281.251C998.39 281.498 998.427 281.658 998.476 281.731C998.525 281.805 998.636 281.879 998.809 281.953C999.326 282.027 999.929 282.064 1000.62 282.064H1001.21V283.763H1000.91L1000.06 283.726C999.473 283.701 998.845 283.689 998.181 283.689C997.516 283.689 997.048 283.677 996.777 283.652C994.241 283.652 992.862 283.689 992.641 283.763H992.345V282.064H992.936Z" fill="black"/>
<path d="M1472.06 488.04C1457.95 490.176 1443.65 454.553 1440.12 408.474C1436.58 362.395 1445.15 323.309 1459.26 321.173" stroke="#3090FF" stroke-width="3" stroke-dasharray="6 6"/>
<path d="M1427.75 63.0924C1575.45 63.0926 1701.14 123.99 1746.13 208.939L1746.18 209.028L1746.21 209.124L1747.82 214.559C1751.88 223.554 1754.02 232.867 1754.02 242.408C1754.02 262.278 1744.75 281.127 1728.16 298.183C1711.57 315.235 1687.61 330.545 1658.08 343.381C1599.03 369.053 1517.51 384.908 1427.52 384.908C1337.53 384.908 1256.02 369.053 1196.96 343.381C1167.43 330.545 1143.47 315.235 1126.88 298.183C1110.29 281.127 1101.02 262.278 1101.02 242.408C1101.02 230.69 1104.24 219.318 1110.3 208.46L1112.68 203.007L1112.7 202.955L1112.73 202.904C1160.37 121.124 1283.57 63.0924 1427.75 63.0924ZM1428.38 212.675C1368.76 212.675 1318.07 237.275 1299.46 271.566C1318.07 305.857 1368.76 330.456 1428.38 330.456C1488 330.456 1538.7 305.856 1557.3 271.566C1538.7 237.275 1488 212.676 1428.38 212.675Z" fill="#D9D9D9" fill-opacity="0.3"/>
<path d="M1427.52 99.9075C1506.68 99.9076 1579.27 112.174 1635.79 132.597C1689.27 151.92 1728.55 178.618 1745.21 209.316L1746.13 208.94C1757.59 230.576 1763.81 253.773 1763.81 277.908C1763.81 337.41 1726.02 391.138 1665.21 429.941C1604.4 468.751 1520.44 492.723 1427.75 492.723C1335.07 492.723 1251.11 468.751 1190.29 429.941C1129.49 391.138 1091.7 337.41 1091.7 277.908C1091.7 251.512 1099.14 226.24 1112.73 202.905L1113.44 203.263C1132.4 174.13 1171.96 148.932 1224.55 130.72C1280.28 111.426 1350.82 99.9075 1427.52 99.9075ZM1428.38 212.676C1368.76 212.676 1318.07 237.275 1299.46 271.566C1318.07 305.856 1368.76 330.455 1428.38 330.455C1488 330.455 1538.7 305.856 1557.3 271.566C1538.7 237.275 1488 212.676 1428.38 212.676Z" fill="#82D5FF" fill-opacity="0.3"/>
<path d="M1427.52 383.908C1607.29 383.908 1753.02 320.556 1753.02 242.408C1753.02 232.998 1750.91 223.803 1746.88 214.908L1745.25 209.408C1700.5 124.918 1575.26 64.0924 1427.75 64.0924C1283.77 64.0924 1160.99 122.053 1113.6 203.408L1111.2 208.908C1105.2 219.647 1102.02 230.866 1102.02 242.408C1102.02 320.556 1247.75 383.908 1427.52 383.908Z" stroke="black" stroke-width="2"/>
<path d="M1427.75 491.723C1612.8 491.723 1762.81 395.994 1762.81 277.908C1762.81 253.95 1756.64 230.912 1745.25 209.408L1746.88 214.908C1717.43 149.922 1585.64 100.908 1427.52 100.908C1274.3 100.908 1145.81 146.929 1111.2 208.908L1113.6 203.408C1100.08 226.606 1092.7 251.706 1092.7 277.908C1092.7 395.994 1242.71 491.723 1427.75 491.723Z" stroke="black" stroke-width="2"/>
<path d="M1427.52 101.408C1517.35 101.408 1598.66 117.238 1657.48 142.811C1686.9 155.598 1710.67 170.811 1727.08 187.678C1743.49 204.543 1752.52 223.037 1752.52 242.408C1752.52 261.778 1743.49 280.272 1727.08 297.137C1710.67 314.005 1686.9 329.217 1657.48 342.004C1598.66 367.577 1517.35 383.408 1427.52 383.408C1337.69 383.408 1256.38 367.577 1197.56 342.004C1168.14 329.217 1144.37 314.005 1127.96 297.137C1111.55 280.272 1102.52 261.778 1102.52 242.408C1102.52 223.037 1111.55 204.543 1127.96 187.678C1144.37 170.811 1168.14 155.598 1197.56 142.811C1256.38 117.238 1337.69 101.408 1427.52 101.408Z" stroke="black"/>
<path d="M1292.11 248.01C1296.47 294.013 1355.81 330.455 1428.38 330.455C1501.42 330.455 1561.07 293.534 1564.73 247.104" stroke="black" stroke-width="2"/>
<path d="M1557.39 271.729C1538.86 237.353 1488.1 212.676 1428.38 212.676C1368.76 212.676 1318.07 237.275 1299.46 271.566" stroke="black" stroke-width="2"/>
<path d="M1459.15 319.677C1458.33 319.801 1457.72 320.571 1457.78 321.397C1457.84 322.223 1458.56 322.792 1459.38 322.668L1459.26 321.173L1459.15 319.677ZM1491.21 400.739L1489.72 400.963C1491.48 423.896 1490.22 445.03 1486.8 460.641C1485.09 468.457 1482.85 474.8 1480.24 479.278C1477.6 483.791 1474.77 486.116 1471.95 486.544L1472.06 488.04L1472.18 489.536C1476.4 488.896 1479.93 485.535 1482.77 480.678C1485.62 475.787 1487.95 469.078 1489.7 461.095C1493.21 445.109 1494.47 423.661 1492.69 400.514L1491.21 400.739ZM1459.26 321.173L1459.38 322.668C1462.2 322.24 1465.32 323.665 1468.58 327.287C1471.81 330.88 1474.96 336.408 1477.82 343.531C1483.53 357.759 1487.97 378.031 1489.72 400.963L1491.21 400.739L1492.69 400.514C1490.92 377.368 1486.43 356.788 1480.58 342.219C1477.66 334.943 1474.37 329.086 1470.84 325.161C1467.34 321.264 1463.37 319.037 1459.15 319.677L1459.26 321.173Z" fill="#3090FF"/>
<path d="M1471.77 407.176C1471.77 407.775 1472.36 408.124 1473.53 408.224C1473.99 408.224 1474.22 408.361 1474.22 408.635C1474.22 408.66 1474.2 408.822 1474.15 409.121C1474.07 409.47 1473.99 409.694 1473.92 409.794C1473.84 409.894 1473.67 409.944 1473.42 409.944C1473.37 409.944 1473.21 409.944 1472.96 409.944C1472.7 409.944 1472.27 409.931 1471.65 409.906C1471.04 409.881 1470.22 409.869 1469.2 409.869C1467.38 409.869 1466.22 409.894 1465.71 409.944H1465.4C1465.22 409.769 1465.14 409.632 1465.14 409.532C1465.19 408.859 1465.35 408.423 1465.63 408.224H1466.17C1467.96 408.149 1469.26 407.525 1470.08 406.354C1470.23 406.204 1472.55 402.402 1477.02 394.948C1481.49 387.494 1483.77 383.717 1483.85 383.617C1484.02 383.318 1484.33 383.168 1484.77 383.168H1485.07H1485.72C1485.88 383.392 1485.95 383.517 1485.95 383.542L1487.03 395.621C1487.74 403.674 1488.13 407.737 1488.18 407.812C1488.31 408.086 1489.14 408.224 1490.67 408.224C1491.31 408.224 1491.63 408.348 1491.63 408.597C1491.63 408.647 1491.59 408.822 1491.51 409.121C1491.44 409.495 1491.37 409.719 1491.32 409.794C1491.27 409.869 1491.09 409.919 1490.79 409.944C1490.71 409.944 1490.53 409.944 1490.25 409.944C1489.97 409.944 1489.47 409.931 1488.75 409.906C1488.04 409.881 1487.1 409.869 1485.95 409.869C1483.55 409.869 1481.98 409.894 1481.24 409.944H1480.78C1480.63 409.794 1480.55 409.682 1480.55 409.607C1480.55 409.532 1480.57 409.308 1480.63 408.934C1480.73 408.61 1480.8 408.411 1480.86 408.336L1481.01 408.224H1481.78C1483.16 408.149 1483.97 407.937 1484.23 407.588L1483.77 401.978H1474.64L1473.34 404.147C1472.29 405.868 1471.77 406.877 1471.77 407.176ZM1483.58 400.221C1483.58 399.946 1483.42 398.002 1483.12 394.387C1482.81 390.772 1482.63 388.952 1482.58 388.927L1481.55 390.535C1481.14 391.208 1480.33 392.542 1479.13 394.536L1475.68 400.221L1479.63 400.258C1482.26 400.258 1483.58 400.246 1483.58 400.221Z" fill="black"/>
<path d="M1736.45 148.911C1736.45 148.722 1736.57 148.542 1736.83 148.374H1747.14L1747.37 148.5C1747.58 148.795 1747.58 149.048 1747.37 149.259C1747.22 149.406 1746.85 149.48 1746.27 149.48C1745.62 149.543 1745.24 149.617 1745.13 149.702C1744.87 149.786 1744.73 149.976 1744.71 150.271C1744.69 150.566 1744.66 151.893 1744.61 154.254V158.269H1752.55V154.254C1752.55 153.79 1752.54 153.2 1752.52 152.484C1752.5 151.177 1752.47 150.408 1752.42 150.176C1752.38 149.944 1752.26 149.786 1752.07 149.702H1752.04C1751.91 149.617 1751.52 149.543 1750.87 149.48C1750.03 149.48 1749.6 149.301 1749.6 148.943C1749.6 148.795 1749.67 148.648 1749.8 148.5L1750.03 148.374H1760.33C1760.57 148.521 1760.69 148.7 1760.69 148.911C1760.69 149.291 1760.28 149.48 1759.46 149.48C1758.59 149.543 1758.09 149.712 1757.93 149.986C1757.89 150.113 1757.87 153.179 1757.87 159.186C1757.87 165.171 1757.89 168.216 1757.93 168.322C1758.09 168.617 1758.59 168.796 1759.46 168.859C1760.28 168.859 1760.69 169.059 1760.69 169.46C1760.69 169.671 1760.57 169.85 1760.33 169.997H1750.03L1749.8 169.871C1749.67 169.723 1749.6 169.576 1749.6 169.428C1749.6 169.049 1750.03 168.859 1750.87 168.859C1751.78 168.796 1752.28 168.617 1752.39 168.322C1752.5 168.069 1752.55 166.615 1752.55 163.959V159.755H1744.61V163.959C1744.61 166.699 1744.67 168.153 1744.77 168.322C1744.88 168.617 1745.38 168.796 1746.27 168.859C1746.81 168.859 1747.17 168.933 1747.37 169.081C1747.56 169.312 1747.56 169.576 1747.37 169.871L1747.14 169.997H1736.83C1736.57 169.871 1736.45 169.692 1736.45 169.46C1736.45 169.059 1736.87 168.859 1737.71 168.859C1738.6 168.796 1739.09 168.617 1739.2 168.322C1739.31 168.153 1739.36 165.108 1739.36 159.186C1739.36 153.263 1739.31 150.197 1739.2 149.986C1739.07 149.712 1738.57 149.543 1737.71 149.48C1736.87 149.48 1736.45 149.291 1736.45 148.911ZM1743.54 159.186V152.484C1743.54 150.755 1743.61 149.754 1743.74 149.48H1740.24C1740.3 149.628 1740.35 149.733 1740.37 149.796C1740.39 149.86 1740.41 150.228 1740.43 150.903C1740.45 151.577 1740.47 152.484 1740.5 153.622C1740.52 154.76 1740.52 156.614 1740.5 159.186C1740.5 163.611 1740.49 166.267 1740.46 167.152C1740.44 168.037 1740.38 168.585 1740.27 168.796C1740.25 168.817 1740.24 168.838 1740.24 168.859H1743.74C1743.61 168.606 1743.54 167.616 1743.54 165.888V159.186ZM1756.7 159.186V154.507C1756.7 153.263 1756.7 152.347 1756.7 151.756C1756.7 151.166 1756.71 150.703 1756.73 150.365C1756.76 150.028 1756.78 149.828 1756.8 149.765C1756.82 149.702 1756.86 149.607 1756.93 149.48H1753.4L1753.56 149.765C1753.65 150.06 1753.69 153.2 1753.69 159.186C1753.69 163.632 1753.68 166.299 1753.66 167.184C1753.63 168.069 1753.56 168.606 1753.43 168.796C1753.41 168.817 1753.4 168.838 1753.4 168.859H1756.93C1756.86 168.733 1756.83 168.659 1756.83 168.638C1756.83 168.617 1756.81 168.48 1756.77 168.227C1756.72 167.974 1756.7 167.668 1756.7 167.31C1756.7 166.952 1756.7 166.362 1756.7 165.54V159.186Z" fill="black"/>
<path d="M1765.97 173.139C1765.97 173.497 1766.33 173.705 1767.03 173.765C1767.3 173.765 1767.44 173.847 1767.44 174.011C1767.44 174.026 1767.43 174.123 1767.39 174.301C1767.35 174.51 1767.3 174.644 1767.26 174.704C1767.21 174.763 1767.11 174.793 1766.96 174.793C1766.93 174.793 1766.84 174.793 1766.68 174.793C1766.53 174.793 1766.27 174.786 1765.91 174.771C1765.54 174.756 1765.05 174.748 1764.44 174.748C1763.35 174.748 1762.66 174.763 1762.35 174.793H1762.17C1762.06 174.689 1762.01 174.607 1762.01 174.547C1762.04 174.145 1762.14 173.884 1762.31 173.765H1762.63C1763.7 173.72 1764.48 173.348 1764.97 172.647C1765.06 172.558 1766.44 170.286 1769.11 165.83C1771.79 161.375 1773.15 159.118 1773.19 159.058C1773.3 158.879 1773.48 158.79 1773.74 158.79H1773.93H1774.32C1774.41 158.924 1774.45 158.999 1774.45 159.014L1775.09 166.233C1775.52 171.046 1775.75 173.474 1775.78 173.519C1775.86 173.683 1776.35 173.765 1777.27 173.765C1777.65 173.765 1777.84 173.839 1777.84 173.988C1777.84 174.018 1777.82 174.123 1777.78 174.301C1777.73 174.525 1777.69 174.659 1777.66 174.704C1777.63 174.748 1777.52 174.778 1777.34 174.793C1777.29 174.793 1777.19 174.793 1777.02 174.793C1776.85 174.793 1776.55 174.786 1776.13 174.771C1775.7 174.756 1775.14 174.748 1774.45 174.748C1773.02 174.748 1772.08 174.763 1771.63 174.793H1771.36C1771.27 174.704 1771.22 174.637 1771.22 174.592C1771.22 174.547 1771.24 174.413 1771.27 174.19C1771.33 173.996 1771.37 173.877 1771.41 173.832L1771.5 173.765H1771.96C1772.78 173.72 1773.27 173.594 1773.42 173.385L1773.15 170.032H1767.69L1766.91 171.329C1766.29 172.357 1765.97 172.96 1765.97 173.139ZM1773.03 168.982C1773.03 168.818 1772.94 167.656 1772.76 165.495C1772.57 163.335 1772.47 162.247 1772.44 162.232L1771.82 163.193C1771.57 163.595 1771.09 164.393 1770.37 165.585L1768.31 168.982L1770.67 169.004C1772.25 169.004 1773.03 168.997 1773.03 168.982Z" fill="black"/>
<path d="M1783.06 162.062C1783.06 160.608 1783.17 159.228 1783.39 157.921C1783.6 156.614 1783.85 155.487 1784.13 154.538C1784.41 153.59 1784.81 152.663 1785.33 151.756C1785.85 150.85 1786.26 150.144 1786.56 149.638C1786.87 149.133 1787.32 148.585 1787.93 147.994C1788.53 147.404 1788.89 147.046 1788.99 146.92C1789.1 146.793 1789.37 146.572 1789.8 146.256H1790.23H1790.36C1790.66 146.256 1790.81 146.351 1790.81 146.54C1790.81 146.603 1790.63 146.825 1790.26 147.204C1789.89 147.583 1789.45 148.142 1788.93 148.88C1788.41 149.617 1787.88 150.524 1787.34 151.598C1786.8 152.673 1786.35 154.127 1785.98 155.961C1785.61 157.795 1785.43 159.828 1785.43 162.062C1785.43 164.296 1785.61 166.32 1785.98 168.132C1786.35 169.945 1786.79 171.409 1787.31 172.526C1787.83 173.643 1788.36 174.55 1788.9 175.245C1789.44 175.941 1789.89 176.499 1790.26 176.921C1790.63 177.342 1790.81 177.563 1790.81 177.584C1790.81 177.774 1790.65 177.869 1790.32 177.869H1790.23H1789.8L1788.9 177.11C1786.87 175.319 1785.39 173.085 1784.46 170.408C1783.53 167.732 1783.06 164.95 1783.06 162.062Z" fill="black"/>
<path d="M1814.21 162.157C1814.17 162.22 1814.02 163.495 1813.76 165.982C1813.5 168.469 1813.35 169.755 1813.3 169.839V169.966H1804C1799.25 169.966 1796.48 169.966 1795.7 169.966C1794.93 169.966 1794.52 169.913 1794.47 169.808V169.776C1794.41 169.65 1794.41 169.534 1794.47 169.428L1794.99 168.828C1795.34 168.448 1795.86 167.879 1796.55 167.12C1797.24 166.362 1797.9 165.635 1798.52 164.939L1802.51 160.513L1794.44 149.607L1794.41 149.164C1794.41 148.764 1794.46 148.521 1794.57 148.437C1794.63 148.395 1797.78 148.374 1804 148.374H1813.3V148.5C1813.35 148.606 1813.5 149.817 1813.76 152.136C1814.02 154.454 1814.17 155.687 1814.21 155.835V155.961H1812.91V155.835C1812.74 154.612 1812.5 153.601 1812.2 152.8C1811.9 151.999 1811.41 151.345 1810.74 150.84C1810.09 150.397 1809.22 150.123 1808.12 150.018C1807.02 149.912 1805.45 149.849 1803.42 149.828H1802.15H1798.75L1802.12 154.349C1802.58 154.96 1803.14 155.719 1803.81 156.625C1805 158.227 1805.59 159.091 1805.59 159.217C1805.59 159.259 1805.58 159.291 1805.56 159.312L1797.62 168.164C1803.08 168.164 1806.04 168.153 1806.5 168.132C1807.53 168.09 1808.4 167.985 1809.09 167.816C1809.78 167.647 1810.25 167.489 1810.48 167.342C1810.72 167.194 1810.98 166.983 1811.26 166.71C1811.69 166.246 1812.05 165.624 1812.33 164.844C1812.61 164.065 1812.79 163.401 1812.85 162.853L1812.91 162.031H1814.21V162.157Z" fill="black"/>
<path d="M1817.97 146.287L1818.1 146.256C1818.21 146.256 1818.32 146.256 1818.42 146.256H1818.81L1819.72 147.014C1821.75 148.806 1823.23 151.04 1824.16 153.716C1825.09 156.393 1825.56 159.175 1825.56 162.062C1825.56 163.495 1825.45 164.876 1825.23 166.204C1825.02 167.531 1824.77 168.659 1824.49 169.586C1824.2 170.514 1823.81 171.441 1823.29 172.368C1822.77 173.296 1822.36 174.002 1822.05 174.486C1821.75 174.971 1821.31 175.509 1820.73 176.099C1820.14 176.689 1819.8 177.037 1819.69 177.142C1819.58 177.247 1819.33 177.447 1818.94 177.743C1818.88 177.806 1818.84 177.848 1818.81 177.869H1818.42C1818.25 177.869 1818.13 177.869 1818.07 177.869C1818 177.869 1817.95 177.837 1817.91 177.774C1817.86 177.711 1817.83 177.616 1817.81 177.49C1817.83 177.469 1817.95 177.332 1818.17 177.079C1821.51 173.686 1823.19 168.68 1823.19 162.062C1823.19 155.445 1821.51 150.439 1818.17 147.046C1817.95 146.793 1817.83 146.656 1817.81 146.635C1817.81 146.466 1817.86 146.351 1817.97 146.287Z" fill="black"/>
</svg>
