<svg width="1516" height="411" viewBox="0 0 1516 411" fill="none" xmlns="http://www.w3.org/2000/svg">
<path d="M153.567 309.613C227.022 404.895 430.97 339.691 446.012 220.241C446.022 220.164 446.031 220.086 446.041 220.009C446.054 219.905 446.066 219.802 446.079 219.698C460.386 101.379 279.894 -5.67957 183.392 64.1857C135.446 98.8974 113.37 158.396 118.135 216.172C120.893 249.609 132.641 282.468 153.567 309.613Z" fill="#D9D9D9" fill-opacity="0.3"/>
<path d="M446.012 220.241C430.97 339.691 227.022 404.895 153.567 309.613C132.641 282.468 120.893 249.609 118.135 216.172M446.012 220.241C446.035 220.06 446.057 219.879 446.079 219.698M446.012 220.241L446.079 219.698M118.32 216.618L118.135 216.172M118.135 216.172C113.37 158.396 135.446 98.8974 183.392 64.1857C279.894 -5.67957 460.386 101.379 446.079 219.698" stroke="black"/>
<path d="M118.345 216.064C121.657 204.916 206.392 188.047 285.089 190.981C346.387 193.267 443.276 210.768 446.037 219.687" stroke="#235BA4" stroke-dasharray="2 2"/>
<path d="M118.345 216.064C118.345 228.047 150.517 225.058 212.76 223.31C246.953 222.349 298.893 248.949 353.554 236.129C408.216 223.31 443.28 232.43 446.037 219.687" stroke="#235BA4"/>
<path d="M265.588 326.7C265.639 326.623 265.717 326.584 265.82 326.584H265.975H266.227C266.304 326.661 266.343 326.713 266.343 326.739C266.343 326.829 266.149 327.623 265.762 329.12C265.672 329.481 265.581 329.862 265.491 330.262C265.401 330.662 265.323 330.959 265.259 331.152L265.181 331.462C265.181 331.475 265.239 331.481 265.356 331.481C265.472 331.481 265.678 331.52 265.975 331.597C266.272 331.675 266.581 331.784 266.904 331.926C267.472 332.197 267.943 332.591 268.317 333.107C268.691 333.623 268.878 334.249 268.878 334.985C268.878 335.72 268.678 336.424 268.278 337.095C267.878 337.766 267.382 338.321 266.788 338.759C266.194 339.198 265.569 339.546 264.91 339.805C264.252 340.063 263.639 340.198 263.072 340.211H262.994L262.53 342.05C262.452 342.347 262.368 342.702 262.278 343.114C262.175 343.527 262.104 343.773 262.065 343.85C262.026 343.927 261.949 343.973 261.833 343.986H261.717C261.458 343.986 261.329 343.94 261.329 343.85C261.329 343.786 261.471 343.173 261.755 342.011L262.2 340.23C262.2 340.217 262.149 340.211 262.046 340.211C261.981 340.211 261.852 340.198 261.658 340.172C261.465 340.146 261.175 340.056 260.787 339.901C260.4 339.746 260.052 339.553 259.742 339.321C259.432 339.088 259.142 338.746 258.871 338.295C258.6 337.843 258.478 337.314 258.503 336.707C258.503 335.933 258.716 335.204 259.142 334.52C259.568 333.836 260.091 333.281 260.71 332.856C261.329 332.43 261.955 332.094 262.588 331.849C263.22 331.604 263.788 331.481 264.291 331.481C264.355 331.481 264.394 331.455 264.407 331.404L264.988 329.042C265.388 327.507 265.588 326.726 265.588 326.7ZM260.033 337.114C260.033 337.553 260.11 337.933 260.265 338.256C260.42 338.579 260.633 338.824 260.904 338.992C261.175 339.159 261.407 339.275 261.6 339.34C261.794 339.404 262.013 339.456 262.259 339.495H262.394L264.194 332.197C264.143 332.197 264.072 332.204 263.981 332.217C263.891 332.23 263.704 332.281 263.42 332.372C263.136 332.462 262.865 332.565 262.607 332.681C262.349 332.797 262.065 332.985 261.755 333.243C261.446 333.501 261.181 333.798 260.962 334.133C260.729 334.494 260.516 334.927 260.323 335.43C260.129 336.024 260.033 336.585 260.033 337.114ZM267.349 334.559C267.349 334.069 267.246 333.649 267.04 333.301C266.833 332.952 266.575 332.707 266.265 332.565C265.956 332.423 265.704 332.326 265.51 332.275C265.317 332.223 265.162 332.197 265.046 332.197H264.988L264.097 335.817L263.168 339.456C263.168 339.482 263.175 339.495 263.188 339.495C263.291 339.495 263.497 339.456 263.807 339.379C264.117 339.301 264.375 339.211 264.581 339.108C265.136 338.863 265.614 338.521 266.014 338.082C266.414 337.643 266.698 337.191 266.865 336.727C267.033 336.262 267.156 335.849 267.233 335.488C267.311 335.127 267.349 334.817 267.349 334.559Z" fill="black"/>
<path d="M271.027 335.178C271.027 334.288 271.092 333.443 271.221 332.643C271.35 331.843 271.498 331.152 271.666 330.571C271.834 329.991 272.072 329.423 272.382 328.868C272.692 328.313 272.937 327.881 273.118 327.571C273.298 327.261 273.569 326.926 273.931 326.565C274.292 326.203 274.505 325.984 274.569 325.907C274.634 325.829 274.795 325.694 275.053 325.5H275.305H275.382C275.563 325.5 275.653 325.558 275.653 325.674C275.653 325.713 275.544 325.848 275.324 326.081C275.105 326.313 274.84 326.655 274.531 327.107C274.221 327.558 273.905 328.113 273.582 328.771C273.259 329.429 272.989 330.32 272.769 331.442C272.55 332.565 272.44 333.81 272.44 335.178C272.44 336.546 272.55 337.785 272.769 338.895C272.989 340.005 273.253 340.901 273.563 341.585C273.872 342.269 274.189 342.824 274.511 343.25C274.834 343.676 275.105 344.018 275.324 344.276C275.544 344.534 275.653 344.669 275.653 344.682C275.653 344.798 275.556 344.857 275.363 344.857H275.305H275.053L274.511 344.392C273.298 343.295 272.414 341.927 271.859 340.288C271.304 338.65 271.027 336.946 271.027 335.178Z" fill="black"/>
<path d="M277.744 334.423C277.834 333.881 278.183 333.256 278.789 332.546C279.396 331.836 280.144 331.475 281.034 331.462C281.486 331.462 281.899 331.578 282.273 331.81C282.647 332.043 282.925 332.333 283.106 332.681C283.648 331.868 284.299 331.462 285.061 331.462C285.538 331.462 285.951 331.604 286.299 331.888C286.648 332.172 286.828 332.552 286.841 333.03C286.841 333.404 286.751 333.707 286.57 333.939C286.39 334.172 286.216 334.314 286.048 334.365C285.88 334.417 285.732 334.443 285.603 334.443C285.357 334.443 285.157 334.372 285.002 334.23C284.848 334.088 284.77 333.901 284.77 333.668C284.77 333.075 285.093 332.668 285.738 332.449C285.596 332.281 285.338 332.197 284.964 332.197C284.796 332.197 284.673 332.21 284.596 332.236C284.106 332.443 283.744 332.868 283.512 333.514C282.738 336.365 282.351 338.03 282.351 338.508C282.351 338.869 282.454 339.127 282.66 339.282C282.867 339.437 283.093 339.514 283.338 339.514C283.815 339.514 284.286 339.301 284.751 338.875C285.215 338.45 285.532 337.927 285.699 337.308C285.738 337.178 285.777 337.107 285.815 337.095C285.854 337.082 285.957 337.069 286.125 337.056H286.203C286.396 337.056 286.493 337.107 286.493 337.211C286.493 337.224 286.48 337.295 286.454 337.424C286.248 338.159 285.848 338.811 285.254 339.379C284.661 339.946 283.97 340.23 283.183 340.23C282.28 340.23 281.596 339.824 281.131 339.011C280.602 339.811 279.996 340.211 279.312 340.211H279.196C278.563 340.211 278.112 340.043 277.841 339.708C277.57 339.372 277.428 339.017 277.415 338.643C277.415 338.23 277.537 337.895 277.783 337.637C278.028 337.378 278.318 337.249 278.654 337.249C279.208 337.249 279.486 337.52 279.486 338.062C279.486 338.321 279.408 338.546 279.254 338.74C279.099 338.933 278.95 339.063 278.808 339.127C278.666 339.192 278.583 339.224 278.557 339.224L278.499 339.243C278.499 339.256 278.537 339.282 278.615 339.321C278.692 339.359 278.796 339.404 278.925 339.456C279.054 339.508 279.176 339.527 279.292 339.514C279.757 339.514 280.157 339.224 280.492 338.643C280.609 338.437 280.757 337.998 280.938 337.327C281.118 336.656 281.299 335.959 281.48 335.236C281.66 334.514 281.764 334.088 281.789 333.959C281.854 333.61 281.886 333.359 281.886 333.204C281.886 332.843 281.789 332.585 281.596 332.43C281.402 332.275 281.183 332.197 280.938 332.197C280.421 332.197 279.938 332.404 279.486 332.817C279.034 333.23 278.718 333.759 278.537 334.404C278.512 334.52 278.479 334.585 278.441 334.598C278.402 334.61 278.299 334.623 278.131 334.636H277.86C277.783 334.559 277.744 334.488 277.744 334.423Z" fill="black"/>
<path d="M288.971 325.519L289.048 325.5C289.113 325.5 289.177 325.5 289.242 325.5H289.474L290.016 325.965C291.229 327.061 292.113 328.429 292.668 330.068C293.223 331.707 293.5 333.41 293.5 335.178C293.5 336.056 293.435 336.901 293.306 337.714C293.177 338.527 293.029 339.217 292.861 339.785C292.693 340.353 292.455 340.921 292.145 341.489C291.835 342.056 291.59 342.489 291.409 342.785C291.229 343.082 290.964 343.411 290.616 343.773C290.267 344.134 290.061 344.347 289.996 344.411C289.932 344.476 289.784 344.598 289.551 344.779C289.513 344.818 289.487 344.844 289.474 344.857H289.242C289.138 344.857 289.067 344.857 289.029 344.857C288.99 344.857 288.958 344.837 288.932 344.798C288.906 344.76 288.887 344.702 288.874 344.624C288.887 344.611 288.958 344.528 289.087 344.373C291.087 342.295 292.087 339.23 292.087 335.178C292.087 331.126 291.087 328.062 289.087 325.984C288.958 325.829 288.887 325.745 288.874 325.732C288.874 325.629 288.906 325.558 288.971 325.519Z" fill="black"/>
<path d="M250 335C243.5 297.5 197.5 282 193.5 253.5C189.5 225 259 208 294 157.5C329 107 272.5 25.5 214.5 48.5" stroke="#235BA4" stroke-linecap="round"/>
<circle cx="250" cy="335" r="2.5" fill="black"/>
<path d="M556 220.308L551 217.421L551 223.194L556 220.308ZM480.5 220.308L480.5 220.808L551.5 220.808L551.5 220.308L551.5 219.808L480.5 219.808L480.5 220.308Z" fill="black"/>
<path d="M495.666 198.579C495.545 198.458 495.45 198.38 495.381 198.346C495.312 198.311 495.174 198.285 494.967 198.268C494.76 198.251 494.389 198.225 493.854 198.19H493V197H507.415V197.104C507.45 197.207 507.57 198.208 507.778 200.106C507.985 202.003 508.105 203.004 508.14 203.108V203.211H507.105V203.108C506.984 202.262 506.906 201.771 506.872 201.633C506.768 200.994 506.613 200.459 506.406 200.028C506.199 199.597 505.966 199.269 505.707 199.045C505.448 198.82 505.112 198.639 504.698 198.501C504.284 198.363 503.887 198.285 503.507 198.268C503.128 198.251 502.636 198.234 502.032 198.216H500.997H499.755C499.168 198.216 498.806 198.234 498.668 198.268C498.53 198.303 498.435 198.389 498.383 198.527C498.366 198.561 498.357 199.692 498.357 201.917V205.204H499.703C499.755 205.204 499.919 205.204 500.195 205.204C500.471 205.204 500.678 205.195 500.816 205.178C500.954 205.161 501.144 205.135 501.385 205.1C501.627 205.066 501.825 205.014 501.98 204.945C502.136 204.876 502.282 204.773 502.42 204.635C502.731 204.324 502.912 203.686 502.964 202.719V202.176H503.999V209.422H502.964V208.879C502.912 207.93 502.731 207.283 502.42 206.938C502.282 206.817 502.127 206.722 501.955 206.653C501.782 206.584 501.584 206.532 501.359 206.498C501.135 206.463 500.954 206.438 500.816 206.42C500.678 206.403 500.471 206.394 500.195 206.394C499.919 206.394 499.755 206.394 499.703 206.394H498.357V209.707L498.383 213.02C498.504 213.141 498.607 213.218 498.694 213.253C498.78 213.287 498.996 213.322 499.341 213.356C499.686 213.391 500.229 213.408 500.971 213.408H501.67V214.598H501.359C500.945 214.547 499.513 214.521 497.063 214.521C494.803 214.521 493.543 214.547 493.285 214.598H493V213.408H493.854C494.579 213.391 495.019 213.365 495.174 213.33C495.329 213.296 495.493 213.192 495.666 213.02V198.579Z" fill="black"/>
<path d="M519.165 213.097C518.199 214.271 517.103 214.857 515.878 214.857H515.697C513.54 214.857 512.298 214.003 511.97 212.295C511.953 212.174 511.936 210.992 511.918 208.75C511.901 206.869 511.892 205.816 511.892 205.592C511.892 205.368 511.841 205.187 511.737 205.049C511.565 204.773 511.047 204.635 510.184 204.635H509.9V204.039C509.9 203.643 509.917 203.444 509.951 203.444L510.236 203.418C510.409 203.401 510.659 203.384 510.987 203.366C511.314 203.349 511.642 203.332 511.97 203.315C512.263 203.297 512.583 203.28 512.928 203.263C513.273 203.246 513.531 203.22 513.704 203.185C513.877 203.151 513.98 203.142 514.015 203.159H514.092V207.844C514.109 211.018 514.135 212.718 514.17 212.942C514.222 213.201 514.342 213.408 514.532 213.563C514.877 213.805 515.395 213.926 516.085 213.926C516.534 213.926 516.939 213.848 517.301 213.693C517.664 213.537 517.94 213.339 518.13 213.097C518.319 212.856 518.492 212.58 518.647 212.269C518.802 211.959 518.906 211.7 518.958 211.493C519.009 211.286 519.044 211.079 519.061 210.872C519.061 210.854 519.061 210.708 519.061 210.432C519.061 210.156 519.07 209.811 519.087 209.397C519.104 208.982 519.104 208.577 519.087 208.18V206.446C519.087 205.653 519.001 205.161 518.828 204.971C518.656 204.781 518.224 204.669 517.534 204.635H517.068V203.444C517.103 203.444 517.759 203.401 519.035 203.315C520.312 203.228 520.994 203.177 521.08 203.159H521.261V207.766C521.261 210.872 521.27 212.45 521.287 212.502C521.339 212.847 521.459 213.072 521.649 213.175C521.839 213.279 522.227 213.356 522.814 213.408H523.28V214.598C523.245 214.598 522.598 214.642 521.339 214.728C520.079 214.814 519.415 214.866 519.346 214.883H519.165V213.097Z" fill="black"/>
<path d="M531.277 206.42C531.277 205.73 531.044 205.135 530.578 204.635C530.112 204.134 529.439 203.884 528.559 203.884C527.938 203.884 527.403 203.996 526.955 204.221C526.437 204.548 526.178 204.997 526.178 205.566C526.161 205.653 526.161 205.765 526.178 205.903C526.195 206.041 526.334 206.248 526.592 206.524C526.851 206.8 527.222 207.016 527.705 207.171C528.016 207.257 528.395 207.335 528.844 207.404C529.292 207.473 529.672 207.55 529.983 207.637C530.293 207.723 530.569 207.835 530.811 207.973C531.104 208.111 531.389 208.284 531.665 208.491C531.941 208.698 532.217 209.051 532.493 209.552C532.769 210.052 532.916 210.587 532.933 211.156C532.933 212.226 532.605 213.106 531.949 213.796C531.294 214.486 530.233 214.84 528.766 214.857H528.559C527.662 214.857 526.834 214.547 526.075 213.926L525.868 214.107L525.635 214.34C525.531 214.443 525.428 214.538 525.324 214.624L525.04 214.883H524.832H524.729C524.677 214.883 524.6 214.831 524.496 214.728V212.683V211.182C524.496 210.82 524.513 210.604 524.548 210.535C524.582 210.466 524.669 210.423 524.807 210.406H525.04C525.247 210.406 525.385 210.44 525.454 210.509C525.523 210.578 525.566 210.682 525.583 210.82C525.6 210.958 525.661 211.191 525.764 211.519C525.868 211.847 526.032 212.209 526.256 212.606C526.86 213.486 527.697 213.926 528.766 213.926C530.44 213.926 531.277 213.253 531.277 211.907C531.277 211.407 531.121 211.001 530.811 210.691C530.466 210.276 529.75 209.966 528.663 209.759C527.576 209.552 526.86 209.353 526.515 209.164C525.894 208.87 525.402 208.473 525.04 207.973C524.677 207.473 524.496 206.938 524.496 206.369C524.496 205.696 524.643 205.126 524.936 204.66C525.229 204.195 525.6 203.85 526.049 203.625C526.497 203.401 526.929 203.246 527.343 203.159C527.757 203.073 528.136 203.03 528.482 203.03H528.766C529.456 203.03 530.06 203.159 530.578 203.418L530.966 203.625L531.199 203.444C531.372 203.289 531.561 203.142 531.768 203.004H531.975H532.079C532.131 203.004 532.208 203.056 532.312 203.159V206.576L532.157 206.731H531.432C531.328 206.627 531.277 206.524 531.277 206.42Z" fill="black"/>
<path d="M534.563 208.957C534.563 208.008 534.736 207.145 535.081 206.369C535.426 205.592 535.857 204.962 536.375 204.479C536.893 203.996 537.453 203.634 538.057 203.392C538.661 203.151 539.23 203.021 539.765 203.004C540.68 203.004 541.465 203.159 542.12 203.47C542.776 203.781 543.276 204.212 543.621 204.764C543.967 205.316 544.208 205.868 544.346 206.42C544.484 206.972 544.562 207.585 544.579 208.258C544.579 208.379 544.519 208.499 544.398 208.62H537.1V209.008C537.1 211.562 537.962 213.115 539.688 213.667C540.033 213.77 540.412 213.822 540.826 213.822C541.551 213.822 542.172 213.546 542.69 212.994C542.983 212.701 543.216 212.338 543.389 211.907L543.647 211.286C543.699 211.234 543.837 211.208 544.061 211.208H544.139C544.432 211.208 544.579 211.294 544.579 211.467C544.579 211.536 544.553 211.648 544.501 211.803C544.174 212.752 543.63 213.503 542.871 214.055C542.112 214.607 541.258 214.883 540.309 214.883C538.67 214.883 537.307 214.288 536.22 213.097C535.133 211.907 534.581 210.527 534.563 208.957ZM542.457 207.481C542.267 205.273 541.448 204.1 539.998 203.962H539.946C539.808 203.962 539.67 203.97 539.532 203.988C539.394 204.005 539.179 204.074 538.885 204.195C538.592 204.315 538.342 204.497 538.135 204.738C537.928 204.98 537.729 205.333 537.54 205.799C537.35 206.265 537.212 206.834 537.126 207.507V207.688H542.457V207.481Z" fill="black"/>
<path d="M625.567 309.613C699.022 404.895 902.97 339.691 918.012 220.241C918.022 220.164 918.031 220.086 918.041 220.009C918.054 219.905 918.066 219.802 918.079 219.698C932.386 101.379 751.894 -5.67957 655.392 64.1857C607.446 98.8974 585.37 158.396 590.135 216.172C592.893 249.609 604.641 282.468 625.567 309.613Z" fill="#D9D9D9" fill-opacity="0.3"/>
<path d="M918.012 220.241C902.97 339.691 699.022 404.895 625.567 309.613C604.641 282.468 592.893 249.609 590.135 216.172M918.012 220.241C918.035 220.06 918.057 219.879 918.079 219.698M918.012 220.241L918.079 219.698M590.32 216.618L590.135 216.172M590.135 216.172C585.37 158.396 607.446 98.8974 655.392 64.1857C751.894 -5.67957 932.386 101.379 918.079 219.698" stroke="black"/>
<path d="M590.345 216.064C593.657 204.916 678.392 188.047 757.089 190.981C818.387 193.267 915.276 210.768 918.037 219.687" stroke="#235BA4" stroke-dasharray="2 2"/>
<path d="M590.345 216.064C590.345 228.047 622.517 225.058 684.76 223.31C685.626 223.285 686.504 223.279 687.393 223.289M918.037 219.687C915.28 232.43 880.216 223.31 825.554 236.129C774.345 248.14 700.578 247.111 666.5 245" stroke="#235BA4"/>
<path d="M737.588 326.7C737.639 326.623 737.717 326.584 737.82 326.584H737.975H738.227C738.304 326.661 738.343 326.713 738.343 326.739C738.343 326.829 738.149 327.623 737.762 329.12C737.672 329.481 737.581 329.862 737.491 330.262C737.401 330.662 737.323 330.959 737.259 331.152L737.181 331.462C737.181 331.475 737.239 331.481 737.356 331.481C737.472 331.481 737.678 331.52 737.975 331.597C738.272 331.675 738.581 331.784 738.904 331.926C739.472 332.197 739.943 332.591 740.317 333.107C740.691 333.623 740.878 334.249 740.878 334.985C740.878 335.72 740.678 336.424 740.278 337.095C739.878 337.766 739.382 338.321 738.788 338.759C738.194 339.198 737.569 339.546 736.91 339.805C736.252 340.063 735.639 340.198 735.072 340.211H734.994L734.53 342.05C734.452 342.347 734.368 342.702 734.278 343.114C734.175 343.527 734.104 343.773 734.065 343.85C734.026 343.927 733.949 343.973 733.833 343.986H733.717C733.458 343.986 733.329 343.94 733.329 343.85C733.329 343.786 733.471 343.173 733.755 342.011L734.2 340.23C734.2 340.217 734.149 340.211 734.046 340.211C733.981 340.211 733.852 340.198 733.658 340.172C733.465 340.146 733.175 340.056 732.787 339.901C732.4 339.746 732.052 339.553 731.742 339.321C731.432 339.088 731.142 338.746 730.871 338.295C730.6 337.843 730.478 337.314 730.503 336.707C730.503 335.933 730.716 335.204 731.142 334.52C731.568 333.836 732.091 333.281 732.71 332.856C733.329 332.43 733.955 332.094 734.588 331.849C735.22 331.604 735.788 331.481 736.291 331.481C736.355 331.481 736.394 331.455 736.407 331.404L736.988 329.042C737.388 327.507 737.588 326.726 737.588 326.7ZM732.033 337.114C732.033 337.553 732.11 337.933 732.265 338.256C732.42 338.579 732.633 338.824 732.904 338.992C733.175 339.159 733.407 339.275 733.6 339.34C733.794 339.404 734.013 339.456 734.259 339.495H734.394L736.194 332.197C736.143 332.197 736.072 332.204 735.981 332.217C735.891 332.23 735.704 332.281 735.42 332.372C735.136 332.462 734.865 332.565 734.607 332.681C734.349 332.797 734.065 332.985 733.755 333.243C733.446 333.501 733.181 333.798 732.962 334.133C732.729 334.494 732.516 334.927 732.323 335.43C732.129 336.024 732.033 336.585 732.033 337.114ZM739.349 334.559C739.349 334.069 739.246 333.649 739.04 333.301C738.833 332.952 738.575 332.707 738.265 332.565C737.956 332.423 737.704 332.326 737.51 332.275C737.317 332.223 737.162 332.197 737.046 332.197H736.988L736.097 335.817L735.168 339.456C735.168 339.482 735.175 339.495 735.188 339.495C735.291 339.495 735.497 339.456 735.807 339.379C736.117 339.301 736.375 339.211 736.581 339.108C737.136 338.863 737.614 338.521 738.014 338.082C738.414 337.643 738.698 337.191 738.865 336.727C739.033 336.262 739.156 335.849 739.233 335.488C739.311 335.127 739.349 334.817 739.349 334.559Z" fill="black"/>
<path d="M743.027 335.178C743.027 334.288 743.091 333.443 743.221 332.643C743.35 331.843 743.498 331.152 743.666 330.571C743.834 329.991 744.072 329.423 744.382 328.868C744.692 328.313 744.937 327.881 745.117 327.571C745.298 327.261 745.569 326.926 745.93 326.565C746.292 326.203 746.505 325.984 746.569 325.907C746.634 325.829 746.795 325.694 747.053 325.5H747.305H747.382C747.563 325.5 747.653 325.558 747.653 325.674C747.653 325.713 747.544 325.848 747.324 326.081C747.105 326.313 746.84 326.655 746.531 327.107C746.221 327.558 745.905 328.113 745.582 328.771C745.259 329.429 744.988 330.32 744.769 331.442C744.55 332.565 744.44 333.81 744.44 335.178C744.44 336.546 744.55 337.785 744.769 338.895C744.988 340.005 745.253 340.901 745.563 341.585C745.872 342.269 746.189 342.824 746.511 343.25C746.834 343.676 747.105 344.018 747.324 344.276C747.544 344.534 747.653 344.669 747.653 344.682C747.653 344.798 747.556 344.857 747.363 344.857H747.305H747.053L746.511 344.392C745.298 343.295 744.414 341.927 743.859 340.288C743.304 338.65 743.027 336.946 743.027 335.178Z" fill="black"/>
<path d="M749.744 334.423C749.834 333.881 750.182 333.256 750.789 332.546C751.395 331.836 752.144 331.475 753.034 331.462C753.486 331.462 753.899 331.578 754.273 331.81C754.647 332.043 754.925 332.333 755.105 332.681C755.647 331.868 756.299 331.462 757.061 331.462C757.538 331.462 757.951 331.604 758.299 331.888C758.648 332.172 758.828 332.552 758.841 333.03C758.841 333.404 758.751 333.707 758.57 333.939C758.39 334.172 758.215 334.314 758.048 334.365C757.88 334.417 757.732 334.443 757.602 334.443C757.357 334.443 757.157 334.372 757.002 334.23C756.848 334.088 756.77 333.901 756.77 333.668C756.77 333.075 757.093 332.668 757.738 332.449C757.596 332.281 757.338 332.197 756.964 332.197C756.796 332.197 756.673 332.21 756.596 332.236C756.106 332.443 755.744 332.868 755.512 333.514C754.738 336.365 754.351 338.03 754.351 338.508C754.351 338.869 754.454 339.127 754.66 339.282C754.867 339.437 755.093 339.514 755.338 339.514C755.815 339.514 756.286 339.301 756.751 338.875C757.215 338.45 757.532 337.927 757.699 337.308C757.738 337.178 757.777 337.107 757.815 337.095C757.854 337.082 757.957 337.069 758.125 337.056H758.203C758.396 337.056 758.493 337.107 758.493 337.211C758.493 337.224 758.48 337.295 758.454 337.424C758.248 338.159 757.848 338.811 757.254 339.379C756.66 339.946 755.97 340.23 755.183 340.23C754.28 340.23 753.596 339.824 753.131 339.011C752.602 339.811 751.996 340.211 751.312 340.211H751.195C750.563 340.211 750.112 340.043 749.841 339.708C749.57 339.372 749.428 339.017 749.415 338.643C749.415 338.23 749.537 337.895 749.782 337.637C750.028 337.378 750.318 337.249 750.653 337.249C751.208 337.249 751.486 337.52 751.486 338.062C751.486 338.321 751.408 338.546 751.254 338.74C751.099 338.933 750.95 339.063 750.808 339.127C750.666 339.192 750.583 339.224 750.557 339.224L750.499 339.243C750.499 339.256 750.537 339.282 750.615 339.321C750.692 339.359 750.795 339.404 750.924 339.456C751.054 339.508 751.176 339.527 751.292 339.514C751.757 339.514 752.157 339.224 752.492 338.643C752.609 338.437 752.757 337.998 752.938 337.327C753.118 336.656 753.299 335.959 753.48 335.236C753.66 334.514 753.763 334.088 753.789 333.959C753.854 333.61 753.886 333.359 753.886 333.204C753.886 332.843 753.789 332.585 753.596 332.43C753.402 332.275 753.183 332.197 752.938 332.197C752.421 332.197 751.937 332.404 751.486 332.817C751.034 333.23 750.718 333.759 750.537 334.404C750.512 334.52 750.479 334.585 750.441 334.598C750.402 334.61 750.299 334.623 750.131 334.636H749.86C749.782 334.559 749.744 334.488 749.744 334.423Z" fill="black"/>
<path d="M760.971 325.519L761.048 325.5C761.113 325.5 761.177 325.5 761.242 325.5H761.474L762.016 325.965C763.229 327.061 764.113 328.429 764.668 330.068C765.223 331.707 765.5 333.41 765.5 335.178C765.5 336.056 765.435 336.901 765.306 337.714C765.177 338.527 765.029 339.217 764.861 339.785C764.693 340.353 764.455 340.921 764.145 341.489C763.835 342.056 763.59 342.489 763.409 342.785C763.229 343.082 762.964 343.411 762.616 343.773C762.267 344.134 762.061 344.347 761.996 344.411C761.932 344.476 761.784 344.598 761.551 344.779C761.513 344.818 761.487 344.844 761.474 344.857H761.242C761.138 344.857 761.067 344.857 761.029 344.857C760.99 344.857 760.958 344.837 760.932 344.798C760.906 344.76 760.887 344.702 760.874 344.624C760.887 344.611 760.958 344.528 761.087 344.373C763.087 342.295 764.087 339.23 764.087 335.178C764.087 331.126 763.087 328.062 761.087 325.984C760.958 325.829 760.887 325.745 760.874 325.732C760.874 325.629 760.906 325.558 760.971 325.519Z" fill="black"/>
<path d="M722 335C715.5 297.5 669.5 282 665.5 253.5C665.086 250.551 665.459 247.724 666.5 244.972M686.5 48.5C744.5 25.5 801 107 766 157.5C744.31 188.796 709.485 207.226 687 223.5" stroke="#235BA4" stroke-linecap="round"/>
<path d="M687 223.5C676.957 230.769 669.283 237.608 666.5 244.972" stroke="#235BA4" stroke-width="0.5" stroke-linecap="round" stroke-dasharray="5 5"/>
<circle cx="722" cy="335" r="2.5" fill="black"/>
<path d="M1030 220.308L1025 217.421L1025 223.194L1030 220.308ZM954.5 220.308L954.5 220.808L1025.5 220.808L1025.5 220.308L1025.5 219.808L954.5 219.808L954.5 220.308Z" fill="black"/>
<path d="M959.5 202.312C959.517 202.227 959.602 201.25 959.755 199.381C959.908 197.512 959.984 196.552 959.984 196.501V196.348H975.557V196.501C975.574 196.586 975.659 197.563 975.812 199.432C975.965 201.301 976.041 202.261 976.041 202.312V202.465H975.022V202.312C975.022 202.278 974.996 201.981 974.945 201.42C974.894 200.859 974.801 200.299 974.665 199.738C974.529 199.177 974.35 198.761 974.13 198.489C973.841 198.132 973.373 197.86 972.728 197.673C972.371 197.588 971.717 197.546 970.765 197.546H970.077H969.873C969.431 197.546 969.185 197.648 969.134 197.852C969.117 197.886 969.109 200.256 969.109 204.963V211.997C969.228 212.167 969.448 212.277 969.771 212.328C970.094 212.379 970.85 212.413 972.04 212.43H972.804V213.603H972.473L967.783 213.526C964.81 213.56 963.247 213.586 963.094 213.603H962.762V212.43H963.527C964.716 212.43 965.472 212.405 965.795 212.354C966.118 212.303 966.339 212.184 966.458 211.997V204.963V199.585C966.458 198.396 966.415 197.758 966.331 197.673C966.246 197.588 965.965 197.546 965.489 197.546H964.801H964.292C963.102 197.546 962.21 197.792 961.615 198.285C961.31 198.557 961.089 198.956 960.953 199.483C960.817 200.01 960.715 200.587 960.647 201.216C960.579 201.845 960.536 202.21 960.519 202.312V202.465H959.5V202.312Z" fill="black"/>
<path d="M979.278 204.224C979.176 204.054 979.057 203.952 978.921 203.918C978.785 203.884 978.479 203.841 978.003 203.79H977.443V202.618H977.596L978.08 202.643C978.403 202.643 978.751 202.652 979.125 202.669C979.499 202.686 979.771 202.694 979.94 202.694C981.47 202.694 982.362 202.669 982.617 202.618H982.82V203.79H982.464C981.818 203.824 981.495 203.969 981.495 204.224C981.495 204.241 981.869 205.336 982.617 207.511L983.738 210.723L985.624 205.243L985.471 204.81C985.301 204.317 985.157 204.028 985.038 203.943C984.902 203.858 984.579 203.807 984.069 203.79H983.56V202.618H983.713C983.814 202.669 984.528 202.694 985.853 202.694C987.4 202.694 988.3 202.669 988.555 202.618H988.733V203.79H988.504C987.689 203.79 987.281 203.926 987.281 204.198C987.281 204.249 987.4 204.631 987.638 205.345C987.875 206.059 988.139 206.823 988.428 207.639C988.716 208.454 988.988 209.228 989.243 209.958L989.626 211.054L990.67 208.021C991.384 205.948 991.741 204.861 991.741 204.759C991.741 204.487 991.613 204.266 991.359 204.096C991.104 203.926 990.815 203.824 990.492 203.79H990.288V202.618H990.467C990.67 202.669 991.478 202.694 992.888 202.694C994.043 202.694 994.672 202.669 994.774 202.618H994.901V203.79H994.748C994.731 203.79 994.68 203.79 994.595 203.79C994.511 203.79 994.434 203.799 994.366 203.816C993.567 203.935 993.032 204.359 992.76 205.09L991.231 209.499C991.01 210.128 990.747 210.893 990.441 211.793C990.101 212.796 989.889 213.39 989.804 213.577C989.719 213.764 989.583 213.866 989.396 213.883H989.192C988.869 213.883 988.674 213.824 988.606 213.705C988.589 213.688 988.173 212.524 987.357 210.213L986.185 206.798C986.151 206.866 985.344 209.168 983.764 213.705C983.679 213.824 983.483 213.883 983.177 213.883H983.05C982.829 213.883 982.676 213.815 982.591 213.679L979.278 204.224Z" fill="black"/>
<path d="M997.144 198.081C997.144 197.605 997.297 197.232 997.603 196.96C997.909 196.688 998.283 196.552 998.724 196.552C999.115 196.586 999.455 196.73 999.744 196.985C1000.03 197.24 1000.18 197.605 1000.18 198.081C1000.18 198.591 1000.03 198.973 999.744 199.228C999.455 199.483 999.098 199.61 998.673 199.61C998.249 199.61 997.892 199.483 997.603 199.228C997.314 198.973 997.161 198.591 997.144 198.081ZM1001.68 213.603C1001.43 213.552 1000.54 213.526 999.03 213.526C998.843 213.526 998.529 213.526 998.087 213.526C997.646 213.526 997.221 213.543 996.813 213.577L996.252 213.603H996.048V212.43H996.456C996.932 212.43 997.348 212.405 997.705 212.354C997.858 212.286 997.951 212.193 997.985 212.074C998.019 211.955 998.036 211.598 998.036 211.003V208.378V206.135C998.036 205.252 998.019 204.691 997.985 204.453C997.951 204.215 997.832 204.054 997.629 203.969C997.391 203.85 996.991 203.79 996.431 203.79H996.15V203.204C996.15 202.813 996.167 202.618 996.201 202.618L996.456 202.592C996.626 202.575 996.864 202.558 997.17 202.541C997.476 202.524 997.781 202.507 998.087 202.49C998.376 202.473 998.682 202.456 999.005 202.439C999.328 202.423 999.574 202.397 999.744 202.363C999.914 202.329 1000.01 202.321 1000.02 202.338H1000.1V212.023C1000.19 212.193 1000.29 212.294 1000.41 212.328C1000.53 212.362 1000.82 212.396 1001.3 212.43H1001.88V213.603H1001.68Z" fill="black"/>
<path d="M1009.99 205.549C1009.99 204.869 1009.76 204.283 1009.3 203.79C1008.84 203.298 1008.18 203.051 1007.31 203.051C1006.7 203.051 1006.18 203.162 1005.73 203.382C1005.22 203.705 1004.97 204.147 1004.97 204.708C1004.95 204.793 1004.95 204.903 1004.97 205.039C1004.99 205.175 1005.12 205.379 1005.38 205.651C1005.63 205.923 1006 206.135 1006.47 206.288C1006.78 206.373 1007.15 206.449 1007.59 206.517C1008.04 206.585 1008.41 206.662 1008.72 206.747C1009.02 206.832 1009.29 206.942 1009.53 207.078C1009.82 207.214 1010.1 207.384 1010.37 207.588C1010.64 207.792 1010.92 208.14 1011.19 208.633C1011.46 209.126 1011.6 209.652 1011.62 210.213C1011.62 211.266 1011.3 212.133 1010.65 212.813C1010.01 213.492 1008.96 213.841 1007.52 213.858H1007.31C1006.43 213.858 1005.61 213.552 1004.87 212.94L1004.66 213.119L1004.43 213.348C1004.33 213.45 1004.23 213.543 1004.13 213.628L1003.85 213.883H1003.64H1003.54C1003.49 213.883 1003.41 213.832 1003.31 213.73V211.717V210.238C1003.31 209.882 1003.33 209.669 1003.36 209.601C1003.4 209.533 1003.48 209.491 1003.62 209.474H1003.85C1004.05 209.474 1004.19 209.508 1004.26 209.576C1004.32 209.644 1004.37 209.746 1004.38 209.882C1004.4 210.018 1004.46 210.247 1004.56 210.57C1004.66 210.893 1004.82 211.249 1005.05 211.64C1005.64 212.507 1006.46 212.94 1007.52 212.94C1009.17 212.94 1009.99 212.277 1009.99 210.952C1009.99 210.459 1009.84 210.06 1009.53 209.754C1009.19 209.346 1008.49 209.041 1007.42 208.837C1006.34 208.633 1005.64 208.437 1005.3 208.251C1004.69 207.962 1004.2 207.571 1003.85 207.078C1003.49 206.585 1003.31 206.059 1003.31 205.498C1003.31 204.835 1003.46 204.275 1003.75 203.816C1004.03 203.357 1004.4 203.017 1004.84 202.796C1005.28 202.575 1005.71 202.422 1006.12 202.338C1006.52 202.253 1006.9 202.21 1007.24 202.21H1007.52C1008.2 202.21 1008.79 202.338 1009.3 202.592L1009.68 202.796L1009.91 202.618C1010.08 202.465 1010.27 202.321 1010.47 202.185H1010.68H1010.78C1010.83 202.185 1010.91 202.236 1011.01 202.338V205.702L1010.86 205.855H1010.14C1010.04 205.753 1009.99 205.651 1009.99 205.549Z" fill="black"/>
<path d="M1013.2 202.847C1014.1 202.779 1014.8 202.304 1015.29 201.42C1015.78 200.536 1016.06 199.5 1016.11 198.311V197.928H1017.13V202.618H1020.57V203.79H1017.13V207.46C1017.14 209.584 1017.15 210.782 1017.15 211.054C1017.15 211.326 1017.21 211.598 1017.33 211.87C1017.57 212.532 1017.98 212.864 1018.58 212.864C1019.33 212.864 1019.79 212.26 1019.96 211.054C1019.97 210.918 1019.98 210.527 1019.98 209.882V208.99H1021V209.882V210.187C1021 211.496 1020.64 212.49 1019.93 213.169C1019.47 213.628 1018.88 213.858 1018.15 213.858C1017.57 213.858 1017.07 213.756 1016.64 213.552C1016.22 213.348 1015.89 213.085 1015.67 212.762C1015.45 212.439 1015.29 212.141 1015.19 211.87C1015.09 211.598 1015.03 211.326 1015.01 211.054C1014.99 210.935 1014.99 209.678 1014.99 207.282V203.79H1012.97V202.847H1013.2Z" fill="black"/>
<path d="M1196.5 54.5L1196.5 349" stroke="black" stroke-dasharray="2 2"/>
<path d="M1100.57 309.613C1174.02 404.895 1377.97 339.691 1393.01 220.241C1393.02 220.164 1393.03 220.086 1393.04 220.009C1393.05 219.905 1393.07 219.802 1393.08 219.698C1407.39 101.379 1226.89 -5.67957 1130.39 64.1857C1082.45 98.8974 1060.37 158.396 1065.14 216.172C1067.89 249.609 1079.64 282.468 1100.57 309.613Z" fill="#D9D9D9" fill-opacity="0.3"/>
<path d="M1393.01 220.241C1377.97 339.691 1174.02 404.895 1100.57 309.613C1079.64 282.468 1067.89 249.609 1065.14 216.172M1393.01 220.241C1393.03 220.06 1393.06 219.879 1393.08 219.698M1393.01 220.241L1393.08 219.698M1065.32 216.618L1065.14 216.172M1065.14 216.172C1060.37 158.396 1082.45 98.8974 1130.39 64.1857C1226.89 -5.67957 1407.39 101.379 1393.08 219.698" stroke="black"/>
<path d="M1212.59 326.7C1212.64 326.623 1212.72 326.584 1212.82 326.584H1212.97H1213.23C1213.3 326.661 1213.34 326.713 1213.34 326.739C1213.34 326.829 1213.15 327.623 1212.76 329.12C1212.67 329.481 1212.58 329.862 1212.49 330.262C1212.4 330.662 1212.32 330.959 1212.26 331.152L1212.18 331.462C1212.18 331.475 1212.24 331.481 1212.36 331.481C1212.47 331.481 1212.68 331.52 1212.97 331.597C1213.27 331.675 1213.58 331.784 1213.9 331.926C1214.47 332.197 1214.94 332.591 1215.32 333.107C1215.69 333.623 1215.88 334.249 1215.88 334.985C1215.88 335.72 1215.68 336.424 1215.28 337.095C1214.88 337.766 1214.38 338.321 1213.79 338.759C1213.19 339.198 1212.57 339.546 1211.91 339.805C1211.25 340.063 1210.64 340.198 1210.07 340.211H1209.99L1209.53 342.05C1209.45 342.347 1209.37 342.702 1209.28 343.114C1209.17 343.527 1209.1 343.773 1209.06 343.85C1209.03 343.927 1208.95 343.973 1208.83 343.986H1208.72C1208.46 343.986 1208.33 343.94 1208.33 343.85C1208.33 343.786 1208.47 343.173 1208.76 342.011L1209.2 340.23C1209.2 340.217 1209.15 340.211 1209.05 340.211C1208.98 340.211 1208.85 340.198 1208.66 340.172C1208.46 340.146 1208.17 340.056 1207.79 339.901C1207.4 339.746 1207.05 339.553 1206.74 339.321C1206.43 339.088 1206.14 338.746 1205.87 338.295C1205.6 337.843 1205.48 337.314 1205.5 336.707C1205.5 335.933 1205.72 335.204 1206.14 334.52C1206.57 333.836 1207.09 333.281 1207.71 332.856C1208.33 332.43 1208.96 332.094 1209.59 331.849C1210.22 331.604 1210.79 331.481 1211.29 331.481C1211.36 331.481 1211.39 331.455 1211.41 331.404L1211.99 329.042C1212.39 327.507 1212.59 326.726 1212.59 326.7ZM1207.03 337.114C1207.03 337.553 1207.11 337.933 1207.26 338.256C1207.42 338.579 1207.63 338.824 1207.9 338.992C1208.17 339.159 1208.41 339.275 1208.6 339.34C1208.79 339.404 1209.01 339.456 1209.26 339.495H1209.39L1211.19 332.197C1211.14 332.197 1211.07 332.204 1210.98 332.217C1210.89 332.23 1210.7 332.281 1210.42 332.372C1210.14 332.462 1209.87 332.565 1209.61 332.681C1209.35 332.797 1209.06 332.985 1208.76 333.243C1208.45 333.501 1208.18 333.798 1207.96 334.133C1207.73 334.494 1207.52 334.927 1207.32 335.43C1207.13 336.024 1207.03 336.585 1207.03 337.114ZM1214.35 334.559C1214.35 334.069 1214.25 333.649 1214.04 333.301C1213.83 332.952 1213.58 332.707 1213.27 332.565C1212.96 332.423 1212.7 332.326 1212.51 332.275C1212.32 332.223 1212.16 332.197 1212.05 332.197H1211.99L1211.1 335.817L1210.17 339.456C1210.17 339.482 1210.17 339.495 1210.19 339.495C1210.29 339.495 1210.5 339.456 1210.81 339.379C1211.12 339.301 1211.37 339.211 1211.58 339.108C1212.14 338.863 1212.61 338.521 1213.01 338.082C1213.41 337.643 1213.7 337.191 1213.87 336.727C1214.03 336.262 1214.16 335.849 1214.23 335.488C1214.31 335.127 1214.35 334.817 1214.35 334.559Z" fill="black"/>
<path d="M1218.03 335.178C1218.03 334.288 1218.09 333.443 1218.22 332.643C1218.35 331.843 1218.5 331.152 1218.67 330.571C1218.83 329.991 1219.07 329.423 1219.38 328.868C1219.69 328.313 1219.94 327.881 1220.12 327.571C1220.3 327.261 1220.57 326.926 1220.93 326.565C1221.29 326.203 1221.5 325.984 1221.57 325.907C1221.63 325.829 1221.8 325.694 1222.05 325.5H1222.3H1222.38C1222.56 325.5 1222.65 325.558 1222.65 325.674C1222.65 325.713 1222.54 325.848 1222.32 326.081C1222.1 326.313 1221.84 326.655 1221.53 327.107C1221.22 327.558 1220.9 328.113 1220.58 328.771C1220.26 329.429 1219.99 330.32 1219.77 331.442C1219.55 332.565 1219.44 333.81 1219.44 335.178C1219.44 336.546 1219.55 337.785 1219.77 338.895C1219.99 340.005 1220.25 340.901 1220.56 341.585C1220.87 342.269 1221.19 342.824 1221.51 343.25C1221.83 343.676 1222.1 344.018 1222.32 344.276C1222.54 344.534 1222.65 344.669 1222.65 344.682C1222.65 344.798 1222.56 344.857 1222.36 344.857H1222.3H1222.05L1221.51 344.392C1220.3 343.295 1219.41 341.927 1218.86 340.288C1218.3 338.65 1218.03 336.946 1218.03 335.178Z" fill="black"/>
<path d="M1224.74 334.423C1224.83 333.881 1225.18 333.256 1225.79 332.546C1226.4 331.836 1227.14 331.475 1228.03 331.462C1228.49 331.462 1228.9 331.578 1229.27 331.81C1229.65 332.043 1229.92 332.333 1230.11 332.681C1230.65 331.868 1231.3 331.462 1232.06 331.462C1232.54 331.462 1232.95 331.604 1233.3 331.888C1233.65 332.172 1233.83 332.552 1233.84 333.03C1233.84 333.404 1233.75 333.707 1233.57 333.939C1233.39 334.172 1233.22 334.314 1233.05 334.365C1232.88 334.417 1232.73 334.443 1232.6 334.443C1232.36 334.443 1232.16 334.372 1232 334.23C1231.85 334.088 1231.77 333.901 1231.77 333.668C1231.77 333.075 1232.09 332.668 1232.74 332.449C1232.6 332.281 1232.34 332.197 1231.96 332.197C1231.8 332.197 1231.67 332.21 1231.6 332.236C1231.11 332.443 1230.74 332.868 1230.51 333.514C1229.74 336.365 1229.35 338.03 1229.35 338.508C1229.35 338.869 1229.45 339.127 1229.66 339.282C1229.87 339.437 1230.09 339.514 1230.34 339.514C1230.82 339.514 1231.29 339.301 1231.75 338.875C1232.22 338.45 1232.53 337.927 1232.7 337.308C1232.74 337.178 1232.78 337.107 1232.82 337.095C1232.85 337.082 1232.96 337.069 1233.13 337.056H1233.2C1233.4 337.056 1233.49 337.107 1233.49 337.211C1233.49 337.224 1233.48 337.295 1233.45 337.424C1233.25 338.159 1232.85 338.811 1232.25 339.379C1231.66 339.946 1230.97 340.23 1230.18 340.23C1229.28 340.23 1228.6 339.824 1228.13 339.011C1227.6 339.811 1227 340.211 1226.31 340.211H1226.2C1225.56 340.211 1225.11 340.043 1224.84 339.708C1224.57 339.372 1224.43 339.017 1224.41 338.643C1224.41 338.23 1224.54 337.895 1224.78 337.637C1225.03 337.378 1225.32 337.249 1225.65 337.249C1226.21 337.249 1226.49 337.52 1226.49 338.062C1226.49 338.321 1226.41 338.546 1226.25 338.74C1226.1 338.933 1225.95 339.063 1225.81 339.127C1225.67 339.192 1225.58 339.224 1225.56 339.224L1225.5 339.243C1225.5 339.256 1225.54 339.282 1225.61 339.321C1225.69 339.359 1225.8 339.404 1225.92 339.456C1226.05 339.508 1226.18 339.527 1226.29 339.514C1226.76 339.514 1227.16 339.224 1227.49 338.643C1227.61 338.437 1227.76 337.998 1227.94 337.327C1228.12 336.656 1228.3 335.959 1228.48 335.236C1228.66 334.514 1228.76 334.088 1228.79 333.959C1228.85 333.61 1228.89 333.359 1228.89 333.204C1228.89 332.843 1228.79 332.585 1228.6 332.43C1228.4 332.275 1228.18 332.197 1227.94 332.197C1227.42 332.197 1226.94 332.404 1226.49 332.817C1226.03 333.23 1225.72 333.759 1225.54 334.404C1225.51 334.52 1225.48 334.585 1225.44 334.598C1225.4 334.61 1225.3 334.623 1225.13 334.636H1224.86C1224.78 334.559 1224.74 334.488 1224.74 334.423Z" fill="black"/>
<path d="M1235.97 325.519L1236.05 325.5C1236.11 325.5 1236.18 325.5 1236.24 325.5H1236.47L1237.02 325.965C1238.23 327.061 1239.11 328.429 1239.67 330.068C1240.22 331.707 1240.5 333.41 1240.5 335.178C1240.5 336.056 1240.44 336.901 1240.31 337.714C1240.18 338.527 1240.03 339.217 1239.86 339.785C1239.69 340.353 1239.45 340.921 1239.14 341.489C1238.84 342.056 1238.59 342.489 1238.41 342.785C1238.23 343.082 1237.96 343.411 1237.62 343.773C1237.27 344.134 1237.06 344.347 1237 344.411C1236.93 344.476 1236.78 344.598 1236.55 344.779C1236.51 344.818 1236.49 344.844 1236.47 344.857H1236.24C1236.14 344.857 1236.07 344.857 1236.03 344.857C1235.99 344.857 1235.96 344.837 1235.93 344.798C1235.91 344.76 1235.89 344.702 1235.87 344.624C1235.89 344.611 1235.96 344.528 1236.09 344.373C1238.09 342.295 1239.09 339.23 1239.09 335.178C1239.09 331.126 1238.09 328.062 1236.09 325.984C1235.96 325.829 1235.89 325.745 1235.87 325.732C1235.87 325.629 1235.91 325.558 1235.97 325.519Z" fill="black"/>
<path d="M1197 335C1221.66 267.546 1282.17 255.318 1295 182C1305.5 122 1219.5 25.5 1161.5 48.5" stroke="#235BA4" stroke-linecap="round"/>
<circle cx="1197" cy="335" r="2.5" fill="black"/>
<path d="M1196.5 53.5C1197.12 53.5 1197.65 53.6508 1198.01 53.8682C1198.38 54.0915 1198.5 54.3304 1198.5 54.5C1198.5 54.6696 1198.38 54.9085 1198.01 55.1318C1197.65 55.3492 1197.12 55.5 1196.5 55.5C1195.88 55.5 1195.35 55.3492 1194.99 55.1318C1194.62 54.9085 1194.5 54.6696 1194.5 54.5C1194.5 54.3304 1194.62 54.0915 1194.99 53.8682C1195.35 53.6508 1195.88 53.5 1196.5 53.5Z" stroke="black"/>
<path d="M1196.5 11L1193.61 16L1199.39 16L1196.5 11ZM1196.5 364H1197L1197 336H1196.5H1196L1196 364H1196.5ZM1196.5 34.5L1197 34.5L1197 15.5L1196.5 15.5L1196 15.5L1196 34.5L1196.5 34.5ZM1196.5 54.5L1197 54.5L1197 37.5L1196.5 37.5L1196 37.5L1196 54.5L1196.5 54.5Z" fill="black"/>
<path d="M1183 30.5L1188.39 32.562L1183.91 36.2012L1183 30.5ZM1207.44 33.11L1207.75 33.5034L1207.75 33.5034L1207.44 33.11ZM1208.82 29.584L1209.28 29.3986L1209.28 29.3986L1208.82 29.584ZM1204.78 26.4447L1204.96 25.9785L1204.96 25.9785L1204.78 26.4447ZM1185.74 33.8799L1185.98 33.4405C1187.69 34.3656 1190.11 35.0404 1192.87 35.3356L1192.82 35.8328L1192.77 36.33C1189.92 36.0259 1187.36 35.3262 1185.51 34.3193L1185.74 33.8799ZM1192.82 35.8328L1192.87 35.3356C1195.63 35.6303 1198.55 35.5265 1201.14 35.0426L1201.24 35.5341L1201.33 36.0257C1198.63 36.5282 1195.62 36.6345 1192.77 36.33L1192.82 35.8328ZM1201.24 35.5341L1201.14 35.0426C1203.75 34.5569 1205.85 33.7249 1207.13 32.7167L1207.44 33.11L1207.75 33.5034C1206.29 34.6508 1204.02 35.525 1201.33 36.0257L1201.24 35.5341ZM1207.44 33.11L1207.13 32.7167C1207.77 32.215 1208.17 31.7029 1208.36 31.2139C1208.55 30.7356 1208.55 30.2547 1208.35 29.7694L1208.82 29.584L1209.28 29.3986C1209.57 30.1206 1209.57 30.8639 1209.29 31.5773C1209.02 32.28 1208.49 32.9273 1207.75 33.5034L1207.44 33.11ZM1208.82 29.584L1208.35 29.7694C1207.95 28.7603 1206.7 27.7234 1204.6 26.9109L1204.78 26.4447L1204.96 25.9785C1207.13 26.8202 1208.72 27.9929 1209.28 29.3986L1208.82 29.584ZM1204.78 26.4447L1204.6 26.9109C1202.89 26.246 1200.76 25.7916 1198.46 25.601L1198.5 25.1027L1198.54 24.6044C1200.91 24.8011 1203.14 25.2716 1204.96 25.9785L1204.78 26.4447ZM1194.78 25.0244L1194.8 25.524C1192.73 25.6067 1190.73 25.9022 1188.99 26.3869L1188.86 25.9052L1188.72 25.4235C1190.55 24.9152 1192.62 24.6101 1194.76 24.5248L1194.78 25.0244Z" fill="black"/>
</svg>
