<svg width="1863" height="556" viewBox="0 0 1863 556" fill="none" xmlns="http://www.w3.org/2000/svg">
<path d="M469.419 488.04C455.31 490.176 441.007 454.553 437.473 408.474C433.939 362.395 442.511 323.309 456.62 321.173" stroke="#3090FF" stroke-width="3" stroke-dasharray="6 6"/>
<path d="M399.112 63.0924C546.807 63.0926 672.498 123.99 717.489 208.939L717.536 209.028L717.564 209.124L719.174 214.559C723.239 223.554 725.378 232.867 725.378 242.408C725.378 262.278 716.11 281.127 699.516 298.183C682.925 315.235 658.966 330.545 629.439 343.381C570.382 369.053 488.866 384.908 398.878 384.908C308.89 384.908 227.373 369.053 168.316 343.381C138.789 330.545 114.831 315.235 98.2401 298.183C81.6453 281.127 72.3779 262.278 72.3778 242.408C72.3778 230.69 75.6012 219.318 81.6571 208.46L84.037 203.007L84.0605 202.955L84.0898 202.904C131.732 121.124 254.93 63.0924 399.112 63.0924ZM399.738 212.675C340.118 212.675 289.423 237.275 270.813 271.566C289.423 305.857 340.118 330.456 399.738 330.456C459.358 330.456 510.053 305.856 528.662 271.566C510.053 237.275 459.358 212.676 399.738 212.675Z" fill="#D9D9D9" fill-opacity="0.3"/>
<path d="M398.878 99.9075C478.035 99.9076 550.63 112.174 607.15 132.597C660.626 151.92 699.907 178.618 716.566 209.316L717.489 208.94C728.948 230.576 735.17 253.773 735.17 277.908C735.17 337.41 697.377 391.138 636.571 429.941C575.754 468.751 491.796 492.723 399.111 492.723C306.426 492.723 222.469 468.751 161.652 429.941C100.847 391.138 63.0536 337.41 63.0536 277.908C63.0536 251.512 70.4947 226.24 84.0888 202.905L84.7968 203.263C103.755 174.13 143.315 148.932 195.911 130.72C251.634 111.426 322.176 99.9075 398.878 99.9075ZM399.738 212.676C340.118 212.676 289.423 237.275 270.813 271.566C289.423 305.856 340.118 330.455 399.738 330.455C459.358 330.455 510.053 305.856 528.662 271.566C510.053 237.275 459.358 212.676 399.738 212.676Z" fill="#82D5FF" fill-opacity="0.3"/>
<path d="M398.877 383.908C578.646 383.908 724.377 320.556 724.377 242.408C724.377 232.998 722.265 223.803 718.234 214.908L716.606 209.408C671.858 124.918 546.616 64.0924 399.112 64.0924C255.123 64.0924 132.348 122.053 84.9533 203.408L82.5536 208.908C76.5561 219.647 73.3775 230.866 73.3775 242.408C73.3775 320.556 219.109 383.908 398.877 383.908Z" stroke="black" stroke-width="2"/>
<path d="M399.112 491.723C584.159 491.723 734.17 395.994 734.17 277.908C734.17 253.95 727.995 230.912 716.606 209.408L718.234 214.908C688.79 149.922 557.001 100.908 398.877 100.908C245.658 100.908 117.165 146.929 82.5536 208.908L84.9533 203.408C71.4388 226.606 64.0536 251.706 64.0536 277.908C64.0536 395.994 214.064 491.723 399.112 491.723Z" stroke="black" stroke-width="2"/>
<path d="M398.877 101.408C488.71 101.408 570.014 117.238 628.841 142.811C658.256 155.598 682.028 170.811 698.44 187.678C714.849 204.543 723.877 223.037 723.877 242.408C723.877 261.778 714.849 280.272 698.44 297.137C682.028 314.005 658.256 329.217 628.841 342.004C570.014 367.577 488.71 383.408 398.877 383.408C309.045 383.408 227.741 367.577 168.914 342.004C139.499 329.217 115.727 314.005 99.315 297.137C82.9057 280.272 73.8775 261.778 73.8775 242.408C73.8775 223.037 82.9057 204.543 99.315 187.678C115.727 170.811 139.499 155.598 168.914 142.811C227.741 117.238 309.045 101.408 398.877 101.408Z" stroke="black"/>
<path d="M263.466 248.01C267.828 294.013 327.171 330.455 399.738 330.455C472.78 330.455 532.425 293.534 536.088 247.104" stroke="black" stroke-width="2"/>
<path d="M528.751 271.729C510.214 237.353 459.453 212.676 399.738 212.676C340.117 212.676 289.423 237.275 270.813 271.566" stroke="black" stroke-width="2"/>
<path d="M456.505 319.677C455.686 319.801 455.073 320.571 455.137 321.397C455.2 322.223 455.915 322.792 456.734 322.668L456.62 321.173L456.505 319.677ZM488.565 400.739L487.082 400.963C488.841 423.896 487.581 445.03 484.157 460.641C482.443 468.457 480.205 474.8 477.594 479.278C474.961 483.791 472.131 486.116 469.304 486.544L469.418 488.04L469.533 489.536C473.76 488.896 477.292 485.535 480.125 480.678C482.978 475.787 485.308 469.078 487.059 461.095C490.565 445.109 491.823 423.661 490.048 400.514L488.565 400.739ZM456.62 321.173L456.734 322.668C459.562 322.24 462.68 323.665 465.936 327.287C469.167 330.88 472.315 336.408 475.175 343.531C480.887 357.759 485.323 378.031 487.082 400.963L488.565 400.739L490.048 400.514C488.273 377.368 483.79 356.788 477.941 342.219C475.02 334.943 471.726 329.086 468.197 325.161C464.693 321.264 460.732 319.037 456.505 319.677L456.62 321.173Z" fill="#3090FF"/>
<path d="M501.972 427.777C501.997 427.702 502.022 427.603 502.047 427.479C502.073 427.355 502.136 427.082 502.237 426.661C502.338 426.239 502.464 425.855 502.615 425.508C502.767 425.161 502.956 424.751 503.183 424.28C503.41 423.809 503.663 423.437 503.94 423.164C504.218 422.892 504.546 422.619 504.924 422.346C505.303 422.073 505.719 421.962 506.174 422.011C506.779 422.011 507.322 422.098 507.801 422.272C508.281 422.445 508.659 422.669 508.937 422.941C509.215 423.214 509.417 423.487 509.543 423.76C509.669 424.032 509.77 424.268 509.846 424.466L509.921 424.727C509.921 424.776 509.934 424.801 509.959 424.801L510.376 424.392C511.915 422.805 513.669 422.011 515.637 422.011C517 422.011 518.098 422.346 518.931 423.016C519.763 423.685 520.192 424.665 520.218 425.954V426.326C520.218 426.921 519.41 430.306 517.795 436.48C516.331 442.307 515.549 445.308 515.448 445.481C515.12 446.151 514.552 446.486 513.745 446.486C513.416 446.486 513.139 446.386 512.912 446.188C512.685 445.99 512.546 445.717 512.495 445.37C512.495 445.147 513.24 442.134 514.729 436.331L517.076 427.033C517.151 426.661 517.189 426.19 517.189 425.619C517.189 424.156 516.634 423.425 515.524 423.425H515.334C513.164 423.425 511.334 424.677 509.846 427.182L509.581 427.628L508.331 432.612C507.499 435.86 507.019 437.608 506.893 437.856C506.565 438.526 506.022 438.861 505.265 438.861C504.937 438.861 504.672 438.786 504.47 438.637C504.268 438.489 504.129 438.34 504.054 438.191C503.978 438.042 503.953 437.918 503.978 437.819C503.978 437.497 504.483 435.364 505.492 431.422C506.502 427.479 507.006 425.285 507.006 424.838C507.006 423.871 506.678 423.388 506.022 423.388C505.492 423.388 505.038 423.735 504.659 424.429C504.281 425.123 503.978 425.88 503.751 426.698C503.524 427.516 503.385 427.963 503.335 428.037C503.284 428.087 503.082 428.111 502.729 428.111H502.199C502.047 427.963 501.972 427.851 501.972 427.777Z" fill="black"/>
<path d="M707.802 144.64C707.802 144.435 707.94 144.24 708.214 144.057H719.122L719.362 144.195C719.591 144.515 719.591 144.789 719.362 145.018C719.202 145.178 718.813 145.258 718.196 145.258C717.51 145.326 717.11 145.406 716.995 145.498C716.721 145.589 716.572 145.795 716.549 146.115C716.526 146.436 716.492 147.876 716.446 150.437V154.794H724.85V150.437C724.85 149.934 724.839 149.294 724.816 148.517C724.793 147.099 724.759 146.264 724.713 146.012C724.667 145.761 724.542 145.589 724.336 145.498H724.302C724.164 145.406 723.753 145.326 723.067 145.258C722.175 145.258 721.729 145.063 721.729 144.675C721.729 144.515 721.798 144.355 721.935 144.195L722.175 144.057H733.083C733.334 144.217 733.46 144.412 733.46 144.64C733.46 145.052 733.026 145.258 732.157 145.258C731.242 145.326 730.705 145.509 730.545 145.807C730.499 145.944 730.476 149.271 730.476 155.789C730.476 162.283 730.499 165.587 730.545 165.702C730.705 166.022 731.242 166.216 732.157 166.285C733.026 166.285 733.46 166.502 733.46 166.937C733.46 167.165 733.334 167.36 733.083 167.52H722.175L721.935 167.383C721.798 167.222 721.729 167.062 721.729 166.902C721.729 166.491 722.175 166.285 723.067 166.285C724.027 166.216 724.565 166.022 724.679 165.702C724.793 165.427 724.85 163.849 724.85 160.968V156.406H716.446V160.968C716.446 163.941 716.504 165.519 716.618 165.702C716.732 166.022 717.258 166.216 718.196 166.285C718.768 166.285 719.156 166.365 719.362 166.525C719.568 166.777 719.568 167.062 719.362 167.383L719.122 167.52H708.214C707.94 167.383 707.802 167.188 707.802 166.937C707.802 166.502 708.248 166.285 709.14 166.285C710.078 166.216 710.604 166.022 710.718 165.702C710.832 165.519 710.89 162.214 710.89 155.789C710.89 149.363 710.832 146.035 710.718 145.807C710.581 145.509 710.055 145.326 709.14 145.258C708.248 145.258 707.802 145.052 707.802 144.64ZM715.314 155.789V148.517C715.314 146.641 715.383 145.555 715.52 145.258H711.816C711.884 145.418 711.93 145.532 711.953 145.601C711.976 145.669 711.999 146.07 712.022 146.801C712.044 147.533 712.067 148.517 712.09 149.751C712.113 150.986 712.113 152.999 712.09 155.789C712.09 160.591 712.079 163.472 712.056 164.433C712.033 165.393 711.964 165.988 711.85 166.216C711.827 166.239 711.816 166.262 711.816 166.285H715.52C715.383 166.01 715.314 164.936 715.314 163.06V155.789ZM729.241 155.789V150.712C729.241 149.363 729.241 148.368 729.241 147.728C729.241 147.087 729.252 146.584 729.275 146.218C729.298 145.852 729.321 145.635 729.344 145.567C729.367 145.498 729.413 145.395 729.481 145.258H725.742L725.914 145.567C726.005 145.887 726.051 149.294 726.051 155.789C726.051 160.614 726.04 163.506 726.017 164.467C725.994 165.427 725.914 166.01 725.777 166.216C725.754 166.239 725.742 166.262 725.742 166.285H729.481C729.413 166.148 729.378 166.068 729.378 166.045C729.378 166.022 729.355 165.873 729.31 165.599C729.264 165.324 729.241 164.993 729.241 164.604C729.241 164.215 729.241 163.575 729.241 162.683V155.789Z" fill="black"/>
<path d="M734.518 165.671C734.534 165.622 734.551 165.557 734.567 165.477C734.583 165.396 734.623 165.218 734.688 164.943C734.753 164.668 734.834 164.418 734.931 164.191C735.028 163.965 735.149 163.698 735.294 163.391C735.44 163.084 735.602 162.841 735.779 162.663C735.957 162.486 736.167 162.308 736.41 162.13C736.652 161.952 736.919 161.879 737.21 161.912C737.598 161.912 737.946 161.968 738.253 162.081C738.56 162.195 738.803 162.34 738.981 162.518C739.158 162.696 739.288 162.874 739.369 163.051C739.449 163.229 739.514 163.383 739.563 163.512L739.611 163.682C739.611 163.714 739.619 163.73 739.635 163.73L739.902 163.464C740.888 162.429 742.012 161.912 743.273 161.912C744.146 161.912 744.849 162.13 745.383 162.566C745.916 163.003 746.191 163.642 746.207 164.482V164.725C746.207 165.113 745.69 167.32 744.655 171.345C743.718 175.145 743.216 177.101 743.152 177.214C742.942 177.651 742.578 177.869 742.06 177.869C741.85 177.869 741.672 177.804 741.527 177.675C741.381 177.546 741.292 177.368 741.26 177.141C741.26 176.996 741.737 175.032 742.691 171.248L744.195 165.186C744.243 164.943 744.267 164.636 744.267 164.264C744.267 163.31 743.912 162.833 743.2 162.833H743.079C741.689 162.833 740.516 163.65 739.563 165.283L739.393 165.574L738.593 168.823C738.059 170.941 737.752 172.081 737.671 172.243C737.461 172.679 737.113 172.897 736.628 172.897C736.418 172.897 736.248 172.849 736.119 172.752C735.99 172.655 735.901 172.558 735.852 172.461C735.804 172.364 735.787 172.283 735.804 172.218C735.804 172.008 736.127 170.618 736.774 168.047C737.42 165.477 737.744 164.046 737.744 163.755C737.744 163.124 737.534 162.809 737.113 162.809C736.774 162.809 736.483 163.035 736.24 163.488C735.998 163.941 735.804 164.434 735.658 164.967C735.513 165.501 735.424 165.792 735.391 165.84C735.359 165.873 735.23 165.889 735.003 165.889H734.664C734.567 165.792 734.518 165.719 734.518 165.671Z" fill="black"/>
<path d="M751.002 158.91C751.002 157.332 751.116 155.834 751.345 154.416C751.574 152.999 751.837 151.775 752.134 150.746C752.431 149.717 752.854 148.711 753.403 147.728C753.952 146.744 754.387 145.978 754.707 145.429C755.027 144.881 755.507 144.286 756.147 143.646C756.788 143.005 757.165 142.617 757.279 142.479C757.394 142.342 757.679 142.102 758.137 141.759H758.583H758.72C759.04 141.759 759.2 141.862 759.2 142.068C759.2 142.136 759.006 142.377 758.617 142.788C758.228 143.2 757.76 143.806 757.211 144.606C756.662 145.406 756.102 146.39 755.53 147.556C754.958 148.722 754.478 150.3 754.089 152.29C753.7 154.279 753.506 156.486 753.506 158.91C753.506 161.334 753.7 163.529 754.089 165.496C754.478 167.463 754.947 169.052 755.496 170.264C756.044 171.476 756.605 172.459 757.176 173.214C757.748 173.968 758.228 174.574 758.617 175.032C759.006 175.489 759.2 175.729 759.2 175.752C759.2 175.958 759.029 176.061 758.686 176.061H758.583H758.137L757.176 175.238C755.027 173.294 753.46 170.87 752.477 167.966C751.494 165.061 751.002 162.043 751.002 158.91Z" fill="black"/>
<path d="M783.966 159.013C783.92 159.081 783.76 160.465 783.486 163.163C783.211 165.862 783.051 167.257 783.006 167.348V167.485H773.161C768.13 167.485 765.203 167.485 764.38 167.485C763.557 167.485 763.122 167.428 763.076 167.314V167.28C763.008 167.142 763.008 167.017 763.076 166.902L763.625 166.251C763.991 165.839 764.54 165.222 765.272 164.398C766.003 163.575 766.701 162.786 767.364 162.031L771.583 157.229L763.042 145.395L763.008 144.915C763.008 144.48 763.065 144.217 763.179 144.126C763.248 144.08 766.575 144.057 773.161 144.057H783.006V144.194C783.051 144.309 783.211 145.624 783.486 148.139C783.76 150.655 783.92 151.992 783.966 152.153V152.29H782.594V152.153C782.411 150.826 782.16 149.729 781.839 148.86C781.519 147.991 781.005 147.282 780.296 146.733C779.61 146.253 778.684 145.955 777.517 145.841C776.351 145.727 774.693 145.658 772.544 145.635H771.206H767.604L771.172 150.54C771.652 151.204 772.246 152.027 772.955 153.01C774.213 154.748 774.842 155.686 774.842 155.823C774.842 155.869 774.83 155.903 774.808 155.926L766.404 165.53C772.189 165.53 775.322 165.519 775.802 165.496C776.9 165.45 777.815 165.336 778.546 165.153C779.278 164.97 779.77 164.798 780.021 164.638C780.273 164.478 780.547 164.25 780.845 163.952C781.302 163.449 781.679 162.775 781.977 161.929C782.274 161.082 782.457 160.362 782.525 159.768L782.594 158.876H783.966V159.013Z" fill="black"/>
<path d="M787.945 141.793L788.082 141.759C788.197 141.759 788.311 141.759 788.425 141.759H788.837L789.797 142.582C791.947 144.526 793.513 146.95 794.497 149.854C795.48 152.759 795.972 155.777 795.972 158.91C795.972 160.465 795.857 161.963 795.629 163.404C795.4 164.844 795.137 166.068 794.84 167.074C794.543 168.08 794.119 169.086 793.571 170.092C793.022 171.099 792.587 171.865 792.267 172.391C791.947 172.917 791.478 173.5 790.861 174.14C790.243 174.78 789.877 175.158 789.763 175.272C789.649 175.386 789.386 175.604 788.974 175.924C788.906 175.992 788.86 176.038 788.837 176.061H788.425C788.242 176.061 788.117 176.061 788.048 176.061C787.979 176.061 787.922 176.027 787.877 175.958C787.831 175.889 787.797 175.786 787.774 175.649C787.797 175.626 787.922 175.478 788.151 175.203C791.695 171.522 793.468 166.09 793.468 158.91C793.468 151.729 791.695 146.298 788.151 142.617C787.922 142.342 787.797 142.194 787.774 142.171C787.774 141.988 787.831 141.862 787.945 141.793Z" fill="black"/>
<path d="M1020.97 291L1015.97 288.113L1015.97 293.887L1020.97 291ZM810.972 291L810.972 291.5L1016.47 291.5L1016.47 291L1016.47 290.5L810.972 290.5L810.972 291Z" fill="black"/>
<path d="M815.972 268.361C815.996 268.242 816.115 266.873 816.329 264.254C816.543 261.635 816.65 260.29 816.65 260.218V260.004H838.472V260.218C838.496 260.337 838.615 261.706 838.829 264.325C839.043 266.944 839.15 268.29 839.15 268.361V268.575H837.722V268.361C837.722 268.314 837.686 267.897 837.615 267.111C837.543 266.325 837.412 265.54 837.222 264.754C837.031 263.968 836.781 263.385 836.472 263.004C836.067 262.504 835.412 262.123 834.508 261.861C834.008 261.742 833.091 261.683 831.758 261.683H830.793H830.508C829.888 261.683 829.543 261.825 829.472 262.111C829.448 262.159 829.436 265.48 829.436 272.075V281.933C829.603 282.171 829.912 282.325 830.365 282.397C830.817 282.468 831.877 282.516 833.543 282.54H834.615V284.183H834.15L827.579 284.075C823.412 284.123 821.222 284.159 821.008 284.183H820.543V282.54H821.615C823.281 282.54 824.341 282.504 824.793 282.433C825.246 282.361 825.555 282.194 825.722 281.933V272.075V264.54C825.722 262.873 825.662 261.98 825.543 261.861C825.424 261.742 825.031 261.683 824.365 261.683H823.4H822.686C821.019 261.683 819.769 262.028 818.936 262.718C818.508 263.099 818.198 263.659 818.008 264.397C817.817 265.135 817.674 265.944 817.579 266.825C817.484 267.706 817.424 268.218 817.4 268.361V268.575H815.972V268.361Z" fill="black"/>
<path d="M840.865 277.79V275.183H850.365V277.79H840.865Z" fill="black"/>
<path d="M853.65 268.361C853.674 268.242 853.793 266.873 854.008 264.254C854.222 261.635 854.329 260.29 854.329 260.218V260.004H876.15V260.218C876.174 260.337 876.293 261.706 876.508 264.325C876.722 266.944 876.829 268.29 876.829 268.361V268.575H875.4V268.361C875.4 268.314 875.365 267.897 875.293 267.111C875.222 266.325 875.091 265.54 874.9 264.754C874.71 263.968 874.46 263.385 874.15 263.004C873.746 262.504 873.091 262.123 872.186 261.861C871.686 261.742 870.769 261.683 869.436 261.683H868.472H868.186C867.567 261.683 867.222 261.825 867.15 262.111C867.127 262.159 867.115 265.48 867.115 272.075V281.933C867.281 282.171 867.591 282.325 868.043 282.397C868.496 282.468 869.555 282.516 871.222 282.54H872.293V284.183H871.829L865.258 284.075C861.091 284.123 858.9 284.159 858.686 284.183H858.222V282.54H859.293C860.96 282.54 862.019 282.504 862.472 282.433C862.924 282.361 863.234 282.194 863.4 281.933V272.075V264.54C863.4 262.873 863.341 261.98 863.222 261.861C863.103 261.742 862.71 261.683 862.043 261.683H861.079H860.365C858.698 261.683 857.448 262.028 856.615 262.718C856.186 263.099 855.877 263.659 855.686 264.397C855.496 265.135 855.353 265.944 855.258 266.825C855.162 267.706 855.103 268.218 855.079 268.361V268.575H853.65V268.361Z" fill="black"/>
<path d="M879.436 282.54H879.936C880.865 282.54 881.424 282.373 881.615 282.04V281.754C881.615 281.54 881.615 281.266 881.615 280.933C881.615 280.599 881.627 280.23 881.65 279.825C881.674 279.421 881.674 278.956 881.65 278.433C881.627 277.909 881.627 277.409 881.65 276.933C881.65 276.194 881.65 275.409 881.65 274.575C881.65 273.742 881.65 273.04 881.65 272.468L881.615 271.647C881.543 271.194 881.377 270.897 881.115 270.754C880.853 270.611 880.317 270.504 879.508 270.433H878.865V269.611C878.865 269.064 878.888 268.79 878.936 268.79L879.293 268.754C879.531 268.73 879.865 268.706 880.293 268.683C880.722 268.659 881.15 268.635 881.579 268.611C881.96 268.587 882.377 268.564 882.829 268.54C883.281 268.516 883.627 268.48 883.865 268.433C884.103 268.385 884.234 268.373 884.258 268.397H884.365V270.861C885.293 269.242 886.448 268.433 887.829 268.433H888.043C889.115 268.433 889.9 268.694 890.4 269.218C890.9 269.742 891.15 270.29 891.15 270.861C891.15 271.361 890.996 271.79 890.686 272.147C890.377 272.504 889.924 272.683 889.329 272.683C888.734 272.683 888.293 272.492 888.008 272.111C887.722 271.73 887.567 271.325 887.543 270.897C887.543 270.683 887.567 270.492 887.615 270.325C887.662 270.159 887.722 270.016 887.793 269.897C887.865 269.778 887.9 269.718 887.9 269.718C887.853 269.671 887.579 269.718 887.079 269.861C886.698 270.052 886.412 270.23 886.222 270.397C885.103 271.468 884.543 273.599 884.543 276.79V278.683C884.543 278.992 884.543 279.314 884.543 279.647C884.543 279.98 884.543 280.29 884.543 280.575C884.543 280.861 884.555 281.099 884.579 281.29C884.603 281.48 884.603 281.659 884.579 281.825V282.004C884.603 282.052 884.638 282.099 884.686 282.147C884.734 282.194 884.793 282.23 884.865 282.254C884.936 282.278 884.996 282.314 885.043 282.361C885.091 282.409 885.174 282.433 885.293 282.433C885.412 282.433 885.496 282.444 885.543 282.468C885.591 282.492 885.698 282.504 885.865 282.504C886.031 282.504 886.138 282.504 886.186 282.504C886.234 282.504 886.353 282.516 886.543 282.54C886.734 282.564 886.853 282.564 886.9 282.54H888.008V284.183H887.686C887.258 284.111 885.746 284.075 883.15 284.075C880.698 284.075 879.365 284.111 879.15 284.183H878.865V282.54H879.436Z" fill="black"/>
<path d="M897.043 273.29C897.043 273.29 896.781 273.29 896.258 273.29C895.734 273.29 895.293 273.111 894.936 272.754C894.579 272.397 894.4 271.933 894.4 271.361C894.4 270.528 894.805 269.79 895.615 269.147C896.424 268.504 897.865 268.183 899.936 268.183C901.674 268.183 903.079 268.564 904.15 269.325C905.222 270.087 905.936 270.992 906.293 272.04C906.412 272.373 906.472 272.742 906.472 273.147C906.472 273.552 906.484 274.921 906.508 277.254V279.754C906.508 280.897 906.567 281.683 906.686 282.111C906.805 282.54 907.055 282.754 907.436 282.754C907.793 282.754 908.031 282.564 908.15 282.183C908.269 281.802 908.329 281.171 908.329 280.29V279.004H909.758V280.397C909.734 281.349 909.698 281.909 909.65 282.075C909.436 282.79 909.019 283.349 908.4 283.754C907.781 284.159 907.127 284.373 906.436 284.397C905.746 284.421 905.186 284.206 904.758 283.754C904.329 283.302 904.043 282.802 903.9 282.254V282.111L903.829 282.218C903.781 282.29 903.722 282.361 903.65 282.433C903.579 282.504 903.484 282.611 903.365 282.754C903.246 282.897 903.103 283.028 902.936 283.147C902.769 283.266 902.591 283.409 902.4 283.575C902.21 283.742 901.996 283.873 901.758 283.968C901.519 284.064 901.258 284.159 900.972 284.254C900.686 284.349 900.377 284.421 900.043 284.468C899.71 284.516 899.341 284.552 898.936 284.575C897.508 284.575 896.222 284.206 895.079 283.468C893.936 282.73 893.365 281.694 893.365 280.361C893.365 279.861 893.448 279.385 893.615 278.933C893.781 278.48 894.103 277.992 894.579 277.468C895.055 276.944 895.627 276.504 896.293 276.147C896.96 275.79 897.888 275.456 899.079 275.147C900.269 274.837 901.579 274.659 903.008 274.611H903.508V273.825C903.508 273.016 903.436 272.421 903.293 272.04C902.769 270.349 901.615 269.504 899.829 269.504C899.4 269.504 898.996 269.516 898.615 269.54C898.234 269.564 897.936 269.611 897.722 269.683C897.508 269.754 897.412 269.79 897.436 269.79C897.96 270.147 898.222 270.671 898.222 271.361C898.222 271.956 898.031 272.421 897.65 272.754L897.043 273.29ZM896.65 280.397C896.65 281.135 896.936 281.79 897.508 282.361C898.079 282.933 898.781 283.23 899.615 283.254C900.519 283.254 901.317 282.98 902.008 282.433C902.698 281.885 903.162 281.171 903.4 280.29C903.448 280.123 903.484 279.337 903.508 277.933C903.508 276.552 903.496 275.861 903.472 275.861C903.281 275.861 903.031 275.873 902.722 275.897C902.412 275.921 901.877 276.028 901.115 276.218C900.353 276.409 899.662 276.647 899.043 276.933C898.424 277.218 897.877 277.659 897.4 278.254C896.924 278.849 896.674 279.564 896.65 280.397Z" fill="black"/>
<path d="M911.472 282.54H911.972C912.9 282.54 913.46 282.373 913.65 282.04V281.754C913.65 281.54 913.65 281.266 913.65 280.933C913.65 280.599 913.65 280.23 913.65 279.825C913.65 279.421 913.662 278.956 913.686 278.433C913.71 277.909 913.71 277.409 913.686 276.933C913.686 276.194 913.686 275.409 913.686 274.575C913.686 273.742 913.674 273.04 913.65 272.468V271.647C913.579 271.194 913.412 270.897 913.15 270.754C912.888 270.611 912.353 270.504 911.543 270.433H910.9V269.611C910.9 269.064 910.924 268.79 910.972 268.79L911.329 268.754C911.567 268.73 911.9 268.706 912.329 268.683C912.758 268.659 913.198 268.635 913.65 268.611C914.055 268.587 914.484 268.564 914.936 268.54C915.388 268.516 915.734 268.48 915.972 268.433C916.21 268.385 916.341 268.373 916.365 268.397H916.472V269.825C916.472 270.73 916.484 271.183 916.508 271.183C916.531 271.183 916.591 271.123 916.686 271.004C916.781 270.885 916.924 270.706 917.115 270.468C917.305 270.23 917.531 270.016 917.793 269.825C918.055 269.635 918.4 269.409 918.829 269.147C919.258 268.885 919.71 268.694 920.186 268.575C920.662 268.456 921.269 268.397 922.008 268.397C924.722 268.492 926.234 269.837 926.543 272.433C926.567 272.599 926.579 274.254 926.579 277.397V280.468C926.579 281.373 926.603 281.909 926.65 282.075C926.698 282.242 926.829 282.361 927.043 282.433C927.543 282.504 928.127 282.54 928.793 282.54H929.365V284.183H929.079L928.222 284.147C927.674 284.123 927.079 284.111 926.436 284.111C925.793 284.111 925.341 284.099 925.079 284.075C922.627 284.075 921.293 284.111 921.079 284.183H920.793V282.54H921.365C922.817 282.54 923.543 282.349 923.543 281.968C923.567 281.921 923.579 280.278 923.579 277.04C923.555 273.825 923.531 272.123 923.508 271.933C923.365 271.266 923.127 270.766 922.793 270.433C922.46 270.099 922.174 269.897 921.936 269.825C921.698 269.754 921.388 269.73 921.008 269.754C919.936 269.754 918.996 270.159 918.186 270.968C917.543 271.611 917.138 272.266 916.972 272.933C916.805 273.599 916.71 274.587 916.686 275.897V278.183V280.325C916.686 281.04 916.698 281.516 916.722 281.754C916.746 281.992 916.781 282.147 916.829 282.218C916.877 282.29 916.984 282.361 917.15 282.433C917.65 282.504 918.234 282.54 918.9 282.54H919.472V284.183H919.186L918.365 284.147C917.793 284.123 917.186 284.111 916.543 284.111C915.9 284.111 915.448 284.099 915.186 284.075C912.734 284.075 911.4 284.111 911.186 284.183H910.9V282.54H911.472Z" fill="black"/>
<path d="M940.4 272.897C940.4 271.944 940.079 271.123 939.436 270.433C938.793 269.742 937.865 269.397 936.65 269.397C935.793 269.397 935.055 269.552 934.436 269.861C933.722 270.314 933.365 270.933 933.365 271.718C933.341 271.837 933.341 271.992 933.365 272.183C933.388 272.373 933.579 272.659 933.936 273.04C934.293 273.421 934.805 273.718 935.472 273.933C935.9 274.052 936.424 274.159 937.043 274.254C937.662 274.349 938.186 274.456 938.615 274.575C939.043 274.694 939.424 274.849 939.757 275.04C940.162 275.23 940.555 275.468 940.936 275.754C941.317 276.04 941.698 276.528 942.079 277.218C942.46 277.909 942.662 278.647 942.686 279.433C942.686 280.909 942.234 282.123 941.329 283.075C940.424 284.028 938.96 284.516 936.936 284.54H936.65C935.412 284.54 934.269 284.111 933.222 283.254L932.936 283.504L932.615 283.825C932.472 283.968 932.329 284.099 932.186 284.218L931.793 284.575H931.507H931.365C931.293 284.575 931.186 284.504 931.043 284.361V281.54V279.468C931.043 278.968 931.067 278.671 931.115 278.575C931.162 278.48 931.281 278.421 931.472 278.397H931.793C932.079 278.397 932.269 278.444 932.365 278.54C932.46 278.635 932.519 278.778 932.543 278.968C932.567 279.159 932.65 279.48 932.793 279.933C932.936 280.385 933.162 280.885 933.472 281.433C934.305 282.647 935.46 283.254 936.936 283.254C939.246 283.254 940.4 282.325 940.4 280.468C940.4 279.778 940.186 279.218 939.757 278.79C939.281 278.218 938.293 277.79 936.793 277.504C935.293 277.218 934.305 276.944 933.829 276.683C932.972 276.278 932.293 275.73 931.793 275.04C931.293 274.349 931.043 273.611 931.043 272.825C931.043 271.897 931.246 271.111 931.65 270.468C932.055 269.825 932.567 269.349 933.186 269.04C933.805 268.73 934.4 268.516 934.972 268.397C935.543 268.278 936.067 268.218 936.543 268.218H936.936C937.888 268.218 938.722 268.397 939.436 268.754L939.972 269.04L940.293 268.79C940.531 268.575 940.793 268.373 941.079 268.183H941.365H941.507C941.579 268.183 941.686 268.254 941.829 268.397V273.111L941.615 273.325H940.615C940.472 273.183 940.4 273.04 940.4 272.897Z" fill="black"/>
<path d="M953.686 284.183C953.257 284.111 951.746 284.075 949.15 284.075C946.698 284.075 945.365 284.111 945.15 284.183H944.865V282.54H945.436C946.103 282.54 946.686 282.504 947.186 282.433C947.377 282.361 947.519 282.23 947.615 282.04C947.638 281.992 947.65 280.04 947.65 276.183V270.433H945.115V268.79H947.65V266.433L947.686 264.04L947.757 263.683C948.21 262.135 948.972 261.016 950.043 260.325C951.115 259.635 952.246 259.206 953.436 259.04C953.46 259.04 953.567 259.04 953.757 259.04C953.948 259.04 954.115 259.028 954.257 259.004C955.234 259.075 955.972 259.385 956.472 259.933C956.972 260.48 957.222 261.099 957.222 261.79C957.222 262.337 957.055 262.778 956.722 263.111C956.388 263.444 955.948 263.611 955.4 263.611C954.853 263.611 954.412 263.444 954.079 263.111C953.746 262.778 953.579 262.337 953.579 261.79C953.579 261.314 953.793 260.837 954.222 260.361H954.079C953.984 260.337 953.853 260.325 953.686 260.325C953.019 260.325 952.424 260.575 951.9 261.075C951.377 261.575 950.972 262.23 950.686 263.04C950.543 263.516 950.46 264.647 950.436 266.433V268.79H954.4V270.433H950.543V276.147C950.543 280.004 950.555 281.956 950.579 282.004C950.603 282.052 950.638 282.099 950.686 282.147C950.734 282.194 950.793 282.23 950.865 282.254C950.936 282.278 950.996 282.314 951.043 282.361C951.091 282.409 951.174 282.433 951.293 282.433C951.412 282.433 951.496 282.444 951.543 282.468C951.591 282.492 951.698 282.504 951.865 282.504C952.031 282.504 952.138 282.504 952.186 282.504C952.234 282.504 952.353 282.516 952.543 282.54C952.734 282.564 952.853 282.564 952.9 282.54H954.007V284.183H953.686Z" fill="black"/>
<path d="M955.865 276.54C955.865 274.278 956.638 272.325 958.186 270.683C959.734 269.04 961.603 268.206 963.793 268.183C965.936 268.183 967.781 268.992 969.329 270.611C970.877 272.23 971.662 274.194 971.686 276.504C971.686 278.766 970.924 280.671 969.4 282.218C967.877 283.766 966.007 284.54 963.793 284.54C961.484 284.54 959.591 283.742 958.115 282.147C956.638 280.552 955.888 278.683 955.865 276.54ZM963.793 283.111C966.698 283.111 968.15 281.171 968.15 277.29V276.147V275.254C968.15 274.73 968.138 274.278 968.115 273.897C968.091 273.516 968.007 273.064 967.865 272.54C967.722 272.016 967.531 271.587 967.293 271.254C967.055 270.921 966.686 270.587 966.186 270.254C965.686 269.921 965.103 269.683 964.436 269.54C964.317 269.516 964.127 269.504 963.865 269.504C963.15 269.504 962.472 269.647 961.829 269.933C960.805 270.456 960.138 271.183 959.829 272.111C959.519 273.04 959.365 274.135 959.365 275.397V276.111C959.365 278.397 959.591 280.004 960.043 280.933C960.805 282.385 962.055 283.111 963.793 283.111Z" fill="black"/>
<path d="M974.008 282.54H974.508C975.436 282.54 975.996 282.373 976.186 282.04V281.754C976.186 281.54 976.186 281.266 976.186 280.933C976.186 280.599 976.198 280.23 976.222 279.825C976.246 279.421 976.246 278.956 976.222 278.433C976.198 277.909 976.198 277.409 976.222 276.933C976.222 276.194 976.222 275.409 976.222 274.575C976.222 273.742 976.222 273.04 976.222 272.468L976.186 271.647C976.115 271.194 975.948 270.897 975.686 270.754C975.424 270.611 974.888 270.504 974.079 270.433H973.436V269.611C973.436 269.064 973.46 268.79 973.508 268.79L973.865 268.754C974.103 268.73 974.436 268.706 974.865 268.683C975.293 268.659 975.722 268.635 976.15 268.611C976.531 268.587 976.948 268.564 977.4 268.54C977.853 268.516 978.198 268.48 978.436 268.433C978.674 268.385 978.805 268.373 978.829 268.397H978.936V270.861C979.865 269.242 981.019 268.433 982.4 268.433H982.615C983.686 268.433 984.472 268.694 984.972 269.218C985.472 269.742 985.722 270.29 985.722 270.861C985.722 271.361 985.567 271.79 985.258 272.147C984.948 272.504 984.496 272.683 983.9 272.683C983.305 272.683 982.865 272.492 982.579 272.111C982.293 271.73 982.138 271.325 982.115 270.897C982.115 270.683 982.138 270.492 982.186 270.325C982.234 270.159 982.293 270.016 982.365 269.897C982.436 269.778 982.472 269.718 982.472 269.718C982.424 269.671 982.15 269.718 981.65 269.861C981.269 270.052 980.984 270.23 980.793 270.397C979.674 271.468 979.115 273.599 979.115 276.79V278.683C979.115 278.992 979.115 279.314 979.115 279.647C979.115 279.98 979.115 280.29 979.115 280.575C979.115 280.861 979.127 281.099 979.15 281.29C979.174 281.48 979.174 281.659 979.15 281.825V282.004C979.174 282.052 979.21 282.099 979.258 282.147C979.305 282.194 979.365 282.23 979.436 282.254C979.508 282.278 979.567 282.314 979.615 282.361C979.662 282.409 979.746 282.433 979.865 282.433C979.984 282.433 980.067 282.444 980.115 282.468C980.162 282.492 980.269 282.504 980.436 282.504C980.603 282.504 980.71 282.504 980.758 282.504C980.805 282.504 980.924 282.516 981.115 282.54C981.305 282.564 981.424 282.564 981.472 282.54H982.579V284.183H982.258C981.829 284.111 980.317 284.075 977.722 284.075C975.269 284.075 973.936 284.111 973.722 284.183H973.436V282.54H974.008Z" fill="black"/>
<path d="M988.186 282.54H988.686C989.615 282.54 990.174 282.373 990.365 282.04V281.754C990.365 281.54 990.365 281.266 990.365 280.933C990.365 280.599 990.365 280.23 990.365 279.825C990.365 279.421 990.377 278.956 990.4 278.433C990.424 277.909 990.424 277.409 990.4 276.933C990.4 276.194 990.4 275.409 990.4 274.575C990.4 273.742 990.388 273.04 990.365 272.468V271.647C990.293 271.194 990.127 270.897 989.865 270.754C989.603 270.611 989.067 270.504 988.257 270.433H987.615V269.611C987.615 269.064 987.638 268.79 987.686 268.79L988.043 268.754C988.281 268.73 988.615 268.706 989.043 268.683C989.472 268.659 989.912 268.635 990.365 268.611C990.769 268.587 991.198 268.564 991.65 268.54C992.103 268.516 992.448 268.48 992.686 268.433C992.924 268.385 993.055 268.373 993.079 268.397H993.186V269.825C993.186 270.73 993.198 271.183 993.222 271.183C993.246 271.183 993.305 271.123 993.4 271.004C993.496 270.885 993.638 270.706 993.829 270.468C994.019 270.23 994.246 270.016 994.507 269.825C994.769 269.635 995.115 269.409 995.543 269.147C995.972 268.885 996.424 268.694 996.9 268.575C997.377 268.456 997.984 268.397 998.722 268.397C999.079 268.397 999.412 268.421 999.722 268.468C1000.03 268.516 1000.31 268.587 1000.54 268.683C1000.78 268.778 1001.01 268.873 1001.22 268.968C1001.44 269.064 1001.61 269.171 1001.76 269.29C1001.9 269.409 1002.03 269.54 1002.15 269.683C1002.27 269.825 1002.38 269.956 1002.47 270.075C1002.57 270.194 1002.65 270.325 1002.72 270.468C1002.79 270.611 1002.84 270.73 1002.86 270.825C1002.89 270.921 1002.92 271.016 1002.97 271.111L1003.04 271.29L1003.15 271.147C1003.22 271.052 1003.29 270.956 1003.36 270.861C1003.44 270.766 1003.54 270.635 1003.69 270.468C1003.83 270.302 1003.98 270.147 1004.15 270.004C1004.32 269.861 1004.5 269.706 1004.69 269.54C1004.88 269.373 1005.11 269.23 1005.4 269.111C1005.69 268.992 1005.96 268.873 1006.22 268.754C1006.48 268.635 1006.79 268.552 1007.15 268.504C1007.51 268.456 1007.88 268.421 1008.26 268.397C1011.26 268.397 1012.89 269.742 1013.15 272.433C1013.17 272.599 1013.19 274.254 1013.19 277.397V280.468C1013.19 281.373 1013.21 281.909 1013.26 282.075C1013.31 282.242 1013.44 282.361 1013.65 282.433C1014.15 282.504 1014.73 282.54 1015.4 282.54H1015.97V284.183H1015.69L1014.86 284.147C1014.29 284.123 1013.69 284.111 1013.04 284.111C1012.4 284.111 1011.95 284.099 1011.69 284.075C1009.23 284.075 1007.9 284.111 1007.69 284.183H1007.4V282.54H1007.97C1009.42 282.54 1010.15 282.349 1010.15 281.968C1010.17 281.921 1010.19 280.278 1010.19 277.04C1010.16 273.825 1010.14 272.123 1010.11 271.933C1009.97 271.266 1009.73 270.766 1009.4 270.433C1009.07 270.099 1008.78 269.897 1008.54 269.825C1008.31 269.754 1008 269.73 1007.61 269.754C1006.54 269.754 1005.6 270.159 1004.79 270.968C1004.15 271.611 1003.75 272.266 1003.58 272.933C1003.41 273.599 1003.32 274.587 1003.29 275.897V278.183V280.325C1003.29 281.04 1003.31 281.516 1003.33 281.754C1003.35 281.992 1003.39 282.147 1003.44 282.218C1003.48 282.29 1003.59 282.361 1003.76 282.433C1004.26 282.504 1004.84 282.54 1005.51 282.54H1006.08V284.183H1005.79L1004.94 284.147C1004.39 284.123 1003.79 284.111 1003.15 284.111C1002.51 284.111 1002.06 284.099 1001.79 284.075C999.341 284.075 998.007 284.111 997.793 284.183H997.507V282.54H998.079C999.531 282.54 1000.26 282.349 1000.26 281.968C1000.28 281.921 1000.29 280.278 1000.29 277.04C1000.27 273.825 1000.25 272.123 1000.22 271.933C1000.08 271.266 999.841 270.766 999.507 270.433C999.174 270.099 998.888 269.897 998.65 269.825C998.412 269.754 998.103 269.73 997.722 269.754C996.65 269.754 995.71 270.159 994.9 270.968C994.257 271.611 993.853 272.266 993.686 272.933C993.519 273.599 993.424 274.587 993.4 275.897V278.183V280.325C993.4 281.04 993.412 281.516 993.436 281.754C993.46 281.992 993.496 282.147 993.543 282.218C993.591 282.29 993.698 282.361 993.865 282.433C994.365 282.504 994.948 282.54 995.615 282.54H996.186V284.183H995.9L995.079 284.147C994.507 284.123 993.9 284.111 993.257 284.111C992.615 284.111 992.162 284.099 991.9 284.075C989.448 284.075 988.115 284.111 987.9 284.183H987.615V282.54H988.186Z" fill="black"/>
<path d="M1747.43 283.061C1747.43 195.02 1596.86 123.648 1411.13 123.648C1225.41 123.648 1074.84 195.02 1074.84 283.061" stroke="#3090FF" stroke-width="3" stroke-dasharray="6 6"/>
<path d="M1536.01 474.5C1521.9 476.636 1498.48 432 1492.01 409.5C1485.55 387 1471.44 319.308 1485.55 317.172" stroke="#3090FF" stroke-width="3" stroke-dasharray="6 6"/>
<path d="M1411.14 63.1849C1558.83 63.1851 1684.52 124.082 1729.51 209.032L1729.56 209.12L1729.59 209.216L1731.2 214.652C1735.26 223.646 1737.4 232.96 1737.4 242.5C1737.4 262.37 1728.13 281.22 1711.54 298.276C1694.95 315.327 1670.99 330.637 1641.46 343.473C1582.41 369.146 1500.89 385 1410.9 385C1320.91 385 1239.4 369.146 1180.34 343.473C1150.81 330.637 1126.85 315.327 1110.26 298.276C1093.67 281.22 1084.4 262.37 1084.4 242.5C1084.4 230.783 1087.62 219.41 1093.68 208.552L1096.06 203.1L1096.08 203.047L1096.11 202.996C1143.76 121.216 1266.95 63.1849 1411.14 63.1849ZM1411.76 212.768C1352.14 212.768 1301.45 237.368 1282.84 271.659C1301.45 305.949 1352.14 330.548 1411.76 330.548C1471.38 330.548 1522.08 305.949 1540.68 271.659C1522.08 237.368 1471.38 212.768 1411.76 212.768Z" fill="#D9D9D9" fill-opacity="0.3"/>
<path d="M1410.9 100C1490.06 100 1562.65 112.267 1619.17 132.689C1672.65 152.012 1711.93 178.71 1728.59 209.408L1729.51 209.032C1740.97 230.668 1747.19 253.865 1747.19 278C1747.19 337.503 1709.4 391.23 1648.59 430.033C1587.78 468.843 1503.82 492.815 1411.13 492.815C1318.45 492.815 1234.49 468.843 1173.68 430.033C1112.87 391.23 1075.08 337.503 1075.08 278C1075.08 251.605 1082.52 226.332 1096.11 202.997L1096.82 203.355C1115.78 174.223 1155.34 149.024 1207.93 130.812C1263.66 111.518 1334.2 100 1410.9 100ZM1411.76 212.769C1352.14 212.769 1301.45 237.368 1282.84 271.658C1301.45 305.949 1352.14 330.548 1411.76 330.548C1471.38 330.548 1522.08 305.949 1540.68 271.658C1522.08 237.368 1471.38 212.769 1411.76 212.769Z" fill="#82D5FF" fill-opacity="0.3"/>
<path d="M1410.9 384C1590.67 384 1736.4 320.648 1736.4 242.5C1736.4 233.091 1734.29 223.896 1730.26 215L1728.63 209.5C1683.88 125.01 1558.64 64.1849 1411.13 64.1849C1267.15 64.1849 1144.37 122.145 1096.98 203.5L1094.58 209C1088.58 219.74 1085.4 230.958 1085.4 242.5C1085.4 320.648 1231.13 384 1410.9 384Z" stroke="black" stroke-width="2"/>
<path d="M1411.13 491.815C1596.18 491.815 1746.19 396.087 1746.19 278C1746.19 254.042 1740.02 231.005 1728.63 209.5L1730.26 215C1700.81 150.014 1569.02 101 1410.9 101C1257.68 101 1129.19 147.021 1094.58 209L1096.98 203.5C1083.46 226.698 1076.08 251.799 1076.08 278C1076.08 396.087 1226.09 491.815 1411.13 491.815Z" stroke="black" stroke-width="2"/>
<path d="M1410.9 101.5C1500.73 101.5 1582.04 117.33 1640.86 142.903C1670.28 155.69 1694.05 170.903 1710.46 187.771C1726.87 204.636 1735.9 223.13 1735.9 242.5C1735.9 261.87 1726.87 280.364 1710.46 297.229C1694.05 314.097 1670.28 329.31 1640.86 342.097C1582.04 367.67 1500.73 383.5 1410.9 383.5C1321.07 383.5 1239.76 367.67 1180.94 342.097C1151.52 329.31 1127.75 314.097 1111.34 297.229C1094.93 280.364 1085.9 261.87 1085.9 242.5C1085.9 223.13 1094.93 204.636 1111.34 187.771C1127.75 170.903 1151.52 155.69 1180.94 142.903C1239.76 117.33 1321.07 101.5 1410.9 101.5Z" stroke="black"/>
<path d="M1275.49 248.102C1279.85 294.106 1339.19 330.548 1411.76 330.548C1484.8 330.548 1544.45 293.627 1548.11 247.196" stroke="black" stroke-width="2"/>
<path d="M1540.77 271.822C1522.24 237.446 1471.48 212.768 1411.76 212.768C1352.14 212.768 1301.45 237.367 1282.84 271.658" stroke="black" stroke-width="2"/>
<path d="M1566.03 427.777C1566.05 427.702 1566.08 427.603 1566.1 427.479C1566.13 427.355 1566.19 427.082 1566.29 426.661C1566.39 426.239 1566.52 425.855 1566.67 425.508C1566.82 425.161 1567.01 424.751 1567.24 424.28C1567.47 423.809 1567.72 423.437 1568 423.164C1568.27 422.892 1568.6 422.619 1568.98 422.346C1569.36 422.073 1569.78 421.962 1570.23 422.011C1570.84 422.011 1571.38 422.098 1571.86 422.272C1572.34 422.445 1572.72 422.669 1572.99 422.941C1573.27 423.214 1573.47 423.487 1573.6 423.76C1573.73 424.032 1573.83 424.268 1573.9 424.466L1573.98 424.727C1573.98 424.776 1573.99 424.801 1574.02 424.801L1574.43 424.392C1575.97 422.805 1577.73 422.011 1579.69 422.011C1581.06 422.011 1582.15 422.346 1582.99 423.016C1583.82 423.685 1584.25 424.665 1584.27 425.954V426.326C1584.27 426.921 1583.47 430.306 1581.85 436.48C1580.39 442.307 1579.61 445.308 1579.5 445.481C1579.18 446.151 1578.61 446.486 1577.8 446.486C1577.47 446.486 1577.2 446.386 1576.97 446.188C1576.74 445.99 1576.6 445.717 1576.55 445.37C1576.55 445.147 1577.3 442.134 1578.79 436.331L1581.13 427.033C1581.21 426.661 1581.25 426.19 1581.25 425.619C1581.25 424.156 1580.69 423.425 1579.58 423.425H1579.39C1577.22 423.425 1575.39 424.677 1573.9 427.182L1573.64 427.628L1572.39 432.612C1571.55 435.86 1571.08 437.608 1570.95 437.856C1570.62 438.526 1570.08 438.861 1569.32 438.861C1568.99 438.861 1568.73 438.786 1568.53 438.637C1568.32 438.489 1568.19 438.34 1568.11 438.191C1568.03 438.042 1568.01 437.918 1568.03 437.819C1568.03 437.497 1568.54 435.364 1569.55 431.422C1570.56 427.479 1571.06 425.285 1571.06 424.838C1571.06 423.871 1570.73 423.388 1570.08 423.388C1569.55 423.388 1569.09 423.735 1568.72 424.429C1568.34 425.123 1568.03 425.88 1567.81 426.698C1567.58 427.516 1567.44 427.963 1567.39 428.037C1567.34 428.087 1567.14 428.111 1566.79 428.111H1566.26C1566.1 427.963 1566.03 427.851 1566.03 427.777Z" fill="black"/>
<path d="M1747.84 282.662C1747.84 337.756 1668.99 385.304 1555.01 407.389M1074.84 282.662C1074.84 358.817 1225.5 420.553 1411.34 420.553C1440.59 420.553 1492.46 416.873 1519.51 414" stroke="#3090FF" stroke-width="3"/>
<path d="M1485.43 315.677C1484.62 315.801 1484 316.571 1484.07 317.397C1484.13 318.223 1484.84 318.792 1485.66 318.668L1485.55 317.173L1485.43 315.677ZM1485.55 317.173L1485.66 318.668C1488.49 318.24 1491.54 319.649 1494.7 323.239C1497.84 326.805 1500.87 332.299 1503.61 339.394C1509.08 353.564 1513.27 373.781 1515.03 396.725L1516.51 396.5L1518 396.275C1516.22 373.14 1511.99 352.625 1506.39 338.117C1503.59 330.873 1500.42 325.041 1496.98 321.134C1493.57 317.251 1489.66 315.037 1485.43 315.677L1485.55 317.173ZM1516.51 396.5L1515.03 396.725C1515.53 403.301 1516.49 409.614 1516.53 415.619L1518.01 415.5L1519.5 415.381C1519.46 409.257 1518.48 402.531 1518 396.275L1516.51 396.5Z" fill="#3090FF"/>
<path d="M1536.31 474.597C1548.48 472.755 1556.53 443.442 1556.25 405.862" stroke="#3090FF" stroke-width="3"/>
<path d="M1729.74 170.221C1729.76 170.156 1729.79 170.068 1729.81 169.958C1729.83 169.849 1729.88 169.608 1729.97 169.235C1730.05 168.863 1730.16 168.523 1730.29 168.216C1730.42 167.909 1730.58 167.548 1730.77 167.131C1730.97 166.715 1731.18 166.386 1731.42 166.145C1731.65 165.904 1731.93 165.663 1732.25 165.422C1732.57 165.18 1732.93 165.082 1733.31 165.126C1733.83 165.126 1734.29 165.202 1734.7 165.356C1735.1 165.509 1735.43 165.706 1735.66 165.948C1735.9 166.189 1736.07 166.43 1736.18 166.671C1736.28 166.912 1736.37 167.12 1736.43 167.295L1736.5 167.526C1736.5 167.569 1736.51 167.591 1736.53 167.591L1736.88 167.23C1738.19 165.827 1739.68 165.126 1741.35 165.126C1742.51 165.126 1743.45 165.422 1744.15 166.013C1744.86 166.605 1745.23 167.471 1745.25 168.61V168.939C1745.25 169.465 1744.56 172.457 1743.19 177.914C1741.94 183.065 1741.28 185.717 1741.19 185.87C1740.92 186.462 1740.43 186.758 1739.75 186.758C1739.47 186.758 1739.23 186.67 1739.04 186.495C1738.85 186.319 1738.73 186.078 1738.69 185.772C1738.69 185.574 1739.32 182.911 1740.58 177.783L1742.58 169.564C1742.64 169.235 1742.67 168.819 1742.67 168.315C1742.67 167.021 1742.2 166.375 1741.26 166.375H1741.1C1739.25 166.375 1737.7 167.482 1736.43 169.695L1736.21 170.09L1735.15 174.495C1734.44 177.366 1734.03 178.911 1733.92 179.131C1733.65 179.722 1733.18 180.018 1732.54 180.018C1732.26 180.018 1732.04 179.953 1731.87 179.821C1731.69 179.69 1731.58 179.558 1731.51 179.427C1731.45 179.295 1731.43 179.185 1731.45 179.098C1731.45 178.813 1731.88 176.928 1732.73 173.443C1733.59 169.958 1734.02 168.019 1734.02 167.624C1734.02 166.769 1733.74 166.342 1733.18 166.342C1732.73 166.342 1732.35 166.649 1732.03 167.263C1731.71 167.876 1731.45 168.545 1731.25 169.268C1731.06 169.991 1730.94 170.386 1730.9 170.452C1730.86 170.495 1730.69 170.517 1730.39 170.517H1729.94C1729.81 170.386 1729.74 170.287 1729.74 170.221Z" fill="black"/>
<path d="M1750.87 157.762C1750.87 157.564 1751 157.378 1751.25 157.203H1761.48L1761.71 157.334C1761.92 157.641 1761.92 157.904 1761.71 158.123C1761.56 158.277 1761.19 158.353 1760.61 158.353C1759.97 158.419 1759.59 158.496 1759.49 158.583C1759.23 158.671 1759.09 158.868 1759.07 159.175C1759.05 159.482 1759.02 160.863 1758.97 163.318V167.493H1766.85V163.318C1766.85 162.835 1766.84 162.222 1766.82 161.476C1766.8 160.118 1766.77 159.318 1766.72 159.077C1766.68 158.835 1766.56 158.671 1766.37 158.583H1766.34C1766.21 158.496 1765.82 158.419 1765.18 158.353C1764.34 158.353 1763.93 158.167 1763.93 157.794C1763.93 157.641 1763.99 157.488 1764.12 157.334L1764.34 157.203H1774.57C1774.81 157.356 1774.93 157.542 1774.93 157.762C1774.93 158.156 1774.52 158.353 1773.7 158.353C1772.85 158.419 1772.34 158.594 1772.19 158.879C1772.15 159.011 1772.13 162.2 1772.13 168.446C1772.13 174.671 1772.15 177.838 1772.19 177.947C1772.34 178.254 1772.85 178.44 1773.7 178.506C1774.52 178.506 1774.93 178.714 1774.93 179.131C1774.93 179.35 1774.81 179.536 1774.57 179.69H1764.34L1764.12 179.558C1763.99 179.405 1763.93 179.251 1763.93 179.098C1763.93 178.703 1764.34 178.506 1765.18 178.506C1766.08 178.44 1766.58 178.254 1766.69 177.947C1766.8 177.684 1766.85 176.172 1766.85 173.41V169.038H1758.97V173.41C1758.97 176.26 1759.03 177.772 1759.13 177.947C1759.24 178.254 1759.73 178.44 1760.61 178.506C1761.15 178.506 1761.51 178.583 1761.71 178.736C1761.9 178.977 1761.9 179.251 1761.71 179.558L1761.48 179.69H1751.25C1751 179.558 1750.87 179.372 1750.87 179.131C1750.87 178.714 1751.28 178.506 1752.12 178.506C1753 178.44 1753.49 178.254 1753.6 177.947C1753.71 177.772 1753.76 174.605 1753.76 168.446C1753.76 162.287 1753.71 159.098 1753.6 158.879C1753.47 158.594 1752.98 158.419 1752.12 158.353C1751.28 158.353 1750.87 158.156 1750.87 157.762ZM1757.91 168.446V161.476C1757.91 159.679 1757.98 158.638 1758.1 158.353H1754.63C1754.69 158.507 1754.74 158.616 1754.76 158.682C1754.78 158.748 1754.8 159.131 1754.82 159.833C1754.84 160.534 1754.87 161.476 1754.89 162.66C1754.91 163.844 1754.91 165.772 1754.89 168.446C1754.89 173.049 1754.88 175.81 1754.86 176.731C1754.83 177.651 1754.77 178.221 1754.66 178.44C1754.64 178.462 1754.63 178.484 1754.63 178.506H1758.1C1757.98 178.243 1757.91 177.213 1757.91 175.416V168.446ZM1770.97 168.446V163.581C1770.97 162.287 1770.97 161.334 1770.97 160.72C1770.97 160.107 1770.98 159.624 1771 159.274C1771.02 158.923 1771.05 158.715 1771.07 158.649C1771.09 158.583 1771.13 158.485 1771.2 158.353H1767.69L1767.85 158.649C1767.94 158.956 1767.98 162.222 1767.98 168.446C1767.98 173.071 1767.97 175.843 1767.95 176.764C1767.93 177.684 1767.85 178.243 1767.72 178.44C1767.7 178.462 1767.69 178.484 1767.69 178.506H1771.2C1771.13 178.375 1771.1 178.298 1771.1 178.276C1771.1 178.254 1771.08 178.112 1771.03 177.849C1770.99 177.586 1770.97 177.268 1770.97 176.895C1770.97 176.523 1770.97 175.909 1770.97 175.054V168.446Z" fill="black"/>
<path d="M1775.92 177.917C1775.93 177.871 1775.95 177.809 1775.96 177.731C1775.98 177.654 1776.02 177.483 1776.08 177.22C1776.14 176.957 1776.21 176.716 1776.31 176.499C1776.4 176.283 1776.51 176.027 1776.65 175.732C1776.78 175.438 1776.93 175.206 1777.1 175.035C1777.27 174.865 1777.47 174.694 1777.69 174.524C1777.92 174.353 1778.17 174.284 1778.44 174.315C1778.81 174.315 1779.13 174.369 1779.42 174.477C1779.71 174.586 1779.94 174.725 1780.1 174.896C1780.27 175.066 1780.39 175.237 1780.47 175.407C1780.54 175.577 1780.6 175.725 1780.65 175.849L1780.69 176.011C1780.69 176.042 1780.7 176.058 1780.72 176.058L1780.97 175.802C1781.89 174.81 1782.95 174.315 1784.13 174.315C1784.95 174.315 1785.61 174.524 1786.11 174.942C1786.61 175.361 1786.87 175.973 1786.88 176.778V177.011C1786.88 177.383 1786.4 179.498 1785.42 183.356C1784.55 186.998 1784.08 188.872 1784.01 188.981C1783.82 189.399 1783.48 189.609 1782.99 189.609C1782.79 189.609 1782.63 189.547 1782.49 189.423C1782.35 189.299 1782.27 189.128 1782.24 188.911C1782.24 188.772 1782.69 186.889 1783.58 183.263L1784.99 177.452C1785.04 177.22 1785.06 176.926 1785.06 176.569C1785.06 175.655 1784.73 175.198 1784.06 175.198H1783.95C1782.64 175.198 1781.54 175.98 1780.65 177.545L1780.49 177.824L1779.74 180.939C1779.24 182.969 1778.95 184.061 1778.88 184.216C1778.68 184.634 1778.35 184.844 1777.9 184.844C1777.7 184.844 1777.54 184.797 1777.42 184.704C1777.3 184.611 1777.22 184.518 1777.17 184.425C1777.12 184.332 1777.11 184.255 1777.12 184.193C1777.12 183.991 1777.43 182.659 1778.03 180.195C1778.64 177.731 1778.94 176.36 1778.94 176.081C1778.94 175.477 1778.75 175.175 1778.35 175.175C1778.03 175.175 1777.76 175.392 1777.53 175.825C1777.31 176.259 1777.12 176.732 1776.99 177.243C1776.85 177.755 1776.77 178.033 1776.74 178.08C1776.71 178.111 1776.59 178.126 1776.37 178.126H1776.06C1775.96 178.033 1775.92 177.964 1775.92 177.917Z" fill="black"/>
<path d="M1791.38 171.438C1791.38 169.926 1791.48 168.49 1791.7 167.131C1791.91 165.772 1792.16 164.6 1792.44 163.613C1792.72 162.627 1793.11 161.663 1793.63 160.72C1794.14 159.778 1794.55 159.044 1794.85 158.518C1795.15 157.992 1795.6 157.422 1796.2 156.808C1796.8 156.194 1797.16 155.822 1797.26 155.69C1797.37 155.559 1797.64 155.329 1798.07 155H1798.49H1798.61C1798.91 155 1799.06 155.099 1799.06 155.296C1799.06 155.362 1798.88 155.592 1798.52 155.986C1798.15 156.381 1797.71 156.962 1797.2 157.729C1796.68 158.496 1796.16 159.438 1795.62 160.556C1795.09 161.674 1794.64 163.186 1794.27 165.093C1793.91 167 1793.72 169.115 1793.72 171.438C1793.72 173.761 1793.91 175.865 1794.27 177.75C1794.64 179.635 1795.08 181.158 1795.59 182.32C1796.1 183.481 1796.63 184.424 1797.17 185.147C1797.7 185.87 1798.15 186.451 1798.52 186.889C1798.88 187.328 1799.06 187.558 1799.06 187.58C1799.06 187.777 1798.9 187.876 1798.58 187.876H1798.49H1798.07L1797.17 187.087C1795.15 185.224 1793.68 182.9 1792.76 180.117C1791.84 177.333 1791.38 174.44 1791.38 171.438Z" fill="black"/>
<path d="M1822.29 171.536C1822.24 171.602 1822.09 172.928 1821.84 175.514C1821.58 178.101 1821.43 179.438 1821.39 179.525V179.657H1812.16C1807.44 179.657 1804.69 179.657 1803.92 179.657C1803.15 179.657 1802.74 179.602 1802.7 179.492V179.459C1802.63 179.328 1802.63 179.207 1802.7 179.098L1803.21 178.473C1803.56 178.079 1804.07 177.487 1804.76 176.698C1805.44 175.909 1806.1 175.153 1806.72 174.429L1810.68 169.827L1802.67 158.485L1802.63 158.025C1802.63 157.608 1802.69 157.356 1802.8 157.268C1802.86 157.225 1805.98 157.203 1812.16 157.203H1821.39V157.334C1821.43 157.444 1821.58 158.704 1821.84 161.115C1822.09 163.526 1822.24 164.808 1822.29 164.961V165.093H1821V164.961C1820.83 163.69 1820.59 162.638 1820.29 161.805C1819.99 160.972 1819.51 160.293 1818.85 159.767C1818.2 159.307 1817.33 159.022 1816.24 158.912C1815.15 158.803 1813.59 158.737 1811.58 158.715H1810.32H1806.94L1810.29 163.416C1810.74 164.052 1811.3 164.841 1811.96 165.783C1813.14 167.449 1813.73 168.347 1813.73 168.479C1813.73 168.523 1813.72 168.556 1813.7 168.578L1805.82 177.783C1811.24 177.783 1814.18 177.772 1814.63 177.75C1815.66 177.706 1816.52 177.596 1817.21 177.421C1817.89 177.246 1818.35 177.081 1818.59 176.928C1818.82 176.775 1819.08 176.555 1819.36 176.27C1819.79 175.788 1820.14 175.142 1820.42 174.331C1820.7 173.52 1820.87 172.83 1820.94 172.26L1821 171.405H1822.29V171.536Z" fill="black"/>
<path d="M1826.02 155.033L1826.15 155C1826.25 155 1826.36 155 1826.47 155H1826.86L1827.76 155.789C1829.77 157.652 1831.24 159.975 1832.16 162.759C1833.08 165.542 1833.55 168.435 1833.55 171.438C1833.55 172.928 1833.44 174.364 1833.22 175.744C1833.01 177.125 1832.76 178.298 1832.48 179.262C1832.21 180.227 1831.81 181.191 1831.29 182.155C1830.78 183.12 1830.37 183.854 1830.07 184.358C1829.77 184.862 1829.33 185.421 1828.75 186.035C1828.17 186.648 1827.83 187.01 1827.72 187.119C1827.62 187.229 1827.37 187.437 1826.98 187.744C1826.92 187.81 1826.88 187.854 1826.86 187.876H1826.47C1826.3 187.876 1826.18 187.876 1826.12 187.876C1826.05 187.876 1826 187.843 1825.95 187.777C1825.91 187.711 1825.88 187.613 1825.86 187.481C1825.88 187.459 1826 187.317 1826.21 187.054C1829.54 183.525 1831.2 178.32 1831.2 171.438C1831.2 164.556 1829.54 159.351 1826.21 155.822C1826 155.559 1825.88 155.416 1825.86 155.395C1825.86 155.219 1825.91 155.099 1826.02 155.033Z" fill="black"/>
</svg>
