<svg width="721" height="123" viewBox="0 0 721 123" fill="none" xmlns="http://www.w3.org/2000/svg">
<g clip-path="url(#clip0_1_25)">
<rect width="721" height="123" fill="white"/>
<path d="M168.043 117.026C168.043 118.03 167.764 119 167.204 119.935C166.645 120.87 165.924 121.617 165.042 122.176C164.159 122.735 163.255 123.015 162.329 123.015C161.481 123.015 160.756 122.766 160.153 122.268C159.55 121.77 159.17 121.045 159.013 120.092C159.004 120.023 159 119.835 159 119.529C159 118.638 159.21 117.79 159.629 116.986C160.048 116.182 160.612 115.47 161.32 114.85C162.403 113.95 163.491 113.5 164.583 113.5C164.915 113.5 165.125 113.504 165.212 113.513C166.06 113.635 166.741 114.011 167.257 114.64C167.772 115.269 168.035 116.064 168.043 117.026ZM166.693 116.488C166.693 115.711 166.492 115.103 166.09 114.666C165.689 114.23 165.186 114.011 164.583 114.011C163.884 114.011 163.211 114.273 162.565 114.798C161.866 115.348 161.333 116.121 160.966 117.117C160.599 118.113 160.411 119.04 160.402 119.896C160.402 120.682 160.59 121.307 160.966 121.77C161.342 122.233 161.84 122.469 162.46 122.478C163.246 122.478 163.993 122.133 164.701 121.442C165.409 120.752 165.946 119.813 166.313 118.625C166.567 117.794 166.693 117.082 166.693 116.488Z" fill="black"/>
<circle cx="364.5" cy="81" r="2.5" fill="black"/>
<path d="M367.986 88.9701C367.997 88.9383 368.007 88.8959 368.018 88.8429C368.028 88.7898 368.055 88.6732 368.097 88.493C368.14 88.3127 368.193 88.1484 368.256 87.9999C368.32 87.8515 368.4 87.6765 368.495 87.4751C368.59 87.2736 368.696 87.1146 368.813 86.9979C368.93 86.8813 369.068 86.7647 369.227 86.648C369.386 86.5314 369.561 86.4837 369.751 86.5049C370.547 86.5049 371.056 86.8442 371.278 87.5228L371.437 87.3796C372.095 86.7965 372.72 86.5049 373.314 86.5049C374.003 86.5049 374.544 86.7541 374.936 87.2524C375.329 87.7508 375.525 88.3551 375.525 89.0655C375.525 90.2107 375.122 91.2657 374.316 92.2305C373.51 93.1954 372.598 93.6832 371.581 93.6938C371.347 93.6938 371.14 93.662 370.96 93.5983C370.844 93.5453 370.722 93.4658 370.594 93.3598C370.467 93.2537 370.366 93.1636 370.292 93.0894L370.181 92.9621C370.17 92.9728 370.054 93.434 369.831 94.3458C369.608 95.2577 369.497 95.7189 369.497 95.7295C369.497 95.7932 369.539 95.8303 369.624 95.8409C369.709 95.8515 369.905 95.8674 370.213 95.8886H370.61C370.674 95.9628 370.706 96.0105 370.706 96.0317C370.706 96.0529 370.69 96.1484 370.658 96.318C370.626 96.4453 370.594 96.5248 370.563 96.5566C370.531 96.5884 370.462 96.6096 370.356 96.6202C370.335 96.6202 370.276 96.6202 370.181 96.6202C370.085 96.6202 369.905 96.6149 369.64 96.6043C369.375 96.5937 369.046 96.5884 368.654 96.5884C367.912 96.5884 367.44 96.599 367.239 96.6202H367.111C367.037 96.546 367 96.4877 367 96.4453C367.021 96.159 367.09 95.9734 367.207 95.8886H367.525C367.885 95.878 368.092 95.8144 368.145 95.6977C368.177 95.6341 368.5 94.3671 369.115 91.8965C369.73 89.426 370.054 88.1166 370.085 87.9681C370.096 87.9151 370.101 87.8409 370.101 87.7454C370.101 87.3107 369.969 87.0934 369.704 87.0934C369.471 87.0934 369.274 87.2418 369.115 87.5387C368.956 87.8356 368.834 88.159 368.75 88.5089C368.665 88.8588 368.601 89.0496 368.559 89.0814C368.537 89.1026 368.453 89.1132 368.304 89.1132H368.082C368.018 89.0496 367.986 89.0019 367.986 88.9701ZM370.451 91.9124C370.685 92.7183 371.077 93.1212 371.628 93.1212C371.946 93.1212 372.254 92.9993 372.551 92.7554C372.848 92.5115 373.091 92.204 373.282 91.8329C373.473 91.4724 373.664 90.8999 373.855 90.1152C374.046 89.3306 374.146 88.7474 374.157 88.3657V88.2703C374.157 87.4857 373.834 87.0934 373.187 87.0934C373.07 87.0934 372.954 87.1093 372.837 87.1411C372.72 87.1729 372.604 87.2206 372.487 87.2842C372.37 87.3478 372.264 87.4168 372.169 87.491C372.074 87.5652 371.983 87.6447 371.899 87.7295C371.814 87.8144 371.734 87.8939 371.66 87.9681C371.586 88.0423 371.528 88.1166 371.485 88.1908C371.443 88.265 371.4 88.318 371.358 88.3498L371.31 88.4134C371.31 88.424 371.294 88.4983 371.262 88.6361C371.231 88.7739 371.172 89.0072 371.087 89.3359C371.003 89.6646 370.928 89.9403 370.865 90.1629C370.589 91.2869 370.451 91.87 370.451 91.9124Z" fill="black"/>
<circle cx="161.5" cy="104" r="2.5" fill="black"/>
<path d="M562 2L159 104.5L562 118" stroke="black"/>
</g>
<defs>
<clipPath id="clip0_1_25">
<rect width="721" height="123" fill="white"/>
</clipPath>
</defs>
</svg>
