<svg width="1510" height="546" viewBox="0 0 1510 546" fill="none" xmlns="http://www.w3.org/2000/svg">
<rect width="1510" height="546" fill="white"/>
<path d="M879.238 402L1144 464.657L1013.19 514L750 452.126L879.238 402Z" fill="#D9D9D9" stroke="black"/>
<path d="M881 318.204L883.383 317.494C1005 281.268 1047.5 285.5 1096 297.5L1356 355.5C1313 346.975 1239 343 1143.71 381L881 318.204Z" fill="#D9D9D9"/>
<path d="M881 318.204L1143.71 381C1239 343 1313 346.975 1356 355.5L1096 297.5C1047.5 285.5 1005 281.268 883.383 317.494M881 318.204C881.798 317.966 882.592 317.73 883.383 317.494M881 318.204L883.383 317.494" stroke="black"/>
<path d="M171 355.5L644 503C429.5 436.11 428.5 436.11 428.5 285C428.5 224 404.771 215.62 397 272C375.292 429.5 407.5 429.25 171 355.5Z" fill="#D9D9D9" stroke="black"/>
<mask id="mask0_1_113" style="mask-type:alpha" maskUnits="userSpaceOnUse" x="170" y="258" width="230" height="146">
<path d="M171 355.5C407.5 429.25 375.292 429.5 397 272C397.662 267.2 398.439 262.869 399.307 259" stroke="black" stroke-dasharray="2 2"/>
</mask>
<g mask="url(#mask0_1_113)">
<rect x="-2" y="24" width="760" height="623" fill="#D9D9D9"/>
</g>
<path d="M424 26.9999C433 31.5 439.5 31.5 448 26.9999C443 24 432 23 424 26.9999Z" fill="#D9D9D9"/>
<path d="M253.5 459C345.5 436 417.5 325 424 26.9999M424 26.9999C433 31.5 439.5 31.5 448 26.9999M424 26.9999C432 23 443 24 448 26.9999M448 26.9999C448 290.5 497 400.5 592.5 374.5" stroke="black"/>
<path d="M679.5 514L675.586 509.756L673.867 515.268L679.5 514ZM146.851 348.477L675.055 513.138L675.353 512.183L147.149 347.523L146.851 348.477Z" fill="black"/>
<line x1="436.25" y1="0.25" x2="436.25" y2="423.75" stroke="black" stroke-width="0.5" stroke-linecap="square" stroke-dasharray="2 2"/>
<line x1="436.073" y1="424.239" x2="413.073" y2="431.239" stroke="black" stroke-width="0.5" stroke-dasharray="2 2"/>
<path d="M451 398.534C451 398.534 451 398.417 451 398.181C451 397.945 451.127 397.764 451.381 397.637H459.515V393.556L459.542 389.476C459.723 389.24 459.896 389.122 460.059 389.122C460.295 389.122 460.476 389.258 460.603 389.53V397.637H468.71C468.982 397.782 469.118 397.963 469.118 398.181C469.118 398.398 468.982 398.58 468.71 398.725H460.603V406.832C460.458 407.086 460.295 407.213 460.113 407.213H460.059H460.005C459.787 407.213 459.624 407.086 459.515 406.832V398.725H451.381C451.127 398.598 451 398.417 451 398.181V398.534Z" fill="black"/>
<path d="M475.647 388.659C475.647 388.224 475.819 387.843 476.164 387.517C476.508 387.19 476.907 387.018 477.361 387C477.687 387 477.959 387.109 478.177 387.326C478.394 387.544 478.512 387.816 478.53 388.143C478.53 388.56 478.349 388.941 477.986 389.285C477.624 389.63 477.225 389.811 476.789 389.829C476.517 389.829 476.263 389.739 476.028 389.557C475.792 389.376 475.665 389.077 475.647 388.659ZM471.213 397.174C471.213 397.029 471.294 396.748 471.457 396.331C471.621 395.914 471.838 395.451 472.11 394.944C472.382 394.436 472.781 393.973 473.307 393.556C473.833 393.139 474.377 392.94 474.94 392.958C475.647 392.958 476.236 393.166 476.708 393.583C477.179 394 477.424 394.563 477.442 395.27C477.442 395.578 477.315 396.086 477.061 396.793C476.808 397.501 476.445 398.453 475.973 399.65C475.502 400.847 475.121 401.872 474.831 402.724C474.74 403.123 474.695 403.413 474.695 403.594C474.695 404.048 474.849 404.275 475.157 404.275C475.32 404.275 475.493 404.247 475.674 404.193C475.855 404.139 476.064 404.012 476.3 403.812C476.535 403.613 476.78 403.295 477.034 402.86C477.288 402.425 477.515 401.89 477.714 401.255C477.769 401.037 477.814 400.91 477.85 400.874C477.887 400.838 478.041 400.82 478.313 400.82C478.676 400.82 478.857 400.91 478.857 401.092C478.857 401.237 478.775 401.518 478.612 401.935C478.449 402.352 478.222 402.815 477.932 403.322C477.642 403.83 477.234 404.284 476.708 404.683C476.182 405.082 475.62 405.281 475.021 405.281C474.441 405.281 473.906 405.091 473.416 404.71C472.926 404.329 472.673 403.749 472.654 402.969C472.654 402.66 472.7 402.37 472.79 402.098C472.881 401.826 473.271 400.792 473.96 398.997C474.649 397.165 475.048 396.068 475.157 395.705C475.266 395.343 475.329 394.989 475.348 394.644C475.348 394.209 475.193 393.991 474.885 393.991H474.831C474.287 393.991 473.788 394.291 473.334 394.889C472.881 395.488 472.536 396.249 472.301 397.174C472.283 397.192 472.264 397.22 472.246 397.256C472.228 397.292 472.219 397.319 472.219 397.338C472.219 397.356 472.201 397.374 472.165 397.392C472.128 397.41 472.101 397.419 472.083 397.419C472.065 397.419 472.029 397.419 471.974 397.419C471.92 397.419 471.847 397.419 471.757 397.419H471.376C471.267 397.31 471.213 397.229 471.213 397.174Z" fill="black"/>
<path d="M486.202 405.281C484.787 405.281 483.59 404.81 482.611 403.866C481.632 402.923 481.133 401.717 481.115 400.248C481.115 398.652 481.541 397.31 482.393 396.222C483.01 395.406 483.79 394.735 484.733 394.209C485.676 393.683 486.71 393.375 487.834 393.284C487.87 393.266 488.251 393.257 488.977 393.257H490.011C490.283 393.348 490.419 393.529 490.419 393.801C490.419 394.273 490.047 394.508 489.303 394.508H488.868H488.514C486.32 394.508 484.887 395.488 484.216 397.446L484.107 397.773H488.922C489.158 397.936 489.276 398.108 489.276 398.29C489.276 398.616 489.095 398.861 488.732 399.024H483.781V399.079C483.599 399.623 483.509 400.294 483.509 401.092C483.509 402.289 483.799 403.114 484.379 403.567C484.96 404.021 485.603 404.256 486.311 404.275C486.8 404.275 487.281 404.184 487.753 404.002C488.224 403.821 488.605 403.631 488.895 403.431C489.185 403.232 489.339 403.132 489.358 403.132C489.485 403.132 489.584 403.223 489.657 403.404C489.729 403.585 489.766 403.758 489.766 403.921C489.766 403.975 489.757 404.012 489.738 404.03C489.684 404.102 489.503 404.229 489.194 404.411C488.886 404.592 488.451 404.782 487.889 404.982C487.326 405.181 486.764 405.281 486.202 405.281Z" fill="black"/>
<circle cx="2" cy="2" r="2" transform="matrix(1 0 0 -1 434 426)" fill="black"/>
<path d="M632 374L626.435 372.461L627.885 378.05L632 374ZM231.126 478.484L627.77 375.614L627.519 374.646L230.874 477.516L231.126 478.484Z" fill="black"/>
<path d="M522.111 219.116L521.798 219.236C521.574 219.316 521.253 219.396 520.836 219.476C520.42 219.556 519.955 219.612 519.442 219.644H518.985V218.539H519.442C520.195 218.507 520.892 218.386 521.534 218.178C522.175 217.97 522.623 217.777 522.88 217.601C523.136 217.425 523.361 217.248 523.553 217.072C523.585 217.024 523.681 217 523.841 217C523.986 217 524.122 217.048 524.25 217.144V224.332L524.274 231.544C524.386 231.657 524.482 231.729 524.563 231.761C524.643 231.793 524.835 231.825 525.14 231.857C525.444 231.889 525.941 231.905 526.63 231.905H527.255V233.011H526.991C526.654 232.963 525.38 232.939 523.168 232.939C520.989 232.939 519.731 232.963 519.394 233.011H519.105V231.905H519.731C520.083 231.905 520.388 231.905 520.644 231.905C520.9 231.905 521.101 231.897 521.245 231.881C521.389 231.865 521.518 231.841 521.63 231.809C521.742 231.777 521.806 231.761 521.822 231.761C521.838 231.761 521.886 231.721 521.966 231.64C522.046 231.56 522.094 231.528 522.111 231.544V219.116Z" fill="black"/>
<path d="M493.654 258.806C493.766 258.133 494.199 257.356 494.952 256.474C495.706 255.593 496.635 255.144 497.741 255.128C498.302 255.128 498.815 255.272 499.28 255.56C499.744 255.849 500.089 256.21 500.313 256.642C500.986 255.633 501.796 255.128 502.741 255.128C503.334 255.128 503.847 255.304 504.28 255.657C504.713 256.009 504.937 256.482 504.953 257.075C504.953 257.54 504.841 257.916 504.616 258.205C504.392 258.493 504.176 258.67 503.967 258.734C503.759 258.798 503.575 258.83 503.414 258.83C503.11 258.83 502.862 258.742 502.669 258.566C502.477 258.389 502.381 258.157 502.381 257.868C502.381 257.131 502.781 256.626 503.583 256.354C503.406 256.145 503.086 256.041 502.621 256.041C502.413 256.041 502.261 256.057 502.164 256.089C501.555 256.346 501.107 256.875 500.818 257.676C499.856 261.218 499.376 263.285 499.376 263.878C499.376 264.327 499.504 264.648 499.76 264.84C500.017 265.032 500.297 265.129 500.602 265.129C501.195 265.129 501.78 264.864 502.357 264.335C502.934 263.806 503.326 263.157 503.535 262.388C503.583 262.228 503.631 262.14 503.679 262.123C503.727 262.107 503.855 262.091 504.064 262.075H504.16C504.4 262.075 504.52 262.14 504.52 262.268C504.52 262.284 504.504 262.372 504.472 262.532C504.216 263.446 503.719 264.255 502.982 264.96C502.244 265.665 501.387 266.018 500.409 266.018C499.288 266.018 498.438 265.513 497.861 264.503C497.204 265.497 496.451 265.994 495.601 265.994H495.457C494.672 265.994 494.111 265.786 493.774 265.369C493.438 264.952 493.261 264.511 493.245 264.047C493.245 263.534 493.398 263.117 493.702 262.797C494.007 262.476 494.367 262.316 494.784 262.316C495.473 262.316 495.818 262.652 495.818 263.325C495.818 263.646 495.722 263.926 495.529 264.167C495.337 264.407 495.153 264.568 494.976 264.648C494.8 264.728 494.696 264.768 494.664 264.768L494.592 264.792C494.592 264.808 494.64 264.84 494.736 264.888C494.832 264.936 494.96 264.992 495.121 265.056C495.281 265.12 495.433 265.145 495.577 265.129C496.154 265.129 496.651 264.768 497.068 264.047C497.212 263.79 497.396 263.245 497.621 262.412C497.845 261.579 498.069 260.713 498.294 259.816C498.518 258.918 498.646 258.389 498.679 258.229C498.759 257.796 498.799 257.484 498.799 257.291C498.799 256.843 498.679 256.522 498.438 256.33C498.198 256.137 497.925 256.041 497.621 256.041C496.98 256.041 496.379 256.298 495.818 256.811C495.257 257.323 494.864 257.981 494.64 258.782C494.608 258.926 494.568 259.006 494.52 259.022C494.471 259.038 494.343 259.054 494.135 259.07H493.798C493.702 258.974 493.654 258.886 493.654 258.806Z" fill="black"/>
<path d="M512.843 260.056C512.843 260.056 512.843 259.952 512.843 259.744C512.843 259.535 512.955 259.375 513.18 259.263H520.368V255.657L520.392 252.051C520.552 251.842 520.704 251.738 520.848 251.738C521.057 251.738 521.217 251.858 521.329 252.099V259.263H528.493C528.734 259.391 528.854 259.551 528.854 259.744C528.854 259.936 528.734 260.096 528.493 260.224H521.329V267.388C521.201 267.613 521.057 267.725 520.896 267.725H520.848H520.8C520.608 267.725 520.464 267.613 520.368 267.388V260.224H513.18C512.955 260.112 512.843 259.952 512.843 259.744V260.056Z" fill="black"/>
<path d="M539.965 251.329C539.965 250.945 540.117 250.608 540.422 250.32C540.726 250.031 541.079 249.879 541.48 249.863C541.768 249.863 542.009 249.959 542.201 250.151C542.393 250.344 542.497 250.584 542.513 250.873C542.513 251.241 542.353 251.578 542.033 251.882C541.712 252.187 541.36 252.347 540.975 252.363C540.734 252.363 540.51 252.283 540.302 252.123C540.093 251.962 539.981 251.698 539.965 251.329ZM536.047 258.854C536.047 258.726 536.119 258.477 536.263 258.109C536.407 257.74 536.6 257.331 536.84 256.883C537.08 256.434 537.433 256.025 537.898 255.657C538.362 255.288 538.843 255.112 539.34 255.128C539.965 255.128 540.486 255.312 540.903 255.681C541.319 256.049 541.536 256.546 541.552 257.171C541.552 257.444 541.44 257.892 541.215 258.517C540.991 259.142 540.67 259.984 540.254 261.042C539.837 262.099 539.5 263.005 539.244 263.758C539.164 264.111 539.124 264.367 539.124 264.527C539.124 264.928 539.26 265.129 539.532 265.129C539.677 265.129 539.829 265.104 539.989 265.056C540.149 265.008 540.334 264.896 540.542 264.72C540.75 264.544 540.967 264.263 541.191 263.878C541.416 263.494 541.616 263.021 541.792 262.46C541.84 262.268 541.88 262.156 541.912 262.123C541.944 262.091 542.081 262.075 542.321 262.075C542.642 262.075 542.802 262.156 542.802 262.316C542.802 262.444 542.73 262.692 542.586 263.061C542.441 263.43 542.241 263.838 541.985 264.287C541.728 264.736 541.368 265.137 540.903 265.489C540.438 265.842 539.941 266.018 539.412 266.018C538.899 266.018 538.427 265.85 537.994 265.513C537.561 265.177 537.337 264.664 537.321 263.975C537.321 263.702 537.361 263.446 537.441 263.205C537.521 262.965 537.866 262.051 538.475 260.465C539.084 258.846 539.436 257.876 539.532 257.556C539.629 257.235 539.685 256.923 539.701 256.618C539.701 256.234 539.565 256.041 539.292 256.041H539.244C538.763 256.041 538.322 256.306 537.922 256.835C537.521 257.364 537.217 258.037 537.008 258.854C536.992 258.87 536.976 258.894 536.96 258.926C536.944 258.958 536.936 258.982 536.936 258.998C536.936 259.014 536.92 259.03 536.888 259.046C536.856 259.062 536.832 259.07 536.816 259.07C536.8 259.07 536.768 259.07 536.72 259.07C536.672 259.07 536.608 259.07 536.527 259.07H536.191C536.095 258.974 536.047 258.902 536.047 258.854Z" fill="black"/>
<path d="M549.293 266.018C548.043 266.018 546.985 265.601 546.119 264.768C545.254 263.935 544.813 262.869 544.797 261.571C544.797 260.16 545.174 258.974 545.927 258.013C546.472 257.291 547.161 256.698 547.995 256.234C548.828 255.769 549.742 255.496 550.735 255.416C550.767 255.4 551.104 255.392 551.745 255.392H552.658C552.899 255.472 553.019 255.633 553.019 255.873C553.019 256.29 552.69 256.498 552.033 256.498H551.649H551.336C549.397 256.498 548.131 257.364 547.538 259.094L547.442 259.383H551.697C551.905 259.527 552.009 259.679 552.009 259.84C552.009 260.128 551.849 260.345 551.529 260.489H547.153V260.537C546.993 261.018 546.913 261.611 546.913 262.316C546.913 263.374 547.169 264.103 547.682 264.503C548.195 264.904 548.764 265.112 549.389 265.129C549.822 265.129 550.246 265.048 550.663 264.888C551.08 264.728 551.416 264.56 551.673 264.383C551.929 264.207 552.065 264.119 552.081 264.119C552.194 264.119 552.282 264.199 552.346 264.359C552.41 264.519 552.442 264.672 552.442 264.816C552.442 264.864 552.434 264.896 552.418 264.912C552.37 264.976 552.21 265.088 551.937 265.249C551.665 265.409 551.28 265.577 550.783 265.754C550.286 265.93 549.79 266.018 549.293 266.018Z" fill="black"/>
<path d="M556 243.973H490V242.531H556V243.973Z" fill="black"/>
<path d="M644.028 514.496C644.028 514.368 644.129 514.202 644.331 514H649.653C653.22 514.037 655.224 514.092 655.665 514.165C656.069 514.239 656.455 514.331 656.823 514.441C657.191 514.552 657.512 514.671 657.788 514.8C658.064 514.928 658.321 515.066 658.56 515.213C658.799 515.36 659.001 515.508 659.167 515.655C659.332 515.802 659.498 515.949 659.663 516.096C659.829 516.243 659.948 516.381 660.022 516.509C660.095 516.638 660.187 516.767 660.298 516.896C660.408 517.024 660.472 517.144 660.491 517.254C660.509 517.364 660.546 517.465 660.601 517.557L660.684 517.723C660.776 518.054 660.821 518.522 660.821 519.129C660.821 520.048 660.702 520.765 660.463 521.28C659.82 522.585 658.533 523.44 656.602 523.845L656.106 523.983C656.235 524.185 656.4 524.451 656.602 524.782C656.805 525.113 657.209 525.72 657.816 526.602C658.422 527.485 658.983 528.266 659.498 528.946C660.013 529.627 660.555 530.261 661.125 530.849C661.695 531.437 662.145 531.777 662.476 531.869C662.825 531.961 663 532.136 663 532.393C663 532.559 662.89 532.715 662.669 532.862H657.623C657.494 532.733 656.52 531.263 654.7 528.45L651.997 524.286H650.949V527.788C650.986 529.921 651.014 531.06 651.032 531.208C651.087 531.52 651.271 531.713 651.583 531.787C651.657 531.805 651.914 531.833 652.356 531.869C652.815 531.869 653.128 531.934 653.293 532.062C653.459 532.265 653.459 532.494 653.293 532.752L653.1 532.862H644.331C644.11 532.752 644 532.596 644 532.393C644 532.044 644.358 531.869 645.075 531.869C645.829 531.814 646.252 531.658 646.344 531.401C646.436 531.254 646.482 528.597 646.482 523.431C646.482 518.265 646.436 515.59 646.344 515.406C646.234 515.167 645.811 515.02 645.075 514.965C644.377 514.965 644.028 514.809 644.028 514.496ZM650.205 531.869C650.149 531.741 650.113 531.649 650.094 531.594C650.076 531.538 650.058 531.235 650.039 530.684C650.021 530.132 650.002 529.351 649.984 528.34C649.966 527.328 649.966 525.729 649.984 523.541V515.71L650.094 515.324L650.287 514.965H647.226C647.282 515.094 647.318 515.186 647.337 515.241C647.355 515.296 647.373 515.618 647.392 516.206C647.41 516.794 647.429 517.585 647.447 518.578C647.465 519.57 647.465 521.188 647.447 523.431C647.447 527.292 647.438 529.608 647.419 530.38C647.401 531.152 647.346 531.63 647.254 531.814C647.236 531.833 647.226 531.851 647.226 531.869H650.205ZM656.161 519.157C656.161 518.348 656.088 517.668 655.94 517.116C655.793 516.565 655.573 516.151 655.279 515.875C654.985 515.599 654.755 515.425 654.589 515.351C654.424 515.278 654.212 515.195 653.955 515.103C653.9 515.103 653.551 515.057 652.907 514.965C652.19 514.965 651.657 515.085 651.308 515.324C651.124 515.452 651.023 515.682 651.004 516.013C650.986 516.344 650.968 517.53 650.949 519.57V523.293H651.39C652.181 523.293 653.017 523.238 653.9 523.128C654.746 522.907 655.334 522.539 655.665 522.025C655.996 521.51 656.161 520.554 656.161 519.157ZM657.126 518.026C657.126 518.026 657.126 518.403 657.126 519.157C657.126 519.911 657.09 520.545 657.016 521.06C656.942 521.574 656.851 521.924 656.74 522.107C656.63 522.291 656.547 522.457 656.492 522.604C656.437 522.751 656.391 522.843 656.354 522.88C656.354 522.898 656.363 522.907 656.382 522.907C656.455 522.907 656.749 522.815 657.264 522.631C659.029 522.08 659.911 520.931 659.911 519.184C659.911 517.401 658.845 516.16 656.713 515.462L656.161 515.269L656.271 515.572C656.51 515.848 656.759 516.445 657.016 517.364C657.09 517.806 657.126 518.403 657.126 519.157V518.026ZM656.354 526.134C655.38 524.773 654.883 524.093 654.865 524.093C654.755 524.093 654.672 524.111 654.617 524.148C654.304 524.148 654.019 524.176 653.762 524.231H653.1L658.064 531.869H660.628L660.27 531.456C659.296 530.371 657.99 528.597 656.354 526.134Z" fill="black"/>
<path d="M1243.03 293.496C1243.03 293.368 1243.13 293.202 1243.33 293H1248.65C1252.22 293.037 1254.22 293.092 1254.66 293.165C1255.07 293.239 1255.46 293.331 1255.82 293.441C1256.19 293.552 1256.51 293.671 1256.79 293.8C1257.06 293.928 1257.32 294.066 1257.56 294.213C1257.8 294.36 1258 294.508 1258.17 294.655C1258.33 294.802 1258.5 294.949 1258.66 295.096C1258.83 295.243 1258.95 295.381 1259.02 295.509C1259.1 295.638 1259.19 295.767 1259.3 295.896C1259.41 296.024 1259.47 296.144 1259.49 296.254C1259.51 296.364 1259.55 296.465 1259.6 296.557L1259.68 296.723C1259.78 297.054 1259.82 297.522 1259.82 298.129C1259.82 299.048 1259.7 299.765 1259.46 300.28C1258.82 301.585 1257.53 302.44 1255.6 302.845L1255.11 302.983C1255.23 303.185 1255.4 303.451 1255.6 303.782C1255.8 304.113 1256.21 304.72 1256.82 305.602C1257.42 306.485 1257.98 307.266 1258.5 307.946C1259.01 308.627 1259.55 309.261 1260.12 309.849C1260.69 310.437 1261.15 310.777 1261.48 310.869C1261.83 310.961 1262 311.136 1262 311.393C1262 311.559 1261.89 311.715 1261.67 311.862H1256.62C1256.49 311.733 1255.52 310.263 1253.7 307.45L1251 303.286H1249.95V306.788C1249.99 308.921 1250.01 310.06 1250.03 310.208C1250.09 310.52 1250.27 310.713 1250.58 310.787C1250.66 310.805 1250.91 310.833 1251.36 310.869C1251.82 310.869 1252.13 310.934 1252.29 311.062C1252.46 311.265 1252.46 311.494 1252.29 311.752L1252.1 311.862H1243.33C1243.11 311.752 1243 311.596 1243 311.393C1243 311.044 1243.36 310.869 1244.08 310.869C1244.83 310.814 1245.25 310.658 1245.34 310.401C1245.44 310.254 1245.48 307.597 1245.48 302.431C1245.48 297.265 1245.44 294.59 1245.34 294.406C1245.23 294.167 1244.81 294.02 1244.08 293.965C1243.38 293.965 1243.03 293.809 1243.03 293.496ZM1249.2 310.869C1249.15 310.741 1249.11 310.649 1249.09 310.594C1249.08 310.538 1249.06 310.235 1249.04 309.684C1249.02 309.132 1249 308.351 1248.98 307.34C1248.97 306.328 1248.97 304.729 1248.98 302.541V294.71L1249.09 294.324L1249.29 293.965H1246.23C1246.28 294.094 1246.32 294.186 1246.34 294.241C1246.36 294.296 1246.37 294.618 1246.39 295.206C1246.41 295.794 1246.43 296.585 1246.45 297.578C1246.47 298.57 1246.47 300.188 1246.45 302.431C1246.45 306.292 1246.44 308.608 1246.42 309.38C1246.4 310.152 1246.35 310.63 1246.25 310.814C1246.24 310.833 1246.23 310.851 1246.23 310.869H1249.2ZM1255.16 298.157C1255.16 297.348 1255.09 296.668 1254.94 296.116C1254.79 295.565 1254.57 295.151 1254.28 294.875C1253.98 294.599 1253.75 294.425 1253.59 294.351C1253.42 294.278 1253.21 294.195 1252.96 294.103C1252.9 294.103 1252.55 294.057 1251.91 293.965C1251.19 293.965 1250.66 294.085 1250.31 294.324C1250.12 294.452 1250.02 294.682 1250 295.013C1249.99 295.344 1249.97 296.53 1249.95 298.57V302.293H1250.39C1251.18 302.293 1252.02 302.238 1252.9 302.128C1253.75 301.907 1254.33 301.539 1254.66 301.025C1255 300.51 1255.16 299.554 1255.16 298.157ZM1256.13 297.026C1256.13 297.026 1256.13 297.403 1256.13 298.157C1256.13 298.911 1256.09 299.545 1256.02 300.06C1255.94 300.574 1255.85 300.924 1255.74 301.107C1255.63 301.291 1255.55 301.457 1255.49 301.604C1255.44 301.751 1255.39 301.843 1255.35 301.88C1255.35 301.898 1255.36 301.907 1255.38 301.907C1255.46 301.907 1255.75 301.815 1256.26 301.631C1258.03 301.08 1258.91 299.931 1258.91 298.184C1258.91 296.401 1257.85 295.16 1255.71 294.462L1255.16 294.269L1255.27 294.572C1255.51 294.848 1255.76 295.445 1256.02 296.364C1256.09 296.806 1256.13 297.403 1256.13 298.157V297.026ZM1255.35 305.134C1254.38 303.773 1253.88 303.093 1253.87 303.093C1253.75 303.093 1253.67 303.111 1253.62 303.148C1253.3 303.148 1253.02 303.176 1252.76 303.231H1252.1L1257.06 310.869H1259.63L1259.27 310.456C1258.3 309.371 1256.99 307.597 1255.35 305.134Z" fill="black"/>
<path d="M850 395L854.205 398.956L855.529 393.336L850 395ZM1177.11 471.513L854.495 395.545L854.266 396.518L1176.89 472.487L1177.11 471.513Z" fill="black"/>
<path d="M1307 315L1301.31 314.048L1303.33 319.456L1307 315ZM835.914 491.752L1302.96 317.045L1302.61 316.108L835.564 490.815L835.914 491.752Z" fill="black"/>
<path d="M1144.87 463.753L1325 401.612" stroke="black" stroke-width="0.5" stroke-dasharray="2 2"/>
<path d="M1144.87 463.753L1356 391" stroke="black" stroke-width="0.5" stroke-dasharray="2 2"/>
<path d="M880.575 401.612L1096.89 326.885" stroke="black" stroke-width="0.5" stroke-dasharray="2 2"/>
<line x1="1144.25" y1="381" x2="1144.25" y2="464" stroke="black" stroke-width="0.5" stroke-dasharray="2 2"/>
<path d="M1356 356L1356 391" stroke="black" stroke-width="0.5" stroke-dasharray="2 2"/>
<line x1="1096.25" y1="298" x2="1096.25" y2="326" stroke="black" stroke-width="0.5" stroke-dasharray="2 2"/>
<line x1="881.25" y1="319" x2="881.25" y2="402" stroke="black" stroke-width="0.5" stroke-dasharray="2 2"/>
<mask id="mask1_1_113" style="mask-type:alpha" maskUnits="userSpaceOnUse" x="1131" y="325" width="148" height="56">
<line x1="1131.82" y1="380.532" x2="1278.82" y2="325.532" stroke="black" stroke-dasharray="2 2"/>
</mask>
<g mask="url(#mask1_1_113)">
<path d="M886 321.204L888.383 320.494C1010 284.268 1052.5 288.5 1101 300.5L1361 358.5C1318 349.975 1244 346 1148.71 384L886 321.204Z" fill="#D9D9D9"/>
<path d="M886 321.204L1148.71 384C1244 346 1318 349.975 1361 358.5L1101 300.5C1052.5 288.5 1010 284.268 888.383 320.494M886 321.204C886.798 320.966 887.592 320.73 888.383 320.494M886 321.204L888.383 320.494" stroke="black"/>
</g>
<path d="M1014.23 242.848C1013.95 242.848 1013.81 242.763 1013.81 242.591C1013.81 242.466 1013.87 242.303 1013.98 242.1C1014.09 241.897 1014.27 241.679 1014.54 241.445C1014.8 241.211 1015.18 241 1015.66 240.813C1016.14 240.626 1016.73 240.501 1017.42 240.439C1017.43 240.439 1017.54 240.439 1017.74 240.439C1017.95 240.439 1018.21 240.439 1018.54 240.439C1018.87 240.439 1019.24 240.439 1019.66 240.439C1020.08 240.439 1020.57 240.431 1021.11 240.416C1021.66 240.4 1022.19 240.4 1022.7 240.416C1026.06 240.431 1027.79 240.447 1027.92 240.462C1028.57 240.587 1028.92 240.852 1028.97 241.258C1028.97 241.679 1028.72 242.045 1028.22 242.357C1027.72 242.669 1027.31 242.825 1026.98 242.825C1026.73 242.825 1026.61 242.708 1026.61 242.474C1026.62 242.287 1026.51 242.17 1026.26 242.123C1026.02 242.076 1025.13 242.045 1023.57 242.03H1021.28L1021.25 242.123C1021.25 242.31 1021 243.277 1020.5 245.024C1020 246.771 1019.7 247.698 1019.59 247.808C1019.59 247.839 1020.55 247.854 1022.47 247.854H1025.35C1025.49 247.932 1025.56 248.01 1025.58 248.088C1025.63 248.229 1025.57 248.431 1025.42 248.697C1025.24 248.962 1024.97 249.196 1024.6 249.398C1024.22 249.601 1023.88 249.71 1023.57 249.726C1023.38 249.726 1023.26 249.64 1023.19 249.468H1018.98L1018.8 249.913C1018.67 250.209 1018.51 250.584 1018.3 251.036C1018.1 251.488 1017.89 251.971 1017.67 252.486C1017.45 253.001 1017.21 253.508 1016.95 254.007C1016.68 254.506 1016.46 254.903 1016.27 255.2C1015.94 255.652 1015.47 256.089 1014.84 256.51C1014.22 256.931 1013.5 257.141 1012.69 257.141C1012.3 257.141 1011.94 257.087 1011.61 256.977C1011.29 256.868 1011.03 256.728 1010.84 256.556C1010.65 256.385 1010.49 256.213 1010.35 256.042C1010.21 255.87 1010.12 255.714 1010.07 255.574C1010.02 255.434 1010 255.34 1010 255.293C1010 255.09 1010.2 254.833 1010.61 254.521C1011.01 254.209 1011.43 254.03 1011.87 253.983C1012.03 253.983 1012.13 253.999 1012.18 254.03C1012.22 254.061 1012.28 254.163 1012.36 254.334C1012.53 254.677 1012.78 254.942 1013.09 255.129C1013.4 255.317 1013.63 255.434 1013.77 255.48C1013.91 255.527 1014.03 255.543 1014.14 255.527C1014.2 255.527 1014.27 255.48 1014.33 255.387C1014.55 255.013 1014.87 254.373 1015.31 253.469C1015.75 252.564 1016.32 251.2 1017.02 249.375C1017.72 247.55 1018.29 245.741 1018.73 243.948C1018.76 243.776 1018.81 243.527 1018.89 243.199C1018.97 242.872 1019.03 242.607 1019.08 242.404C1019.12 242.201 1019.15 242.084 1019.15 242.053C1019.15 242.022 1018.6 242.014 1017.51 242.03H1015.87C1015.25 242.576 1014.7 242.848 1014.23 242.848Z" fill="black"/>
<path d="M1063.02 227.059L1062.72 227.176C1062.5 227.253 1062.19 227.331 1061.78 227.409C1061.38 227.487 1060.93 227.542 1060.43 227.573H1059.98V226.497H1060.43C1061.16 226.466 1061.84 226.349 1062.46 226.146C1063.09 225.943 1063.52 225.756 1063.77 225.585C1064.02 225.413 1064.24 225.242 1064.43 225.07C1064.46 225.023 1064.55 225 1064.71 225C1064.85 225 1064.98 225.047 1065.11 225.14V232.135L1065.13 239.152C1065.24 239.262 1065.33 239.332 1065.41 239.363C1065.49 239.394 1065.67 239.425 1065.97 239.457C1066.27 239.488 1066.75 239.503 1067.42 239.503H1068.03V240.579H1067.77C1067.44 240.533 1066.21 240.509 1064.05 240.509C1061.93 240.509 1060.71 240.533 1060.38 240.579H1060.1V239.503H1060.71C1061.05 239.503 1061.35 239.503 1061.6 239.503C1061.85 239.503 1062.04 239.496 1062.18 239.48C1062.32 239.464 1062.45 239.441 1062.56 239.41C1062.67 239.379 1062.73 239.363 1062.74 239.363C1062.76 239.363 1062.81 239.324 1062.88 239.246C1062.96 239.168 1063.01 239.137 1063.02 239.152V227.059Z" fill="black"/>
<path d="M1035.33 265.679C1035.44 265.024 1035.86 264.268 1036.6 263.41C1037.33 262.553 1038.23 262.116 1039.31 262.1C1039.86 262.1 1040.36 262.241 1040.81 262.521C1041.26 262.802 1041.6 263.153 1041.81 263.574C1042.47 262.592 1043.26 262.1 1044.18 262.1C1044.75 262.1 1045.25 262.272 1045.67 262.615C1046.09 262.958 1046.31 263.418 1046.33 263.995C1046.33 264.447 1046.22 264.814 1046 265.095C1045.78 265.375 1045.57 265.547 1045.37 265.609C1045.17 265.672 1044.99 265.703 1044.83 265.703C1044.54 265.703 1044.29 265.617 1044.11 265.446C1043.92 265.274 1043.83 265.048 1043.83 264.767C1043.83 264.05 1044.22 263.559 1045 263.293C1044.82 263.091 1044.51 262.989 1044.06 262.989C1043.86 262.989 1043.71 263.005 1043.61 263.036C1043.02 263.286 1042.59 263.8 1042.3 264.58C1041.37 268.026 1040.9 270.038 1040.9 270.615C1040.9 271.052 1041.03 271.364 1041.28 271.551C1041.53 271.738 1041.8 271.832 1042.09 271.832C1042.67 271.832 1043.24 271.574 1043.8 271.06C1044.36 270.545 1044.75 269.913 1044.95 269.165C1045 269.009 1045.04 268.923 1045.09 268.908C1045.14 268.892 1045.26 268.876 1045.46 268.861H1045.56C1045.79 268.861 1045.91 268.923 1045.91 269.048C1045.91 269.064 1045.89 269.149 1045.86 269.305C1045.61 270.194 1045.13 270.982 1044.41 271.668C1043.69 272.354 1042.86 272.697 1041.91 272.697C1040.82 272.697 1039.99 272.206 1039.43 271.223C1038.79 272.19 1038.06 272.674 1037.23 272.674H1037.09C1036.32 272.674 1035.78 272.471 1035.45 272.066C1035.12 271.66 1034.95 271.231 1034.94 270.779C1034.94 270.28 1035.08 269.875 1035.38 269.563C1035.68 269.251 1036.03 269.095 1036.43 269.095C1037.1 269.095 1037.44 269.422 1037.44 270.077C1037.44 270.389 1037.35 270.662 1037.16 270.896C1036.97 271.13 1036.79 271.286 1036.62 271.364C1036.45 271.442 1036.35 271.481 1036.32 271.481L1036.25 271.504C1036.25 271.52 1036.29 271.551 1036.39 271.598C1036.48 271.645 1036.61 271.699 1036.76 271.761C1036.92 271.824 1037.07 271.847 1037.21 271.832C1037.77 271.832 1038.25 271.481 1038.66 270.779C1038.8 270.529 1038.98 269.999 1039.19 269.188C1039.41 268.377 1039.63 267.535 1039.85 266.662C1040.07 265.789 1040.19 265.274 1040.22 265.118C1040.3 264.697 1040.34 264.393 1040.34 264.206C1040.34 263.769 1040.22 263.457 1039.99 263.27C1039.76 263.083 1039.49 262.989 1039.19 262.989C1038.57 262.989 1037.99 263.239 1037.44 263.738C1036.89 264.237 1036.51 264.876 1036.29 265.656C1036.26 265.796 1036.22 265.874 1036.18 265.89C1036.13 265.906 1036 265.921 1035.8 265.937H1035.47C1035.38 265.843 1035.33 265.757 1035.33 265.679Z" fill="black"/>
<path d="M1054.01 266.896C1054.01 266.896 1054.01 266.795 1054.01 266.592C1054.01 266.389 1054.12 266.233 1054.33 266.124H1061.33V262.615L1061.35 259.106C1061.51 258.903 1061.66 258.802 1061.8 258.802C1062 258.802 1062.15 258.919 1062.26 259.153V266.124H1069.23C1069.47 266.249 1069.59 266.405 1069.59 266.592C1069.59 266.779 1069.47 266.935 1069.23 267.06H1062.26V274.031C1062.14 274.249 1062 274.358 1061.84 274.358H1061.8H1061.75C1061.56 274.358 1061.42 274.249 1061.33 274.031V267.06H1054.33C1054.12 266.95 1054.01 266.795 1054.01 266.592V266.896Z" fill="black"/>
<path d="M1080.4 258.404C1080.4 258.03 1080.55 257.703 1080.84 257.422C1081.14 257.141 1081.48 256.993 1081.87 256.977C1082.15 256.977 1082.39 257.071 1082.57 257.258C1082.76 257.445 1082.86 257.679 1082.88 257.96C1082.88 258.319 1082.72 258.646 1082.41 258.942C1082.1 259.239 1081.75 259.395 1081.38 259.41C1081.15 259.41 1080.93 259.332 1080.72 259.176C1080.52 259.02 1080.41 258.763 1080.4 258.404ZM1076.58 265.726C1076.58 265.601 1076.65 265.36 1076.79 265.001C1076.94 264.642 1077.12 264.245 1077.36 263.808C1077.59 263.371 1077.93 262.974 1078.39 262.615C1078.84 262.256 1079.31 262.085 1079.79 262.1C1080.4 262.1 1080.9 262.28 1081.31 262.638C1081.71 262.997 1081.93 263.481 1081.94 264.089C1081.94 264.354 1081.83 264.791 1081.61 265.399C1081.4 266.007 1081.08 266.826 1080.68 267.855C1080.27 268.884 1079.94 269.765 1079.7 270.498C1079.62 270.841 1079.58 271.091 1079.58 271.247C1079.58 271.637 1079.71 271.832 1079.98 271.832C1080.12 271.832 1080.26 271.808 1080.42 271.761C1080.58 271.715 1080.76 271.606 1080.96 271.434C1081.16 271.262 1081.37 270.99 1081.59 270.615C1081.81 270.241 1082 269.781 1082.18 269.235C1082.22 269.048 1082.26 268.939 1082.29 268.908C1082.32 268.876 1082.46 268.861 1082.69 268.861C1083 268.861 1083.16 268.939 1083.16 269.095C1083.16 269.22 1083.09 269.461 1082.95 269.82C1082.81 270.179 1082.61 270.576 1082.36 271.013C1082.11 271.45 1081.76 271.839 1081.31 272.183C1080.86 272.526 1080.37 272.697 1079.86 272.697C1079.36 272.697 1078.9 272.533 1078.48 272.206C1078.06 271.878 1077.84 271.379 1077.82 270.709C1077.82 270.444 1077.86 270.194 1077.94 269.96C1078.02 269.726 1078.35 268.837 1078.95 267.294C1079.54 265.718 1079.88 264.775 1079.98 264.463C1080.07 264.151 1080.12 263.847 1080.14 263.551C1080.14 263.176 1080.01 262.989 1079.74 262.989H1079.7C1079.23 262.989 1078.8 263.247 1078.41 263.761C1078.02 264.276 1077.72 264.931 1077.52 265.726C1077.5 265.742 1077.49 265.765 1077.47 265.796C1077.46 265.828 1077.45 265.851 1077.45 265.867C1077.45 265.882 1077.43 265.898 1077.4 265.913C1077.37 265.929 1077.35 265.937 1077.33 265.937C1077.32 265.937 1077.29 265.937 1077.24 265.937C1077.19 265.937 1077.13 265.937 1077.05 265.937H1076.72C1076.63 265.843 1076.58 265.773 1076.58 265.726Z" fill="black"/>
<path d="M1089.47 272.697C1088.26 272.697 1087.23 272.292 1086.39 271.481C1085.54 270.67 1085.11 269.633 1085.1 268.37C1085.1 266.997 1085.47 265.843 1086.2 264.908C1086.73 264.206 1087.4 263.629 1088.21 263.176C1089.02 262.724 1089.91 262.459 1090.88 262.381C1090.91 262.366 1091.24 262.358 1091.86 262.358H1092.75C1092.98 262.436 1093.1 262.592 1093.1 262.826C1093.1 263.231 1092.78 263.434 1092.14 263.434H1091.77H1091.46C1089.57 263.434 1088.34 264.276 1087.77 265.96L1087.67 266.241H1091.81C1092.02 266.381 1092.12 266.529 1092.12 266.685C1092.12 266.966 1091.96 267.177 1091.65 267.317H1087.39V267.364C1087.24 267.832 1087.16 268.409 1087.16 269.095C1087.16 270.124 1087.41 270.834 1087.91 271.223C1088.41 271.613 1088.96 271.816 1089.57 271.832C1089.99 271.832 1090.4 271.754 1090.81 271.598C1091.21 271.442 1091.54 271.278 1091.79 271.107C1092.04 270.935 1092.17 270.849 1092.19 270.849C1092.3 270.849 1092.38 270.927 1092.44 271.083C1092.51 271.239 1092.54 271.387 1092.54 271.528C1092.54 271.574 1092.53 271.606 1092.51 271.621C1092.47 271.684 1092.31 271.793 1092.05 271.949C1091.78 272.105 1091.41 272.268 1090.92 272.44C1090.44 272.611 1089.96 272.697 1089.47 272.697Z" fill="black"/>
<path d="M1096 251.246H1031.78V249.843H1096V251.246Z" fill="black"/>
<path d="M921 250L917.119 245.725L915.358 251.224L921 250ZM601.172 250.47C706.142 212.03 810.143 215.406 916.563 249.104L916.865 248.15C810.272 214.398 706.04 211.002 600.828 249.531L601.172 250.47Z" fill="black"/>
<path d="M754.24 196.431C753.959 196.431 753.819 196.346 753.819 196.175C753.819 196.051 753.873 195.888 753.983 195.687C754.092 195.485 754.279 195.268 754.545 195.035C754.811 194.803 755.185 194.593 755.67 194.407C756.154 194.221 756.739 194.097 757.427 194.035C757.442 194.035 757.552 194.035 757.755 194.035C757.958 194.035 758.223 194.035 758.551 194.035C758.879 194.035 759.254 194.035 759.676 194.035C760.097 194.035 760.582 194.027 761.128 194.012C761.675 193.996 762.206 193.996 762.721 194.012C766.079 194.027 767.821 194.043 767.946 194.058C768.602 194.182 768.953 194.446 769 194.849C769 195.268 768.75 195.632 768.25 195.942C767.751 196.253 767.337 196.408 767.009 196.408C766.759 196.408 766.634 196.291 766.634 196.059C766.649 195.873 766.532 195.756 766.282 195.71C766.048 195.663 765.15 195.632 763.588 195.617H761.292L761.269 195.71C761.269 195.896 761.019 196.858 760.519 198.594C760.019 200.331 759.715 201.254 759.605 201.363C759.605 201.394 760.566 201.409 762.487 201.409H765.369C765.509 201.487 765.587 201.564 765.603 201.642C765.65 201.782 765.595 201.983 765.439 202.247C765.267 202.51 764.994 202.743 764.619 202.945C764.244 203.146 763.901 203.255 763.588 203.27C763.401 203.27 763.276 203.185 763.213 203.015H758.996L758.809 203.457C758.684 203.751 758.52 204.123 758.317 204.573C758.114 205.023 757.903 205.504 757.684 206.015C757.466 206.527 757.224 207.031 756.958 207.528C756.693 208.024 756.466 208.419 756.279 208.714C755.951 209.164 755.474 209.598 754.85 210.017C754.225 210.436 753.506 210.645 752.694 210.645C752.304 210.645 751.945 210.591 751.617 210.482C751.289 210.373 751.031 210.234 750.843 210.063C750.656 209.893 750.492 209.722 750.351 209.552C750.211 209.381 750.117 209.226 750.07 209.086C750.023 208.947 750 208.854 750 208.807C750 208.605 750.203 208.35 750.609 208.039C751.015 207.729 751.437 207.551 751.874 207.504C752.03 207.504 752.132 207.52 752.179 207.551C752.226 207.582 752.288 207.683 752.366 207.853C752.538 208.194 752.78 208.458 753.092 208.644C753.405 208.83 753.631 208.947 753.772 208.993C753.912 209.04 754.037 209.055 754.147 209.04C754.209 209.04 754.272 208.993 754.334 208.9C754.553 208.528 754.881 207.892 755.318 206.993C755.755 206.093 756.326 204.736 757.028 202.921C757.731 201.107 758.301 199.308 758.739 197.524C758.77 197.354 758.824 197.106 758.903 196.78C758.981 196.454 759.043 196.191 759.09 195.989C759.137 195.787 759.16 195.671 759.16 195.64C759.16 195.609 758.614 195.601 757.52 195.617H755.88C755.256 196.16 754.709 196.431 754.24 196.431Z" fill="black"/>
</svg>
