<svg width="729" height="261" viewBox="0 0 729 261" fill="none" xmlns="http://www.w3.org/2000/svg">
<path d="M71.0001 218H648C635.5 218 639 232 628 232C617 232 99.0001 232 91.0001 232C83.0001 232 82.5 218 71.0001 218Z" fill="#E9E9E9"/>
<path d="M71 218C168 218 233.5 312.5 247 196C260.5 79.5 260.5 0 260.5 0" stroke="#047BD1"/>
<path d="M265.5 0C265.5 0 265.5 49.5 273 144.5C276.039 183 299.312 199.93 329 191C364.131 180.432 369.5 115 420 115" stroke="#047BD1"/>
<path d="M420 67C420 67 446.5 67 477 67C548 67 504.5 218 648 218" stroke="#047BD1"/>
<path d="M263 0V214" stroke="black" stroke-width="0.5" stroke-dasharray="2 2"/>
<path d="M420 67V114" stroke="black" stroke-width="0.5" stroke-dasharray="2 2"/>
<path d="M695 218L690 215.113V220.887L695 218ZM25 218.5H690.5V217.5H25V218.5Z" fill="black"/>
<circle cx="263" cy="218" r="1.5" fill="white" stroke="black"/>
<circle cx="420" cy="218" r="1.5" fill="white" stroke="black"/>
<path d="M280 240L280.2 239.542L280 240ZM264 222.5L262.804 228.148L268.293 226.36L264 222.5ZM300.5 243.5C300.5 243 300.5 243 300.5 243C300.5 243 300.5 243 300.5 243C300.499 243 300.499 243 300.498 243C300.497 243 300.495 243 300.492 243C300.486 243 300.478 243 300.466 243C300.443 243 300.408 243 300.362 242.999C300.27 242.998 300.134 242.997 299.957 242.993C299.603 242.986 299.087 242.973 298.443 242.946C297.154 242.891 295.352 242.783 293.303 242.565C289.192 242.129 284.128 241.26 280.2 239.542L279.8 240.458C283.872 242.24 289.058 243.121 293.197 243.56C295.273 243.78 297.096 243.89 298.401 243.945C299.053 243.972 299.577 243.986 299.938 243.993C300.118 243.996 300.258 243.998 300.353 243.999C300.401 244 300.437 244 300.462 244C300.474 244 300.483 244 300.49 244C300.493 244 300.495 244 300.497 244C300.498 244 300.499 244 300.499 244C300.499 244 300.5 244 300.5 244C300.5 244 300.5 244 300.5 243.5ZM280.2 239.542C271.5 235.736 267.586 230.278 265.847 226.566L264.941 226.991C266.772 230.899 270.855 236.545 279.8 240.458L280.2 239.542Z" fill="black"/>
<path d="M398 241L397.873 240.516L398 241ZM418 224L413.092 227.041L418.179 229.771L418 224ZM372 243.5C372 244 372 244 372 244C372 244 372.001 244 372.001 244C372.001 244 372.002 244 372.003 244C372.005 244 372.009 244 372.013 244C372.021 244 372.033 244 372.049 244C372.081 244 372.128 244 372.19 243.999C372.314 243.999 372.497 243.998 372.733 243.995C373.204 243.99 373.888 243.98 374.738 243.961C376.438 243.922 378.803 243.843 381.467 243.687C386.783 243.374 393.326 242.747 398.127 241.484L397.873 240.516C393.174 241.753 386.717 242.376 381.408 242.688C378.759 242.844 376.406 242.922 374.715 242.961C373.87 242.981 373.19 242.99 372.722 242.995C372.488 242.998 372.307 242.999 372.185 242.999C372.124 243 372.078 243 372.046 243C372.031 243 372.019 243 372.011 243C372.008 243 372.005 243 372.003 243C372.002 243 372.001 243 372.001 243C372 243 372 243 372 243C372 243 372 243 372 243.5ZM398.127 241.484C407.947 238.899 413.55 232.476 416.292 228.237L415.452 227.693C412.792 231.807 407.37 238.017 397.873 240.516L398.127 241.484Z" fill="black"/>
<path d="M681.015 225.263C681.015 225.195 681.068 225.107 681.175 225H683.996C685.886 225.019 686.948 225.049 687.182 225.088C687.396 225.127 687.601 225.175 687.796 225.234C687.99 225.292 688.161 225.356 688.307 225.424C688.453 225.492 688.59 225.565 688.716 225.643C688.843 225.721 688.95 225.799 689.038 225.877C689.126 225.955 689.213 226.033 689.301 226.111C689.389 226.189 689.452 226.262 689.491 226.33C689.53 226.398 689.579 226.466 689.637 226.534C689.695 226.603 689.73 226.666 689.739 226.724C689.749 226.783 689.769 226.837 689.798 226.885L689.842 226.973C689.89 227.148 689.915 227.397 689.915 227.718C689.915 228.205 689.851 228.585 689.725 228.858C689.384 229.55 688.702 230.003 687.679 230.217L687.416 230.29C687.484 230.398 687.572 230.539 687.679 230.714C687.786 230.89 688 231.211 688.322 231.679C688.643 232.146 688.94 232.56 689.213 232.921C689.486 233.281 689.773 233.618 690.075 233.929C690.377 234.241 690.616 234.421 690.792 234.47C690.977 234.519 691.069 234.611 691.069 234.748C691.069 234.835 691.011 234.918 690.894 234.996H688.219C688.151 234.928 687.635 234.149 686.67 232.658L685.238 230.451H684.683V232.307C684.702 233.437 684.717 234.041 684.727 234.119C684.756 234.285 684.853 234.387 685.019 234.426C685.058 234.436 685.194 234.451 685.428 234.47C685.672 234.47 685.837 234.504 685.925 234.572C686.013 234.68 686.013 234.801 685.925 234.938L685.823 234.996H681.175C681.058 234.938 681 234.855 681 234.748C681 234.563 681.19 234.47 681.57 234.47C681.969 234.441 682.193 234.358 682.242 234.222C682.291 234.144 682.315 232.736 682.315 229.998C682.315 227.26 682.291 225.843 682.242 225.745C682.184 225.619 681.96 225.541 681.57 225.511C681.2 225.511 681.015 225.429 681.015 225.263ZM684.288 234.47C684.259 234.402 684.239 234.353 684.23 234.324C684.22 234.295 684.21 234.134 684.201 233.842C684.191 233.549 684.181 233.135 684.171 232.599C684.162 232.064 684.162 231.216 684.171 230.057V225.906L684.23 225.701L684.332 225.511H682.71C682.739 225.58 682.759 225.628 682.768 225.658C682.778 225.687 682.788 225.857 682.798 226.169C682.807 226.481 682.817 226.9 682.827 227.426C682.837 227.952 682.837 228.809 682.827 229.998C682.827 232.044 682.822 233.272 682.812 233.681C682.802 234.09 682.773 234.343 682.724 234.441C682.715 234.451 682.71 234.46 682.71 234.47H684.288ZM687.445 227.733C687.445 227.304 687.406 226.944 687.328 226.651C687.25 226.359 687.133 226.14 686.977 225.994C686.821 225.848 686.7 225.755 686.612 225.716C686.524 225.677 686.412 225.633 686.276 225.585C686.247 225.585 686.061 225.56 685.72 225.511C685.34 225.511 685.058 225.575 684.873 225.701C684.775 225.77 684.722 225.891 684.712 226.067C684.702 226.242 684.693 226.871 684.683 227.952V229.925H684.917C685.336 229.925 685.779 229.896 686.247 229.837C686.695 229.72 687.006 229.526 687.182 229.253C687.357 228.98 687.445 228.473 687.445 227.733ZM687.956 227.134C687.956 227.134 687.956 227.333 687.956 227.733C687.956 228.132 687.937 228.468 687.898 228.741C687.859 229.014 687.81 229.199 687.752 229.297C687.693 229.394 687.649 229.482 687.62 229.56C687.591 229.638 687.567 229.686 687.547 229.706C687.547 229.716 687.552 229.72 687.562 229.72C687.601 229.72 687.757 229.672 688.029 229.574C688.965 229.282 689.432 228.673 689.432 227.747C689.432 226.802 688.867 226.145 687.737 225.775L687.445 225.672L687.503 225.833C687.63 225.979 687.762 226.296 687.898 226.783C687.937 227.017 687.956 227.333 687.956 227.733V227.134ZM687.547 231.43C687.031 230.709 686.768 230.349 686.758 230.349C686.7 230.349 686.656 230.359 686.626 230.378C686.461 230.378 686.31 230.393 686.173 230.422H685.823L688.453 234.47H689.812L689.622 234.251C689.106 233.676 688.414 232.736 687.547 231.43Z" fill="black"/>
<path d="M473 51.302C473 51.2215 473.045 51.0654 473.136 50.8339C473.227 50.6023 473.352 50.3406 473.513 50.0486C473.675 49.7566 473.896 49.5049 474.178 49.2935C474.46 49.0821 474.757 48.9714 475.069 48.9613C475.532 48.9613 475.879 49.0871 476.111 49.3388C476.342 49.5905 476.458 49.8875 476.458 50.2298C476.458 50.411 476.287 50.9748 475.945 51.9212C475.603 52.8676 475.431 53.5773 475.431 54.0505C475.431 54.4834 475.502 54.7855 475.643 54.9566C475.784 55.1278 475.995 55.2184 476.277 55.2285C476.559 55.2385 476.826 55.153 477.077 54.9717C477.329 54.7905 477.515 54.6194 477.636 54.4583L477.802 54.2015C477.822 54.1613 478.014 53.3961 478.376 51.9061C478.678 50.698 478.859 49.9932 478.92 49.7919C478.98 49.5905 479.051 49.4445 479.131 49.3539C479.302 49.2029 479.484 49.1274 479.675 49.1274C479.846 49.1274 479.972 49.1777 480.052 49.2784C480.133 49.3791 480.173 49.4747 480.173 49.5654L479.026 54.3677C479.015 54.418 479.01 54.4985 479.01 54.6093C479.01 54.861 479.046 55.0271 479.116 55.1076C479.187 55.1882 479.292 55.2335 479.433 55.2436C479.655 55.2134 479.831 55.0573 479.962 54.7754C480.093 54.4935 480.244 54.0505 480.415 53.4465C480.435 53.3659 480.536 53.3257 480.717 53.3257C480.908 53.3257 481.004 53.371 481.004 53.4616C480.994 53.5119 480.984 53.5824 480.974 53.673C480.964 53.7636 480.918 53.9247 480.838 54.1562C480.757 54.3878 480.672 54.6043 480.581 54.8056C480.49 55.007 480.365 55.1983 480.203 55.3795C480.042 55.5607 479.861 55.6865 479.66 55.757C479.579 55.7772 479.458 55.7872 479.297 55.7872C478.633 55.7872 478.175 55.5053 477.923 54.9415C477.903 54.9516 477.848 55.0019 477.757 55.0925C477.666 55.1832 477.576 55.2587 477.485 55.3191C477.395 55.3795 477.284 55.455 477.153 55.5456C477.022 55.6362 476.876 55.6966 476.715 55.7268C476.554 55.757 476.383 55.7822 476.202 55.8023C475.759 55.8023 475.366 55.7117 475.024 55.5305C474.5 55.2184 474.238 54.6848 474.238 53.9297C474.238 53.3559 474.415 52.6058 474.767 51.6796C475.119 50.7533 475.295 50.1644 475.295 49.9127C475.295 49.9026 475.295 49.8926 475.295 49.8825C475.295 49.7919 475.295 49.7315 475.295 49.7013C475.295 49.6711 475.275 49.6358 475.235 49.5956C475.195 49.5553 475.139 49.5351 475.069 49.5351H475.009C474.777 49.5351 474.566 49.6308 474.374 49.8221C474.183 50.0134 474.032 50.2198 473.921 50.4412C473.81 50.6627 473.725 50.8742 473.664 51.0755C473.604 51.2769 473.564 51.3876 473.544 51.4077C473.524 51.4279 473.443 51.438 473.302 51.438H473.091C473.03 51.3775 473 51.3322 473 51.302Z" fill="black"/>
<path d="M486.785 51.8608C486.785 50.6325 487.198 49.6257 488.023 48.8405C488.849 48.0552 489.825 47.6072 490.953 47.4964C490.963 47.4964 491.048 47.4964 491.21 47.4964C491.371 47.4964 491.582 47.4914 491.844 47.4813C492.106 47.4713 492.357 47.4713 492.599 47.4813H494.094C494.245 47.5619 494.32 47.6625 494.32 47.7834C494.32 47.874 494.255 47.9696 494.124 48.0703L492.554 48.0854C491.436 48.0955 490.746 48.1257 490.485 48.176C489.991 48.2968 489.553 48.478 489.171 48.7197C488.788 48.9613 488.491 49.2079 488.28 49.4596C488.068 49.7113 487.887 49.9882 487.736 50.2902C487.585 50.5923 487.495 50.8339 487.464 51.0151C487.434 51.1963 487.409 51.3675 487.389 51.5286V51.5588H494.094C494.245 51.6393 494.32 51.74 494.32 51.8608C494.32 51.9816 494.245 52.0823 494.094 52.1628H487.389V52.193C487.389 52.4044 487.439 52.6612 487.54 52.9632C487.641 53.2652 487.807 53.5924 488.038 53.9448C488.27 54.2972 488.592 54.6194 489.005 54.9113C489.417 55.2033 489.906 55.4097 490.47 55.5305C490.741 55.5909 491.436 55.6261 492.554 55.6362H494.124C494.255 55.7369 494.32 55.8376 494.32 55.9382C494.32 56.059 494.245 56.1597 494.094 56.2403H492.629C492.559 56.2403 492.433 56.2403 492.252 56.2403C492.07 56.2403 491.924 56.2453 491.814 56.2554C490.253 56.2554 489.02 55.8225 488.114 54.9566C487.228 54.1311 486.785 53.0991 486.785 51.8608Z" fill="black"/>
<path d="M496.525 55.9684C496.525 55.9684 496.45 55.9684 496.299 55.9684C496.148 55.9684 496.072 55.9131 496.072 55.8023C496.072 55.7016 496.193 55.5255 496.435 55.2738C496.676 55.0221 496.812 54.866 496.842 54.8056C497.144 54.3928 497.421 53.8039 497.673 53.0387C497.925 52.2736 498.136 51.5286 498.307 50.8037C498.478 50.0788 498.75 49.3086 499.123 48.4931C499.495 47.6776 499.943 46.993 500.467 46.4393C500.88 46.0366 501.363 45.6943 501.917 45.4124C502.47 45.1305 503.034 44.9896 503.608 44.9896C503.89 44.9896 504.126 45.0349 504.318 45.1255C504.509 45.2161 504.64 45.3419 504.71 45.503C504.781 45.6641 504.836 45.795 504.877 45.8957C504.917 45.9963 504.932 46.1071 504.922 46.2279V46.4091C504.922 46.7011 504.907 46.9024 504.877 47.0132C504.846 47.1239 504.761 47.2397 504.62 47.3605C504.449 47.5317 504.247 47.6726 504.016 47.7834C503.784 47.8941 503.583 47.9495 503.412 47.9495C503.261 47.9495 503.185 47.8941 503.185 47.7834C503.185 47.7532 503.195 47.6726 503.215 47.5417C503.235 47.4108 503.246 47.29 503.246 47.1793C503.246 46.8773 503.18 46.6256 503.049 46.4242C502.918 46.2229 502.707 46.1222 502.415 46.1222C502.123 46.1222 501.912 46.1876 501.781 46.3185C501.348 46.7111 500.96 47.3404 500.618 48.2062C500.276 49.072 499.963 50.0335 499.682 51.0906C499.4 52.1477 499.208 52.8072 499.108 53.0689C498.886 53.5421 498.74 53.8341 498.67 53.9448L498.579 54.0807L498.972 54.0958C499.546 54.0958 500.276 54.2116 501.162 54.4432C502.047 54.6747 502.752 54.8106 503.276 54.8509H503.487C503.608 54.7301 503.714 54.5539 503.804 54.3224C503.895 54.0908 504.071 53.8844 504.333 53.7032C504.705 53.4616 505.017 53.3408 505.269 53.3408C505.42 53.3408 505.496 53.3911 505.496 53.4918C505.496 53.9045 505.153 54.418 504.469 55.0321C503.784 55.6463 503.004 55.9584 502.128 55.9684C501.604 55.9684 500.88 55.8527 499.953 55.6211C499.027 55.3895 498.358 55.2536 497.945 55.2134L497.718 55.1983L497.567 55.3342C497.366 55.5355 497.144 55.6916 496.903 55.8023L496.525 55.9684Z" fill="black"/>
<path d="M508.283 42.9396L508.145 42.993C508.045 43.0285 507.902 43.0641 507.717 43.0997C507.532 43.1353 507.326 43.1602 507.098 43.1745H506.895V42.6833H507.098C507.433 42.6691 507.742 42.6157 508.027 42.5232C508.312 42.4306 508.511 42.3452 508.625 42.2669C508.739 42.1886 508.838 42.1103 508.924 42.032C508.938 42.0107 508.981 42 509.052 42C509.116 42 509.177 42.0214 509.234 42.0641V45.2564L509.244 48.4595C509.294 48.5093 509.337 48.5414 509.372 48.5556C509.408 48.5698 509.493 48.5841 509.629 48.5983C509.764 48.6125 509.984 48.6197 510.291 48.6197H510.568V49.1108H510.451C510.301 49.0894 509.735 49.0788 508.753 49.0788C507.785 49.0788 507.226 49.0894 507.077 49.1108H506.949V48.6197H507.226C507.383 48.6197 507.518 48.6197 507.632 48.6197C507.746 48.6197 507.835 48.6161 507.899 48.609C507.963 48.6019 508.02 48.5912 508.07 48.5769C508.12 48.5627 508.148 48.5556 508.155 48.5556C508.162 48.5556 508.184 48.5378 508.219 48.5022C508.255 48.4666 508.276 48.4524 508.283 48.4595V42.9396Z" fill="black"/>
<path d="M513.522 51.8608C513.522 51.1661 513.573 50.5067 513.673 49.8825C513.774 49.2583 513.89 48.7197 514.021 48.2666C514.151 47.8136 514.338 47.3706 514.579 46.9377C514.821 46.5047 515.012 46.1675 515.153 45.9259C515.294 45.6842 515.506 45.4225 515.787 45.1406C516.069 44.8587 516.235 44.6875 516.286 44.6271C516.336 44.5667 516.462 44.461 516.663 44.31H516.86H516.92C517.061 44.31 517.131 44.3553 517.131 44.4459C517.131 44.4761 517.046 44.5818 516.875 44.763C516.704 44.9442 516.497 45.211 516.256 45.5634C516.014 45.9158 515.767 46.3487 515.516 46.8622C515.264 47.3756 515.052 48.0703 514.881 48.9462C514.71 49.8221 514.625 50.7936 514.625 51.8608C514.625 52.928 514.71 53.8945 514.881 54.7603C515.052 55.6261 515.259 56.3258 515.5 56.8594C515.742 57.393 515.989 57.8259 516.24 58.1582C516.492 58.4904 516.704 58.7572 516.875 58.9586C517.046 59.1599 517.131 59.2656 517.131 59.2757C517.131 59.3663 517.056 59.4116 516.905 59.4116H516.86H516.663L516.24 59.0492C515.294 58.1934 514.604 57.1262 514.172 55.8476C513.739 54.569 513.522 53.2401 513.522 51.8608Z" fill="black"/>
<path d="M519.593 46.0165C519.251 46.0165 519.07 45.9963 519.049 45.9561C519.039 45.9359 519.034 45.8957 519.034 45.8352C519.034 45.5936 519.09 45.4275 519.2 45.3369C519.221 45.3268 519.306 45.3218 519.457 45.3218C519.87 45.3419 520.555 45.352 521.511 45.352C521.853 45.352 522.17 45.352 522.462 45.352C522.754 45.352 522.981 45.347 523.142 45.3369C523.303 45.3268 523.404 45.3268 523.444 45.3369C523.605 45.3369 523.686 45.3872 523.686 45.4879C523.686 45.508 523.676 45.5785 523.655 45.6993C523.605 45.8705 523.555 45.9712 523.504 46.0014H523.474C523.454 46.0014 523.429 46.0014 523.399 46.0014C523.368 46.0014 523.333 46.0014 523.293 46.0014C523.253 46.0014 523.207 46.0064 523.157 46.0165C523.107 46.0265 523.061 46.0265 523.021 46.0165C522.628 46.0265 522.377 46.0416 522.266 46.0618C522.155 46.0819 522.065 46.1373 521.994 46.2279C521.984 46.248 521.843 46.7766 521.571 47.8136C521.3 48.8505 521.028 49.9379 520.756 51.0755C520.484 52.2132 520.333 52.8827 520.303 53.084C520.283 53.225 520.273 53.371 520.273 53.522C520.273 54.0656 520.429 54.4935 520.741 54.8056C521.053 55.1177 521.486 55.2738 522.04 55.2738C522.714 55.2738 523.389 55.0472 524.063 54.5942C524.738 54.1411 525.231 53.4565 525.543 52.5404L526.313 49.5049C526.786 47.5719 527.023 46.5652 527.023 46.4846C527.023 46.2128 526.701 46.0567 526.057 46.0165C525.815 46.0165 525.694 45.9611 525.694 45.8503C525.694 45.8302 525.704 45.7698 525.724 45.6691C525.765 45.508 525.795 45.4124 525.815 45.3822C525.835 45.352 525.885 45.3319 525.966 45.3218C525.996 45.3218 526.157 45.3268 526.449 45.3369C526.741 45.347 527.164 45.357 527.718 45.3671C528.231 45.3671 528.624 45.3621 528.896 45.352C529.167 45.3419 529.313 45.3369 529.334 45.3369C529.485 45.3369 529.56 45.3872 529.56 45.4879C529.56 45.7094 529.52 45.8604 529.439 45.941C529.409 45.9913 529.298 46.0165 529.107 46.0165C528.392 46.0567 527.944 46.2581 527.763 46.6205C527.743 46.6709 527.491 47.6424 527.008 49.5351C526.595 51.2366 526.343 52.2383 526.253 52.5404C525.921 53.5471 525.342 54.3677 524.516 55.0019C523.691 55.6362 522.835 55.9584 521.949 55.9684C521.023 55.9684 520.283 55.6865 519.729 55.1227C519.175 54.559 518.893 53.8894 518.883 53.1142V52.8726C518.883 52.6914 519.16 51.4933 519.714 49.2784C520.207 47.2548 520.454 46.2128 520.454 46.1524C520.454 46.0819 520.167 46.0366 519.593 46.0165Z" fill="black"/>
<path d="M530.466 44.3251L530.527 44.31C530.577 44.31 530.627 44.31 530.678 44.31H530.859L531.282 44.6724C532.228 45.5282 532.918 46.5954 533.351 47.874C533.784 49.1526 534 50.4815 534 51.8608C534 52.5454 533.95 53.2048 533.849 53.8391C533.748 54.4734 533.633 55.012 533.502 55.455C533.371 55.898 533.185 56.3409 532.943 56.7839C532.701 57.2269 532.51 57.5642 532.369 57.7957C532.228 58.0273 532.022 58.284 531.75 58.5659C531.478 58.8478 531.317 59.0139 531.267 59.0643C531.216 59.1146 531.1 59.2103 530.919 59.3512C530.889 59.3814 530.869 59.4015 530.859 59.4116H530.678C530.597 59.4116 530.542 59.4116 530.512 59.4116C530.481 59.4116 530.456 59.3965 530.436 59.3663C530.416 59.3361 530.401 59.2908 530.391 59.2304C530.401 59.2203 530.456 59.1549 530.557 59.0341C532.117 57.4132 532.898 55.0221 532.898 51.8608C532.898 48.6995 532.117 46.3084 530.557 44.6875C530.456 44.5667 530.401 44.5013 530.391 44.4912C530.391 44.4107 530.416 44.3553 530.466 44.3251Z" fill="black"/>
<path d="M579.333 241.679C579.333 241.34 579.218 241.047 578.989 240.801C578.76 240.555 578.43 240.433 577.997 240.433C577.692 240.433 577.429 240.488 577.208 240.598C576.954 240.759 576.827 240.98 576.827 241.259C576.818 241.302 576.818 241.357 576.827 241.425C576.835 241.493 576.903 241.594 577.03 241.73C577.158 241.866 577.34 241.972 577.577 242.048C577.73 242.09 577.917 242.129 578.137 242.163C578.358 242.196 578.544 242.235 578.697 242.277C578.849 242.319 578.985 242.375 579.104 242.442C579.248 242.51 579.388 242.595 579.524 242.697C579.659 242.799 579.795 242.972 579.931 243.218C580.066 243.464 580.139 243.727 580.147 244.007C580.147 244.533 579.986 244.965 579.664 245.305C579.341 245.644 578.82 245.818 578.099 245.826H577.997C577.556 245.826 577.149 245.673 576.776 245.368L576.674 245.457L576.56 245.572C576.509 245.623 576.458 245.669 576.407 245.712L576.267 245.839H576.165H576.114C576.089 245.839 576.051 245.813 576 245.763V244.758V244.02C576 243.842 576.008 243.736 576.025 243.702C576.042 243.668 576.085 243.647 576.153 243.638H576.267C576.369 243.638 576.437 243.655 576.471 243.689C576.505 243.723 576.526 243.774 576.534 243.842C576.543 243.91 576.572 244.024 576.623 244.185C576.674 244.346 576.755 244.524 576.865 244.719C577.162 245.152 577.573 245.368 578.099 245.368C578.922 245.368 579.333 245.037 579.333 244.376C579.333 244.13 579.257 243.931 579.104 243.778C578.934 243.575 578.582 243.422 578.048 243.32C577.514 243.218 577.162 243.121 576.992 243.028C576.687 242.883 576.445 242.688 576.267 242.442C576.089 242.196 576 241.934 576 241.654C576 241.323 576.072 241.043 576.216 240.814C576.36 240.585 576.543 240.416 576.763 240.305C576.984 240.195 577.196 240.119 577.399 240.076C577.603 240.034 577.789 240.013 577.959 240.013H578.099C578.438 240.013 578.735 240.076 578.989 240.204L579.18 240.305L579.295 240.216C579.38 240.14 579.473 240.068 579.575 240H579.676H579.727C579.753 240 579.791 240.025 579.842 240.076V241.755L579.765 241.832H579.409C579.358 241.781 579.333 241.73 579.333 241.679Z" fill="black"/>
<path d="M585.464 244.961C584.989 245.538 584.451 245.826 583.849 245.826H583.76C582.7 245.826 582.089 245.406 581.928 244.567C581.919 244.507 581.911 243.926 581.902 242.824C581.894 241.9 581.89 241.382 581.89 241.272C581.89 241.162 581.864 241.073 581.813 241.005C581.729 240.869 581.474 240.801 581.05 240.801H580.91V240.509C580.91 240.314 580.919 240.216 580.936 240.216L581.076 240.204C581.16 240.195 581.283 240.187 581.445 240.178C581.606 240.17 581.767 240.161 581.928 240.153C582.072 240.144 582.229 240.136 582.399 240.127C582.568 240.119 582.695 240.106 582.78 240.089C582.865 240.072 582.916 240.068 582.933 240.076H582.971V242.379C582.98 243.939 582.992 244.775 583.009 244.885C583.035 245.012 583.094 245.114 583.187 245.19C583.357 245.309 583.611 245.368 583.951 245.368C584.171 245.368 584.37 245.33 584.548 245.254C584.727 245.177 584.862 245.08 584.955 244.961C585.049 244.842 585.134 244.707 585.21 244.554C585.286 244.401 585.337 244.274 585.363 244.172C585.388 244.071 585.405 243.969 585.413 243.867C585.413 243.859 585.413 243.787 585.413 243.651C585.413 243.515 585.418 243.346 585.426 243.142C585.435 242.939 585.435 242.739 585.426 242.544V241.692C585.426 241.302 585.384 241.06 585.299 240.967C585.214 240.873 585.002 240.818 584.663 240.801H584.434V240.216C584.451 240.216 584.773 240.195 585.401 240.153C586.028 240.11 586.363 240.085 586.406 240.076H586.495V242.341C586.495 243.867 586.499 244.643 586.507 244.669C586.533 244.838 586.592 244.948 586.686 244.999C586.779 245.05 586.97 245.088 587.258 245.114H587.487V245.699C587.47 245.699 587.152 245.72 586.533 245.763C585.914 245.805 585.587 245.83 585.553 245.839H585.464V244.961Z" fill="black"/>
<path d="M588.123 247.582H588.301C588.632 247.582 588.831 247.522 588.899 247.404V247.302C588.899 247.242 588.899 247.162 588.899 247.06C588.899 246.958 588.899 246.831 588.899 246.678C588.899 246.526 588.903 246.36 588.912 246.182C588.92 246.004 588.92 245.818 588.912 245.623C588.903 245.428 588.903 245.22 588.912 244.999C588.92 244.779 588.92 244.563 588.912 244.351C588.912 244.062 588.912 243.761 588.912 243.447C588.912 243.134 588.912 242.854 588.912 242.608C588.912 242.362 588.912 242.137 588.912 241.934C588.912 241.73 588.907 241.565 588.899 241.437C588.89 241.31 588.89 241.242 588.899 241.234C588.873 241.073 588.814 240.967 588.721 240.916C588.628 240.865 588.437 240.827 588.148 240.801H587.919V240.509C587.919 240.314 587.928 240.216 587.945 240.216L588.072 240.204C588.157 240.195 588.28 240.187 588.441 240.178C588.602 240.17 588.759 240.161 588.912 240.153C589.056 240.144 589.213 240.136 589.382 240.127C589.552 240.119 589.679 240.106 589.764 240.089C589.849 240.072 589.895 240.068 589.904 240.076H589.942V240.407L589.955 240.738L590.057 240.649C590.557 240.276 591.142 240.089 591.812 240.089C592.499 240.089 593.084 240.36 593.567 240.903C594.051 241.446 594.297 242.129 594.305 242.951C594.305 243.808 594.03 244.503 593.478 245.037C592.927 245.572 592.304 245.839 591.608 245.839C591.032 245.839 590.523 245.652 590.082 245.279L589.98 245.19V246.271V246.984C589.98 247.213 589.989 247.353 590.006 247.404C590.023 247.454 590.069 247.501 590.146 247.543C590.324 247.569 590.531 247.582 590.769 247.582H590.972V248.167H590.871L590.565 248.154C590.37 248.146 590.158 248.141 589.929 248.141C589.7 248.141 589.539 248.137 589.446 248.129C588.572 248.129 588.098 248.141 588.021 248.167H587.919V247.582H588.123ZM593.059 242.926C593.059 242.298 592.914 241.751 592.626 241.285C592.338 240.818 591.977 240.585 591.545 240.585C590.943 240.585 590.421 240.861 589.98 241.412V244.452C590.319 245.063 590.794 245.368 591.405 245.368C591.837 245.368 592.219 245.139 592.55 244.681C592.881 244.223 593.05 243.638 593.059 242.926Z" fill="black"/>
<path d="M595.196 247.582H595.374C595.705 247.582 595.904 247.522 595.972 247.404V247.302C595.972 247.242 595.972 247.162 595.972 247.06C595.972 246.958 595.972 246.831 595.972 246.678C595.972 246.526 595.976 246.36 595.984 246.182C595.993 246.004 595.993 245.818 595.984 245.623C595.976 245.428 595.976 245.22 595.984 244.999C595.993 244.779 595.993 244.563 595.984 244.351C595.984 244.062 595.984 243.761 595.984 243.447C595.984 243.134 595.984 242.854 595.984 242.608C595.984 242.362 595.984 242.137 595.984 241.934C595.984 241.73 595.98 241.565 595.972 241.437C595.963 241.31 595.963 241.242 595.972 241.234C595.946 241.073 595.887 240.967 595.794 240.916C595.7 240.865 595.51 240.827 595.221 240.801H594.992V240.509C594.992 240.314 595.001 240.216 595.018 240.216L595.145 240.204C595.23 240.195 595.353 240.187 595.514 240.178C595.675 240.17 595.832 240.161 595.984 240.153C596.129 240.144 596.286 240.136 596.455 240.127C596.625 240.119 596.752 240.106 596.837 240.089C596.922 240.072 596.968 240.068 596.977 240.076H597.015V240.407L597.028 240.738L597.129 240.649C597.63 240.276 598.215 240.089 598.885 240.089C599.572 240.089 600.157 240.36 600.64 240.903C601.124 241.446 601.37 242.129 601.378 242.951C601.378 243.808 601.102 244.503 600.551 245.037C600 245.572 599.377 245.839 598.681 245.839C598.105 245.839 597.596 245.652 597.155 245.279L597.053 245.19V246.271V246.984C597.053 247.213 597.061 247.353 597.078 247.404C597.095 247.454 597.142 247.501 597.218 247.543C597.396 247.569 597.604 247.582 597.842 247.582H598.045V248.167H597.943L597.638 248.154C597.443 248.146 597.231 248.141 597.002 248.141C596.773 248.141 596.612 248.137 596.519 248.129C595.645 248.129 595.17 248.141 595.094 248.167H594.992V247.582H595.196ZM600.131 242.926C600.131 242.298 599.987 241.751 599.699 241.285C599.411 240.818 599.05 240.585 598.618 240.585C598.016 240.585 597.494 240.861 597.053 241.412V244.452C597.392 245.063 597.867 245.368 598.478 245.368C598.91 245.368 599.292 245.139 599.623 244.681C599.953 244.223 600.123 243.638 600.131 242.926Z" fill="black"/>
<path d="M605.258 242.048C605.258 241.98 605.296 241.849 605.372 241.654C605.449 241.459 605.555 241.238 605.69 240.992C605.826 240.746 606.013 240.534 606.25 240.356C606.488 240.178 606.738 240.085 607.001 240.076C607.391 240.076 607.683 240.182 607.878 240.394C608.074 240.606 608.171 240.857 608.171 241.145C608.171 241.298 608.027 241.772 607.739 242.57C607.45 243.367 607.306 243.965 607.306 244.363C607.306 244.728 607.365 244.982 607.484 245.126C607.603 245.271 607.781 245.347 608.018 245.355C608.256 245.364 608.481 245.292 608.693 245.139C608.905 244.987 609.061 244.842 609.163 244.707L609.303 244.49C609.32 244.457 609.481 243.812 609.787 242.557C610.041 241.539 610.194 240.946 610.245 240.776C610.295 240.606 610.355 240.483 610.423 240.407C610.567 240.28 610.719 240.216 610.881 240.216C611.025 240.216 611.131 240.259 611.199 240.343C611.266 240.428 611.3 240.509 611.3 240.585L610.334 244.63C610.325 244.673 610.321 244.741 610.321 244.834C610.321 245.046 610.351 245.186 610.41 245.254C610.469 245.322 610.558 245.36 610.677 245.368C610.864 245.343 611.012 245.211 611.122 244.974C611.233 244.736 611.36 244.363 611.504 243.854C611.521 243.787 611.606 243.753 611.758 243.753C611.919 243.753 612 243.791 612 243.867C611.992 243.91 611.983 243.969 611.975 244.045C611.966 244.122 611.928 244.257 611.86 244.452C611.792 244.647 611.72 244.83 611.644 244.999C611.568 245.169 611.461 245.33 611.326 245.483C611.19 245.635 611.037 245.741 610.868 245.801C610.8 245.818 610.698 245.826 610.563 245.826C610.003 245.826 609.617 245.589 609.405 245.114C609.388 245.122 609.341 245.165 609.265 245.241C609.189 245.317 609.112 245.381 609.036 245.432C608.96 245.483 608.866 245.546 608.756 245.623C608.646 245.699 608.523 245.75 608.387 245.775C608.252 245.801 608.107 245.822 607.955 245.839C607.582 245.839 607.251 245.763 606.963 245.61C606.522 245.347 606.301 244.898 606.301 244.261C606.301 243.778 606.449 243.146 606.746 242.366C607.043 241.586 607.192 241.09 607.192 240.878C607.192 240.869 607.192 240.861 607.192 240.852C607.192 240.776 607.192 240.725 607.192 240.7C607.192 240.674 607.175 240.645 607.141 240.611C607.107 240.577 607.06 240.56 607.001 240.56H606.95C606.755 240.56 606.577 240.64 606.416 240.801C606.254 240.963 606.127 241.136 606.034 241.323C605.941 241.51 605.869 241.688 605.818 241.857C605.767 242.027 605.733 242.12 605.716 242.137C605.699 242.154 605.631 242.163 605.512 242.163H605.334C605.283 242.112 605.258 242.073 605.258 242.048Z" fill="black"/>
<path d="M307.451 241.649C307.451 241.298 307.332 240.995 307.095 240.74C306.858 240.486 306.515 240.358 306.068 240.358C305.752 240.358 305.479 240.415 305.251 240.53C304.988 240.696 304.856 240.925 304.856 241.214C304.847 241.258 304.847 241.315 304.856 241.386C304.865 241.456 304.935 241.561 305.067 241.702C305.198 241.842 305.387 241.952 305.633 242.031C305.791 242.075 305.984 242.114 306.213 242.149C306.441 242.185 306.634 242.224 306.792 242.268C306.95 242.312 307.091 242.369 307.213 242.439C307.363 242.509 307.508 242.597 307.648 242.703C307.789 242.808 307.929 242.988 308.07 243.243C308.21 243.497 308.285 243.769 308.293 244.059C308.293 244.603 308.127 245.051 307.793 245.402C307.459 245.754 306.919 245.934 306.173 245.942H306.068C305.611 245.942 305.19 245.784 304.803 245.468L304.698 245.56L304.579 245.679C304.527 245.732 304.474 245.78 304.421 245.824L304.277 245.956H304.171H304.119C304.092 245.956 304.053 245.929 304 245.877V244.836V244.072C304 243.888 304.009 243.778 304.026 243.743C304.044 243.708 304.088 243.686 304.158 243.677H304.277C304.382 243.677 304.452 243.695 304.487 243.73C304.522 243.765 304.544 243.818 304.553 243.888C304.562 243.958 304.593 244.077 304.645 244.243C304.698 244.41 304.781 244.595 304.896 244.797C305.203 245.244 305.629 245.468 306.173 245.468C307.025 245.468 307.451 245.126 307.451 244.441C307.451 244.186 307.372 243.98 307.213 243.822C307.038 243.611 306.674 243.453 306.12 243.348C305.567 243.243 305.203 243.142 305.027 243.045C304.711 242.896 304.461 242.694 304.277 242.439C304.092 242.185 304 241.912 304 241.623C304 241.28 304.075 240.991 304.224 240.753C304.373 240.516 304.562 240.341 304.79 240.227C305.018 240.113 305.238 240.033 305.449 239.99C305.659 239.946 305.853 239.924 306.028 239.924H306.173C306.524 239.924 306.832 239.99 307.095 240.121L307.292 240.227L307.411 240.134C307.499 240.055 307.595 239.981 307.701 239.911H307.806H307.859C307.885 239.911 307.925 239.937 307.977 239.99V241.728L307.898 241.807H307.53C307.477 241.754 307.451 241.702 307.451 241.649Z" fill="black"/>
<path d="M309.663 237.79C309.663 237.544 309.742 237.351 309.9 237.211C310.058 237.07 310.251 237 310.48 237C310.682 237.018 310.857 237.092 311.006 237.224C311.156 237.356 311.23 237.544 311.23 237.79C311.23 238.054 311.156 238.251 311.006 238.383C310.857 238.515 310.673 238.58 310.453 238.58C310.234 238.58 310.049 238.515 309.9 238.383C309.751 238.251 309.672 238.054 309.663 237.79ZM312.007 245.811C311.876 245.784 311.419 245.771 310.638 245.771C310.541 245.771 310.379 245.771 310.15 245.771C309.922 245.771 309.703 245.78 309.492 245.798L309.202 245.811H309.097V245.205H309.308C309.553 245.205 309.768 245.192 309.953 245.165C310.032 245.13 310.08 245.082 310.098 245.021C310.115 244.959 310.124 244.775 310.124 244.467V243.111V241.952C310.124 241.495 310.115 241.206 310.098 241.083C310.08 240.96 310.019 240.876 309.913 240.832C309.79 240.771 309.584 240.74 309.294 240.74H309.149V240.437C309.149 240.235 309.158 240.134 309.176 240.134L309.308 240.121C309.395 240.113 309.518 240.104 309.676 240.095C309.834 240.086 309.992 240.077 310.15 240.069C310.3 240.06 310.458 240.051 310.625 240.042C310.791 240.033 310.919 240.02 311.006 240.003C311.094 239.985 311.143 239.981 311.151 239.99H311.191V244.994C311.235 245.082 311.287 245.135 311.349 245.152C311.41 245.17 311.564 245.187 311.81 245.205H312.113V245.811H312.007Z" fill="black"/>
<path d="M312.956 245.205H313.14C313.482 245.205 313.689 245.143 313.759 245.021V244.915C313.759 244.836 313.759 244.735 313.759 244.612C313.759 244.489 313.759 244.353 313.759 244.204C313.759 244.055 313.763 243.884 313.772 243.69C313.781 243.497 313.781 243.313 313.772 243.137C313.772 242.865 313.772 242.575 313.772 242.268C313.772 241.961 313.768 241.702 313.759 241.491V241.188C313.733 241.021 313.671 240.911 313.575 240.859C313.478 240.806 313.28 240.767 312.982 240.74H312.745V240.437C312.745 240.235 312.754 240.134 312.771 240.134L312.903 240.121C312.991 240.113 313.114 240.104 313.272 240.095C313.43 240.086 313.592 240.077 313.759 240.069C313.908 240.06 314.066 240.051 314.233 240.042C314.4 240.033 314.527 240.02 314.615 240.003C314.703 239.985 314.751 239.981 314.76 239.99H314.799V240.516C314.799 240.85 314.804 241.017 314.813 241.017C314.821 241.017 314.843 240.995 314.878 240.951C314.914 240.907 314.966 240.841 315.036 240.753C315.107 240.666 315.19 240.587 315.287 240.516C315.383 240.446 315.511 240.363 315.669 240.266C315.827 240.17 315.993 240.099 316.169 240.055C316.345 240.012 316.569 239.99 316.841 239.99C317.842 240.025 318.399 240.521 318.513 241.478C318.522 241.539 318.526 242.149 318.526 243.308V244.441C318.526 244.775 318.535 244.972 318.553 245.034C318.57 245.095 318.619 245.139 318.698 245.165C318.882 245.192 319.097 245.205 319.343 245.205H319.554V245.811H319.448L319.132 245.798C318.93 245.789 318.711 245.784 318.474 245.784C318.237 245.784 318.07 245.78 317.973 245.771C317.069 245.771 316.577 245.784 316.498 245.811H316.393V245.205H316.604C317.139 245.205 317.407 245.135 317.407 244.994C317.416 244.977 317.42 244.371 317.42 243.177C317.411 241.991 317.403 241.364 317.394 241.293C317.341 241.048 317.253 240.863 317.13 240.74C317.008 240.617 316.902 240.543 316.814 240.516C316.727 240.49 316.612 240.481 316.472 240.49C316.077 240.49 315.73 240.639 315.432 240.938C315.194 241.175 315.045 241.416 314.984 241.662C314.922 241.908 314.887 242.272 314.878 242.755V243.598V244.388C314.878 244.652 314.883 244.827 314.892 244.915C314.9 245.003 314.914 245.06 314.931 245.086C314.949 245.113 314.988 245.139 315.05 245.165C315.234 245.192 315.449 245.205 315.695 245.205H315.906V245.811H315.8L315.497 245.798C315.287 245.789 315.063 245.784 314.826 245.784C314.589 245.784 314.422 245.78 314.325 245.771C313.421 245.771 312.929 245.784 312.85 245.811H312.745V245.205H312.956Z" fill="black"/>
<path d="M324.071 240.424C324.457 240.038 324.896 239.845 325.388 239.845C325.651 239.845 325.84 239.928 325.954 240.095C326.068 240.262 326.126 240.429 326.126 240.595C326.126 240.718 326.086 240.828 326.007 240.925C325.928 241.021 325.809 241.07 325.651 241.07C325.362 241.07 325.199 240.938 325.164 240.674C325.147 240.552 325.16 240.459 325.204 240.398C325.204 240.389 325.208 240.376 325.217 240.358V240.345C324.971 240.372 324.738 240.468 324.519 240.635C324.449 240.679 324.413 240.71 324.413 240.727C324.413 240.736 324.431 240.758 324.466 240.793C324.501 240.828 324.541 240.881 324.585 240.951C324.629 241.021 324.677 241.1 324.73 241.188C324.782 241.276 324.822 241.39 324.848 241.53C324.874 241.671 324.892 241.816 324.901 241.965C324.901 242.509 324.686 242.97 324.255 243.348C323.825 243.725 323.294 243.919 322.662 243.927C322.223 243.927 321.788 243.804 321.358 243.559C321.261 243.717 321.213 243.884 321.213 244.059C321.213 244.366 321.327 244.595 321.556 244.744C321.635 244.797 321.709 244.823 321.779 244.823C321.85 244.823 322.166 244.832 322.728 244.849C323.465 244.858 323.939 244.884 324.15 244.928C324.686 245.007 325.107 245.187 325.414 245.468C325.757 245.811 325.928 246.241 325.928 246.759C325.928 247.347 325.586 247.799 324.901 248.115C324.374 248.388 323.751 248.524 323.031 248.524C322.302 248.524 321.674 248.388 321.147 248.115C320.462 247.808 320.12 247.369 320.12 246.798C320.12 246.482 320.212 246.219 320.397 246.008C320.581 245.798 320.765 245.653 320.95 245.574L321.095 245.495C320.779 245.222 320.621 244.854 320.621 244.388C320.621 243.976 320.748 243.603 321.002 243.269C320.616 242.883 320.423 242.448 320.423 241.965C320.423 241.412 320.642 240.947 321.081 240.569C321.52 240.192 322.052 239.998 322.675 239.99C323.123 239.99 323.54 240.104 323.926 240.332L324.071 240.424ZM323.676 241.293C323.632 241.048 323.518 240.854 323.334 240.714C323.149 240.573 322.921 240.499 322.649 240.49C322.394 240.49 322.175 240.56 321.99 240.701C321.806 240.841 321.692 241.039 321.648 241.293C321.621 241.443 321.608 241.667 321.608 241.965C321.608 242.351 321.639 242.637 321.7 242.821C321.762 243.006 321.894 243.159 322.096 243.282C322.245 243.37 322.434 243.414 322.662 243.414C322.855 243.414 323.022 243.383 323.162 243.322C323.303 243.26 323.404 243.181 323.465 243.085C323.527 242.988 323.575 242.9 323.61 242.821C323.645 242.742 323.667 242.676 323.676 242.624C323.702 242.483 323.715 242.264 323.715 241.965C323.715 241.667 323.702 241.443 323.676 241.293ZM325.046 246.798C325.046 246.579 324.984 246.399 324.861 246.259C324.738 246.118 324.558 246.017 324.321 245.956C324.084 245.894 323.869 245.855 323.676 245.837C323.483 245.82 323.246 245.811 322.965 245.811H322.609C322.021 245.811 321.67 245.837 321.556 245.89C321.38 245.969 321.244 246.092 321.147 246.259C321.051 246.425 320.998 246.601 320.989 246.785C320.989 246.873 321.016 246.974 321.068 247.088C321.121 247.202 321.213 247.334 321.345 247.483C321.477 247.633 321.687 247.755 321.977 247.852C322.267 247.949 322.618 248.001 323.031 248.01C323.636 248.01 324.124 247.887 324.492 247.641C324.861 247.396 325.046 247.115 325.046 246.798Z" fill="black"/>
<path d="M333.501 241.649C333.501 241.298 333.382 240.995 333.145 240.74C332.908 240.486 332.566 240.358 332.118 240.358C331.802 240.358 331.53 240.415 331.301 240.53C331.038 240.696 330.906 240.925 330.906 241.214C330.897 241.258 330.897 241.315 330.906 241.386C330.915 241.456 330.985 241.561 331.117 241.702C331.249 241.842 331.437 241.952 331.683 242.031C331.841 242.075 332.034 242.114 332.263 242.149C332.491 242.185 332.684 242.224 332.842 242.268C333 242.312 333.141 242.369 333.264 242.439C333.413 242.509 333.558 242.597 333.698 242.703C333.839 242.808 333.979 242.988 334.12 243.243C334.26 243.497 334.335 243.769 334.344 244.059C334.344 244.603 334.177 245.051 333.843 245.402C333.51 245.754 332.97 245.934 332.223 245.942H332.118C331.661 245.942 331.24 245.784 330.854 245.468L330.748 245.56L330.63 245.679C330.577 245.732 330.524 245.78 330.472 245.824L330.327 245.956H330.221H330.169C330.142 245.956 330.103 245.929 330.05 245.877V244.836V244.072C330.05 243.888 330.059 243.778 330.077 243.743C330.094 243.708 330.138 243.686 330.208 243.677H330.327C330.432 243.677 330.502 243.695 330.538 243.73C330.573 243.765 330.595 243.818 330.603 243.888C330.612 243.958 330.643 244.077 330.696 244.243C330.748 244.41 330.832 244.595 330.946 244.797C331.253 245.244 331.679 245.468 332.223 245.468C333.075 245.468 333.501 245.126 333.501 244.441C333.501 244.186 333.422 243.98 333.264 243.822C333.088 243.611 332.724 243.453 332.171 243.348C331.617 243.243 331.253 243.142 331.077 243.045C330.761 242.896 330.511 242.694 330.327 242.439C330.142 242.185 330.05 241.912 330.05 241.623C330.05 241.28 330.125 240.991 330.274 240.753C330.423 240.516 330.612 240.341 330.84 240.227C331.069 240.113 331.288 240.033 331.499 239.99C331.71 239.946 331.903 239.924 332.078 239.924H332.223C332.574 239.924 332.882 239.99 333.145 240.121L333.343 240.227L333.461 240.134C333.549 240.055 333.646 239.981 333.751 239.911H333.856H333.909C333.935 239.911 333.975 239.937 334.028 239.99V241.728L333.949 241.807H333.58C333.527 241.754 333.501 241.702 333.501 241.649Z" fill="black"/>
<path d="M339.849 245.047C339.357 245.644 338.799 245.942 338.176 245.942H338.084C336.986 245.942 336.354 245.508 336.187 244.639C336.179 244.577 336.17 243.976 336.161 242.834C336.152 241.877 336.148 241.342 336.148 241.228C336.148 241.113 336.122 241.021 336.069 240.951C335.981 240.811 335.718 240.74 335.279 240.74H335.134V240.437C335.134 240.235 335.143 240.134 335.16 240.134L335.305 240.121C335.393 240.113 335.52 240.104 335.687 240.095C335.854 240.086 336.021 240.077 336.187 240.069C336.337 240.06 336.499 240.051 336.675 240.042C336.85 240.033 336.982 240.02 337.07 240.003C337.158 239.985 337.21 239.981 337.228 239.99H337.267V242.373C337.276 243.989 337.289 244.854 337.307 244.968C337.333 245.1 337.395 245.205 337.491 245.284C337.667 245.407 337.93 245.468 338.281 245.468C338.51 245.468 338.716 245.429 338.9 245.35C339.085 245.271 339.225 245.17 339.322 245.047C339.418 244.924 339.506 244.783 339.585 244.625C339.664 244.467 339.717 244.336 339.743 244.23C339.77 244.125 339.787 244.02 339.796 243.914C339.796 243.905 339.796 243.831 339.796 243.69C339.796 243.55 339.8 243.374 339.809 243.164C339.818 242.953 339.818 242.747 339.809 242.545V241.662C339.809 241.258 339.765 241.008 339.677 240.911C339.59 240.815 339.37 240.758 339.019 240.74H338.782V240.134C338.799 240.134 339.133 240.113 339.783 240.069C340.433 240.025 340.779 239.998 340.823 239.99H340.915V242.334C340.915 243.914 340.92 244.718 340.929 244.744C340.955 244.92 341.016 245.034 341.113 245.086C341.21 245.139 341.407 245.179 341.706 245.205H341.943V245.811C341.925 245.811 341.596 245.833 340.955 245.877C340.314 245.92 339.976 245.947 339.941 245.956H339.849V245.047Z" fill="black"/>
<path d="M342.601 247.76H342.786C343.128 247.76 343.334 247.698 343.405 247.576V247.47C343.405 247.409 343.405 247.325 343.405 247.22C343.405 247.115 343.405 246.983 343.405 246.825C343.405 246.667 343.409 246.496 343.418 246.311C343.427 246.127 343.427 245.934 343.418 245.732C343.409 245.53 343.409 245.315 343.418 245.086C343.427 244.858 343.427 244.634 343.418 244.415C343.418 244.116 343.418 243.805 343.418 243.48C343.418 243.155 343.418 242.865 343.418 242.61C343.418 242.356 343.418 242.123 343.418 241.912C343.418 241.702 343.413 241.53 343.405 241.399C343.396 241.267 343.396 241.197 343.405 241.188C343.378 241.021 343.317 240.911 343.22 240.859C343.124 240.806 342.926 240.767 342.628 240.74H342.39V240.437C342.39 240.235 342.399 240.134 342.417 240.134L342.549 240.121C342.636 240.113 342.764 240.104 342.93 240.095C343.097 240.086 343.26 240.077 343.418 240.069C343.567 240.06 343.729 240.051 343.905 240.042C344.081 240.033 344.212 240.02 344.3 240.003C344.388 239.985 344.436 239.981 344.445 239.99H344.485V240.332L344.498 240.674L344.603 240.582C345.121 240.196 345.727 240.003 346.421 240.003C347.132 240.003 347.738 240.284 348.238 240.846C348.738 241.408 348.993 242.114 349.002 242.966C349.002 243.853 348.716 244.573 348.146 245.126C347.575 245.679 346.93 245.956 346.21 245.956C345.613 245.956 345.086 245.762 344.629 245.376L344.524 245.284V246.403V247.141C344.524 247.378 344.533 247.523 344.55 247.576C344.568 247.628 344.616 247.676 344.695 247.72C344.88 247.747 345.095 247.76 345.341 247.76H345.551V248.366H345.446L345.13 248.353C344.928 248.344 344.708 248.339 344.471 248.339C344.234 248.339 344.067 248.335 343.971 248.326C343.067 248.326 342.575 248.339 342.496 248.366H342.39V247.76H342.601ZM347.711 242.94C347.711 242.29 347.562 241.724 347.263 241.241C346.965 240.758 346.592 240.516 346.144 240.516C345.521 240.516 344.981 240.802 344.524 241.372V244.52C344.875 245.152 345.367 245.468 345.999 245.468C346.447 245.468 346.842 245.231 347.184 244.757C347.527 244.283 347.702 243.677 347.711 242.94Z" fill="black"/>
<path d="M349.924 247.76H350.108C350.451 247.76 350.657 247.698 350.727 247.576V247.47C350.727 247.409 350.727 247.325 350.727 247.22C350.727 247.115 350.727 246.983 350.727 246.825C350.727 246.667 350.731 246.496 350.74 246.311C350.749 246.127 350.749 245.934 350.74 245.732C350.731 245.53 350.731 245.315 350.74 245.086C350.749 244.858 350.749 244.634 350.74 244.415C350.74 244.116 350.74 243.805 350.74 243.48C350.74 243.155 350.74 242.865 350.74 242.61C350.74 242.356 350.74 242.123 350.74 241.912C350.74 241.702 350.736 241.53 350.727 241.399C350.718 241.267 350.718 241.197 350.727 241.188C350.701 241.021 350.639 240.911 350.543 240.859C350.446 240.806 350.249 240.767 349.95 240.74H349.713V240.437C349.713 240.235 349.722 240.134 349.739 240.134L349.871 240.121C349.959 240.113 350.086 240.104 350.253 240.095C350.42 240.086 350.582 240.077 350.74 240.069C350.89 240.06 351.052 240.051 351.228 240.042C351.403 240.033 351.535 240.02 351.623 240.003C351.71 239.985 351.759 239.981 351.768 239.99H351.807V240.332L351.82 240.674L351.926 240.582C352.444 240.196 353.049 240.003 353.743 240.003C354.454 240.003 355.06 240.284 355.56 240.846C356.061 241.408 356.316 242.114 356.324 242.966C356.324 243.853 356.039 244.573 355.468 245.126C354.898 245.679 354.252 245.956 353.532 245.956C352.935 245.956 352.408 245.762 351.952 245.376L351.847 245.284V246.403V247.141C351.847 247.378 351.855 247.523 351.873 247.576C351.89 247.628 351.939 247.676 352.018 247.72C352.202 247.747 352.417 247.76 352.663 247.76H352.874V248.366H352.768L352.452 248.353C352.25 248.344 352.031 248.339 351.794 248.339C351.557 248.339 351.39 248.335 351.293 248.326C350.389 248.326 349.897 248.339 349.818 248.366H349.713V247.76H349.924ZM355.034 242.94C355.034 242.29 354.884 241.724 354.586 241.241C354.287 240.758 353.914 240.516 353.466 240.516C352.843 240.516 352.303 240.802 351.847 241.372V244.52C352.198 245.152 352.689 245.468 353.322 245.468C353.769 245.468 354.164 245.231 354.507 244.757C354.849 244.283 355.025 243.677 355.034 242.94Z" fill="black"/>
<path d="M360.341 242.031C360.341 241.961 360.381 241.825 360.46 241.623C360.539 241.421 360.648 241.192 360.789 240.938C360.929 240.683 361.123 240.464 361.368 240.279C361.614 240.095 361.873 239.998 362.145 239.99C362.549 239.99 362.852 240.099 363.054 240.319C363.256 240.538 363.357 240.797 363.357 241.096C363.357 241.254 363.208 241.746 362.909 242.571C362.611 243.396 362.462 244.015 362.462 244.428C362.462 244.805 362.523 245.069 362.646 245.218C362.769 245.367 362.953 245.446 363.199 245.455C363.445 245.464 363.678 245.389 363.897 245.231C364.117 245.073 364.279 244.924 364.384 244.783L364.529 244.56C364.547 244.524 364.714 243.857 365.03 242.558C365.293 241.504 365.451 240.89 365.504 240.714C365.556 240.538 365.618 240.411 365.688 240.332C365.837 240.2 365.995 240.134 366.162 240.134C366.312 240.134 366.421 240.178 366.492 240.266C366.562 240.354 366.597 240.437 366.597 240.516L365.596 244.704C365.587 244.748 365.583 244.819 365.583 244.915C365.583 245.135 365.614 245.28 365.675 245.35C365.736 245.42 365.829 245.46 365.952 245.468C366.145 245.442 366.298 245.306 366.413 245.06C366.527 244.814 366.658 244.428 366.808 243.901C366.825 243.831 366.913 243.796 367.071 243.796C367.238 243.796 367.321 243.835 367.321 243.914C367.312 243.958 367.304 244.02 367.295 244.099C367.286 244.178 367.247 244.318 367.176 244.52C367.106 244.722 367.032 244.911 366.953 245.086C366.873 245.262 366.764 245.429 366.623 245.587C366.483 245.745 366.325 245.855 366.149 245.916C366.079 245.934 365.974 245.942 365.833 245.942C365.254 245.942 364.854 245.697 364.635 245.205C364.617 245.214 364.569 245.258 364.49 245.337C364.411 245.416 364.332 245.481 364.253 245.534C364.174 245.587 364.077 245.653 363.963 245.732C363.849 245.811 363.721 245.863 363.581 245.89C363.441 245.916 363.291 245.938 363.133 245.956C362.747 245.956 362.404 245.877 362.106 245.719C361.649 245.446 361.421 244.981 361.421 244.323C361.421 243.822 361.575 243.168 361.882 242.36C362.189 241.552 362.343 241.039 362.343 240.819C362.343 240.811 362.343 240.802 362.343 240.793C362.343 240.714 362.343 240.661 362.343 240.635C362.343 240.609 362.325 240.578 362.29 240.543C362.255 240.508 362.207 240.49 362.145 240.49H362.093C361.891 240.49 361.706 240.573 361.54 240.74C361.373 240.907 361.241 241.087 361.145 241.28C361.048 241.473 360.973 241.658 360.921 241.833C360.868 242.009 360.833 242.106 360.815 242.123C360.798 242.141 360.728 242.149 360.605 242.149H360.42C360.368 242.097 360.341 242.057 360.341 242.031Z" fill="black"/>
</svg>
