<svg width="1136" height="356" viewBox="0 0 1136 356" fill="none" xmlns="http://www.w3.org/2000/svg">
<path d="M75.5 280.5C275 137.5 407 139 598.5 193C790 247 978 217.5 1063 102.5" stroke="black"/>
<circle cx="2" cy="2" r="2" transform="matrix(-1 0 0 1 995 164)" fill="black"/>
<path d="M1011 89L1007.05 93.2116L1012.67 94.5259L1011 89ZM993.487 166.114L1010.46 93.4957L1009.49 93.2681L992.513 165.886L993.487 166.114Z" fill="black"/>
<path d="M993.5 27L990.613 32H996.387L993.5 27ZM993.5 309L996.387 304H990.613L993.5 309ZM882 93.5L884.613 98.6482L887.765 93.8108L882 93.5ZM1091.5 230L1088.89 224.852L1085.73 229.689L1091.5 230ZM993 31.5V304.5H994V31.5H993ZM885.497 96.3755L1087.46 227.962L1088 227.125L886.043 95.5376L885.497 96.3755Z" fill="black"/>
<path d="M144 147C144 198.363 178.822 262.828 221.777 290.988C239.537 302.63 255.907 306.244 269 302.847C376.558 267.912 474.986 282.053 598.118 318.53C756.497 365.448 939.47 343.852 1046.21 266.75C1043.73 268.106 1041.08 269.151 1038.29 269.877C1025.19 273.274 1008.82 269.66 991.063 258.018C948.108 229.858 913.286 165.393 913.286 114.03C913.286 87.6153 922.496 69.8101 937.286 62.5759C843.18 100.138 722.183 100.364 598 63.5759C437.459 16.0167 319.734 8.6329 168 95.5459C153.21 102.78 144 120.585 144 147Z" fill="#D9D9D9" fill-opacity="0.3" stroke="black"/>
<path d="M299.555 248.975C299.555 197.612 264.732 133.147 221.777 104.988C200.913 91.3101 181.968 88.7135 168 95.5459C319.734 8.6329 437.459 16.0167 598 63.5759C722.183 100.364 843.18 100.138 937.286 62.5759C951.254 55.7435 970.2 58.3401 991.064 72.0175C1034.02 100.177 1068.84 164.642 1068.84 216.005C1068.84 241.595 1060.2 259.104 1046.21 266.75C939.47 343.852 756.497 365.448 598.118 318.53C476.423 282.479 378.859 268.245 272.763 301.644C271.542 302.112 270.287 302.513 269 302.847C270.256 302.439 271.51 302.038 272.763 301.644C289.177 295.353 299.555 277.015 299.555 248.975Z" fill="#D9D9D9" fill-opacity="0.4"/>
<path d="M598 63.5759C437.459 16.0167 319.734 8.6329 168 95.5459C181.968 88.7135 200.913 91.3101 221.777 104.988C264.732 133.147 299.555 197.612 299.555 248.975C299.555 279.101 287.574 298.028 269 302.847C376.558 267.912 474.986 282.053 598.118 318.53C756.497 365.448 939.47 343.852 1046.21 266.75C1060.2 259.104 1068.84 241.595 1068.84 216.005C1068.84 164.642 1034.02 100.177 991.064 72.0175C970.2 58.3401 951.254 55.7435 937.286 62.5759C843.18 100.138 722.183 100.364 598 63.5759Z" stroke="black"/>
<path d="M229 54L226.113 59H231.887L229 54ZM229 336L231.887 331H226.113L229 336ZM117.5 120.5L120.113 125.648L123.265 120.811L117.5 120.5ZM327 257L324.387 251.852L321.235 256.689L327 257ZM228.5 58.5V331.5H229.5V58.5H228.5ZM120.997 123.375L322.957 254.962L323.503 254.125L121.543 122.538L120.997 123.375Z" fill="black"/>
<path d="M291.064 201.504L286.475 198.001L285.736 203.727L291.064 201.504ZM229 194L286.537 201.424L286.665 200.432L229.128 193.008L229 194Z" fill="black"/>
<circle cx="2" cy="2" r="2" transform="matrix(-1 0 0 1 231 191)" fill="black"/>
<path d="M291 200.5C490.5 57.5001 489 119 680.5 173C872 227 926 203.5 1011 88.5" stroke="black" stroke-dasharray="6 6"/>
<path d="M713.744 60.0024C713.744 61.7131 713.284 63.3643 712.364 64.956C711.444 66.5477 710.257 67.8196 708.805 68.7717C707.353 69.7237 705.865 70.1997 704.341 70.1997C702.946 70.1997 701.753 69.7758 700.761 68.9279C699.769 68.0799 699.144 66.8452 698.885 65.2238C698.87 65.1048 698.863 64.785 698.863 64.2643C698.863 62.747 699.208 61.304 699.898 59.9354C700.589 58.5669 701.516 57.3545 702.68 56.2983C704.463 54.7661 706.253 54 708.05 54C708.597 54 708.942 54.0074 709.086 54.0223C710.48 54.2306 711.602 54.8702 712.45 55.9413C713.298 57.0124 713.73 58.366 713.744 60.0024ZM711.523 59.0875C711.523 57.7636 711.192 56.7297 710.531 55.9859C709.869 55.2421 709.042 54.8702 708.05 54.8702C706.9 54.8702 705.793 55.3165 704.729 56.2091C703.579 57.1462 702.702 58.4627 702.098 60.1586C701.494 61.8544 701.185 63.4313 701.171 64.8891C701.171 66.2279 701.48 67.2915 702.098 68.0799C702.716 68.8684 703.536 69.27 704.557 69.2849C705.851 69.2849 707.08 68.6973 708.245 67.5221C709.409 66.3469 710.293 64.7478 710.897 62.7247C711.314 61.3115 711.523 60.0991 711.523 59.0875Z" fill="black"/>
<path d="M720.476 62.2022C720.517 62.139 720.578 62.1075 720.659 62.1075H720.781H720.979C721.04 62.1706 721.071 62.2127 721.071 62.2337C721.071 62.3073 720.918 62.9541 720.613 64.1741C720.542 64.4686 720.471 64.7789 720.4 65.1049C720.329 65.4309 720.268 65.6728 720.217 65.8306L720.156 66.083C720.156 66.0935 720.202 66.0988 720.293 66.0988C720.385 66.0988 720.547 66.1303 720.781 66.1934C721.015 66.2565 721.259 66.3459 721.513 66.4616C721.96 66.6825 722.331 67.0032 722.626 67.4239C722.921 67.8446 723.068 68.3547 723.068 68.9542C723.068 69.5537 722.911 70.1268 722.595 70.6737C722.28 71.2206 721.889 71.6729 721.421 72.0305C720.954 72.388 720.461 72.672 719.942 72.8823C719.424 73.0927 718.941 73.2031 718.494 73.2136H718.433L718.067 74.7123C718.006 74.9542 717.94 75.2435 717.869 75.58C717.787 75.9166 717.732 76.1164 717.701 76.1795C717.671 76.2426 717.61 76.2794 717.518 76.2899H717.427C717.223 76.2899 717.122 76.2531 717.122 76.1795C717.122 76.1269 717.233 75.6273 717.457 74.6808L717.808 73.2294C717.808 73.2189 717.767 73.2136 717.686 73.2136C717.635 73.2136 717.533 73.2031 717.381 73.1821C717.228 73.1611 717 73.0874 716.695 72.9612C716.39 72.835 716.115 72.6773 715.871 72.488C715.627 72.2986 715.399 72.0199 715.185 71.6518C714.972 71.2837 714.875 70.8525 714.896 70.3582C714.896 69.7272 715.063 69.133 715.399 68.5756C715.734 68.0182 716.146 67.5659 716.634 67.2188C717.122 66.8718 717.615 66.5983 718.113 66.3985C718.611 66.1987 719.058 66.0988 719.454 66.0988C719.505 66.0988 719.536 66.0777 719.546 66.0357L720.003 64.111C720.318 62.8595 720.476 62.2232 720.476 62.2022ZM716.1 70.6895C716.1 71.0471 716.161 71.3574 716.283 71.6203C716.405 71.8832 716.573 72.083 716.786 72.2198C717 72.3565 717.183 72.4511 717.335 72.5037C717.488 72.5563 717.66 72.5984 717.854 72.6299H717.96L719.378 66.6825C719.338 66.6825 719.282 66.6877 719.211 66.6982C719.139 66.7088 718.992 66.7508 718.768 66.8245C718.545 66.8981 718.331 66.9822 718.128 67.0769C717.925 67.1715 717.701 67.324 717.457 67.5344C717.213 67.7447 717.005 67.9866 716.832 68.26C716.649 68.5545 716.481 68.9069 716.329 69.317C716.176 69.8008 716.1 70.2583 716.1 70.6895ZM721.864 68.6071C721.864 68.2075 721.782 67.8657 721.62 67.5817C721.457 67.2977 721.254 67.0979 721.01 66.9822C720.766 66.8665 720.568 66.7876 720.415 66.7456C720.263 66.7035 720.141 66.6825 720.049 66.6825H720.003L719.302 69.6325L718.57 72.5984C718.57 72.6194 718.575 72.6299 718.585 72.6299C718.667 72.6299 718.829 72.5984 719.073 72.5353C719.317 72.4722 719.521 72.3986 719.683 72.3144C720.12 72.1146 720.496 71.8359 720.811 71.4783C721.127 71.1207 721.35 70.7526 721.482 70.374C721.615 69.9954 721.711 69.6588 721.772 69.3644C721.833 69.0699 721.864 68.8175 721.864 68.6071Z" fill="black"/>
<path d="M724.362 68.8975C724.765 68.2952 725.314 67.994 726.011 67.994C726.356 67.994 726.701 68.0907 727.046 68.284C727.391 68.4774 727.672 68.8194 727.887 69.3102C728.153 69.9273 728.286 70.775 728.286 71.8531C728.286 73.0057 728.131 73.8868 727.822 74.4965C727.679 74.8088 727.481 75.0579 727.23 75.2438C726.978 75.4297 726.759 75.5449 726.572 75.5896C726.385 75.6342 726.202 75.6602 726.022 75.6676C725.835 75.6676 725.649 75.6453 725.462 75.6007C725.275 75.5561 725.056 75.4371 724.804 75.2438C724.553 75.0505 724.355 74.8014 724.211 74.4965C723.902 73.8868 723.748 73.0057 723.748 71.8531C723.748 70.5593 723.953 69.5741 724.362 68.8975ZM726.788 68.7636C726.572 68.5257 726.317 68.4067 726.022 68.4067C725.72 68.4067 725.462 68.5257 725.246 68.7636C725.066 68.957 724.948 69.2246 724.89 69.5667C724.833 69.9087 724.804 70.6225 724.804 71.7082C724.804 72.883 724.833 73.6563 724.89 74.0281C724.948 74.3999 725.077 74.6936 725.278 74.9092C725.48 75.1323 725.728 75.2438 726.022 75.2438C726.31 75.2438 726.554 75.1323 726.755 74.9092C726.964 74.6861 727.093 74.3738 727.143 73.9723C727.194 73.5708 727.222 72.8161 727.23 71.7082C727.23 70.63 727.201 69.9199 727.143 69.5778C727.086 69.2358 726.967 68.9644 726.788 68.7636Z" fill="black"/>
<path d="M274.984 322.841C274.984 324.506 274.52 326.113 273.594 327.662C272.667 329.211 271.473 330.449 270.011 331.376C268.549 332.302 267.05 332.765 265.516 332.765C264.111 332.765 262.91 332.353 261.911 331.528C260.912 330.702 260.282 329.501 260.022 327.923C260.007 327.807 260 327.496 260 326.989C260 325.512 260.347 324.108 261.042 322.776C261.737 321.444 262.671 320.265 263.844 319.237C265.639 317.746 267.441 317 269.251 317C269.801 317 270.148 317.007 270.293 317.022C271.697 317.224 272.826 317.847 273.681 318.889C274.535 319.932 274.969 321.249 274.984 322.841ZM272.747 321.951C272.747 320.663 272.414 319.657 271.748 318.933C271.082 318.209 270.25 317.847 269.251 317.847C268.093 317.847 266.978 318.281 265.907 319.15C264.748 320.062 263.865 321.343 263.257 322.993C262.649 324.644 262.338 326.178 262.324 327.597C262.324 328.9 262.635 329.935 263.257 330.702C263.88 331.47 264.705 331.861 265.733 331.875C267.036 331.875 268.274 331.303 269.446 330.159C270.619 329.016 271.509 327.46 272.117 325.491C272.537 324.115 272.747 322.936 272.747 321.951Z" fill="black"/>
<path d="M281.762 325.562C281.803 325.501 281.865 325.47 281.946 325.47H282.069H282.269C282.33 325.531 282.361 325.572 282.361 325.593C282.361 325.664 282.207 326.294 281.9 327.481C281.829 327.768 281.757 328.07 281.685 328.387C281.614 328.704 281.552 328.94 281.501 329.093L281.44 329.339C281.44 329.349 281.486 329.354 281.578 329.354C281.67 329.354 281.834 329.385 282.069 329.446C282.305 329.508 282.55 329.595 282.806 329.707C283.257 329.922 283.63 330.234 283.927 330.644C284.224 331.053 284.372 331.55 284.372 332.133C284.372 332.716 284.214 333.274 283.896 333.806C283.579 334.339 283.185 334.779 282.714 335.127C282.243 335.475 281.747 335.751 281.225 335.956C280.703 336.16 280.217 336.268 279.766 336.278H279.705L279.337 337.737C279.275 337.972 279.209 338.254 279.137 338.581C279.055 338.909 278.999 339.103 278.968 339.165C278.937 339.226 278.876 339.262 278.784 339.272H278.692C278.487 339.272 278.385 339.236 278.385 339.165C278.385 339.113 278.497 338.627 278.722 337.706L279.076 336.294C279.076 336.283 279.035 336.278 278.953 336.278C278.902 336.278 278.799 336.268 278.646 336.247C278.492 336.227 278.262 336.155 277.955 336.033C277.648 335.91 277.371 335.756 277.126 335.572C276.88 335.388 276.65 335.117 276.435 334.758C276.22 334.4 276.123 333.98 276.143 333.499C276.143 332.885 276.312 332.307 276.65 331.765C276.988 331.222 277.402 330.782 277.893 330.444C278.385 330.106 278.881 329.84 279.383 329.646C279.884 329.451 280.334 329.354 280.734 329.354C280.785 329.354 280.815 329.334 280.826 329.293L281.286 327.42C281.604 326.202 281.762 325.582 281.762 325.562ZM277.356 333.822C277.356 334.17 277.417 334.472 277.54 334.728C277.663 334.983 277.832 335.178 278.047 335.311C278.262 335.444 278.446 335.536 278.6 335.587C278.753 335.639 278.927 335.679 279.122 335.71H279.229L280.657 329.922C280.616 329.922 280.56 329.927 280.488 329.938C280.416 329.948 280.268 329.989 280.043 330.06C279.818 330.132 279.603 330.214 279.398 330.306C279.193 330.398 278.968 330.547 278.722 330.751C278.477 330.956 278.267 331.191 278.093 331.457C277.909 331.744 277.74 332.087 277.586 332.486C277.433 332.957 277.356 333.402 277.356 333.822ZM283.159 331.795C283.159 331.406 283.077 331.074 282.914 330.797C282.75 330.521 282.545 330.326 282.3 330.214C282.054 330.101 281.854 330.025 281.701 329.984C281.547 329.943 281.424 329.922 281.332 329.922H281.286L280.58 332.793L279.843 335.679C279.843 335.7 279.848 335.71 279.858 335.71C279.94 335.71 280.104 335.679 280.35 335.618C280.595 335.557 280.8 335.485 280.964 335.403C281.404 335.209 281.783 334.937 282.1 334.589C282.417 334.241 282.642 333.883 282.776 333.515C282.909 333.146 283.006 332.819 283.067 332.532C283.129 332.246 283.159 332 283.159 331.795Z" fill="black"/>
<path d="M285.675 332.078C286.08 331.492 286.634 331.199 287.336 331.199C287.683 331.199 288.031 331.293 288.378 331.481C288.725 331.669 289.007 332.002 289.225 332.479C289.492 333.08 289.626 333.905 289.626 334.954C289.626 336.076 289.471 336.933 289.159 337.527C289.015 337.831 288.816 338.073 288.562 338.254C288.309 338.435 288.088 338.547 287.9 338.59C287.712 338.634 287.528 338.659 287.347 338.666C287.159 338.666 286.97 338.645 286.782 338.601C286.594 338.558 286.373 338.442 286.12 338.254C285.867 338.066 285.668 337.823 285.523 337.527C285.212 336.933 285.056 336.076 285.056 334.954C285.056 333.695 285.263 332.736 285.675 332.078ZM288.117 331.948C287.9 331.716 287.643 331.6 287.347 331.6C287.043 331.6 286.782 331.716 286.565 331.948C286.384 332.136 286.265 332.396 286.207 332.729C286.149 333.062 286.12 333.757 286.12 334.813C286.12 335.956 286.149 336.709 286.207 337.071C286.265 337.433 286.395 337.718 286.598 337.928C286.8 338.145 287.05 338.254 287.347 338.254C287.636 338.254 287.882 338.145 288.085 337.928C288.295 337.711 288.425 337.407 288.476 337.017C288.526 336.626 288.555 335.891 288.562 334.813C288.562 333.764 288.534 333.073 288.476 332.74C288.418 332.407 288.298 332.143 288.117 331.948Z" fill="black"/>
<path d="M292.273 332.286C292.273 331.58 292.324 330.91 292.426 330.275C292.529 329.641 292.646 329.093 292.779 328.633C292.912 328.172 293.102 327.722 293.347 327.282C293.593 326.841 293.787 326.499 293.931 326.253C294.074 326.007 294.289 325.741 294.576 325.455C294.862 325.168 295.031 324.994 295.082 324.933C295.133 324.871 295.261 324.764 295.466 324.61H295.666H295.727C295.87 324.61 295.942 324.656 295.942 324.748C295.942 324.779 295.855 324.886 295.681 325.071C295.507 325.255 295.297 325.526 295.052 325.884C294.806 326.243 294.555 326.683 294.299 327.205C294.043 327.727 293.828 328.433 293.654 329.323C293.48 330.214 293.393 331.202 293.393 332.286C293.393 333.371 293.48 334.354 293.654 335.234C293.828 336.114 294.038 336.826 294.284 337.368C294.53 337.911 294.78 338.351 295.036 338.689C295.292 339.026 295.507 339.298 295.681 339.502C295.855 339.707 295.942 339.814 295.942 339.825C295.942 339.917 295.865 339.963 295.712 339.963H295.666H295.466L295.036 339.594C294.074 338.724 293.373 337.639 292.933 336.34C292.493 335.04 292.273 333.689 292.273 332.286Z" fill="black"/>
<path d="M297.155 331.718C297.165 331.688 297.175 331.647 297.186 331.596C297.196 331.544 297.221 331.432 297.262 331.258C297.303 331.084 297.354 330.925 297.416 330.782C297.477 330.639 297.554 330.47 297.646 330.275C297.738 330.081 297.841 329.927 297.953 329.815C298.066 329.702 298.199 329.59 298.352 329.477C298.506 329.364 298.675 329.318 298.859 329.339C299.627 329.339 300.118 329.666 300.333 330.321L300.486 330.183C301.121 329.62 301.725 329.339 302.298 329.339C302.963 329.339 303.485 329.579 303.864 330.06C304.243 330.541 304.432 331.125 304.432 331.811C304.432 332.916 304.043 333.934 303.265 334.866C302.487 335.797 301.607 336.268 300.625 336.278C300.399 336.278 300.2 336.247 300.026 336.186C299.913 336.135 299.796 336.058 299.673 335.956C299.55 335.853 299.453 335.766 299.381 335.695L299.274 335.572C299.263 335.582 299.151 336.027 298.936 336.908C298.721 337.788 298.613 338.233 298.613 338.243C298.613 338.305 298.654 338.341 298.736 338.351C298.818 338.361 299.007 338.376 299.304 338.397H299.688C299.749 338.469 299.78 338.515 299.78 338.535C299.78 338.556 299.765 338.648 299.734 338.811C299.703 338.934 299.673 339.011 299.642 339.042C299.611 339.072 299.545 339.093 299.442 339.103C299.422 339.103 299.366 339.103 299.274 339.103C299.181 339.103 299.007 339.098 298.752 339.088C298.496 339.078 298.178 339.072 297.8 339.072C297.083 339.072 296.628 339.083 296.433 339.103H296.31C296.239 339.031 296.203 338.975 296.203 338.934C296.223 338.658 296.29 338.479 296.403 338.397H296.71C297.058 338.387 297.257 338.325 297.308 338.213C297.339 338.151 297.651 336.928 298.245 334.543C298.839 332.159 299.151 330.895 299.181 330.751C299.192 330.7 299.197 330.628 299.197 330.536C299.197 330.117 299.069 329.907 298.813 329.907C298.588 329.907 298.398 330.05 298.245 330.337C298.091 330.623 297.974 330.935 297.892 331.273C297.81 331.611 297.749 331.795 297.708 331.826C297.687 331.846 297.605 331.857 297.462 331.857H297.247C297.186 331.795 297.155 331.749 297.155 331.718ZM299.535 334.559C299.76 335.337 300.138 335.725 300.671 335.725C300.978 335.725 301.275 335.608 301.561 335.372C301.848 335.137 302.083 334.84 302.267 334.482C302.452 334.134 302.636 333.581 302.82 332.824C303.004 332.066 303.101 331.504 303.112 331.135V331.043C303.112 330.286 302.8 329.907 302.175 329.907C302.063 329.907 301.95 329.922 301.837 329.953C301.725 329.984 301.612 330.03 301.5 330.091C301.387 330.152 301.285 330.219 301.193 330.291C301.101 330.362 301.014 330.439 300.932 330.521C300.85 330.603 300.773 330.68 300.701 330.751C300.63 330.823 300.573 330.895 300.532 330.966C300.492 331.038 300.451 331.089 300.41 331.12L300.364 331.181C300.364 331.191 300.348 331.263 300.318 331.396C300.287 331.529 300.231 331.754 300.149 332.072C300.067 332.389 299.995 332.655 299.934 332.87C299.668 333.955 299.535 334.518 299.535 334.559Z" fill="black"/>
<path d="M305.445 324.625L305.507 324.61C305.558 324.61 305.609 324.61 305.66 324.61H305.844L306.274 324.979C307.236 325.849 307.938 326.934 308.378 328.233C308.818 329.533 309.038 330.884 309.038 332.286C309.038 332.982 308.987 333.653 308.884 334.298C308.782 334.942 308.664 335.49 308.531 335.94C308.398 336.391 308.209 336.841 307.963 337.291C307.717 337.742 307.523 338.085 307.38 338.32C307.236 338.555 307.027 338.816 306.75 339.103C306.474 339.39 306.31 339.559 306.259 339.61C306.208 339.661 306.09 339.758 305.906 339.901C305.875 339.932 305.855 339.953 305.844 339.963H305.66C305.578 339.963 305.522 339.963 305.491 339.963C305.461 339.963 305.435 339.947 305.415 339.917C305.394 339.886 305.379 339.84 305.369 339.779C305.379 339.768 305.435 339.702 305.537 339.579C307.124 337.931 307.917 335.5 307.917 332.286C307.917 329.073 307.124 326.642 305.537 324.994C305.435 324.871 305.379 324.805 305.369 324.794C305.369 324.712 305.394 324.656 305.445 324.625Z" fill="black"/>
<path d="M1047.88 332.022C1047.57 332.022 1047.41 331.919 1047.41 331.715C1047.41 331.652 1047.45 331.463 1047.53 331.148C1047.6 330.834 1047.64 330.558 1047.64 330.322C1047.64 329.835 1047.48 329.536 1047.15 329.426C1046.82 329.315 1046.05 329.26 1044.86 329.26H1043.63C1043.62 329.292 1043.34 330.377 1042.81 332.517C1042.27 334.657 1042 335.759 1042 335.821C1042 335.884 1042.09 335.916 1042.26 335.916C1042.44 335.916 1043.07 335.932 1044.15 335.963C1045.63 335.963 1046.61 335.947 1047.08 335.916C1047.55 335.884 1048.02 335.782 1048.49 335.609C1049.26 335.357 1049.9 334.917 1050.41 334.287C1050.91 333.658 1051.47 332.627 1052.08 331.196C1052.24 330.849 1052.34 330.661 1052.39 330.629C1052.5 330.598 1052.62 330.582 1052.74 330.582C1053.06 330.582 1053.21 330.684 1053.21 330.889C1051.56 334.885 1050.7 336.923 1050.62 337.002C1050.57 337.033 1048.32 337.049 1043.87 337.049H1039.41C1037.8 337.049 1037 336.962 1037 336.789C1037 336.758 1037.02 336.647 1037.07 336.459C1037.13 336.207 1037.2 336.065 1037.26 336.034C1037.32 336.002 1037.5 335.979 1037.8 335.963C1038.23 335.963 1038.7 335.939 1039.22 335.892C1039.44 335.845 1039.59 335.751 1039.67 335.609C1039.7 335.53 1040.26 333.32 1041.34 328.977C1042.43 324.635 1042.98 322.432 1042.99 322.369C1042.99 322.259 1042.96 322.204 1042.9 322.204C1042.77 322.156 1042.36 322.117 1041.65 322.086H1040.92C1040.82 321.991 1040.78 321.928 1040.78 321.897C1040.78 321.865 1040.79 321.732 1040.82 321.496C1040.89 321.228 1040.96 321.063 1041.06 321H1054.13C1054.24 321.063 1054.3 321.149 1054.3 321.26C1054.3 321.338 1054.2 322.219 1053.99 323.903C1053.79 325.586 1053.68 326.452 1053.66 326.499C1053.63 326.609 1053.47 326.664 1053.19 326.664H1052.91C1052.8 326.586 1052.74 326.483 1052.74 326.357L1052.81 325.815C1052.86 325.437 1052.88 325.028 1052.88 324.587C1052.88 324.115 1052.83 323.722 1052.72 323.407C1052.61 323.093 1052.46 322.849 1052.27 322.676C1052.08 322.503 1051.81 322.377 1051.44 322.298C1051.08 322.219 1050.71 322.164 1050.33 322.133C1049.96 322.101 1049.45 322.086 1048.82 322.086H1047.71C1046.33 322.101 1045.6 322.125 1045.52 322.156C1045.46 322.188 1045.41 322.259 1045.38 322.369C1045.36 322.416 1045.12 323.384 1044.65 325.272C1044.17 327.16 1043.93 328.12 1043.92 328.151C1044.28 328.167 1044.65 328.175 1045.05 328.175H1045.66C1046.7 328.175 1047.42 328.057 1047.81 327.821C1048.2 327.585 1048.56 326.947 1048.87 325.909C1048.93 325.657 1048.98 325.516 1049.01 325.484C1049.04 325.453 1049.18 325.429 1049.41 325.413C1049.49 325.413 1049.56 325.413 1049.6 325.413C1049.65 325.413 1049.69 325.421 1049.72 325.437C1049.75 325.453 1049.77 325.461 1049.77 325.461C1049.77 325.461 1049.78 325.492 1049.82 325.555C1049.85 325.618 1049.87 325.649 1049.89 325.649L1049.11 328.765C1048.59 330.857 1048.3 331.919 1048.26 331.951C1048.21 331.998 1048.08 332.022 1047.88 332.022Z" fill="black"/>
<path d="M132.291 265.362C132.291 265.263 131.82 265.197 130.879 265.164C130.483 265.164 130.227 265.156 130.111 265.139C129.996 265.123 129.938 265.04 129.938 264.892C129.938 264.875 129.954 264.784 129.987 264.619C130.004 264.57 130.02 264.512 130.037 264.446C130.053 264.38 130.062 264.339 130.062 264.322C130.062 264.305 130.078 264.264 130.111 264.198C130.144 264.132 130.161 264.107 130.161 264.124C130.161 264.14 130.194 264.124 130.26 264.074C130.326 264.025 130.367 264.008 130.384 264.025C130.4 264.041 130.466 264.041 130.582 264.025C130.697 264.008 130.796 264 130.879 264C130.978 264 131.226 264 131.622 264C132.018 264 132.39 264.008 132.737 264.025C134.041 264.025 134.792 264.025 134.99 264.025C135.188 264.025 135.32 264.066 135.387 264.149C135.403 264.215 135.709 266.543 136.303 271.133L137.194 278.043L137.764 277.126C138.16 276.532 138.689 275.706 139.349 274.65C140.01 273.593 140.736 272.437 141.529 271.182C144.418 266.576 145.879 264.256 145.912 264.223C145.929 264.206 145.954 264.182 145.987 264.149C146.02 264.116 146.053 264.091 146.086 264.074L146.234 264.025H148.612C148.893 264.025 149.223 264.025 149.603 264.025C149.982 264.025 150.222 264.017 150.321 264C150.882 264 151.163 264.091 151.163 264.272C151.163 264.355 151.138 264.495 151.089 264.693C151.039 264.892 151.014 264.999 151.014 265.015C150.948 265.115 150.643 265.164 150.098 265.164C149.437 265.181 149.016 265.205 148.835 265.238C148.653 265.271 148.505 265.362 148.389 265.511C148.339 265.593 147.745 267.93 146.606 272.52C145.467 277.11 144.889 279.43 144.872 279.479C144.872 279.545 144.88 279.586 144.897 279.603C144.913 279.619 144.971 279.653 145.07 279.702C145.169 279.752 145.31 279.768 145.491 279.752C145.673 279.735 145.945 279.752 146.309 279.801H147.076C147.175 279.95 147.225 280.041 147.225 280.074C147.225 280.338 147.167 280.585 147.052 280.817C146.969 280.899 146.837 280.94 146.655 280.94C146.573 280.94 146.234 280.932 145.64 280.916C145.046 280.899 144.286 280.891 143.361 280.891C142.354 280.891 141.595 280.891 141.083 280.891C140.571 280.891 140.282 280.899 140.216 280.916C139.935 280.916 139.795 280.833 139.795 280.668C139.795 280.635 139.811 280.519 139.845 280.321C139.911 280.057 139.977 279.908 140.043 279.875C140.109 279.842 140.299 279.818 140.612 279.801C141.058 279.801 141.553 279.776 142.098 279.727C142.329 279.677 142.486 279.578 142.569 279.43C142.602 279.364 142.916 278.158 143.51 275.814C144.104 273.469 144.691 271.133 145.268 268.805C145.846 266.477 146.135 265.313 146.135 265.313L141.331 272.966C138.094 278.117 136.435 280.734 136.352 280.817C136.319 280.833 136.286 280.85 136.253 280.866C136.171 280.916 136.039 280.94 135.857 280.94C135.609 280.94 135.461 280.883 135.411 280.767C135.378 280.701 135.04 278.142 134.396 273.089L133.43 265.486L131.746 272.173C130.64 276.565 130.086 278.835 130.086 278.984C130.186 279.529 130.78 279.801 131.87 279.801H132.117C132.216 279.884 132.274 279.958 132.291 280.024C132.307 280.09 132.282 280.239 132.216 280.47C132.15 280.734 132.084 280.883 132.018 280.916C131.952 280.932 131.861 280.94 131.746 280.94C131.713 280.94 131.614 280.94 131.449 280.94C131.284 280.94 131.003 280.932 130.607 280.916C130.21 280.899 129.682 280.891 129.022 280.891C128.526 280.891 128.014 280.899 127.486 280.916C126.958 280.932 126.652 280.94 126.57 280.94C126.322 280.94 126.165 280.924 126.099 280.891C126.033 280.858 126 280.784 126 280.668C126 280.635 126.025 280.519 126.074 280.321C126.124 280.123 126.165 279.999 126.198 279.95C126.231 279.851 126.413 279.801 126.743 279.801C127.899 279.801 128.634 279.471 128.947 278.81C129.013 278.711 129.583 276.499 130.656 272.173C131.729 267.847 132.274 265.577 132.291 265.362Z" fill="black"/>
<path d="M404.69 93.119C404.739 93.0397 404.812 93 404.909 93H405.056H405.293C405.366 93.0793 405.403 93.1322 405.403 93.1587C405.403 93.2513 405.22 94.0645 404.855 95.5984C404.769 95.9687 404.684 96.3588 404.599 96.7687C404.514 97.1786 404.441 97.4828 404.38 97.6811L404.307 97.9985C404.307 98.0117 404.361 98.0183 404.471 98.0183C404.581 98.0183 404.775 98.058 405.056 98.1373C405.336 98.2167 405.628 98.3291 405.933 98.4745C406.469 98.7522 406.913 99.1556 407.266 99.6845C407.62 100.213 407.796 100.855 407.796 101.609C407.796 102.362 407.607 103.083 407.23 103.771C406.852 104.458 406.383 105.027 405.823 105.476C405.263 105.926 404.672 106.283 404.051 106.548C403.43 106.812 402.851 106.951 402.315 106.964H402.242L401.803 108.848C401.73 109.153 401.651 109.516 401.566 109.939C401.468 110.363 401.402 110.614 401.365 110.693C401.328 110.772 401.255 110.819 401.146 110.832H401.036C400.792 110.832 400.671 110.786 400.671 110.693C400.671 110.627 400.805 109.999 401.073 108.809L401.493 106.984C401.493 106.971 401.444 106.964 401.347 106.964C401.286 106.964 401.164 106.951 400.981 106.924C400.799 106.898 400.525 106.805 400.159 106.647C399.794 106.488 399.465 106.29 399.172 106.052C398.88 105.814 398.606 105.463 398.35 105C398.095 104.538 397.979 103.995 398.003 103.374C398.003 102.58 398.204 101.833 398.606 101.132C399.008 100.432 399.501 99.863 400.086 99.4266C400.671 98.9903 401.261 98.6465 401.858 98.3952C402.455 98.144 402.991 98.0183 403.466 98.0183C403.527 98.0183 403.564 97.9919 403.576 97.939L404.124 95.5191C404.501 93.9455 404.69 93.1455 404.69 93.119ZM399.447 103.79C399.447 104.24 399.52 104.63 399.666 104.961C399.812 105.291 400.013 105.543 400.269 105.714C400.525 105.886 400.744 106.005 400.926 106.071C401.109 106.138 401.316 106.19 401.548 106.23H401.676L403.375 98.7522C403.326 98.7522 403.259 98.7589 403.174 98.7721C403.088 98.7853 402.912 98.8382 402.644 98.9308C402.376 99.0233 402.12 99.1291 401.877 99.2481C401.633 99.3671 401.365 99.5589 401.073 99.8233C400.78 100.088 400.531 100.392 400.324 100.736C400.104 101.106 399.903 101.549 399.721 102.065C399.538 102.673 399.447 103.248 399.447 103.79ZM406.353 101.172C406.353 100.67 406.255 100.24 406.06 99.8829C405.866 99.5258 405.622 99.2746 405.33 99.1291C405.037 98.9837 404.8 98.8845 404.617 98.8316C404.434 98.7787 404.288 98.7522 404.179 98.7522H404.124L403.283 102.461L402.406 106.19C402.406 106.217 402.412 106.23 402.425 106.23C402.522 106.23 402.717 106.19 403.009 106.111C403.302 106.032 403.545 105.939 403.74 105.833C404.264 105.582 404.715 105.232 405.092 104.782C405.47 104.333 405.738 103.87 405.896 103.394C406.054 102.918 406.17 102.495 406.243 102.124C406.316 101.754 406.353 101.437 406.353 101.172Z" fill="black"/>
<path d="M409.347 101.537C409.829 100.78 410.488 100.401 411.323 100.401C411.737 100.401 412.15 100.523 412.563 100.766C412.977 101.009 413.312 101.439 413.571 102.056C413.889 102.832 414.049 103.898 414.049 105.253C414.049 106.703 413.864 107.81 413.493 108.577C413.321 108.97 413.084 109.283 412.783 109.517C412.481 109.75 412.219 109.895 411.995 109.951C411.771 110.007 411.551 110.04 411.336 110.049C411.112 110.049 410.888 110.021 410.664 109.965C410.441 109.909 410.178 109.76 409.876 109.517C409.575 109.274 409.338 108.96 409.166 108.577C408.796 107.81 408.611 106.703 408.611 105.253C408.611 103.627 408.856 102.388 409.347 101.537ZM412.253 101.369C411.995 101.07 411.689 100.92 411.336 100.92C410.974 100.92 410.664 101.07 410.406 101.369C410.191 101.612 410.049 101.949 409.98 102.379C409.911 102.809 409.876 103.706 409.876 105.071C409.876 106.548 409.911 107.521 409.98 107.988C410.049 108.455 410.204 108.825 410.445 109.096C410.686 109.376 410.983 109.517 411.336 109.517C411.681 109.517 411.973 109.376 412.214 109.096C412.464 108.815 412.619 108.423 412.68 107.918C412.74 107.413 412.774 106.464 412.783 105.071C412.783 103.716 412.748 102.823 412.68 102.393C412.611 101.963 412.469 101.621 412.253 101.369Z" fill="black"/>
<path d="M145.745 65.4089C145.419 65.4089 145.256 65.303 145.256 65.0913C145.256 65.0261 145.297 64.8307 145.378 64.5049C145.46 64.1792 145.5 63.8942 145.5 63.6499C145.5 63.145 145.329 62.8356 144.987 62.7215C144.645 62.6075 143.855 62.5505 142.618 62.5505H141.347C141.331 62.5831 141.046 63.7069 140.492 65.9219C139.938 68.1369 139.662 69.277 139.662 69.3421C139.662 69.4073 139.751 69.4398 139.93 69.4398C140.109 69.4398 140.761 69.4561 141.885 69.4887C143.416 69.4887 144.425 69.4724 144.914 69.4398C145.403 69.4073 145.891 69.3014 146.38 69.1222C147.178 68.8616 147.837 68.4056 148.359 67.7541C148.88 67.1027 149.458 66.0359 150.093 64.5538C150.256 64.1955 150.362 64.0001 150.411 63.9675C150.525 63.9349 150.647 63.9186 150.777 63.9186C151.103 63.9186 151.266 64.0245 151.266 64.2362C149.556 68.373 148.66 70.4822 148.579 70.5636C148.53 70.5962 146.201 70.6125 141.592 70.6125H136.974C135.313 70.6125 134.482 70.5229 134.482 70.3437C134.482 70.3112 134.507 70.1972 134.556 70.0017C134.621 69.7411 134.686 69.5946 134.751 69.562C134.816 69.5294 135.004 69.505 135.313 69.4887C135.753 69.4887 136.241 69.4643 136.779 69.4154C137.007 69.3665 137.162 69.2688 137.243 69.1222C137.276 69.0408 137.854 66.7525 138.978 62.2574C140.101 57.7622 140.671 55.4821 140.688 55.4169C140.688 55.3029 140.655 55.2459 140.59 55.2459C140.46 55.1971 140.028 55.1564 139.295 55.1238H138.538C138.44 55.0261 138.391 54.9609 138.391 54.9283C138.391 54.8958 138.407 54.7573 138.44 54.513C138.505 54.2362 138.587 54.0651 138.684 54H152.219C152.333 54.0651 152.39 54.1547 152.39 54.2687C152.39 54.3502 152.284 55.2622 152.072 57.0049C151.86 58.7476 151.746 59.6434 151.73 59.6922C151.697 59.8062 151.535 59.8632 151.241 59.8632H150.948C150.834 59.7818 150.777 59.6759 150.777 59.5456L150.851 58.9837C150.899 58.5929 150.924 58.1694 150.924 57.7134C150.924 57.2248 150.867 56.8176 150.753 56.4919C150.639 56.1661 150.484 55.9137 150.289 55.7345C150.093 55.5554 149.808 55.4251 149.434 55.3437C149.059 55.2622 148.676 55.2052 148.285 55.1726C147.894 55.1401 147.373 55.1238 146.722 55.1238H145.574C144.14 55.1401 143.383 55.1645 143.302 55.1971C143.236 55.2296 143.188 55.3029 143.155 55.4169C143.139 55.4658 142.886 56.4674 142.398 58.4218C141.909 60.3763 141.657 61.3697 141.64 61.4023C142.015 61.4186 142.406 61.4268 142.813 61.4268H143.448C144.523 61.4268 145.264 61.3046 145.671 61.0603C146.079 60.816 146.445 60.1564 146.771 59.0815C146.836 58.8209 146.885 58.6743 146.917 58.6417C146.95 58.6091 147.088 58.5847 147.333 58.5684C147.414 58.5684 147.479 58.5684 147.528 58.5684C147.577 58.5684 147.618 58.5766 147.65 58.5929C147.683 58.6091 147.699 58.6173 147.699 58.6173C147.699 58.6173 147.715 58.6499 147.748 58.715C147.78 58.7802 147.805 58.8127 147.821 58.8127L147.015 62.0375C146.478 64.2036 146.184 65.303 146.136 65.3356C146.087 65.3844 145.956 65.4089 145.745 65.4089Z" fill="black"/>
<path d="M152.152 69.3199C152.163 69.2854 152.175 69.2393 152.186 69.1817C152.198 69.1242 152.227 68.9975 152.273 68.8017C152.319 68.606 152.376 68.4275 152.445 68.2663C152.514 68.1051 152.601 67.9151 152.704 67.6963C152.808 67.4775 152.923 67.3048 153.05 67.1782C153.177 67.0515 153.326 66.9248 153.499 66.7982C153.672 66.6715 153.862 66.6197 154.069 66.6427C154.933 66.6427 155.485 67.0112 155.727 67.7481L155.9 67.5927C156.614 66.9594 157.293 66.6427 157.938 66.6427C158.686 66.6427 159.274 66.9133 159.7 67.4545C160.126 67.9957 160.339 68.652 160.339 69.4235C160.339 70.6671 159.901 71.8128 159.026 72.8607C158.151 73.9085 157.161 74.4382 156.055 74.4497C155.802 74.4497 155.577 74.4152 155.382 74.3461C155.255 74.2885 155.123 74.2021 154.984 74.087C154.846 73.9719 154.737 73.874 154.656 73.7934L154.535 73.6552C154.524 73.6667 154.397 74.1676 154.155 75.1579C153.913 76.1481 153.793 76.649 153.793 76.6605C153.793 76.7296 153.839 76.7699 153.931 76.7814C154.023 76.793 154.236 76.8102 154.57 76.8333H155.002C155.071 76.9139 155.105 76.9657 155.105 76.9887C155.105 77.0117 155.088 77.1154 155.053 77.2996C155.019 77.4378 154.984 77.5241 154.95 77.5587C154.915 77.5932 154.84 77.6163 154.725 77.6278C154.702 77.6278 154.639 77.6278 154.535 77.6278C154.432 77.6278 154.236 77.622 153.948 77.6105C153.66 77.599 153.303 77.5932 152.877 77.5932C152.071 77.5932 151.559 77.6047 151.34 77.6278H151.202C151.121 77.5472 151.081 77.4838 151.081 77.4378C151.104 77.1269 151.179 76.9254 151.305 76.8333H151.651C152.042 76.8217 152.267 76.7527 152.324 76.626C152.359 76.5569 152.71 75.1809 153.378 72.498C154.046 69.815 154.397 68.393 154.432 68.2318C154.443 68.1742 154.449 68.0936 154.449 67.99C154.449 67.5178 154.305 67.2818 154.017 67.2818C153.764 67.2818 153.551 67.443 153.378 67.7654C153.205 68.0878 153.073 68.439 152.981 68.819C152.889 69.199 152.82 69.4063 152.774 69.4408C152.75 69.4638 152.658 69.4754 152.497 69.4754H152.255C152.186 69.4063 152.152 69.3544 152.152 69.3199ZM154.829 72.5152C155.082 73.3904 155.508 73.8279 156.107 73.8279C156.452 73.8279 156.786 73.6955 157.109 73.4307C157.431 73.1658 157.696 72.8319 157.903 72.4289C158.111 72.0374 158.318 71.4156 158.525 70.5635C158.732 69.7114 158.842 69.0781 158.853 68.6636V68.5599C158.853 67.7078 158.502 67.2818 157.8 67.2818C157.673 67.2818 157.546 67.2991 157.42 67.3336C157.293 67.3682 157.166 67.42 157.04 67.4891C156.913 67.5581 156.798 67.633 156.694 67.7136C156.591 67.7942 156.493 67.8806 156.401 67.9727C156.309 68.0648 156.222 68.1512 156.142 68.2318C156.061 68.3124 155.998 68.393 155.952 68.4736C155.906 68.5542 155.859 68.6117 155.813 68.6463L155.762 68.7154C155.762 68.7269 155.744 68.8075 155.71 68.9572C155.675 69.1069 155.612 69.3602 155.52 69.7172C155.428 70.0741 155.347 70.3735 155.278 70.6153C154.979 71.8359 154.829 72.4692 154.829 72.5152Z" fill="black"/>
<path d="M215.39 206.482C215.405 206.437 215.42 206.377 215.435 206.303C215.45 206.228 215.487 206.063 215.547 205.809C215.607 205.555 215.681 205.324 215.771 205.114C215.861 204.905 215.973 204.658 216.107 204.374C216.242 204.09 216.391 203.866 216.556 203.702C216.72 203.537 216.915 203.373 217.139 203.209C217.363 203.044 217.61 202.977 217.879 203.007C219 203.007 219.717 203.485 220.031 204.442L220.255 204.24C221.182 203.418 222.063 203.007 222.9 203.007C223.872 203.007 224.634 203.358 225.187 204.061C225.74 204.763 226.017 205.615 226.017 206.616C226.017 208.231 225.449 209.718 224.313 211.078C223.177 212.438 221.892 213.125 220.457 213.14C220.128 213.14 219.836 213.096 219.582 213.006C219.418 212.931 219.246 212.819 219.067 212.67C218.887 212.52 218.745 212.393 218.641 212.288L218.484 212.109C218.469 212.124 218.305 212.774 217.991 214.06C217.677 215.345 217.52 215.995 217.52 216.01C217.52 216.1 217.58 216.152 217.699 216.167C217.819 216.182 218.095 216.204 218.529 216.234H219.089C219.179 216.339 219.224 216.406 219.224 216.436C219.224 216.466 219.201 216.6 219.156 216.84C219.112 217.019 219.067 217.131 219.022 217.176C218.977 217.221 218.88 217.251 218.73 217.266C218.701 217.266 218.618 217.266 218.484 217.266C218.349 217.266 218.095 217.258 217.722 217.243C217.348 217.228 216.885 217.221 216.332 217.221C215.285 217.221 214.62 217.236 214.336 217.266H214.157C214.052 217.161 214 217.079 214 217.019C214.03 216.615 214.127 216.354 214.291 216.234H214.74C215.248 216.219 215.539 216.13 215.614 215.965C215.659 215.876 216.115 214.089 216.982 210.607C217.849 207.125 218.305 205.279 218.349 205.069C218.364 204.995 218.372 204.89 218.372 204.756C218.372 204.143 218.185 203.836 217.811 203.836C217.482 203.836 217.206 204.046 216.982 204.464C216.758 204.883 216.586 205.338 216.466 205.832C216.347 206.325 216.257 206.594 216.197 206.639C216.167 206.669 216.048 206.684 215.838 206.684H215.525C215.435 206.594 215.39 206.527 215.39 206.482ZM218.865 210.629C219.194 211.765 219.747 212.333 220.524 212.333C220.972 212.333 221.406 212.161 221.824 211.818C222.243 211.474 222.587 211.04 222.856 210.517C223.125 210.009 223.394 209.202 223.663 208.096C223.932 206.99 224.074 206.168 224.089 205.63V205.495C224.089 204.389 223.633 203.836 222.721 203.836C222.557 203.836 222.392 203.859 222.228 203.904C222.063 203.948 221.899 204.016 221.735 204.105C221.57 204.195 221.421 204.292 221.286 204.397C221.152 204.502 221.025 204.614 220.905 204.733C220.786 204.853 220.673 204.965 220.569 205.069C220.464 205.174 220.382 205.279 220.322 205.383C220.262 205.488 220.203 205.563 220.143 205.608L220.076 205.697C220.076 205.712 220.053 205.817 220.008 206.011C219.964 206.205 219.881 206.534 219.762 206.998C219.642 207.461 219.538 207.849 219.448 208.163C219.059 209.748 218.865 210.57 218.865 210.629Z" fill="black"/>
</svg>
