<svg width="1394" height="351" viewBox="0 0 1394 351" fill="none" xmlns="http://www.w3.org/2000/svg">
<path d="M446.274 44.5062C468.073 44.7506 484.512 51.2483 497.881 61.8166C511.265 72.3957 521.597 87.0725 531.14 103.716C535.911 112.037 540.48 120.839 545.133 129.858C545.426 130.426 545.72 130.996 546.015 131.567C550.384 140.038 554.844 148.685 559.623 157.274C569.826 175.609 581.501 193.706 596.924 209.357C619.506 232.273 633.315 251.642 640.078 267.756C646.838 283.862 646.541 296.664 641.001 306.527C635.452 316.408 624.577 323.457 609.933 327.901C595.295 332.343 576.954 334.162 556.58 333.631C515.833 332.571 467.048 322.116 423.696 304.59C380.329 287.057 342.484 262.481 323.523 233.234C299.666 196.435 308.302 149.04 334.004 110.892C359.704 72.7453 402.361 44.014 446.274 44.5062Z" fill="white" stroke="black"/>
<path d="M344.194 97.3201C347.211 93.7009 352.073 90.5545 358.356 87.883C364.632 85.2144 372.288 83.0355 380.851 81.33C397.977 77.9191 418.68 76.4111 439.117 76.6398C459.554 76.8685 479.701 78.8337 495.715 82.3584C503.722 84.1209 510.681 86.27 516.12 88.7785C521.572 91.2934 525.433 94.14 527.331 97.2599C533.824 107.931 539.827 119.57 546.011 131.56C547.345 134.146 548.687 136.748 550.044 139.36C557.691 154.077 565.813 169.105 575.596 183.284C576.164 184.107 576.441 184.897 576.478 185.658C576.515 186.419 576.314 187.189 575.863 187.974C574.95 189.564 573.035 191.183 570.158 192.793C564.419 196.006 555.111 199.048 543.317 201.808C519.746 207.324 486.415 211.673 452.294 214.061C418.174 216.448 383.294 216.873 356.627 214.546C343.29 213.383 332.034 211.533 323.963 208.91C319.926 207.597 316.713 206.1 314.439 204.418C312.165 202.737 310.872 200.905 310.572 198.925C305.364 164.583 319.546 126.891 344.194 97.3201Z" fill="#7F7F7F" fill-opacity="0.3" stroke="black"/>
<path d="M1045.5 283.5C1045.5 284.821 1044.77 286.538 1043.28 288.542C1041.79 290.531 1039.6 292.743 1036.77 295.043C1031.12 299.644 1022.99 304.562 1013.12 308.742C993.375 317.103 966.732 322.484 939.106 316.511C914.117 311.108 897.674 305.714 887.488 300.209C877.295 294.701 873.5 289.16 873.5 283.5C873.5 282.178 874.219 280.501 875.66 278.586C877.091 276.684 879.188 274.608 881.835 272.499C887.127 268.282 894.565 263.974 903.116 260.702C920.234 254.15 941.679 251.791 959.241 262.428C977.104 273.246 998.839 275.655 1016.03 276.858C1018.1 277.004 1020.11 277.132 1022.04 277.254C1028.11 277.64 1033.37 277.974 1037.39 278.648C1040.05 279.092 1042.1 279.674 1043.49 280.481C1044.85 281.273 1045.5 282.243 1045.5 283.5Z" fill="white"/>
<path d="M1045.5 283.5C1045.5 284.821 1044.77 286.538 1043.28 288.542C1041.79 290.531 1039.6 292.743 1036.77 295.043C1031.12 299.644 1022.99 304.562 1013.12 308.742C993.375 317.103 966.732 322.484 939.106 316.511C914.117 311.108 897.674 305.714 887.488 300.209C877.295 294.701 873.5 289.16 873.5 283.5C873.5 282.178 874.219 280.501 875.66 278.586C877.091 276.684 879.188 274.608 881.835 272.499C887.127 268.282 894.565 263.974 903.116 260.702C920.234 254.15 941.679 251.791 959.241 262.428C977.104 273.246 998.839 275.655 1016.03 276.858C1018.1 277.004 1020.11 277.132 1022.04 277.254C1028.11 277.64 1033.37 277.974 1037.39 278.648C1040.05 279.092 1042.1 279.674 1043.49 280.481C1044.85 281.273 1045.5 282.243 1045.5 283.5Z" fill="white"/>
<path d="M1045.5 283.5C1045.5 284.821 1044.77 286.538 1043.28 288.542C1041.79 290.531 1039.6 292.743 1036.77 295.043C1031.12 299.644 1022.99 304.562 1013.12 308.742C993.375 317.103 966.732 322.484 939.106 316.511C914.117 311.108 897.674 305.714 887.488 300.209C877.295 294.701 873.5 289.16 873.5 283.5C873.5 282.178 874.219 280.501 875.66 278.586C877.091 276.684 879.188 274.608 881.835 272.499C887.127 268.282 894.565 263.974 903.116 260.702C920.234 254.15 941.679 251.791 959.241 262.428C977.104 273.246 998.839 275.655 1016.03 276.858C1018.1 277.004 1020.11 277.132 1022.04 277.254C1028.11 277.64 1033.37 277.974 1037.39 278.648C1040.05 279.092 1042.1 279.674 1043.49 280.481C1044.85 281.273 1045.5 282.243 1045.5 283.5Z" fill="white"/>
<path d="M1045.5 283.5C1045.5 284.821 1044.77 286.538 1043.28 288.542C1041.79 290.531 1039.6 292.743 1036.77 295.043C1031.12 299.644 1022.99 304.562 1013.12 308.742C993.375 317.103 966.732 322.484 939.106 316.511C914.117 311.108 897.674 305.714 887.488 300.209C877.295 294.701 873.5 289.16 873.5 283.5C873.5 282.178 874.219 280.501 875.66 278.586C877.091 276.684 879.188 274.608 881.835 272.499C887.127 268.282 894.565 263.974 903.116 260.702C920.234 254.15 941.679 251.791 959.241 262.428C977.104 273.246 998.839 275.655 1016.03 276.858C1018.1 277.004 1020.11 277.132 1022.04 277.254C1028.11 277.64 1033.37 277.974 1037.39 278.648C1040.05 279.092 1042.1 279.674 1043.49 280.481C1044.85 281.273 1045.5 282.243 1045.5 283.5Z" fill="black" fill-opacity="0.2"/>
<path d="M1045.5 283.5C1045.5 284.821 1044.77 286.538 1043.28 288.542C1041.79 290.531 1039.6 292.743 1036.77 295.043C1031.12 299.644 1022.99 304.562 1013.12 308.742C993.375 317.103 966.732 322.484 939.106 316.511C914.117 311.108 897.674 305.714 887.488 300.209C877.295 294.701 873.5 289.16 873.5 283.5C873.5 282.178 874.219 280.501 875.66 278.586C877.091 276.684 879.188 274.608 881.835 272.499C887.127 268.282 894.565 263.974 903.116 260.702C920.234 254.15 941.679 251.791 959.241 262.428C977.104 273.246 998.839 275.655 1016.03 276.858C1018.1 277.004 1020.11 277.132 1022.04 277.254C1028.11 277.64 1033.37 277.974 1037.39 278.648C1040.05 279.092 1042.1 279.674 1043.49 280.481C1044.85 281.273 1045.5 282.243 1045.5 283.5Z" stroke="black"/>
<path d="M1045.5 64.883C1045.5 66.2044 1044.77 67.9206 1043.28 69.9247C1041.79 71.9141 1039.6 74.1256 1036.77 76.4264C1031.12 81.0265 1022.99 85.9451 1013.12 90.1253C993.375 98.4863 966.732 103.867 939.106 97.8943C914.117 92.4913 897.674 87.0965 887.488 81.5918C877.295 76.0836 873.5 70.5426 873.5 64.883C873.5 63.5614 874.219 61.8844 875.66 59.9687C877.091 58.0671 879.188 55.9907 881.835 53.8818C887.127 49.6652 894.565 45.3574 903.116 42.0846C920.234 35.5331 941.679 33.1744 959.241 43.8106C977.104 54.6291 998.839 57.0382 1016.03 58.2414C1018.1 58.3869 1020.11 58.5146 1022.04 58.6371C1028.11 59.0231 1033.37 59.3573 1037.39 60.0308C1040.05 60.4747 1042.1 61.0573 1043.49 61.8637C1044.85 62.656 1045.5 63.6262 1045.5 64.883Z" fill="white"/>
<path d="M1045.5 64.883C1045.5 66.2044 1044.77 67.9206 1043.28 69.9247C1041.79 71.9141 1039.6 74.1256 1036.77 76.4264C1031.12 81.0265 1022.99 85.9451 1013.12 90.1253C993.375 98.4863 966.732 103.867 939.106 97.8943C914.117 92.4913 897.674 87.0965 887.488 81.5918C877.295 76.0836 873.5 70.5426 873.5 64.883C873.5 63.5614 874.219 61.8844 875.66 59.9687C877.091 58.0671 879.188 55.9907 881.835 53.8818C887.127 49.6652 894.565 45.3574 903.116 42.0846C920.234 35.5331 941.679 33.1744 959.241 43.8106C977.104 54.6291 998.839 57.0382 1016.03 58.2414C1018.1 58.3869 1020.11 58.5146 1022.04 58.6371C1028.11 59.0231 1033.37 59.3573 1037.39 60.0308C1040.05 60.4747 1042.1 61.0573 1043.49 61.8637C1044.85 62.656 1045.5 63.6262 1045.5 64.883Z" fill="white"/>
<path d="M1045.5 64.883C1045.5 66.2044 1044.77 67.9206 1043.28 69.9247C1041.79 71.9141 1039.6 74.1256 1036.77 76.4264C1031.12 81.0265 1022.99 85.9451 1013.12 90.1253C993.375 98.4863 966.732 103.867 939.106 97.8943C914.117 92.4913 897.674 87.0965 887.488 81.5918C877.295 76.0836 873.5 70.5426 873.5 64.883C873.5 63.5614 874.219 61.8844 875.66 59.9687C877.091 58.0671 879.188 55.9907 881.835 53.8818C887.127 49.6652 894.565 45.3574 903.116 42.0846C920.234 35.5331 941.679 33.1744 959.241 43.8106C977.104 54.6291 998.839 57.0382 1016.03 58.2414C1018.1 58.3869 1020.11 58.5146 1022.04 58.6371C1028.11 59.0231 1033.37 59.3573 1037.39 60.0308C1040.05 60.4747 1042.1 61.0573 1043.49 61.8637C1044.85 62.656 1045.5 63.6262 1045.5 64.883Z" fill="white"/>
<path d="M1045.5 64.883C1045.5 66.2044 1044.77 67.9206 1043.28 69.9247C1041.79 71.9141 1039.6 74.1256 1036.77 76.4264C1031.12 81.0265 1022.99 85.9451 1013.12 90.1253C993.375 98.4863 966.732 103.867 939.106 97.8943C914.117 92.4913 897.674 87.0965 887.488 81.5918C877.295 76.0836 873.5 70.5426 873.5 64.883C873.5 63.5614 874.219 61.8844 875.66 59.9687C877.091 58.0671 879.188 55.9907 881.835 53.8818C887.127 49.6652 894.565 45.3574 903.116 42.0846C920.234 35.5331 941.679 33.1744 959.241 43.8106C977.104 54.6291 998.839 57.0382 1016.03 58.2414C1018.1 58.3869 1020.11 58.5146 1022.04 58.6371C1028.11 59.0231 1033.37 59.3573 1037.39 60.0308C1040.05 60.4747 1042.1 61.0573 1043.49 61.8637C1044.85 62.656 1045.5 63.6262 1045.5 64.883Z" fill="black" fill-opacity="0.2"/>
<path d="M1045.5 64.883C1045.5 66.2044 1044.77 67.9206 1043.28 69.9247C1041.79 71.9141 1039.6 74.1256 1036.77 76.4264C1031.12 81.0265 1022.99 85.9451 1013.12 90.1253C993.375 98.4863 966.732 103.867 939.106 97.8943C914.117 92.4913 897.674 87.0965 887.488 81.5918C877.295 76.0836 873.5 70.5426 873.5 64.883C873.5 63.5614 874.219 61.8844 875.66 59.9687C877.091 58.0671 879.188 55.9907 881.835 53.8818C887.127 49.6652 894.565 45.3574 903.116 42.0846C920.234 35.5331 941.679 33.1744 959.241 43.8106C977.104 54.6291 998.839 57.0382 1016.03 58.2414C1018.1 58.3869 1020.11 58.5146 1022.04 58.6371C1028.11 59.0231 1033.37 59.3573 1037.39 60.0308C1040.05 60.4747 1042.1 61.0573 1043.49 61.8637C1044.85 62.656 1045.5 63.6262 1045.5 64.883Z" stroke="black"/>
<line x1="873.5" y1="65" x2="873.5" y2="283" stroke="black"/>
<line x1="1045.68" y1="65" x2="1045.68" y2="283" stroke="black"/>
<path d="M841 150L838.508 144.792L835.244 149.554L841 150ZM608 150C608.268 150.422 608.268 150.422 608.268 150.422C608.268 150.422 608.268 150.422 608.269 150.422C608.27 150.421 608.272 150.42 608.274 150.418C608.278 150.416 608.285 150.411 608.295 150.405C608.314 150.393 608.343 150.375 608.382 150.351C608.46 150.303 608.578 150.232 608.736 150.138C609.052 149.95 609.527 149.673 610.161 149.32C611.43 148.614 613.335 147.603 615.872 146.389C620.947 143.96 628.551 140.719 638.653 137.476C658.857 130.991 689.055 124.5 729 124.5V123.5C688.945 123.5 658.643 130.009 638.347 136.524C628.199 139.781 620.553 143.04 615.44 145.486C612.884 146.71 610.961 147.73 609.675 148.446C609.032 148.804 608.548 149.086 608.224 149.278C608.062 149.375 607.94 149.449 607.858 149.499C607.817 149.525 607.786 149.544 607.765 149.557C607.755 149.564 607.747 149.569 607.741 149.572C607.738 149.574 607.736 149.575 607.735 149.576C607.734 149.577 607.733 149.577 607.733 149.577C607.733 149.578 607.732 149.578 608 150ZM729 124.5C793.427 124.5 826.634 141.385 837.024 147.88L837.554 147.032C827.003 140.437 793.612 123.5 729 123.5V124.5Z" fill="black"/>
<path d="M725.641 105.488C725.214 105.488 725 105.386 725 105.182C725 105.04 725.275 104.592 725.824 103.839C726.374 103.086 726.923 102.476 727.473 102.007C728.185 101.458 728.847 101.142 729.457 101.061C729.579 101.02 731.289 101 734.586 101C737.843 101 739.522 101.02 739.623 101.061C740.031 101.163 740.234 101.438 740.234 101.885C740.234 102.17 740.142 102.435 739.959 102.679C739.776 102.923 739.542 103.086 739.257 103.168C739.135 103.208 738.158 103.229 736.326 103.229C734.495 103.229 733.579 103.249 733.579 103.29C733.558 103.31 733.396 104.144 733.09 105.793C732.785 107.442 732.459 109.121 732.113 110.83C731.767 112.54 731.584 113.446 731.564 113.547C731.462 113.853 731.279 114.097 731.014 114.28C730.75 114.463 730.455 114.555 730.129 114.555C729.457 114.555 729.121 114.219 729.121 113.547V113.242L730.648 108.296C730.872 107.564 731.116 106.75 731.381 105.854C731.645 104.959 731.859 104.307 732.022 103.9L732.205 103.259C732.205 103.239 731.737 103.229 730.801 103.229C730.76 103.229 730.648 103.229 730.465 103.229C730.282 103.229 730.139 103.218 730.037 103.198C728.45 103.198 727.208 103.849 726.313 105.152C726.211 105.315 726.13 105.406 726.069 105.427C726.007 105.447 725.865 105.467 725.641 105.488Z" fill="black"/>
<path d="M608.908 284.496C608.908 284.387 608.391 284.315 607.358 284.278C606.923 284.278 606.642 284.269 606.515 284.251C606.388 284.233 606.324 284.142 606.324 283.979C606.324 283.961 606.343 283.861 606.379 283.68C606.397 283.626 606.415 283.562 606.433 283.49C606.451 283.417 606.46 283.372 606.46 283.354C606.46 283.335 606.478 283.29 606.515 283.218C606.551 283.145 606.569 283.118 606.569 283.136C606.569 283.154 606.605 283.136 606.678 283.082C606.75 283.027 606.796 283.009 606.814 283.027C606.832 283.045 606.905 283.045 607.032 283.027C607.158 283.009 607.267 283 607.358 283C607.467 283 607.739 283 608.174 283C608.609 283 609.017 283.009 609.398 283.027C610.83 283.027 611.655 283.027 611.873 283.027C612.09 283.027 612.235 283.073 612.308 283.163C612.326 283.236 612.661 285.792 613.314 290.833L614.293 298.421L614.919 297.415C615.354 296.762 615.934 295.855 616.659 294.695C617.385 293.534 618.182 292.265 619.053 290.887C622.226 285.829 623.83 283.281 623.867 283.245C623.885 283.227 623.912 283.199 623.948 283.163C623.985 283.127 624.021 283.1 624.057 283.082L624.22 283.027H626.831C627.139 283.027 627.502 283.027 627.919 283.027C628.336 283.027 628.599 283.018 628.708 283C629.324 283 629.632 283.1 629.632 283.299C629.632 283.39 629.605 283.544 629.551 283.762C629.496 283.979 629.469 284.097 629.469 284.115C629.397 284.224 629.061 284.278 628.463 284.278C627.738 284.296 627.275 284.324 627.076 284.36C626.876 284.396 626.713 284.496 626.586 284.659C626.532 284.75 625.879 287.315 624.628 292.356C623.377 297.396 622.742 299.944 622.724 299.998C622.724 300.071 622.733 300.116 622.752 300.134C622.77 300.152 622.833 300.189 622.942 300.243C623.051 300.297 623.205 300.316 623.404 300.297C623.604 300.279 623.903 300.297 624.302 300.352H625.145C625.254 300.515 625.308 300.615 625.308 300.651C625.308 300.941 625.245 301.213 625.118 301.467C625.027 301.558 624.882 301.603 624.683 301.603C624.592 301.603 624.22 301.594 623.567 301.576C622.915 301.558 622.081 301.549 621.065 301.549C619.959 301.549 619.125 301.549 618.563 301.549C618.001 301.549 617.684 301.558 617.611 301.576C617.303 301.576 617.149 301.485 617.149 301.304C617.149 301.268 617.167 301.141 617.203 300.923C617.276 300.633 617.348 300.47 617.421 300.433C617.493 300.397 617.702 300.37 618.046 300.352C618.536 300.352 619.08 300.325 619.678 300.27C619.932 300.216 620.104 300.107 620.195 299.944C620.231 299.871 620.576 298.548 621.229 295.973C621.881 293.398 622.525 290.833 623.16 288.276C623.794 285.72 624.111 284.441 624.111 284.441L618.835 292.845C615.281 298.502 613.459 301.376 613.368 301.467C613.332 301.485 613.296 301.503 613.26 301.521C613.169 301.576 613.024 301.603 612.825 301.603C612.553 301.603 612.389 301.54 612.335 301.413C612.299 301.34 611.927 298.53 611.22 292.981L610.159 284.632L608.31 291.975C607.095 296.798 606.488 299.291 606.488 299.454C606.596 300.053 607.249 300.352 608.446 300.352H608.718C608.827 300.443 608.89 300.524 608.908 300.597C608.926 300.669 608.899 300.832 608.827 301.086C608.754 301.376 608.681 301.54 608.609 301.576C608.536 301.594 608.437 301.603 608.31 301.603C608.274 301.603 608.165 301.603 607.983 301.603C607.802 301.603 607.494 301.594 607.059 301.576C606.624 301.558 606.043 301.549 605.318 301.549C604.774 301.549 604.212 301.558 603.632 301.576C603.052 301.594 602.716 301.603 602.626 301.603C602.354 301.603 602.181 301.585 602.109 301.549C602.036 301.512 602 301.431 602 301.304C602 301.268 602.027 301.141 602.082 300.923C602.136 300.705 602.181 300.569 602.218 300.515C602.254 300.406 602.453 300.352 602.816 300.352C604.085 300.352 604.892 299.989 605.236 299.264C605.309 299.155 605.935 296.726 607.113 291.975C608.292 287.225 608.89 284.732 608.908 284.496Z" fill="black"/>
<path d="M990.344 251.242C990.115 251.242 990 251.181 990 251.06C990 251.033 990.02 250.938 990.061 250.776C990.128 250.52 990.196 250.378 990.263 250.351C990.304 250.337 990.405 250.33 990.567 250.33H990.689C991.499 250.33 992.012 250.283 992.228 250.189C992.242 250.189 992.256 250.182 992.269 250.168C992.337 250.141 992.411 249.986 992.492 249.702C992.573 249.419 992.904 248.095 993.485 245.732C993.647 245.124 993.768 244.644 993.849 244.293C994.795 240.512 995.267 238.607 995.267 238.58C995.24 238.526 995.227 238.492 995.227 238.479C995.092 238.398 994.612 238.357 993.788 238.357H993.383C993.262 238.276 993.235 238.107 993.302 237.851C993.356 237.648 993.397 237.527 993.424 237.486C993.451 237.446 993.545 237.425 993.707 237.425H993.788C994.761 237.452 995.747 237.466 996.746 237.466C998.394 237.466 999.258 237.452 999.339 237.425H999.542C999.637 237.52 999.684 237.594 999.684 237.648C999.684 237.702 999.664 237.817 999.623 237.993C999.583 238.168 999.535 238.276 999.481 238.317C999.441 238.344 999.285 238.357 999.015 238.357C998.597 238.357 998.164 238.378 997.719 238.418C997.53 238.459 997.401 238.533 997.334 238.641C997.239 238.83 996.895 240.12 996.301 242.51C996.152 243.145 996.003 243.76 995.855 244.354C994.909 248.082 994.437 249.986 994.437 250.067C994.437 250.162 994.504 250.222 994.639 250.249C994.774 250.276 995.126 250.303 995.693 250.33H996.341C996.422 250.438 996.463 250.499 996.463 250.513C996.463 250.526 996.442 250.648 996.402 250.877C996.348 251.053 996.28 251.181 996.199 251.262H995.875C995.375 251.235 994.45 251.222 993.1 251.222C992.613 251.222 992.168 251.222 991.763 251.222C991.357 251.222 991.033 251.222 990.79 251.222C990.547 251.222 990.398 251.229 990.344 251.242Z" fill="black"/>
<path d="M1016.95 250.675C1016.95 250.945 1016.81 251.08 1016.52 251.08C1016.46 251.08 1016.31 250.972 1016.08 250.756C1015.85 250.54 1015.21 249.912 1014.17 248.872L1012.07 246.765L1009.94 248.892C1008.51 250.297 1007.77 251.012 1007.73 251.039C1007.68 251.066 1007.63 251.08 1007.59 251.08C1007.48 251.08 1007.39 251.039 1007.31 250.958C1007.22 250.877 1007.18 250.783 1007.16 250.675C1007.16 250.58 1007.26 250.432 1007.45 250.229C1007.64 250.027 1008.27 249.385 1009.35 248.305L1011.46 246.198L1009.35 244.091C1008.26 242.997 1007.62 242.355 1007.45 242.166C1007.27 241.977 1007.18 241.828 1007.16 241.72C1007.16 241.599 1007.2 241.504 1007.28 241.437C1007.37 241.369 1007.47 241.335 1007.59 241.335C1007.66 241.335 1007.7 241.342 1007.73 241.356C1007.77 241.383 1008.51 242.099 1009.94 243.503L1012.07 245.63L1014.17 243.523C1015.21 242.483 1015.85 241.855 1016.08 241.639C1016.31 241.423 1016.46 241.315 1016.52 241.315C1016.81 241.315 1016.95 241.45 1016.95 241.72C1016.95 241.815 1016.88 241.936 1016.75 242.085C1016.61 242.234 1015.95 242.895 1014.76 244.07L1012.65 246.198L1014.76 248.325C1015.9 249.459 1016.54 250.114 1016.71 250.29C1016.87 250.465 1016.95 250.594 1016.95 250.675Z" fill="black"/>
<path d="M1032.53 252.883C1032.53 252.437 1032.54 252.1 1032.55 251.87C1032.57 251.641 1032.58 251.512 1032.59 251.485V251.404L1032.29 251.485C1031.67 251.634 1031.1 251.708 1030.59 251.708C1029.3 251.708 1028.19 251.323 1027.24 250.553C1026.3 249.783 1025.71 248.662 1025.48 247.19C1025.47 247.082 1025.46 246.792 1025.46 246.319C1025.46 244.942 1025.79 243.631 1026.43 242.389C1027.08 241.146 1027.95 240.046 1029.05 239.087C1030.72 237.696 1032.4 237 1034.09 237C1034.6 237 1034.93 237.007 1035.06 237.02C1036.37 237.209 1037.43 237.79 1038.22 238.763C1039.02 239.735 1039.43 240.964 1039.44 242.45C1039.44 244.881 1038.44 247.096 1036.44 249.095C1035.59 249.905 1034.71 250.52 1033.79 250.938L1033.44 251.1V251.202C1033.44 251.215 1033.48 251.397 1033.54 251.749C1033.61 252.1 1033.75 252.383 1033.97 252.599C1034.19 252.816 1034.5 252.924 1034.9 252.924C1035.37 252.924 1035.83 252.775 1036.26 252.478C1036.69 252.181 1036.98 251.796 1037.11 251.323C1037.19 251.134 1037.28 251.039 1037.37 251.039C1037.5 251.039 1037.57 251.1 1037.6 251.222C1037.6 251.33 1037.53 251.573 1037.39 251.951C1037.26 252.329 1037.07 252.775 1036.83 253.288C1036.58 253.801 1036.22 254.24 1035.73 254.605C1035.25 254.97 1034.73 255.166 1034.19 255.193C1033.09 255.193 1032.53 254.47 1032.53 253.025V252.883ZM1037.33 241.781C1037.33 241.038 1037.23 240.39 1037.03 239.836C1036.83 239.283 1036.55 238.871 1036.2 238.6C1035.85 238.33 1035.51 238.128 1035.19 237.993C1034.86 237.858 1034.5 237.79 1034.11 237.79C1033.46 237.79 1032.8 237.959 1032.13 238.297C1030.75 238.958 1029.64 240.147 1028.8 241.862C1027.97 243.577 1027.55 245.252 1027.55 246.886C1027.55 248.318 1027.91 249.378 1028.64 250.067C1028.97 250.351 1029.16 250.492 1029.23 250.492V250.33C1029.23 249.79 1029.45 249.29 1029.9 248.831C1030.34 248.372 1030.87 248.136 1031.48 248.122C1031.82 248.122 1032.11 248.196 1032.35 248.345C1032.59 248.494 1032.77 248.696 1032.9 248.953C1033.02 249.209 1033.1 249.426 1033.14 249.601C1033.18 249.777 1033.22 249.959 1033.26 250.148L1033.52 249.966C1034.39 249.371 1035.12 248.554 1035.73 247.514C1036.34 246.474 1036.76 245.468 1036.99 244.496C1037.22 243.523 1037.33 242.618 1037.33 241.781ZM1030.81 250.898C1031.46 250.898 1032.07 250.756 1032.63 250.472L1032.61 250.27C1032.56 249.527 1032.31 249.081 1031.86 248.933C1031.7 248.906 1031.57 248.892 1031.48 248.892C1031.44 248.892 1031.4 248.892 1031.36 248.892C1031.32 248.892 1031.29 248.885 1031.28 248.872C1031.01 248.872 1030.73 249.007 1030.45 249.277C1030.16 249.547 1030.01 249.858 1030 250.209C1030 250.668 1030.27 250.898 1030.81 250.898Z" fill="black"/>
<path d="M488.022 167.022C487.529 167.022 487.268 166.993 487.239 166.935C487.225 166.906 487.217 166.848 487.217 166.761C487.217 166.413 487.297 166.174 487.457 166.043C487.485 166.029 487.609 166.022 487.826 166.022C488.42 166.051 489.406 166.065 490.783 166.065C491.275 166.065 491.732 166.065 492.152 166.065C492.572 166.065 492.898 166.058 493.13 166.043C493.362 166.029 493.507 166.029 493.565 166.043C493.797 166.043 493.913 166.116 493.913 166.261C493.913 166.29 493.898 166.391 493.869 166.565C493.797 166.812 493.724 166.957 493.652 167H493.609C493.58 167 493.543 167 493.5 167C493.456 167 493.406 167 493.348 167C493.29 167 493.224 167.007 493.152 167.022C493.08 167.036 493.014 167.036 492.956 167.022C492.391 167.036 492.029 167.058 491.869 167.087C491.71 167.116 491.58 167.196 491.478 167.326C491.464 167.355 491.261 168.116 490.869 169.609C490.478 171.101 490.087 172.667 489.696 174.304C489.304 175.942 489.087 176.906 489.043 177.195C489.014 177.398 489 177.608 489 177.826C489 178.608 489.225 179.224 489.674 179.674C490.123 180.123 490.746 180.348 491.543 180.348C492.514 180.348 493.485 180.021 494.456 179.369C495.427 178.717 496.137 177.732 496.587 176.413L497.695 172.043C498.377 169.261 498.717 167.812 498.717 167.696C498.717 167.304 498.253 167.08 497.326 167.022C496.978 167.022 496.804 166.942 496.804 166.783C496.804 166.754 496.819 166.667 496.848 166.522C496.906 166.29 496.949 166.152 496.978 166.109C497.007 166.065 497.079 166.036 497.195 166.022C497.239 166.022 497.471 166.029 497.891 166.043C498.311 166.058 498.92 166.072 499.717 166.087C500.456 166.087 501.021 166.08 501.413 166.065C501.804 166.051 502.014 166.043 502.043 166.043C502.261 166.043 502.369 166.116 502.369 166.261C502.369 166.58 502.311 166.797 502.195 166.913C502.152 166.985 501.992 167.022 501.717 167.022C500.688 167.08 500.043 167.37 499.782 167.891C499.753 167.964 499.391 169.362 498.695 172.087C498.101 174.536 497.739 175.978 497.608 176.413C497.13 177.862 496.297 179.043 495.109 179.956C493.92 180.869 492.688 181.333 491.413 181.347C490.08 181.347 489.014 180.942 488.217 180.13C487.42 179.319 487.014 178.355 487 177.239V176.891C487 176.63 487.399 174.906 488.196 171.717C488.906 168.804 489.261 167.304 489.261 167.217C489.261 167.116 488.848 167.051 488.022 167.022Z" fill="black"/>
<path d="M510.234 175.435C510.234 173.666 510.828 172.217 512.017 171.087C513.205 169.956 514.611 169.312 516.234 169.152C516.249 169.152 516.321 169.152 516.452 169.152C516.582 169.152 516.763 169.152 516.995 169.152C517.227 169.152 517.48 169.145 517.756 169.13C518.031 169.116 518.357 169.116 518.734 169.13C519.111 169.145 519.466 169.145 519.799 169.13H523.169C523.386 169.246 523.495 169.391 523.495 169.565C523.495 169.696 523.401 169.833 523.212 169.978L519.756 170H518.625H517.995C516.908 170 516.162 170.029 515.756 170.087C515.35 170.145 514.828 170.319 514.191 170.609C513.872 170.768 513.568 170.956 513.278 171.174C512.988 171.391 512.662 171.696 512.299 172.087C511.937 172.478 511.647 172.964 511.43 173.543C511.212 174.123 511.104 174.753 511.104 175.435V175.543C511.104 176.819 511.546 177.949 512.43 178.934C513.285 179.862 514.321 180.456 515.538 180.717C515.828 180.79 516.104 180.826 516.365 180.826C516.625 180.826 517.756 180.84 519.756 180.869H523.212C523.401 181.014 523.495 181.159 523.495 181.304C523.495 181.478 523.386 181.623 523.169 181.739H519.843C519.611 181.739 519.278 181.739 518.843 181.739C518.408 181.739 518.075 181.746 517.843 181.761C516.625 181.761 515.575 181.645 514.691 181.413C513.807 181.181 512.959 180.674 512.147 179.891C510.872 178.703 510.234 177.217 510.234 175.435Z" fill="black"/>
<path d="M537.642 167.196C537.642 167.109 537.229 167.051 536.403 167.022C536.055 167.022 535.831 167.014 535.729 167C535.628 166.985 535.577 166.913 535.577 166.783C535.577 166.768 535.592 166.688 535.621 166.543C535.635 166.5 535.65 166.449 535.664 166.391C535.679 166.333 535.686 166.297 535.686 166.283C535.686 166.268 535.7 166.232 535.729 166.174C535.758 166.116 535.773 166.094 535.773 166.109C535.773 166.123 535.802 166.109 535.86 166.065C535.918 166.022 535.954 166.007 535.968 166.022C535.983 166.036 536.041 166.036 536.142 166.022C536.244 166.007 536.331 166 536.403 166C536.49 166 536.708 166 537.055 166C537.403 166 537.729 166.007 538.034 166.022C539.179 166.022 539.838 166.022 540.012 166.022C540.186 166.022 540.302 166.058 540.36 166.13C540.374 166.188 540.642 168.232 541.164 172.261L541.947 178.326L542.447 177.521C542.794 177 543.258 176.275 543.838 175.348C544.418 174.42 545.055 173.406 545.751 172.304C548.287 168.261 549.57 166.225 549.599 166.196C549.613 166.181 549.635 166.159 549.664 166.13C549.693 166.101 549.722 166.08 549.751 166.065L549.881 166.022H551.968C552.214 166.022 552.504 166.022 552.838 166.022C553.171 166.022 553.381 166.014 553.468 166C553.961 166 554.207 166.08 554.207 166.239C554.207 166.312 554.185 166.435 554.142 166.609C554.098 166.783 554.077 166.877 554.077 166.891C554.019 166.978 553.751 167.022 553.272 167.022C552.693 167.036 552.323 167.058 552.164 167.087C552.004 167.116 551.874 167.196 551.772 167.326C551.729 167.399 551.207 169.449 550.207 173.478C549.207 177.507 548.7 179.543 548.686 179.587C548.686 179.645 548.693 179.681 548.707 179.695C548.722 179.71 548.773 179.739 548.859 179.782C548.946 179.826 549.07 179.84 549.229 179.826C549.388 179.811 549.628 179.826 549.946 179.869H550.62C550.707 180 550.751 180.079 550.751 180.108C550.751 180.34 550.7 180.558 550.599 180.761C550.526 180.833 550.41 180.869 550.251 180.869C550.178 180.869 549.881 180.862 549.359 180.847C548.838 180.833 548.171 180.826 547.359 180.826C546.475 180.826 545.809 180.826 545.36 180.826C544.91 180.826 544.657 180.833 544.599 180.847C544.352 180.847 544.229 180.775 544.229 180.63C544.229 180.601 544.244 180.5 544.273 180.326C544.331 180.094 544.389 179.963 544.447 179.934C544.504 179.905 544.671 179.884 544.947 179.869C545.338 179.869 545.773 179.848 546.251 179.804C546.454 179.761 546.591 179.674 546.664 179.543C546.693 179.485 546.968 178.427 547.49 176.369C548.012 174.311 548.526 172.261 549.033 170.217C549.541 168.174 549.794 167.152 549.794 167.152L545.577 173.869C542.736 178.391 541.28 180.688 541.207 180.761C541.178 180.775 541.149 180.79 541.121 180.804C541.048 180.847 540.932 180.869 540.773 180.869C540.555 180.869 540.425 180.819 540.381 180.717C540.352 180.659 540.055 178.413 539.49 173.978L538.642 167.304L537.164 173.174C536.193 177.029 535.708 179.021 535.708 179.152C535.795 179.63 536.316 179.869 537.273 179.869H537.49C537.577 179.942 537.628 180.007 537.642 180.065C537.657 180.123 537.635 180.253 537.577 180.456C537.519 180.688 537.461 180.819 537.403 180.847C537.345 180.862 537.266 180.869 537.164 180.869C537.135 180.869 537.048 180.869 536.903 180.869C536.758 180.869 536.512 180.862 536.164 180.847C535.816 180.833 535.353 180.826 534.773 180.826C534.338 180.826 533.889 180.833 533.425 180.847C532.961 180.862 532.693 180.869 532.621 180.869C532.403 180.869 532.266 180.855 532.208 180.826C532.15 180.797 532.121 180.732 532.121 180.63C532.121 180.601 532.142 180.5 532.186 180.326C532.229 180.152 532.266 180.043 532.295 180C532.324 179.913 532.483 179.869 532.773 179.869C533.787 179.869 534.432 179.579 534.708 179C534.766 178.913 535.266 176.971 536.208 173.174C537.15 169.377 537.628 167.384 537.642 167.196Z" fill="black"/>
</svg>
