<svg width="986" height="348" viewBox="0 0 986 348" fill="none" xmlns="http://www.w3.org/2000/svg">
<g clip-path="url(#clip0_2_298)">
<path fill-rule="evenodd" clip-rule="evenodd" d="M447.24 44.7022C498.793 48.1406 528.283 134.149 567.24 169.702C615.531 213.774 727.638 193.521 727.288 255.753C727.094 290.202 706.24 303.58 643.74 325.202C555.527 355.719 348.995 335.722 310.24 231.202C278.71 146.167 357.472 38.715 447.24 44.7022Z" fill="white" stroke="black"/>
<circle cx="592.5" cy="292.5" r="2.5" fill="black"/>
<circle cx="451.5" cy="177.5" r="2.5" fill="black"/>
<path d="M507.715 37.715C506.888 37.715 506.45 37.6664 506.401 37.5691C506.377 37.5204 506.365 37.4231 506.365 37.2771C506.365 36.6933 506.499 36.2919 506.766 36.073C506.815 36.0487 507.022 36.0365 507.387 36.0365C508.384 36.0852 510.038 36.1095 512.349 36.1095C513.176 36.1095 513.943 36.1095 514.648 36.1095C515.353 36.1095 515.901 36.0973 516.29 36.073C516.679 36.0487 516.922 36.0487 517.02 36.073C517.409 36.073 517.604 36.1946 517.604 36.4379C517.604 36.4865 517.579 36.6568 517.531 36.9487C517.409 37.3623 517.287 37.6055 517.166 37.6785H517.093C517.044 37.6785 516.983 37.6785 516.91 37.6785C516.837 37.6785 516.752 37.6785 516.655 37.6785C516.558 37.6785 516.448 37.6907 516.327 37.715C516.205 37.7393 516.095 37.7393 515.998 37.715C515.049 37.7393 514.441 37.7758 514.174 37.8245C513.906 37.8731 513.687 38.0069 513.517 38.2259C513.492 38.2745 513.152 39.5517 512.495 42.0573C511.838 44.5629 511.181 47.1901 510.525 49.939C509.868 52.6878 509.503 54.3055 509.43 54.7921C509.381 55.1326 509.357 55.4854 509.357 55.8503C509.357 57.1639 509.734 58.1977 510.488 58.9519C511.242 59.706 512.288 60.083 513.626 60.083C515.256 60.083 516.886 59.5357 518.516 58.441C520.146 57.3463 521.338 55.6921 522.092 53.4784L523.953 46.1441C525.096 41.4734 525.668 39.0408 525.668 38.8462C525.668 38.1894 524.889 37.8123 523.332 37.715C522.749 37.715 522.457 37.5812 522.457 37.3136C522.457 37.265 522.481 37.119 522.53 36.8758C522.627 36.4865 522.7 36.2554 522.749 36.1825C522.797 36.1095 522.919 36.0608 523.114 36.0365C523.187 36.0365 523.576 36.0487 524.281 36.073C524.987 36.0973 526.008 36.1216 527.346 36.146C528.587 36.146 529.536 36.1338 530.192 36.1095C530.849 36.0852 531.202 36.073 531.251 36.073C531.616 36.073 531.798 36.1946 531.798 36.4379C531.798 36.9731 531.701 37.338 531.506 37.5326C531.433 37.6542 531.166 37.715 530.703 37.715C528.976 37.8123 527.894 38.2988 527.456 39.1746C527.407 39.2962 526.799 41.6437 525.631 46.217C524.634 50.3282 524.026 52.7487 523.807 53.4784C523.004 55.9111 521.605 57.8937 519.611 59.4262C517.616 60.9588 515.548 61.7372 513.407 61.7615C511.169 61.7615 509.381 61.0804 508.043 59.7181C506.705 58.3559 506.024 56.7382 506 54.865V54.2812C506 53.8433 506.669 50.9485 508.007 45.5967C509.199 40.7071 509.795 38.1894 509.795 38.0434C509.795 37.8731 509.102 37.7637 507.715 37.715Z" fill="black"/>
<path d="M545 51.8364C545 48.8686 545.997 46.436 547.992 44.5385C549.987 42.6411 552.346 41.5586 555.071 41.291C555.095 41.291 555.217 41.291 555.436 41.291C555.655 41.291 555.959 41.291 556.348 41.291C556.737 41.291 557.163 41.2788 557.625 41.2545C558.087 41.2302 558.635 41.2302 559.267 41.2545C559.9 41.2788 560.496 41.2788 561.055 41.2545H566.711C567.076 41.4491 567.258 41.6924 567.258 41.9843C567.258 42.2032 567.1 42.4343 566.784 42.6776L560.982 42.7141H559.085H558.027C556.202 42.7141 554.949 42.7627 554.268 42.86C553.587 42.9573 552.711 43.2492 551.641 43.7358C551.106 44.0034 550.595 44.3196 550.108 44.6845C549.622 45.0494 549.075 45.5602 548.466 46.217C547.858 46.8739 547.372 47.6888 547.007 48.6618C546.642 49.6349 546.459 50.6931 546.459 51.8364V52.0189C546.459 54.1596 547.201 56.057 548.685 57.7112C550.121 59.2681 551.86 60.2655 553.903 60.7033C554.39 60.825 554.852 60.8858 555.29 60.8858C555.728 60.8858 557.625 60.9101 560.982 60.9588H566.784C567.1 61.202 567.258 61.4453 567.258 61.6886C567.258 61.9805 567.076 62.2237 566.711 62.4183H561.128C560.739 62.4183 560.179 62.4183 559.45 62.4183C558.72 62.4183 558.16 62.4305 557.771 62.4548C555.728 62.4548 553.964 62.2602 552.48 61.871C550.996 61.4818 549.573 60.6304 548.211 59.3167C546.07 57.322 545 54.8285 545 51.8364Z" fill="black"/>
<path d="M591.006 38.0069C591.006 37.861 590.312 37.7637 588.926 37.715C588.342 37.715 587.965 37.7029 587.795 37.6785C587.624 37.6542 587.539 37.5326 587.539 37.3136C587.539 37.2893 587.564 37.1555 587.612 36.9123C587.637 36.8393 587.661 36.7541 587.685 36.6568C587.71 36.5595 587.722 36.4987 587.722 36.4744C587.722 36.4501 587.746 36.3892 587.795 36.2919C587.843 36.1946 587.868 36.1581 587.868 36.1825C587.868 36.2068 587.916 36.1825 588.014 36.1095C588.111 36.0365 588.172 36.0122 588.196 36.0365C588.22 36.0608 588.318 36.0608 588.488 36.0365C588.658 36.0122 588.804 36 588.926 36C589.072 36 589.437 36 590.02 36C590.604 36 591.152 36.0122 591.663 36.0365C593.584 36.0365 594.691 36.0365 594.983 36.0365C595.275 36.0365 595.47 36.0973 595.567 36.219C595.591 36.3163 596.041 39.7463 596.917 46.509L598.231 56.6895L599.07 55.3394C599.654 54.4637 600.432 53.2473 601.405 51.6905C602.378 50.1336 603.449 48.4307 604.616 46.5819C608.873 39.7949 611.026 36.3771 611.075 36.3284C611.099 36.3041 611.136 36.2676 611.184 36.219C611.233 36.1703 611.282 36.1338 611.33 36.1095L611.549 36.0365H615.052C615.466 36.0365 615.952 36.0365 616.512 36.0365C617.071 36.0365 617.424 36.0243 617.57 36C618.397 36 618.811 36.1338 618.811 36.4014C618.811 36.523 618.774 36.7298 618.701 37.0217C618.628 37.3136 618.592 37.4718 618.592 37.4961C618.494 37.642 618.044 37.715 617.242 37.715C616.269 37.7393 615.648 37.7758 615.381 37.8245C615.113 37.8731 614.894 38.0069 614.724 38.2259C614.651 38.3475 613.775 41.7897 612.097 48.5524C610.418 55.3151 609.567 58.7329 609.542 58.8059C609.542 58.9032 609.554 58.964 609.579 58.9883C609.603 59.0127 609.688 59.0613 609.834 59.1343C609.98 59.2073 610.187 59.2316 610.455 59.2073C610.722 59.183 611.124 59.2073 611.659 59.2803H612.79C612.936 59.4992 613.009 59.633 613.009 59.6816C613.009 60.0709 612.924 60.4358 612.753 60.7763C612.632 60.898 612.437 60.9588 612.17 60.9588C612.048 60.9588 611.549 60.9466 610.674 60.9223C609.798 60.898 608.679 60.8858 607.316 60.8858C605.833 60.8858 604.714 60.8858 603.959 60.8858C603.205 60.8858 602.78 60.898 602.682 60.9223C602.269 60.9223 602.062 60.8006 602.062 60.5574C602.062 60.5087 602.086 60.3385 602.135 60.0465C602.232 59.6573 602.33 59.4384 602.427 59.3897C602.524 59.3411 602.804 59.3046 603.266 59.2803C603.923 59.2803 604.653 59.2438 605.456 59.1708C605.796 59.0978 606.027 58.9519 606.149 58.7329C606.197 58.6356 606.66 56.8598 607.535 53.4055C608.411 49.9511 609.275 46.509 610.126 43.079C610.978 39.649 611.403 37.934 611.403 37.934L604.324 49.2092C599.556 56.799 597.112 60.6547 596.99 60.7763C596.941 60.8007 596.893 60.825 596.844 60.8493C596.722 60.9223 596.528 60.9588 596.26 60.9588C595.895 60.9588 595.676 60.8736 595.603 60.7033C595.555 60.606 595.056 56.8355 594.107 49.3916L592.684 38.1894L590.203 48.0415C588.573 54.5123 587.758 57.8572 587.758 58.0761C587.904 58.8789 588.78 59.2803 590.385 59.2803H590.75C590.896 59.4019 590.981 59.5114 591.006 59.6087C591.03 59.706 590.994 59.9249 590.896 60.2655C590.799 60.6547 590.702 60.8736 590.604 60.9223C590.507 60.9466 590.373 60.9588 590.203 60.9588C590.154 60.9588 590.008 60.9588 589.765 60.9588C589.522 60.9588 589.108 60.9466 588.524 60.9223C587.941 60.898 587.162 60.8858 586.189 60.8858C585.459 60.8858 584.705 60.898 583.927 60.9223C583.148 60.9466 582.698 60.9588 582.577 60.9588C582.212 60.9588 581.981 60.9344 581.883 60.8858C581.786 60.8371 581.737 60.7277 581.737 60.5574C581.737 60.5087 581.774 60.3385 581.847 60.0465C581.92 59.7546 581.981 59.5722 582.029 59.4992C582.078 59.3532 582.346 59.2803 582.832 59.2803C584.535 59.2803 585.617 58.7937 586.08 57.8207C586.177 57.6747 587.016 54.415 588.597 48.0415C590.179 41.668 590.981 38.3232 591.006 38.0069Z" fill="black"/>
<path d="M456.594 186.007C456.612 185.955 456.629 185.886 456.646 185.8C456.663 185.714 456.706 185.524 456.775 185.231C456.844 184.938 456.93 184.671 457.034 184.43C457.137 184.189 457.266 183.904 457.421 183.577C457.577 183.25 457.749 182.991 457.938 182.802C458.128 182.612 458.352 182.423 458.61 182.233C458.869 182.044 459.153 181.966 459.463 182.001C460.755 182.001 461.582 182.552 461.944 183.655L462.203 183.422C463.271 182.474 464.288 182.001 465.252 182.001C466.372 182.001 467.251 182.405 467.889 183.215C468.526 184.025 468.845 185.007 468.845 186.162C468.845 188.022 468.19 189.737 466.881 191.305C465.571 192.873 464.089 193.665 462.435 193.682C462.056 193.682 461.72 193.631 461.427 193.527C461.238 193.441 461.04 193.312 460.833 193.14C460.626 192.967 460.463 192.821 460.342 192.7L460.161 192.494C460.144 192.511 459.954 193.26 459.592 194.742C459.231 196.224 459.05 196.973 459.05 196.991C459.05 197.094 459.119 197.154 459.256 197.172C459.394 197.189 459.713 197.215 460.213 197.249H460.859C460.962 197.37 461.014 197.447 461.014 197.482C461.014 197.516 460.988 197.671 460.936 197.947C460.885 198.154 460.833 198.283 460.781 198.335C460.73 198.386 460.618 198.421 460.445 198.438C460.411 198.438 460.316 198.438 460.161 198.438C460.006 198.438 459.713 198.429 459.282 198.412C458.852 198.395 458.317 198.386 457.68 198.386C456.474 198.386 455.707 198.403 455.38 198.438H455.173C455.052 198.317 454.992 198.223 454.992 198.154C455.026 197.688 455.138 197.387 455.328 197.249H455.845C456.431 197.232 456.767 197.128 456.853 196.939C456.905 196.836 457.43 194.777 458.429 190.762C459.429 186.747 459.954 184.62 460.006 184.378C460.023 184.292 460.032 184.172 460.032 184.016C460.032 183.31 459.816 182.957 459.386 182.957C459.007 182.957 458.688 183.198 458.429 183.68C458.171 184.163 457.973 184.688 457.835 185.257C457.697 185.826 457.594 186.136 457.525 186.187C457.49 186.222 457.353 186.239 457.111 186.239H456.749C456.646 186.136 456.594 186.058 456.594 186.007ZM460.6 190.788C460.979 192.097 461.617 192.752 462.513 192.752C463.03 192.752 463.529 192.554 464.012 192.158C464.494 191.761 464.891 191.262 465.201 190.659C465.511 190.073 465.821 189.142 466.131 187.867C466.441 186.592 466.605 185.645 466.622 185.024V184.869C466.622 183.594 466.097 182.957 465.046 182.957C464.856 182.957 464.667 182.983 464.477 183.034C464.288 183.086 464.098 183.164 463.909 183.267C463.719 183.37 463.547 183.482 463.392 183.603C463.237 183.724 463.09 183.853 462.952 183.991C462.814 184.128 462.685 184.258 462.565 184.378C462.444 184.499 462.349 184.62 462.28 184.74C462.211 184.861 462.142 184.947 462.074 184.999L461.996 185.102C461.996 185.119 461.97 185.24 461.918 185.464C461.867 185.688 461.772 186.067 461.634 186.601C461.496 187.135 461.376 187.583 461.272 187.945C460.824 189.771 460.6 190.719 460.6 190.788Z" fill="black"/>
<path d="M598.962 304.308C598.962 302.346 599.7 300.48 601.177 298.712C602.654 296.943 604.315 296.05 606.161 296.03C607.327 296.03 608.221 296.535 608.843 297.546C608.863 297.526 608.911 297.468 608.989 297.371C609.067 297.274 609.173 297.167 609.309 297.05C609.445 296.934 609.601 296.817 609.776 296.701C610.437 296.234 610.883 296.001 611.117 296.001C611.194 296.001 611.262 296.03 611.321 296.088C611.379 296.147 611.408 296.195 611.408 296.234C611.408 296.409 610.738 299.178 609.397 304.541C608.017 310.06 607.327 312.858 607.327 312.936C607.327 313.091 607.765 313.179 608.639 313.198H609.368C609.484 313.354 609.543 313.441 609.543 313.461C609.543 313.48 609.513 313.655 609.455 313.985C609.377 314.238 609.28 314.423 609.164 314.539H608.785C608.182 314.5 607.133 314.481 605.637 314.481C605.093 314.481 604.597 314.481 604.15 314.481C603.703 314.481 603.344 314.481 603.072 314.481C602.8 314.481 602.635 314.491 602.576 314.51C602.304 314.51 602.168 314.432 602.168 314.277C602.168 314.218 602.188 314.073 602.226 313.84C602.304 313.529 602.372 313.344 602.431 313.286C602.489 313.227 602.683 313.198 603.013 313.198C603.946 313.198 604.51 313.13 604.704 312.994C604.86 312.897 605.132 312.042 605.52 310.429C605.909 308.816 606.113 307.991 606.132 307.952C606.132 307.932 606.064 307.961 605.928 308.039C604.996 308.797 604.024 309.176 603.013 309.176C601.945 309.176 601.002 308.787 600.186 308.01C599.37 307.233 598.962 305.999 598.962 304.308ZM608.26 299.382C607.813 297.847 607.084 297.079 606.074 297.079C605.394 297.079 604.743 297.381 604.121 297.983C603.499 298.585 603.013 299.372 602.664 300.344C602.1 301.879 601.702 303.473 601.469 305.124C601.469 305.183 601.469 305.289 601.469 305.445C601.469 305.6 601.459 305.717 601.439 305.795C601.439 306.669 601.614 307.272 601.964 307.602C602.314 307.932 602.732 308.107 603.218 308.127C604.267 308.127 605.345 307.427 606.453 306.028L606.686 305.707L608.26 299.382Z" fill="black"/>
<path d="M307.194 275.238L223.959 193.732L574.913 90.7464L658.148 172.253L307.194 275.238Z" fill="#878787" fill-opacity="0.18" stroke="black"/>
<path d="M619 159L613.715 156.675L614.344 162.414L619 159ZM263.054 198.497L614.581 159.987L614.472 158.993L262.946 197.503L263.054 198.497Z" fill="black"/>
<path d="M236.464 152.441C236.155 152.441 236 152.376 236 152.246C236 152.164 236.13 151.709 236.391 150.878C236.651 150.048 236.928 149.226 237.221 148.412L237.636 147.216C237.717 146.923 237.823 146.711 237.953 146.581H249.38H251.578C252.099 146.581 252.408 146.589 252.506 146.606C252.603 146.622 252.66 146.695 252.677 146.825C252.677 146.923 252.538 147.851 252.262 149.609C251.985 151.367 251.83 152.254 251.798 152.27C251.798 152.384 251.643 152.441 251.334 152.441C251.187 152.441 251.09 152.441 251.041 152.441C250.992 152.441 250.943 152.4 250.894 152.319L250.845 152.246C250.845 152.148 250.894 151.782 250.992 151.147C251.09 150.512 251.138 150.016 251.138 149.658C251.138 149.088 251.033 148.657 250.821 148.364C250.609 148.071 250.162 147.867 249.478 147.753C249.397 147.737 248.925 147.721 248.062 147.704C247.313 147.704 246.841 147.712 246.646 147.729C246.45 147.745 246.304 147.81 246.206 147.924C246.19 147.94 245.612 150.211 244.473 154.736C243.333 159.262 242.763 161.565 242.763 161.646C242.763 161.842 243.48 161.955 244.912 161.988C245.433 161.988 245.767 161.996 245.913 162.012C246.06 162.029 246.133 162.102 246.133 162.232C246.133 162.314 246.109 162.428 246.06 162.574C245.995 162.867 245.921 163.038 245.84 163.087L245.791 163.111C245.742 163.111 245.685 163.111 245.62 163.111C245.539 163.111 245.116 163.103 244.351 163.087C243.585 163.071 242.487 163.062 241.054 163.062C238.954 163.062 237.62 163.079 237.05 163.111H236.684C236.586 163.014 236.537 162.94 236.537 162.891C236.537 162.843 236.553 162.696 236.586 162.452C236.651 162.24 236.733 162.086 236.83 161.988H237.514H237.782C239.085 161.988 239.858 161.915 240.102 161.768C240.118 161.752 240.135 161.744 240.151 161.744C240.232 161.695 240.314 161.532 240.395 161.256C240.476 160.979 240.802 159.701 241.372 157.422C241.648 156.315 241.876 155.412 242.055 154.712C243.195 150.235 243.765 147.948 243.765 147.851C243.765 147.769 243.528 147.729 243.056 147.729H242.3C241.209 147.729 240.493 147.778 240.151 147.875C239.418 148.038 238.849 148.372 238.442 148.876C238.035 149.381 237.595 150.325 237.123 151.709C237.009 152.067 236.928 152.278 236.879 152.343C236.83 152.409 236.716 152.441 236.537 152.441H236.464Z" fill="black"/>
<path d="M258.437 148.09C258.287 146.548 258.212 145.685 258.212 145.501C258.212 145.293 258.35 145.132 258.626 145.017C258.638 145.017 258.667 145.017 258.713 145.017C258.759 145.017 258.793 145.011 258.816 145C258.954 145.011 259.081 145.063 259.196 145.155C259.311 145.247 259.369 145.363 259.369 145.501C259.369 145.696 259.334 146.157 259.265 146.882C259.196 147.607 259.156 148.009 259.144 148.09L260.146 147.365C260.79 146.893 261.141 146.64 261.199 146.605C261.256 146.571 261.314 146.554 261.371 146.554C261.521 146.554 261.659 146.611 261.786 146.726C261.912 146.841 261.981 146.997 261.993 147.192C261.993 147.342 261.935 147.474 261.82 147.589C261.763 147.624 261.371 147.814 260.646 148.159C259.921 148.504 259.53 148.688 259.472 148.711L260.612 149.247L261.82 149.851C261.924 149.954 261.975 150.087 261.975 150.248C261.975 150.42 261.924 150.564 261.82 150.679C261.716 150.794 261.578 150.858 261.406 150.869C261.314 150.869 261.21 150.835 261.095 150.766C260.98 150.697 260.663 150.466 260.146 150.075L259.144 149.35C259.294 150.892 259.369 151.755 259.369 151.94C259.369 152.055 259.328 152.164 259.248 152.268C259.167 152.371 259.018 152.423 258.799 152.423C258.58 152.423 258.431 152.371 258.35 152.268C258.27 152.164 258.224 152.055 258.212 151.94C258.212 151.744 258.247 151.284 258.316 150.559C258.385 149.834 258.425 149.431 258.437 149.35L257.435 150.075C256.791 150.547 256.44 150.8 256.382 150.835C256.336 150.869 256.279 150.887 256.21 150.887C256.06 150.887 255.922 150.829 255.795 150.714C255.669 150.599 255.6 150.443 255.588 150.248C255.588 150.19 255.588 150.144 255.588 150.11C255.588 150.075 255.606 150.041 255.64 150.006C255.675 149.972 255.703 149.937 255.726 149.903C255.749 149.868 255.801 149.828 255.882 149.782C255.962 149.736 256.037 149.695 256.106 149.661C256.175 149.626 256.285 149.575 256.434 149.506C256.584 149.436 256.728 149.373 256.866 149.316C257.004 149.258 257.188 149.172 257.418 149.057C257.648 148.942 257.878 148.827 258.109 148.711L255.761 147.589C255.657 147.486 255.606 147.353 255.606 147.192C255.606 147.02 255.657 146.876 255.761 146.761C255.864 146.646 256.003 146.582 256.175 146.571C256.267 146.571 256.371 146.605 256.486 146.674C256.601 146.744 256.917 146.974 257.435 147.365L258.437 148.09Z" fill="black"/>
<path d="M250.144 164.188C250.155 164.153 250.167 164.107 250.178 164.05C250.19 163.992 250.218 163.866 250.264 163.67C250.311 163.474 250.368 163.296 250.437 163.135C250.506 162.974 250.592 162.784 250.696 162.565C250.8 162.346 250.915 162.174 251.041 162.047C251.168 161.921 251.318 161.794 251.49 161.667C251.663 161.541 251.853 161.489 252.06 161.512C252.923 161.512 253.475 161.88 253.717 162.617L253.89 162.462C254.603 161.829 255.282 161.512 255.927 161.512C256.675 161.512 257.262 161.783 257.687 162.323C258.113 162.864 258.326 163.52 258.326 164.291C258.326 165.534 257.889 166.679 257.014 167.727C256.14 168.774 255.15 169.303 254.045 169.315C253.792 169.315 253.567 169.28 253.372 169.211C253.245 169.154 253.113 169.067 252.975 168.952C252.837 168.837 252.727 168.739 252.647 168.659L252.526 168.521C252.514 168.532 252.388 169.033 252.146 170.023C251.904 171.012 251.784 171.513 251.784 171.524C251.784 171.593 251.83 171.634 251.922 171.645C252.014 171.657 252.227 171.674 252.56 171.697H252.992C253.061 171.778 253.096 171.829 253.096 171.852C253.096 171.875 253.078 171.979 253.044 172.163C253.009 172.301 252.975 172.388 252.94 172.422C252.906 172.457 252.831 172.48 252.716 172.491C252.693 172.491 252.629 172.491 252.526 172.491C252.422 172.491 252.227 172.485 251.939 172.474C251.651 172.462 251.294 172.457 250.869 172.457C250.063 172.457 249.551 172.468 249.332 172.491H249.194C249.114 172.411 249.073 172.347 249.073 172.301C249.096 171.99 249.171 171.789 249.298 171.697H249.643C250.034 171.686 250.259 171.616 250.316 171.49C250.351 171.421 250.702 170.046 251.369 167.364C252.037 164.683 252.388 163.261 252.422 163.1C252.434 163.043 252.44 162.962 252.44 162.859C252.44 162.387 252.296 162.151 252.008 162.151C251.755 162.151 251.542 162.312 251.369 162.634C251.197 162.956 251.064 163.307 250.972 163.687C250.88 164.067 250.811 164.274 250.765 164.309C250.742 164.332 250.65 164.343 250.489 164.343H250.247C250.178 164.274 250.144 164.222 250.144 164.188ZM252.819 167.381C253.073 168.256 253.498 168.693 254.097 168.693C254.442 168.693 254.776 168.561 255.098 168.296C255.42 168.032 255.685 167.698 255.892 167.295C256.099 166.904 256.306 166.282 256.514 165.431C256.721 164.579 256.83 163.946 256.842 163.532V163.428C256.842 162.577 256.491 162.151 255.789 162.151C255.662 162.151 255.535 162.168 255.409 162.203C255.282 162.237 255.156 162.289 255.029 162.358C254.902 162.427 254.787 162.502 254.684 162.582C254.58 162.663 254.482 162.749 254.39 162.841C254.298 162.933 254.212 163.02 254.131 163.1C254.051 163.181 253.987 163.261 253.941 163.342C253.895 163.422 253.849 163.48 253.803 163.515L253.752 163.584C253.752 163.595 253.734 163.676 253.7 163.825C253.665 163.975 253.602 164.228 253.51 164.585C253.418 164.942 253.337 165.241 253.268 165.482C252.969 166.702 252.819 167.335 252.819 167.381Z" fill="black"/>
<path d="M271.394 147.753C271.394 147.655 270.931 147.59 270.003 147.558C269.612 147.558 269.36 147.55 269.246 147.533C269.132 147.517 269.075 147.436 269.075 147.289C269.075 147.273 269.091 147.183 269.124 147.021C269.14 146.972 269.156 146.915 269.173 146.85C269.189 146.785 269.197 146.744 269.197 146.728C269.197 146.711 269.213 146.671 269.246 146.606C269.278 146.54 269.295 146.516 269.295 146.532C269.295 146.549 269.327 146.532 269.392 146.483C269.457 146.435 269.498 146.418 269.514 146.435C269.531 146.451 269.596 146.451 269.71 146.435C269.824 146.418 269.921 146.41 270.003 146.41C270.1 146.41 270.345 146.41 270.735 146.41C271.126 146.41 271.492 146.418 271.834 146.435C273.12 146.435 273.861 146.435 274.056 146.435C274.251 146.435 274.381 146.475 274.447 146.557C274.463 146.622 274.764 148.917 275.35 153.442L276.229 160.254L276.791 159.351C277.181 158.765 277.702 157.951 278.353 156.909C279.004 155.868 279.721 154.728 280.502 153.491C283.351 148.95 284.791 146.662 284.824 146.63C284.84 146.614 284.864 146.589 284.897 146.557C284.929 146.524 284.962 146.5 284.995 146.483L285.141 146.435H287.485C287.762 146.435 288.087 146.435 288.462 146.435C288.836 146.435 289.072 146.426 289.17 146.41C289.723 146.41 290 146.5 290 146.679C290 146.76 289.976 146.899 289.927 147.094C289.878 147.289 289.854 147.395 289.854 147.411C289.788 147.509 289.487 147.558 288.95 147.558C288.299 147.574 287.884 147.598 287.705 147.631C287.526 147.664 287.379 147.753 287.265 147.9C287.217 147.981 286.63 150.284 285.507 154.81C284.384 159.335 283.814 161.622 283.798 161.671C283.798 161.736 283.806 161.776 283.823 161.793C283.839 161.809 283.896 161.842 283.993 161.89C284.091 161.939 284.23 161.955 284.409 161.939C284.588 161.923 284.856 161.939 285.214 161.988H285.971C286.069 162.135 286.118 162.224 286.118 162.257C286.118 162.517 286.061 162.761 285.947 162.989C285.865 163.071 285.735 163.111 285.556 163.111C285.475 163.111 285.141 163.103 284.555 163.087C283.969 163.071 283.22 163.062 282.309 163.062C281.316 163.062 280.567 163.062 280.062 163.062C279.558 163.062 279.273 163.071 279.208 163.087C278.931 163.087 278.793 163.005 278.793 162.843C278.793 162.81 278.809 162.696 278.842 162.501C278.907 162.24 278.972 162.094 279.037 162.061C279.102 162.029 279.289 162.004 279.598 161.988C280.038 161.988 280.526 161.964 281.063 161.915C281.291 161.866 281.446 161.768 281.527 161.622C281.56 161.557 281.869 160.368 282.455 158.057C283.041 155.745 283.619 153.442 284.189 151.147C284.759 148.852 285.043 147.704 285.043 147.704L280.307 155.249C277.116 160.328 275.48 162.908 275.399 162.989C275.366 163.005 275.334 163.022 275.301 163.038C275.22 163.087 275.09 163.111 274.91 163.111C274.666 163.111 274.52 163.054 274.471 162.94C274.438 162.875 274.105 160.352 273.47 155.371L272.518 147.875L270.857 154.468C269.767 158.798 269.221 161.036 269.221 161.182C269.319 161.719 269.905 161.988 270.979 161.988H271.224C271.321 162.069 271.378 162.143 271.394 162.208C271.411 162.273 271.386 162.419 271.321 162.647C271.256 162.908 271.191 163.054 271.126 163.087C271.061 163.103 270.971 163.111 270.857 163.111C270.825 163.111 270.727 163.111 270.564 163.111C270.402 163.111 270.125 163.103 269.734 163.087C269.343 163.071 268.823 163.062 268.171 163.062C267.683 163.062 267.179 163.071 266.658 163.087C266.137 163.103 265.836 163.111 265.754 163.111C265.51 163.111 265.355 163.095 265.29 163.062C265.225 163.03 265.193 162.957 265.193 162.843C265.193 162.81 265.217 162.696 265.266 162.501C265.315 162.305 265.355 162.183 265.388 162.135C265.421 162.037 265.6 161.988 265.925 161.988C267.065 161.988 267.789 161.662 268.098 161.011C268.163 160.914 268.725 158.732 269.783 154.468C270.841 150.203 271.378 147.965 271.394 147.753Z" fill="black"/>
<path d="M341.993 201.538C342.207 201.538 342.589 201.545 343.139 201.561C343.689 201.576 344.201 201.591 344.675 201.606C345.454 201.606 346.104 201.599 346.623 201.583C347.143 201.568 347.441 201.561 347.517 201.561C347.792 201.561 347.93 201.622 347.93 201.744C347.93 201.805 347.907 201.92 347.861 202.088C347.785 202.363 347.716 202.516 347.655 202.546C347.594 202.577 347.425 202.592 347.15 202.592C346.768 202.607 346.463 202.645 346.234 202.707C346.004 202.768 345.844 202.829 345.752 202.89C345.661 202.951 345.638 203.02 345.684 203.096C345.684 203.28 345.806 205.098 346.05 208.551C346.295 212.005 346.417 213.831 346.417 214.029L346.463 213.961C346.493 213.915 346.539 213.838 346.6 213.731C346.661 213.624 346.753 213.479 346.875 213.296C346.998 213.112 347.128 212.883 347.265 212.608C347.403 212.333 347.586 212.02 347.815 211.668C348.044 211.317 348.274 210.904 348.503 210.431C348.732 209.957 349.03 209.445 349.397 208.895C350.986 206.084 351.887 204.479 352.101 204.082C352.315 203.685 352.43 203.44 352.445 203.348C352.445 203.119 352.3 202.936 352.01 202.798C351.719 202.661 351.398 202.592 351.047 202.592C350.833 202.592 350.726 202.516 350.726 202.363C350.726 202.317 350.741 202.218 350.772 202.065C350.833 201.82 350.879 201.675 350.909 201.629C350.94 201.583 351.047 201.561 351.23 201.561C351.276 201.561 351.406 201.561 351.62 201.561C351.834 201.561 352.132 201.561 352.514 201.561C352.896 201.561 353.308 201.568 353.752 201.583C354.76 201.583 355.409 201.568 355.7 201.538C355.914 201.538 356.021 201.622 356.021 201.79C356.021 201.881 355.998 202.011 355.952 202.179C355.906 202.347 355.853 202.462 355.791 202.523C355.73 202.584 355.654 202.607 355.562 202.592C355.226 202.592 354.92 202.638 354.645 202.729C354.37 202.821 354.141 202.928 353.958 203.05C353.774 203.173 353.629 203.303 353.522 203.44C353.415 203.578 353.324 203.7 353.247 203.807L353.156 203.944L349.282 210.729C346.715 215.252 345.424 217.521 345.408 217.536C345.317 217.643 345.133 217.697 344.858 217.697C344.629 217.697 344.484 217.658 344.423 217.582C344.377 217.536 344.232 215.657 343.987 211.944C343.743 208.23 343.613 206.313 343.598 206.19L343.323 206.603C342.987 207.168 342.009 208.872 340.389 211.714C338.189 215.565 337.073 217.506 337.043 217.536C337.012 217.567 336.974 217.597 336.928 217.628C336.852 217.674 336.714 217.697 336.515 217.697C336.225 217.697 336.065 217.643 336.034 217.536C336.034 217.49 335.866 215.053 335.53 210.224C335.194 205.396 335.018 202.966 335.003 202.936C334.972 202.798 334.896 202.714 334.773 202.684C334.651 202.653 334.353 202.623 333.879 202.592H333.329C333.222 202.485 333.169 202.401 333.169 202.34C333.184 201.988 333.284 201.721 333.467 201.538H333.742C334.384 201.583 335.148 201.606 336.034 201.606C337.944 201.606 338.991 201.583 339.174 201.538H339.403C339.495 201.629 339.541 201.698 339.541 201.744C339.541 201.79 339.526 201.927 339.495 202.156C339.419 202.386 339.35 202.531 339.289 202.592H338.807C337.875 202.638 337.379 202.768 337.318 202.982C337.776 210.011 338.036 213.708 338.097 214.075L343.483 204.586L343.437 203.738C343.391 203.096 343.315 202.752 343.208 202.707C343.116 202.645 342.796 202.607 342.245 202.592C341.955 202.592 341.764 202.577 341.672 202.546C341.581 202.516 341.535 202.447 341.535 202.34C341.535 202.309 341.55 202.218 341.581 202.065C341.596 202.004 341.611 201.935 341.627 201.859C341.642 201.782 341.65 201.729 341.65 201.698C341.65 201.668 341.672 201.637 341.718 201.606C341.764 201.576 341.795 201.561 341.81 201.561C341.825 201.561 341.886 201.553 341.993 201.538Z" fill="black"/>
<path d="M357.121 217.169C356.861 217.169 356.731 217.093 356.731 216.94C356.731 216.91 356.754 216.803 356.8 216.619C356.861 216.375 356.922 216.237 356.983 216.207C357.044 216.176 357.22 216.153 357.51 216.138C357.923 216.138 358.381 216.115 358.886 216.069C359.1 216.023 359.245 215.932 359.321 215.794C359.352 215.718 359.894 213.571 360.949 209.354C362.003 205.136 362.538 202.997 362.553 202.936C362.553 202.829 362.522 202.775 362.461 202.775C362.339 202.729 361.934 202.691 361.247 202.661H360.536C360.444 202.569 360.398 202.508 360.398 202.477C360.398 202.447 360.414 202.317 360.444 202.088C360.505 201.828 360.582 201.668 360.674 201.606H373.028C373.135 201.668 373.188 201.752 373.188 201.859C373.188 201.935 373.089 202.791 372.89 204.426C372.691 206.061 372.585 206.901 372.569 206.947C372.539 207.054 372.386 207.107 372.111 207.107H371.836C371.729 207.031 371.675 206.932 371.675 206.809C371.675 206.794 371.698 206.611 371.744 206.259C371.79 205.908 371.813 205.503 371.813 205.044C371.813 204.586 371.759 204.212 371.652 203.921C371.545 203.631 371.4 203.394 371.217 203.211C371.034 203.027 370.751 202.905 370.369 202.844C369.987 202.783 369.597 202.729 369.2 202.684C368.803 202.638 368.253 202.63 367.55 202.661H367.022C365.77 202.676 365.105 202.699 365.028 202.729C364.952 202.76 364.899 202.821 364.868 202.913C364.853 202.928 364.593 203.929 364.089 205.915L363.355 208.872H364.616C364.662 208.872 364.837 208.872 365.143 208.872C365.449 208.872 365.663 208.865 365.785 208.849C365.907 208.834 366.075 208.811 366.289 208.781C366.503 208.75 366.686 208.696 366.839 208.62C366.992 208.544 367.122 208.452 367.229 208.345C367.427 208.162 367.596 207.91 367.733 207.589C367.871 207.268 367.97 206.977 368.031 206.718C368.092 206.458 368.13 206.32 368.146 206.305C368.191 206.229 368.337 206.19 368.581 206.19H368.856C368.963 206.267 369.017 206.343 369.017 206.42C369.017 206.466 368.78 207.466 368.306 209.422C367.832 211.378 367.573 212.387 367.527 212.448C367.496 212.555 367.343 212.608 367.068 212.608H366.793C366.686 212.517 366.633 212.425 366.633 212.333C366.633 212.287 366.671 212.119 366.747 211.829C366.824 211.539 366.862 211.233 366.862 210.912C366.862 210.469 366.709 210.194 366.404 210.087C366.098 209.98 365.418 209.927 364.364 209.927H363.103L362.37 212.837C361.881 214.732 361.636 215.725 361.636 215.817C361.636 216.031 362.316 216.138 363.676 216.138H364.249C364.341 216.23 364.387 216.283 364.387 216.298C364.387 216.314 364.371 216.466 364.341 216.757C364.28 216.955 364.203 217.101 364.112 217.192H363.722C363.095 217.162 361.942 217.146 360.261 217.146C359.268 217.146 358.511 217.146 357.992 217.146C357.472 217.146 357.182 217.154 357.121 217.169Z" fill="black"/>
<path d="M371.131 215.98C371.142 215.947 371.153 215.904 371.164 215.85C371.174 215.796 371.201 215.677 371.245 215.493C371.288 215.31 371.342 215.142 371.407 214.991C371.472 214.84 371.553 214.662 371.65 214.456C371.747 214.251 371.855 214.089 371.974 213.97C372.093 213.851 372.233 213.733 372.395 213.614C372.557 213.495 372.736 213.446 372.93 213.468C373.74 213.468 374.259 213.814 374.486 214.505L374.648 214.359C375.317 213.765 375.955 213.468 376.56 213.468C377.262 213.468 377.813 213.722 378.213 214.229C378.612 214.737 378.812 215.353 378.812 216.077C378.812 217.244 378.402 218.319 377.581 219.302C376.76 220.285 375.831 220.782 374.794 220.792C374.556 220.792 374.345 220.76 374.162 220.695C374.043 220.641 373.918 220.56 373.789 220.452C373.659 220.344 373.557 220.252 373.481 220.177L373.368 220.047C373.357 220.058 373.238 220.528 373.011 221.457C372.784 222.386 372.671 222.856 372.671 222.867C372.671 222.931 372.714 222.969 372.8 222.98C372.887 222.991 373.087 223.007 373.4 223.029H373.805C373.87 223.104 373.902 223.153 373.902 223.175C373.902 223.196 373.886 223.293 373.854 223.466C373.821 223.596 373.789 223.677 373.756 223.709C373.724 223.742 373.654 223.763 373.546 223.774C373.524 223.774 373.465 223.774 373.368 223.774C373.27 223.774 373.087 223.769 372.817 223.758C372.546 223.747 372.212 223.742 371.812 223.742C371.056 223.742 370.575 223.753 370.37 223.774H370.24C370.164 223.698 370.127 223.639 370.127 223.596C370.148 223.304 370.218 223.115 370.337 223.029H370.661C371.029 223.018 371.239 222.953 371.293 222.834C371.326 222.769 371.655 221.478 372.282 218.961C372.908 216.444 373.238 215.11 373.27 214.959C373.281 214.905 373.286 214.829 373.286 214.732C373.286 214.289 373.151 214.067 372.881 214.067C372.644 214.067 372.444 214.219 372.282 214.521C372.12 214.824 371.996 215.153 371.909 215.51C371.823 215.866 371.758 216.061 371.715 216.093C371.693 216.115 371.607 216.125 371.455 216.125H371.228C371.164 216.061 371.131 216.012 371.131 215.98ZM373.643 218.977C373.881 219.799 374.28 220.209 374.842 220.209C375.166 220.209 375.48 220.085 375.782 219.836C376.085 219.588 376.333 219.275 376.527 218.896C376.722 218.529 376.916 217.946 377.111 217.146C377.305 216.347 377.408 215.753 377.419 215.364V215.267C377.419 214.467 377.089 214.067 376.43 214.067C376.311 214.067 376.193 214.084 376.074 214.116C375.955 214.148 375.836 214.197 375.717 214.262C375.598 214.327 375.49 214.397 375.393 214.473C375.296 214.548 375.204 214.629 375.118 214.716C375.031 214.802 374.95 214.883 374.875 214.959C374.799 215.034 374.74 215.11 374.696 215.186C374.653 215.261 374.61 215.315 374.567 215.348L374.518 215.412C374.518 215.423 374.502 215.499 374.469 215.639C374.437 215.78 374.378 216.017 374.291 216.352C374.205 216.687 374.129 216.968 374.064 217.195C373.783 218.34 373.643 218.934 373.643 218.977Z" fill="black"/>
<path d="M382.212 211.462C382.212 210.408 382.288 209.407 382.441 208.46C382.594 207.512 382.77 206.695 382.968 206.007C383.167 205.32 383.45 204.647 383.816 203.99C384.183 203.333 384.473 202.821 384.687 202.454C384.901 202.088 385.222 201.69 385.65 201.263C386.078 200.835 386.33 200.575 386.406 200.483C386.483 200.392 386.674 200.231 386.979 200.002H387.277H387.369C387.583 200.002 387.69 200.071 387.69 200.208C387.69 200.254 387.56 200.415 387.3 200.69C387.04 200.965 386.727 201.37 386.36 201.904C385.994 202.439 385.619 203.096 385.237 203.876C384.855 204.655 384.534 205.709 384.275 207.039C384.015 208.368 383.885 209.842 383.885 211.462C383.885 213.082 384.015 214.549 384.275 215.863C384.534 217.177 384.848 218.239 385.214 219.049C385.581 219.859 385.956 220.516 386.338 221.02C386.72 221.524 387.04 221.929 387.3 222.235C387.56 222.54 387.69 222.701 387.69 222.716C387.69 222.854 387.575 222.922 387.346 222.922H387.277H386.979L386.338 222.372C384.901 221.074 383.855 219.454 383.197 217.513C382.54 215.573 382.212 213.556 382.212 211.462Z" fill="black"/>
<path d="M389.455 210.614C389.455 210.492 389.524 210.255 389.661 209.904C389.799 209.552 389.99 209.155 390.234 208.712C390.479 208.269 390.815 207.887 391.243 207.566C391.67 207.245 392.121 207.077 392.595 207.061C393.298 207.061 393.825 207.252 394.176 207.634C394.528 208.016 394.704 208.467 394.704 208.987C394.704 209.262 394.444 210.118 393.924 211.554C393.405 212.99 393.145 214.067 393.145 214.786C393.145 215.443 393.252 215.901 393.466 216.161C393.68 216.421 394.001 216.558 394.429 216.573C394.856 216.589 395.261 216.459 395.643 216.184C396.025 215.909 396.308 215.649 396.491 215.405L396.743 215.015C396.774 214.954 397.064 213.792 397.614 211.531C398.073 209.697 398.348 208.628 398.44 208.322C398.531 208.016 398.638 207.795 398.76 207.657C399.02 207.428 399.295 207.314 399.586 207.314C399.845 207.314 400.036 207.39 400.159 207.543C400.281 207.696 400.342 207.841 400.342 207.978L398.6 215.267C398.585 215.343 398.577 215.466 398.577 215.634C398.577 216.016 398.631 216.268 398.738 216.39C398.845 216.512 399.005 216.581 399.219 216.596C399.555 216.551 399.822 216.314 400.021 215.886C400.22 215.458 400.449 214.786 400.709 213.869C400.739 213.747 400.892 213.685 401.167 213.685C401.457 213.685 401.603 213.754 401.603 213.892C401.587 213.968 401.572 214.075 401.557 214.213C401.541 214.35 401.473 214.595 401.35 214.946C401.228 215.298 401.098 215.626 400.961 215.932C400.823 216.237 400.632 216.528 400.388 216.803C400.143 217.078 399.868 217.269 399.563 217.376C399.44 217.406 399.257 217.422 399.013 217.422C398.004 217.422 397.309 216.994 396.927 216.138C396.896 216.153 396.812 216.23 396.675 216.367C396.537 216.505 396.4 216.619 396.262 216.711C396.125 216.803 395.957 216.917 395.758 217.055C395.559 217.192 395.338 217.284 395.093 217.33C394.849 217.376 394.589 217.414 394.314 217.444C393.642 217.444 393.046 217.307 392.526 217.032C391.732 216.558 391.334 215.748 391.334 214.602C391.334 213.731 391.602 212.593 392.136 211.187C392.671 209.781 392.939 208.887 392.939 208.505C392.939 208.49 392.939 208.475 392.939 208.46C392.939 208.322 392.939 208.23 392.939 208.185C392.939 208.139 392.908 208.085 392.847 208.024C392.786 207.963 392.702 207.932 392.595 207.932H392.503C392.152 207.932 391.831 208.078 391.541 208.368C391.25 208.658 391.021 208.971 390.853 209.308C390.685 209.644 390.555 209.965 390.463 210.27C390.372 210.576 390.31 210.744 390.28 210.775C390.249 210.805 390.127 210.82 389.913 210.82H389.592C389.501 210.729 389.455 210.66 389.455 210.614Z" fill="black"/>
<path d="M403.459 200.025L403.551 200.002C403.627 200.002 403.704 200.002 403.78 200.002H404.055L404.697 200.552C406.133 201.851 407.18 203.471 407.837 205.411C408.494 207.352 408.823 209.369 408.823 211.462C408.823 212.501 408.746 213.502 408.593 214.465C408.441 215.427 408.265 216.245 408.066 216.917C407.868 217.59 407.585 218.262 407.218 218.934C406.851 219.607 406.561 220.118 406.347 220.47C406.133 220.821 405.82 221.211 405.407 221.639C404.995 222.067 404.75 222.319 404.674 222.395C404.598 222.472 404.422 222.617 404.147 222.831C404.101 222.877 404.07 222.907 404.055 222.922H403.78C403.658 222.922 403.574 222.922 403.528 222.922C403.482 222.922 403.444 222.9 403.413 222.854C403.383 222.808 403.36 222.739 403.345 222.647C403.36 222.632 403.444 222.533 403.597 222.349C405.965 219.889 407.149 216.26 407.149 211.462C407.149 206.664 405.965 203.035 403.597 200.575C403.444 200.392 403.36 200.292 403.345 200.277C403.345 200.155 403.383 200.071 403.459 200.025Z" fill="black"/>
</g>
<defs>
<clipPath id="clip0_2_298">
<rect width="986" height="348" fill="white"/>
</clipPath>
</defs>
</svg>
