<svg width="885" height="379" viewBox="0 0 885 379" fill="none" xmlns="http://www.w3.org/2000/svg">
<rect width="885" height="379" fill="white"/>
<path d="M207 273C68 298.339 120 74 453 104C838 138.685 699.546 438.442 602 350C527 282 399 238 207 273Z" fill="white" stroke="black"/>
<path d="M265.5 117.889C313.628 103.768 375.754 97.0409 453 104C525.759 110.555 579.822 126.577 619 147.656C654.5 166.757 730.318 324.439 544.5 262.5C454.5 232.5 399.235 183.456 312.5 186C142 191 265.5 117.889 265.5 117.889Z" fill="#CCCCCC" fill-opacity="0.5" stroke="black"/>
<path d="M276.5 114.856C322.977 102.841 381.514 97.5598 453 104C516.606 109.73 565.924 122.695 603.5 139.95C603.5 139.95 652.531 204.527 611.5 232C554 270.5 418.5 149 312.5 161.5C209.286 173.671 276.5 114.856 276.5 114.856Z" fill="#CCCCCC" fill-opacity="0.5"/>
<path d="M265.5 117.889C269.089 116.837 272.755 115.825 276.5 114.856M619 147.656C614.071 145.004 608.907 142.433 603.5 139.95M276.5 114.856C322.977 102.841 381.514 97.5598 453 104C516.606 109.73 565.924 122.695 603.5 139.95M276.5 114.856C276.5 114.856 209.286 173.671 312.5 161.5C418.5 149 554 270.5 611.5 232C652.531 204.527 603.5 139.95 603.5 139.95" stroke="black"/>
<path d="M276.5 27.8565C322.977 15.8407 381.514 10.5598 453 17C516.606 22.7302 565.924 35.6954 603.5 52.9497C619 66.5 603.5 117.889 619 147.656C579.822 126.577 525.759 110.555 453 104C375.754 97.0409 313.628 103.768 265.5 117.889C276.5 99 265.5 30.7003 276.5 27.8565Z" stroke="black" stroke-width="0.6" stroke-dasharray="2 2"/>
<path d="M611.5 145C554 183.5 418.5 62 312.5 74.5C265.198 80.0781 253.691 70.7467 255.105 59C247 74.5 247.431 124.5 229.189 147.656C213.76 167.241 217.321 188.791 312.5 186C399.235 183.456 454.5 232.5 544.5 262.5C680.5 307.833 676.348 235.521 650.428 186C630.359 147.656 632.5 117.889 626.859 103C629.699 118.636 627.154 134.519 611.5 145Z" fill="#74D1EF" fill-opacity="0.15"/>
<path d="M276.5 27.8565C276.5 27.8565 256.776 45.1154 255.105 59M603.5 52.9497C603.5 52.9497 622.255 77.6518 626.859 103M265.5 117.889C265.5 117.889 241.398 132.158 229.189 147.656M619 147.656C628.518 152.777 640.934 167.86 650.428 186M255.105 59C253.691 70.7467 265.198 80.0781 312.5 74.5C418.5 62 554 183.5 611.5 145C627.154 134.519 629.699 118.636 626.859 103M255.105 59C247 74.5 247.431 124.5 229.189 147.656M229.189 147.656C213.76 167.241 217.321 188.791 312.5 186C399.235 183.456 454.5 232.5 544.5 262.5C680.5 307.833 676.348 235.521 650.428 186M626.859 103C632.5 117.889 630.359 147.656 650.428 186" stroke="black"/>
<path d="M276.5 27.8565C322.977 15.8407 381.514 10.5598 453 17C516.606 22.7302 565.924 35.6954 603.5 52.9497C603.5 52.9497 652.531 117.527 611.5 145C554 183.5 418.5 62 312.5 74.5C209.286 86.6714 276.5 27.8565 276.5 27.8565Z" fill="#74D1EF" fill-opacity="0.15" stroke="black"/>
<path d="M255.5 152V65.5" stroke="black" stroke-width="0.5" stroke-dasharray="2 2"/>
<line x1="597.75" y1="239" x2="597.75" y2="151" stroke="black" stroke-width="0.5" stroke-dasharray="2 2"/>
<line x1="359.75" y1="163" x2="359.75" y2="77" stroke="black" stroke-width="0.5" stroke-dasharray="2 2"/>
<path d="M662.326 300.181C662.326 300.094 661.91 300.036 661.079 300.006C660.728 300.006 660.502 299.999 660.4 299.985C660.298 299.97 660.247 299.897 660.247 299.766C660.247 299.751 660.262 299.671 660.291 299.525C660.306 299.481 660.32 299.43 660.335 299.372C660.349 299.314 660.357 299.277 660.357 299.263C660.357 299.248 660.371 299.212 660.4 299.153C660.429 299.095 660.444 299.073 660.444 299.088C660.444 299.102 660.473 299.088 660.532 299.044C660.59 299 660.626 298.985 660.641 299C660.656 299.015 660.714 299.015 660.816 299C660.918 298.985 661.006 298.978 661.079 298.978C661.166 298.978 661.385 298.978 661.735 298.978C662.085 298.978 662.413 298.985 662.719 299C663.872 299 664.535 299 664.71 299C664.885 299 665.002 299.036 665.061 299.109C665.075 299.168 665.345 301.224 665.87 305.279L666.658 311.383L667.161 310.574C667.511 310.049 667.978 309.32 668.561 308.386C669.145 307.453 669.786 306.432 670.486 305.323C673.039 301.254 674.33 299.204 674.359 299.175C674.374 299.16 674.395 299.139 674.425 299.109C674.454 299.08 674.483 299.058 674.512 299.044L674.643 299H676.744C676.992 299 677.283 299 677.619 299C677.954 299 678.166 298.993 678.253 298.978C678.749 298.978 678.997 299.058 678.997 299.219C678.997 299.292 678.975 299.416 678.932 299.591C678.888 299.766 678.866 299.861 678.866 299.875C678.808 299.963 678.538 300.006 678.057 300.006C677.473 300.021 677.101 300.043 676.941 300.072C676.78 300.101 676.649 300.181 676.547 300.313C676.503 300.386 675.978 302.45 674.972 306.504C673.965 310.559 673.455 312.609 673.44 312.652C673.44 312.711 673.447 312.747 673.462 312.762C673.477 312.776 673.528 312.806 673.615 312.849C673.703 312.893 673.827 312.908 673.987 312.893C674.148 312.878 674.388 312.893 674.709 312.937H675.387C675.475 313.068 675.519 313.148 675.519 313.177C675.519 313.411 675.468 313.63 675.365 313.834C675.292 313.907 675.176 313.943 675.015 313.943C674.942 313.943 674.643 313.936 674.118 313.921C673.593 313.907 672.922 313.899 672.105 313.899C671.216 313.899 670.545 313.899 670.093 313.899C669.64 313.899 669.385 313.907 669.327 313.921C669.079 313.921 668.955 313.848 668.955 313.703C668.955 313.673 668.97 313.571 668.999 313.396C669.057 313.163 669.115 313.032 669.174 313.002C669.232 312.973 669.4 312.951 669.677 312.937C670.071 312.937 670.508 312.915 670.99 312.871C671.194 312.827 671.332 312.74 671.405 312.609C671.435 312.55 671.712 311.486 672.237 309.414C672.762 307.343 673.28 305.279 673.79 303.223C674.301 301.166 674.556 300.138 674.556 300.138L670.311 306.898C667.453 311.449 665.987 313.761 665.914 313.834C665.885 313.848 665.855 313.863 665.826 313.878C665.753 313.921 665.637 313.943 665.476 313.943C665.257 313.943 665.126 313.892 665.082 313.79C665.053 313.732 664.754 311.471 664.185 307.008L663.332 300.291L661.844 306.198C660.867 310.078 660.378 312.084 660.378 312.215C660.466 312.696 660.991 312.937 661.954 312.937H662.172C662.26 313.01 662.311 313.075 662.326 313.134C662.34 313.192 662.318 313.323 662.26 313.528C662.202 313.761 662.143 313.892 662.085 313.921C662.027 313.936 661.946 313.943 661.844 313.943C661.815 313.943 661.728 313.943 661.582 313.943C661.436 313.943 661.188 313.936 660.838 313.921C660.488 313.907 660.021 313.899 659.438 313.899C659 313.899 658.548 313.907 658.081 313.921C657.614 313.936 657.345 313.943 657.272 313.943C657.053 313.943 656.914 313.929 656.856 313.899C656.798 313.87 656.768 313.805 656.768 313.703C656.768 313.673 656.79 313.571 656.834 313.396C656.878 313.221 656.914 313.112 656.943 313.068C656.973 312.981 657.133 312.937 657.425 312.937C658.446 312.937 659.095 312.645 659.372 312.062C659.43 311.974 659.934 310.02 660.882 306.198C661.83 302.377 662.311 300.371 662.326 300.181Z" fill="black"/>
<path d="M624.174 242.03C623.771 242.03 623.532 242.023 623.457 242.008C623.383 241.993 623.345 241.911 623.345 241.761C623.345 241.358 623.428 241.112 623.592 241.022C623.607 241.007 624.577 241 626.503 241C630.371 241 632.409 241.015 632.618 241.045C633.558 241.194 634.342 241.53 634.969 242.053C635.596 242.575 635.917 243.262 635.932 244.113C635.932 245.069 635.499 245.927 634.633 246.689C633.767 247.45 632.774 247.965 631.655 248.234L631.431 248.301C632.386 248.436 633.17 248.779 633.782 249.332C634.394 249.884 634.708 250.571 634.723 251.392C634.723 252.482 634.185 253.535 633.11 254.55C632.035 255.565 630.714 256.14 629.146 256.275C629.042 256.29 627.466 256.297 624.42 256.297C621.434 256.297 619.919 256.282 619.874 256.252C619.814 256.207 619.784 256.148 619.784 256.073C619.784 255.969 619.799 255.864 619.829 255.76C619.904 255.476 619.978 255.319 620.053 255.289C620.113 255.274 620.225 255.267 620.389 255.267H620.523C620.927 255.267 621.374 255.244 621.867 255.2C622.076 255.155 622.218 255.065 622.293 254.931C622.338 254.871 622.875 252.796 623.905 248.705C624.936 244.613 625.451 242.456 625.451 242.232C625.451 242.127 625.025 242.06 624.174 242.03ZM633.536 244.113C633.536 243.665 633.424 243.247 633.2 242.859C632.976 242.471 632.61 242.217 632.103 242.097C631.998 242.068 631.311 242.045 630.042 242.03C629.743 242.03 629.43 242.03 629.101 242.03C628.773 242.03 628.512 242.038 628.317 242.053H628.026C627.802 242.068 627.661 242.142 627.601 242.277C627.571 242.336 627.332 243.232 626.884 244.964C626.884 245.009 626.877 245.054 626.862 245.099L626.167 247.921H627.982C629.191 247.921 629.885 247.906 630.064 247.876C630.96 247.727 631.759 247.294 632.461 246.577C633.163 245.86 633.521 245.039 633.536 244.113ZM632.327 251.168C632.327 250.511 632.155 249.966 631.811 249.533C631.468 249.1 631.02 248.846 630.468 248.772C630.378 248.757 629.758 248.749 628.609 248.749C626.847 248.749 625.958 248.757 625.943 248.772C625.943 248.802 625.817 249.347 625.563 250.407C625.309 251.467 625.048 252.519 624.779 253.565L624.376 255.132C624.376 255.192 624.465 255.222 624.644 255.222C624.824 255.222 625.428 255.237 626.459 255.267C627.787 255.267 628.504 255.259 628.609 255.244C629.534 255.14 630.385 254.707 631.162 253.945C631.938 253.184 632.327 252.258 632.327 251.168Z" fill="black"/>
<path d="M572.715 216.551C572.715 216.914 573.062 217.126 573.757 217.186C574.029 217.186 574.165 217.269 574.165 217.435C574.165 217.45 574.15 217.549 574.12 217.73C574.075 217.942 574.029 218.078 573.984 218.138C573.939 218.198 573.841 218.229 573.689 218.229C573.659 218.229 573.569 218.229 573.417 218.229C573.266 218.229 573.009 218.221 572.647 218.206C572.284 218.191 571.801 218.183 571.196 218.183C570.123 218.183 569.436 218.198 569.134 218.229H568.952C568.847 218.123 568.794 218.04 568.794 217.979C568.824 217.571 568.922 217.307 569.088 217.186H569.406C570.463 217.141 571.234 216.763 571.718 216.053C571.808 215.962 573.176 213.658 575.82 209.14C578.464 204.622 579.809 202.332 579.854 202.272C579.96 202.091 580.142 202 580.398 202H580.58H580.965C581.056 202.136 581.101 202.212 581.101 202.227L581.736 209.548C582.159 214.428 582.386 216.891 582.416 216.937C582.491 217.103 582.982 217.186 583.889 217.186C584.267 217.186 584.456 217.262 584.456 217.413C584.456 217.443 584.433 217.549 584.388 217.73C584.342 217.957 584.305 218.093 584.274 218.138C584.244 218.183 584.138 218.214 583.957 218.229C583.912 218.229 583.806 218.229 583.64 218.229C583.473 218.229 583.179 218.221 582.756 218.206C582.333 218.191 581.781 218.183 581.101 218.183C579.681 218.183 578.751 218.198 578.313 218.229H578.041C577.951 218.138 577.905 218.07 577.905 218.025C577.905 217.979 577.92 217.843 577.951 217.617C578.011 217.42 578.056 217.299 578.087 217.254L578.177 217.186H578.631C579.447 217.141 579.93 217.012 580.081 216.801L579.809 213.401H574.415L573.644 214.715C573.025 215.758 572.715 216.37 572.715 216.551ZM579.696 212.336C579.696 212.169 579.605 210.991 579.424 208.8C579.243 206.609 579.137 205.506 579.107 205.491L578.495 206.465C578.253 206.873 577.777 207.682 577.067 208.89L575.027 212.336L577.361 212.358C578.918 212.358 579.696 212.351 579.696 212.336Z" fill="black"/>
<path d="M208 78.3957C208.019 78.3391 208.038 78.2637 208.057 78.1693C208.075 78.075 208.123 77.8674 208.198 77.5466C208.274 77.2259 208.368 76.9334 208.481 76.6692C208.594 76.4051 208.736 76.0937 208.906 75.7352C209.076 75.3767 209.264 75.0937 209.472 74.8861C209.679 74.6786 209.925 74.471 210.208 74.2634C210.491 74.0559 210.802 73.971 211.142 74.0087C211.595 74.0087 212 74.0748 212.359 74.2068C212.717 74.3389 213 74.5087 213.208 74.7163C213.415 74.9239 213.566 75.1314 213.661 75.339C213.755 75.5465 213.83 75.7258 213.887 75.8767L213.944 76.0749C213.944 76.1126 213.953 76.1315 213.972 76.1315L214.283 75.8201C215.434 74.6125 216.746 74.0087 218.218 74.0087C219.236 74.0087 220.057 74.2634 220.68 74.7729C221.303 75.2824 221.623 76.0277 221.642 77.0089V77.2919C221.642 77.7448 221.038 80.3204 219.831 85.0187C218.736 89.4529 218.151 91.7361 218.076 91.8681C217.831 92.3776 217.406 92.6323 216.802 92.6323C216.557 92.6323 216.349 92.5568 216.18 92.4059C216.01 92.2549 215.906 92.0474 215.868 91.7832C215.868 91.6134 216.425 89.3208 217.538 84.9055L219.293 77.8297C219.35 77.5466 219.378 77.1881 219.378 76.7541C219.378 75.6409 218.963 75.0842 218.133 75.0842H217.991C216.368 75.0842 215 76.0371 213.887 77.9429L213.689 78.2825L212.755 82.0752C212.132 84.547 211.774 85.8773 211.679 86.0659C211.434 86.5754 211.028 86.8301 210.462 86.8301C210.217 86.8301 210.019 86.7735 209.868 86.6603C209.717 86.5471 209.613 86.4339 209.557 86.3207C209.5 86.2075 209.481 86.1131 209.5 86.0376C209.5 85.7923 209.877 84.1696 210.632 81.1695C211.387 78.1693 211.764 76.4994 211.764 76.1598C211.764 75.4239 211.519 75.0559 211.028 75.0559C210.632 75.0559 210.293 75.3201 210.01 75.8484C209.727 76.3768 209.5 76.9523 209.33 77.5749C209.16 78.1976 209.057 78.5373 209.019 78.5939C208.981 78.6316 208.83 78.6505 208.566 78.6505H208.17C208.057 78.5373 208 78.4523 208 78.3957Z" fill="black"/>
<path d="M225.635 89.3599C225.635 89.6801 225.941 89.8669 226.555 89.9202C226.795 89.9202 226.915 89.9936 226.915 90.1403C226.915 90.1537 226.902 90.2404 226.875 90.4005C226.835 90.5872 226.795 90.7073 226.755 90.7607C226.715 90.814 226.628 90.8407 226.495 90.8407C226.468 90.8407 226.388 90.8407 226.255 90.8407C226.121 90.8407 225.895 90.834 225.575 90.8207C225.254 90.8074 224.827 90.8007 224.294 90.8007C223.347 90.8007 222.74 90.814 222.473 90.8407H222.313C222.219 90.7473 222.173 90.674 222.173 90.6206C222.199 90.2604 222.286 90.027 222.433 89.9202H222.713C223.647 89.8802 224.327 89.5467 224.754 88.9197C224.834 88.8397 226.041 86.8053 228.376 82.8165C230.711 78.8278 231.898 76.8067 231.938 76.7533C232.031 76.5933 232.191 76.5132 232.418 76.5132H232.578H232.918C232.998 76.6333 233.038 76.7 233.038 76.7133L233.599 83.1767C233.972 87.4856 234.172 89.6601 234.199 89.7001C234.266 89.8469 234.699 89.9202 235.5 89.9202C235.833 89.9202 236 89.9869 236 90.1203C236 90.147 235.98 90.2404 235.94 90.4005C235.9 90.6006 235.867 90.7207 235.84 90.7607C235.813 90.8007 235.72 90.8274 235.56 90.8407C235.52 90.8407 235.426 90.8407 235.28 90.8407C235.133 90.8407 234.873 90.834 234.499 90.8207C234.126 90.8074 233.639 90.8007 233.038 90.8007C231.784 90.8007 230.964 90.814 230.577 90.8407H230.337C230.257 90.7607 230.217 90.7006 230.217 90.6606C230.217 90.6206 230.23 90.5005 230.257 90.3004C230.31 90.127 230.35 90.0203 230.377 89.9803L230.457 89.9202H230.857C231.578 89.8802 232.005 89.7668 232.138 89.5801L231.898 86.5785H227.135L226.455 87.7391C225.908 88.6596 225.635 89.1999 225.635 89.3599ZM231.798 85.638C231.798 85.4912 231.718 84.4507 231.558 82.5164C231.398 80.582 231.304 79.6082 231.278 79.5948L230.737 80.4553C230.524 80.8155 230.104 81.5292 229.477 82.5964L227.676 85.638L229.737 85.658C231.111 85.658 231.798 85.6513 231.798 85.638Z" fill="black"/>
</svg>
