<svg width="888" height="368" viewBox="0 0 888 368" fill="none" xmlns="http://www.w3.org/2000/svg">
<rect width="888" height="368" fill="white"/>
<path d="M566.128 124.292C490.673 83.1348 358.443 77.3647 286.807 105.042C286.807 105.042 217.307 136.5 356.807 191.292C465.13 233.838 510.717 231.238 555.807 287C628.986 377.5 681.418 270 681.418 270C684.385 227.574 655.32 172.942 566.128 124.292Z" fill="#D9D9D9" fill-opacity="0.3"/>
<path d="M286.807 105.042C358.443 77.3647 490.673 83.1348 566.128 124.292C655.32 172.942 684.385 227.574 681.418 270M286.807 105.042C218.807 131.314 168.582 198.348 195.307 239C262.363 341 411.307 202 517.307 322C571.199 383.01 676.813 335.858 681.418 270M286.807 105.042C286.807 105.042 217.307 136.5 356.807 191.292C465.13 233.838 510.717 231.238 555.807 287C628.986 377.5 681.418 270 681.418 270" stroke="black"/>
<path d="M699.307 126L671.557 154.75L643.807 183.5L616.057 212.25L588.307 241L517.807 213.75L447.307 186.5L376.807 159.25L306.307 132L334.057 103.25L361.807 74.5L389.557 45.75L417.307 17L487.807 44.25L558.307 71.5L628.807 98.75L699.307 126Z" fill="#D9D9D9" fill-opacity="0.3"/>
<path d="M361.807 74.5L334.057 103.25M361.807 74.5L389.557 45.75M361.807 74.5L643.807 183.5M643.807 183.5L671.557 154.75M643.807 183.5L616.057 212.25M334.057 103.25L306.307 132L376.807 159.25M334.057 103.25L616.057 212.25M389.557 45.75L417.307 17L487.807 44.25M389.557 45.75L671.557 154.75M671.557 154.75L699.307 126L628.807 98.75M616.057 212.25L588.307 241L517.807 213.75M447.307 186.5L376.807 159.25M447.307 186.5L517.807 213.75M447.307 186.5L558.307 71.5M376.807 159.25L487.807 44.25M517.807 213.75L628.807 98.75M558.307 71.5L628.807 98.75M558.307 71.5L487.807 44.25" stroke="black"/>
<circle cx="503.307" cy="129" r="3" fill="black"/>
<circle cx="599.307" cy="299" r="3" fill="black"/>
<path d="M586.307 210.5L584.779 204.932L580.721 209.04L586.307 210.5ZM502.956 128.856L582.754 207.693L583.457 206.982L503.658 128.144L502.956 128.856Z" fill="black"/>
<path d="M503.807 130C503.807 130 585.307 193 598.807 295.5" stroke="black" stroke-dasharray="2 2"/>
<path d="M485.293 130.47C485.304 130.438 485.314 130.396 485.325 130.343C485.335 130.29 485.362 130.173 485.404 129.993C485.447 129.813 485.5 129.648 485.563 129.5C485.627 129.351 485.707 129.177 485.802 128.975C485.897 128.774 486.003 128.615 486.12 128.498C486.237 128.381 486.375 128.265 486.534 128.148C486.693 128.031 486.868 127.984 487.058 128.005C487.854 128.005 488.363 128.344 488.585 129.023L488.744 128.88C489.402 128.296 490.027 128.005 490.621 128.005C491.31 128.005 491.851 128.254 492.243 128.752C492.636 129.251 492.832 129.855 492.832 130.566C492.832 131.711 492.429 132.766 491.623 133.731C490.817 134.695 489.905 135.183 488.887 135.194C488.654 135.194 488.447 135.162 488.267 135.098C488.151 135.045 488.029 134.966 487.901 134.86C487.774 134.754 487.673 134.664 487.599 134.589L487.488 134.462C487.477 134.473 487.361 134.934 487.138 135.846C486.915 136.758 486.804 137.219 486.804 137.23C486.804 137.293 486.846 137.33 486.931 137.341C487.016 137.351 487.212 137.367 487.52 137.389H487.917C487.981 137.463 488.013 137.511 488.013 137.532C488.013 137.553 487.997 137.648 487.965 137.818C487.933 137.945 487.901 138.025 487.87 138.057C487.838 138.088 487.769 138.11 487.663 138.12C487.642 138.12 487.583 138.12 487.488 138.12C487.392 138.12 487.212 138.115 486.947 138.104C486.682 138.094 486.353 138.088 485.961 138.088C485.219 138.088 484.747 138.099 484.546 138.12H484.418C484.344 138.046 484.307 137.988 484.307 137.945C484.328 137.659 484.397 137.473 484.514 137.389H484.832C485.192 137.378 485.399 137.314 485.452 137.198C485.484 137.134 485.807 135.867 486.422 133.397C487.037 130.926 487.361 129.617 487.392 129.468C487.403 129.415 487.408 129.341 487.408 129.245C487.408 128.811 487.276 128.593 487.011 128.593C486.777 128.593 486.581 128.742 486.422 129.039C486.263 129.336 486.141 129.659 486.056 130.009C485.972 130.359 485.908 130.55 485.866 130.581C485.844 130.603 485.76 130.613 485.611 130.613H485.388C485.325 130.55 485.293 130.502 485.293 130.47ZM487.758 133.412C487.992 134.218 488.384 134.621 488.935 134.621C489.253 134.621 489.561 134.499 489.858 134.255C490.155 134.012 490.398 133.704 490.589 133.333C490.78 132.972 490.971 132.4 491.162 131.615C491.353 130.831 491.453 130.247 491.464 129.866V129.77C491.464 128.986 491.141 128.593 490.494 128.593C490.377 128.593 490.261 128.609 490.144 128.641C490.027 128.673 489.911 128.721 489.794 128.784C489.677 128.848 489.571 128.917 489.476 128.991C489.381 129.065 489.29 129.145 489.206 129.23C489.121 129.314 489.041 129.394 488.967 129.468C488.893 129.542 488.834 129.617 488.792 129.691C488.75 129.765 488.707 129.818 488.665 129.85L488.617 129.913C488.617 129.924 488.601 129.998 488.569 130.136C488.538 130.274 488.479 130.507 488.394 130.836C488.31 131.165 488.235 131.44 488.172 131.663C487.896 132.787 487.758 133.37 487.758 133.412Z" fill="black"/>
<path d="M631.956 258.768C631.643 258.768 631.477 258.747 631.459 258.703C631.45 258.681 631.445 258.638 631.445 258.572C631.445 258.311 631.496 258.131 631.597 258.033C631.615 258.022 631.694 258.016 631.832 258.016C632.209 258.038 632.835 258.049 633.709 258.049C634.022 258.049 634.312 258.049 634.579 258.049C634.846 258.049 635.053 258.044 635.201 258.033C635.348 258.022 635.44 258.022 635.477 258.033C635.624 258.033 635.698 258.087 635.698 258.196C635.698 258.218 635.688 258.294 635.67 258.425C635.624 258.61 635.578 258.719 635.532 258.752H635.504C635.486 258.752 635.463 258.752 635.435 258.752C635.408 258.752 635.375 258.752 635.339 258.752C635.302 258.752 635.26 258.757 635.214 258.768C635.168 258.779 635.127 258.779 635.09 258.768C634.731 258.779 634.501 258.796 634.4 258.817C634.299 258.839 634.216 258.899 634.151 258.997C634.142 259.019 634.013 259.591 633.765 260.714C633.516 261.836 633.268 263.013 633.019 264.245C632.771 265.477 632.632 266.201 632.605 266.419C632.586 266.572 632.577 266.73 632.577 266.894C632.577 267.482 632.72 267.945 633.005 268.283C633.291 268.621 633.686 268.79 634.193 268.79C634.809 268.79 635.426 268.545 636.043 268.054C636.66 267.564 637.111 266.823 637.396 265.831L638.1 262.545C638.533 260.452 638.749 259.362 638.749 259.275C638.749 258.981 638.454 258.812 637.865 258.768C637.644 258.768 637.534 258.708 637.534 258.589C637.534 258.567 637.543 258.501 637.562 258.392C637.598 258.218 637.626 258.114 637.644 258.082C637.663 258.049 637.709 258.027 637.783 258.016C637.81 258.016 637.957 258.022 638.224 258.033C638.491 258.044 638.878 258.054 639.384 258.065C639.854 258.065 640.213 258.06 640.461 258.049C640.71 258.038 640.843 258.033 640.862 258.033C641 258.033 641.069 258.087 641.069 258.196C641.069 258.436 641.032 258.599 640.958 258.687C640.931 258.741 640.829 258.768 640.654 258.768C640.001 258.812 639.591 259.03 639.426 259.422C639.407 259.477 639.177 260.529 638.735 262.578C638.358 264.419 638.128 265.504 638.045 265.831C637.741 266.921 637.212 267.809 636.457 268.496C635.702 269.182 634.92 269.531 634.11 269.542C633.263 269.542 632.586 269.237 632.08 268.626C631.574 268.016 631.316 267.291 631.307 266.452V266.191C631.307 265.994 631.56 264.697 632.066 262.3C632.517 260.109 632.743 258.981 632.743 258.916C632.743 258.839 632.481 258.79 631.956 258.768Z" fill="black"/>
<path d="M646.064 265.095C646.064 263.766 646.441 262.676 647.196 261.826C647.951 260.975 648.844 260.49 649.875 260.371C649.884 260.371 649.93 260.371 650.013 260.371C650.096 260.371 650.211 260.371 650.358 260.371C650.505 260.371 650.666 260.365 650.841 260.354C651.016 260.343 651.223 260.343 651.463 260.354C651.702 260.365 651.928 260.365 652.139 260.354H654.279C654.417 260.441 654.486 260.55 654.486 260.681C654.486 260.779 654.427 260.883 654.307 260.992L652.112 261.008H651.394H650.993C650.303 261.008 649.829 261.03 649.571 261.073C649.313 261.117 648.982 261.248 648.577 261.466C648.375 261.586 648.181 261.727 647.997 261.891C647.813 262.054 647.606 262.283 647.376 262.578C647.146 262.872 646.962 263.237 646.823 263.673C646.685 264.109 646.616 264.583 646.616 265.095V265.177C646.616 266.136 646.897 266.986 647.459 267.727C648.002 268.425 648.66 268.872 649.433 269.068C649.617 269.122 649.792 269.15 649.958 269.15C650.123 269.15 650.841 269.16 652.112 269.182H654.307C654.427 269.291 654.486 269.4 654.486 269.509C654.486 269.64 654.417 269.749 654.279 269.836H652.167C652.02 269.836 651.808 269.836 651.532 269.836C651.256 269.836 651.044 269.842 650.897 269.853C650.123 269.853 649.456 269.765 648.895 269.591C648.333 269.417 647.795 269.035 647.279 268.447C646.469 267.553 646.064 266.436 646.064 265.095Z" fill="black"/>
<path d="M663.472 258.899C663.472 258.834 663.21 258.79 662.685 258.768C662.464 258.768 662.322 258.763 662.257 258.752C662.193 258.741 662.161 258.687 662.161 258.589C662.161 258.578 662.17 258.518 662.188 258.409C662.197 258.376 662.207 258.338 662.216 258.294C662.225 258.251 662.23 258.223 662.23 258.213C662.23 258.202 662.239 258.174 662.257 258.131C662.276 258.087 662.285 258.071 662.285 258.082C662.285 258.093 662.303 258.082 662.34 258.049C662.377 258.016 662.4 258.005 662.409 258.016C662.418 258.027 662.455 258.027 662.52 258.016C662.584 258.005 662.639 258 662.685 258C662.74 258 662.879 258 663.099 258C663.32 258 663.527 258.005 663.721 258.016C664.448 258.016 664.867 258.016 664.977 258.016C665.088 258.016 665.161 258.044 665.198 258.098C665.207 258.142 665.378 259.678 665.709 262.708L666.206 267.27L666.524 266.665C666.745 266.272 667.039 265.727 667.407 265.03C667.775 264.332 668.18 263.569 668.622 262.741C670.233 259.7 671.048 258.169 671.066 258.147C671.075 258.136 671.089 258.12 671.108 258.098C671.126 258.076 671.144 258.06 671.163 258.049L671.246 258.016H672.571C672.728 258.016 672.912 258.016 673.123 258.016C673.335 258.016 673.469 258.011 673.524 258C673.837 258 673.993 258.06 673.993 258.18C673.993 258.234 673.98 258.327 673.952 258.458C673.924 258.589 673.91 258.659 673.91 258.67C673.874 258.736 673.703 258.768 673.4 258.768C673.031 258.779 672.797 258.796 672.695 258.817C672.594 258.839 672.511 258.899 672.447 258.997C672.419 259.052 672.088 260.594 671.453 263.624C670.818 266.654 670.496 268.185 670.486 268.218C670.486 268.261 670.491 268.289 670.5 268.299C670.509 268.31 670.542 268.332 670.597 268.365C670.652 268.398 670.73 268.408 670.831 268.398C670.933 268.387 671.085 268.398 671.287 268.43H671.715C671.77 268.528 671.798 268.588 671.798 268.61C671.798 268.784 671.766 268.948 671.701 269.101C671.655 269.155 671.582 269.182 671.48 269.182C671.434 269.182 671.246 269.177 670.914 269.166C670.583 269.155 670.16 269.15 669.644 269.15C669.083 269.15 668.659 269.15 668.374 269.15C668.088 269.15 667.927 269.155 667.891 269.166C667.734 269.166 667.656 269.111 667.656 269.002C667.656 268.981 667.665 268.904 667.683 268.774C667.72 268.599 667.757 268.501 667.794 268.479C667.831 268.458 667.937 268.441 668.111 268.43C668.36 268.43 668.636 268.414 668.94 268.381C669.069 268.349 669.156 268.283 669.202 268.185C669.221 268.141 669.396 267.346 669.727 265.798C670.058 264.251 670.385 262.708 670.707 261.172C671.029 259.635 671.19 258.866 671.19 258.866L668.512 263.918C666.708 267.319 665.783 269.046 665.737 269.101C665.718 269.111 665.7 269.122 665.681 269.133C665.635 269.166 665.562 269.182 665.46 269.182C665.322 269.182 665.24 269.144 665.212 269.068C665.194 269.024 665.005 267.335 664.646 264L664.107 258.981L663.168 263.395C662.552 266.294 662.243 267.793 662.243 267.891C662.299 268.25 662.63 268.43 663.238 268.43H663.376C663.431 268.485 663.463 268.534 663.472 268.577C663.481 268.621 663.468 268.719 663.431 268.872C663.394 269.046 663.357 269.144 663.32 269.166C663.284 269.177 663.233 269.182 663.168 269.182C663.15 269.182 663.095 269.182 663.003 269.182C662.911 269.182 662.754 269.177 662.533 269.166C662.312 269.155 662.018 269.15 661.65 269.15C661.374 269.15 661.088 269.155 660.794 269.166C660.499 269.177 660.329 269.182 660.283 269.182C660.145 269.182 660.057 269.171 660.02 269.15C659.984 269.128 659.965 269.079 659.965 269.002C659.965 268.981 659.979 268.904 660.007 268.774C660.034 268.643 660.057 268.561 660.076 268.528C660.094 268.463 660.195 268.43 660.379 268.43C661.024 268.43 661.433 268.212 661.608 267.776C661.645 267.711 661.963 266.25 662.561 263.395C663.159 260.539 663.463 259.041 663.472 258.899Z" fill="black"/>
<path d="M660.596 91.7521C660.403 91.7521 660.307 91.7116 660.307 91.6306C660.307 91.5799 660.388 91.2964 660.55 90.7799C660.712 90.2634 660.884 89.752 661.066 89.2456L661.325 88.5013C661.375 88.319 661.441 88.1874 661.522 88.1063H668.631H669.999C670.323 88.1063 670.515 88.1114 670.576 88.1215C670.637 88.1317 670.672 88.1772 670.682 88.2582C670.682 88.319 670.596 88.8963 670.424 89.99C670.252 91.0837 670.156 91.6356 670.135 91.6458C670.135 91.7166 670.039 91.7521 669.847 91.7521C669.756 91.7521 669.695 91.7521 669.664 91.7521C669.634 91.7521 669.604 91.7268 669.573 91.6761L669.543 91.6306C669.543 91.5698 669.573 91.3419 669.634 90.947C669.695 90.552 669.725 90.2432 669.725 90.0204C669.725 89.6659 669.659 89.3975 669.528 89.2153C669.396 89.033 669.117 88.9064 668.692 88.8355C668.642 88.8254 668.348 88.8152 667.811 88.8051C667.345 88.8051 667.052 88.8102 666.93 88.8203C666.809 88.8304 666.717 88.8709 666.657 88.9418C666.646 88.952 666.287 90.3647 665.578 93.18C664.869 95.9953 664.515 97.4283 664.515 97.4789C664.515 97.6005 664.96 97.6714 665.852 97.6916C666.176 97.6916 666.383 97.6967 666.474 97.7068C666.565 97.7169 666.611 97.7625 666.611 97.8435C666.611 97.8942 666.596 97.965 666.565 98.0562C666.525 98.2385 666.479 98.3448 666.429 98.3752L666.398 98.3904C666.368 98.3904 666.333 98.3904 666.292 98.3904C666.241 98.3904 665.978 98.3853 665.502 98.3752C665.026 98.3651 664.343 98.36 663.451 98.36C662.145 98.36 661.315 98.3701 660.96 98.3904H660.732C660.672 98.3296 660.641 98.284 660.641 98.2537C660.641 98.2233 660.651 98.1321 660.672 97.9802C660.712 97.8486 660.763 97.7524 660.823 97.6916H661.249H661.416C662.226 97.6916 662.707 97.646 662.859 97.5549C662.869 97.5448 662.879 97.5397 662.889 97.5397C662.94 97.5093 662.991 97.4081 663.041 97.2359C663.092 97.0637 663.294 96.2688 663.649 94.851C663.821 94.1623 663.963 93.6003 664.074 93.1648C664.783 90.3799 665.138 88.957 665.138 88.8963C665.138 88.8456 664.991 88.8203 664.697 88.8203H664.226C663.548 88.8203 663.102 88.8507 662.889 88.9114C662.434 89.0127 662.079 89.2203 661.826 89.5343C661.573 89.8482 661.299 90.4356 661.006 91.2964C660.935 91.5192 660.884 91.6508 660.854 91.6913C660.823 91.7318 660.753 91.7521 660.641 91.7521H660.596Z" fill="black"/>
<path d="M669.106 97.5867C669.113 97.5652 669.121 97.5365 669.128 97.5007C669.135 97.4649 669.153 97.3862 669.181 97.2645C669.21 97.1427 669.246 97.0318 669.289 96.9315C669.332 96.8313 669.386 96.7132 669.45 96.5771C669.514 96.4411 669.586 96.3337 669.665 96.2549C669.743 96.1762 669.837 96.0974 669.944 96.0187C670.051 95.9399 670.17 95.9077 670.298 95.922C670.835 95.922 671.179 96.1511 671.329 96.6093L671.437 96.5127C671.881 96.1189 672.303 95.922 672.704 95.922C673.169 95.922 673.535 96.0902 673.8 96.4268C674.064 96.7633 674.197 97.1714 674.197 97.6511C674.197 98.4244 673.925 99.1368 673.381 99.7883C672.837 100.44 672.221 100.769 671.533 100.776C671.376 100.776 671.236 100.755 671.115 100.712C671.036 100.676 670.954 100.622 670.868 100.551C670.782 100.479 670.714 100.418 670.664 100.368L670.588 100.282C670.581 100.289 670.502 100.601 670.352 101.217C670.202 101.832 670.127 102.144 670.127 102.151C670.127 102.194 670.155 102.219 670.212 102.226C670.27 102.233 670.402 102.244 670.61 102.258H670.878C670.921 102.309 670.943 102.341 670.943 102.355C670.943 102.369 670.932 102.434 670.911 102.548C670.889 102.634 670.868 102.688 670.846 102.71C670.825 102.731 670.778 102.745 670.706 102.752C670.692 102.752 670.653 102.752 670.588 102.752C670.524 102.752 670.402 102.749 670.223 102.742C670.044 102.735 669.822 102.731 669.557 102.731C669.056 102.731 668.738 102.738 668.602 102.752H668.516C668.465 102.702 668.44 102.663 668.44 102.634C668.455 102.441 668.501 102.316 668.58 102.258H668.795C669.038 102.251 669.178 102.208 669.214 102.13C669.235 102.087 669.454 101.231 669.869 99.5628C670.284 97.8945 670.502 97.0103 670.524 96.9101C670.531 96.8743 670.535 96.8241 670.535 96.7597C670.535 96.4661 670.445 96.3194 670.266 96.3194C670.109 96.3194 669.976 96.4196 669.869 96.6201C669.761 96.8206 669.679 97.0389 669.622 97.2752C669.565 97.5115 669.522 97.6404 669.493 97.6618C669.479 97.6762 669.421 97.6833 669.321 97.6833H669.171C669.128 97.6404 669.106 97.6081 669.106 97.5867ZM670.771 99.5735C670.928 100.118 671.193 100.39 671.566 100.39C671.78 100.39 671.988 100.307 672.189 100.143C672.389 99.978 672.554 99.7704 672.683 99.5198C672.811 99.2764 672.94 98.8897 673.069 98.3599C673.198 97.8301 673.266 97.4363 673.273 97.1785V97.1141C673.273 96.5843 673.055 96.3194 672.618 96.3194C672.539 96.3194 672.461 96.3301 672.382 96.3516C672.303 96.3731 672.224 96.4053 672.146 96.4482C672.067 96.4912 671.995 96.5377 671.931 96.5879C671.866 96.638 671.806 96.6917 671.748 96.749C671.691 96.8062 671.637 96.8599 671.587 96.9101C671.537 96.9602 671.498 97.0103 671.469 97.0604C671.44 97.1105 671.412 97.1463 671.383 97.1678L671.351 97.2108C671.351 97.2179 671.34 97.268 671.319 97.3611C671.297 97.4542 671.258 97.6117 671.201 97.8337C671.143 98.0556 671.093 98.2418 671.05 98.3921C670.864 99.1511 670.771 99.5449 670.771 99.5735Z" fill="black"/>
<path d="M679.412 88.8355C679.412 88.7747 679.124 88.7342 678.546 88.714C678.303 88.714 678.146 88.7089 678.075 88.6988C678.005 88.6886 677.969 88.638 677.969 88.5469C677.969 88.5367 677.979 88.481 677.999 88.3798C678.01 88.3494 678.02 88.3139 678.03 88.2734C678.04 88.2329 678.045 88.2076 678.045 88.1975C678.045 88.1874 678.055 88.162 678.075 88.1215C678.096 88.081 678.106 88.0658 678.106 88.076C678.106 88.0861 678.126 88.076 678.167 88.0456C678.207 88.0152 678.232 88.0051 678.242 88.0152C678.253 88.0253 678.293 88.0253 678.364 88.0152C678.435 88.0051 678.496 88 678.546 88C678.607 88 678.759 88 679.002 88C679.245 88 679.473 88.0051 679.686 88.0152C680.486 88.0152 680.946 88.0152 681.068 88.0152C681.189 88.0152 681.27 88.0405 681.311 88.0912C681.321 88.1317 681.508 89.5596 681.873 92.3749L682.42 96.6131L682.769 96.051C683.012 95.6865 683.336 95.1801 683.741 94.532C684.147 93.8838 684.592 93.1749 685.078 92.4053C686.851 89.5798 687.747 88.157 687.767 88.1367C687.777 88.1266 687.792 88.1114 687.813 88.0912C687.833 88.0709 687.853 88.0557 687.873 88.0456L687.964 88.0152H689.423C689.595 88.0152 689.797 88.0152 690.03 88.0152C690.263 88.0152 690.41 88.0101 690.471 88C690.815 88 690.987 88.0557 690.987 88.1671C690.987 88.2177 690.972 88.3038 690.942 88.4253C690.911 88.5469 690.896 88.6127 690.896 88.6228C690.856 88.6836 690.668 88.714 690.334 88.714C689.929 88.7241 689.671 88.7393 689.559 88.7595C689.448 88.7798 689.357 88.8355 689.286 88.9266C689.256 88.9773 688.891 90.4102 688.192 93.2256C687.494 96.0409 687.139 97.4638 687.129 97.4941C687.129 97.5346 687.134 97.56 687.144 97.5701C687.154 97.5802 687.19 97.6005 687.251 97.6309C687.311 97.6612 687.397 97.6714 687.509 97.6612C687.62 97.6511 687.787 97.6612 688.01 97.6916H688.481C688.542 97.7828 688.572 97.8385 688.572 97.8587C688.572 98.0207 688.537 98.1726 688.466 98.3144C688.415 98.3651 688.334 98.3904 688.223 98.3904C688.172 98.3904 687.964 98.3853 687.6 98.3752C687.235 98.3651 686.769 98.36 686.202 98.36C685.585 98.36 685.119 98.36 684.805 98.36C684.491 98.36 684.314 98.3651 684.273 98.3752C684.101 98.3752 684.015 98.3246 684.015 98.2233C684.015 98.203 684.025 98.1321 684.045 98.0106C684.086 97.8486 684.126 97.7574 684.167 97.7372C684.207 97.7169 684.324 97.7017 684.516 97.6916C684.79 97.6916 685.093 97.6764 685.428 97.646C685.569 97.6157 685.666 97.5549 685.716 97.4638C685.737 97.4232 685.929 96.684 686.294 95.2459C686.658 93.8079 687.018 92.3749 687.372 90.947C687.726 89.5191 687.904 88.8051 687.904 88.8051L684.957 93.499C682.972 96.6587 681.954 98.2638 681.903 98.3144C681.883 98.3246 681.863 98.3347 681.843 98.3448C681.792 98.3752 681.711 98.3904 681.6 98.3904C681.448 98.3904 681.357 98.3549 681.326 98.284C681.306 98.2435 681.098 96.6738 680.703 93.575L680.111 88.9114L679.078 93.0129C678.399 95.7067 678.06 97.0992 678.06 97.1903C678.121 97.5245 678.486 97.6916 679.154 97.6916H679.306C679.367 97.7422 679.402 97.7878 679.412 97.8283C679.422 97.8688 679.407 97.96 679.367 98.1018C679.326 98.2638 679.286 98.3549 679.245 98.3752C679.205 98.3853 679.149 98.3904 679.078 98.3904C679.058 98.3904 678.997 98.3904 678.896 98.3904C678.794 98.3904 678.622 98.3853 678.379 98.3752C678.136 98.3651 677.812 98.36 677.407 98.36C677.103 98.36 676.789 98.3651 676.465 98.3752C676.141 98.3853 675.954 98.3904 675.903 98.3904C675.751 98.3904 675.655 98.3803 675.615 98.36C675.574 98.3397 675.554 98.2942 675.554 98.2233C675.554 98.203 675.569 98.1321 675.599 98.0106C675.63 97.8891 675.655 97.8131 675.675 97.7828C675.696 97.722 675.807 97.6916 676.009 97.6916C676.718 97.6916 677.169 97.4891 677.361 97.084C677.402 97.0232 677.751 95.6662 678.41 93.0129C679.068 90.3596 679.402 88.9671 679.412 88.8355Z" fill="black"/>
<path d="M576.022 193.626H575.988C575.829 193.626 575.75 193.564 575.75 193.439C575.75 193.394 575.767 193.303 575.801 193.167C575.846 193.008 575.886 192.917 575.92 192.894C575.954 192.872 576.062 192.855 576.243 192.843C577.219 192.809 577.985 192.514 578.541 191.958C578.655 191.845 579.313 191.13 580.516 189.814C581.719 188.497 582.314 187.828 582.303 187.805C581.066 184.65 580.419 183.044 580.362 182.988C580.26 182.863 579.903 182.795 579.29 182.783H578.813C578.745 182.715 578.711 182.67 578.711 182.647C578.711 182.625 578.723 182.517 578.745 182.324C578.791 182.176 578.848 182.069 578.916 182H579.154C579.54 182.023 580.226 182.034 581.214 182.034C581.588 182.034 581.934 182.034 582.252 182.034C582.57 182.034 582.825 182.029 583.018 182.017C583.211 182.006 583.324 182.006 583.358 182.017C583.551 182.017 583.648 182.08 583.648 182.205C583.648 182.216 583.636 182.29 583.614 182.426C583.568 182.596 583.529 182.698 583.495 182.732C583.46 182.766 583.37 182.783 583.222 182.783C582.87 182.817 582.564 182.914 582.303 183.073L583.614 186.375L584.516 185.371C585.707 184.088 586.303 183.379 586.303 183.243C586.303 183.039 586.167 182.897 585.895 182.817C585.838 182.817 585.764 182.806 585.673 182.783C585.503 182.783 585.418 182.721 585.418 182.596C585.418 182.574 585.429 182.483 585.452 182.324C585.497 182.176 585.554 182.069 585.622 182H585.827C585.838 182 585.98 182 586.252 182C586.524 182 586.831 182.012 587.171 182.034C587.512 182.057 587.744 182.063 587.869 182.052C588.89 182.052 589.452 182.034 589.554 182H589.691C589.77 182.08 589.81 182.142 589.81 182.188C589.787 182.471 589.719 182.67 589.605 182.783H589.333C588.947 182.795 588.601 182.846 588.295 182.937C587.988 183.027 587.756 183.124 587.597 183.226C587.438 183.328 587.302 183.43 587.188 183.532L587.001 183.686C587.001 183.674 586.462 184.264 585.384 185.456L583.903 187.09C583.903 187.101 584.079 187.555 584.431 188.452C584.783 189.348 585.151 190.267 585.537 191.209C585.923 192.151 586.133 192.639 586.167 192.673C586.28 192.775 586.627 192.832 587.205 192.843C587.602 192.843 587.801 192.894 587.801 192.997C587.801 193.019 587.79 193.099 587.767 193.235C587.722 193.417 587.682 193.524 587.648 193.558C587.614 193.592 587.534 193.609 587.41 193.609C587.376 193.609 587.188 193.609 586.848 193.609C586.507 193.609 586.002 193.604 585.333 193.592C584.641 193.592 584.113 193.592 583.75 193.592C583.387 193.592 583.188 193.598 583.154 193.609C582.961 193.609 582.865 193.558 582.865 193.456C582.865 193.445 582.876 193.36 582.899 193.201C582.921 193.087 582.944 193.008 582.967 192.963C582.99 192.917 583.018 192.889 583.052 192.877C583.086 192.866 583.137 192.855 583.205 192.843C583.273 192.832 583.364 192.826 583.477 192.826C583.591 192.826 583.738 192.787 583.92 192.707C584.113 192.616 584.209 192.56 584.209 192.537C584.198 192.537 583.931 191.873 583.409 190.545L582.609 188.537C580.476 190.852 579.381 192.072 579.324 192.197C579.279 192.287 579.256 192.355 579.256 192.401C579.256 192.616 579.421 192.758 579.75 192.826C579.761 192.826 579.795 192.826 579.852 192.826C579.909 192.826 579.943 192.832 579.954 192.843C579.988 192.843 580.011 192.843 580.022 192.843C580.033 192.843 580.05 192.849 580.073 192.86C580.096 192.872 580.113 192.889 580.124 192.912C580.136 192.934 580.141 192.974 580.141 193.031C580.141 193.133 580.13 193.224 580.107 193.303C580.073 193.451 580.039 193.536 580.005 193.558C579.971 193.581 579.886 193.598 579.75 193.609C579.716 193.609 579.613 193.609 579.443 193.609C579.273 193.609 579.035 193.604 578.728 193.592C578.422 193.581 578.087 193.581 577.724 193.592C576.839 193.592 576.272 193.604 576.022 193.626Z" fill="black"/>
<path d="M589.678 192.726C589.686 192.702 589.694 192.67 589.702 192.63C589.71 192.589 589.73 192.501 589.762 192.365C589.794 192.228 589.834 192.104 589.883 191.992C589.931 191.879 589.991 191.747 590.063 191.595C590.135 191.442 590.215 191.322 590.304 191.234C590.392 191.145 590.496 191.057 590.617 190.969C590.737 190.881 590.869 190.844 591.014 190.86C591.615 190.86 592.001 191.117 592.169 191.631L592.289 191.522C592.787 191.081 593.26 190.86 593.709 190.86C594.231 190.86 594.64 191.049 594.937 191.426C595.234 191.803 595.382 192.26 595.382 192.798C595.382 193.665 595.077 194.463 594.468 195.193C593.858 195.923 593.168 196.292 592.398 196.3C592.221 196.3 592.065 196.276 591.928 196.228C591.84 196.188 591.748 196.128 591.652 196.047C591.555 195.967 591.479 195.899 591.423 195.843L591.339 195.746C591.331 195.755 591.242 196.104 591.074 196.793C590.905 197.483 590.821 197.832 590.821 197.841C590.821 197.889 590.853 197.917 590.917 197.925C590.982 197.933 591.13 197.945 591.363 197.961H591.664C591.712 198.017 591.736 198.053 591.736 198.069C591.736 198.085 591.724 198.157 591.7 198.286C591.676 198.382 591.652 198.442 591.628 198.466C591.603 198.49 591.551 198.506 591.471 198.514C591.455 198.514 591.411 198.514 591.339 198.514C591.266 198.514 591.13 198.51 590.93 198.502C590.729 198.494 590.48 198.49 590.183 198.49C589.622 198.49 589.265 198.498 589.112 198.514H589.016C588.96 198.458 588.932 198.414 588.932 198.382C588.948 198.165 589 198.025 589.088 197.961H589.329C589.602 197.953 589.758 197.905 589.798 197.816C589.822 197.768 590.067 196.81 590.532 194.94C590.998 193.071 591.242 192.08 591.266 191.968C591.275 191.928 591.279 191.871 591.279 191.799C591.279 191.47 591.178 191.306 590.978 191.306C590.801 191.306 590.653 191.418 590.532 191.643C590.412 191.867 590.32 192.112 590.256 192.377C590.191 192.642 590.143 192.786 590.111 192.81C590.095 192.826 590.031 192.834 589.919 192.834H589.75C589.702 192.786 589.678 192.75 589.678 192.726ZM591.543 194.952C591.72 195.562 592.017 195.867 592.434 195.867C592.675 195.867 592.907 195.775 593.132 195.59C593.356 195.406 593.541 195.173 593.685 194.892C593.83 194.619 593.974 194.186 594.119 193.592C594.263 192.999 594.339 192.557 594.347 192.269V192.196C594.347 191.603 594.103 191.306 593.613 191.306C593.525 191.306 593.437 191.318 593.348 191.342C593.26 191.366 593.172 191.402 593.084 191.45C592.995 191.498 592.915 191.55 592.843 191.607C592.771 191.663 592.703 191.723 592.638 191.787C592.574 191.851 592.514 191.911 592.458 191.968C592.402 192.024 592.358 192.08 592.326 192.136C592.293 192.192 592.261 192.232 592.229 192.256L592.193 192.305C592.193 192.313 592.181 192.369 592.157 192.473C592.133 192.577 592.089 192.754 592.025 193.003C591.96 193.251 591.904 193.46 591.856 193.628C591.648 194.479 591.543 194.92 591.543 194.952Z" fill="black"/>
<path d="M606.307 308.003C606.307 307.376 606.411 306.805 606.62 306.288C606.829 305.771 607.098 305.343 607.428 305.002C607.758 304.661 608.126 304.375 608.533 304.144C608.94 303.913 609.325 303.743 609.687 303.633C610.05 303.523 610.397 303.474 610.726 303.485H610.776C611.271 303.485 611.699 303.606 612.062 303.847C612.425 304.089 612.606 304.447 612.606 304.919C612.606 305.909 611.996 306.557 610.776 306.865C610.237 307.008 609.501 307.085 608.566 307.096C608.159 307.096 607.95 307.107 607.939 307.129C607.939 307.151 607.907 307.343 607.841 307.706C607.775 308.069 607.736 308.388 607.725 308.663C607.725 309.179 607.841 309.586 608.071 309.883C608.302 310.18 608.649 310.334 609.11 310.345C609.572 310.356 610.083 310.251 610.644 310.031C611.205 309.811 611.71 309.449 612.161 308.943C612.26 308.833 612.326 308.778 612.359 308.778C612.403 308.778 612.474 308.828 612.573 308.926C612.672 309.025 612.727 309.102 612.738 309.157C612.749 309.212 612.7 309.3 612.59 309.421C612.48 309.542 612.315 309.691 612.095 309.866C611.875 310.042 611.622 310.213 611.337 310.378C611.051 310.543 610.704 310.68 610.298 310.79C609.891 310.9 609.473 310.955 609.044 310.955C608.176 310.955 607.505 310.663 607.033 310.081C606.56 309.498 606.318 308.806 606.307 308.003ZM611.815 304.952C611.749 304.381 611.375 304.095 610.693 304.095C610.331 304.095 609.995 304.172 609.687 304.326C609.38 304.48 609.132 304.666 608.945 304.886C608.759 305.106 608.599 305.332 608.467 305.562C608.335 305.793 608.247 305.991 608.203 306.156C608.159 306.321 608.132 306.425 608.121 306.469C608.121 306.48 608.231 306.486 608.451 306.486C609.693 306.486 610.561 306.354 611.056 306.09C611.551 305.826 611.804 305.447 611.815 304.952Z" fill="black"/>
<path d="M613.838 303.963H613.815C613.706 303.963 613.651 303.92 613.651 303.835C613.651 303.804 613.663 303.741 613.686 303.648C613.718 303.539 613.745 303.477 613.768 303.462C613.791 303.446 613.865 303.434 613.99 303.427C614.658 303.403 615.183 303.201 615.563 302.82C615.641 302.743 616.092 302.253 616.916 301.351C617.74 300.45 618.148 299.991 618.14 299.976C617.293 297.815 616.85 296.715 616.811 296.676C616.741 296.591 616.496 296.544 616.076 296.536H615.75C615.703 296.49 615.68 296.459 615.68 296.443C615.68 296.427 615.688 296.354 615.703 296.222C615.734 296.12 615.773 296.047 615.82 296H615.983C616.247 296.016 616.718 296.023 617.394 296.023C617.65 296.023 617.887 296.023 618.105 296.023C618.323 296.023 618.498 296.019 618.63 296.012C618.762 296.004 618.84 296.004 618.863 296.012C618.995 296.012 619.061 296.054 619.061 296.14C619.061 296.148 619.053 296.198 619.038 296.291C619.007 296.408 618.979 296.478 618.956 296.501C618.933 296.525 618.871 296.536 618.77 296.536C618.529 296.56 618.319 296.626 618.14 296.734L619.038 298.996L619.656 298.308C620.472 297.43 620.88 296.944 620.88 296.851C620.88 296.711 620.787 296.614 620.6 296.56C620.561 296.56 620.511 296.552 620.448 296.536C620.332 296.536 620.274 296.494 620.274 296.408C620.274 296.393 620.281 296.33 620.297 296.222C620.328 296.12 620.367 296.047 620.413 296H620.553C620.561 296 620.658 296 620.845 296C621.031 296 621.241 296.008 621.474 296.023C621.708 296.039 621.867 296.043 621.952 296.035C622.652 296.035 623.037 296.023 623.107 296H623.2C623.254 296.054 623.282 296.097 623.282 296.128C623.266 296.323 623.219 296.459 623.142 296.536H622.955C622.691 296.544 622.454 296.579 622.244 296.641C622.034 296.703 621.875 296.769 621.766 296.839C621.657 296.909 621.564 296.979 621.486 297.049L621.358 297.154C621.358 297.146 620.989 297.551 620.25 298.367L619.236 299.486C619.236 299.494 619.356 299.805 619.597 300.419C619.838 301.033 620.091 301.662 620.355 302.307C620.619 302.952 620.763 303.287 620.787 303.31C620.864 303.38 621.101 303.419 621.498 303.427C621.77 303.427 621.906 303.462 621.906 303.531C621.906 303.547 621.898 303.601 621.882 303.695C621.851 303.819 621.824 303.893 621.801 303.916C621.778 303.94 621.723 303.951 621.638 303.951C621.614 303.951 621.486 303.951 621.253 303.951C621.02 303.951 620.674 303.947 620.215 303.94C619.741 303.94 619.38 303.94 619.131 303.94C618.882 303.94 618.746 303.943 618.723 303.951C618.591 303.951 618.525 303.916 618.525 303.846C618.525 303.839 618.533 303.78 618.548 303.671C618.564 303.594 618.579 303.539 618.595 303.508C618.61 303.477 618.63 303.458 618.653 303.45C618.676 303.442 618.711 303.434 618.758 303.427C618.805 303.419 618.867 303.415 618.944 303.415C619.022 303.415 619.123 303.388 619.248 303.333C619.38 303.271 619.446 303.232 619.446 303.217C619.438 303.217 619.255 302.762 618.898 301.853L618.35 300.477C616.889 302.063 616.139 302.898 616.1 302.984C616.069 303.046 616.053 303.092 616.053 303.123C616.053 303.271 616.166 303.368 616.391 303.415C616.399 303.415 616.422 303.415 616.461 303.415C616.5 303.415 616.523 303.419 616.531 303.427C616.554 303.427 616.57 303.427 616.578 303.427C616.586 303.427 616.597 303.43 616.613 303.438C616.628 303.446 616.64 303.458 616.648 303.473C616.655 303.489 616.659 303.516 616.659 303.555C616.659 303.625 616.652 303.687 616.636 303.741C616.613 303.842 616.589 303.901 616.566 303.916C616.543 303.932 616.485 303.943 616.391 303.951C616.368 303.951 616.298 303.951 616.181 303.951C616.065 303.951 615.902 303.947 615.692 303.94C615.482 303.932 615.253 303.932 615.004 303.94C614.398 303.94 614.009 303.947 613.838 303.963Z" fill="black"/>
<path d="M623.191 303.346C623.197 303.33 623.202 303.308 623.208 303.28C623.213 303.253 623.227 303.192 623.249 303.099C623.271 303.005 623.298 302.92 623.331 302.843C623.364 302.766 623.406 302.676 623.455 302.571C623.505 302.467 623.559 302.384 623.62 302.324C623.68 302.263 623.752 302.203 623.834 302.143C623.917 302.082 624.007 302.057 624.106 302.068C624.518 302.068 624.782 302.244 624.898 302.596L624.98 302.522C625.321 302.22 625.645 302.068 625.953 302.068C626.31 302.068 626.59 302.198 626.793 302.456C626.997 302.714 627.098 303.027 627.098 303.395C627.098 303.989 626.89 304.536 626.472 305.036C626.054 305.536 625.582 305.789 625.054 305.794C624.933 305.794 624.826 305.778 624.733 305.745C624.672 305.717 624.609 305.676 624.543 305.621C624.477 305.566 624.425 305.519 624.386 305.481L624.329 305.415C624.323 305.42 624.263 305.659 624.147 306.132C624.032 306.605 623.974 306.844 623.974 306.849C623.974 306.882 623.996 306.901 624.04 306.907C624.084 306.912 624.186 306.921 624.345 306.932H624.551C624.584 306.97 624.601 306.995 624.601 307.006C624.601 307.017 624.593 307.066 624.576 307.154C624.56 307.22 624.543 307.261 624.527 307.278C624.51 307.294 624.474 307.305 624.419 307.311C624.408 307.311 624.378 307.311 624.329 307.311C624.279 307.311 624.186 307.308 624.049 307.303C623.911 307.297 623.741 307.294 623.537 307.294C623.153 307.294 622.908 307.3 622.804 307.311H622.738C622.699 307.272 622.68 307.242 622.68 307.22C622.691 307.072 622.727 306.976 622.787 306.932H622.952C623.139 306.926 623.246 306.893 623.274 306.833C623.29 306.8 623.458 306.143 623.777 304.863C624.095 303.582 624.263 302.904 624.279 302.827C624.285 302.799 624.288 302.761 624.288 302.711C624.288 302.486 624.219 302.373 624.081 302.373C623.961 302.373 623.859 302.45 623.777 302.604C623.694 302.758 623.631 302.926 623.587 303.107C623.543 303.288 623.51 303.387 623.488 303.404C623.477 303.415 623.433 303.42 623.356 303.42H623.241C623.208 303.387 623.191 303.363 623.191 303.346ZM624.469 304.871C624.59 305.289 624.793 305.497 625.079 305.497C625.244 305.497 625.403 305.434 625.557 305.308C625.711 305.181 625.837 305.022 625.936 304.83C626.035 304.643 626.134 304.346 626.233 303.939C626.332 303.533 626.384 303.231 626.389 303.033V302.983C626.389 302.577 626.222 302.373 625.887 302.373C625.826 302.373 625.766 302.382 625.705 302.398C625.645 302.415 625.584 302.439 625.524 302.472C625.464 302.505 625.409 302.541 625.359 302.579C625.31 302.618 625.263 302.659 625.219 302.703C625.175 302.747 625.134 302.788 625.095 302.827C625.057 302.865 625.027 302.904 625.005 302.942C624.983 302.981 624.961 303.008 624.939 303.025L624.914 303.058C624.914 303.063 624.906 303.101 624.889 303.173C624.873 303.244 624.843 303.365 624.799 303.536C624.755 303.706 624.716 303.849 624.683 303.964C624.54 304.547 624.469 304.849 624.469 304.871Z" fill="black"/>
</svg>
