<svg width="1402" height="502" viewBox="0 0 1402 502" fill="none" xmlns="http://www.w3.org/2000/svg">
<rect width="1402" height="502" fill="white"/>
<path d="M934 232C961 200 960 152 934 120C932.388 118.016 929.498 115.95 925.475 113.848C893.987 102.632 842 214.5 829 258C829 258 901.342 270.706 934 232Z" fill="#D9D9D9"/>
<path d="M452 458C532.393 474.208 657.464 504.117 746 425C793 383 829 258 829 258C842 214.5 893.987 102.632 925.475 113.848C864.61 82.0572 544.362 42.3039 466 160C410.378 243.542 328 433 452 458Z" fill="white"/>
<path d="M934 120C960 152 961 200 934 232C901.342 270.706 829 258 829 258M934 120C931.582 117.023 928.705 114.999 925.475 113.848M934 120C932.388 118.016 929.498 115.95 925.475 113.848M829 258C829 258 793 383 746 425C657.464 504.117 532.393 474.208 452 458C328 433 410.378 243.542 466 160C544.362 42.3039 864.61 82.0572 925.475 113.848M829 258C842 214.5 893.987 102.632 925.475 113.848" stroke="black"/>
<path d="M631 474C631 474 655.557 331.462 698 254C764.298 133 837 91 837 91" stroke="black"/>
<path d="M856.5 260C856.5 260 898 258 898 126.5" stroke="black"/>
<path d="M479 464C479 464 503.557 321.462 546 244C612.298 123 685 81 685 81" stroke="black"/>
<path d="M389.5 343.5C389.5 343.5 393.5 309.5 428 251C498.088 132.155 550.5 102 550.5 102" stroke="black"/>
<path d="M542 223L535.831 229.078L544.18 231.381L542 223ZM518.723 310.199L540.928 229.706L539.482 229.308L517.277 309.801L518.723 310.199Z" fill="#0038FF"/>
<path d="M499 348L493.463 354.659L501.998 356.125L499 348ZM482.739 447.127L498.597 354.78L497.118 354.526L481.261 446.873L482.739 447.127Z" fill="#0038FF"/>
<path d="M673 70L664.942 73.1727L671.719 78.5649L673 70ZM599.587 163.467L669.384 75.7489L668.21 74.8149L598.413 162.533L599.587 163.467Z" fill="#0038FF"/>
<path d="M833 70L824.942 73.1727L831.719 78.5649L833 70ZM759.587 163.467L829.384 75.7489L828.21 74.8149L758.413 162.533L759.587 163.467Z" fill="#0038FF"/>
<path d="M843 309L850.304 304.347L842.622 300.348L843 309ZM880.335 235.654L845.451 302.666L846.782 303.359L881.665 236.346L880.335 235.654Z" fill="#0038FF"/>
<path d="M898 223L902.33 215.5H893.67L898 223ZM897.25 150V216.25H898.75V150H897.25Z" fill="#0038FF"/>
<path d="M761 141L753.565 145.441L761.129 149.659L761 141ZM703.655 245.365L758.367 147.261L757.057 146.53L702.345 244.635L703.655 245.365Z" fill="#0038FF"/>
<path d="M604 140L596.565 144.441L604.129 148.659L604 140ZM546.655 244.365L601.367 146.261L600.057 145.53L545.345 243.635L546.655 244.365Z" fill="#0038FF"/>
<path d="M509 117L501.441 121.226L508.88 125.659L509 117ZM450.644 216.384L506.189 123.182L504.9 122.414L449.356 215.616L450.644 216.384Z" fill="#0038FF"/>
<path d="M566 65L557.942 68.1727L564.719 73.5649L566 65ZM492.587 158.467L562.384 70.7489L561.21 69.8149L491.413 157.533L492.587 158.467Z" fill="#0038FF"/>
<path d="M651 358L645.463 364.659L653.998 366.125L651 358ZM634.739 457.127L650.597 364.78L649.118 364.526L633.261 456.873L634.739 457.127Z" fill="#0038FF"/>
<path d="M443 209L436.027 214.136L443.961 217.607L443 209ZM408.687 289.301L440.982 215.485L439.607 214.883L407.313 288.699L408.687 289.301Z" fill="#0038FF"/>
<path d="M685 260L678.831 266.078L687.18 268.381L685 260ZM661.723 347.199L683.928 266.706L682.482 266.308L660.277 346.801L661.723 347.199Z" fill="#0038FF"/>
<path d="M805.284 393.01C805.284 392.864 804.589 392.767 803.2 392.718C802.615 392.718 802.238 392.706 802.067 392.681C801.897 392.657 801.811 392.535 801.811 392.316C801.811 392.291 801.836 392.157 801.885 391.914C801.909 391.841 801.933 391.755 801.958 391.658C801.982 391.56 801.994 391.5 801.994 391.475C801.994 391.451 802.019 391.39 802.067 391.292C802.116 391.195 802.14 391.158 802.14 391.183C802.14 391.207 802.189 391.183 802.287 391.11C802.384 391.037 802.445 391.012 802.469 391.037C802.494 391.061 802.591 391.061 802.762 391.037C802.932 391.012 803.078 391 803.2 391C803.346 391 803.712 391 804.297 391C804.882 391 805.43 391.012 805.942 391.037C807.866 391.037 808.975 391.037 809.268 391.037C809.56 391.037 809.755 391.097 809.852 391.219C809.877 391.317 810.327 394.752 811.205 401.526L812.52 411.724L813.361 410.371C813.946 409.494 814.726 408.276 815.7 406.716C816.675 405.157 817.747 403.451 818.917 401.599C823.181 394.801 825.337 391.378 825.386 391.329C825.41 391.305 825.447 391.268 825.496 391.219C825.544 391.171 825.593 391.134 825.642 391.11L825.861 391.037H829.37C829.784 391.037 830.271 391.037 830.832 391.037C831.392 391.037 831.746 391.024 831.892 391C832.72 391 833.135 391.134 833.135 391.402C833.135 391.524 833.098 391.731 833.025 392.023C832.952 392.316 832.915 392.474 832.915 392.499C832.818 392.645 832.367 392.718 831.563 392.718C830.588 392.742 829.967 392.779 829.699 392.827C829.431 392.876 829.212 393.01 829.041 393.23C828.968 393.351 828.091 396.799 826.409 403.573C824.728 410.347 823.875 413.77 823.851 413.844C823.851 413.941 823.863 414.002 823.887 414.026C823.912 414.051 823.997 414.099 824.143 414.173C824.289 414.246 824.497 414.27 824.765 414.246C825.033 414.221 825.435 414.246 825.971 414.319H827.104C827.25 414.538 827.323 414.672 827.323 414.721C827.323 415.111 827.238 415.476 827.067 415.817C826.945 415.939 826.75 416 826.482 416C826.361 416 825.861 415.988 824.984 415.963C824.107 415.939 822.986 415.927 821.621 415.927C820.135 415.927 819.014 415.927 818.259 415.927C817.503 415.927 817.077 415.939 816.98 415.963C816.565 415.963 816.358 415.842 816.358 415.598C816.358 415.549 816.383 415.379 816.431 415.086C816.529 414.696 816.626 414.477 816.724 414.428C816.821 414.38 817.101 414.343 817.564 414.319C818.222 414.319 818.953 414.282 819.757 414.209C820.098 414.136 820.33 413.99 820.452 413.77C820.5 413.673 820.963 411.894 821.841 408.434C822.718 404.974 823.583 401.526 824.436 398.091C825.289 394.655 825.715 392.937 825.715 392.937L818.624 404.231C813.848 411.833 811.4 415.695 811.278 415.817C811.229 415.842 811.18 415.866 811.132 415.89C811.01 415.963 810.815 416 810.547 416C810.181 416 809.962 415.915 809.889 415.744C809.84 415.647 809.341 411.87 808.39 404.414L806.965 393.193L804.48 403.061C802.847 409.543 802.031 412.893 802.031 413.113C802.177 413.917 803.054 414.319 804.662 414.319H805.028C805.174 414.441 805.259 414.55 805.284 414.648C805.308 414.745 805.271 414.964 805.174 415.306C805.077 415.695 804.979 415.915 804.882 415.963C804.784 415.988 804.65 416 804.48 416C804.431 416 804.285 416 804.041 416C803.797 416 803.383 415.988 802.798 415.963C802.213 415.939 801.434 415.927 800.459 415.927C799.728 415.927 798.973 415.939 798.193 415.963C797.413 415.988 796.962 416 796.841 416C796.475 416 796.244 415.976 796.146 415.927C796.049 415.878 796 415.769 796 415.598C796 415.549 796.037 415.379 796.11 415.086C796.183 414.794 796.244 414.611 796.292 414.538C796.341 414.392 796.609 414.319 797.096 414.319C798.802 414.319 799.886 413.831 800.349 412.857C800.447 412.711 801.288 409.445 802.871 403.061C804.455 396.677 805.259 393.327 805.284 393.01Z" fill="black"/>
<path d="M661.597 42.9975H661.523C661.174 42.9975 661 42.8606 661 42.5869C661 42.4873 661.037 42.2882 661.112 41.9896C661.212 41.6412 661.299 41.4421 661.373 41.3923C661.448 41.3425 661.684 41.3052 662.083 41.2803C664.223 41.2057 665.903 40.5586 667.122 39.3392C667.371 39.0903 668.814 37.5224 671.452 34.6356C674.09 31.7487 675.397 30.2804 675.372 30.2306C672.659 23.3121 671.241 19.7907 671.116 19.6662C670.892 19.3925 670.109 19.2432 668.765 19.2183H667.719C667.57 19.069 667.495 18.9694 667.495 18.9196C667.495 18.8699 667.52 18.6334 667.57 18.2104C667.67 17.8868 667.794 17.6504 667.943 17.5011H668.466C669.312 17.5509 670.818 17.5758 672.983 17.5758C673.804 17.5758 674.563 17.5758 675.26 17.5758C675.957 17.5758 676.517 17.5633 676.94 17.5384C677.363 17.5135 677.612 17.5135 677.687 17.5384C678.11 17.5384 678.321 17.6753 678.321 17.9491C678.321 17.9739 678.296 18.1357 678.246 18.4343C678.147 18.8076 678.06 19.0316 677.985 19.1063C677.91 19.1809 677.711 19.2183 677.388 19.2183C676.616 19.2929 675.944 19.5045 675.372 19.8529L678.246 27.0949L680.225 24.8924C682.838 22.0802 684.145 20.5248 684.145 20.2262C684.145 19.7782 683.846 19.4671 683.249 19.2929C683.124 19.2929 682.962 19.268 682.763 19.2183C682.39 19.2183 682.203 19.0814 682.203 18.8076C682.203 18.7579 682.228 18.5588 682.278 18.2104C682.378 17.8868 682.502 17.6504 682.651 17.5011H683.099C683.124 17.5011 683.435 17.5011 684.033 17.5011C684.63 17.5011 685.302 17.526 686.048 17.5758C686.795 17.6255 687.305 17.638 687.579 17.6131C689.819 17.6131 691.051 17.5758 691.275 17.5011H691.573C691.747 17.6753 691.835 17.8122 691.835 17.9117C691.785 18.5339 691.636 18.9694 691.387 19.2183H690.789C689.943 19.2432 689.184 19.3552 688.512 19.5542C687.84 19.7533 687.33 19.9649 686.982 20.1889C686.633 20.4128 686.335 20.6368 686.086 20.8608L685.675 21.1968C685.675 21.1719 684.493 22.466 682.129 25.0791L678.881 28.6628C678.881 28.6877 679.267 29.6831 680.038 31.6492C680.81 33.6152 681.619 35.631 682.465 37.6966C683.311 39.7622 683.771 40.8324 683.846 40.907C684.095 41.131 684.854 41.2554 686.123 41.2803C686.994 41.2803 687.43 41.3923 687.43 41.6163C687.43 41.6661 687.405 41.8403 687.355 42.1389C687.255 42.5371 687.168 42.7735 687.094 42.8482C687.019 42.9228 686.845 42.9602 686.571 42.9602C686.496 42.9602 686.086 42.9602 685.339 42.9602C684.593 42.9602 683.485 42.9477 682.017 42.9228C680.499 42.9228 679.341 42.9228 678.545 42.9228C677.749 42.9228 677.313 42.9353 677.239 42.9602C676.815 42.9602 676.604 42.8482 676.604 42.6242C676.604 42.5993 676.629 42.4127 676.679 42.0642C676.728 41.8154 676.778 41.6412 676.828 41.5416C676.878 41.4421 676.94 41.3799 677.015 41.355C677.089 41.3301 677.201 41.3052 677.351 41.2803C677.5 41.2554 677.699 41.243 677.948 41.243C678.197 41.243 678.52 41.1559 678.918 40.9817C679.341 40.7826 679.553 40.6581 679.553 40.6084C679.528 40.6084 678.943 39.1525 677.799 36.2408L676.044 31.8358C671.365 36.9127 668.964 39.588 668.839 39.8618C668.74 40.0609 668.69 40.2102 668.69 40.3097C668.69 40.7826 669.051 41.0937 669.773 41.243C669.797 41.243 669.872 41.243 669.997 41.243C670.121 41.243 670.196 41.2554 670.221 41.2803C670.295 41.2803 670.345 41.2803 670.37 41.2803C670.395 41.2803 670.432 41.2928 670.482 41.3176C670.532 41.3425 670.569 41.3799 670.594 41.4296C670.619 41.4794 670.631 41.5665 670.631 41.6909C670.631 41.9149 670.606 42.114 670.556 42.2882C670.482 42.6118 670.407 42.7984 670.333 42.8482C670.258 42.898 670.071 42.9353 669.773 42.9602C669.698 42.9602 669.474 42.9602 669.101 42.9602C668.727 42.9602 668.205 42.9477 667.533 42.9228C666.861 42.898 666.127 42.898 665.33 42.9228C663.389 42.9228 662.145 42.9477 661.597 42.9975Z" fill="black"/>
<path d="M704.445 33.665C704.445 30.6288 705.465 28.1401 707.506 26.199C709.546 24.2578 711.96 23.1504 714.748 22.8766C714.773 22.8766 714.984 22.8766 715.382 22.8766C715.781 22.8766 716.303 22.8642 716.95 22.8393C717.597 22.8144 718.219 22.8144 718.817 22.8393H722.512C722.886 23.0384 723.072 23.2872 723.072 23.5859C723.072 23.8099 722.911 24.0463 722.587 24.2951L718.705 24.3325C715.942 24.3574 714.238 24.432 713.591 24.5565C712.371 24.8551 711.289 25.3031 710.343 25.9003C709.397 26.4976 708.663 27.1073 708.14 27.7295C707.618 28.3517 707.17 29.0361 706.796 29.7827C706.423 30.5293 706.199 31.1265 706.125 31.5745C706.05 32.0225 705.988 32.4455 705.938 32.8437V32.9184H722.512C722.886 33.1175 723.072 33.3663 723.072 33.665C723.072 33.9636 722.886 34.2125 722.512 34.4116H705.938V34.4862C705.938 35.0089 706.062 35.6435 706.311 36.3901C706.56 37.1367 706.971 37.9455 707.543 38.8165C708.115 39.6876 708.912 40.4839 709.932 41.2056C710.953 41.9274 712.16 42.4375 713.553 42.7362C714.225 42.8855 715.942 42.9726 718.705 42.9975H722.587C722.911 43.2464 723.072 43.4952 723.072 43.7441C723.072 44.0427 722.886 44.2916 722.512 44.4907H718.891C718.717 44.4907 718.406 44.4907 717.958 44.4907C717.51 44.4907 717.149 44.5031 716.876 44.528C713.018 44.528 709.97 43.4579 707.73 41.3176C705.54 39.2769 704.445 36.726 704.445 33.665Z" fill="black"/>
<path d="M740.162 23.9219L739.49 23.3246L742.141 20.4875C743.584 18.9197 744.555 17.8869 745.052 17.3891L745.426 17.4265C746.446 17.5509 747.305 17.7749 748.001 18.0984C748.698 18.4219 749.258 18.8699 749.681 19.4423C750.104 20.0147 750.415 20.5497 750.614 21.0475C750.814 21.5452 751.05 22.2296 751.324 23.1006L751.51 23.7352L751.734 23.3246C752.556 21.5079 754.011 19.94 756.102 18.621C756.475 18.3473 757.272 17.9118 758.491 17.3145C758.541 17.3145 758.653 17.5136 758.827 17.9118C759.001 18.3099 759.213 18.7703 759.462 19.293C759.711 19.8156 759.91 20.1764 760.059 20.3755C760.407 20.8235 760.855 21.0475 761.403 21.0475C761.701 21.0475 762.05 20.9479 762.448 20.7488L763.045 20.4875V21.1595L759.238 23.3619C758.64 23.1131 757.981 22.6402 757.259 21.9434C756.537 21.2466 756.015 20.6244 755.691 20.0769C754.422 21.147 753.464 22.4785 752.817 24.0712C752.17 25.664 751.797 27.2318 751.697 28.7748V29.2974H758.267L757.595 30.044C757.545 30.1187 757.483 30.1933 757.408 30.268C757.334 30.3426 757.272 30.4173 757.222 30.492C757.172 30.5666 757.122 30.6288 757.073 30.6786C757.023 30.7284 756.985 30.7782 756.961 30.8279L756.923 30.8653H756.774C756.674 30.8653 756.015 30.8155 754.795 30.7159C753.576 30.6164 752.618 30.5542 751.921 30.5293H751.697V30.8653C751.697 34.0259 752.307 36.5394 753.526 38.4059C754.596 40.1231 756.015 40.9817 757.782 40.9817C758.429 40.9817 759.063 40.8573 759.686 40.6084C760.308 40.3595 760.818 40.1107 761.216 39.8618L761.813 39.4512V40.2351L757.67 43.5948L757.222 43.7441C756.6 43.9183 756.09 44.0054 755.691 44.0054C755.194 44.0054 754.733 43.9308 754.31 43.7815C753.887 43.6321 753.501 43.433 753.153 43.1842C752.804 42.9353 752.481 42.6367 752.182 42.2883C751.884 41.9398 751.635 41.5914 751.436 41.243C751.237 40.8946 751.038 40.5213 750.838 40.1231C750.639 39.7249 750.502 39.3765 750.428 39.0779C750.353 38.7792 750.254 38.493 750.129 38.2193C750.005 37.9455 749.942 37.734 749.942 37.5847L749.905 37.3607C749.831 37.3607 749.607 37.5473 749.233 37.9206C748.86 38.2939 748.3 38.8539 747.553 39.6005C746.807 40.3471 746.035 41.019 745.239 41.6163C743.248 43.0846 741.767 43.8188 740.797 43.8188C740.224 43.8188 739.677 43.657 739.154 43.3335C738.631 43.01 738.246 42.6864 737.997 42.3629C737.748 42.0394 737.624 41.8527 737.624 41.803C737.624 41.7781 737.997 41.3301 738.743 40.4591L739.789 39.2272C739.988 39.7249 740.349 40.1853 740.871 40.6084C741.394 41.0315 742.016 41.243 742.738 41.243C743.758 41.243 744.803 40.7826 745.874 39.8618C747.193 38.7668 748.138 37.0496 748.711 34.7103C748.935 33.6899 749.071 32.57 749.121 31.3506V30.5293H748.225C745.388 30.5293 743.534 30.6537 742.663 30.9026H742.588C742.613 30.8528 742.875 30.5542 743.372 30.0067L743.97 29.2974H749.121V28.1402C749.047 25.4026 748.698 23.5113 748.076 22.466C747.752 21.9683 747.329 21.5328 746.807 21.1595C746.284 20.7862 745.699 20.5871 745.052 20.5622C744.48 20.5622 743.907 20.7115 743.335 21.0101C742.763 21.3088 742.315 21.6074 741.991 21.9061C741.668 22.2047 741.294 22.6029 740.871 23.1006C740.448 23.5984 740.212 23.8721 740.162 23.9219Z" fill="black"/>
<path d="M766.928 33.665C766.928 31.9478 767.052 30.3178 767.301 28.7748C767.55 27.2318 767.836 25.9004 768.16 24.7805C768.483 23.6606 768.943 22.5656 769.541 21.4954C770.138 20.4253 770.611 19.5916 770.959 18.9943C771.308 18.397 771.83 17.75 772.527 17.0532C773.224 16.3563 773.635 15.9333 773.759 15.7839C773.884 15.6346 774.195 15.3733 774.692 15H775.178H775.327C775.675 15 775.85 15.112 775.85 15.336C775.85 15.4106 775.638 15.6719 775.215 16.1199C774.792 16.5679 774.282 17.2274 773.684 18.0984C773.087 18.9694 772.477 20.0396 771.855 21.3088C771.233 22.578 770.71 24.2952 770.287 26.4603C769.864 28.6255 769.653 31.027 769.653 33.665C769.653 36.303 769.864 38.6921 770.287 40.8324C770.71 42.9726 771.221 44.7023 771.818 46.0212C772.415 47.3402 773.025 48.4104 773.647 49.2316C774.269 50.0529 774.792 50.7124 775.215 51.2101C775.638 51.7079 775.85 51.9692 775.85 51.994C775.85 52.218 775.663 52.33 775.29 52.33H775.178H774.692L773.647 51.4341C771.308 49.3187 769.603 46.6807 768.533 43.5201C767.463 40.3595 766.928 37.0745 766.928 33.665Z" fill="black"/>
<path d="M788.728 19.5169C788.728 19.3676 788.019 19.2681 786.601 19.2183C786.003 19.2183 785.618 19.2058 785.443 19.1809C785.269 19.1561 785.182 19.0316 785.182 18.8076C785.182 18.7828 785.207 18.6459 785.257 18.397C785.282 18.3224 785.306 18.2353 785.331 18.1357C785.356 18.0362 785.369 17.9739 785.369 17.9491C785.369 17.9242 785.394 17.862 785.443 17.7624C785.493 17.6629 785.518 17.6255 785.518 17.6504C785.518 17.6753 785.568 17.6504 785.667 17.5758C785.767 17.5011 785.829 17.4762 785.854 17.5011C785.879 17.526 785.978 17.526 786.153 17.5011C786.327 17.4762 786.476 17.4638 786.601 17.4638C786.75 17.4638 787.123 17.4638 787.72 17.4638C788.318 17.4638 788.878 17.4762 789.4 17.5011C791.366 17.5011 792.499 17.5011 792.797 17.5011C793.096 17.5011 793.295 17.5633 793.395 17.6877C793.42 17.7873 793.88 21.2963 794.776 28.2148L796.12 38.6299L796.978 37.2487C797.576 36.3528 798.372 35.1084 799.367 33.5157C800.363 31.9229 801.458 30.1809 802.652 28.2895C807.008 21.3461 809.21 17.8495 809.26 17.7997C809.285 17.7748 809.322 17.7375 809.372 17.6877C809.422 17.638 809.471 17.6006 809.521 17.5758L809.745 17.5011H813.329C813.752 17.5011 814.25 17.5011 814.822 17.5011C815.394 17.5011 815.755 17.4887 815.905 17.4638C816.751 17.4638 817.174 17.6006 817.174 17.8744C817.174 17.9988 817.137 18.2104 817.062 18.509C816.987 18.8076 816.95 18.9694 816.95 18.9943C816.85 19.1436 816.39 19.2183 815.569 19.2183C814.573 19.2432 813.939 19.2805 813.665 19.3303C813.391 19.38 813.167 19.5169 812.993 19.7409C812.918 19.8653 812.022 23.3868 810.305 30.3053C808.588 37.2238 807.717 40.7204 807.692 40.795C807.692 40.8946 807.704 40.9568 807.729 40.9817C807.754 41.0066 807.841 41.0563 807.991 41.131C808.14 41.2057 808.352 41.2305 808.625 41.2057C808.899 41.1808 809.31 41.2057 809.857 41.2803H811.014C811.164 41.5043 811.238 41.6412 811.238 41.6909C811.238 42.0891 811.151 42.4624 810.977 42.8108C810.853 42.9353 810.654 42.9975 810.38 42.9975C810.255 42.9975 809.745 42.9851 808.849 42.9602C807.953 42.9353 806.809 42.9228 805.415 42.9228C803.897 42.9228 802.752 42.9228 801.981 42.9228C801.209 42.9228 800.774 42.9353 800.674 42.9602C800.251 42.9602 800.039 42.8357 800.039 42.5869C800.039 42.5371 800.064 42.3629 800.114 42.0642C800.214 41.6661 800.313 41.4421 800.413 41.3923C800.512 41.3425 800.798 41.3052 801.271 41.2803C801.943 41.2803 802.69 41.243 803.511 41.1683C803.859 41.0937 804.096 40.9443 804.22 40.7204C804.27 40.6208 804.743 38.8041 805.639 35.2702C806.535 31.7363 807.418 28.2148 808.289 24.7058C809.16 21.1968 809.596 19.4423 809.596 19.4423L802.354 30.9772C797.476 38.7419 794.975 42.6864 794.851 42.8108C794.801 42.8357 794.751 42.8606 794.701 42.8855C794.577 42.9602 794.378 42.9975 794.104 42.9975C793.731 42.9975 793.507 42.9104 793.432 42.7362C793.382 42.6366 792.872 38.7792 791.901 31.1639L790.446 19.7036L787.907 29.7827C786.24 36.4025 785.406 39.8244 785.406 40.0484C785.555 40.8697 786.451 41.2803 788.094 41.2803H788.467C788.616 41.4048 788.704 41.5167 788.728 41.6163C788.753 41.7158 788.716 41.9398 788.616 42.2882C788.517 42.6864 788.417 42.9104 788.318 42.9602C788.218 42.9851 788.081 42.9975 787.907 42.9975C787.857 42.9975 787.708 42.9975 787.459 42.9975C787.21 42.9975 786.787 42.9851 786.19 42.9602C785.593 42.9353 784.796 42.9228 783.801 42.9228C783.054 42.9228 782.283 42.9353 781.486 42.9602C780.69 42.9851 780.23 42.9975 780.105 42.9975C779.732 42.9975 779.495 42.9726 779.396 42.9228C779.296 42.8731 779.247 42.7611 779.247 42.5869C779.247 42.5371 779.284 42.3629 779.359 42.0642C779.433 41.7656 779.495 41.579 779.545 41.5043C779.595 41.355 779.869 41.2803 780.366 41.2803C782.109 41.2803 783.216 40.7826 783.689 39.7871C783.788 39.6378 784.647 36.303 786.265 29.7827C787.882 23.2624 788.704 19.8404 788.728 19.5169Z" fill="black"/>
<path d="M819.414 15.0373L819.563 15C819.687 15 819.812 15 819.936 15H820.384L821.429 15.8959C823.769 18.0113 825.474 20.6493 826.544 23.8099C827.614 26.9705 828.149 30.2555 828.149 33.665C828.149 35.3573 828.024 36.9874 827.776 38.5552C827.527 40.1231 827.241 41.4545 826.917 42.5496C826.593 43.6446 826.133 44.7396 825.536 45.8346C824.939 46.9296 824.466 47.7633 824.117 48.3357C823.769 48.9081 823.259 49.5427 822.587 50.2395C821.915 50.9364 821.517 51.347 821.392 51.4714C821.268 51.5959 820.982 51.8323 820.534 52.1807C820.459 52.2554 820.409 52.3051 820.384 52.33H819.936C819.737 52.33 819.6 52.33 819.526 52.33C819.451 52.33 819.389 52.2927 819.339 52.218C819.289 52.1434 819.252 52.0314 819.227 51.8821C819.252 51.8572 819.389 51.6954 819.638 51.3968C823.495 47.39 825.424 41.4794 825.424 33.665C825.424 25.8506 823.495 19.94 819.638 15.9333C819.389 15.6346 819.252 15.4728 819.227 15.448C819.227 15.2489 819.289 15.112 819.414 15.0373Z" fill="black"/>
</svg>
