<svg width="816" height="382" viewBox="0 0 816 382" fill="none" xmlns="http://www.w3.org/2000/svg">
<path d="M235.729 119.766C288.365 66.2385 354.978 19.424 397.037 4.5173C421.307 9.37414 481.107 23.0996 544.298 37.6034C549.775 38.8606 555.278 40.1236 560.785 41.3871C628.93 57.022 697.772 72.7459 727.608 78.5642C662.394 117.051 595.321 169.908 546.437 223.036C521.853 249.754 501.855 276.555 489.01 301.644C476.272 326.526 470.538 349.784 474.416 369.627C429.365 380.433 364.304 371.419 303.513 352.344C242.568 333.221 186.064 304.032 158.439 274.737C151.552 254.119 157.641 228.823 172.101 201.921C186.576 174.992 209.389 146.552 235.729 119.766Z" stroke="black"/>
<path d="M240 195C240 195 305.191 146.353 373.186 132.454C433.215 120.183 526 132.454 526 132.454" stroke="black"/>
<path d="M277.279 302.778L117.82 222.137L227.647 92.502L387.105 173.144L277.279 302.778Z" fill="#D9D9D9" fill-opacity="0.3" stroke="black"/>
<path d="M542.722 199.964L381.947 163.827L505.465 62.5697L666.24 98.7071L542.722 199.964Z" fill="#D9D9D9" fill-opacity="0.3" stroke="black"/>
<path d="M166 193L173.5 197.33L173.5 188.67L166 193ZM241 192.25L172.75 192.25L172.75 193.75L241 193.75L241 192.25Z" fill="#00008B"/>
<path d="M486 94L488.241 102.365L494.365 96.2414L486 94ZM523.53 130.47L491.303 98.2426L490.243 99.3033L522.47 131.53L523.53 130.47Z" fill="#00008B"/>
<circle cx="240.5" cy="193.5" r="3.5" fill="black"/>
<circle cx="522.5" cy="131.5" r="3.5" fill="black"/>
<g clip-path="url(#clip0_1_145)">
<path d="M205.495 209.825C205.509 209.783 205.523 209.726 205.538 209.655C205.552 209.585 205.588 209.429 205.645 209.189C205.702 208.948 205.774 208.729 205.86 208.531C205.946 208.333 206.054 208.099 206.183 207.831C206.312 207.562 206.455 207.35 206.613 207.194C206.77 207.039 206.957 206.883 207.172 206.727C207.387 206.572 207.623 206.508 207.881 206.536C208.957 206.536 209.645 206.989 209.946 207.894L210.161 207.703C211.05 206.925 211.895 206.536 212.698 206.536C213.63 206.536 214.361 206.869 214.892 207.534C215.422 208.198 215.687 209.005 215.687 209.952C215.687 211.48 215.142 212.888 214.053 214.175C212.963 215.462 211.731 216.113 210.354 216.127C210.039 216.127 209.759 216.084 209.516 216C209.358 215.929 209.193 215.823 209.021 215.681C208.849 215.54 208.713 215.42 208.613 215.321L208.462 215.151C208.448 215.165 208.29 215.78 207.989 216.997C207.688 218.213 207.537 218.829 207.537 218.843C207.537 218.928 207.595 218.977 207.709 218.991C207.824 219.006 208.089 219.027 208.505 219.055H209.043C209.129 219.154 209.172 219.218 209.172 219.246C209.172 219.274 209.15 219.402 209.107 219.628C209.064 219.798 209.021 219.904 208.978 219.946C208.935 219.989 208.842 220.017 208.699 220.031C208.67 220.031 208.591 220.031 208.462 220.031C208.333 220.031 208.089 220.024 207.731 220.01C207.373 219.996 206.928 219.989 206.398 219.989C205.394 219.989 204.756 220.003 204.484 220.031H204.312C204.212 219.932 204.161 219.854 204.161 219.798C204.19 219.416 204.283 219.168 204.441 219.055H204.871C205.358 219.041 205.638 218.956 205.71 218.8C205.753 218.716 206.19 217.025 207.021 213.729C207.853 210.433 208.29 208.686 208.333 208.488C208.347 208.418 208.355 208.319 208.355 208.191C208.355 207.611 208.175 207.321 207.817 207.321C207.502 207.321 207.236 207.519 207.021 207.916C206.806 208.312 206.641 208.743 206.527 209.21C206.412 209.677 206.326 209.931 206.269 209.974C206.24 210.002 206.125 210.016 205.925 210.016H205.624C205.538 209.931 205.495 209.868 205.495 209.825ZM208.828 213.75C209.143 214.826 209.673 215.363 210.419 215.363C210.849 215.363 211.265 215.2 211.666 214.875C212.067 214.55 212.397 214.139 212.655 213.644C212.913 213.163 213.171 212.4 213.429 211.353C213.687 210.306 213.824 209.528 213.838 209.019V208.892C213.838 207.845 213.401 207.321 212.526 207.321C212.368 207.321 212.211 207.343 212.053 207.385C211.895 207.428 211.738 207.491 211.58 207.576C211.422 207.661 211.279 207.753 211.15 207.852C211.021 207.951 210.899 208.057 210.784 208.17C210.67 208.283 210.562 208.389 210.462 208.488C210.362 208.587 210.283 208.686 210.225 208.785C210.168 208.884 210.111 208.955 210.053 208.998L209.989 209.083C209.989 209.097 209.967 209.196 209.924 209.38C209.881 209.563 209.802 209.875 209.688 210.313C209.573 210.752 209.473 211.119 209.387 211.417C209.014 212.916 208.828 213.694 208.828 213.75Z" fill="black"/>
<path d="M222.994 208.552C222.994 208.368 223.094 208.227 223.295 208.128H236.993C237.208 208.241 237.315 208.382 237.315 208.552C237.315 208.708 237.215 208.842 237.014 208.955L230.176 208.976H223.338C223.109 208.906 222.994 208.764 222.994 208.552ZM222.994 212.668C222.994 212.456 223.109 212.315 223.338 212.244H237.014C237.215 212.385 237.315 212.527 237.315 212.668C237.315 212.852 237.208 212.994 236.993 213.093H223.295C223.094 212.994 222.994 212.852 222.994 212.668Z" fill="black"/>
<path d="M253.288 201.317C253.345 201.232 253.431 201.189 253.546 201.189H253.718H253.998C254.084 201.274 254.127 201.331 254.127 201.359C254.127 201.458 253.912 202.328 253.481 203.969C253.381 204.365 253.281 204.782 253.18 205.221C253.08 205.659 252.994 205.985 252.922 206.197L252.836 206.536C252.836 206.55 252.901 206.558 253.03 206.558C253.159 206.558 253.388 206.6 253.718 206.685C254.048 206.77 254.392 206.89 254.75 207.046C255.381 207.343 255.904 207.774 256.32 208.34C256.736 208.906 256.944 209.592 256.944 210.398C256.944 211.204 256.721 211.975 256.277 212.711C255.832 213.446 255.281 214.055 254.621 214.536C253.962 215.017 253.266 215.398 252.535 215.681C251.804 215.964 251.123 216.113 250.493 216.127H250.406L249.89 218.143C249.804 218.468 249.711 218.857 249.611 219.31C249.496 219.762 249.417 220.031 249.374 220.116C249.331 220.201 249.245 220.25 249.116 220.264H248.987C248.701 220.264 248.557 220.215 248.557 220.116C248.557 220.045 248.715 219.373 249.03 218.1L249.525 216.148C249.525 216.134 249.468 216.127 249.353 216.127C249.281 216.127 249.138 216.113 248.923 216.084C248.708 216.056 248.385 215.957 247.955 215.787C247.525 215.618 247.138 215.406 246.794 215.151C246.45 214.896 246.127 214.521 245.826 214.026C245.525 213.531 245.389 212.951 245.418 212.286C245.418 211.438 245.654 210.639 246.127 209.889C246.6 209.139 247.181 208.531 247.869 208.064C248.557 207.597 249.252 207.229 249.955 206.961C250.657 206.692 251.288 206.558 251.847 206.558C251.919 206.558 251.962 206.529 251.976 206.473L252.621 203.884C253.066 202.201 253.288 201.345 253.288 201.317ZM247.116 212.732C247.116 213.213 247.202 213.63 247.375 213.984C247.547 214.338 247.783 214.606 248.084 214.79C248.385 214.974 248.643 215.101 248.858 215.172C249.073 215.243 249.317 215.299 249.589 215.342H249.74L251.74 207.343C251.682 207.343 251.604 207.35 251.503 207.364C251.403 207.378 251.195 207.435 250.88 207.534C250.564 207.633 250.263 207.746 249.976 207.873C249.69 208 249.374 208.206 249.03 208.488C248.686 208.771 248.392 209.097 248.149 209.464C247.891 209.861 247.654 210.334 247.439 210.886C247.224 211.537 247.116 212.152 247.116 212.732ZM255.245 209.931C255.245 209.394 255.13 208.934 254.901 208.552C254.671 208.17 254.385 207.901 254.041 207.746C253.697 207.59 253.417 207.484 253.202 207.428C252.987 207.371 252.815 207.343 252.686 207.343H252.621L251.632 211.31L250.6 215.299C250.6 215.328 250.607 215.342 250.622 215.342C250.736 215.342 250.966 215.299 251.31 215.215C251.654 215.13 251.94 215.031 252.17 214.917C252.786 214.649 253.317 214.274 253.761 213.793C254.205 213.312 254.521 212.817 254.707 212.308C254.894 211.798 255.03 211.346 255.116 210.95C255.202 210.554 255.245 210.214 255.245 209.931Z" fill="black"/>
<path d="M262.037 220.279C261.885 220.409 261.662 220.549 261.368 220.699C261.074 220.849 260.765 220.924 260.441 220.924C259.802 220.924 259.291 220.699 258.905 220.249C258.52 219.799 258.323 219.224 258.312 218.524C258.312 217.474 258.703 216.509 259.483 215.629C260.263 214.749 261.13 214.304 262.083 214.294C262.559 214.294 263 214.534 263.405 215.014L263.451 214.954C263.471 214.924 263.497 214.894 263.527 214.864C263.557 214.834 263.603 214.794 263.664 214.744C263.725 214.694 263.791 214.659 263.861 214.639C263.932 214.619 264.014 214.604 264.105 214.594C264.247 214.594 264.363 214.639 264.454 214.729C264.546 214.819 264.596 214.914 264.606 215.014C264.606 215.164 264.318 216.374 263.74 218.644C263.162 220.914 262.858 222.074 262.828 222.124C262.645 222.664 262.255 223.11 261.657 223.46C261.059 223.81 260.375 223.99 259.605 224C258.176 224 257.461 223.66 257.461 222.979C257.461 222.719 257.552 222.489 257.735 222.289C257.917 222.089 258.15 221.989 258.434 221.989C258.586 221.989 258.728 222.034 258.86 222.124C258.992 222.214 259.062 222.369 259.073 222.589C259.073 222.689 259.062 222.784 259.042 222.874C259.022 222.964 258.986 223.034 258.936 223.085C258.885 223.135 258.845 223.185 258.814 223.235C258.784 223.285 258.748 223.325 258.708 223.355L258.677 223.385H258.693C258.794 223.415 259.098 223.43 259.605 223.43C259.99 223.43 260.294 223.37 260.517 223.25C260.75 223.14 260.968 222.974 261.171 222.754C261.373 222.534 261.515 222.299 261.596 222.049C261.657 221.859 261.738 221.549 261.84 221.119C261.971 220.639 262.037 220.359 262.037 220.279ZM263.147 216.004L263.086 215.839C263.056 215.729 263.03 215.654 263.01 215.614C262.99 215.574 262.959 215.504 262.919 215.404C262.878 215.304 262.828 215.234 262.767 215.194C262.706 215.154 262.64 215.099 262.569 215.029C262.498 214.959 262.407 214.914 262.296 214.894C262.184 214.874 262.073 214.859 261.961 214.849C261.515 214.849 261.084 215.114 260.669 215.644C260.365 216.034 260.111 216.629 259.909 217.429C259.706 218.229 259.605 218.809 259.605 219.169C259.605 219.959 259.919 220.354 260.547 220.354C261.115 220.354 261.672 220.004 262.22 219.304L262.341 219.154L263.147 216.004Z" fill="black"/>
<path d="M265.464 212.965C265.464 212.965 265.464 212.919 265.464 212.827C265.464 212.736 265.514 212.665 265.614 212.615H271.859C271.966 212.672 272.02 212.743 272.02 212.827C272.02 212.912 271.966 212.983 271.859 213.04H265.614C265.514 212.99 265.464 212.919 265.464 212.827V212.965Z" fill="black"/>
<path d="M275.213 209.349L275.073 209.402C274.972 209.437 274.829 209.472 274.643 209.508C274.457 209.543 274.249 209.568 274.019 209.582H273.815V209.094H274.019C274.356 209.08 274.668 209.027 274.955 208.935C275.241 208.843 275.442 208.758 275.556 208.681C275.671 208.603 275.771 208.525 275.857 208.447C275.872 208.426 275.915 208.415 275.986 208.415C276.051 208.415 276.112 208.437 276.169 208.479V211.65L276.18 214.832C276.23 214.881 276.273 214.913 276.309 214.927C276.345 214.942 276.431 214.956 276.567 214.97C276.703 214.984 276.925 214.991 277.233 214.991H277.513V215.479H277.394C277.244 215.458 276.674 215.447 275.685 215.447C274.711 215.447 274.148 215.458 273.998 215.479H273.869V214.991H274.148C274.306 214.991 274.442 214.991 274.557 214.991C274.672 214.991 274.761 214.987 274.826 214.98C274.89 214.973 274.947 214.963 274.998 214.949C275.048 214.934 275.076 214.927 275.084 214.927C275.091 214.927 275.112 214.91 275.148 214.874C275.184 214.839 275.205 214.825 275.213 214.832V209.349Z" fill="black"/>
<path d="M280.246 217.174C280.246 216.934 280.332 216.724 280.504 216.544C280.676 216.364 280.894 216.274 281.158 216.274C281.401 216.274 281.614 216.354 281.796 216.514C281.979 216.674 282.075 216.889 282.085 217.159C282.085 217.409 281.999 217.624 281.827 217.804C281.654 217.984 281.437 218.074 281.173 218.074C280.909 218.074 280.692 217.989 280.519 217.819C280.347 217.649 280.256 217.434 280.246 217.174Z" fill="black"/>
<path d="M283.636 216.619C283.646 216.589 283.656 216.549 283.666 216.499C283.676 216.449 283.702 216.339 283.742 216.169C283.783 215.999 283.833 215.844 283.894 215.704C283.955 215.564 284.031 215.399 284.122 215.209C284.214 215.019 284.315 214.869 284.426 214.759C284.538 214.649 284.67 214.539 284.822 214.429C284.974 214.319 285.141 214.274 285.323 214.294C286.084 214.294 286.57 214.614 286.783 215.254L286.935 215.119C287.563 214.569 288.161 214.294 288.729 214.294C289.388 214.294 289.905 214.529 290.28 214.999C290.655 215.469 290.842 216.039 290.842 216.709C290.842 217.789 290.457 218.784 289.687 219.694C288.916 220.604 288.045 221.064 287.072 221.074C286.849 221.074 286.651 221.044 286.479 220.984C286.367 220.934 286.251 220.859 286.129 220.759C286.008 220.659 285.911 220.574 285.84 220.504L285.734 220.384C285.724 220.394 285.612 220.829 285.399 221.689C285.187 222.549 285.08 222.984 285.08 222.994C285.08 223.054 285.121 223.089 285.202 223.099C285.283 223.109 285.47 223.125 285.764 223.145H286.144C286.205 223.215 286.236 223.26 286.236 223.28C286.236 223.3 286.22 223.39 286.19 223.55C286.16 223.67 286.129 223.745 286.099 223.775C286.068 223.805 286.002 223.825 285.901 223.835C285.881 223.835 285.825 223.835 285.734 223.835C285.643 223.835 285.47 223.83 285.217 223.82C284.964 223.81 284.649 223.805 284.274 223.805C283.565 223.805 283.114 223.815 282.921 223.835H282.8C282.729 223.765 282.693 223.71 282.693 223.67C282.714 223.4 282.779 223.225 282.891 223.145H283.195C283.54 223.135 283.737 223.074 283.788 222.964C283.818 222.904 284.127 221.709 284.715 219.379C285.303 217.049 285.612 215.814 285.643 215.674C285.653 215.624 285.658 215.554 285.658 215.464C285.658 215.054 285.531 214.849 285.278 214.849C285.055 214.849 284.867 214.989 284.715 215.269C284.563 215.549 284.447 215.854 284.366 216.184C284.285 216.514 284.224 216.694 284.183 216.724C284.163 216.744 284.082 216.754 283.94 216.754H283.727C283.666 216.694 283.636 216.649 283.636 216.619ZM285.992 219.394C286.215 220.154 286.59 220.534 287.117 220.534C287.421 220.534 287.715 220.419 287.999 220.189C288.283 219.959 288.516 219.669 288.698 219.319C288.881 218.979 289.063 218.439 289.246 217.699C289.428 216.959 289.524 216.409 289.535 216.049V215.959C289.535 215.219 289.225 214.849 288.607 214.849C288.496 214.849 288.384 214.864 288.273 214.894C288.161 214.924 288.05 214.969 287.938 215.029C287.827 215.089 287.725 215.154 287.634 215.224C287.543 215.294 287.457 215.369 287.376 215.449C287.295 215.529 287.219 215.604 287.148 215.674C287.077 215.744 287.021 215.814 286.98 215.884C286.94 215.954 286.899 216.004 286.859 216.034L286.813 216.094C286.813 216.104 286.798 216.174 286.768 216.304C286.737 216.434 286.682 216.654 286.6 216.964C286.519 217.274 286.448 217.534 286.388 217.744C286.124 218.804 285.992 219.354 285.992 219.394Z" fill="black"/>
<path d="M294.035 210.61C294.035 209.634 294.106 208.708 294.25 207.831C294.393 206.954 294.558 206.197 294.744 205.56C294.931 204.924 295.196 204.301 295.54 203.693C295.884 203.085 296.156 202.611 296.357 202.272C296.558 201.932 296.859 201.564 297.26 201.168C297.662 200.772 297.898 200.532 297.97 200.447C298.041 200.362 298.221 200.213 298.507 200.001H298.787H298.873C299.074 200.001 299.174 200.065 299.174 200.192C299.174 200.235 299.052 200.383 298.808 200.638C298.565 200.892 298.271 201.267 297.927 201.762C297.583 202.257 297.231 202.866 296.873 203.587C296.515 204.308 296.214 205.284 295.97 206.515C295.726 207.746 295.604 209.111 295.604 210.61C295.604 212.11 295.726 213.468 295.97 214.684C296.214 215.901 296.508 216.884 296.852 217.633C297.196 218.383 297.547 218.991 297.905 219.458C298.264 219.925 298.565 220.3 298.808 220.583C299.052 220.866 299.174 221.014 299.174 221.028C299.174 221.156 299.066 221.219 298.851 221.219H298.787H298.507L297.905 220.71C296.558 219.508 295.576 218.008 294.959 216.212C294.343 214.415 294.035 212.548 294.035 210.61Z" fill="black"/>
<path d="M307.066 215.002C306.851 215.186 306.535 215.384 306.12 215.596C305.704 215.809 305.267 215.915 304.808 215.915C303.905 215.915 303.181 215.596 302.636 214.96C302.091 214.323 301.812 213.51 301.797 212.52C301.797 211.035 302.349 209.67 303.453 208.425C304.557 207.18 305.783 206.55 307.13 206.536C307.804 206.536 308.428 206.876 309.001 207.555L309.065 207.47C309.094 207.428 309.13 207.385 309.173 207.343C309.216 207.3 309.28 207.244 309.367 207.173C309.453 207.102 309.546 207.053 309.646 207.024C309.746 206.996 309.861 206.975 309.99 206.961C310.191 206.961 310.356 207.024 310.485 207.152C310.614 207.279 310.685 207.413 310.7 207.555C310.7 207.767 310.291 209.479 309.474 212.69C308.657 215.901 308.227 217.541 308.184 217.612C307.926 218.376 307.374 219.006 306.528 219.501C305.682 219.996 304.715 220.25 303.625 220.264C301.604 220.264 300.593 219.784 300.593 218.822C300.593 218.454 300.722 218.128 300.98 217.846C301.238 217.563 301.568 217.421 301.969 217.421C302.184 217.421 302.385 217.485 302.571 217.612C302.758 217.739 302.858 217.959 302.872 218.27C302.872 218.411 302.858 218.546 302.829 218.673C302.801 218.8 302.751 218.899 302.679 218.97C302.607 219.041 302.55 219.112 302.507 219.182C302.464 219.253 302.414 219.31 302.356 219.352L302.313 219.395H302.335C302.478 219.437 302.908 219.458 303.625 219.458C304.17 219.458 304.6 219.373 304.915 219.204C305.245 219.048 305.553 218.815 305.84 218.503C306.127 218.192 306.327 217.86 306.442 217.506C306.528 217.237 306.643 216.799 306.786 216.191C306.972 215.512 307.066 215.116 307.066 215.002ZM308.635 208.955L308.549 208.722C308.506 208.566 308.471 208.46 308.442 208.404C308.413 208.347 308.37 208.248 308.313 208.106C308.255 207.965 308.184 207.866 308.098 207.809C308.012 207.753 307.919 207.675 307.818 207.576C307.718 207.477 307.589 207.413 307.431 207.385C307.274 207.357 307.116 207.336 306.958 207.321C306.327 207.321 305.718 207.696 305.13 208.446C304.7 208.998 304.342 209.839 304.055 210.971C303.768 212.103 303.625 212.923 303.625 213.432C303.625 214.55 304.07 215.108 304.958 215.108C305.761 215.108 306.55 214.613 307.324 213.623L307.496 213.411L308.635 208.955Z" fill="black"/>
<path d="M311.925 200.022L312.011 200.001C312.083 200.001 312.155 200.001 312.226 200.001H312.484L313.087 200.51C314.434 201.713 315.416 203.212 316.033 205.009C316.649 206.805 316.957 208.672 316.957 210.61C316.957 211.572 316.886 212.499 316.742 213.39C316.599 214.281 316.434 215.038 316.248 215.66C316.061 216.283 315.796 216.905 315.452 217.527C315.108 218.15 314.836 218.624 314.635 218.949C314.434 219.274 314.14 219.635 313.753 220.031C313.366 220.427 313.137 220.661 313.065 220.731C312.993 220.802 312.829 220.936 312.571 221.134C312.527 221.177 312.499 221.205 312.484 221.219H312.226C312.112 221.219 312.033 221.219 311.99 221.219C311.947 221.219 311.911 221.198 311.882 221.156C311.854 221.113 311.832 221.05 311.818 220.965C311.832 220.95 311.911 220.859 312.054 220.689C314.276 218.411 315.387 215.052 315.387 210.61C315.387 206.169 314.276 202.809 312.054 200.532C311.911 200.362 311.832 200.27 311.818 200.256C311.818 200.143 311.854 200.065 311.925 200.022Z" fill="black"/>
</g>
<g clip-path="url(#clip1_1_145)">
<path d="M333.241 75.7947C332.77 75.7947 332.521 75.5827 332.492 75.1588C332.492 75.0175 332.849 73.5196 333.562 70.6652C334.275 67.8108 334.661 66.3411 334.718 66.2564C334.946 65.4792 335.338 64.7232 335.895 63.9884C336.893 62.7731 338.027 62.0666 339.297 61.8687C339.326 61.8687 339.383 61.8687 339.468 61.8687C339.554 61.8687 339.625 61.8617 339.682 61.8475C340.724 61.8475 341.523 62.1867 342.079 62.865C342.635 63.5432 342.914 64.377 342.914 65.3661C342.914 66.1716 342.742 66.9558 342.4 67.7189C342.058 68.482 341.622 69.1249 341.095 69.6478C340.567 70.1706 339.996 70.6016 339.383 70.9407C338.769 71.2799 338.206 71.4424 337.692 71.4282H337.457H337.307C336.579 71.4282 335.987 71.1103 335.531 70.4744L335.424 70.3472L334.846 72.7212C334.489 74.0919 334.283 74.8691 334.226 75.0528C334.168 75.2365 334.083 75.3849 333.969 75.4979C333.74 75.6958 333.498 75.7947 333.241 75.7947ZM341.073 64.3911C341.073 63.8682 340.952 63.4443 340.709 63.1193C340.467 62.7943 340.11 62.6318 339.639 62.6318C339.14 62.6318 338.641 62.8367 338.142 63.2465C337.642 63.6563 337.243 64.1933 336.943 64.8574C336.743 65.2955 336.472 66.214 336.13 67.6129L335.766 69.0543C336.009 70.1282 336.608 70.6652 337.564 70.6652C338.106 70.6652 338.634 70.4108 339.147 69.9021C339.618 69.4782 340.01 68.7999 340.324 67.8673C340.638 66.9346 340.845 66.1716 340.945 65.5781C341.045 64.9846 341.087 64.5889 341.073 64.3911Z" fill="black"/>
<path d="M336.361 59.9611L339.293 57.1208L339.464 57.2903C341.319 59.0426 342.246 59.9328 342.246 59.9611L341.69 60.5758C341.661 60.5616 341.247 60.2084 340.448 59.5159L339.314 58.5409L338.137 59.5371C337.952 59.6926 337.766 59.8551 337.581 60.0247C337.395 60.1942 337.246 60.3285 337.132 60.4274L336.96 60.5546C336.932 60.5828 336.825 60.4839 336.639 60.2578L336.361 59.9611Z" fill="black"/>
<path d="M346.675 65.9172C346.675 64.9422 346.747 64.0166 346.889 63.1405C347.032 62.2644 347.196 61.5084 347.382 60.8725C347.567 60.2366 347.831 59.6149 348.173 59.0072C348.516 58.3996 348.787 57.9262 348.987 57.5871C349.186 57.2479 349.486 56.8805 349.885 56.4849C350.285 56.0892 350.52 55.849 350.592 55.7642C350.663 55.6794 350.841 55.5311 351.127 55.3191H351.405H351.49C351.69 55.3191 351.79 55.3827 351.79 55.5099C351.79 55.5522 351.669 55.7006 351.426 55.955C351.184 56.2093 350.891 56.5838 350.549 57.0784C350.206 57.573 349.857 58.1806 349.5 58.9013C349.144 59.6219 348.844 60.597 348.601 61.8263C348.359 63.0557 348.238 64.4194 348.238 65.9172C348.238 67.4151 348.359 68.7716 348.601 69.9869C348.844 71.2022 349.136 72.1842 349.479 72.9332C349.821 73.6821 350.171 74.2897 350.527 74.7561C350.884 75.2224 351.184 75.5968 351.426 75.8795C351.669 76.1621 351.79 76.3105 351.79 76.3246C351.79 76.4518 351.683 76.5154 351.469 76.5154H351.405H351.127L350.527 76.0066C349.186 74.8055 348.209 73.3076 347.596 71.513C346.982 69.7184 346.675 67.8531 346.675 65.9172Z" fill="black"/>
<path d="M353.716 67.9097C353.716 66.2988 354.329 64.8857 355.556 63.6704C356.783 62.4552 358.131 61.8475 359.601 61.8475C360.599 61.8475 361.398 62.1302 361.997 62.6954C362.596 63.2606 363.003 63.953 363.217 64.7726C363.303 65.1824 363.353 65.6558 363.367 66.1928V66.8075C364.066 65.7618 364.601 64.5889 364.972 63.2889C365.029 63.0911 365.072 62.978 365.1 62.9497C365.129 62.9215 365.243 62.9003 365.442 62.8862C365.742 62.8862 365.892 62.9427 365.892 63.0557C365.892 63.1829 365.828 63.4585 365.699 63.8824C365.571 64.3063 365.314 64.9069 364.929 65.6841C364.544 66.4613 364.109 67.1678 363.624 67.8037L363.388 68.1004L363.41 68.6091C363.438 69.4005 363.495 69.9374 363.581 70.2201C363.666 70.5027 363.802 70.6511 363.987 70.6652C364.187 70.6369 364.373 70.5592 364.544 70.432C364.715 70.3048 364.836 70.1423 364.908 69.9445C364.936 69.8456 364.972 69.7891 365.015 69.7749C365.057 69.7608 365.164 69.7467 365.335 69.7326C365.621 69.7326 365.763 69.7891 365.763 69.9021C365.763 69.9869 365.721 70.1211 365.635 70.3048C365.464 70.644 365.214 70.9125 364.886 71.1103C364.558 71.3081 364.244 71.4141 363.945 71.4283H363.795C362.839 71.4283 362.19 70.9195 361.847 69.9021L361.783 69.7537L361.548 69.9233C361.405 70.0364 361.191 70.1777 360.906 70.3472C360.621 70.5168 360.3 70.6793 359.943 70.8348C359.586 70.9902 359.173 71.1315 358.702 71.2587C358.231 71.3859 357.774 71.4494 357.332 71.4494C356.205 71.4494 355.321 71.0962 354.679 70.3896C354.037 69.6831 353.716 68.8564 353.716 67.9097ZM357.439 70.6652C358.138 70.6652 358.837 70.5168 359.536 70.2201C360.235 69.9233 360.756 69.6195 361.098 69.3086L361.612 68.8423C361.584 66.8216 361.534 65.564 361.462 65.0694C361.263 63.4443 360.606 62.6318 359.494 62.6318C358.509 62.6318 357.646 63.1476 356.904 64.1791C356.519 64.7444 356.205 65.5074 355.963 66.4683C355.72 67.4292 355.592 68.164 355.578 68.6727C355.578 69.3651 355.756 69.8668 356.112 70.1777C356.469 70.4886 356.911 70.6511 357.439 70.6652Z" fill="black"/>
<path d="M367.968 55.3403L368.053 55.3191C368.125 55.3191 368.196 55.3191 368.267 55.3191H368.524L369.123 55.8278C370.464 57.0289 371.441 58.5268 372.055 60.3214C372.668 62.116 372.975 63.9813 372.975 65.9172C372.975 66.8781 372.904 67.8037 372.761 68.6939C372.618 69.5842 372.454 70.3402 372.269 70.9619C372.083 71.5837 371.819 72.2054 371.477 72.8272C371.135 73.449 370.864 73.9223 370.664 74.2474C370.464 74.5724 370.172 74.9327 369.787 75.3284C369.401 75.724 369.173 75.9572 369.102 76.0278C369.03 76.0985 368.866 76.2327 368.61 76.4306C368.567 76.473 368.538 76.5012 368.524 76.5154H368.267C368.153 76.5154 368.075 76.5154 368.032 76.5154C367.989 76.5154 367.953 76.4942 367.925 76.4518C367.896 76.4094 367.875 76.3458 367.861 76.261C367.875 76.2469 367.953 76.155 368.096 75.9854C370.307 73.7104 371.413 70.3543 371.413 65.9172C371.413 61.4801 370.307 58.1241 368.096 55.849C367.953 55.6794 367.875 55.5876 367.861 55.5734C367.861 55.4604 367.896 55.3827 367.968 55.3403Z" fill="black"/>
<path d="M382.151 63.8612C382.151 63.6775 382.251 63.5362 382.45 63.4373H396.082C396.296 63.5503 396.403 63.6916 396.403 63.8612C396.403 64.0166 396.303 64.1509 396.103 64.2639L389.298 64.2851H382.493C382.265 64.2145 382.151 64.0731 382.151 63.8612ZM382.151 67.9733C382.151 67.7613 382.265 67.62 382.493 67.5493H396.103C396.303 67.6906 396.403 67.832 396.403 67.9733C396.403 68.157 396.296 68.2983 396.082 68.3972H382.45C382.251 68.2983 382.151 68.157 382.151 67.9733Z" fill="black"/>
<path d="M412.298 56.6333C412.355 56.5485 412.441 56.5061 412.555 56.5061H412.726H413.004C413.09 56.5909 413.132 56.6474 413.132 56.6757C413.132 56.7746 412.919 57.6436 412.491 59.2828C412.391 59.6785 412.291 60.0953 412.191 60.5334C412.091 60.9714 412.005 61.2964 411.934 61.5084L411.849 61.8475C411.849 61.8617 411.913 61.8687 412.041 61.8687C412.17 61.8687 412.398 61.9111 412.726 61.9959C413.054 62.0807 413.396 62.2008 413.753 62.3563C414.381 62.653 414.901 63.084 415.315 63.6492C415.729 64.2145 415.936 64.8998 415.936 65.7053C415.936 66.5107 415.715 67.2809 415.272 68.0157C414.83 68.7505 414.281 69.3581 413.625 69.8385C412.968 70.319 412.277 70.7005 411.549 70.9831C410.821 71.2657 410.144 71.4141 409.516 71.4283H409.43L408.917 73.4419C408.831 73.7669 408.739 74.1555 408.639 74.6077C408.525 75.0599 408.446 75.3284 408.403 75.4131C408.36 75.4979 408.275 75.5474 408.147 75.5615H408.018C407.733 75.5615 407.59 75.5121 407.59 75.4131C407.59 75.3425 407.747 74.6713 408.061 73.3995L408.553 71.4494C408.553 71.4353 408.496 71.4283 408.382 71.4283C408.311 71.4283 408.168 71.4141 407.954 71.3859C407.74 71.3576 407.419 71.2587 406.991 71.0891C406.563 70.9195 406.178 70.7076 405.835 70.4532C405.493 70.1989 405.172 69.8244 404.872 69.3298C404.573 68.8352 404.437 68.2559 404.466 67.5917C404.466 66.7439 404.701 65.9455 405.172 65.1966C405.643 64.4476 406.221 63.84 406.905 63.3737C407.59 62.9074 408.282 62.54 408.981 62.2715C409.68 62.003 410.308 61.8687 410.864 61.8687C410.936 61.8687 410.978 61.8405 410.993 61.784L411.635 59.198C412.077 57.5164 412.298 56.6615 412.298 56.6333ZM406.156 68.0369C406.156 68.5173 406.242 68.9342 406.413 69.2874C406.584 69.6407 406.82 69.9092 407.119 70.0929C407.419 70.2766 407.676 70.4038 407.89 70.4744C408.104 70.5451 408.346 70.6016 408.617 70.644H408.767L410.757 62.653C410.7 62.653 410.622 62.6601 410.522 62.6742C410.422 62.6883 410.215 62.7449 409.901 62.8438C409.587 62.9427 409.288 63.0557 409.002 63.1829C408.717 63.3101 408.403 63.515 408.061 63.7976C407.719 64.0802 407.426 64.4052 407.184 64.7726C406.927 65.1683 406.691 65.6417 406.477 66.1928C406.263 66.8428 406.156 67.4575 406.156 68.0369ZM414.245 65.2389C414.245 64.702 414.131 64.2427 413.903 63.8612C413.675 63.4797 413.389 63.2112 413.047 63.0557C412.705 62.9003 412.426 62.7943 412.212 62.7378C411.998 62.6813 411.827 62.653 411.699 62.653H411.635L410.65 66.6167L409.623 70.6016C409.623 70.6299 409.63 70.644 409.644 70.644C409.759 70.644 409.987 70.6016 410.329 70.5168C410.672 70.432 410.957 70.3331 411.185 70.2201C411.799 69.9516 412.326 69.5771 412.769 69.0967C413.211 68.6162 413.525 68.1216 413.71 67.6129C413.896 67.1042 414.031 66.652 414.117 66.2564C414.202 65.8607 414.245 65.5216 414.245 65.2389Z" fill="black"/>
<path d="M419.764 58.1763C419.633 56.8376 419.567 56.0883 419.567 55.9285C419.567 55.7486 419.688 55.6088 419.931 55.5089C419.941 55.5089 419.966 55.5089 420.006 55.5089C420.047 55.5089 420.077 55.5039 420.097 55.4939C420.218 55.5039 420.329 55.5488 420.43 55.6287C420.531 55.7087 420.581 55.8086 420.581 55.9285C420.581 56.0983 420.551 56.4979 420.49 57.1273C420.43 57.7567 420.395 58.1064 420.384 58.1763L421.262 57.5469C421.827 57.1373 422.134 56.9175 422.185 56.8875C422.235 56.8576 422.286 56.8426 422.336 56.8426C422.467 56.8426 422.588 56.8925 422.699 56.9924C422.81 57.0923 422.871 57.2272 422.881 57.3971C422.881 57.5269 422.83 57.6418 422.729 57.7417C422.679 57.7717 422.336 57.9365 421.701 58.2363C421.065 58.536 420.722 58.6958 420.672 58.7158L421.67 59.1804L422.729 59.7049C422.82 59.7948 422.866 59.9097 422.866 60.0495C422.866 60.1994 422.82 60.3243 422.729 60.4242C422.639 60.5241 422.518 60.579 422.366 60.589C422.286 60.589 422.195 60.5591 422.094 60.4991C421.993 60.4392 421.716 60.2394 421.262 59.8997L420.384 59.2703C420.516 60.609 420.581 61.3583 420.581 61.5181C420.581 61.618 420.546 61.713 420.475 61.8029C420.405 61.8928 420.273 61.9377 420.082 61.9377C419.89 61.9377 419.759 61.8928 419.688 61.8029C419.618 61.713 419.578 61.618 419.567 61.5181C419.567 61.3483 419.598 60.9487 419.658 60.3193C419.719 59.6899 419.754 59.3402 419.764 59.2703L418.887 59.8997C418.322 60.3093 418.014 60.5291 417.964 60.5591C417.923 60.589 417.873 60.604 417.812 60.604C417.681 60.604 417.56 60.5541 417.449 60.4542C417.338 60.3542 417.278 60.2194 417.268 60.0495C417.268 59.9996 417.268 59.9596 417.268 59.9297C417.268 59.8997 417.283 59.8697 417.313 59.8397C417.343 59.8098 417.369 59.7798 417.389 59.7498C417.409 59.7199 417.454 59.6849 417.525 59.6449C417.596 59.605 417.661 59.57 417.722 59.54C417.782 59.5101 417.878 59.4651 418.009 59.4052C418.14 59.3452 418.266 59.2903 418.387 59.2403C418.508 59.1904 418.67 59.1154 418.872 59.0155C419.073 58.9156 419.275 58.8157 419.477 58.7158L417.419 57.7417C417.328 57.6518 417.283 57.5369 417.283 57.3971C417.283 57.2472 417.328 57.1223 417.419 57.0224C417.51 56.9225 417.631 56.8676 417.782 56.8576C417.863 56.8576 417.954 56.8875 418.055 56.9475C418.155 57.0074 418.433 57.2072 418.887 57.5469L419.764 58.1763Z" fill="black"/>
<path d="M421.005 77.6069C420.853 77.7368 420.632 77.8767 420.339 78.0265C420.047 78.1764 419.739 78.2513 419.416 78.2513C418.781 78.2513 418.271 78.0265 417.888 77.577C417.505 77.1274 417.308 76.5529 417.298 75.8536C417.298 74.8046 417.686 73.8405 418.463 72.9614C419.24 72.0822 420.102 71.6376 421.05 71.6276C421.524 71.6276 421.963 71.8674 422.366 72.3469L422.412 72.287C422.432 72.257 422.457 72.2271 422.487 72.1971C422.518 72.1671 422.563 72.1272 422.624 72.0772C422.684 72.0272 422.75 71.9923 422.82 71.9723C422.891 71.9523 422.972 71.9373 423.062 71.9273C423.203 71.9273 423.319 71.9723 423.41 72.0622C423.501 72.1521 423.551 72.247 423.562 72.3469C423.562 72.4968 423.274 73.7057 422.699 75.9735C422.124 78.2413 421.822 79.4002 421.791 79.4502C421.61 79.9897 421.222 80.4343 420.626 80.7839C420.031 81.1336 419.351 81.3134 418.584 81.3234C417.162 81.3234 416.451 80.9837 416.451 80.3044C416.451 80.0446 416.542 79.8148 416.723 79.615C416.905 79.4152 417.137 79.3153 417.419 79.3153C417.57 79.3153 417.712 79.3603 417.843 79.4502C417.974 79.5401 418.044 79.695 418.055 79.9147C418.055 80.0147 418.044 80.1096 418.024 80.1995C418.004 80.2894 417.969 80.3593 417.918 80.4093C417.868 80.4592 417.828 80.5092 417.797 80.5591C417.767 80.6091 417.732 80.6491 417.691 80.679L417.661 80.709H417.676C417.777 80.739 418.08 80.754 418.584 80.754C418.967 80.754 419.27 80.694 419.492 80.5741C419.724 80.4642 419.941 80.2994 420.142 80.0796C420.344 79.8598 420.485 79.625 420.566 79.3753C420.626 79.1854 420.707 78.8757 420.808 78.4461C420.939 77.9666 421.005 77.6869 421.005 77.6069ZM422.109 73.336L422.049 73.1712C422.018 73.0613 421.993 72.9863 421.973 72.9464C421.953 72.9064 421.923 72.8365 421.882 72.7366C421.842 72.6367 421.791 72.5667 421.731 72.5268C421.67 72.4868 421.605 72.4319 421.534 72.3619C421.464 72.292 421.373 72.247 421.262 72.2271C421.151 72.2071 421.04 72.1921 420.929 72.1821C420.485 72.1821 420.057 72.4468 419.643 72.9763C419.341 73.366 419.088 73.9604 418.887 74.7596C418.685 75.5589 418.584 76.1383 418.584 76.498C418.584 77.2872 418.897 77.6819 419.522 77.6819C420.087 77.6819 420.642 77.3322 421.186 76.6329L421.307 76.483L422.109 73.336Z" fill="black"/>
<path d="M424.415 70.3005C424.415 70.3005 424.415 70.2546 424.415 70.1628C424.415 70.0709 424.465 70.0003 424.564 69.9509H430.779C430.886 70.0074 430.939 70.078 430.939 70.1628C430.939 70.2475 430.886 70.3182 430.779 70.3747H424.564C424.465 70.3252 424.415 70.2546 424.415 70.1628V70.3005Z" fill="black"/>
<path d="M434.116 66.6876L433.977 66.7406C433.877 66.7759 433.735 66.8112 433.549 66.8465C433.364 66.8819 433.157 66.9066 432.929 66.9207H432.726V66.4333H432.929C433.264 66.4192 433.574 66.3662 433.859 66.2744C434.145 66.1826 434.344 66.0978 434.458 66.0201C434.573 65.9424 434.672 65.8648 434.758 65.7871C434.772 65.7659 434.815 65.7553 434.886 65.7553C434.951 65.7553 435.011 65.7765 435.068 65.8188V68.9867L435.079 72.1652C435.129 72.2146 435.172 72.2464 435.207 72.2606C435.243 72.2747 435.328 72.2888 435.464 72.3029C435.599 72.3171 435.82 72.3241 436.127 72.3241H436.405V72.8115H436.288C436.138 72.7903 435.571 72.7797 434.587 72.7797C433.617 72.7797 433.057 72.7903 432.908 72.8115H432.779V72.3241H433.057C433.214 72.3241 433.35 72.3241 433.464 72.3241C433.578 72.3241 433.667 72.3206 433.731 72.3135C433.795 72.3065 433.852 72.2959 433.902 72.2817C433.952 72.2676 433.981 72.2606 433.988 72.2606C433.995 72.2606 434.016 72.2429 434.052 72.2076C434.088 72.1723 434.109 72.1581 434.116 72.1652V66.6876Z" fill="black"/>
<path d="M439.125 74.5049C439.125 74.2651 439.211 74.0553 439.382 73.8755C439.554 73.6957 439.77 73.6057 440.033 73.6057C440.275 73.6057 440.487 73.6857 440.668 73.8455C440.85 74.0054 440.945 74.2202 440.956 74.4899C440.956 74.7397 440.87 74.9545 440.698 75.1343C440.527 75.3141 440.31 75.404 440.048 75.404C439.786 75.404 439.569 75.3191 439.397 75.1493C439.226 74.9794 439.135 74.7646 439.125 74.5049Z" fill="black"/>
<path d="M444.148 78.4162C443.805 78.4162 443.633 78.2513 443.633 77.9217V77.7568L443.83 77.3372C444.587 75.7587 445.136 74.395 445.479 73.2461L445.6 72.8864H445.116C444.733 72.8864 444.46 72.9014 444.299 72.9314C444.138 72.9614 443.941 73.0563 443.709 73.2161C443.598 73.2861 443.487 73.376 443.376 73.4859C443.265 73.5958 443.169 73.7007 443.089 73.8006C443.008 73.9005 442.963 73.9604 442.953 73.9804C442.932 73.9904 442.857 73.9954 442.726 73.9954C442.534 73.9954 442.438 73.9454 442.438 73.8455C442.438 73.7856 442.534 73.6108 442.726 73.321C442.917 73.0313 443.195 72.7216 443.558 72.3919C443.921 72.0622 444.279 71.8724 444.632 71.8225C444.703 71.8025 445.837 71.7925 448.036 71.7925C449.65 71.7925 450.477 71.7975 450.517 71.8075C450.719 71.8774 450.82 72.0173 450.82 72.2271C450.82 72.5368 450.658 72.7466 450.336 72.8565C450.275 72.8764 449.927 72.8864 449.292 72.8864H448.323L448.278 73.1412C448.157 73.8605 448.096 74.4549 448.096 74.9245C448.096 75.444 448.142 75.9086 448.233 76.3182C448.323 76.7278 448.419 77.0475 448.52 77.2773C448.621 77.507 448.671 77.6469 448.671 77.6969C448.671 77.8667 448.601 78.0266 448.46 78.1764C448.318 78.3263 448.137 78.4012 447.915 78.4012C447.804 78.4012 447.713 78.3862 447.643 78.3562C447.572 78.3263 447.491 78.2064 447.401 77.9966C447.31 77.7868 447.229 77.4871 447.158 77.0974C447.148 77.0075 447.143 76.7877 447.143 76.4381C447.143 75.9485 447.189 75.424 447.28 74.8646C447.37 74.3051 447.461 73.8455 447.552 73.4859C447.643 73.1262 447.693 72.9264 447.703 72.8864H446.22L446.205 72.9464C446.205 72.9764 446.11 73.371 445.918 74.1303C445.726 74.8895 445.509 75.6938 445.267 76.543C445.025 77.3922 444.869 77.8767 444.798 77.9966C444.687 78.2763 444.471 78.4162 444.148 78.4162Z" fill="black"/>
<path d="M452.197 74.5049C452.197 73.8155 452.247 73.1612 452.348 72.5418C452.449 71.9223 452.565 71.3879 452.696 70.9383C452.827 70.4887 453.013 70.0491 453.256 69.6195C453.498 69.1899 453.689 68.8553 453.83 68.6155C453.972 68.3757 454.183 68.116 454.466 67.8362C454.748 67.5565 454.915 67.3867 454.965 67.3267C455.016 67.2668 455.142 67.1619 455.343 67.012H455.54H455.601C455.742 67.012 455.812 67.057 455.812 67.1469C455.812 67.1769 455.727 67.2818 455.555 67.4616C455.384 67.6414 455.177 67.9062 454.935 68.2558C454.693 68.6055 454.446 69.0351 454.194 69.5446C453.941 70.0541 453.73 70.7435 453.558 71.6126C453.387 72.4818 453.301 73.4459 453.301 74.5049C453.301 75.5639 453.387 76.523 453.558 77.3822C453.73 78.2413 453.936 78.9357 454.178 79.4652C454.42 79.9947 454.668 80.4243 454.92 80.754C455.172 81.0836 455.384 81.3484 455.555 81.5482C455.727 81.748 455.812 81.8529 455.812 81.8629C455.812 81.9528 455.737 81.9978 455.585 81.9978H455.54H455.343L454.92 81.6381C453.972 80.7889 453.281 79.7299 452.847 78.4611C452.413 77.1923 452.197 75.8736 452.197 74.5049Z" fill="black"/>
<path d="M457.174 75.9136C457.174 74.7746 457.608 73.7756 458.475 72.9164C459.343 72.0572 460.296 71.6276 461.335 71.6276C462.041 71.6276 462.605 71.8274 463.029 72.2271C463.453 72.6267 463.74 73.1162 463.891 73.6957C463.952 73.9854 463.987 74.3201 463.997 74.6997V75.1343C464.491 74.395 464.87 73.5658 465.132 72.6467C465.172 72.5068 465.203 72.4269 465.223 72.4069C465.243 72.3869 465.324 72.3719 465.465 72.3619C465.677 72.3619 465.782 72.4019 465.782 72.4818C465.782 72.5717 465.737 72.7666 465.646 73.0663C465.556 73.366 465.374 73.7906 465.102 74.3401C464.829 74.8895 464.522 75.3891 464.179 75.8386L464.012 76.0484L464.027 76.4081C464.048 76.9676 464.088 77.3472 464.149 77.547C464.209 77.7468 464.305 77.8517 464.436 77.8617C464.577 77.8417 464.708 77.7868 464.829 77.6969C464.95 77.607 465.036 77.4921 465.087 77.3522C465.107 77.2823 465.132 77.2423 465.162 77.2323C465.192 77.2223 465.268 77.2123 465.389 77.2023C465.591 77.2023 465.692 77.2423 465.692 77.3222C465.692 77.3822 465.661 77.4771 465.601 77.607C465.48 77.8467 465.303 78.0365 465.071 78.1764C464.839 78.3163 464.618 78.3912 464.406 78.4012H464.3C463.624 78.4012 463.165 78.0415 462.923 77.3222L462.878 77.2173L462.711 77.3372C462.61 77.4171 462.459 77.517 462.257 77.6369C462.056 77.7568 461.829 77.8717 461.577 77.9816C461.324 78.0915 461.032 78.1914 460.699 78.2813C460.366 78.3712 460.043 78.4162 459.731 78.4162C458.934 78.4162 458.309 78.1664 457.855 77.6669C457.401 77.1674 457.174 76.5829 457.174 75.9136ZM459.806 77.8617C460.301 77.8617 460.795 77.7568 461.289 77.547C461.783 77.3372 462.151 77.1224 462.394 76.9026L462.757 76.5729C462.736 75.1443 462.701 74.2551 462.651 73.9055C462.51 72.7566 462.046 72.1821 461.259 72.1821C460.563 72.1821 459.953 72.5468 459.428 73.2761C459.156 73.6757 458.934 74.2152 458.763 74.8945C458.591 75.5739 458.5 76.0934 458.49 76.453C458.49 76.9426 458.616 77.2972 458.868 77.517C459.121 77.7368 459.433 77.8517 459.806 77.8617Z" fill="black"/>
<path d="M467.25 67.027L467.311 67.012C467.361 67.012 467.411 67.012 467.462 67.012H467.643L468.067 67.3717C469.015 68.2209 469.706 69.2799 470.14 70.5487C470.573 71.8174 470.79 73.1362 470.79 74.5049C470.79 75.1842 470.74 75.8386 470.639 76.468C470.538 77.0974 470.422 77.6319 470.291 78.0715C470.16 78.5111 469.973 78.9507 469.731 79.3903C469.489 79.8298 469.297 80.1645 469.156 80.3943C469.015 80.6241 468.808 80.8788 468.536 81.1586C468.264 81.4383 468.102 81.6031 468.052 81.6531C468.001 81.7031 467.885 81.798 467.704 81.9378C467.674 81.9678 467.653 81.9878 467.643 81.9978H467.462C467.381 81.9978 467.326 81.9978 467.295 81.9978C467.265 81.9978 467.24 81.9828 467.22 81.9528C467.2 81.9228 467.184 81.8779 467.174 81.8179C467.184 81.808 467.24 81.743 467.341 81.6231C468.904 80.0147 469.686 77.6419 469.686 74.5049C469.686 71.3679 468.904 68.9951 467.341 67.3867C467.24 67.2668 467.184 67.2018 467.174 67.1918C467.174 67.1119 467.2 67.057 467.25 67.027Z" fill="black"/>
<path d="M474.032 67.9097C474.032 66.2988 474.646 64.8857 475.872 63.6704C477.099 62.4552 478.448 61.8475 479.917 61.8475C480.916 61.8475 481.714 62.1302 482.314 62.6954C482.913 63.2606 483.319 63.953 483.533 64.7726C483.619 65.1824 483.669 65.6558 483.683 66.1928V66.8075C484.382 65.7618 484.917 64.5889 485.288 63.2889C485.345 63.0911 485.388 62.978 485.416 62.9497C485.445 62.9215 485.559 62.9003 485.759 62.8862C486.058 62.8862 486.208 62.9427 486.208 63.0557C486.208 63.1829 486.144 63.4585 486.016 63.8824C485.887 64.3063 485.63 64.9069 485.245 65.6841C484.86 66.4613 484.425 67.1678 483.94 67.8037L483.705 68.1004L483.726 68.6091C483.754 69.4005 483.812 69.9374 483.897 70.2201C483.983 70.5027 484.118 70.6511 484.304 70.6652C484.503 70.6369 484.689 70.5592 484.86 70.432C485.031 70.3048 485.153 70.1423 485.224 69.9445C485.252 69.8456 485.288 69.7891 485.331 69.7749C485.374 69.7608 485.481 69.7467 485.652 69.7326C485.937 69.7326 486.08 69.7891 486.08 69.9021C486.08 69.9869 486.037 70.1211 485.951 70.3048C485.78 70.644 485.531 70.9125 485.202 71.1103C484.874 71.3081 484.561 71.4141 484.261 71.4283H484.111C483.155 71.4283 482.506 70.9195 482.164 69.9021L482.1 69.7537L481.864 69.9233C481.722 70.0364 481.508 70.1777 481.222 70.3472C480.937 70.5168 480.616 70.6793 480.259 70.8348C479.903 70.9902 479.489 71.1315 479.018 71.2587C478.547 71.3859 478.091 71.4494 477.649 71.4494C476.522 71.4494 475.637 71.0962 474.995 70.3896C474.353 69.6831 474.032 68.8564 474.032 67.9097ZM477.756 70.6652C478.455 70.6652 479.154 70.5168 479.853 70.2201C480.552 69.9233 481.072 69.6195 481.415 69.3086L481.928 68.8423C481.9 66.8216 481.85 65.564 481.779 65.0694C481.579 63.4443 480.923 62.6318 479.81 62.6318C478.826 62.6318 477.962 63.1476 477.221 64.1791C476.835 64.7444 476.522 65.5074 476.279 66.4683C476.037 67.4292 475.908 68.164 475.894 68.6727C475.894 69.3651 476.072 69.8668 476.429 70.1777C476.786 70.4886 477.228 70.6511 477.756 70.6652Z" fill="black"/>
</g>
<g clip-path="url(#clip2_1_145)">
<path d="M182.744 182.313C182.744 180.636 183.371 179.164 184.625 177.899C185.879 176.633 187.257 176 188.759 176C189.78 176 190.597 176.295 191.209 176.883C191.822 177.472 192.237 178.193 192.456 179.047C192.544 179.473 192.595 179.966 192.609 180.525V181.166C193.324 180.077 193.871 178.855 194.25 177.501C194.308 177.295 194.352 177.178 194.381 177.148C194.41 177.119 194.527 177.097 194.731 177.082C195.037 177.082 195.191 177.141 195.191 177.259C195.191 177.391 195.125 177.678 194.994 178.119C194.862 178.561 194.6 179.186 194.206 179.996C193.812 180.805 193.368 181.541 192.872 182.203L192.631 182.512L192.653 183.042C192.682 183.866 192.741 184.425 192.828 184.719C192.916 185.014 193.054 185.168 193.244 185.183C193.448 185.153 193.637 185.072 193.812 184.94C193.987 184.808 194.111 184.638 194.184 184.432C194.214 184.329 194.25 184.271 194.294 184.256C194.337 184.241 194.447 184.226 194.622 184.212C194.914 184.212 195.059 184.271 195.059 184.388C195.059 184.477 195.016 184.616 194.928 184.808C194.753 185.161 194.498 185.44 194.162 185.646C193.827 185.852 193.506 185.963 193.2 185.977H193.047C192.07 185.977 191.406 185.448 191.056 184.388L190.991 184.234L190.75 184.41C190.604 184.528 190.385 184.675 190.094 184.852C189.802 185.028 189.474 185.198 189.109 185.359C188.745 185.521 188.322 185.668 187.841 185.801C187.359 185.933 186.893 186 186.441 186C185.289 186 184.384 185.632 183.728 184.896C183.072 184.16 182.744 183.299 182.744 182.313ZM186.55 185.183C187.265 185.183 187.979 185.028 188.694 184.719C189.408 184.41 189.941 184.094 190.291 183.77L190.816 183.285C190.786 181.18 190.735 179.871 190.662 179.356C190.458 177.663 189.787 176.817 188.65 176.817C187.644 176.817 186.761 177.354 186.003 178.428C185.609 179.017 185.289 179.812 185.041 180.812C184.793 181.813 184.661 182.578 184.647 183.108C184.647 183.829 184.829 184.351 185.194 184.675C185.558 184.999 186.01 185.168 186.55 185.183Z" fill="black"/>
</g>
<g clip-path="url(#clip3_1_145)">
<path d="M510.307 148.25C510.072 148.451 509.728 148.668 509.273 148.899C508.819 149.131 508.341 149.247 507.84 149.247C506.853 149.247 506.062 148.899 505.467 148.204C504.872 147.508 504.566 146.62 504.551 145.538C504.551 143.915 505.154 142.424 506.36 141.064C507.566 139.703 508.905 139.016 510.378 139C511.114 139 511.795 139.371 512.422 140.113L512.492 140.02C512.524 139.974 512.563 139.928 512.61 139.881C512.657 139.835 512.727 139.773 512.821 139.696C512.915 139.618 513.017 139.564 513.127 139.533C513.237 139.503 513.362 139.479 513.503 139.464C513.722 139.464 513.902 139.533 514.043 139.673C514.184 139.812 514.263 139.958 514.278 140.113C514.278 140.345 513.832 142.215 512.939 145.723C512.046 149.232 511.576 151.025 511.529 151.102C511.247 151.936 510.644 152.624 509.72 153.165C508.796 153.706 507.738 153.984 506.548 154C504.339 154 503.235 153.474 503.235 152.423C503.235 152.021 503.376 151.666 503.658 151.357C503.94 151.048 504.3 150.893 504.739 150.893C504.974 150.893 505.193 150.963 505.397 151.102C505.6 151.241 505.71 151.481 505.726 151.821C505.726 151.975 505.71 152.122 505.679 152.261C505.647 152.4 505.592 152.508 505.514 152.586C505.436 152.663 505.373 152.74 505.326 152.817C505.279 152.895 505.224 152.957 505.162 153.003L505.115 153.049H505.138C505.295 153.096 505.765 153.119 506.548 153.119C507.143 153.119 507.613 153.026 507.958 152.841C508.318 152.671 508.655 152.416 508.968 152.076C509.281 151.736 509.501 151.372 509.626 150.986C509.72 150.692 509.845 150.213 510.002 149.549C510.206 148.807 510.307 148.374 510.307 148.25ZM512.023 141.643L511.929 141.388C511.882 141.218 511.842 141.102 511.811 141.04C511.78 140.979 511.733 140.87 511.67 140.716C511.607 140.561 511.529 140.453 511.435 140.391C511.341 140.329 511.239 140.244 511.13 140.136C511.02 140.028 510.879 139.958 510.707 139.928C510.534 139.897 510.362 139.873 510.19 139.858C509.501 139.858 508.835 140.268 508.193 141.087C507.723 141.689 507.331 142.609 507.018 143.846C506.705 145.082 506.548 145.978 506.548 146.535C506.548 147.756 507.034 148.366 508.005 148.366C508.882 148.366 509.743 147.825 510.589 146.743L510.777 146.512L512.023 141.643Z" fill="black"/>
<path d="M521.261 143.451C521.261 143.08 521.394 142.756 521.661 142.478C521.927 142.199 522.264 142.06 522.671 142.06C523.047 142.06 523.376 142.184 523.658 142.431C523.94 142.679 524.089 143.011 524.104 143.428C524.104 143.815 523.971 144.147 523.705 144.425C523.439 144.703 523.102 144.842 522.695 144.842C522.287 144.842 521.95 144.711 521.684 144.448C521.418 144.186 521.277 143.853 521.261 143.451Z" fill="black"/>
<path d="M531.722 142.594C531.737 142.547 531.753 142.485 531.769 142.408C531.784 142.331 531.824 142.161 531.886 141.898C531.949 141.635 532.027 141.396 532.121 141.179C532.215 140.963 532.333 140.708 532.474 140.414C532.615 140.121 532.771 139.889 532.944 139.719C533.116 139.549 533.32 139.379 533.555 139.209C533.789 139.039 534.048 138.969 534.33 139C535.505 139 536.257 139.495 536.586 140.484L536.82 140.275C537.792 139.425 538.716 139 539.593 139C540.611 139 541.41 139.363 541.99 140.09C542.569 140.816 542.859 141.697 542.859 142.733C542.859 144.402 542.264 145.94 541.073 147.346C539.883 148.753 538.536 149.464 537.032 149.479C536.687 149.479 536.382 149.433 536.116 149.34C535.943 149.263 535.763 149.147 535.575 148.992C535.387 148.838 535.238 148.706 535.129 148.598L534.964 148.413C534.949 148.428 534.776 149.1 534.447 150.43C534.118 151.759 533.954 152.431 533.954 152.447C533.954 152.539 534.017 152.593 534.142 152.609C534.267 152.624 534.557 152.647 535.011 152.678H535.599C535.693 152.787 535.74 152.856 535.74 152.887C535.74 152.918 535.716 153.057 535.669 153.304C535.622 153.49 535.575 153.606 535.528 153.652C535.481 153.698 535.379 153.729 535.223 153.745C535.191 153.745 535.105 153.745 534.964 153.745C534.823 153.745 534.557 153.737 534.165 153.722C533.774 153.706 533.288 153.698 532.709 153.698C531.612 153.698 530.915 153.714 530.617 153.745H530.43C530.32 153.637 530.265 153.552 530.265 153.49C530.296 153.072 530.398 152.802 530.57 152.678H531.04C531.573 152.663 531.878 152.57 531.957 152.4C532.004 152.307 532.482 150.46 533.39 146.859C534.299 143.258 534.776 141.349 534.823 141.133C534.839 141.056 534.847 140.948 534.847 140.808C534.847 140.175 534.651 139.858 534.259 139.858C533.915 139.858 533.625 140.074 533.39 140.507C533.155 140.94 532.975 141.411 532.85 141.921C532.724 142.431 532.63 142.71 532.568 142.756C532.536 142.787 532.411 142.802 532.192 142.802H531.863C531.769 142.71 531.722 142.64 531.722 142.594ZM535.364 146.883C535.708 148.057 536.288 148.644 537.102 148.644C537.572 148.644 538.027 148.467 538.465 148.111C538.904 147.756 539.264 147.308 539.546 146.767C539.828 146.241 540.11 145.407 540.392 144.263C540.674 143.119 540.823 142.269 540.838 141.713V141.574C540.838 140.43 540.361 139.858 539.405 139.858C539.233 139.858 539.06 139.881 538.888 139.928C538.716 139.974 538.544 140.043 538.371 140.136C538.199 140.229 538.042 140.329 537.901 140.438C537.76 140.546 537.627 140.662 537.502 140.785C537.377 140.909 537.259 141.025 537.149 141.133C537.04 141.241 536.954 141.349 536.891 141.458C536.828 141.566 536.766 141.643 536.703 141.689L536.633 141.782C536.633 141.798 536.609 141.906 536.562 142.107C536.515 142.308 536.429 142.648 536.304 143.127C536.178 143.606 536.069 144.008 535.975 144.332C535.567 145.971 535.364 146.821 535.364 146.883Z" fill="black"/>
</g>
<path d="M299.489 298.358C299.163 298.358 299 298.29 299 298.152C299 298.067 299.137 297.586 299.412 296.711C299.686 295.836 299.978 294.969 300.287 294.111L300.725 292.85C300.811 292.541 300.922 292.317 301.059 292.18H313.107H315.424C315.973 292.18 316.299 292.189 316.402 292.206C316.505 292.223 316.565 292.3 316.582 292.438C316.582 292.541 316.436 293.519 316.144 295.372C315.853 297.226 315.69 298.161 315.655 298.178C315.655 298.298 315.492 298.358 315.166 298.358C315.012 298.358 314.909 298.358 314.857 298.358C314.806 298.358 314.754 298.315 314.703 298.23L314.651 298.152C314.651 298.049 314.703 297.663 314.806 296.994C314.909 296.325 314.96 295.801 314.96 295.424C314.96 294.823 314.849 294.368 314.626 294.059C314.403 293.75 313.931 293.536 313.21 293.416C313.124 293.399 312.626 293.382 311.717 293.364C310.927 293.364 310.43 293.373 310.224 293.39C310.018 293.407 309.863 293.476 309.76 293.596C309.743 293.613 309.134 296.007 307.933 300.778C306.731 305.549 306.131 307.977 306.131 308.063C306.131 308.269 306.886 308.389 308.396 308.424C308.945 308.424 309.297 308.432 309.451 308.449C309.606 308.467 309.683 308.544 309.683 308.681C309.683 308.767 309.657 308.887 309.606 309.042C309.537 309.35 309.46 309.531 309.374 309.582L309.323 309.608C309.271 309.608 309.211 309.608 309.143 309.608C309.057 309.608 308.611 309.599 307.804 309.582C306.997 309.565 305.839 309.556 304.329 309.556C302.115 309.556 300.708 309.574 300.107 309.608H299.721C299.618 309.505 299.566 309.428 299.566 309.376C299.566 309.325 299.583 309.17 299.618 308.913C299.686 308.69 299.772 308.527 299.875 308.424H300.596H300.879C302.252 308.424 303.067 308.346 303.325 308.192C303.342 308.175 303.359 308.166 303.376 308.166C303.462 308.115 303.548 307.943 303.634 307.651C303.719 307.36 304.063 306.012 304.663 303.61C304.955 302.443 305.195 301.49 305.384 300.752C306.585 296.033 307.186 293.622 307.186 293.519C307.186 293.433 306.937 293.39 306.44 293.39H305.642C304.492 293.39 303.737 293.442 303.376 293.545C302.604 293.716 302.003 294.068 301.574 294.6C301.145 295.132 300.682 296.127 300.184 297.586C300.064 297.964 299.978 298.187 299.927 298.255C299.875 298.324 299.755 298.358 299.566 298.358H299.489Z" fill="black"/>
<path d="M313.912 308.246C313.924 308.209 313.936 308.161 313.948 308.1C313.96 308.04 313.99 307.906 314.039 307.7C314.088 307.494 314.148 307.306 314.221 307.136C314.294 306.966 314.385 306.766 314.494 306.535C314.603 306.305 314.725 306.123 314.858 305.989C314.991 305.856 315.149 305.722 315.331 305.589C315.513 305.455 315.713 305.401 315.932 305.425C316.842 305.425 317.424 305.813 317.679 306.59L317.861 306.426C318.613 305.759 319.329 305.425 320.009 305.425C320.797 305.425 321.416 305.71 321.865 306.28C322.314 306.851 322.538 307.542 322.538 308.355C322.538 309.665 322.077 310.873 321.155 311.977C320.233 313.081 319.19 313.639 318.025 313.651C317.758 313.651 317.521 313.615 317.315 313.542C317.182 313.481 317.042 313.39 316.896 313.269C316.751 313.148 316.636 313.045 316.551 312.96L316.423 312.814C316.411 312.826 316.278 313.354 316.023 314.397C315.768 315.441 315.641 315.969 315.641 315.981C315.641 316.054 315.689 316.096 315.786 316.108C315.883 316.12 316.108 316.139 316.46 316.163H316.915C316.987 316.248 317.024 316.302 317.024 316.327C317.024 316.351 317.006 316.46 316.969 316.654C316.933 316.8 316.896 316.891 316.86 316.927C316.824 316.964 316.745 316.988 316.623 317C316.599 317 316.532 317 316.423 317C316.314 317 316.108 316.994 315.804 316.982C315.501 316.97 315.125 316.964 314.676 316.964C313.827 316.964 313.287 316.976 313.056 317H312.911C312.826 316.915 312.783 316.848 312.783 316.8C312.807 316.472 312.886 316.26 313.02 316.163H313.384C313.796 316.151 314.033 316.078 314.094 315.944C314.13 315.872 314.5 314.422 315.204 311.595C315.908 308.768 316.278 307.269 316.314 307.099C316.326 307.039 316.332 306.954 316.332 306.844C316.332 306.347 316.181 306.098 315.877 306.098C315.61 306.098 315.386 306.268 315.204 306.608C315.022 306.948 314.882 307.318 314.785 307.718C314.688 308.118 314.615 308.337 314.567 308.373C314.543 308.398 314.445 308.41 314.276 308.41H314.021C313.948 308.337 313.912 308.282 313.912 308.246ZM316.733 311.613C317 312.535 317.448 312.996 318.079 312.996C318.443 312.996 318.795 312.856 319.135 312.577C319.475 312.298 319.754 311.946 319.972 311.522C320.191 311.109 320.409 310.454 320.627 309.556C320.846 308.658 320.961 307.991 320.973 307.554V307.445C320.973 306.547 320.603 306.098 319.863 306.098C319.73 306.098 319.596 306.116 319.463 306.153C319.329 306.189 319.196 306.244 319.062 306.317C318.929 306.389 318.807 306.468 318.698 306.553C318.589 306.638 318.486 306.729 318.389 306.826C318.292 306.923 318.201 307.014 318.116 307.099C318.031 307.184 317.964 307.269 317.916 307.354C317.867 307.439 317.819 307.5 317.77 307.536L317.715 307.609C317.715 307.621 317.697 307.706 317.661 307.864C317.624 308.021 317.558 308.288 317.461 308.664C317.364 309.041 317.279 309.356 317.206 309.611C316.89 310.897 316.733 311.564 316.733 311.613Z" fill="black"/>
<path d="M331.376 293.416C331.376 293.313 330.887 293.244 329.909 293.21C329.497 293.21 329.231 293.201 329.111 293.184C328.991 293.167 328.931 293.081 328.931 292.927C328.931 292.91 328.948 292.815 328.982 292.644C328.999 292.592 329.017 292.532 329.034 292.463C329.051 292.395 329.059 292.352 329.059 292.335C329.059 292.317 329.077 292.275 329.111 292.206C329.145 292.137 329.162 292.112 329.162 292.129C329.162 292.146 329.197 292.129 329.265 292.077C329.334 292.026 329.377 292.009 329.394 292.026C329.411 292.043 329.48 292.043 329.6 292.026C329.72 292.009 329.823 292 329.909 292C330.012 292 330.269 292 330.681 292C331.093 292 331.479 292.009 331.84 292.026C333.195 292.026 333.976 292.026 334.182 292.026C334.388 292.026 334.525 292.069 334.594 292.154C334.611 292.223 334.929 294.643 335.547 299.414L336.473 306.596L337.065 305.644C337.477 305.026 338.026 304.168 338.713 303.069C339.399 301.971 340.154 300.77 340.978 299.465C343.982 294.677 345.5 292.266 345.535 292.232C345.552 292.215 345.578 292.189 345.612 292.154C345.646 292.12 345.681 292.094 345.715 292.077L345.869 292.026H348.341C348.632 292.026 348.976 292.026 349.37 292.026C349.765 292.026 350.014 292.017 350.117 292C350.7 292 350.992 292.094 350.992 292.283C350.992 292.369 350.966 292.515 350.915 292.721C350.863 292.927 350.838 293.038 350.838 293.055C350.769 293.158 350.451 293.21 349.885 293.21C349.199 293.227 348.761 293.253 348.572 293.287C348.383 293.321 348.229 293.416 348.109 293.57C348.057 293.656 347.44 296.084 346.255 300.855C345.071 305.626 344.471 308.038 344.453 308.089C344.453 308.158 344.462 308.201 344.479 308.218C344.496 308.235 344.556 308.269 344.659 308.321C344.762 308.372 344.908 308.389 345.097 308.372C345.286 308.355 345.569 308.372 345.947 308.424H346.745C346.847 308.578 346.899 308.673 346.899 308.707C346.899 308.981 346.839 309.239 346.719 309.479C346.633 309.565 346.496 309.608 346.307 309.608C346.221 309.608 345.869 309.599 345.251 309.582C344.634 309.565 343.844 309.556 342.883 309.556C341.836 309.556 341.047 309.556 340.515 309.556C339.983 309.556 339.683 309.565 339.614 309.582C339.322 309.582 339.176 309.496 339.176 309.325C339.176 309.29 339.193 309.17 339.228 308.964C339.296 308.69 339.365 308.535 339.434 308.501C339.502 308.467 339.7 308.441 340.026 308.424C340.489 308.424 341.004 308.398 341.57 308.346C341.811 308.295 341.974 308.192 342.059 308.038C342.094 307.969 342.42 306.716 343.038 304.279C343.655 301.842 344.265 299.414 344.865 296.994C345.466 294.574 345.766 293.364 345.766 293.364L340.772 301.319C337.409 306.673 335.684 309.393 335.598 309.479C335.564 309.496 335.529 309.513 335.495 309.531C335.409 309.582 335.272 309.608 335.083 309.608C334.826 309.608 334.671 309.548 334.62 309.428C334.586 309.359 334.234 306.699 333.564 301.447L332.56 293.545L330.81 300.495C329.66 305.06 329.085 307.42 329.085 307.574C329.188 308.141 329.806 308.424 330.939 308.424H331.196C331.299 308.51 331.359 308.587 331.376 308.655C331.393 308.724 331.368 308.878 331.299 309.119C331.23 309.393 331.162 309.548 331.093 309.582C331.024 309.599 330.93 309.608 330.81 309.608C330.776 309.608 330.673 309.608 330.501 309.608C330.329 309.608 330.038 309.599 329.626 309.582C329.214 309.565 328.665 309.556 327.978 309.556C327.463 309.556 326.931 309.565 326.382 309.582C325.833 309.599 325.516 309.608 325.43 309.608C325.172 309.608 325.009 309.591 324.941 309.556C324.872 309.522 324.838 309.445 324.838 309.325C324.838 309.29 324.863 309.17 324.915 308.964C324.966 308.758 325.009 308.63 325.044 308.578C325.078 308.475 325.267 308.424 325.61 308.424C326.811 308.424 327.575 308.08 327.901 307.394C327.97 307.291 328.562 304.991 329.677 300.495C330.793 295.999 331.359 293.639 331.376 293.416Z" fill="black"/>
<path d="M572.485 107.308C572.162 107.308 572 107.24 572 107.104C572 107.018 572.136 106.542 572.409 105.673C572.681 104.805 572.97 103.945 573.277 103.094L573.711 101.843C573.796 101.536 573.907 101.315 574.043 101.179H585.995H588.293C588.838 101.179 589.161 101.187 589.264 101.204C589.366 101.221 589.425 101.298 589.442 101.434C589.442 101.536 589.298 102.507 589.008 104.345C588.719 106.184 588.557 107.112 588.523 107.129C588.523 107.248 588.361 107.308 588.038 107.308C587.885 107.308 587.782 107.308 587.731 107.308C587.68 107.308 587.629 107.265 587.578 107.18L587.527 107.104C587.527 107.001 587.578 106.618 587.68 105.954C587.782 105.29 587.834 104.771 587.834 104.397C587.834 103.801 587.723 103.349 587.502 103.043C587.28 102.737 586.812 102.524 586.097 102.405C586.012 102.388 585.518 102.371 584.616 102.354C583.833 102.354 583.339 102.362 583.135 102.379C582.93 102.396 582.777 102.464 582.675 102.583C582.658 102.6 582.053 104.975 580.862 109.708C579.67 114.441 579.074 116.851 579.074 116.936C579.074 117.14 579.823 117.259 581.321 117.293C581.866 117.293 582.215 117.302 582.368 117.319C582.522 117.336 582.598 117.412 582.598 117.549C582.598 117.634 582.573 117.753 582.522 117.906C582.454 118.213 582.377 118.391 582.292 118.442L582.241 118.468C582.19 118.468 582.13 118.468 582.062 118.468C581.977 118.468 581.534 118.459 580.734 118.442C579.934 118.425 578.785 118.417 577.286 118.417C575.09 118.417 573.694 118.434 573.098 118.468H572.715C572.613 118.366 572.562 118.289 572.562 118.238C572.562 118.187 572.579 118.034 572.613 117.778C572.681 117.557 572.766 117.395 572.868 117.293H573.583H573.864C575.226 117.293 576.035 117.217 576.29 117.063C576.307 117.046 576.324 117.038 576.341 117.038C576.427 116.987 576.512 116.816 576.597 116.527C576.682 116.238 577.022 114.901 577.618 112.518C577.908 111.36 578.146 110.415 578.333 109.683C579.525 105.001 580.121 102.609 580.121 102.507C580.121 102.422 579.874 102.379 579.38 102.379H578.589C577.448 102.379 576.699 102.43 576.341 102.532C575.575 102.703 574.979 103.052 574.554 103.579C574.128 104.107 573.668 105.095 573.175 106.542C573.056 106.916 572.97 107.138 572.919 107.206C572.868 107.274 572.749 107.308 572.562 107.308H572.485Z" fill="black"/>
<path d="M591.993 121.522C591.812 121.679 591.548 121.847 591.199 122.028C590.85 122.208 590.482 122.299 590.097 122.299C589.339 122.299 588.731 122.028 588.274 121.486C587.816 120.944 587.582 120.252 587.569 119.41C587.569 118.146 588.033 116.984 588.96 115.925C589.887 114.866 590.916 114.33 592.047 114.318C592.613 114.318 593.137 114.607 593.618 115.185L593.672 115.113C593.696 115.077 593.726 115.04 593.762 115.004C593.799 114.968 593.853 114.92 593.925 114.86C593.997 114.8 594.075 114.758 594.16 114.733C594.244 114.709 594.34 114.691 594.449 114.679C594.617 114.679 594.756 114.733 594.864 114.842C594.972 114.95 595.032 115.064 595.044 115.185C595.044 115.365 594.701 116.822 594.015 119.554C593.329 122.287 592.968 123.683 592.932 123.743C592.715 124.393 592.252 124.929 591.542 125.35C590.831 125.771 590.019 125.988 589.104 126C587.407 126 586.558 125.591 586.558 124.772C586.558 124.459 586.667 124.182 586.883 123.942C587.1 123.701 587.377 123.581 587.714 123.581C587.894 123.581 588.063 123.635 588.219 123.743C588.376 123.851 588.46 124.038 588.472 124.303C588.472 124.423 588.46 124.537 588.436 124.646C588.412 124.754 588.37 124.838 588.31 124.899C588.25 124.959 588.201 125.019 588.165 125.079C588.129 125.139 588.087 125.187 588.039 125.224L588.003 125.26H588.021C588.141 125.296 588.502 125.314 589.104 125.314C589.562 125.314 589.923 125.242 590.188 125.097C590.464 124.965 590.723 124.766 590.964 124.501C591.205 124.237 591.373 123.954 591.469 123.653C591.542 123.424 591.638 123.051 591.758 122.533C591.915 121.956 591.993 121.619 591.993 121.522ZM593.311 116.376L593.239 116.178C593.203 116.045 593.173 115.955 593.149 115.907C593.125 115.859 593.088 115.775 593.04 115.654C592.992 115.534 592.932 115.45 592.86 115.402C592.787 115.353 592.709 115.287 592.625 115.203C592.541 115.119 592.432 115.064 592.3 115.04C592.168 115.016 592.035 114.998 591.903 114.986C591.373 114.986 590.862 115.305 590.368 115.943C590.007 116.413 589.706 117.129 589.465 118.092C589.225 119.055 589.104 119.753 589.104 120.186C589.104 121.137 589.477 121.613 590.224 121.613C590.898 121.613 591.56 121.191 592.21 120.349L592.354 120.168L593.311 116.376Z" fill="black"/>
<path d="M596.399 117.785C596.399 117.496 596.501 117.243 596.705 117.026C596.91 116.81 597.169 116.701 597.482 116.701C597.771 116.701 598.024 116.798 598.24 116.99C598.457 117.183 598.571 117.442 598.583 117.767C598.583 118.068 598.481 118.326 598.276 118.543C598.072 118.76 597.813 118.868 597.5 118.868C597.187 118.868 596.928 118.766 596.724 118.561C596.519 118.357 596.411 118.098 596.399 117.785Z" fill="black"/>
<path d="M600.425 117.117C600.437 117.081 600.449 117.032 600.461 116.972C600.473 116.912 600.503 116.78 600.551 116.575C600.599 116.37 600.66 116.184 600.732 116.015C600.804 115.847 600.894 115.648 601.003 115.42C601.111 115.191 601.231 115.01 601.364 114.878C601.496 114.745 601.653 114.613 601.833 114.481C602.014 114.348 602.212 114.294 602.429 114.318C603.332 114.318 603.91 114.703 604.162 115.474L604.343 115.311C605.089 114.649 605.799 114.318 606.473 114.318C607.256 114.318 607.87 114.601 608.315 115.167C608.76 115.733 608.983 116.419 608.983 117.225C608.983 118.525 608.526 119.723 607.611 120.818C606.696 121.913 605.661 122.467 604.505 122.479C604.241 122.479 604.006 122.443 603.801 122.371C603.669 122.311 603.53 122.22 603.386 122.1C603.242 121.98 603.127 121.877 603.043 121.793L602.917 121.649C602.904 121.661 602.772 122.184 602.519 123.219C602.267 124.255 602.14 124.778 602.14 124.79C602.14 124.862 602.188 124.905 602.285 124.917C602.381 124.929 602.604 124.947 602.953 124.971H603.404C603.476 125.055 603.512 125.109 603.512 125.133C603.512 125.157 603.494 125.266 603.458 125.458C603.422 125.603 603.386 125.693 603.35 125.729C603.314 125.765 603.235 125.789 603.115 125.801C603.091 125.801 603.025 125.801 602.917 125.801C602.808 125.801 602.604 125.795 602.303 125.783C602.002 125.771 601.629 125.765 601.183 125.765C600.341 125.765 599.805 125.777 599.576 125.801H599.432C599.348 125.717 599.305 125.651 599.305 125.603C599.33 125.278 599.408 125.067 599.54 124.971H599.901C600.311 124.959 600.545 124.887 600.605 124.754C600.642 124.682 601.009 123.244 601.707 120.439C602.405 117.634 602.772 116.148 602.808 115.979C602.82 115.919 602.826 115.835 602.826 115.726C602.826 115.233 602.676 114.986 602.375 114.986C602.11 114.986 601.887 115.155 601.707 115.492C601.526 115.829 601.388 116.196 601.292 116.593C601.195 116.99 601.123 117.207 601.075 117.243C601.051 117.267 600.955 117.279 600.786 117.279H600.533C600.461 117.207 600.425 117.153 600.425 117.117ZM603.223 120.457C603.488 121.372 603.934 121.829 604.56 121.829C604.921 121.829 605.27 121.691 605.607 121.414C605.944 121.137 606.221 120.788 606.437 120.367C606.654 119.957 606.871 119.307 607.087 118.417C607.304 117.526 607.418 116.864 607.43 116.431V116.322C607.43 115.432 607.063 114.986 606.329 114.986C606.197 114.986 606.064 115.004 605.932 115.04C605.799 115.077 605.667 115.131 605.535 115.203C605.402 115.275 605.282 115.353 605.173 115.438C605.065 115.522 604.963 115.612 604.866 115.708C604.77 115.805 604.68 115.895 604.596 115.979C604.511 116.064 604.445 116.148 604.397 116.232C604.349 116.316 604.301 116.376 604.253 116.413L604.198 116.485C604.198 116.497 604.18 116.581 604.144 116.738C604.108 116.894 604.042 117.159 603.946 117.532C603.849 117.905 603.765 118.218 603.693 118.471C603.38 119.747 603.223 120.409 603.223 120.457Z" fill="black"/>
<path d="M617.751 102.405C617.751 102.302 617.266 102.234 616.296 102.2C615.887 102.2 615.623 102.192 615.504 102.175C615.385 102.158 615.325 102.073 615.325 101.919C615.325 101.902 615.342 101.809 615.376 101.638C615.393 101.587 615.41 101.528 615.427 101.46C615.444 101.392 615.453 101.349 615.453 101.332C615.453 101.315 615.47 101.272 615.504 101.204C615.538 101.136 615.555 101.111 615.555 101.128C615.555 101.145 615.589 101.128 615.657 101.077C615.725 101.026 615.768 101.009 615.785 101.026C615.802 101.043 615.87 101.043 615.989 101.026C616.108 101.009 616.21 101 616.296 101C616.398 101 616.653 101 617.062 101C617.47 101 617.853 101.009 618.211 101.026C619.556 101.026 620.331 101.026 620.535 101.026C620.739 101.026 620.875 101.068 620.943 101.153C620.96 101.221 621.275 103.622 621.888 108.355L622.808 115.48L623.395 114.535C623.804 113.922 624.348 113.071 625.029 111.981C625.711 110.892 626.46 109.7 627.277 108.406C630.256 103.656 631.763 101.264 631.797 101.23C631.814 101.213 631.84 101.187 631.874 101.153C631.908 101.119 631.942 101.094 631.976 101.077L632.129 101.026H634.581C634.87 101.026 635.211 101.026 635.602 101.026C635.994 101.026 636.241 101.017 636.343 101C636.922 101 637.211 101.094 637.211 101.281C637.211 101.366 637.186 101.511 637.134 101.715C637.083 101.919 637.058 102.03 637.058 102.047C636.99 102.149 636.675 102.2 636.113 102.2C635.432 102.217 634.998 102.243 634.811 102.277C634.623 102.311 634.47 102.405 634.351 102.558C634.3 102.643 633.687 105.052 632.512 109.785C631.337 114.518 630.741 116.91 630.724 116.961C630.724 117.029 630.733 117.072 630.75 117.089C630.767 117.106 630.827 117.14 630.929 117.191C631.031 117.242 631.176 117.259 631.363 117.242C631.55 117.225 631.831 117.242 632.206 117.293H632.997C633.099 117.446 633.151 117.54 633.151 117.574C633.151 117.847 633.091 118.102 632.972 118.34C632.887 118.425 632.75 118.468 632.563 118.468C632.478 118.468 632.129 118.459 631.516 118.442C630.903 118.425 630.12 118.417 629.167 118.417C628.128 118.417 627.345 118.417 626.817 118.417C626.289 118.417 625.991 118.425 625.923 118.442C625.634 118.442 625.489 118.357 625.489 118.187C625.489 118.153 625.506 118.034 625.54 117.829C625.608 117.557 625.676 117.404 625.745 117.37C625.813 117.336 626.008 117.31 626.332 117.293C626.792 117.293 627.302 117.268 627.864 117.217C628.103 117.166 628.264 117.063 628.349 116.91C628.383 116.842 628.707 115.599 629.32 113.182C629.933 110.764 630.537 108.355 631.133 105.954C631.729 103.554 632.027 102.354 632.027 102.354L627.073 110.245C623.736 115.557 622.025 118.255 621.939 118.34C621.905 118.357 621.871 118.374 621.837 118.391C621.752 118.442 621.616 118.468 621.429 118.468C621.173 118.468 621.02 118.408 620.969 118.289C620.935 118.221 620.586 115.582 619.922 110.372L618.926 102.532L617.189 109.428C616.049 113.956 615.478 116.297 615.478 116.45C615.58 117.012 616.193 117.293 617.317 117.293H617.572C617.675 117.378 617.734 117.455 617.751 117.523C617.768 117.591 617.743 117.744 617.675 117.983C617.606 118.255 617.538 118.408 617.47 118.442C617.402 118.459 617.309 118.468 617.189 118.468C617.155 118.468 617.053 118.468 616.883 118.468C616.713 118.468 616.423 118.459 616.015 118.442C615.606 118.425 615.061 118.417 614.38 118.417C613.869 118.417 613.342 118.425 612.797 118.442C612.252 118.459 611.937 118.468 611.852 118.468C611.597 118.468 611.435 118.451 611.367 118.417C611.299 118.383 611.265 118.306 611.265 118.187C611.265 118.153 611.29 118.034 611.341 117.829C611.392 117.625 611.435 117.498 611.469 117.446C611.503 117.344 611.69 117.293 612.031 117.293C613.222 117.293 613.98 116.953 614.304 116.272C614.372 116.17 614.959 113.888 616.066 109.428C617.172 104.967 617.734 102.626 617.751 102.405Z" fill="black"/>
<path d="M512 295.516C512 295.406 511.476 295.332 510.429 295.295C509.988 295.295 509.703 295.286 509.575 295.268C509.446 295.249 509.382 295.157 509.382 294.992C509.382 294.974 509.4 294.873 509.437 294.689C509.455 294.634 509.474 294.57 509.492 294.496C509.51 294.423 509.52 294.377 509.52 294.358C509.52 294.34 509.538 294.294 509.575 294.22C509.612 294.147 509.63 294.119 509.63 294.138C509.63 294.156 509.667 294.138 509.74 294.083C509.814 294.028 509.86 294.009 509.878 294.028C509.896 294.046 509.97 294.046 510.098 294.028C510.227 294.009 510.337 294 510.429 294C510.539 294 510.815 294 511.256 294C511.697 294 512.11 294.009 512.496 294.028C513.948 294.028 514.783 294.028 515.004 294.028C515.224 294.028 515.371 294.073 515.445 294.165C515.463 294.239 515.803 296.829 516.465 301.937L517.457 309.626L518.091 308.606C518.531 307.945 519.119 307.026 519.854 305.85C520.589 304.675 521.398 303.388 522.28 301.992C525.495 296.866 527.121 294.285 527.157 294.248C527.176 294.23 527.203 294.202 527.24 294.165C527.277 294.129 527.314 294.101 527.35 294.083L527.516 294.028H530.161C530.474 294.028 530.841 294.028 531.264 294.028C531.686 294.028 531.953 294.018 532.063 294C532.688 294 533 294.101 533 294.303C533 294.395 532.972 294.551 532.917 294.772C532.862 294.992 532.835 295.112 532.835 295.13C532.761 295.24 532.421 295.295 531.815 295.295C531.08 295.314 530.612 295.341 530.409 295.378C530.207 295.415 530.042 295.516 529.913 295.681C529.858 295.773 529.197 298.373 527.929 303.48C526.661 308.588 526.018 311.169 526 311.224C526 311.298 526.009 311.344 526.028 311.362C526.046 311.381 526.11 311.417 526.22 311.472C526.331 311.528 526.487 311.546 526.689 311.528C526.891 311.509 527.194 311.528 527.598 311.583H528.453C528.563 311.748 528.618 311.849 528.618 311.886C528.618 312.18 528.554 312.455 528.425 312.713C528.333 312.804 528.186 312.85 527.984 312.85C527.892 312.85 527.516 312.841 526.854 312.823C526.193 312.804 525.348 312.795 524.319 312.795C523.198 312.795 522.353 312.795 521.783 312.795C521.214 312.795 520.892 312.804 520.819 312.823C520.507 312.823 520.35 312.731 520.35 312.547C520.35 312.511 520.369 312.382 520.406 312.161C520.479 311.867 520.552 311.702 520.626 311.665C520.699 311.629 520.911 311.601 521.26 311.583C521.756 311.583 522.307 311.555 522.913 311.5C523.171 311.445 523.345 311.335 523.437 311.169C523.474 311.096 523.823 309.755 524.484 307.146C525.146 304.537 525.798 301.937 526.441 299.346C527.084 296.756 527.406 295.461 527.406 295.461L522.059 303.976C518.458 309.709 516.612 312.621 516.52 312.713C516.483 312.731 516.446 312.749 516.409 312.768C516.318 312.823 516.171 312.85 515.969 312.85C515.693 312.85 515.528 312.786 515.472 312.657C515.436 312.584 515.059 309.736 514.343 304.114L513.268 295.654L511.394 303.094C510.163 307.982 509.547 310.508 509.547 310.673C509.657 311.28 510.319 311.583 511.531 311.583H511.807C511.917 311.675 511.982 311.757 512 311.831C512.018 311.904 511.991 312.07 511.917 312.327C511.844 312.621 511.77 312.786 511.697 312.823C511.623 312.841 511.522 312.85 511.394 312.85C511.357 312.85 511.247 312.85 511.063 312.85C510.879 312.85 510.567 312.841 510.126 312.823C509.685 312.804 509.097 312.795 508.362 312.795C507.811 312.795 507.241 312.804 506.654 312.823C506.066 312.841 505.726 312.85 505.634 312.85C505.358 312.85 505.184 312.832 505.11 312.795C505.037 312.759 505 312.676 505 312.547C505 312.511 505.028 312.382 505.083 312.161C505.138 311.941 505.184 311.803 505.22 311.748C505.257 311.638 505.459 311.583 505.827 311.583C507.113 311.583 507.93 311.215 508.28 310.48C508.353 310.37 508.987 307.908 510.181 303.094C511.375 298.281 511.982 295.755 512 295.516Z" fill="black"/>
<defs>
<clipPath id="clip0_1_145">
<rect width="114" height="24" fill="white" transform="translate(205 200)"/>
</clipPath>
<clipPath id="clip1_1_145">
<rect width="155" height="27" fill="white" transform="translate(332 55)"/>
</clipPath>
<clipPath id="clip2_1_145">
<rect width="14" height="10" fill="white" transform="translate(182 176)"/>
</clipPath>
<clipPath id="clip3_1_145">
<rect width="40" height="15" fill="white" transform="translate(503 139)"/>
</clipPath>
</defs>
</svg>
