<svg width="1016" height="338" viewBox="0 0 1016 338" fill="none" xmlns="http://www.w3.org/2000/svg">
<rect width="1016" height="338" fill="#F5F5F5"/>
<rect width="1016" height="338" fill="white"/>
<path d="M723.5 111.69L445.5 260.132C421.567 273.122 394.146 280.499 365.001 280.499C318.333 280.499 276.083 261.583 245.5 231L530.563 78.9366C561.146 109.52 603.396 128.436 650.064 128.436C661.279 128.436 672.238 127.343 682.841 125.259L769.377 79.1245C756.082 92.3779 740.592 103.431 723.5 111.69Z" fill="#D9D9D9" fill-opacity="0.3"/>
<path d="M445.5 260.132L723.5 111.69M445.5 260.132C459.89 252.322 473.018 242.484 484.502 231L769.377 79.1245M445.5 260.132C421.567 273.122 394.146 280.499 365.001 280.499C318.333 280.499 276.083 261.583 245.5 231L530.563 78.9366C561.146 109.52 603.396 128.436 650.064 128.436C676.381 128.436 701.293 122.42 723.5 111.69M723.5 111.69C740.592 103.431 756.082 92.3779 769.377 79.1245M769.565 78.9366C769.503 78.9993 769.44 79.0619 769.377 79.1245" stroke="black"/>
<path d="M245.563 231.501C276.146 262.084 318.396 281 365.064 281C411.732 281 453.982 262.084 484.565 231.501" stroke="black"/>
<path d="M211 181.564C219.462 200.275 231.231 217.169 245.563 231.501C276.146 262.084 318.396 281 365.064 281C411.732 281 453.982 262.084 484.565 231.501C498.897 217.169 510.667 200.275 519.129 181.564" stroke="black" stroke-dasharray="2 2"/>
<path d="M530.563 78.9366C561.146 109.52 603.396 128.436 650.064 128.436C696.732 128.436 738.982 109.52 769.565 78.9366" stroke="black"/>
<path d="M496 29C504.462 47.7104 516.231 64.6046 530.563 78.9366C561.146 109.52 603.396 128.436 650.064 128.436C696.732 128.436 738.982 109.52 769.565 78.9366C783.897 64.6046 795.667 47.7104 804.129 29" stroke="black" stroke-dasharray="2 2"/>
<circle cx="365.064" cy="112" r="3" fill="black"/>
<circle cx="313" cy="273" r="8" fill="black"/>
<line x1="365.541" y1="109.152" x2="313.541" y2="272.152" stroke="black"/>
<path d="M723.5 111.69L445.5 260.132C459.89 252.322 473.018 242.484 484.502 231L769.377 79.1245C756.082 92.3779 740.592 103.431 723.5 111.69Z" fill="#D9D9D9" fill-opacity="0.5"/>
<path d="M769.565 78.9366C769.503 78.9993 769.44 79.0619 769.377 79.1245M769.377 79.1245C756.082 92.3779 740.592 103.431 723.5 111.69L445.5 260.132C459.89 252.322 473.018 242.484 484.502 231L769.377 79.1245Z" stroke="black"/>
<g clip-path="url(#clip0_0_1)">
<path d="M353.543 293.861C353.005 293.861 352.72 293.829 352.689 293.766C352.673 293.734 352.665 293.671 352.665 293.576C352.665 293.196 352.752 292.935 352.926 292.793C352.958 292.777 353.092 292.769 353.33 292.769C353.979 292.801 355.055 292.816 356.558 292.816C357.096 292.816 357.595 292.816 358.054 292.816C358.512 292.816 358.869 292.808 359.122 292.793C359.375 292.777 359.533 292.777 359.596 292.793C359.85 292.793 359.976 292.872 359.976 293.03C359.976 293.062 359.96 293.172 359.929 293.362C359.85 293.631 359.771 293.79 359.691 293.837H359.644C359.612 293.837 359.573 293.837 359.525 293.837C359.478 293.837 359.422 293.837 359.359 293.837C359.296 293.837 359.225 293.845 359.145 293.861C359.066 293.877 358.995 293.877 358.932 293.861C358.315 293.877 357.919 293.9 357.745 293.932C357.571 293.964 357.428 294.051 357.318 294.193C357.302 294.225 357.08 295.056 356.653 296.686C356.226 298.316 355.798 300.025 355.371 301.813C354.944 303.601 354.707 304.654 354.659 304.97C354.627 305.192 354.612 305.421 354.612 305.659C354.612 306.513 354.857 307.186 355.347 307.676C355.838 308.167 356.518 308.412 357.389 308.412C358.449 308.412 359.509 308.056 360.57 307.344C361.63 306.632 362.405 305.556 362.896 304.116L364.107 299.344C364.85 296.306 365.222 294.723 365.222 294.597C365.222 294.169 364.716 293.924 363.703 293.861C363.323 293.861 363.133 293.774 363.133 293.6C363.133 293.568 363.149 293.473 363.181 293.315C363.244 293.062 363.292 292.911 363.323 292.864C363.355 292.816 363.434 292.785 363.561 292.769C363.608 292.769 363.861 292.777 364.32 292.793C364.779 292.808 365.444 292.824 366.314 292.84C367.121 292.84 367.739 292.832 368.166 292.816C368.593 292.801 368.823 292.793 368.854 292.793C369.092 292.793 369.21 292.872 369.21 293.03C369.21 293.378 369.147 293.616 369.02 293.742C368.973 293.821 368.799 293.861 368.498 293.861C367.375 293.924 366.67 294.241 366.386 294.81C366.354 294.89 365.958 296.417 365.199 299.392C364.55 302.066 364.154 303.641 364.012 304.116C363.489 305.698 362.58 306.988 361.282 307.985C359.984 308.982 358.639 309.488 357.246 309.504C355.791 309.504 354.627 309.061 353.757 308.175C352.887 307.289 352.443 306.236 352.428 305.018V304.638C352.428 304.353 352.863 302.47 353.733 298.988C354.509 295.807 354.896 294.169 354.896 294.075C354.896 293.964 354.445 293.893 353.543 293.861Z" fill="black"/>
<path d="M377.799 303.047C377.799 301.117 378.447 299.534 379.745 298.3C381.043 297.065 382.578 296.361 384.35 296.187C384.366 296.187 384.445 296.187 384.588 296.187C384.73 296.187 384.928 296.187 385.181 296.187C385.434 296.187 385.711 296.179 386.012 296.163C386.313 296.148 386.669 296.148 387.08 296.163C387.492 296.179 387.879 296.179 388.243 296.163H391.923C392.16 296.29 392.279 296.448 392.279 296.638C392.279 296.781 392.176 296.931 391.97 297.089L388.196 297.113H386.961H386.273C385.086 297.113 384.271 297.145 383.828 297.208C383.385 297.271 382.815 297.461 382.119 297.778C381.771 297.952 381.438 298.157 381.122 298.395C380.805 298.632 380.449 298.965 380.054 299.392C379.658 299.819 379.342 300.349 379.104 300.982C378.867 301.615 378.748 302.304 378.748 303.047V303.166C378.748 304.559 379.231 305.793 380.196 306.869C381.13 307.882 382.261 308.531 383.591 308.816C383.907 308.895 384.208 308.934 384.493 308.934C384.778 308.934 386.012 308.95 388.196 308.982H391.97C392.176 309.14 392.279 309.298 392.279 309.457C392.279 309.647 392.16 309.805 391.923 309.931H388.291C388.038 309.931 387.674 309.931 387.199 309.931C386.724 309.931 386.36 309.939 386.107 309.955C384.778 309.955 383.63 309.829 382.665 309.575C381.7 309.322 380.774 308.768 379.888 307.914C378.495 306.616 377.799 304.994 377.799 303.047Z" fill="black"/>
<path d="M408.178 308.412C409.112 308.412 409.967 308.001 410.742 307.178C411.517 306.355 411.913 305.397 411.929 304.306C411.929 303.309 411.517 302.62 410.695 302.24C409.017 301.813 407.941 301.52 407.466 301.362C406.991 301.204 406.659 301.046 406.469 300.887C405.52 300.223 405.045 299.265 405.045 298.015C405.045 297.05 405.298 296.171 405.805 295.38C406.311 294.589 406.825 293.995 407.347 293.6C407.806 293.204 408.36 292.888 409.009 292.65C409.658 292.413 410.164 292.286 410.528 292.27H410.789H410.956C412.475 292.27 413.575 292.777 414.255 293.79C414.271 293.79 414.374 293.687 414.564 293.481C414.754 293.275 414.959 293.046 415.181 292.793C415.403 292.539 415.561 292.365 415.656 292.27C415.672 292.27 415.703 292.27 415.751 292.27C415.798 292.27 415.838 292.263 415.869 292.247C416.075 292.247 416.178 292.302 416.178 292.413C416.178 292.524 415.956 293.481 415.513 295.285C415.07 297.089 414.817 298.023 414.754 298.086C414.69 298.15 414.564 298.173 414.374 298.157C414.057 298.157 413.899 298.086 413.899 297.944C413.899 297.849 413.907 297.77 413.923 297.706C413.923 297.659 413.931 297.509 413.947 297.255C413.962 297.002 413.978 296.796 413.994 296.638C413.994 296.1 413.923 295.633 413.78 295.238C413.638 294.842 413.496 294.549 413.353 294.359C413.211 294.169 413.013 293.972 412.76 293.766C412.19 293.434 411.541 293.267 410.813 293.267C409.911 293.267 409.072 293.631 408.297 294.359C407.522 295.087 407.126 295.926 407.11 296.876C407.11 297.35 407.229 297.762 407.466 298.11C407.704 298.458 408.028 298.703 408.439 298.846C408.503 298.877 409.057 299.028 410.101 299.297C411.146 299.566 411.676 299.708 411.692 299.724C412.23 299.898 412.752 300.278 413.258 300.864C413.765 301.449 414.018 302.24 414.018 303.237C414.018 303.649 413.955 304.092 413.828 304.567C413.749 304.915 413.606 305.302 413.401 305.73C413.195 306.157 412.91 306.624 412.546 307.13C412.182 307.637 411.66 308.111 410.979 308.555C410.299 308.998 409.555 309.298 408.748 309.457C408.558 309.488 408.289 309.504 407.941 309.504C406.374 309.504 405.156 309.069 404.285 308.199L404.048 307.937L403.383 308.673C403.019 309.101 402.798 309.346 402.719 309.409C402.639 309.472 402.537 309.504 402.41 309.504C402.204 309.504 402.101 309.441 402.101 309.314C402.101 309.267 402.56 307.407 403.478 303.736C403.51 303.641 403.668 303.593 403.953 303.593H404.262C404.357 303.688 404.404 303.775 404.404 303.854C404.404 303.886 404.396 303.957 404.38 304.068C404.364 304.179 404.333 304.345 404.285 304.567C404.238 304.788 404.222 305.049 404.238 305.35C404.269 305.967 404.412 306.489 404.665 306.917C404.918 307.344 405.259 307.66 405.686 307.866C406.113 308.072 406.525 308.214 406.92 308.293C407.316 308.373 407.735 308.412 408.178 308.412Z" fill="black"/>
<path d="M418.993 289.478L418.775 289.562C418.618 289.618 418.394 289.674 418.104 289.73C417.813 289.785 417.488 289.825 417.13 289.847H416.811V289.075H417.13C417.656 289.053 418.143 288.969 418.59 288.823C419.038 288.678 419.351 288.544 419.53 288.42C419.709 288.297 419.866 288.174 420 288.051C420.022 288.018 420.09 288.001 420.201 288.001C420.302 288.001 420.397 288.034 420.487 288.102V293.12L420.503 298.154C420.582 298.233 420.649 298.283 420.705 298.305C420.761 298.328 420.895 298.35 421.108 298.373C421.32 298.395 421.667 298.406 422.148 298.406H422.585V299.178H422.4C422.165 299.145 421.275 299.128 419.731 299.128C418.21 299.128 417.332 299.145 417.097 299.178H416.895V298.406H417.332C417.578 298.406 417.79 298.406 417.969 298.406C418.148 298.406 418.288 298.401 418.389 298.389C418.49 298.378 418.579 298.361 418.657 298.339C418.736 298.317 418.78 298.305 418.792 298.305C418.803 298.305 418.836 298.277 418.892 298.222C418.948 298.166 418.982 298.143 418.993 298.154V289.478Z" fill="black"/>
</g>
<g clip-path="url(#clip1_0_1)">
<path d="M575.996 220.125C575.684 220.125 575.528 220.059 575.528 219.926C575.528 219.843 575.659 219.379 575.922 218.532C576.185 217.686 576.464 216.848 576.759 216.018L577.178 214.798C577.26 214.499 577.367 214.283 577.498 214.151H589.025H591.242C591.767 214.151 592.079 214.159 592.178 214.176C592.277 214.192 592.334 214.267 592.35 214.4C592.35 214.499 592.211 215.445 591.932 217.238C591.653 219.03 591.497 219.934 591.464 219.951C591.464 220.067 591.308 220.125 590.996 220.125C590.848 220.125 590.749 220.125 590.7 220.125C590.651 220.125 590.602 220.084 590.552 220.001L590.503 219.926C590.503 219.827 590.552 219.453 590.651 218.806C590.749 218.159 590.799 217.652 590.799 217.287C590.799 216.707 590.692 216.267 590.479 215.968C590.265 215.669 589.813 215.462 589.124 215.346C589.042 215.329 588.566 215.312 587.695 215.296C586.94 215.296 586.464 215.304 586.267 215.321C586.07 215.337 585.922 215.404 585.823 215.52C585.807 215.536 585.224 217.852 584.075 222.465C582.925 227.079 582.351 229.428 582.351 229.511C582.351 229.71 583.073 229.826 584.518 229.859C585.043 229.859 585.38 229.867 585.528 229.884C585.676 229.901 585.749 229.975 585.749 230.108C585.749 230.191 585.725 230.307 585.676 230.457C585.61 230.755 585.536 230.93 585.454 230.979L585.405 231.004C585.355 231.004 585.298 231.004 585.232 231.004C585.15 231.004 584.723 230.996 583.951 230.979C583.18 230.963 582.071 230.954 580.626 230.954C578.508 230.954 577.162 230.971 576.587 231.004H576.218C576.119 230.905 576.07 230.83 576.07 230.78C576.07 230.73 576.086 230.581 576.119 230.332C576.185 230.116 576.267 229.959 576.365 229.859H577.055H577.326C578.64 229.859 579.42 229.784 579.666 229.635C579.682 229.618 579.699 229.61 579.715 229.61C579.797 229.56 579.879 229.394 579.961 229.112C580.043 228.83 580.372 227.527 580.947 225.204C581.226 224.075 581.456 223.154 581.636 222.441C582.786 217.877 583.36 215.545 583.36 215.445C583.36 215.362 583.122 215.321 582.646 215.321H581.883C580.782 215.321 580.06 215.371 579.715 215.47C578.976 215.636 578.401 215.976 577.991 216.491C577.58 217.005 577.137 217.968 576.661 219.379C576.546 219.744 576.464 219.959 576.415 220.026C576.365 220.092 576.25 220.125 576.07 220.125H575.996Z" fill="black"/>
<path d="M598.161 215.689C598.01 214.117 597.934 213.237 597.934 213.049C597.934 212.838 598.074 212.674 598.352 212.556C598.364 212.556 598.393 212.556 598.439 212.556C598.486 212.556 598.521 212.55 598.544 212.539C598.683 212.55 598.811 212.603 598.927 212.697C599.043 212.791 599.101 212.908 599.101 213.049C599.101 213.249 599.066 213.718 598.997 214.457C598.927 215.196 598.886 215.607 598.875 215.689L599.885 214.95C600.535 214.469 600.889 214.211 600.947 214.175C601.005 214.14 601.063 214.123 601.121 214.123C601.272 214.123 601.411 214.181 601.539 214.299C601.667 214.416 601.736 214.574 601.748 214.774C601.748 214.926 601.69 215.061 601.574 215.179C601.516 215.214 601.121 215.407 600.39 215.759C599.658 216.112 599.264 216.299 599.206 216.323L600.355 216.868L601.574 217.484C601.678 217.59 601.731 217.725 601.731 217.889C601.731 218.065 601.678 218.212 601.574 218.329C601.469 218.446 601.33 218.511 601.156 218.523C601.063 218.523 600.959 218.488 600.842 218.417C600.726 218.347 600.407 218.112 599.885 217.713L598.875 216.974C599.026 218.546 599.101 219.426 599.101 219.614C599.101 219.731 599.06 219.843 598.979 219.948C598.898 220.054 598.747 220.107 598.526 220.107C598.306 220.107 598.155 220.054 598.074 219.948C597.992 219.843 597.946 219.731 597.934 219.614C597.934 219.415 597.969 218.945 598.039 218.206C598.109 217.467 598.149 217.056 598.161 216.974L597.151 217.713C596.501 218.194 596.147 218.452 596.089 218.488C596.042 218.523 595.984 218.54 595.914 218.54C595.763 218.54 595.624 218.482 595.496 218.364C595.369 218.247 595.299 218.089 595.288 217.889C595.288 217.83 595.288 217.784 595.288 217.748C595.288 217.713 595.305 217.678 595.34 217.643C595.375 217.608 595.404 217.572 595.427 217.537C595.45 217.502 595.502 217.461 595.584 217.414C595.665 217.367 595.74 217.326 595.81 217.291C595.88 217.256 595.99 217.203 596.141 217.132C596.292 217.062 596.437 216.997 596.576 216.939C596.715 216.88 596.901 216.792 597.133 216.675C597.366 216.557 597.598 216.44 597.83 216.323L595.462 215.179C595.357 215.073 595.305 214.938 595.305 214.774C595.305 214.598 595.357 214.451 595.462 214.334C595.566 214.217 595.705 214.152 595.88 214.14C595.972 214.14 596.077 214.175 596.193 214.246C596.309 214.316 596.628 214.551 597.151 214.95L598.161 215.689Z" fill="black"/>
<path d="M606.749 215.146C606.191 215.146 605.895 215.113 605.863 215.047C605.846 215.014 605.838 214.947 605.838 214.848C605.838 214.449 605.928 214.176 606.109 214.026C606.142 214.01 606.281 214.001 606.528 214.001C607.201 214.035 608.317 214.051 609.877 214.051C610.436 214.051 610.953 214.051 611.429 214.051C611.905 214.051 612.275 214.043 612.537 214.026C612.8 214.01 612.964 214.01 613.03 214.026C613.293 214.026 613.424 214.109 613.424 214.275C613.424 214.308 613.408 214.425 613.375 214.624C613.293 214.906 613.211 215.072 613.128 215.122H613.079C613.046 215.122 613.005 215.122 612.956 215.122C612.907 215.122 612.849 215.122 612.784 215.122C612.718 215.122 612.644 215.13 612.562 215.146C612.48 215.163 612.406 215.163 612.34 215.146C611.7 215.163 611.289 215.188 611.109 215.221C610.928 215.254 610.78 215.346 610.665 215.495C610.649 215.528 610.419 216.399 609.976 218.109C609.532 219.818 609.089 221.611 608.646 223.486C608.202 225.361 607.956 226.465 607.907 226.797C607.874 227.029 607.858 227.27 607.858 227.519C607.858 228.415 608.112 229.121 608.621 229.635C609.13 230.15 609.836 230.407 610.739 230.407C611.839 230.407 612.94 230.033 614.04 229.287C615.14 228.54 615.945 227.411 616.454 225.901L617.71 220.897C618.481 217.711 618.867 216.051 618.867 215.918C618.867 215.47 618.342 215.213 617.291 215.146C616.897 215.146 616.7 215.055 616.7 214.873C616.7 214.839 616.716 214.74 616.749 214.574C616.815 214.308 616.864 214.151 616.897 214.101C616.93 214.051 617.012 214.018 617.143 214.001C617.192 214.001 617.455 214.01 617.931 214.026C618.408 214.043 619.097 214.059 620 214.076C620.838 214.076 621.478 214.068 621.921 214.051C622.365 214.035 622.603 214.026 622.636 214.026C622.882 214.026 623.005 214.109 623.005 214.275C623.005 214.64 622.94 214.889 622.808 215.022C622.759 215.105 622.578 215.146 622.266 215.146C621.1 215.213 620.37 215.545 620.074 216.142C620.041 216.225 619.631 217.827 618.843 220.947C618.169 223.752 617.759 225.403 617.611 225.901C617.069 227.56 616.125 228.913 614.779 229.959C613.432 231.004 612.037 231.535 610.592 231.552C609.081 231.552 607.874 231.087 606.971 230.158C606.068 229.228 605.608 228.125 605.592 226.847V226.449C605.592 226.15 606.043 224.175 606.946 220.524C607.751 217.188 608.153 215.47 608.153 215.371C608.153 215.254 607.685 215.18 606.749 215.146Z" fill="black"/>
<path d="M631.914 224.781C631.914 222.756 632.587 221.096 633.934 219.802C635.28 218.507 636.873 217.769 638.712 217.586C638.728 217.586 638.81 217.586 638.958 217.586C639.106 217.586 639.311 217.586 639.574 217.586C639.837 217.586 640.124 217.578 640.436 217.561C640.748 217.545 641.117 217.545 641.544 217.561C641.971 217.578 642.374 217.578 642.751 217.561H646.569C646.815 217.694 646.938 217.86 646.938 218.059C646.938 218.208 646.832 218.366 646.618 218.532L642.702 218.557H641.421H640.707C639.475 218.557 638.63 218.59 638.17 218.657C637.71 218.723 637.119 218.922 636.397 219.254C636.035 219.437 635.691 219.652 635.362 219.901C635.034 220.15 634.664 220.499 634.254 220.947C633.843 221.395 633.515 221.951 633.269 222.615C633.022 223.279 632.899 224.001 632.899 224.781V224.905C632.899 226.366 633.4 227.66 634.402 228.789C635.37 229.851 636.544 230.531 637.924 230.83C638.252 230.913 638.564 230.954 638.86 230.954C639.155 230.954 640.436 230.971 642.702 231.004H646.618C646.832 231.17 646.938 231.336 646.938 231.502C646.938 231.701 646.815 231.867 646.569 232H642.801C642.538 232 642.16 232 641.668 232C641.175 232 640.797 232.008 640.535 232.025C639.155 232.025 637.965 231.892 636.963 231.627C635.962 231.361 635.001 230.78 634.081 229.884C632.636 228.523 631.914 226.822 631.914 224.781Z" fill="black"/>
<path d="M656.835 220.125C656.523 220.125 656.367 220.059 656.367 219.926C656.367 219.843 656.498 219.379 656.761 218.532C657.024 217.686 657.303 216.848 657.598 216.018L658.017 214.798C658.099 214.499 658.206 214.283 658.337 214.151H669.864H672.081C672.606 214.151 672.918 214.159 673.017 214.176C673.115 214.192 673.173 214.267 673.189 214.4C673.189 214.499 673.05 215.445 672.771 217.238C672.491 219.03 672.335 219.934 672.303 219.951C672.303 220.067 672.147 220.125 671.835 220.125C671.687 220.125 671.588 220.125 671.539 220.125C671.49 220.125 671.441 220.084 671.391 220.001L671.342 219.926C671.342 219.827 671.391 219.453 671.49 218.806C671.588 218.159 671.638 217.652 671.638 217.287C671.638 216.707 671.531 216.267 671.317 215.968C671.104 215.669 670.652 215.462 669.963 215.346C669.881 215.329 669.404 215.312 668.534 215.296C667.779 215.296 667.303 215.304 667.106 215.321C666.909 215.337 666.761 215.404 666.662 215.52C666.646 215.536 666.063 217.852 664.914 222.465C663.764 227.079 663.189 229.428 663.189 229.511C663.189 229.71 663.912 229.826 665.357 229.859C665.882 229.859 666.219 229.867 666.367 229.884C666.514 229.901 666.588 229.975 666.588 230.108C666.588 230.191 666.564 230.307 666.514 230.457C666.449 230.755 666.375 230.93 666.293 230.979L666.244 231.004C666.194 231.004 666.137 231.004 666.071 231.004C665.989 231.004 665.562 230.996 664.79 230.979C664.019 230.963 662.91 230.954 661.465 230.954C659.347 230.954 658.001 230.971 657.426 231.004H657.056C656.958 230.905 656.909 230.83 656.909 230.78C656.909 230.73 656.925 230.581 656.958 230.332C657.024 230.116 657.106 229.959 657.204 229.859H657.894H658.165C659.478 229.859 660.258 229.784 660.505 229.635C660.521 229.618 660.538 229.61 660.554 229.61C660.636 229.56 660.718 229.394 660.8 229.112C660.882 228.83 661.211 227.527 661.785 225.204C662.065 224.075 662.294 223.154 662.475 222.441C663.625 217.877 664.199 215.545 664.199 215.445C664.199 215.362 663.961 215.321 663.485 215.321H662.721C661.621 215.321 660.899 215.371 660.554 215.47C659.815 215.636 659.24 215.976 658.83 216.491C658.419 217.005 657.976 217.968 657.5 219.379C657.385 219.744 657.303 219.959 657.254 220.026C657.204 220.092 657.089 220.125 656.909 220.125H656.835Z" fill="black"/>
<path d="M679 215.689C678.849 214.117 678.773 213.237 678.773 213.049C678.773 212.838 678.913 212.674 679.191 212.556C679.203 212.556 679.232 212.556 679.278 212.556C679.325 212.556 679.359 212.55 679.383 212.539C679.522 212.55 679.65 212.603 679.766 212.697C679.882 212.791 679.94 212.908 679.94 213.049C679.94 213.249 679.905 213.718 679.835 214.457C679.766 215.196 679.725 215.607 679.714 215.689L680.724 214.95C681.374 214.469 681.728 214.211 681.786 214.175C681.844 214.14 681.902 214.123 681.96 214.123C682.111 214.123 682.25 214.181 682.378 214.299C682.506 214.416 682.575 214.574 682.587 214.774C682.587 214.926 682.529 215.061 682.413 215.179C682.355 215.214 681.96 215.407 681.229 215.759C680.497 216.112 680.102 216.299 680.044 216.323L681.194 216.868L682.413 217.484C682.517 217.59 682.569 217.725 682.569 217.889C682.569 218.065 682.517 218.212 682.413 218.329C682.308 218.446 682.169 218.511 681.995 218.523C681.902 218.523 681.797 218.488 681.681 218.417C681.565 218.347 681.246 218.112 680.724 217.713L679.714 216.974C679.864 218.546 679.94 219.426 679.94 219.614C679.94 219.731 679.899 219.843 679.818 219.948C679.737 220.054 679.586 220.107 679.365 220.107C679.145 220.107 678.994 220.054 678.913 219.948C678.831 219.843 678.785 219.731 678.773 219.614C678.773 219.415 678.808 218.945 678.878 218.206C678.947 217.467 678.988 217.056 679 216.974L677.99 217.713C677.34 218.194 676.985 218.452 676.927 218.488C676.881 218.523 676.823 218.54 676.753 218.54C676.602 218.54 676.463 218.482 676.335 218.364C676.208 218.247 676.138 218.089 676.126 217.889C676.126 217.83 676.126 217.784 676.126 217.748C676.126 217.713 676.144 217.678 676.179 217.643C676.213 217.608 676.242 217.572 676.266 217.537C676.289 217.502 676.341 217.461 676.422 217.414C676.504 217.367 676.579 217.326 676.649 217.291C676.718 217.256 676.829 217.203 676.98 217.132C677.131 217.062 677.276 216.997 677.415 216.939C677.554 216.88 677.74 216.792 677.972 216.675C678.204 216.557 678.437 216.44 678.669 216.323L676.301 215.179C676.196 215.073 676.144 214.938 676.144 214.774C676.144 214.598 676.196 214.451 676.301 214.334C676.405 214.217 676.544 214.152 676.718 214.14C676.811 214.14 676.916 214.175 677.032 214.246C677.148 214.316 677.467 214.551 677.99 214.95L679 215.689Z" fill="black"/>
<path d="M692.539 230.407C693.508 230.407 694.394 229.975 695.199 229.112C696.003 228.249 696.414 227.245 696.43 226.1C696.43 225.054 696.003 224.333 695.15 223.934C693.409 223.486 692.292 223.179 691.8 223.013C691.307 222.847 690.962 222.681 690.765 222.515C689.78 221.818 689.288 220.814 689.288 219.503C689.288 218.491 689.55 217.57 690.076 216.74C690.601 215.91 691.135 215.288 691.677 214.873C692.153 214.458 692.728 214.126 693.401 213.877C694.074 213.628 694.6 213.495 694.977 213.479H695.248H695.421C696.997 213.479 698.138 214.01 698.844 215.072C698.861 215.072 698.967 214.964 699.164 214.748C699.361 214.532 699.575 214.292 699.805 214.026C700.035 213.761 700.199 213.578 700.297 213.479C700.314 213.479 700.347 213.479 700.396 213.479C700.445 213.479 700.486 213.47 700.519 213.454C700.732 213.454 700.839 213.512 700.839 213.628C700.839 213.744 700.609 214.748 700.15 216.64C699.69 218.532 699.427 219.511 699.361 219.578C699.296 219.644 699.164 219.669 698.967 219.652C698.639 219.652 698.475 219.578 698.475 219.428C698.475 219.329 698.483 219.246 698.499 219.179C698.499 219.13 698.508 218.972 698.524 218.706C698.54 218.441 698.557 218.225 698.573 218.059C698.573 217.495 698.499 217.005 698.352 216.59C698.204 216.175 698.056 215.868 697.908 215.669C697.76 215.47 697.555 215.263 697.292 215.047C696.701 214.698 696.028 214.524 695.273 214.524C694.337 214.524 693.467 214.906 692.662 215.669C691.857 216.433 691.447 217.312 691.43 218.308C691.43 218.806 691.554 219.237 691.8 219.603C692.046 219.968 692.383 220.225 692.81 220.374C692.875 220.407 693.45 220.565 694.534 220.847C695.618 221.129 696.168 221.279 696.184 221.295C696.742 221.478 697.284 221.876 697.81 222.49C698.335 223.104 698.598 223.934 698.598 224.98C698.598 225.411 698.532 225.876 698.401 226.374C698.319 226.739 698.171 227.146 697.957 227.594C697.744 228.042 697.448 228.531 697.071 229.062C696.693 229.594 696.151 230.091 695.445 230.556C694.739 231.021 693.967 231.336 693.13 231.502C692.933 231.535 692.654 231.552 692.292 231.552C690.667 231.552 689.403 231.096 688.499 230.183L688.253 229.909L687.563 230.681C687.186 231.129 686.956 231.386 686.874 231.452C686.792 231.519 686.685 231.552 686.554 231.552C686.34 231.552 686.233 231.486 686.233 231.353C686.233 231.303 686.71 229.353 687.662 225.503C687.695 225.403 687.859 225.353 688.155 225.353H688.475C688.573 225.453 688.623 225.544 688.623 225.627C688.623 225.66 688.614 225.735 688.598 225.851C688.582 225.967 688.549 226.142 688.499 226.374C688.45 226.606 688.434 226.88 688.45 227.195C688.483 227.843 688.631 228.39 688.894 228.838C689.156 229.287 689.509 229.618 689.953 229.834C690.396 230.05 690.823 230.199 691.233 230.282C691.644 230.365 692.079 230.407 692.539 230.407Z" fill="black"/>
<path d="M703.76 210.55L703.534 210.638C703.371 210.696 703.139 210.755 702.837 210.814C702.535 210.872 702.199 210.914 701.827 210.937H701.496V210.127H701.827C702.373 210.104 702.878 210.016 703.342 209.863C703.807 209.711 704.132 209.57 704.317 209.441C704.503 209.312 704.666 209.183 704.805 209.054C704.828 209.019 704.898 209.001 705.014 209.001C705.118 209.001 705.217 209.036 705.31 209.107V214.369L705.327 219.649C705.409 219.731 705.478 219.784 705.536 219.808C705.594 219.831 705.734 219.855 705.954 219.878C706.175 219.901 706.535 219.913 707.034 219.913H707.487V220.723H707.295C707.051 220.688 706.128 220.67 704.526 220.67C702.947 220.67 702.036 220.688 701.792 220.723H701.583V219.913H702.036C702.292 219.913 702.512 219.913 702.698 219.913C702.884 219.913 703.029 219.907 703.133 219.896C703.238 219.884 703.331 219.866 703.412 219.843C703.493 219.819 703.54 219.808 703.551 219.808C703.563 219.808 703.598 219.778 703.656 219.72C703.714 219.661 703.748 219.637 703.76 219.649V210.55Z" fill="black"/>
</g>
<defs>
<clipPath id="clip0_0_1">
<rect width="74" height="21.9314" fill="white" transform="translate(351 288)"/>
</clipPath>
<clipPath id="clip1_0_1">
<rect width="135" height="23" fill="white" transform="translate(575 209)"/>
</clipPath>
</defs>
</svg>
