<svg width="816" height="382" viewBox="0 0 816 382" fill="none" xmlns="http://www.w3.org/2000/svg">
<path d="M235.729 119.766C288.365 66.2385 354.978 19.424 397.037 4.5173C421.307 9.37414 481.107 23.0996 544.298 37.6034C549.775 38.8606 555.278 40.1236 560.785 41.3871C628.93 57.022 697.772 72.7459 727.608 78.5642C662.394 117.051 595.321 169.908 546.437 223.036C521.853 249.754 501.855 276.555 489.01 301.644C476.272 326.526 470.538 349.784 474.416 369.627C429.365 380.433 364.304 371.419 303.513 352.344C242.568 333.221 186.064 304.032 158.439 274.737C151.552 254.119 157.641 228.823 172.101 201.921C186.576 174.992 209.389 146.552 235.729 119.766Z" stroke="black"/>
<path d="M240 195C240 195 305.191 146.353 373.186 132.454C433.215 120.183 526 132.454 526 132.454" stroke="black"/>
<path d="M277.279 302.778L117.82 222.137L227.647 92.502L387.105 173.144L277.279 302.778Z" fill="#D9D9D9" fill-opacity="0.3" stroke="black"/>
<path d="M542.722 199.964L381.947 163.827L505.465 62.5697L666.24 98.7071L542.722 199.964Z" fill="#D9D9D9" fill-opacity="0.3" stroke="black"/>
<path d="M166 193L173.5 197.33L173.5 188.67L166 193ZM241 192.25L172.75 192.25L172.75 193.75L241 193.75L241 192.25Z" fill="#00008B"/>
<path d="M486 94L488.241 102.365L494.365 96.2414L486 94ZM523.53 130.47L491.303 98.2426L490.243 99.3033L522.47 131.53L523.53 130.47Z" fill="#00008B"/>
<circle cx="240.5" cy="193.5" r="3.5" fill="black"/>
<circle cx="522.5" cy="131.5" r="3.5" fill="black"/>
<g clip-path="url(#clip0_1_145)">
<path d="M182.744 182.313C182.744 180.636 183.371 179.164 184.625 177.899C185.879 176.633 187.257 176 188.759 176C189.78 176 190.597 176.295 191.209 176.883C191.822 177.472 192.237 178.193 192.456 179.047C192.544 179.473 192.595 179.966 192.609 180.525V181.166C193.324 180.077 193.871 178.855 194.25 177.501C194.308 177.295 194.352 177.178 194.381 177.148C194.41 177.119 194.527 177.097 194.731 177.082C195.037 177.082 195.191 177.141 195.191 177.259C195.191 177.391 195.125 177.678 194.994 178.119C194.862 178.561 194.6 179.186 194.206 179.996C193.812 180.805 193.368 181.541 192.872 182.203L192.631 182.512L192.653 183.042C192.682 183.866 192.741 184.425 192.828 184.719C192.916 185.014 193.054 185.168 193.244 185.183C193.448 185.153 193.637 185.072 193.812 184.94C193.987 184.808 194.111 184.638 194.184 184.432C194.214 184.329 194.25 184.271 194.294 184.256C194.337 184.241 194.447 184.226 194.622 184.212C194.914 184.212 195.059 184.271 195.059 184.388C195.059 184.477 195.016 184.616 194.928 184.808C194.753 185.161 194.498 185.44 194.162 185.646C193.827 185.852 193.506 185.963 193.2 185.977H193.047C192.07 185.977 191.406 185.448 191.056 184.388L190.991 184.234L190.75 184.41C190.604 184.528 190.385 184.675 190.094 184.852C189.802 185.028 189.474 185.198 189.109 185.359C188.745 185.521 188.322 185.668 187.841 185.801C187.359 185.933 186.893 186 186.441 186C185.289 186 184.384 185.632 183.728 184.896C183.072 184.16 182.744 183.299 182.744 182.313ZM186.55 185.183C187.265 185.183 187.979 185.028 188.694 184.719C189.408 184.41 189.941 184.094 190.291 183.77L190.816 183.285C190.786 181.18 190.735 179.871 190.662 179.356C190.458 177.663 189.787 176.817 188.65 176.817C187.644 176.817 186.761 177.354 186.003 178.428C185.609 179.017 185.289 179.812 185.041 180.812C184.793 181.813 184.661 182.578 184.647 183.108C184.647 183.829 184.829 184.351 185.194 184.675C185.558 184.999 186.01 185.168 186.55 185.183Z" fill="black"/>
</g>
<g clip-path="url(#clip1_1_145)">
<path d="M510.307 148.25C510.072 148.451 509.728 148.668 509.273 148.899C508.819 149.131 508.341 149.247 507.84 149.247C506.853 149.247 506.062 148.899 505.467 148.204C504.872 147.508 504.566 146.62 504.551 145.538C504.551 143.915 505.154 142.424 506.36 141.064C507.566 139.703 508.905 139.016 510.378 139C511.114 139 511.795 139.371 512.422 140.113L512.492 140.02C512.524 139.974 512.563 139.928 512.61 139.881C512.657 139.835 512.727 139.773 512.821 139.696C512.915 139.618 513.017 139.564 513.127 139.533C513.237 139.503 513.362 139.479 513.503 139.464C513.722 139.464 513.902 139.533 514.043 139.673C514.184 139.812 514.263 139.958 514.278 140.113C514.278 140.345 513.832 142.215 512.939 145.723C512.046 149.232 511.576 151.025 511.529 151.102C511.247 151.936 510.644 152.624 509.72 153.165C508.796 153.706 507.738 153.984 506.548 154C504.339 154 503.235 153.474 503.235 152.423C503.235 152.021 503.376 151.666 503.658 151.357C503.94 151.048 504.3 150.893 504.739 150.893C504.974 150.893 505.193 150.963 505.397 151.102C505.6 151.241 505.71 151.481 505.726 151.821C505.726 151.975 505.71 152.122 505.679 152.261C505.647 152.4 505.592 152.508 505.514 152.586C505.436 152.663 505.373 152.74 505.326 152.817C505.279 152.895 505.224 152.957 505.162 153.003L505.115 153.049H505.138C505.295 153.096 505.765 153.119 506.548 153.119C507.143 153.119 507.613 153.026 507.958 152.841C508.318 152.671 508.655 152.416 508.968 152.076C509.281 151.736 509.501 151.372 509.626 150.986C509.72 150.692 509.845 150.213 510.002 149.549C510.206 148.807 510.307 148.374 510.307 148.25ZM512.023 141.643L511.929 141.388C511.882 141.218 511.842 141.102 511.811 141.04C511.78 140.979 511.733 140.87 511.67 140.716C511.607 140.561 511.529 140.453 511.435 140.391C511.341 140.329 511.239 140.244 511.13 140.136C511.02 140.028 510.879 139.958 510.707 139.928C510.534 139.897 510.362 139.873 510.19 139.858C509.501 139.858 508.835 140.268 508.193 141.087C507.723 141.689 507.331 142.609 507.018 143.846C506.705 145.082 506.548 145.978 506.548 146.535C506.548 147.756 507.034 148.366 508.005 148.366C508.882 148.366 509.743 147.825 510.589 146.743L510.777 146.512L512.023 141.643Z" fill="black"/>
<path d="M521.261 143.451C521.261 143.08 521.394 142.756 521.661 142.478C521.927 142.199 522.264 142.06 522.671 142.06C523.047 142.06 523.376 142.184 523.658 142.431C523.94 142.679 524.089 143.011 524.104 143.428C524.104 143.815 523.971 144.147 523.705 144.425C523.439 144.703 523.102 144.842 522.695 144.842C522.287 144.842 521.95 144.711 521.684 144.448C521.418 144.186 521.277 143.853 521.261 143.451Z" fill="black"/>
<path d="M531.722 142.594C531.737 142.547 531.753 142.485 531.769 142.408C531.784 142.331 531.824 142.161 531.886 141.898C531.949 141.635 532.027 141.396 532.121 141.179C532.215 140.963 532.333 140.708 532.474 140.414C532.615 140.121 532.771 139.889 532.944 139.719C533.116 139.549 533.32 139.379 533.555 139.209C533.789 139.039 534.048 138.969 534.33 139C535.505 139 536.257 139.495 536.586 140.484L536.82 140.275C537.792 139.425 538.716 139 539.593 139C540.611 139 541.41 139.363 541.99 140.09C542.569 140.816 542.859 141.697 542.859 142.733C542.859 144.402 542.264 145.94 541.073 147.346C539.883 148.753 538.536 149.464 537.032 149.479C536.687 149.479 536.382 149.433 536.116 149.34C535.943 149.263 535.763 149.147 535.575 148.992C535.387 148.838 535.238 148.706 535.129 148.598L534.964 148.413C534.949 148.428 534.776 149.1 534.447 150.43C534.118 151.759 533.954 152.431 533.954 152.447C533.954 152.539 534.017 152.593 534.142 152.609C534.267 152.624 534.557 152.647 535.011 152.678H535.599C535.693 152.787 535.74 152.856 535.74 152.887C535.74 152.918 535.716 153.057 535.669 153.304C535.622 153.49 535.575 153.606 535.528 153.652C535.481 153.698 535.379 153.729 535.223 153.745C535.191 153.745 535.105 153.745 534.964 153.745C534.823 153.745 534.557 153.737 534.165 153.722C533.774 153.706 533.288 153.698 532.709 153.698C531.612 153.698 530.915 153.714 530.617 153.745H530.43C530.32 153.637 530.265 153.552 530.265 153.49C530.296 153.072 530.398 152.802 530.57 152.678H531.04C531.573 152.663 531.878 152.57 531.957 152.4C532.004 152.307 532.482 150.46 533.39 146.859C534.299 143.258 534.776 141.349 534.823 141.133C534.839 141.056 534.847 140.948 534.847 140.808C534.847 140.175 534.651 139.858 534.259 139.858C533.915 139.858 533.625 140.074 533.39 140.507C533.155 140.94 532.975 141.411 532.85 141.921C532.724 142.431 532.63 142.71 532.568 142.756C532.536 142.787 532.411 142.802 532.192 142.802H531.863C531.769 142.71 531.722 142.64 531.722 142.594ZM535.364 146.883C535.708 148.057 536.288 148.644 537.102 148.644C537.572 148.644 538.027 148.467 538.465 148.111C538.904 147.756 539.264 147.308 539.546 146.767C539.828 146.241 540.11 145.407 540.392 144.263C540.674 143.119 540.823 142.269 540.838 141.713V141.574C540.838 140.43 540.361 139.858 539.405 139.858C539.233 139.858 539.06 139.881 538.888 139.928C538.716 139.974 538.544 140.043 538.371 140.136C538.199 140.229 538.042 140.329 537.901 140.438C537.76 140.546 537.627 140.662 537.502 140.785C537.377 140.909 537.259 141.025 537.149 141.133C537.04 141.241 536.954 141.349 536.891 141.458C536.828 141.566 536.766 141.643 536.703 141.689L536.633 141.782C536.633 141.798 536.609 141.906 536.562 142.107C536.515 142.308 536.429 142.648 536.304 143.127C536.178 143.606 536.069 144.008 535.975 144.332C535.567 145.971 535.364 146.821 535.364 146.883Z" fill="black"/>
</g>
<path d="M299.489 298.358C299.163 298.358 299 298.29 299 298.152C299 298.067 299.137 297.586 299.412 296.711C299.686 295.836 299.978 294.969 300.287 294.111L300.725 292.85C300.811 292.541 300.922 292.317 301.059 292.18H313.107H315.424C315.973 292.18 316.299 292.189 316.402 292.206C316.505 292.223 316.565 292.3 316.582 292.438C316.582 292.541 316.436 293.519 316.144 295.372C315.853 297.226 315.69 298.161 315.655 298.178C315.655 298.298 315.492 298.358 315.166 298.358C315.012 298.358 314.909 298.358 314.857 298.358C314.806 298.358 314.754 298.315 314.703 298.23L314.651 298.152C314.651 298.049 314.703 297.663 314.806 296.994C314.909 296.325 314.96 295.801 314.96 295.424C314.96 294.823 314.849 294.368 314.626 294.059C314.403 293.75 313.931 293.536 313.21 293.416C313.124 293.399 312.626 293.382 311.717 293.364C310.927 293.364 310.43 293.373 310.224 293.39C310.018 293.407 309.863 293.476 309.76 293.596C309.743 293.613 309.134 296.007 307.933 300.778C306.731 305.549 306.131 307.977 306.131 308.063C306.131 308.269 306.886 308.389 308.396 308.424C308.945 308.424 309.297 308.432 309.451 308.449C309.606 308.467 309.683 308.544 309.683 308.681C309.683 308.767 309.657 308.887 309.606 309.042C309.537 309.35 309.46 309.531 309.374 309.582L309.323 309.608C309.271 309.608 309.211 309.608 309.143 309.608C309.057 309.608 308.611 309.599 307.804 309.582C306.997 309.565 305.839 309.556 304.329 309.556C302.115 309.556 300.708 309.574 300.107 309.608H299.721C299.618 309.505 299.566 309.428 299.566 309.376C299.566 309.325 299.583 309.17 299.618 308.913C299.686 308.69 299.772 308.527 299.875 308.424H300.596H300.879C302.252 308.424 303.067 308.346 303.325 308.192C303.342 308.175 303.359 308.166 303.376 308.166C303.462 308.115 303.548 307.943 303.634 307.651C303.719 307.36 304.063 306.012 304.663 303.61C304.955 302.443 305.195 301.49 305.384 300.752C306.585 296.033 307.186 293.622 307.186 293.519C307.186 293.433 306.937 293.39 306.44 293.39H305.642C304.492 293.39 303.737 293.442 303.376 293.545C302.604 293.716 302.003 294.068 301.574 294.6C301.145 295.132 300.682 296.127 300.184 297.586C300.064 297.964 299.978 298.187 299.927 298.255C299.875 298.324 299.755 298.358 299.566 298.358H299.489Z" fill="black"/>
<path d="M313.912 308.246C313.924 308.209 313.936 308.161 313.948 308.1C313.96 308.04 313.99 307.906 314.039 307.7C314.088 307.494 314.148 307.306 314.221 307.136C314.294 306.966 314.385 306.766 314.494 306.535C314.603 306.305 314.725 306.123 314.858 305.989C314.991 305.856 315.149 305.722 315.331 305.589C315.513 305.455 315.713 305.401 315.932 305.425C316.842 305.425 317.424 305.813 317.679 306.59L317.861 306.426C318.613 305.759 319.329 305.425 320.009 305.425C320.797 305.425 321.416 305.71 321.865 306.28C322.314 306.851 322.538 307.542 322.538 308.355C322.538 309.665 322.077 310.873 321.155 311.977C320.233 313.081 319.19 313.639 318.025 313.651C317.758 313.651 317.521 313.615 317.315 313.542C317.182 313.481 317.042 313.39 316.896 313.269C316.751 313.148 316.636 313.045 316.551 312.96L316.423 312.814C316.411 312.826 316.278 313.354 316.023 314.397C315.768 315.441 315.641 315.969 315.641 315.981C315.641 316.054 315.689 316.096 315.786 316.108C315.883 316.12 316.108 316.139 316.46 316.163H316.915C316.987 316.248 317.024 316.302 317.024 316.327C317.024 316.351 317.006 316.46 316.969 316.654C316.933 316.8 316.896 316.891 316.86 316.927C316.824 316.964 316.745 316.988 316.623 317C316.599 317 316.532 317 316.423 317C316.314 317 316.108 316.994 315.804 316.982C315.501 316.97 315.125 316.964 314.676 316.964C313.827 316.964 313.287 316.976 313.056 317H312.911C312.826 316.915 312.783 316.848 312.783 316.8C312.807 316.472 312.886 316.26 313.02 316.163H313.384C313.796 316.151 314.033 316.078 314.094 315.944C314.13 315.872 314.5 314.422 315.204 311.595C315.908 308.768 316.278 307.269 316.314 307.099C316.326 307.039 316.332 306.954 316.332 306.844C316.332 306.347 316.181 306.098 315.877 306.098C315.61 306.098 315.386 306.268 315.204 306.608C315.022 306.948 314.882 307.318 314.785 307.718C314.688 308.118 314.615 308.337 314.567 308.373C314.543 308.398 314.445 308.41 314.276 308.41H314.021C313.948 308.337 313.912 308.282 313.912 308.246ZM316.733 311.613C317 312.535 317.448 312.996 318.079 312.996C318.443 312.996 318.795 312.856 319.135 312.577C319.475 312.298 319.754 311.946 319.972 311.522C320.191 311.109 320.409 310.454 320.627 309.556C320.846 308.658 320.961 307.991 320.973 307.554V307.445C320.973 306.547 320.603 306.098 319.863 306.098C319.73 306.098 319.596 306.116 319.463 306.153C319.329 306.189 319.196 306.244 319.062 306.317C318.929 306.389 318.807 306.468 318.698 306.553C318.589 306.638 318.486 306.729 318.389 306.826C318.292 306.923 318.201 307.014 318.116 307.099C318.031 307.184 317.964 307.269 317.916 307.354C317.867 307.439 317.819 307.5 317.77 307.536L317.715 307.609C317.715 307.621 317.697 307.706 317.661 307.864C317.624 308.021 317.558 308.288 317.461 308.664C317.364 309.041 317.279 309.356 317.206 309.611C316.89 310.897 316.733 311.564 316.733 311.613Z" fill="black"/>
<path d="M331.376 293.416C331.376 293.313 330.887 293.244 329.909 293.21C329.497 293.21 329.231 293.201 329.111 293.184C328.991 293.167 328.931 293.081 328.931 292.927C328.931 292.91 328.948 292.815 328.982 292.644C328.999 292.592 329.017 292.532 329.034 292.463C329.051 292.395 329.059 292.352 329.059 292.335C329.059 292.317 329.077 292.275 329.111 292.206C329.145 292.137 329.162 292.112 329.162 292.129C329.162 292.146 329.197 292.129 329.265 292.077C329.334 292.026 329.377 292.009 329.394 292.026C329.411 292.043 329.48 292.043 329.6 292.026C329.72 292.009 329.823 292 329.909 292C330.012 292 330.269 292 330.681 292C331.093 292 331.479 292.009 331.84 292.026C333.195 292.026 333.976 292.026 334.182 292.026C334.388 292.026 334.525 292.069 334.594 292.154C334.611 292.223 334.929 294.643 335.547 299.414L336.473 306.596L337.065 305.644C337.477 305.026 338.026 304.168 338.713 303.069C339.399 301.971 340.154 300.77 340.978 299.465C343.982 294.677 345.5 292.266 345.535 292.232C345.552 292.215 345.578 292.189 345.612 292.154C345.646 292.12 345.681 292.094 345.715 292.077L345.869 292.026H348.341C348.632 292.026 348.976 292.026 349.37 292.026C349.765 292.026 350.014 292.017 350.117 292C350.7 292 350.992 292.094 350.992 292.283C350.992 292.369 350.966 292.515 350.915 292.721C350.863 292.927 350.838 293.038 350.838 293.055C350.769 293.158 350.451 293.21 349.885 293.21C349.199 293.227 348.761 293.253 348.572 293.287C348.383 293.321 348.229 293.416 348.109 293.57C348.057 293.656 347.44 296.084 346.255 300.855C345.071 305.626 344.471 308.038 344.453 308.089C344.453 308.158 344.462 308.201 344.479 308.218C344.496 308.235 344.556 308.269 344.659 308.321C344.762 308.372 344.908 308.389 345.097 308.372C345.286 308.355 345.569 308.372 345.947 308.424H346.745C346.847 308.578 346.899 308.673 346.899 308.707C346.899 308.981 346.839 309.239 346.719 309.479C346.633 309.565 346.496 309.608 346.307 309.608C346.221 309.608 345.869 309.599 345.251 309.582C344.634 309.565 343.844 309.556 342.883 309.556C341.836 309.556 341.047 309.556 340.515 309.556C339.983 309.556 339.683 309.565 339.614 309.582C339.322 309.582 339.176 309.496 339.176 309.325C339.176 309.29 339.193 309.17 339.228 308.964C339.296 308.69 339.365 308.535 339.434 308.501C339.502 308.467 339.7 308.441 340.026 308.424C340.489 308.424 341.004 308.398 341.57 308.346C341.811 308.295 341.974 308.192 342.059 308.038C342.094 307.969 342.42 306.716 343.038 304.279C343.655 301.842 344.265 299.414 344.865 296.994C345.466 294.574 345.766 293.364 345.766 293.364L340.772 301.319C337.409 306.673 335.684 309.393 335.598 309.479C335.564 309.496 335.529 309.513 335.495 309.531C335.409 309.582 335.272 309.608 335.083 309.608C334.826 309.608 334.671 309.548 334.62 309.428C334.586 309.359 334.234 306.699 333.564 301.447L332.56 293.545L330.81 300.495C329.66 305.06 329.085 307.42 329.085 307.574C329.188 308.141 329.806 308.424 330.939 308.424H331.196C331.299 308.51 331.359 308.587 331.376 308.655C331.393 308.724 331.368 308.878 331.299 309.119C331.23 309.393 331.162 309.548 331.093 309.582C331.024 309.599 330.93 309.608 330.81 309.608C330.776 309.608 330.673 309.608 330.501 309.608C330.329 309.608 330.038 309.599 329.626 309.582C329.214 309.565 328.665 309.556 327.978 309.556C327.463 309.556 326.931 309.565 326.382 309.582C325.833 309.599 325.516 309.608 325.43 309.608C325.172 309.608 325.009 309.591 324.941 309.556C324.872 309.522 324.838 309.445 324.838 309.325C324.838 309.29 324.863 309.17 324.915 308.964C324.966 308.758 325.009 308.63 325.044 308.578C325.078 308.475 325.267 308.424 325.61 308.424C326.811 308.424 327.575 308.08 327.901 307.394C327.97 307.291 328.562 304.991 329.677 300.495C330.793 295.999 331.359 293.639 331.376 293.416Z" fill="black"/>
<path d="M572.485 107.308C572.162 107.308 572 107.24 572 107.104C572 107.018 572.136 106.542 572.409 105.673C572.681 104.805 572.97 103.945 573.277 103.094L573.711 101.843C573.796 101.536 573.907 101.315 574.043 101.179H585.995H588.293C588.838 101.179 589.161 101.187 589.264 101.204C589.366 101.221 589.425 101.298 589.442 101.434C589.442 101.536 589.298 102.507 589.008 104.345C588.719 106.184 588.557 107.112 588.523 107.129C588.523 107.248 588.361 107.308 588.038 107.308C587.885 107.308 587.782 107.308 587.731 107.308C587.68 107.308 587.629 107.265 587.578 107.18L587.527 107.104C587.527 107.001 587.578 106.618 587.68 105.954C587.782 105.29 587.834 104.771 587.834 104.397C587.834 103.801 587.723 103.349 587.502 103.043C587.28 102.737 586.812 102.524 586.097 102.405C586.012 102.388 585.518 102.371 584.616 102.354C583.833 102.354 583.339 102.362 583.135 102.379C582.93 102.396 582.777 102.464 582.675 102.583C582.658 102.6 582.053 104.975 580.862 109.708C579.67 114.441 579.074 116.851 579.074 116.936C579.074 117.14 579.823 117.259 581.321 117.293C581.866 117.293 582.215 117.302 582.368 117.319C582.522 117.336 582.598 117.412 582.598 117.549C582.598 117.634 582.573 117.753 582.522 117.906C582.454 118.213 582.377 118.391 582.292 118.442L582.241 118.468C582.19 118.468 582.13 118.468 582.062 118.468C581.977 118.468 581.534 118.459 580.734 118.442C579.934 118.425 578.785 118.417 577.286 118.417C575.09 118.417 573.694 118.434 573.098 118.468H572.715C572.613 118.366 572.562 118.289 572.562 118.238C572.562 118.187 572.579 118.034 572.613 117.778C572.681 117.557 572.766 117.395 572.868 117.293H573.583H573.864C575.226 117.293 576.035 117.217 576.29 117.063C576.307 117.046 576.324 117.038 576.341 117.038C576.427 116.987 576.512 116.816 576.597 116.527C576.682 116.238 577.022 114.901 577.618 112.518C577.908 111.36 578.146 110.415 578.333 109.683C579.525 105.001 580.121 102.609 580.121 102.507C580.121 102.422 579.874 102.379 579.38 102.379H578.589C577.448 102.379 576.699 102.43 576.341 102.532C575.575 102.703 574.979 103.052 574.554 103.579C574.128 104.107 573.668 105.095 573.175 106.542C573.056 106.916 572.97 107.138 572.919 107.206C572.868 107.274 572.749 107.308 572.562 107.308H572.485Z" fill="black"/>
<path d="M591.993 121.522C591.812 121.679 591.548 121.847 591.199 122.028C590.85 122.208 590.482 122.299 590.097 122.299C589.339 122.299 588.731 122.028 588.274 121.486C587.816 120.944 587.582 120.252 587.569 119.41C587.569 118.146 588.033 116.984 588.96 115.925C589.887 114.866 590.916 114.33 592.047 114.318C592.613 114.318 593.137 114.607 593.618 115.185L593.672 115.113C593.696 115.077 593.726 115.04 593.762 115.004C593.799 114.968 593.853 114.92 593.925 114.86C593.997 114.8 594.075 114.758 594.16 114.733C594.244 114.709 594.34 114.691 594.449 114.679C594.617 114.679 594.756 114.733 594.864 114.842C594.972 114.95 595.032 115.064 595.044 115.185C595.044 115.365 594.701 116.822 594.015 119.554C593.329 122.287 592.968 123.683 592.932 123.743C592.715 124.393 592.252 124.929 591.542 125.35C590.831 125.771 590.019 125.988 589.104 126C587.407 126 586.558 125.591 586.558 124.772C586.558 124.459 586.667 124.182 586.883 123.942C587.1 123.701 587.377 123.581 587.714 123.581C587.894 123.581 588.063 123.635 588.219 123.743C588.376 123.851 588.46 124.038 588.472 124.303C588.472 124.423 588.46 124.537 588.436 124.646C588.412 124.754 588.37 124.838 588.31 124.899C588.25 124.959 588.201 125.019 588.165 125.079C588.129 125.139 588.087 125.187 588.039 125.224L588.003 125.26H588.021C588.141 125.296 588.502 125.314 589.104 125.314C589.562 125.314 589.923 125.242 590.188 125.097C590.464 124.965 590.723 124.766 590.964 124.501C591.205 124.237 591.373 123.954 591.469 123.653C591.542 123.424 591.638 123.051 591.758 122.533C591.915 121.956 591.993 121.619 591.993 121.522ZM593.311 116.376L593.239 116.178C593.203 116.045 593.173 115.955 593.149 115.907C593.125 115.859 593.088 115.775 593.04 115.654C592.992 115.534 592.932 115.45 592.86 115.402C592.787 115.353 592.709 115.287 592.625 115.203C592.541 115.119 592.432 115.064 592.3 115.04C592.168 115.016 592.035 114.998 591.903 114.986C591.373 114.986 590.862 115.305 590.368 115.943C590.007 116.413 589.706 117.129 589.465 118.092C589.225 119.055 589.104 119.753 589.104 120.186C589.104 121.137 589.477 121.613 590.224 121.613C590.898 121.613 591.56 121.191 592.21 120.349L592.354 120.168L593.311 116.376Z" fill="black"/>
<path d="M596.399 117.785C596.399 117.496 596.501 117.243 596.705 117.026C596.91 116.81 597.169 116.701 597.482 116.701C597.771 116.701 598.024 116.798 598.24 116.99C598.457 117.183 598.571 117.442 598.583 117.767C598.583 118.068 598.481 118.326 598.276 118.543C598.072 118.76 597.813 118.868 597.5 118.868C597.187 118.868 596.928 118.766 596.724 118.561C596.519 118.357 596.411 118.098 596.399 117.785Z" fill="black"/>
<path d="M600.425 117.117C600.437 117.081 600.449 117.032 600.461 116.972C600.473 116.912 600.503 116.78 600.551 116.575C600.599 116.37 600.66 116.184 600.732 116.015C600.804 115.847 600.894 115.648 601.003 115.42C601.111 115.191 601.231 115.01 601.364 114.878C601.496 114.745 601.653 114.613 601.833 114.481C602.014 114.348 602.212 114.294 602.429 114.318C603.332 114.318 603.91 114.703 604.162 115.474L604.343 115.311C605.089 114.649 605.799 114.318 606.473 114.318C607.256 114.318 607.87 114.601 608.315 115.167C608.76 115.733 608.983 116.419 608.983 117.225C608.983 118.525 608.526 119.723 607.611 120.818C606.696 121.913 605.661 122.467 604.505 122.479C604.241 122.479 604.006 122.443 603.801 122.371C603.669 122.311 603.53 122.22 603.386 122.1C603.242 121.98 603.127 121.877 603.043 121.793L602.917 121.649C602.904 121.661 602.772 122.184 602.519 123.219C602.267 124.255 602.14 124.778 602.14 124.79C602.14 124.862 602.188 124.905 602.285 124.917C602.381 124.929 602.604 124.947 602.953 124.971H603.404C603.476 125.055 603.512 125.109 603.512 125.133C603.512 125.157 603.494 125.266 603.458 125.458C603.422 125.603 603.386 125.693 603.35 125.729C603.314 125.765 603.235 125.789 603.115 125.801C603.091 125.801 603.025 125.801 602.917 125.801C602.808 125.801 602.604 125.795 602.303 125.783C602.002 125.771 601.629 125.765 601.183 125.765C600.341 125.765 599.805 125.777 599.576 125.801H599.432C599.348 125.717 599.305 125.651 599.305 125.603C599.33 125.278 599.408 125.067 599.54 124.971H599.901C600.311 124.959 600.545 124.887 600.605 124.754C600.642 124.682 601.009 123.244 601.707 120.439C602.405 117.634 602.772 116.148 602.808 115.979C602.82 115.919 602.826 115.835 602.826 115.726C602.826 115.233 602.676 114.986 602.375 114.986C602.11 114.986 601.887 115.155 601.707 115.492C601.526 115.829 601.388 116.196 601.292 116.593C601.195 116.99 601.123 117.207 601.075 117.243C601.051 117.267 600.955 117.279 600.786 117.279H600.533C600.461 117.207 600.425 117.153 600.425 117.117ZM603.223 120.457C603.488 121.372 603.934 121.829 604.56 121.829C604.921 121.829 605.27 121.691 605.607 121.414C605.944 121.137 606.221 120.788 606.437 120.367C606.654 119.957 606.871 119.307 607.087 118.417C607.304 117.526 607.418 116.864 607.43 116.431V116.322C607.43 115.432 607.063 114.986 606.329 114.986C606.197 114.986 606.064 115.004 605.932 115.04C605.799 115.077 605.667 115.131 605.535 115.203C605.402 115.275 605.282 115.353 605.173 115.438C605.065 115.522 604.963 115.612 604.866 115.708C604.77 115.805 604.68 115.895 604.596 115.979C604.511 116.064 604.445 116.148 604.397 116.232C604.349 116.316 604.301 116.376 604.253 116.413L604.198 116.485C604.198 116.497 604.18 116.581 604.144 116.738C604.108 116.894 604.042 117.159 603.946 117.532C603.849 117.905 603.765 118.218 603.693 118.471C603.38 119.747 603.223 120.409 603.223 120.457Z" fill="black"/>
<path d="M617.751 102.405C617.751 102.302 617.266 102.234 616.296 102.2C615.887 102.2 615.623 102.192 615.504 102.175C615.385 102.158 615.325 102.073 615.325 101.919C615.325 101.902 615.342 101.809 615.376 101.638C615.393 101.587 615.41 101.528 615.427 101.46C615.444 101.392 615.453 101.349 615.453 101.332C615.453 101.315 615.47 101.272 615.504 101.204C615.538 101.136 615.555 101.111 615.555 101.128C615.555 101.145 615.589 101.128 615.657 101.077C615.725 101.026 615.768 101.009 615.785 101.026C615.802 101.043 615.87 101.043 615.989 101.026C616.108 101.009 616.21 101 616.296 101C616.398 101 616.653 101 617.062 101C617.47 101 617.853 101.009 618.211 101.026C619.556 101.026 620.331 101.026 620.535 101.026C620.739 101.026 620.875 101.068 620.943 101.153C620.96 101.221 621.275 103.622 621.888 108.355L622.808 115.48L623.395 114.535C623.804 113.922 624.348 113.071 625.029 111.981C625.711 110.892 626.46 109.7 627.277 108.406C630.256 103.656 631.763 101.264 631.797 101.23C631.814 101.213 631.84 101.187 631.874 101.153C631.908 101.119 631.942 101.094 631.976 101.077L632.129 101.026H634.581C634.87 101.026 635.211 101.026 635.602 101.026C635.994 101.026 636.241 101.017 636.343 101C636.922 101 637.211 101.094 637.211 101.281C637.211 101.366 637.186 101.511 637.134 101.715C637.083 101.919 637.058 102.03 637.058 102.047C636.99 102.149 636.675 102.2 636.113 102.2C635.432 102.217 634.998 102.243 634.811 102.277C634.623 102.311 634.47 102.405 634.351 102.558C634.3 102.643 633.687 105.052 632.512 109.785C631.337 114.518 630.741 116.91 630.724 116.961C630.724 117.029 630.733 117.072 630.75 117.089C630.767 117.106 630.827 117.14 630.929 117.191C631.031 117.242 631.176 117.259 631.363 117.242C631.55 117.225 631.831 117.242 632.206 117.293H632.997C633.099 117.446 633.151 117.54 633.151 117.574C633.151 117.847 633.091 118.102 632.972 118.34C632.887 118.425 632.75 118.468 632.563 118.468C632.478 118.468 632.129 118.459 631.516 118.442C630.903 118.425 630.12 118.417 629.167 118.417C628.128 118.417 627.345 118.417 626.817 118.417C626.289 118.417 625.991 118.425 625.923 118.442C625.634 118.442 625.489 118.357 625.489 118.187C625.489 118.153 625.506 118.034 625.54 117.829C625.608 117.557 625.676 117.404 625.745 117.37C625.813 117.336 626.008 117.31 626.332 117.293C626.792 117.293 627.302 117.268 627.864 117.217C628.103 117.166 628.264 117.063 628.349 116.91C628.383 116.842 628.707 115.599 629.32 113.182C629.933 110.764 630.537 108.355 631.133 105.954C631.729 103.554 632.027 102.354 632.027 102.354L627.073 110.245C623.736 115.557 622.025 118.255 621.939 118.34C621.905 118.357 621.871 118.374 621.837 118.391C621.752 118.442 621.616 118.468 621.429 118.468C621.173 118.468 621.02 118.408 620.969 118.289C620.935 118.221 620.586 115.582 619.922 110.372L618.926 102.532L617.189 109.428C616.049 113.956 615.478 116.297 615.478 116.45C615.58 117.012 616.193 117.293 617.317 117.293H617.572C617.675 117.378 617.734 117.455 617.751 117.523C617.768 117.591 617.743 117.744 617.675 117.983C617.606 118.255 617.538 118.408 617.47 118.442C617.402 118.459 617.309 118.468 617.189 118.468C617.155 118.468 617.053 118.468 616.883 118.468C616.713 118.468 616.423 118.459 616.015 118.442C615.606 118.425 615.061 118.417 614.38 118.417C613.869 118.417 613.342 118.425 612.797 118.442C612.252 118.459 611.937 118.468 611.852 118.468C611.597 118.468 611.435 118.451 611.367 118.417C611.299 118.383 611.265 118.306 611.265 118.187C611.265 118.153 611.29 118.034 611.341 117.829C611.392 117.625 611.435 117.498 611.469 117.446C611.503 117.344 611.69 117.293 612.031 117.293C613.222 117.293 613.98 116.953 614.304 116.272C614.372 116.17 614.959 113.888 616.066 109.428C617.172 104.967 617.734 102.626 617.751 102.405Z" fill="black"/>
<path d="M512 295.516C512 295.406 511.476 295.332 510.429 295.295C509.988 295.295 509.703 295.286 509.575 295.268C509.446 295.249 509.382 295.157 509.382 294.992C509.382 294.974 509.4 294.873 509.437 294.689C509.455 294.634 509.474 294.57 509.492 294.496C509.51 294.423 509.52 294.377 509.52 294.358C509.52 294.34 509.538 294.294 509.575 294.22C509.612 294.147 509.63 294.119 509.63 294.138C509.63 294.156 509.667 294.138 509.74 294.083C509.814 294.028 509.86 294.009 509.878 294.028C509.896 294.046 509.97 294.046 510.098 294.028C510.227 294.009 510.337 294 510.429 294C510.539 294 510.815 294 511.256 294C511.697 294 512.11 294.009 512.496 294.028C513.948 294.028 514.783 294.028 515.004 294.028C515.224 294.028 515.371 294.073 515.445 294.165C515.463 294.239 515.803 296.829 516.465 301.937L517.457 309.626L518.091 308.606C518.531 307.945 519.119 307.026 519.854 305.85C520.589 304.675 521.398 303.388 522.28 301.992C525.495 296.866 527.121 294.285 527.157 294.248C527.176 294.23 527.203 294.202 527.24 294.165C527.277 294.129 527.314 294.101 527.35 294.083L527.516 294.028H530.161C530.474 294.028 530.841 294.028 531.264 294.028C531.686 294.028 531.953 294.018 532.063 294C532.688 294 533 294.101 533 294.303C533 294.395 532.972 294.551 532.917 294.772C532.862 294.992 532.835 295.112 532.835 295.13C532.761 295.24 532.421 295.295 531.815 295.295C531.08 295.314 530.612 295.341 530.409 295.378C530.207 295.415 530.042 295.516 529.913 295.681C529.858 295.773 529.197 298.373 527.929 303.48C526.661 308.588 526.018 311.169 526 311.224C526 311.298 526.009 311.344 526.028 311.362C526.046 311.381 526.11 311.417 526.22 311.472C526.331 311.528 526.487 311.546 526.689 311.528C526.891 311.509 527.194 311.528 527.598 311.583H528.453C528.563 311.748 528.618 311.849 528.618 311.886C528.618 312.18 528.554 312.455 528.425 312.713C528.333 312.804 528.186 312.85 527.984 312.85C527.892 312.85 527.516 312.841 526.854 312.823C526.193 312.804 525.348 312.795 524.319 312.795C523.198 312.795 522.353 312.795 521.783 312.795C521.214 312.795 520.892 312.804 520.819 312.823C520.507 312.823 520.35 312.731 520.35 312.547C520.35 312.511 520.369 312.382 520.406 312.161C520.479 311.867 520.552 311.702 520.626 311.665C520.699 311.629 520.911 311.601 521.26 311.583C521.756 311.583 522.307 311.555 522.913 311.5C523.171 311.445 523.345 311.335 523.437 311.169C523.474 311.096 523.823 309.755 524.484 307.146C525.146 304.537 525.798 301.937 526.441 299.346C527.084 296.756 527.406 295.461 527.406 295.461L522.059 303.976C518.458 309.709 516.612 312.621 516.52 312.713C516.483 312.731 516.446 312.749 516.409 312.768C516.318 312.823 516.171 312.85 515.969 312.85C515.693 312.85 515.528 312.786 515.472 312.657C515.436 312.584 515.059 309.736 514.343 304.114L513.268 295.654L511.394 303.094C510.163 307.982 509.547 310.508 509.547 310.673C509.657 311.28 510.319 311.583 511.531 311.583H511.807C511.917 311.675 511.982 311.757 512 311.831C512.018 311.904 511.991 312.07 511.917 312.327C511.844 312.621 511.77 312.786 511.697 312.823C511.623 312.841 511.522 312.85 511.394 312.85C511.357 312.85 511.247 312.85 511.063 312.85C510.879 312.85 510.567 312.841 510.126 312.823C509.685 312.804 509.097 312.795 508.362 312.795C507.811 312.795 507.241 312.804 506.654 312.823C506.066 312.841 505.726 312.85 505.634 312.85C505.358 312.85 505.184 312.832 505.11 312.795C505.037 312.759 505 312.676 505 312.547C505 312.511 505.028 312.382 505.083 312.161C505.138 311.941 505.184 311.803 505.22 311.748C505.257 311.638 505.459 311.583 505.827 311.583C507.113 311.583 507.93 311.215 508.28 310.48C508.353 310.37 508.987 307.908 510.181 303.094C511.375 298.281 511.982 295.755 512 295.516Z" fill="black"/>
<g clip-path="url(#clip2_1_145)">
<path d="M332.235 79.2804C331.771 79.2804 331.525 79.0687 331.497 78.6454C331.497 78.5043 331.848 77.0086 332.551 74.1582C333.254 71.3079 333.634 69.8404 333.69 69.7557C333.915 68.9796 334.301 68.2247 334.85 67.491C335.834 66.2775 336.951 65.5719 338.202 65.3744C338.23 65.3744 338.287 65.3744 338.371 65.3744C338.455 65.3744 338.526 65.3673 338.582 65.3532C339.608 65.3532 340.395 65.6919 340.943 66.3692C341.492 67.0465 341.766 67.879 341.766 68.8667C341.766 69.6711 341.597 70.4542 341.26 71.2162C340.922 71.9781 340.494 72.6202 339.973 73.1423C339.453 73.6643 338.891 74.0947 338.287 74.4334C337.682 74.772 337.127 74.9343 336.621 74.9202H336.389H336.241C335.524 74.9202 334.941 74.6027 334.491 73.9677L334.386 73.8407L333.816 76.2113C333.465 77.58 333.261 78.3561 333.205 78.5396C333.149 78.723 333.064 78.8712 332.952 78.984C332.727 79.1816 332.488 79.2804 332.235 79.2804ZM339.952 67.8931C339.952 67.371 339.833 66.9477 339.594 66.6232C339.355 66.2986 339.004 66.1363 338.54 66.1363C338.048 66.1363 337.556 66.341 337.064 66.7502C336.572 67.1594 336.178 67.6956 335.883 68.3588C335.686 68.7962 335.419 69.7134 335.082 71.1103L334.723 72.5496C334.962 73.622 335.552 74.1582 336.494 74.1582C337.028 74.1582 337.549 73.9042 338.055 73.3962C338.519 72.9729 338.905 72.2956 339.214 71.3643C339.524 70.433 339.727 69.6711 339.826 69.0784C339.924 68.4858 339.966 68.0907 339.952 67.8931Z" fill="black"/>
<path d="M335.309 63.4694L338.198 60.6332L338.367 60.8025C340.194 62.5523 341.108 63.4412 341.108 63.4694L340.56 64.0833C340.532 64.0691 340.124 63.7164 339.337 63.025L338.219 62.0513L337.059 63.0461C336.877 63.2013 336.694 63.3636 336.511 63.5329C336.328 63.7023 336.181 63.8363 336.068 63.9351L335.9 64.0621C335.872 64.0903 335.766 63.9915 335.583 63.7658L335.309 63.4694Z" fill="black"/>
<path d="M345.473 69.4171C345.473 68.4434 345.543 67.5192 345.684 66.6443C345.824 65.7695 345.986 65.0145 346.169 64.3796C346.351 63.7446 346.611 63.1237 346.949 62.517C347.286 61.9102 347.553 61.4375 347.75 61.0989C347.947 60.7602 348.242 60.3933 348.636 59.9982C349.029 59.6031 349.261 59.3633 349.331 59.2786C349.402 59.1939 349.577 59.0458 349.859 58.8341H350.133H350.217C350.414 58.8341 350.512 58.8976 350.512 59.0246C350.512 59.0669 350.393 59.2151 350.154 59.4691C349.915 59.7231 349.627 60.097 349.289 60.5909C348.952 61.0847 348.607 61.6915 348.256 62.4111C347.905 63.1308 347.609 64.1044 347.37 65.332C347.131 66.5597 347.012 67.9213 347.012 69.4171C347.012 70.9128 347.131 72.2674 347.37 73.4809C347.609 74.6944 347.898 75.6751 348.235 76.423C348.572 77.1708 348.917 77.7776 349.268 78.2432C349.62 78.7089 349.915 79.0828 350.154 79.365C350.393 79.6472 350.512 79.7954 350.512 79.8095C350.512 79.9365 350.407 80 350.196 80H350.133H349.859L349.268 79.492C347.947 78.2926 346.984 76.7969 346.379 75.0048C345.775 73.2128 345.473 71.3502 345.473 69.4171Z" fill="black"/>
<path d="M352.41 71.4066C352.41 69.798 353.014 68.387 354.223 67.1735C355.432 65.96 356.761 65.3532 358.209 65.3532C359.193 65.3532 359.98 65.6354 360.57 66.1998C361.161 66.7643 361.561 67.4557 361.772 68.2741C361.856 68.6833 361.906 69.156 361.92 69.6922V70.306C362.609 69.2618 363.136 68.0907 363.501 66.7925C363.557 66.5949 363.6 66.482 363.628 66.4538C363.656 66.4256 363.768 66.4044 363.965 66.3903C364.26 66.3903 364.408 66.4468 364.408 66.5597C364.408 66.6866 364.345 66.9618 364.218 67.3851C364.092 67.8084 363.839 68.4081 363.459 69.1842C363.079 69.9603 362.651 70.6658 362.173 71.3008L361.941 71.5971L361.962 72.1051C361.99 72.8953 362.046 73.4315 362.131 73.7137C362.215 73.9959 362.348 74.1441 362.531 74.1582C362.728 74.13 362.911 74.0524 363.079 73.9254C363.248 73.7984 363.368 73.6361 363.438 73.4386C363.466 73.3398 363.501 73.2834 363.543 73.2692C363.586 73.2551 363.691 73.241 363.86 73.2269C364.141 73.2269 364.281 73.2834 364.281 73.3962C364.281 73.4809 364.239 73.6149 364.155 73.7984C363.986 74.137 363.74 74.4051 363.417 74.6027C363.094 74.8002 362.784 74.9061 362.489 74.9202H362.341C361.4 74.9202 360.76 74.4122 360.423 73.3962L360.359 73.2481L360.127 73.4174C359.987 73.5303 359.776 73.6714 359.495 73.8407C359.214 74.01 358.897 74.1723 358.546 74.3275C358.195 74.4828 357.787 74.6239 357.323 74.7509C356.859 74.8778 356.409 74.9413 355.974 74.9413C354.863 74.9413 353.991 74.5886 353.359 73.8831C352.726 73.1775 352.41 72.3521 352.41 71.4066ZM356.079 74.1582C356.768 74.1582 357.457 74.01 358.145 73.7137C358.834 73.4174 359.347 73.114 359.685 72.8036L360.191 72.3379C360.163 70.3201 360.113 69.0643 360.043 68.5704C359.846 66.9477 359.2 66.1363 358.103 66.1363C357.133 66.1363 356.283 66.6514 355.552 67.6814C355.172 68.2459 354.863 69.0078 354.624 69.9674C354.385 70.9269 354.259 71.6606 354.244 72.1686C354.244 72.86 354.42 73.361 354.772 73.6714C355.123 73.9818 355.559 74.1441 356.079 74.1582Z" fill="black"/>
<path d="M366.453 58.8553L366.538 58.8341C366.608 58.8341 366.678 58.8341 366.748 58.8341H367.001L367.592 59.3421C368.913 60.5415 369.876 62.0372 370.481 63.8293C371.085 65.6213 371.387 67.4839 371.387 69.4171C371.387 70.3766 371.317 71.3008 371.176 72.1898C371.036 73.0788 370.874 73.8337 370.692 74.4545C370.509 75.0754 370.249 75.6963 369.911 76.3171C369.574 76.938 369.307 77.4107 369.11 77.7352C368.913 78.0598 368.625 78.4196 368.246 78.8147C367.866 79.2098 367.641 79.4426 367.571 79.5132C367.501 79.5837 367.339 79.7178 367.086 79.9153C367.044 79.9577 367.016 79.9859 367.001 80H366.748C366.636 80 366.559 80 366.516 80C366.474 80 366.439 79.9788 366.411 79.9365C366.383 79.8942 366.362 79.8307 366.348 79.746C366.362 79.7319 366.439 79.6402 366.58 79.4709C368.759 77.199 369.848 73.8478 369.848 69.4171C369.848 64.9863 368.759 61.6351 366.58 59.3633C366.439 59.1939 366.362 59.1022 366.348 59.0881C366.348 58.9752 366.383 58.8976 366.453 58.8553Z" fill="black"/>
<path d="M380.429 67.364C380.429 67.1805 380.527 67.0394 380.724 66.9406H394.156C394.367 67.0535 394.472 67.1946 394.472 67.364C394.472 67.5192 394.374 67.6532 394.177 67.7661L387.472 67.7873H380.766C380.541 67.7167 380.429 67.5756 380.429 67.364ZM380.429 71.4701C380.429 71.2585 380.541 71.1174 380.766 71.0468H394.177C394.374 71.1879 394.472 71.329 394.472 71.4701C394.472 71.6536 394.367 71.7947 394.156 71.8935H380.724C380.527 71.7947 380.429 71.6536 380.429 71.4701Z" fill="black"/>
<path d="M402.734 79.2804C402.27 79.2804 402.024 79.0687 401.996 78.6454C401.996 78.5043 402.347 77.0086 403.05 74.1582C403.753 71.3079 404.132 69.8404 404.189 69.7557C404.414 68.9796 404.8 68.2247 405.348 67.491C406.332 66.2775 407.45 65.5719 408.701 65.3744C408.729 65.3744 408.785 65.3744 408.87 65.3744C408.954 65.3744 409.024 65.3673 409.081 65.3532C410.107 65.3532 410.894 65.6919 411.442 66.3692C411.991 67.0465 412.265 67.879 412.265 68.8667C412.265 69.6711 412.096 70.4542 411.759 71.2162C411.421 71.9781 410.992 72.6202 410.472 73.1423C409.952 73.6643 409.39 74.0947 408.785 74.4334C408.181 74.772 407.626 74.9343 407.12 74.9202H406.888H406.74C406.023 74.9202 405.44 74.6027 404.99 73.9677L404.885 73.8407L404.315 76.2113C403.964 77.58 403.76 78.3561 403.704 78.5396C403.648 78.723 403.563 78.8712 403.451 78.984C403.226 79.1816 402.987 79.2804 402.734 79.2804ZM410.451 67.8931C410.451 67.371 410.332 66.9477 410.093 66.6232C409.854 66.2986 409.502 66.1363 409.038 66.1363C408.546 66.1363 408.054 66.341 407.562 66.7502C407.07 67.1594 406.677 67.6956 406.382 68.3588C406.185 68.7962 405.918 69.7134 405.58 71.1103L405.222 72.5496C405.461 73.622 406.051 74.1582 406.993 74.1582C407.527 74.1582 408.047 73.9042 408.554 73.3962C409.017 72.9729 409.404 72.2956 409.713 71.3643C410.022 70.433 410.226 69.6711 410.325 69.0784C410.423 68.4858 410.465 68.0907 410.451 67.8931Z" fill="black"/>
<path d="M414.394 69.4171C414.394 68.4434 414.465 67.5192 414.605 66.6443C414.746 65.7695 414.907 65.0145 415.09 64.3796C415.273 63.7446 415.533 63.1237 415.87 62.517C416.208 61.9102 416.475 61.4375 416.672 61.0989C416.868 60.7602 417.164 60.3933 417.557 59.9982C417.951 59.6031 418.183 59.3633 418.253 59.2786C418.323 59.1939 418.499 59.0458 418.78 58.8341H419.054H419.139C419.335 58.8341 419.434 58.8976 419.434 59.0246C419.434 59.0669 419.314 59.2151 419.075 59.4691C418.836 59.7231 418.548 60.097 418.211 60.5909C417.874 61.0847 417.529 61.6915 417.178 62.4111C416.826 63.1308 416.531 64.1044 416.292 65.332C416.053 66.5597 415.934 67.9213 415.934 69.4171C415.934 70.9128 416.053 72.2674 416.292 73.4809C416.531 74.6944 416.819 75.6751 417.157 76.423C417.494 77.1708 417.838 77.7776 418.19 78.2432C418.541 78.7089 418.836 79.0828 419.075 79.365C419.314 79.6472 419.434 79.7954 419.434 79.8095C419.434 79.9365 419.328 80 419.118 80H419.054H418.78L418.19 79.492C416.868 78.2926 415.905 76.7969 415.301 75.0048C414.697 73.2128 414.394 71.3502 414.394 69.4171Z" fill="black"/>
<path d="M427.172 73.7984C426.962 73.9818 426.652 74.1794 426.245 74.391C425.837 74.6027 425.408 74.7085 424.958 74.7085C424.073 74.7085 423.363 74.391 422.829 73.7561C422.295 73.1211 422.02 72.3097 422.006 71.322C422.006 69.8404 422.548 68.4787 423.63 67.237C424.712 65.9952 425.914 65.3673 427.236 65.3532C427.896 65.3532 428.508 65.6919 429.07 66.3692L429.133 66.2845C429.162 66.2422 429.197 66.1998 429.239 66.1575C429.281 66.1152 429.344 66.0587 429.429 65.9882C429.513 65.9176 429.604 65.8682 429.703 65.84C429.801 65.8118 429.914 65.7906 430.04 65.7765C430.237 65.7765 430.399 65.84 430.525 65.967C430.652 66.094 430.722 66.2281 430.736 66.3692C430.736 66.5808 430.335 68.2882 429.534 71.4913C428.733 74.6944 428.311 76.3312 428.269 76.4018C428.016 77.1638 427.475 77.7917 426.645 78.2856C425.816 78.7794 424.867 79.0334 423.799 79.0475C421.817 79.0475 420.826 78.5678 420.826 77.6083C420.826 77.2414 420.952 76.9168 421.205 76.6346C421.458 76.3524 421.781 76.2113 422.175 76.2113C422.386 76.2113 422.583 76.2748 422.765 76.4018C422.948 76.5288 423.047 76.7475 423.061 77.0579C423.061 77.199 423.047 77.3331 423.018 77.4601C422.99 77.5871 422.941 77.6859 422.871 77.7564C422.801 77.827 422.744 77.8975 422.702 77.9681C422.66 78.0386 422.611 78.0951 422.555 78.1374L422.512 78.1797H422.534C422.674 78.2221 423.096 78.2432 423.799 78.2432C424.333 78.2432 424.755 78.1586 425.064 77.9892C425.387 77.834 425.689 77.6012 425.971 77.2908C426.252 76.9803 426.448 76.6487 426.561 76.296C426.645 76.0279 426.758 75.5904 426.898 74.9837C427.081 74.3064 427.172 73.9113 427.172 73.7984ZM428.712 67.7661L428.627 67.5333C428.585 67.3781 428.55 67.2722 428.522 67.2158C428.494 67.1594 428.452 67.0606 428.395 66.9195C428.339 66.7784 428.269 66.6796 428.185 66.6232C428.1 66.5667 428.009 66.4891 427.91 66.3903C427.812 66.2916 427.686 66.2281 427.531 66.1998C427.376 66.1716 427.222 66.1504 427.067 66.1363C426.448 66.1363 425.851 66.5103 425.275 67.2581C424.853 67.8084 424.502 68.648 424.22 69.7769C423.939 70.9057 423.799 71.7241 423.799 72.2321C423.799 73.3469 424.234 73.9042 425.106 73.9042C425.893 73.9042 426.666 73.4103 427.425 72.4226L427.594 72.2109L428.712 67.7661Z" fill="black"/>
<path d="M431.925 62.4205C431.925 62.4205 431.925 62.3556 431.925 62.2259C431.925 62.0962 431.995 61.9965 432.134 61.9267H440.795C440.944 62.0065 441.019 62.1062 441.019 62.2259C441.019 62.3457 440.944 62.4454 440.795 62.5252H432.134C431.995 62.4554 431.925 62.3556 431.925 62.2259V62.4205Z" fill="black"/>
<path d="M445.446 57.3177L445.253 57.3925C445.113 57.4424 444.915 57.4922 444.656 57.5421C444.398 57.592 444.11 57.6269 443.792 57.6469H443.508V56.9585H443.792C444.259 56.9386 444.691 56.8637 445.089 56.734C445.486 56.6044 445.764 56.4846 445.923 56.3749C446.082 56.2652 446.222 56.1554 446.341 56.0457C446.361 56.0158 446.42 56.0008 446.52 56.0008C446.609 56.0008 446.694 56.0307 446.773 56.0906V60.5649L446.788 65.0542C446.858 65.124 446.917 65.1689 446.967 65.1889C447.017 65.2088 447.136 65.2288 447.325 65.2487C447.514 65.2687 447.822 65.2787 448.249 65.2787H448.637V65.967H448.473C448.264 65.9371 447.474 65.9221 446.102 65.9221C444.751 65.9221 443.97 65.9371 443.762 65.967H443.583V65.2787H443.97C444.189 65.2787 444.378 65.2787 444.537 65.2787C444.696 65.2787 444.82 65.2737 444.91 65.2637C444.999 65.2537 445.079 65.2387 445.148 65.2188C445.218 65.1988 445.257 65.1889 445.267 65.1889C445.277 65.1889 445.307 65.1639 445.357 65.114C445.407 65.0642 445.436 65.0442 445.446 65.0542V57.3177Z" fill="black"/>
<path d="M452.045 58.8553L452.13 58.8341C452.2 58.8341 452.27 58.8341 452.341 58.8341H452.594L453.184 59.3421C454.505 60.5415 455.468 62.0372 456.073 63.8293C456.677 65.6213 456.98 67.4839 456.98 69.4171C456.98 70.3766 456.909 71.3008 456.769 72.1898C456.628 73.0788 456.466 73.8337 456.284 74.4545C456.101 75.0754 455.841 75.6963 455.504 76.3171C455.166 76.938 454.899 77.4107 454.702 77.7352C454.505 78.0598 454.217 78.4196 453.838 78.8147C453.458 79.2098 453.233 79.4426 453.163 79.5132C453.093 79.5837 452.931 79.7178 452.678 79.9153C452.636 79.9577 452.608 79.9859 452.594 80H452.341C452.228 80 452.151 80 452.109 80C452.067 80 452.031 79.9788 452.003 79.9365C451.975 79.8942 451.954 79.8307 451.94 79.746C451.954 79.7319 452.031 79.6402 452.172 79.4709C454.351 77.199 455.44 73.8478 455.44 69.4171C455.44 64.9863 454.351 61.6351 452.172 59.3633C452.031 59.1939 451.954 59.1022 451.94 59.0881C451.94 58.9752 451.975 58.8976 452.045 58.8553Z" fill="black"/>
<path d="M462.397 61.6872C462.267 60.3504 462.203 59.6022 462.203 59.4426C462.203 59.263 462.322 59.1234 462.561 59.0236C462.571 59.0236 462.595 59.0236 462.635 59.0236C462.675 59.0236 462.705 59.0186 462.725 59.0086C462.844 59.0186 462.953 59.0635 463.053 59.1433C463.152 59.2231 463.202 59.3229 463.202 59.4426C463.202 59.6122 463.172 60.0112 463.112 60.6397C463.053 61.2682 463.018 61.6174 463.008 61.6872L463.873 61.0587C464.429 60.6497 464.732 60.4302 464.782 60.4003C464.832 60.3704 464.881 60.3554 464.931 60.3554C465.06 60.3554 465.179 60.4053 465.289 60.5051C465.398 60.6048 465.458 60.7395 465.468 60.9091C465.468 61.0388 465.418 61.1535 465.319 61.2533C465.269 61.2832 464.931 61.4478 464.305 61.7471C463.679 62.0464 463.341 62.206 463.291 62.2259L464.275 62.6898L465.319 63.2136C465.408 63.3034 465.453 63.4181 465.453 63.5578C465.453 63.7074 465.408 63.8321 465.319 63.9319C465.229 64.0316 465.11 64.0865 464.961 64.0965C464.881 64.0965 464.792 64.0666 464.692 64.0067C464.593 63.9468 464.32 63.7473 463.873 63.4081L463.008 62.7796C463.137 64.1164 463.202 64.8646 463.202 65.0243C463.202 65.124 463.167 65.2188 463.097 65.3086C463.028 65.3984 462.899 65.4433 462.71 65.4433C462.521 65.4433 462.392 65.3984 462.322 65.3086C462.253 65.2188 462.213 65.124 462.203 65.0243C462.203 64.8547 462.233 64.4556 462.292 63.8271C462.352 63.1986 462.387 62.8495 462.397 62.7796L461.532 63.4081C460.975 63.8171 460.672 64.0366 460.623 64.0666C460.583 64.0965 460.533 64.1114 460.474 64.1114C460.344 64.1114 460.225 64.0616 460.116 63.9618C460.006 63.862 459.947 63.7274 459.937 63.5578C459.937 63.5079 459.937 63.468 459.937 63.4381C459.937 63.4081 459.952 63.3782 459.982 63.3483C460.011 63.3183 460.036 63.2884 460.056 63.2585C460.076 63.2286 460.121 63.1936 460.19 63.1537C460.26 63.1138 460.324 63.0789 460.384 63.049C460.444 63.0191 460.538 62.9742 460.667 62.9143C460.797 62.8544 460.921 62.7996 461.04 62.7497C461.159 62.6998 461.318 62.625 461.517 62.5252C461.716 62.4255 461.915 62.3257 462.113 62.2259L460.086 61.2533C459.996 61.1635 459.952 61.0488 459.952 60.9091C459.952 60.7594 459.996 60.6347 460.086 60.535C460.175 60.4352 460.295 60.3804 460.444 60.3704C460.523 60.3704 460.613 60.4003 460.712 60.4602C460.811 60.52 461.085 60.7195 461.532 61.0587L462.397 61.6872Z" fill="black"/>
<path d="M468.21 71.4066C468.21 69.798 468.814 68.387 470.023 67.1735C471.232 65.96 472.561 65.3532 474.009 65.3532C474.993 65.3532 475.78 65.6354 476.37 66.1998C476.961 66.7643 477.361 67.4557 477.572 68.2741C477.657 68.6833 477.706 69.156 477.72 69.6922V70.306C478.409 69.2618 478.936 68.0907 479.301 66.7925C479.357 66.5949 479.4 66.482 479.428 66.4538C479.456 66.4256 479.568 66.4044 479.765 66.3903C480.06 66.3903 480.208 66.4468 480.208 66.5597C480.208 66.6866 480.145 66.9618 480.018 67.3851C479.892 67.8084 479.639 68.4081 479.259 69.1842C478.879 69.9603 478.451 70.6658 477.973 71.3008L477.741 71.5971L477.762 72.1051C477.79 72.8953 477.846 73.4315 477.931 73.7137C478.015 73.9959 478.149 74.1441 478.331 74.1582C478.528 74.13 478.711 74.0524 478.879 73.9254C479.048 73.7984 479.168 73.6361 479.238 73.4386C479.266 73.3398 479.301 73.2834 479.343 73.2692C479.386 73.2551 479.491 73.241 479.66 73.2269C479.941 73.2269 480.081 73.2834 480.081 73.3962C480.081 73.4809 480.039 73.6149 479.955 73.7984C479.786 74.137 479.54 74.4051 479.217 74.6027C478.894 74.8002 478.584 74.9061 478.289 74.9202H478.141C477.2 74.9202 476.56 74.4122 476.223 73.3962L476.159 73.2481L475.927 73.4174C475.787 73.5303 475.576 73.6714 475.295 73.8407C475.014 74.01 474.697 74.1723 474.346 74.3275C473.995 74.4828 473.587 74.6239 473.123 74.7509C472.659 74.8778 472.209 74.9413 471.774 74.9413C470.663 74.9413 469.791 74.5886 469.159 73.8831C468.526 73.1775 468.21 72.3521 468.21 71.4066ZM471.879 74.1582C472.568 74.1582 473.257 74.01 473.945 73.7137C474.634 73.4174 475.147 73.114 475.485 72.8036L475.991 72.3379C475.963 70.3201 475.913 69.0643 475.843 68.5704C475.646 66.9477 475 66.1363 473.903 66.1363C472.933 66.1363 472.083 66.6514 471.352 67.6814C470.972 68.2459 470.663 69.0078 470.424 69.9674C470.185 70.9269 470.059 71.6606 470.044 72.1686C470.044 72.86 470.22 73.361 470.572 73.6714C470.923 73.9818 471.359 74.1441 471.879 74.1582Z" fill="black"/>
</g>
<path d="M184.312 216.634C184.326 216.591 184.341 216.535 184.355 216.464C184.369 216.394 184.404 216.238 184.46 215.999C184.517 215.759 184.587 215.54 184.672 215.342C184.757 215.145 184.863 214.912 184.99 214.644C185.117 214.376 185.258 214.164 185.413 214.009C185.568 213.854 185.752 213.698 185.963 213.543C186.175 213.388 186.408 213.324 186.662 213.353C187.72 213.353 188.397 213.804 188.694 214.707L188.905 214.517C189.78 213.741 190.613 213.353 191.403 213.353C192.32 213.353 193.04 213.684 193.562 214.348C194.084 215.011 194.345 215.815 194.345 216.761C194.345 218.285 193.809 219.689 192.737 220.973C191.664 222.257 190.451 222.906 189.096 222.92C188.786 222.92 188.51 222.878 188.27 222.793C188.115 222.722 187.953 222.617 187.784 222.476C187.614 222.334 187.48 222.214 187.381 222.116L187.233 221.946C187.219 221.96 187.064 222.574 186.768 223.788C186.471 225.001 186.323 225.615 186.323 225.629C186.323 225.714 186.38 225.763 186.492 225.778C186.605 225.792 186.866 225.813 187.276 225.841H187.805C187.889 225.94 187.932 226.003 187.932 226.032C187.932 226.06 187.911 226.187 187.868 226.413C187.826 226.582 187.784 226.688 187.741 226.73C187.699 226.772 187.607 226.801 187.466 226.815C187.438 226.815 187.36 226.815 187.233 226.815C187.106 226.815 186.866 226.808 186.514 226.794C186.161 226.779 185.723 226.772 185.201 226.772C184.214 226.772 183.586 226.786 183.317 226.815H183.148C183.049 226.716 183 226.638 183 226.582C183.028 226.201 183.12 225.954 183.275 225.841H183.698C184.178 225.827 184.453 225.742 184.524 225.587C184.566 225.502 184.997 223.816 185.815 220.528C186.634 217.24 187.064 215.498 187.106 215.3C187.12 215.229 187.127 215.131 187.127 215.004C187.127 214.425 186.951 214.136 186.598 214.136C186.288 214.136 186.027 214.333 185.815 214.729C185.603 215.124 185.441 215.554 185.328 216.02C185.215 216.485 185.131 216.739 185.074 216.782C185.046 216.81 184.933 216.824 184.736 216.824H184.439C184.355 216.739 184.312 216.676 184.312 216.634ZM187.593 220.549C187.904 221.622 188.426 222.158 189.159 222.158C189.583 222.158 189.992 221.996 190.387 221.671C190.782 221.347 191.107 220.937 191.361 220.444C191.615 219.964 191.869 219.202 192.123 218.158C192.377 217.113 192.511 216.337 192.525 215.829V215.702C192.525 214.658 192.095 214.136 191.234 214.136C191.079 214.136 190.923 214.157 190.768 214.199C190.613 214.242 190.458 214.305 190.302 214.39C190.147 214.475 190.006 214.566 189.879 214.665C189.752 214.764 189.632 214.87 189.519 214.983C189.406 215.095 189.301 215.201 189.202 215.3C189.103 215.399 189.025 215.498 188.969 215.596C188.913 215.695 188.856 215.766 188.8 215.808L188.736 215.893C188.736 215.907 188.715 216.006 188.673 216.189C188.63 216.372 188.553 216.683 188.44 217.12C188.327 217.558 188.228 217.925 188.143 218.221C187.777 219.717 187.593 220.493 187.593 220.549Z" fill="black"/>
<path d="M201.538 215.364C201.538 215.18 201.636 215.039 201.834 214.94H215.317C215.529 215.053 215.635 215.194 215.635 215.364C215.635 215.519 215.536 215.653 215.338 215.766L208.607 215.787H201.876C201.651 215.716 201.538 215.575 201.538 215.364ZM201.538 219.47C201.538 219.258 201.651 219.117 201.876 219.047H215.338C215.536 219.188 215.635 219.329 215.635 219.47C215.635 219.653 215.529 219.794 215.317 219.893H201.834C201.636 219.794 201.538 219.653 201.538 219.47Z" fill="black"/>
<path d="M223.928 227.28C223.462 227.28 223.215 227.069 223.187 226.645C223.187 226.504 223.54 225.008 224.245 222.158C224.951 219.308 225.332 217.84 225.388 217.755C225.614 216.979 226.002 216.224 226.552 215.491C227.54 214.277 228.662 213.571 229.918 213.374C229.946 213.374 230.003 213.374 230.087 213.374C230.172 213.374 230.242 213.367 230.299 213.353C231.329 213.353 232.119 213.691 232.67 214.369C233.22 215.046 233.495 215.879 233.495 216.866C233.495 217.671 233.326 218.454 232.987 219.216C232.648 219.978 232.218 220.62 231.696 221.142C231.174 221.664 230.609 222.095 230.003 222.433C229.396 222.772 228.838 222.934 228.33 222.92H228.098H227.949C227.23 222.92 226.644 222.603 226.193 221.968L226.087 221.841L225.515 224.211C225.162 225.58 224.958 226.356 224.901 226.54C224.845 226.723 224.76 226.871 224.647 226.984C224.422 227.182 224.182 227.28 223.928 227.28ZM231.675 215.893C231.675 215.371 231.555 214.947 231.315 214.623C231.075 214.298 230.722 214.136 230.257 214.136C229.763 214.136 229.269 214.34 228.775 214.75C228.281 215.159 227.886 215.695 227.59 216.358C227.392 216.796 227.124 217.713 226.785 219.11L226.425 220.549C226.665 221.622 227.258 222.158 228.203 222.158C228.74 222.158 229.262 221.904 229.77 221.396C230.235 220.973 230.623 220.295 230.934 219.364C231.244 218.433 231.449 217.671 231.548 217.078C231.647 216.485 231.689 216.09 231.675 215.893Z" fill="black"/>
<path d="M235.633 217.417C235.633 216.443 235.703 215.519 235.845 214.644C235.986 213.769 236.148 213.014 236.331 212.379C236.515 211.744 236.776 211.123 237.115 210.516C237.453 209.91 237.721 209.437 237.919 209.098C238.116 208.76 238.413 208.393 238.808 207.998C239.203 207.602 239.436 207.363 239.506 207.278C239.577 207.193 239.753 207.045 240.036 206.833H240.311H240.395C240.593 206.833 240.692 206.897 240.692 207.024C240.692 207.066 240.572 207.214 240.332 207.468C240.092 207.722 239.803 208.096 239.464 208.59C239.125 209.084 238.78 209.691 238.427 210.411C238.074 211.13 237.778 212.104 237.538 213.332C237.298 214.559 237.178 215.921 237.178 217.417C237.178 218.912 237.298 220.267 237.538 221.481C237.778 222.694 238.067 223.675 238.406 224.423C238.744 225.171 239.09 225.778 239.443 226.243C239.796 226.709 240.092 227.083 240.332 227.365C240.572 227.647 240.692 227.795 240.692 227.81C240.692 227.937 240.586 228 240.374 228H240.311H240.036L239.443 227.492C238.116 226.293 237.15 224.797 236.543 223.005C235.936 221.213 235.633 219.35 235.633 217.417Z" fill="black"/>
<path d="M248.46 221.798C248.248 221.982 247.938 222.179 247.528 222.391C247.119 222.603 246.689 222.708 246.237 222.708C245.348 222.708 244.636 222.391 244.099 221.756C243.563 221.121 243.288 220.309 243.274 219.322C243.274 217.84 243.817 216.478 244.904 215.237C245.99 213.995 247.197 213.367 248.523 213.353C249.187 213.353 249.8 213.691 250.365 214.369L250.428 214.284C250.457 214.242 250.492 214.199 250.534 214.157C250.576 214.115 250.64 214.058 250.725 213.988C250.809 213.917 250.901 213.868 251 213.84C251.099 213.811 251.211 213.79 251.338 213.776C251.536 213.776 251.698 213.84 251.825 213.967C251.952 214.094 252.023 214.228 252.037 214.369C252.037 214.58 251.635 216.288 250.83 219.491C250.026 222.694 249.603 224.331 249.56 224.402C249.306 225.164 248.763 225.792 247.931 226.286C247.098 226.779 246.146 227.033 245.073 227.048C243.083 227.048 242.089 226.568 242.089 225.608C242.089 225.241 242.216 224.917 242.47 224.635C242.724 224.352 243.048 224.211 243.443 224.211C243.655 224.211 243.853 224.275 244.036 224.402C244.219 224.529 244.318 224.747 244.332 225.058C244.332 225.199 244.318 225.333 244.29 225.46C244.262 225.587 244.212 225.686 244.142 225.756C244.071 225.827 244.015 225.897 243.972 225.968C243.93 226.039 243.881 226.095 243.824 226.137L243.782 226.18H243.803C243.944 226.222 244.368 226.243 245.073 226.243C245.609 226.243 246.033 226.159 246.343 225.989C246.668 225.834 246.971 225.601 247.253 225.291C247.536 224.98 247.733 224.649 247.846 224.296C247.931 224.028 248.044 223.59 248.185 222.984C248.368 222.306 248.46 221.911 248.46 221.798ZM250.005 215.766L249.92 215.533C249.878 215.378 249.843 215.272 249.814 215.215C249.786 215.159 249.744 215.06 249.687 214.919C249.631 214.778 249.56 214.679 249.476 214.623C249.391 214.566 249.299 214.489 249.201 214.39C249.102 214.291 248.975 214.228 248.82 214.199C248.664 214.171 248.509 214.15 248.354 214.136C247.733 214.136 247.133 214.51 246.555 215.258C246.131 215.808 245.779 216.648 245.496 217.777C245.214 218.905 245.073 219.724 245.073 220.232C245.073 221.347 245.511 221.904 246.385 221.904C247.176 221.904 247.952 221.41 248.714 220.422L248.883 220.211L250.005 215.766Z" fill="black"/>
<path d="M253.231 210.42C253.231 210.42 253.231 210.355 253.231 210.225C253.231 210.096 253.3 209.996 253.44 209.926H262.135C262.284 210.006 262.359 210.106 262.359 210.225C262.359 210.345 262.284 210.445 262.135 210.525H253.44C253.3 210.455 253.231 210.355 253.231 210.225V210.42Z" fill="black"/>
<path d="M266.804 205.317L266.609 205.392C266.469 205.442 266.27 205.491 266.01 205.541C265.751 205.591 265.462 205.626 265.142 205.646H264.858V204.958H265.142C265.611 204.938 266.045 204.863 266.444 204.733C266.843 204.604 267.123 204.484 267.282 204.374C267.442 204.264 267.582 204.155 267.701 204.045C267.721 204.015 267.781 204 267.881 204C267.971 204 268.056 204.03 268.135 204.09V208.564L268.15 213.054C268.22 213.124 268.28 213.168 268.33 213.188C268.38 213.208 268.5 213.228 268.689 213.248C268.879 213.268 269.188 213.278 269.617 213.278H270.006V213.967H269.841C269.632 213.937 268.839 213.922 267.462 213.922C266.105 213.922 265.322 213.937 265.113 213.967H264.933V213.278H265.322C265.542 213.278 265.731 213.278 265.891 213.278C266.05 213.278 266.175 213.273 266.265 213.263C266.355 213.253 266.434 213.238 266.504 213.218C266.574 213.198 266.614 213.188 266.624 213.188C266.634 213.188 266.664 213.163 266.714 213.114C266.764 213.064 266.794 213.044 266.804 213.054V205.317Z" fill="black"/>
<path d="M273.428 206.855L273.513 206.833C273.583 206.833 273.654 206.833 273.724 206.833H273.978L274.571 207.341C275.897 208.541 276.864 210.037 277.471 211.829C278.078 213.621 278.381 215.483 278.381 217.417C278.381 218.376 278.31 219.301 278.169 220.19C278.028 221.079 277.866 221.833 277.682 222.454C277.499 223.075 277.238 223.696 276.899 224.317C276.561 224.938 276.292 225.411 276.095 225.735C275.897 226.06 275.608 226.42 275.227 226.815C274.846 227.21 274.62 227.443 274.55 227.513C274.479 227.584 274.317 227.718 274.063 227.915C274.021 227.958 273.992 227.986 273.978 228H273.724C273.611 228 273.534 228 273.491 228C273.449 228 273.414 227.979 273.386 227.937C273.357 227.894 273.336 227.831 273.322 227.746C273.336 227.732 273.414 227.64 273.555 227.471C275.742 225.199 276.836 221.848 276.836 217.417C276.836 212.986 275.742 209.634 273.555 207.363C273.414 207.193 273.336 207.102 273.322 207.087C273.322 206.975 273.357 206.897 273.428 206.855Z" fill="black"/>
<path d="M282.381 217.417C282.381 216.443 282.452 215.519 282.593 214.644C282.734 213.769 282.896 213.014 283.08 212.379C283.263 211.744 283.524 211.123 283.863 210.516C284.202 209.91 284.47 209.437 284.667 209.098C284.865 208.76 285.161 208.393 285.556 207.998C285.952 207.602 286.184 207.363 286.255 207.278C286.325 207.193 286.502 207.045 286.784 206.833H287.059H287.144C287.341 206.833 287.44 206.897 287.44 207.024C287.44 207.066 287.32 207.214 287.08 207.468C286.841 207.722 286.551 208.096 286.213 208.59C285.874 209.084 285.528 209.691 285.175 210.411C284.823 211.13 284.526 212.104 284.286 213.332C284.047 214.559 283.927 215.921 283.927 217.417C283.927 218.912 284.047 220.267 284.286 221.481C284.526 222.694 284.816 223.675 285.154 224.423C285.493 225.171 285.839 225.778 286.191 226.243C286.544 226.709 286.841 227.083 287.08 227.365C287.32 227.647 287.44 227.795 287.44 227.81C287.44 227.937 287.334 228 287.123 228H287.059H286.784L286.191 227.492C284.865 226.293 283.898 224.797 283.292 223.005C282.685 221.213 282.381 219.35 282.381 217.417Z" fill="black"/>
<path d="M295.208 221.798C294.997 221.982 294.686 222.179 294.277 222.391C293.868 222.603 293.437 222.708 292.986 222.708C292.097 222.708 291.384 222.391 290.848 221.756C290.312 221.121 290.037 220.309 290.023 219.322C290.023 217.84 290.566 216.478 291.652 215.237C292.739 213.995 293.945 213.367 295.272 213.353C295.935 213.353 296.549 213.691 297.113 214.369L297.177 214.284C297.205 214.242 297.24 214.199 297.283 214.157C297.325 214.115 297.389 214.058 297.473 213.988C297.558 213.917 297.65 213.868 297.748 213.84C297.847 213.811 297.96 213.79 298.087 213.776C298.285 213.776 298.447 213.84 298.574 213.967C298.701 214.094 298.771 214.228 298.786 214.369C298.786 214.58 298.383 216.288 297.579 219.491C296.775 222.694 296.351 224.331 296.309 224.402C296.055 225.164 295.512 225.792 294.679 226.286C293.847 226.779 292.894 227.033 291.822 227.048C289.832 227.048 288.837 226.568 288.837 225.608C288.837 225.241 288.964 224.917 289.218 224.635C289.472 224.352 289.797 224.211 290.192 224.211C290.404 224.211 290.601 224.275 290.785 224.402C290.968 224.529 291.067 224.747 291.081 225.058C291.081 225.199 291.067 225.333 291.039 225.46C291.01 225.587 290.961 225.686 290.89 225.756C290.82 225.827 290.763 225.897 290.721 225.968C290.679 226.039 290.629 226.095 290.573 226.137L290.531 226.18H290.552C290.693 226.222 291.116 226.243 291.822 226.243C292.358 226.243 292.781 226.159 293.092 225.989C293.416 225.834 293.72 225.601 294.002 225.291C294.284 224.98 294.482 224.649 294.595 224.296C294.679 224.028 294.792 223.59 294.933 222.984C295.117 222.306 295.208 221.911 295.208 221.798ZM296.754 215.766L296.669 215.533C296.627 215.378 296.591 215.272 296.563 215.215C296.535 215.159 296.493 215.06 296.436 214.919C296.38 214.778 296.309 214.679 296.224 214.623C296.14 214.566 296.048 214.489 295.949 214.39C295.85 214.291 295.723 214.228 295.568 214.199C295.413 214.171 295.258 214.15 295.103 214.136C294.482 214.136 293.882 214.51 293.303 215.258C292.88 215.808 292.527 216.648 292.245 217.777C291.963 218.905 291.822 219.724 291.822 220.232C291.822 221.347 292.259 221.904 293.134 221.904C293.924 221.904 294.7 221.41 295.462 220.422L295.632 220.211L296.754 215.766Z" fill="black"/>
<path d="M305.078 217.417C305.078 217.078 305.198 216.782 305.438 216.528C305.678 216.274 305.981 216.147 306.348 216.147C306.687 216.147 306.983 216.26 307.237 216.485C307.491 216.711 307.625 217.015 307.64 217.396C307.64 217.748 307.52 218.052 307.28 218.306C307.04 218.56 306.736 218.687 306.37 218.687C306.003 218.687 305.699 218.567 305.459 218.327C305.219 218.087 305.092 217.784 305.078 217.417Z" fill="black"/>
<path d="M314.502 216.634C314.516 216.591 314.53 216.535 314.544 216.464C314.558 216.394 314.593 216.238 314.65 215.999C314.706 215.759 314.777 215.54 314.862 215.342C314.946 215.145 315.052 214.912 315.179 214.644C315.306 214.376 315.447 214.164 315.602 214.009C315.758 213.854 315.941 213.698 316.153 213.543C316.364 213.388 316.597 213.324 316.851 213.353C317.91 213.353 318.587 213.804 318.883 214.707L319.095 214.517C319.97 213.741 320.802 213.353 321.593 213.353C322.51 213.353 323.229 213.684 323.752 214.348C324.274 215.011 324.535 215.815 324.535 216.761C324.535 218.285 323.998 219.689 322.926 220.973C321.854 222.257 320.64 222.906 319.285 222.92C318.975 222.92 318.7 222.878 318.46 222.793C318.305 222.722 318.142 222.617 317.973 222.476C317.804 222.334 317.67 222.214 317.571 222.116L317.423 221.946C317.409 221.96 317.253 222.574 316.957 223.788C316.661 225.001 316.513 225.615 316.513 225.629C316.513 225.714 316.569 225.763 316.682 225.778C316.795 225.792 317.056 225.813 317.465 225.841H317.994C318.079 225.94 318.121 226.003 318.121 226.032C318.121 226.06 318.1 226.187 318.058 226.413C318.015 226.582 317.973 226.688 317.931 226.73C317.888 226.772 317.797 226.801 317.656 226.815C317.627 226.815 317.55 226.815 317.423 226.815C317.296 226.815 317.056 226.808 316.703 226.794C316.35 226.779 315.913 226.772 315.391 226.772C314.403 226.772 313.775 226.786 313.507 226.815H313.338C313.239 226.716 313.189 226.638 313.189 226.582C313.218 226.201 313.309 225.954 313.465 225.841H313.888C314.368 225.827 314.643 225.742 314.713 225.587C314.756 225.502 315.186 223.816 316.005 220.528C316.823 217.24 317.253 215.498 317.296 215.3C317.31 215.229 317.317 215.131 317.317 215.004C317.317 214.425 317.141 214.136 316.788 214.136C316.477 214.136 316.216 214.333 316.005 214.729C315.793 215.124 315.631 215.554 315.518 216.02C315.405 216.485 315.32 216.739 315.264 216.782C315.236 216.81 315.123 216.824 314.925 216.824H314.629C314.544 216.739 314.502 216.676 314.502 216.634ZM317.783 220.549C318.093 221.622 318.615 222.158 319.349 222.158C319.772 222.158 320.181 221.996 320.577 221.671C320.972 221.347 321.296 220.937 321.55 220.444C321.804 219.964 322.058 219.202 322.312 218.158C322.566 217.113 322.7 216.337 322.714 215.829V215.702C322.714 214.658 322.284 214.136 321.423 214.136C321.268 214.136 321.113 214.157 320.958 214.199C320.802 214.242 320.647 214.305 320.492 214.39C320.337 214.475 320.196 214.566 320.069 214.665C319.942 214.764 319.822 214.87 319.709 214.983C319.596 215.095 319.49 215.201 319.391 215.3C319.292 215.399 319.215 215.498 319.158 215.596C319.102 215.695 319.045 215.766 318.989 215.808L318.926 215.893C318.926 215.907 318.904 216.006 318.862 216.189C318.82 216.372 318.742 216.683 318.629 217.12C318.516 217.558 318.418 217.925 318.333 218.221C317.966 219.717 317.783 220.493 317.783 220.549Z" fill="black"/>
<path d="M325.932 206.855L326.016 206.833C326.087 206.833 326.157 206.833 326.228 206.833H326.482L327.075 207.341C328.401 208.541 329.368 210.037 329.975 211.829C330.581 213.621 330.885 215.483 330.885 217.417C330.885 218.376 330.814 219.301 330.673 220.19C330.532 221.079 330.37 221.833 330.186 222.454C330.003 223.075 329.742 223.696 329.403 224.317C329.064 224.938 328.796 225.411 328.599 225.735C328.401 226.06 328.112 226.42 327.731 226.815C327.35 227.21 327.124 227.443 327.054 227.513C326.983 227.584 326.821 227.718 326.567 227.915C326.524 227.958 326.496 227.986 326.482 228H326.228C326.115 228 326.038 228 325.995 228C325.953 228 325.918 227.979 325.889 227.937C325.861 227.894 325.84 227.831 325.826 227.746C325.84 227.732 325.918 227.64 326.059 227.471C328.246 225.199 329.34 221.848 329.34 217.417C329.34 212.986 328.246 209.634 326.059 207.363C325.918 207.193 325.84 207.102 325.826 207.087C325.826 206.975 325.861 206.897 325.932 206.855Z" fill="black"/>
<defs>
<clipPath id="clip0_1_145">
<rect width="14" height="10" fill="white" transform="translate(182 176)"/>
</clipPath>
<clipPath id="clip1_1_145">
<rect width="40" height="15" fill="white" transform="translate(503 139)"/>
</clipPath>
<clipPath id="clip2_1_145">
<rect width="150" height="24" fill="white" transform="translate(331 56)"/>
</clipPath>
</defs>
</svg>
