<svg width="1801" height="646" viewBox="0 0 1801 646" fill="none" xmlns="http://www.w3.org/2000/svg">
<path d="M22 618C68.2266 470.036 311.468 478.745 350.08 364.145C403.515 205.557 241.576 114.073 277.53 20" stroke="black" stroke-width="4" stroke-linecap="round"/>
<path d="M59.2616 592.074C59.2616 591.528 59.4228 591.094 59.7451 590.772H60.1542C61.1956 590.846 62.4973 590.883 64.0594 590.883C66.9852 590.883 68.7085 590.846 69.2292 590.772H69.6011C69.7499 590.921 69.8243 591.032 69.8243 591.107C69.8243 591.181 69.7995 591.404 69.7499 591.776C69.6259 592.148 69.5143 592.383 69.4151 592.483H68.6341C68.0886 592.532 67.7167 592.557 67.5183 592.557C66.7993 592.681 66.4026 592.867 66.3282 593.115C66.3282 593.165 66.6877 596.276 67.4067 602.45C68.1258 608.624 68.4977 611.736 68.5225 611.786L71.2376 607.434C73.0476 604.533 74.8576 601.607 76.6677 598.657C78.4777 595.706 79.4075 594.181 79.4571 594.082C79.5563 593.908 79.6059 593.722 79.6059 593.524C79.6059 592.929 79.0604 592.582 77.9694 592.483C77.5231 592.483 77.2999 592.346 77.2999 592.074C77.2999 592.049 77.3247 591.888 77.3743 591.59C77.4487 591.243 77.5231 591.02 77.5975 590.921C77.6719 590.821 77.833 590.772 78.081 590.772C78.1306 590.772 78.2793 590.772 78.5273 590.772C78.7752 590.772 79.1968 590.784 79.7918 590.809C80.3869 590.834 81.1804 590.846 82.1722 590.846C83.883 590.846 84.9616 590.821 85.4079 590.772H85.6683C85.8418 590.945 85.9286 591.082 85.9286 591.181C85.9286 591.602 85.817 591.999 85.5939 592.371C85.5195 592.445 85.3087 592.483 84.9616 592.483C84.6393 592.507 84.3417 592.532 84.069 592.557C83.7962 592.582 83.5359 592.644 83.2879 592.743C83.04 592.842 82.8416 592.929 82.6929 593.003C82.5441 593.078 82.3953 593.177 82.2465 593.301C82.0978 593.425 81.9738 593.512 81.8746 593.561C81.7754 593.611 81.6763 593.722 81.5771 593.896C81.4779 594.07 81.3911 594.156 81.3167 594.156L74.1386 605.686C69.6755 612.901 67.3696 616.596 67.2208 616.769C67.1464 616.819 67.0596 616.881 66.9604 616.955L66.291 616.993H66.0306C65.5843 616.993 65.3612 616.906 65.3612 616.732C65.2868 616.583 64.8033 612.616 63.9107 604.831C62.9684 596.946 62.4849 592.966 62.4601 592.892C62.3362 592.619 61.5675 592.483 60.1542 592.483H59.5219C59.3484 592.359 59.2616 592.222 59.2616 592.074Z" fill="black"/>
<path d="M89.4247 606.876C89.4247 605.165 89.5487 603.541 89.7966 602.004C90.0446 600.467 90.3297 599.14 90.652 598.024C90.9744 596.909 91.4331 595.818 92.0282 594.751C92.6232 593.685 93.0943 592.855 93.4415 592.26C93.7886 591.664 94.3093 591.02 95.0036 590.326C95.6978 589.631 96.1069 589.21 96.2309 589.061C96.3549 588.912 96.6648 588.652 97.1607 588.28H97.6442H97.793C98.1401 588.28 98.3137 588.392 98.3137 588.615C98.3137 588.689 98.1029 588.949 97.6814 589.396C97.2599 589.842 96.7516 590.499 96.1565 591.367C95.5614 592.235 94.954 593.301 94.3341 594.565C93.7142 595.83 93.1935 597.541 92.772 599.698C92.3505 601.855 92.1397 604.248 92.1397 606.876C92.1397 609.504 92.3505 611.885 92.772 614.017C93.1935 616.149 93.7018 617.873 94.2969 619.187C94.892 620.501 95.4995 621.567 96.1193 622.385C96.7392 623.204 97.2599 623.861 97.6814 624.357C98.1029 624.853 98.3137 625.113 98.3137 625.138C98.3137 625.361 98.1277 625.472 97.7558 625.472H97.6442H97.1607L96.1193 624.58C93.7886 622.472 92.0901 619.844 91.024 616.695C89.9578 613.546 89.4247 610.273 89.4247 606.876Z" fill="black"/>
<path d="M102.256 606.802C102.256 603.95 103.087 601.211 104.748 598.582C106.409 595.954 108.504 593.871 111.033 592.334C113.563 590.797 116.092 590.016 118.621 589.991C120.852 589.991 122.625 590.623 123.939 591.888C124.162 592.136 124.348 592.346 124.497 592.52C124.646 592.693 124.745 592.817 124.795 592.892L124.832 593.003C124.906 593.003 125.241 592.681 125.836 592.036C126.01 591.888 126.196 591.714 126.394 591.516C126.592 591.317 126.791 591.119 126.989 590.921C127.187 590.722 127.311 590.586 127.361 590.511L127.919 589.954H128.142C128.489 589.954 128.663 590.04 128.663 590.214C128.663 590.313 128.266 592.012 127.473 595.309C126.58 598.756 126.134 600.491 126.134 600.516C126.084 600.64 126.022 600.715 125.948 600.739C125.873 600.764 125.65 600.789 125.278 600.814H124.683C124.534 600.665 124.46 600.553 124.46 600.479C124.46 600.454 124.472 600.367 124.497 600.219C124.522 600.07 124.547 599.822 124.572 599.475C124.596 599.128 124.609 598.731 124.609 598.285C124.609 596.524 124.212 594.987 123.419 593.673C122.625 592.359 121.274 591.689 119.365 591.664C118.72 591.664 118.026 591.751 117.282 591.925C116.538 592.098 115.645 592.396 114.604 592.817C113.563 593.239 112.534 593.933 111.517 594.9C110.5 595.867 109.595 597.02 108.802 598.359C108.009 599.772 107.376 601.421 106.905 603.306C106.434 605.19 106.198 606.727 106.198 607.918C106.198 610.744 107.141 612.777 109.025 614.017C110.215 614.86 111.678 615.282 113.414 615.282C115.67 615.282 117.679 614.439 119.439 612.753C121.199 611.067 122.365 609.232 122.935 607.248C123.034 606.926 123.109 606.74 123.158 606.69C123.208 606.641 123.406 606.616 123.753 606.616C124.249 606.616 124.497 606.727 124.497 606.951C124.497 607.075 124.485 607.186 124.46 607.285C123.741 609.938 122.204 612.219 119.848 614.129C117.493 616.038 114.964 616.993 112.261 616.993C109.459 616.993 107.091 616.063 105.157 614.203C103.223 612.343 102.256 609.876 102.256 606.802Z" fill="black"/>
<path d="M129.221 588.317L129.369 588.28C129.493 588.28 129.617 588.28 129.741 588.28H130.188L131.229 589.173C133.56 591.28 135.258 593.908 136.324 597.057C137.391 600.206 137.924 603.479 137.924 606.876C137.924 608.562 137.8 610.186 137.552 611.748C137.304 613.31 137.019 614.637 136.696 615.728C136.374 616.819 135.915 617.91 135.32 619.001C134.725 620.092 134.254 620.923 133.907 621.493C133.56 622.063 133.051 622.695 132.382 623.39C131.713 624.084 131.316 624.493 131.192 624.617C131.068 624.741 130.783 624.977 130.336 625.324C130.262 625.398 130.212 625.448 130.188 625.472H129.741C129.543 625.472 129.407 625.472 129.332 625.472C129.258 625.472 129.196 625.435 129.146 625.361C129.097 625.286 129.059 625.175 129.035 625.026C129.059 625.001 129.196 624.84 129.444 624.543C133.287 620.551 135.209 614.662 135.209 606.876C135.209 599.091 133.287 593.202 129.444 589.21C129.196 588.912 129.059 588.751 129.035 588.726C129.035 588.528 129.097 588.392 129.221 588.317Z" fill="black"/>
<path d="M289 38.2008C289 35.459 289.818 32.8244 291.454 30.2971C293.089 27.7698 295.152 25.7671 297.642 24.2889C300.132 22.8106 302.623 22.0596 305.113 22.0358C307.31 22.0358 309.055 22.6437 310.349 23.8597C310.569 24.0981 310.752 24.3008 310.899 24.4677C311.045 24.6346 311.143 24.7538 311.192 24.8253L311.228 24.9326C311.301 24.9326 311.631 24.6227 312.217 24.0028C312.388 23.8597 312.571 23.6928 312.766 23.5021C312.962 23.3113 313.157 23.1206 313.352 22.9298C313.547 22.7391 313.669 22.608 313.718 22.5364L314.268 22H314.487C314.829 22 315 22.0834 315 22.2503C315 22.3457 314.609 23.9789 313.828 27.1499C312.949 30.464 312.51 32.133 312.51 32.1568C312.461 32.276 312.4 32.3475 312.327 32.3714C312.254 32.3952 312.034 32.4191 311.668 32.4429H311.082C310.935 32.2999 310.862 32.1926 310.862 32.121C310.862 32.0972 310.874 32.0138 310.899 31.8707C310.923 31.7276 310.947 31.4892 310.972 31.1554C310.996 30.8216 311.008 30.4402 311.008 30.011C311.008 28.3182 310.618 26.84 309.837 25.5763C309.055 24.3127 307.725 23.669 305.845 23.6451C305.21 23.6451 304.527 23.7286 303.794 23.8955C303.062 24.0624 302.183 24.3485 301.158 24.7538C300.132 25.1591 299.119 25.8267 298.118 26.7565C297.117 27.6864 296.226 28.795 295.445 30.0825C294.664 31.4415 294.041 33.0271 293.577 34.8391C293.114 36.6511 292.882 38.1293 292.882 39.2737C292.882 41.9917 293.809 43.9468 295.665 45.1389C296.837 45.9496 298.277 46.3549 299.986 46.3549C302.208 46.3549 304.185 45.5442 305.918 43.923C307.652 42.3017 308.799 40.5374 309.361 38.63C309.458 38.32 309.531 38.1412 309.58 38.0935C309.629 38.0458 309.824 38.022 310.166 38.022C310.654 38.022 310.899 38.1293 310.899 38.3439C310.899 38.4631 310.886 38.5704 310.862 38.6657C310.154 41.2169 308.64 43.4104 306.321 45.2462C304.002 47.0821 301.512 48 298.851 48C296.092 48 293.761 47.1059 291.856 45.3177C289.952 43.5296 289 41.1573 289 38.2008Z" fill="black"/>
<path d="M319 139.871C418.964 139.871 500 161.809 500 188.871C500 215.933 418.964 237.871 319 237.871C219.036 237.871 138 215.933 138 188.871C138 164.576 203.314 144.41 289 140.541" stroke="#5CB8FA" stroke-width="4" stroke-linecap="round"/>
<path d="M334.5 411.48C381.915 420.315 413 435.11 413 451.871C413 478.933 331.964 500.871 232 500.871C132.036 500.871 51 478.933 51 451.871C51 424.809 132.036 402.871 232 402.871C256.051 402.871 279.006 404.141 300 406.446" stroke="#D35555" stroke-width="4" stroke-linecap="round"/>
<path d="M452.728 232.692C451.895 232.692 451.454 232.643 451.405 232.545C451.38 232.496 451.368 232.397 451.368 232.25C451.368 231.662 451.503 231.257 451.772 231.037C451.821 231.012 452.03 231 452.397 231C453.403 231.049 455.07 231.074 457.399 231.074C458.232 231.074 459.005 231.074 459.716 231.074C460.427 231.074 460.978 231.061 461.371 231.037C461.763 231.012 462.008 231.012 462.106 231.037C462.498 231.037 462.694 231.159 462.694 231.405C462.694 231.454 462.67 231.625 462.621 231.919C462.498 232.336 462.376 232.581 462.253 232.655H462.18C462.131 232.655 462.069 232.655 461.996 232.655C461.922 232.655 461.836 232.655 461.738 232.655C461.64 232.655 461.53 232.667 461.407 232.692C461.285 232.716 461.174 232.716 461.076 232.692C460.12 232.716 459.507 232.753 459.238 232.802C458.968 232.851 458.747 232.986 458.576 233.207C458.551 233.256 458.208 234.543 457.546 237.068C456.884 239.593 456.222 242.241 455.56 245.011C454.898 247.782 454.53 249.412 454.457 249.902C454.408 250.246 454.383 250.601 454.383 250.969C454.383 252.293 454.763 253.335 455.523 254.095C456.283 254.855 457.338 255.235 458.686 255.235C460.329 255.235 461.971 254.683 463.614 253.58C465.256 252.477 466.458 250.81 467.218 248.579L469.093 241.187C470.246 236.479 470.822 234.028 470.822 233.832C470.822 233.17 470.037 232.79 468.468 232.692C467.88 232.692 467.586 232.557 467.586 232.287C467.586 232.238 467.61 232.091 467.659 231.846C467.757 231.454 467.831 231.221 467.88 231.147C467.929 231.074 468.051 231.025 468.248 231C468.321 231 468.713 231.012 469.424 231.037C470.135 231.061 471.165 231.086 472.513 231.11C473.764 231.11 474.72 231.098 475.382 231.074C476.044 231.049 476.399 231.037 476.448 231.037C476.816 231.037 477 231.159 477 231.405C477 231.944 476.902 232.312 476.706 232.508C476.632 232.63 476.363 232.692 475.897 232.692C474.156 232.79 473.065 233.28 472.624 234.163C472.575 234.285 471.962 236.651 470.785 241.26C469.78 245.404 469.167 247.843 468.946 248.579C468.137 251.03 466.727 253.028 464.717 254.573C462.707 256.117 460.623 256.902 458.465 256.926C456.21 256.926 454.408 256.24 453.059 254.867C451.711 253.494 451.025 251.864 451 249.976V249.388C451 248.946 451.674 246.029 453.023 240.635C454.224 235.707 454.825 233.17 454.825 233.023C454.825 232.851 454.126 232.741 452.728 232.692Z" fill="black"/>
<path d="M74.0602 388C74.4253 388 75.0772 388.013 76.016 388.039C76.9549 388.065 77.8285 388.092 78.6369 388.118C79.9669 388.118 81.0752 388.105 81.9619 388.079C82.8485 388.052 83.3571 388.039 83.4875 388.039C83.9569 388.039 84.1916 388.144 84.1916 388.353C84.1916 388.458 84.1525 388.654 84.0742 388.942C83.9438 389.414 83.8265 389.675 83.7222 389.728C83.6179 389.78 83.331 389.806 82.8616 389.806C82.2096 389.833 81.6881 389.898 81.2969 390.003C80.9057 390.107 80.6319 390.212 80.4754 390.317C80.319 390.422 80.2798 390.539 80.3581 390.67C80.3581 390.984 80.5667 394.1 80.984 400.016C81.4012 405.933 81.6098 409.061 81.6098 409.402L81.6881 409.284C81.7402 409.205 81.8185 409.075 81.9228 408.891C82.0271 408.708 82.1836 408.459 82.3922 408.145C82.6008 407.831 82.8225 407.438 83.0572 406.967C83.2919 406.496 83.6048 405.959 83.996 405.357C84.3872 404.755 84.7783 404.048 85.1695 403.236C85.5607 402.425 86.0692 401.548 86.6951 400.605C89.4072 395.788 90.9458 393.04 91.3109 392.359C91.676 391.678 91.8716 391.259 91.8977 391.102C91.8977 390.71 91.6499 390.395 91.1545 390.16C90.659 389.924 90.1113 389.806 89.5115 389.806C89.1464 389.806 88.9639 389.675 88.9639 389.414C88.9639 389.335 88.99 389.165 89.0421 388.903C89.1464 388.484 89.2247 388.236 89.2768 388.157C89.329 388.079 89.5115 388.039 89.8245 388.039C89.9027 388.039 90.1244 388.039 90.4895 388.039C90.8546 388.039 91.3631 388.039 92.015 388.039C92.667 388.039 93.3711 388.052 94.1274 388.079C95.8485 388.079 96.9569 388.052 97.4524 388C97.8175 388 98 388.144 98 388.432C98 388.589 97.9609 388.812 97.8826 389.1C97.8044 389.388 97.7131 389.584 97.6088 389.689C97.5045 389.793 97.3741 389.833 97.2177 389.806C96.6439 389.806 96.1224 389.885 95.653 390.042C95.1835 390.199 94.7924 390.382 94.4794 390.592C94.1665 390.801 93.9188 391.024 93.7362 391.259C93.5537 391.495 93.3972 391.704 93.2668 391.888L93.1103 392.123L86.4995 403.747C82.1184 411.496 79.9147 415.384 79.8887 415.41C79.7322 415.593 79.4193 415.685 78.9498 415.685C78.5587 415.685 78.3109 415.619 78.2066 415.488C78.1284 415.41 77.8806 412.19 77.4634 405.828C77.0461 399.467 76.8245 396.181 76.7984 395.972L76.329 396.679C75.7553 397.647 74.0863 400.566 71.322 405.436C67.5667 412.033 65.663 415.358 65.6108 415.41C65.5587 415.462 65.4935 415.515 65.4152 415.567C65.2849 415.646 65.0502 415.685 64.7111 415.685C64.2156 415.685 63.9418 415.593 63.8897 415.41C63.8897 415.331 63.6028 411.156 63.0291 402.883C62.4554 394.61 62.1555 390.448 62.1294 390.395C62.0772 390.16 61.9468 390.016 61.7382 389.963C61.5296 389.911 61.0211 389.859 60.2126 389.806H59.2738C59.0913 389.623 59 389.479 59 389.374C59.0261 388.772 59.1956 388.314 59.5085 388H59.9779C61.0732 388.079 62.3771 388.118 63.8897 388.118C67.1494 388.118 68.9358 388.079 69.2487 388H69.6399C69.7964 388.157 69.8746 388.275 69.8746 388.353C69.8746 388.432 69.8485 388.668 69.7964 389.06C69.666 389.453 69.5486 389.702 69.4443 389.806H68.6229C67.0321 389.885 66.1846 390.107 66.0802 390.474C66.8626 402.517 67.3059 408.852 67.4102 409.48L76.6028 393.223L76.5246 391.77C76.4463 390.67 76.3159 390.081 76.1334 390.003C75.9769 389.898 75.4293 389.833 74.4905 389.806C73.995 389.806 73.669 389.78 73.5125 389.728C73.3561 389.675 73.2778 389.558 73.2778 389.374C73.2778 389.322 73.3039 389.165 73.3561 388.903C73.3821 388.798 73.4082 388.681 73.4343 388.55C73.4604 388.419 73.4734 388.327 73.4734 388.275C73.4734 388.223 73.5125 388.17 73.5908 388.118C73.669 388.065 73.7212 388.039 73.7472 388.039C73.7733 388.039 73.8776 388.026 74.0602 388Z" fill="black"/>
<path d="M561 317.641C561 317.185 561.245 316.835 561.735 316.59H595.198C595.724 316.87 595.986 317.22 595.986 317.641C595.986 318.026 595.741 318.359 595.251 318.639L578.546 318.691H561.841C561.28 318.516 561 318.166 561 317.641ZM561 327.832C561 327.306 561.28 326.956 561.841 326.781H595.251C595.741 327.131 595.986 327.482 595.986 327.832C595.986 328.287 595.724 328.637 595.198 328.882H561.735C561.245 328.637 561 328.287 561 327.832Z" fill="black"/>
<path d="M656.986 618C703.213 470.036 946.454 478.745 985.066 364.145C1038.5 205.557 876.562 114.073 912.516 20" stroke="black" stroke-width="4" stroke-linecap="round"/>
<path d="M694.248 592.074C694.248 591.528 694.409 591.094 694.731 590.772H695.14C696.182 590.846 697.484 590.883 699.046 590.883C701.971 590.883 703.695 590.846 704.215 590.772H704.587C704.736 590.921 704.81 591.032 704.81 591.107C704.81 591.181 704.786 591.404 704.736 591.776C704.612 592.148 704.501 592.383 704.401 592.483H703.62C703.075 592.532 702.703 592.557 702.505 592.557C701.785 592.681 701.389 592.867 701.314 593.115C701.314 593.165 701.674 596.276 702.393 602.45C703.112 608.624 703.484 611.736 703.509 611.786L706.224 607.434C708.034 604.533 709.844 601.607 711.654 598.657C713.464 595.706 714.394 594.181 714.443 594.082C714.542 593.908 714.592 593.722 714.592 593.524C714.592 592.929 714.047 592.582 712.956 592.483C712.509 592.483 712.286 592.346 712.286 592.074C712.286 592.049 712.311 591.888 712.361 591.59C712.435 591.243 712.509 591.02 712.584 590.921C712.658 590.821 712.819 590.772 713.067 590.772C713.117 590.772 713.266 590.772 713.514 590.772C713.761 590.772 714.183 590.784 714.778 590.809C715.373 590.834 716.167 590.846 717.158 590.846C718.869 590.846 719.948 590.821 720.394 590.772H720.654C720.828 590.945 720.915 591.082 720.915 591.181C720.915 591.602 720.803 591.999 720.58 592.371C720.506 592.445 720.295 592.483 719.948 592.483C719.625 592.507 719.328 592.532 719.055 592.557C718.782 592.582 718.522 592.644 718.274 592.743C718.026 592.842 717.828 592.929 717.679 593.003C717.53 593.078 717.382 593.177 717.233 593.301C717.084 593.425 716.96 593.512 716.861 593.561C716.762 593.611 716.662 593.722 716.563 593.896C716.464 594.07 716.377 594.156 716.303 594.156L709.125 605.686C704.662 612.901 702.356 616.596 702.207 616.769C702.133 616.819 702.046 616.881 701.947 616.955L701.277 616.993H701.017C700.571 616.993 700.347 616.906 700.347 616.732C700.273 616.583 699.789 612.616 698.897 604.831C697.955 596.946 697.471 592.966 697.446 592.892C697.322 592.619 696.554 592.483 695.14 592.483H694.508C694.335 592.359 694.248 592.222 694.248 592.074Z" fill="black"/>
<path d="M724.411 606.876C724.411 605.165 724.535 603.541 724.783 602.004C725.031 600.467 725.316 599.14 725.638 598.024C725.961 596.909 726.419 595.818 727.014 594.751C727.609 593.685 728.081 592.855 728.428 592.26C728.775 591.664 729.296 591.02 729.99 590.326C730.684 589.631 731.093 589.21 731.217 589.061C731.341 588.912 731.651 588.652 732.147 588.28H732.63H732.779C733.126 588.28 733.3 588.392 733.3 588.615C733.3 588.689 733.089 588.949 732.668 589.396C732.246 589.842 731.738 590.499 731.143 591.367C730.548 592.235 729.94 593.301 729.32 594.565C728.7 595.83 728.18 597.541 727.758 599.698C727.337 601.855 727.126 604.248 727.126 606.876C727.126 609.504 727.337 611.885 727.758 614.017C728.18 616.149 728.688 617.873 729.283 619.187C729.878 620.501 730.486 621.567 731.106 622.385C731.725 623.204 732.246 623.861 732.668 624.357C733.089 624.853 733.3 625.113 733.3 625.138C733.3 625.361 733.114 625.472 732.742 625.472H732.63H732.147L731.106 624.58C728.775 622.472 727.076 619.844 726.01 616.695C724.944 613.546 724.411 610.273 724.411 606.876Z" fill="black"/>
<path d="M737.242 606.802C737.242 603.95 738.073 601.211 739.734 598.582C741.395 595.954 743.491 593.871 746.02 592.334C748.549 590.797 751.078 590.016 753.607 589.991C755.839 589.991 757.611 590.623 758.925 591.888C759.149 592.136 759.335 592.346 759.483 592.52C759.632 592.693 759.731 592.817 759.781 592.892L759.818 593.003C759.892 593.003 760.227 592.681 760.822 592.036C760.996 591.888 761.182 591.714 761.38 591.516C761.579 591.317 761.777 591.119 761.975 590.921C762.174 590.722 762.298 590.586 762.347 590.511L762.905 589.954H763.128C763.475 589.954 763.649 590.04 763.649 590.214C763.649 590.313 763.252 592.012 762.459 595.309C761.566 598.756 761.12 600.491 761.12 600.516C761.07 600.64 761.008 600.715 760.934 600.739C760.86 600.764 760.636 600.789 760.264 600.814H759.669C759.521 600.665 759.446 600.553 759.446 600.479C759.446 600.454 759.459 600.367 759.483 600.219C759.508 600.07 759.533 599.822 759.558 599.475C759.583 599.128 759.595 598.731 759.595 598.285C759.595 596.524 759.198 594.987 758.405 593.673C757.611 592.359 756.26 591.689 754.351 591.664C753.706 591.664 753.012 591.751 752.268 591.925C751.524 592.098 750.632 592.396 749.59 592.817C748.549 593.239 747.52 593.933 746.503 594.9C745.487 595.867 744.582 597.02 743.788 598.359C742.995 599.772 742.362 601.421 741.891 603.306C741.42 605.19 741.185 606.727 741.185 607.918C741.185 610.744 742.127 612.777 744.011 614.017C745.201 614.86 746.664 615.282 748.4 615.282C750.656 615.282 752.665 614.439 754.425 612.753C756.186 611.067 757.351 609.232 757.921 607.248C758.02 606.926 758.095 606.74 758.144 606.69C758.194 606.641 758.392 606.616 758.74 606.616C759.235 606.616 759.483 606.727 759.483 606.951C759.483 607.075 759.471 607.186 759.446 607.285C758.727 609.938 757.19 612.219 754.834 614.129C752.479 616.038 749.95 616.993 747.247 616.993C744.445 616.993 742.077 616.063 740.143 614.203C738.209 612.343 737.242 609.876 737.242 606.802Z" fill="black"/>
<path d="M764.207 588.317L764.356 588.28C764.48 588.28 764.604 588.28 764.728 588.28H765.174L766.215 589.173C768.546 591.28 770.244 593.908 771.311 597.057C772.377 600.206 772.91 603.479 772.91 606.876C772.91 608.562 772.786 610.186 772.538 611.748C772.29 613.31 772.005 614.637 771.683 615.728C771.36 616.819 770.901 617.91 770.306 619.001C769.711 620.092 769.24 620.923 768.893 621.493C768.546 622.063 768.038 622.695 767.368 623.39C766.699 624.084 766.302 624.493 766.178 624.617C766.054 624.741 765.769 624.977 765.323 625.324C765.248 625.398 765.199 625.448 765.174 625.472H764.728C764.529 625.472 764.393 625.472 764.318 625.472C764.244 625.472 764.182 625.435 764.132 625.361C764.083 625.286 764.046 625.175 764.021 625.026C764.046 625.001 764.182 624.84 764.43 624.543C768.273 620.551 770.195 614.662 770.195 606.876C770.195 599.091 768.273 593.202 764.43 589.21C764.182 588.912 764.046 588.751 764.021 588.726C764.021 588.528 764.083 588.392 764.207 588.317Z" fill="black"/>
<path d="M923.986 38.2008C923.986 35.459 924.804 32.8244 926.44 30.2971C928.075 27.7698 930.138 25.7671 932.628 24.2889C935.119 22.8106 937.609 22.0596 940.099 22.0358C942.296 22.0358 944.042 22.6437 945.336 23.8597C945.555 24.0981 945.738 24.3008 945.885 24.4677C946.031 24.6346 946.129 24.7538 946.178 24.8253L946.214 24.9326C946.288 24.9326 946.617 24.6226 947.203 24.0028C947.374 23.8597 947.557 23.6928 947.752 23.5021C947.948 23.3113 948.143 23.1206 948.338 22.9298C948.534 22.7391 948.656 22.608 948.705 22.5365L949.254 22H949.474C949.815 22 949.986 22.0834 949.986 22.2503C949.986 22.3457 949.596 23.9789 948.814 27.1499C947.936 30.464 947.496 32.133 947.496 32.1568C947.447 32.276 947.386 32.3475 947.313 32.3714C947.24 32.3952 947.02 32.4191 946.654 32.4429H946.068C945.921 32.2999 945.848 32.1926 945.848 32.121C945.848 32.0972 945.86 32.0138 945.885 31.8707C945.909 31.7276 945.934 31.4892 945.958 31.1554C945.982 30.8216 945.995 30.4402 945.995 30.011C945.995 28.3182 945.604 26.84 944.823 25.5763C944.042 24.3127 942.711 23.669 940.831 23.6451C940.197 23.6451 939.513 23.7286 938.781 23.8955C938.048 24.0624 937.169 24.3485 936.144 24.7538C935.119 25.1591 934.105 25.8267 933.105 26.7565C932.104 27.6864 931.212 28.795 930.431 30.0825C929.65 31.4415 929.028 33.0271 928.564 34.8391C928.1 36.6511 927.868 38.1293 927.868 39.2737C927.868 41.9917 928.796 43.9468 930.651 45.1389C931.823 45.9496 933.263 46.3549 934.972 46.3549C937.194 46.3549 939.171 45.5442 940.905 43.923C942.638 42.3017 943.785 40.5374 944.347 38.63C944.444 38.32 944.518 38.1412 944.566 38.0935C944.615 38.0459 944.811 38.022 945.152 38.022C945.641 38.022 945.885 38.1293 945.885 38.3439C945.885 38.4631 945.873 38.5704 945.848 38.6657C945.14 41.2169 943.627 43.4104 941.307 45.2462C938.988 47.0821 936.498 48 933.837 48C931.078 48 928.747 47.1059 926.843 45.3177C924.938 43.5296 923.986 41.1573 923.986 38.2008Z" fill="black"/>
<path d="M1005.5 327.68C1037.2 331.926 1059 340.774 1059 351C1059 365.359 1016.02 377 963 377C909.981 377 867 365.359 867 351C867 336.641 909.981 325 963 325C970.036 325 976.895 325.205 983.5 325.594" stroke="#5CB8FA" stroke-width="4" stroke-linecap="round"/>
<path d="M1071.73 346.692C1070.89 346.692 1070.45 346.643 1070.4 346.545C1070.38 346.496 1070.37 346.397 1070.37 346.25C1070.37 345.662 1070.5 345.257 1070.77 345.037C1070.82 345.012 1071.03 345 1071.4 345C1072.4 345.049 1074.07 345.074 1076.4 345.074C1077.23 345.074 1078 345.074 1078.72 345.074C1079.43 345.074 1079.98 345.061 1080.37 345.037C1080.76 345.012 1081.01 345.012 1081.11 345.037C1081.5 345.037 1081.69 345.159 1081.69 345.405C1081.69 345.454 1081.67 345.625 1081.62 345.919C1081.5 346.336 1081.38 346.581 1081.25 346.655H1081.18C1081.13 346.655 1081.07 346.655 1081 346.655C1080.92 346.655 1080.84 346.655 1080.74 346.655C1080.64 346.655 1080.53 346.667 1080.41 346.692C1080.28 346.716 1080.17 346.716 1080.08 346.692C1079.12 346.716 1078.51 346.753 1078.24 346.802C1077.97 346.851 1077.75 346.986 1077.58 347.207C1077.55 347.256 1077.21 348.543 1076.55 351.068C1075.88 353.593 1075.22 356.241 1074.56 359.011C1073.9 361.782 1073.53 363.412 1073.46 363.902C1073.41 364.246 1073.38 364.601 1073.38 364.969C1073.38 366.293 1073.76 367.335 1074.52 368.095C1075.28 368.855 1076.34 369.235 1077.69 369.235C1079.33 369.235 1080.97 368.683 1082.61 367.58C1084.26 366.477 1085.46 364.81 1086.22 362.579L1088.09 355.187C1089.25 350.479 1089.82 348.028 1089.82 347.832C1089.82 347.17 1089.04 346.79 1087.47 346.692C1086.88 346.692 1086.59 346.557 1086.59 346.287C1086.59 346.238 1086.61 346.091 1086.66 345.846C1086.76 345.454 1086.83 345.221 1086.88 345.147C1086.93 345.074 1087.05 345.025 1087.25 345C1087.32 345 1087.71 345.012 1088.42 345.037C1089.14 345.061 1090.17 345.086 1091.51 345.11C1092.76 345.11 1093.72 345.098 1094.38 345.074C1095.04 345.049 1095.4 345.037 1095.45 345.037C1095.82 345.037 1096 345.159 1096 345.405C1096 345.944 1095.9 346.312 1095.71 346.508C1095.63 346.63 1095.36 346.692 1094.9 346.692C1093.16 346.79 1092.07 347.28 1091.62 348.163C1091.57 348.285 1090.96 350.651 1089.79 355.26C1088.78 359.404 1088.17 361.843 1087.95 362.579C1087.14 365.03 1085.73 367.028 1083.72 368.573C1081.71 370.117 1079.62 370.902 1077.47 370.926C1075.21 370.926 1073.41 370.24 1072.06 368.867C1070.71 367.494 1070.02 365.864 1070 363.976V363.388C1070 362.946 1070.67 360.029 1072.02 354.635C1073.22 349.707 1073.82 347.17 1073.82 347.023C1073.82 346.851 1073.13 346.741 1071.73 346.692Z" fill="black"/>
<path d="M1007 304.458C1085.7 309.779 1144 329.046 1144 352C1144 379.062 1062.96 401 963 401C863.036 401 782 379.062 782 352C782 324.938 863.036 303 963 303C969.931 303 976.771 303.105 983.5 303.311" stroke="#D35555" stroke-width="4" stroke-linecap="round"/>
<path d="M797.06 287C797.425 287 798.077 287.013 799.016 287.039C799.955 287.065 800.828 287.092 801.637 287.118C802.967 287.118 804.075 287.105 804.962 287.079C805.849 287.052 806.357 287.039 806.487 287.039C806.957 287.039 807.192 287.144 807.192 287.353C807.192 287.458 807.152 287.654 807.074 287.942C806.944 288.414 806.826 288.675 806.722 288.728C806.618 288.78 806.331 288.806 805.862 288.806C805.21 288.833 804.688 288.898 804.297 289.003C803.906 289.107 803.632 289.212 803.475 289.317C803.319 289.422 803.28 289.539 803.358 289.67C803.358 289.984 803.567 293.1 803.984 299.016C804.401 304.933 804.61 308.061 804.61 308.402L804.688 308.284C804.74 308.205 804.818 308.075 804.923 307.891C805.027 307.708 805.184 307.459 805.392 307.145C805.601 306.831 805.822 306.438 806.057 305.967C806.292 305.496 806.605 304.959 806.996 304.357C807.387 303.755 807.778 303.048 808.17 302.236C808.561 301.425 809.069 300.548 809.695 299.605C812.407 294.788 813.946 292.04 814.311 291.359C814.676 290.678 814.872 290.259 814.898 290.102C814.898 289.71 814.65 289.395 814.154 289.16C813.659 288.924 813.111 288.806 812.512 288.806C812.146 288.806 811.964 288.675 811.964 288.414C811.964 288.335 811.99 288.165 812.042 287.903C812.146 287.484 812.225 287.236 812.277 287.157C812.329 287.079 812.512 287.039 812.824 287.039C812.903 287.039 813.124 287.039 813.489 287.039C813.855 287.039 814.363 287.039 815.015 287.039C815.667 287.039 816.371 287.052 817.127 287.079C818.849 287.079 819.957 287.052 820.452 287C820.817 287 821 287.144 821 287.432C821 287.589 820.961 287.812 820.883 288.1C820.804 288.388 820.713 288.584 820.609 288.689C820.505 288.793 820.374 288.833 820.218 288.806C819.644 288.806 819.122 288.885 818.653 289.042C818.184 289.199 817.792 289.382 817.479 289.592C817.166 289.801 816.919 290.024 816.736 290.259C816.554 290.495 816.397 290.704 816.267 290.888L816.11 291.123L809.499 302.747C805.118 310.496 802.915 314.384 802.889 314.41C802.732 314.593 802.419 314.685 801.95 314.685C801.559 314.685 801.311 314.619 801.207 314.488C801.128 314.41 800.881 311.19 800.463 304.828C800.046 298.467 799.824 295.181 799.798 294.972L799.329 295.679C798.755 296.647 797.086 299.566 794.322 304.436C790.567 311.033 788.663 314.358 788.611 314.41C788.559 314.462 788.493 314.515 788.415 314.567C788.285 314.646 788.05 314.685 787.711 314.685C787.216 314.685 786.942 314.593 786.89 314.41C786.89 314.331 786.603 310.156 786.029 301.883C785.455 293.61 785.155 289.448 785.129 289.395C785.077 289.16 784.947 289.016 784.738 288.963C784.53 288.911 784.021 288.859 783.213 288.806H782.274C782.091 288.623 782 288.479 782 288.374C782.026 287.772 782.196 287.314 782.509 287H782.978C784.073 287.079 785.377 287.118 786.89 287.118C790.149 287.118 791.936 287.079 792.249 287H792.64C792.796 287.157 792.875 287.275 792.875 287.353C792.875 287.432 792.849 287.668 792.796 288.06C792.666 288.453 792.549 288.702 792.444 288.806H791.623C790.032 288.885 789.185 289.107 789.08 289.474C789.863 301.517 790.306 307.852 790.41 308.48L799.603 292.223L799.525 290.77C799.446 289.67 799.316 289.081 799.133 289.003C798.977 288.898 798.429 288.833 797.49 288.806C796.995 288.806 796.669 288.78 796.513 288.728C796.356 288.675 796.278 288.558 796.278 288.374C796.278 288.322 796.304 288.165 796.356 287.903C796.382 287.798 796.408 287.681 796.434 287.55C796.46 287.419 796.473 287.327 796.473 287.275C796.473 287.223 796.513 287.17 796.591 287.118C796.669 287.065 796.721 287.039 796.747 287.039C796.773 287.039 796.878 287.026 797.06 287Z" fill="black"/>
<path d="M1205 317.641C1205 317.185 1205.25 316.835 1205.74 316.59H1239.2C1239.72 316.87 1239.99 317.22 1239.99 317.641C1239.99 318.026 1239.74 318.359 1239.25 318.639L1222.55 318.691H1205.84C1205.28 318.516 1205 318.166 1205 317.641ZM1205 327.832C1205 327.306 1205.28 326.956 1205.84 326.781H1239.25C1239.74 327.131 1239.99 327.482 1239.99 327.832C1239.99 328.287 1239.72 328.637 1239.2 328.882H1205.74C1205.25 328.637 1205 328.287 1205 327.832Z" fill="black"/>
<path d="M1300.99 618C1347.21 470.036 1590.45 478.745 1629.07 364.145C1682.5 205.557 1520.56 114.073 1556.52 20" stroke="black" stroke-width="4" stroke-linecap="round"/>
<path d="M1338.25 592.074C1338.25 591.528 1338.41 591.094 1338.73 590.772H1339.14C1340.18 590.846 1341.48 590.883 1343.05 590.883C1345.97 590.883 1347.69 590.846 1348.22 590.772H1348.59C1348.74 590.921 1348.81 591.032 1348.81 591.107C1348.81 591.181 1348.79 591.404 1348.74 591.776C1348.61 592.148 1348.5 592.383 1348.4 592.483H1347.62C1347.07 592.532 1346.7 592.557 1346.5 592.557C1345.79 592.681 1345.39 592.867 1345.31 593.115C1345.31 593.165 1345.67 596.276 1346.39 602.45C1347.11 608.624 1347.48 611.736 1347.51 611.786L1350.22 607.434C1352.03 604.533 1353.84 601.607 1355.65 598.657C1357.46 595.706 1358.39 594.181 1358.44 594.082C1358.54 593.908 1358.59 593.722 1358.59 593.524C1358.59 592.929 1358.05 592.582 1356.96 592.483C1356.51 592.483 1356.29 592.346 1356.29 592.074C1356.29 592.049 1356.31 591.888 1356.36 591.59C1356.43 591.243 1356.51 591.02 1356.58 590.921C1356.66 590.821 1356.82 590.772 1357.07 590.772C1357.12 590.772 1357.27 590.772 1357.51 590.772C1357.76 590.772 1358.18 590.784 1358.78 590.809C1359.37 590.834 1360.17 590.846 1361.16 590.846C1362.87 590.846 1363.95 590.821 1364.39 590.772H1364.65C1364.83 590.945 1364.91 591.082 1364.91 591.181C1364.91 591.602 1364.8 591.999 1364.58 592.371C1364.51 592.445 1364.29 592.483 1363.95 592.483C1363.63 592.507 1363.33 592.532 1363.06 592.557C1362.78 592.582 1362.52 592.644 1362.27 592.743C1362.03 592.842 1361.83 592.929 1361.68 593.003C1361.53 593.078 1361.38 593.177 1361.23 593.301C1361.08 593.425 1360.96 593.512 1360.86 593.561C1360.76 593.611 1360.66 593.722 1360.56 593.896C1360.46 594.07 1360.38 594.156 1360.3 594.156L1353.12 605.686C1348.66 612.901 1346.36 616.596 1346.21 616.769C1346.13 616.819 1346.05 616.881 1345.95 616.955L1345.28 616.993H1345.02C1344.57 616.993 1344.35 616.906 1344.35 616.732C1344.27 616.583 1343.79 612.616 1342.9 604.831C1341.95 596.946 1341.47 592.966 1341.45 592.892C1341.32 592.619 1340.55 592.483 1339.14 592.483H1338.51C1338.33 592.359 1338.25 592.222 1338.25 592.074Z" fill="black"/>
<path d="M1368.41 606.876C1368.41 605.165 1368.53 603.541 1368.78 602.004C1369.03 600.467 1369.32 599.14 1369.64 598.024C1369.96 596.909 1370.42 595.818 1371.01 594.751C1371.61 593.685 1372.08 592.855 1372.43 592.26C1372.77 591.664 1373.3 591.02 1373.99 590.326C1374.68 589.631 1375.09 589.21 1375.22 589.061C1375.34 588.912 1375.65 588.652 1376.15 588.28H1376.63H1376.78C1377.13 588.28 1377.3 588.392 1377.3 588.615C1377.3 588.689 1377.09 588.949 1376.67 589.396C1376.25 589.842 1375.74 590.499 1375.14 591.367C1374.55 592.235 1373.94 593.301 1373.32 594.565C1372.7 595.83 1372.18 597.541 1371.76 599.698C1371.34 601.855 1371.13 604.248 1371.13 606.876C1371.13 609.504 1371.34 611.885 1371.76 614.017C1372.18 616.149 1372.69 617.873 1373.28 619.187C1373.88 620.501 1374.49 621.567 1375.11 622.385C1375.73 623.204 1376.25 623.861 1376.67 624.357C1377.09 624.853 1377.3 625.113 1377.3 625.138C1377.3 625.361 1377.11 625.472 1376.74 625.472H1376.63H1376.15L1375.11 624.58C1372.77 622.472 1371.08 619.844 1370.01 616.695C1368.94 613.546 1368.41 610.273 1368.41 606.876Z" fill="black"/>
<path d="M1381.24 606.802C1381.24 603.95 1382.07 601.211 1383.73 598.582C1385.4 595.954 1387.49 593.871 1390.02 592.334C1392.55 590.797 1395.08 590.016 1397.61 589.991C1399.84 589.991 1401.61 590.623 1402.93 591.888C1403.15 592.136 1403.33 592.346 1403.48 592.52C1403.63 592.693 1403.73 592.817 1403.78 592.892L1403.82 593.003C1403.89 593.003 1404.23 592.681 1404.82 592.036C1405 591.888 1405.18 591.714 1405.38 591.516C1405.58 591.317 1405.78 591.119 1405.98 590.921C1406.17 590.722 1406.3 590.586 1406.35 590.511L1406.91 589.954H1407.13C1407.48 589.954 1407.65 590.04 1407.65 590.214C1407.65 590.313 1407.25 592.012 1406.46 595.309C1405.57 598.756 1405.12 600.491 1405.12 600.516C1405.07 600.64 1405.01 600.715 1404.93 600.739C1404.86 600.764 1404.64 600.789 1404.26 600.814H1403.67C1403.52 600.665 1403.45 600.553 1403.45 600.479C1403.45 600.454 1403.46 600.367 1403.48 600.219C1403.51 600.07 1403.53 599.822 1403.56 599.475C1403.58 599.128 1403.59 598.731 1403.59 598.285C1403.59 596.524 1403.2 594.987 1402.4 593.673C1401.61 592.359 1400.26 591.689 1398.35 591.664C1397.71 591.664 1397.01 591.751 1396.27 591.925C1395.52 592.098 1394.63 592.396 1393.59 592.817C1392.55 593.239 1391.52 593.933 1390.5 594.9C1389.49 595.867 1388.58 597.02 1387.79 598.359C1386.99 599.772 1386.36 601.421 1385.89 603.306C1385.42 605.19 1385.18 606.727 1385.18 607.918C1385.18 610.744 1386.13 612.777 1388.01 614.017C1389.2 614.86 1390.66 615.282 1392.4 615.282C1394.66 615.282 1396.66 614.439 1398.43 612.753C1400.19 611.067 1401.35 609.232 1401.92 607.248C1402.02 606.926 1402.09 606.74 1402.14 606.69C1402.19 606.641 1402.39 606.616 1402.74 606.616C1403.24 606.616 1403.48 606.727 1403.48 606.951C1403.48 607.075 1403.47 607.186 1403.45 607.285C1402.73 609.938 1401.19 612.219 1398.83 614.129C1396.48 616.038 1393.95 616.993 1391.25 616.993C1388.45 616.993 1386.08 616.063 1384.14 614.203C1382.21 612.343 1381.24 609.876 1381.24 606.802Z" fill="black"/>
<path d="M1408.21 588.317L1408.36 588.28C1408.48 588.28 1408.6 588.28 1408.73 588.28H1409.17L1410.22 589.173C1412.55 591.28 1414.24 593.908 1415.31 597.057C1416.38 600.206 1416.91 603.479 1416.91 606.876C1416.91 608.562 1416.79 610.186 1416.54 611.748C1416.29 613.31 1416 614.637 1415.68 615.728C1415.36 616.819 1414.9 617.91 1414.31 619.001C1413.71 620.092 1413.24 620.923 1412.89 621.493C1412.55 622.063 1412.04 622.695 1411.37 623.39C1410.7 624.084 1410.3 624.493 1410.18 624.617C1410.05 624.741 1409.77 624.977 1409.32 625.324C1409.25 625.398 1409.2 625.448 1409.17 625.472H1408.73C1408.53 625.472 1408.39 625.472 1408.32 625.472C1408.24 625.472 1408.18 625.435 1408.13 625.361C1408.08 625.286 1408.05 625.175 1408.02 625.026C1408.05 625.001 1408.18 624.84 1408.43 624.543C1412.27 620.551 1414.19 614.662 1414.19 606.876C1414.19 599.091 1412.27 593.202 1408.43 589.21C1408.18 588.912 1408.05 588.751 1408.02 588.726C1408.02 588.528 1408.08 588.392 1408.21 588.317Z" fill="black"/>
<path d="M1567.99 38.2008C1567.99 35.459 1568.8 32.8244 1570.44 30.2971C1572.08 27.7698 1574.14 25.7671 1576.63 24.2889C1579.12 22.8106 1581.61 22.0596 1584.1 22.0358C1586.3 22.0358 1588.04 22.6437 1589.34 23.8597C1589.56 24.0981 1589.74 24.3008 1589.88 24.4677C1590.03 24.6346 1590.13 24.7538 1590.18 24.8253L1590.21 24.9326C1590.29 24.9326 1590.62 24.6226 1591.2 24.0028C1591.37 23.8597 1591.56 23.6928 1591.75 23.5021C1591.95 23.3113 1592.14 23.1206 1592.34 22.9298C1592.53 22.7391 1592.66 22.608 1592.7 22.5365L1593.25 22H1593.47C1593.82 22 1593.99 22.0834 1593.99 22.2503C1593.99 22.3457 1593.6 23.9789 1592.81 27.1499C1591.94 30.464 1591.5 32.133 1591.5 32.1568C1591.45 32.276 1591.39 32.3475 1591.31 32.3714C1591.24 32.3952 1591.02 32.4191 1590.65 32.4429H1590.07C1589.92 32.2999 1589.85 32.1926 1589.85 32.121C1589.85 32.0972 1589.86 32.0138 1589.88 31.8707C1589.91 31.7276 1589.93 31.4892 1589.96 31.1554C1589.98 30.8216 1589.99 30.4402 1589.99 30.011C1589.99 28.3182 1589.6 26.84 1588.82 25.5763C1588.04 24.3127 1586.71 23.669 1584.83 23.6451C1584.2 23.6451 1583.51 23.7286 1582.78 23.8955C1582.05 24.0624 1581.17 24.3485 1580.14 24.7538C1579.12 25.1591 1578.11 25.8267 1577.1 26.7565C1576.1 27.6864 1575.21 28.795 1574.43 30.0825C1573.65 31.4415 1573.03 33.0271 1572.56 34.8391C1572.1 36.6511 1571.87 38.1293 1571.87 39.2737C1571.87 41.9917 1572.8 43.9468 1574.65 45.1389C1575.82 45.9496 1577.26 46.3549 1578.97 46.3549C1581.19 46.3549 1583.17 45.5442 1584.9 43.923C1586.64 42.3017 1587.79 40.5374 1588.35 38.63C1588.44 38.32 1588.52 38.1412 1588.57 38.0935C1588.62 38.0459 1588.81 38.022 1589.15 38.022C1589.64 38.022 1589.88 38.1293 1589.88 38.3439C1589.88 38.4631 1589.87 38.5704 1589.85 38.6657C1589.14 41.2169 1587.63 43.4104 1585.31 45.2462C1582.99 47.0821 1580.5 48 1577.84 48C1575.08 48 1572.75 47.1059 1570.84 45.3177C1568.94 43.5296 1567.99 41.1573 1567.99 38.2008Z" fill="black"/>
<path d="M1617.5 410.376C1662.66 419.286 1692 433.715 1692 450C1692 477.062 1610.96 499 1511 499C1411.04 499 1330 477.062 1330 450C1330 422.938 1411.04 401 1511 401C1536.2 401 1560.2 402.394 1582 404.914" stroke="#5CB8FA" stroke-width="4" stroke-linecap="round"/>
<path d="M1361.73 378.692C1360.89 378.692 1360.45 378.643 1360.4 378.545C1360.38 378.496 1360.37 378.397 1360.37 378.25C1360.37 377.662 1360.5 377.257 1360.77 377.037C1360.82 377.012 1361.03 377 1361.4 377C1362.4 377.049 1364.07 377.074 1366.4 377.074C1367.23 377.074 1368 377.074 1368.72 377.074C1369.43 377.074 1369.98 377.061 1370.37 377.037C1370.76 377.012 1371.01 377.012 1371.11 377.037C1371.5 377.037 1371.69 377.159 1371.69 377.405C1371.69 377.454 1371.67 377.625 1371.62 377.919C1371.5 378.336 1371.38 378.581 1371.25 378.655H1371.18C1371.13 378.655 1371.07 378.655 1371 378.655C1370.92 378.655 1370.84 378.655 1370.74 378.655C1370.64 378.655 1370.53 378.667 1370.41 378.692C1370.28 378.716 1370.17 378.716 1370.08 378.692C1369.12 378.716 1368.51 378.753 1368.24 378.802C1367.97 378.851 1367.75 378.986 1367.58 379.207C1367.55 379.256 1367.21 380.543 1366.55 383.068C1365.88 385.593 1365.22 388.241 1364.56 391.011C1363.9 393.782 1363.53 395.412 1363.46 395.902C1363.41 396.246 1363.38 396.601 1363.38 396.969C1363.38 398.293 1363.76 399.335 1364.52 400.095C1365.28 400.855 1366.34 401.235 1367.69 401.235C1369.33 401.235 1370.97 400.683 1372.61 399.58C1374.26 398.477 1375.46 396.81 1376.22 394.579L1378.09 387.187C1379.25 382.479 1379.82 380.028 1379.82 379.832C1379.82 379.17 1379.04 378.79 1377.47 378.692C1376.88 378.692 1376.59 378.557 1376.59 378.287C1376.59 378.238 1376.61 378.091 1376.66 377.846C1376.76 377.454 1376.83 377.221 1376.88 377.147C1376.93 377.074 1377.05 377.025 1377.25 377C1377.32 377 1377.71 377.012 1378.42 377.037C1379.14 377.061 1380.17 377.086 1381.51 377.11C1382.76 377.11 1383.72 377.098 1384.38 377.074C1385.04 377.049 1385.4 377.037 1385.45 377.037C1385.82 377.037 1386 377.159 1386 377.405C1386 377.944 1385.9 378.312 1385.71 378.508C1385.63 378.63 1385.36 378.692 1384.9 378.692C1383.16 378.79 1382.07 379.28 1381.62 380.163C1381.57 380.285 1380.96 382.651 1379.79 387.26C1378.78 391.404 1378.17 393.843 1377.95 394.579C1377.14 397.03 1375.73 399.028 1373.72 400.573C1371.71 402.117 1369.62 402.902 1367.47 402.926C1365.21 402.926 1363.41 402.24 1362.06 400.867C1360.71 399.494 1360.02 397.864 1360 395.976V395.388C1360 394.946 1360.67 392.029 1362.02 386.635C1363.22 381.707 1363.82 379.17 1363.82 379.023C1363.82 378.851 1363.13 378.741 1361.73 378.692Z" fill="black"/>
<path d="M1594 132.012C1595.33 132.004 1596.66 132 1598 132C1697.96 132 1779 153.938 1779 181C1779 208.062 1697.96 230 1598 230C1498.04 230 1417 208.062 1417 181C1417 156.942 1481.05 136.933 1565.5 132.788" stroke="#D35555" stroke-width="4" stroke-linecap="round"/>
<path d="M1725.06 231C1725.43 231 1726.08 231.013 1727.02 231.039C1727.95 231.065 1728.83 231.092 1729.64 231.118C1730.97 231.118 1732.08 231.105 1732.96 231.079C1733.85 231.052 1734.36 231.039 1734.49 231.039C1734.96 231.039 1735.19 231.144 1735.19 231.353C1735.19 231.458 1735.15 231.654 1735.07 231.942C1734.94 232.414 1734.83 232.675 1734.72 232.728C1734.62 232.78 1734.33 232.806 1733.86 232.806C1733.21 232.833 1732.69 232.898 1732.3 233.003C1731.91 233.107 1731.63 233.212 1731.48 233.317C1731.32 233.422 1731.28 233.539 1731.36 233.67C1731.36 233.984 1731.57 237.1 1731.98 243.016C1732.4 248.933 1732.61 252.061 1732.61 252.402L1732.69 252.284C1732.74 252.205 1732.82 252.075 1732.92 251.891C1733.03 251.708 1733.18 251.459 1733.39 251.145C1733.6 250.831 1733.82 250.438 1734.06 249.967C1734.29 249.496 1734.6 248.959 1735 248.357C1735.39 247.755 1735.78 247.048 1736.17 246.236C1736.56 245.425 1737.07 244.548 1737.7 243.605C1740.41 238.788 1741.95 236.04 1742.31 235.359C1742.68 234.678 1742.87 234.259 1742.9 234.102C1742.9 233.71 1742.65 233.395 1742.15 233.16C1741.66 232.924 1741.11 232.806 1740.51 232.806C1740.15 232.806 1739.96 232.675 1739.96 232.414C1739.96 232.335 1739.99 232.165 1740.04 231.903C1740.15 231.484 1740.22 231.236 1740.28 231.157C1740.33 231.079 1740.51 231.039 1740.82 231.039C1740.9 231.039 1741.12 231.039 1741.49 231.039C1741.85 231.039 1742.36 231.039 1743.02 231.039C1743.67 231.039 1744.37 231.052 1745.13 231.079C1746.85 231.079 1747.96 231.052 1748.45 231C1748.82 231 1749 231.144 1749 231.432C1749 231.589 1748.96 231.812 1748.88 232.1C1748.8 232.388 1748.71 232.584 1748.61 232.689C1748.5 232.793 1748.37 232.833 1748.22 232.806C1747.64 232.806 1747.12 232.885 1746.65 233.042C1746.18 233.199 1745.79 233.382 1745.48 233.592C1745.17 233.801 1744.92 234.024 1744.74 234.259C1744.55 234.495 1744.4 234.704 1744.27 234.888L1744.11 235.123L1737.5 246.747C1733.12 254.496 1730.91 258.384 1730.89 258.41C1730.73 258.593 1730.42 258.685 1729.95 258.685C1729.56 258.685 1729.31 258.619 1729.21 258.488C1729.13 258.41 1728.88 255.19 1728.46 248.828C1728.05 242.467 1727.82 239.181 1727.8 238.972L1727.33 239.679C1726.76 240.647 1725.09 243.566 1722.32 248.436C1718.57 255.033 1716.66 258.358 1716.61 258.41C1716.56 258.462 1716.49 258.515 1716.42 258.567C1716.28 258.646 1716.05 258.685 1715.71 258.685C1715.22 258.685 1714.94 258.593 1714.89 258.41C1714.89 258.331 1714.6 254.156 1714.03 245.883C1713.46 237.61 1713.16 233.448 1713.13 233.395C1713.08 233.16 1712.95 233.016 1712.74 232.963C1712.53 232.911 1712.02 232.859 1711.21 232.806H1710.27C1710.09 232.623 1710 232.479 1710 232.374C1710.03 231.772 1710.2 231.314 1710.51 231H1710.98C1712.07 231.079 1713.38 231.118 1714.89 231.118C1718.15 231.118 1719.94 231.079 1720.25 231H1720.64C1720.8 231.157 1720.87 231.275 1720.87 231.353C1720.87 231.432 1720.85 231.668 1720.8 232.06C1720.67 232.453 1720.55 232.702 1720.44 232.806H1719.62C1718.03 232.885 1717.18 233.107 1717.08 233.474C1717.86 245.517 1718.31 251.852 1718.41 252.48L1727.6 236.223L1727.52 234.77C1727.45 233.67 1727.32 233.081 1727.13 233.003C1726.98 232.898 1726.43 232.833 1725.49 232.806C1724.99 232.806 1724.67 232.78 1724.51 232.728C1724.36 232.675 1724.28 232.558 1724.28 232.374C1724.28 232.322 1724.3 232.165 1724.36 231.903C1724.38 231.798 1724.41 231.681 1724.43 231.55C1724.46 231.419 1724.47 231.327 1724.47 231.275C1724.47 231.223 1724.51 231.17 1724.59 231.118C1724.67 231.065 1724.72 231.039 1724.75 231.039C1724.77 231.039 1724.88 231.026 1725.06 231Z" fill="black"/>
</svg>
