<svg width="1723" height="500" viewBox="0 0 1723 500" fill="none" xmlns="http://www.w3.org/2000/svg">
<path d="M653.512 264.741C668.439 146.207 487.541 38.7136 390.892 108.686C315.199 163.486 303.981 280.063 361.067 354.113C434.522 449.395 638.47 384.191 653.512 264.741Z" fill="#D9D9D9" fill-opacity="0.3" stroke="black"/>
<path d="M325.845 260.564C329.157 249.416 413.892 232.547 492.589 235.481C553.887 237.767 650.776 255.268 653.537 264.187" stroke="black" stroke-dasharray="2 2"/>
<path d="M325.845 260.564C325.845 272.547 358.017 269.558 420.26 267.81C454.453 266.849 506.393 293.449 561.054 280.629C615.716 267.81 650.78 276.93 653.537 264.187" stroke="black"/>
<path d="M476.11 159.018C489.138 184.009 470.61 205.518 450.61 209.518C360.579 227.524 370.082 164.027 395.582 141.527C421.082 119.027 463.082 134.027 476.11 159.018Z" fill="#66C8F3" fill-opacity="0.3" stroke="black"/>
<path d="M418.582 165.027C418.582 166.408 417.462 167.527 416.082 167.527C414.701 167.527 413.582 166.408 413.582 165.027C413.582 163.646 414.701 162.527 416.082 162.527C417.462 162.527 418.582 163.646 418.582 165.027Z" fill="black"/>
<path d="M526.088 311.7C526.139 311.623 526.217 311.584 526.32 311.584H526.475H526.727C526.804 311.661 526.843 311.713 526.843 311.739C526.843 311.829 526.649 312.623 526.262 314.12C526.172 314.481 526.081 314.862 525.991 315.262C525.901 315.662 525.823 315.959 525.759 316.152L525.681 316.462C525.681 316.475 525.739 316.481 525.856 316.481C525.972 316.481 526.178 316.52 526.475 316.597C526.772 316.675 527.081 316.784 527.404 316.926C527.972 317.197 528.443 317.591 528.817 318.107C529.191 318.623 529.378 319.249 529.378 319.985C529.378 320.72 529.178 321.424 528.778 322.095C528.378 322.766 527.882 323.321 527.288 323.759C526.694 324.198 526.069 324.546 525.41 324.805C524.752 325.063 524.139 325.198 523.572 325.211H523.494L523.03 327.05C522.952 327.347 522.868 327.702 522.778 328.114C522.675 328.527 522.604 328.773 522.565 328.85C522.526 328.927 522.449 328.973 522.333 328.986H522.217C521.958 328.986 521.829 328.94 521.829 328.85C521.829 328.786 521.971 328.173 522.255 327.011L522.7 325.23C522.7 325.217 522.649 325.211 522.546 325.211C522.481 325.211 522.352 325.198 522.158 325.172C521.965 325.146 521.675 325.056 521.287 324.901C520.9 324.746 520.552 324.553 520.242 324.321C519.932 324.088 519.642 323.746 519.371 323.295C519.1 322.843 518.978 322.314 519.003 321.707C519.003 320.933 519.216 320.204 519.642 319.52C520.068 318.836 520.591 318.281 521.21 317.856C521.829 317.43 522.455 317.094 523.088 316.849C523.72 316.604 524.288 316.481 524.791 316.481C524.855 316.481 524.894 316.455 524.907 316.404L525.488 314.042C525.888 312.507 526.088 311.726 526.088 311.7ZM520.533 322.114C520.533 322.553 520.61 322.933 520.765 323.256C520.92 323.579 521.133 323.824 521.404 323.992C521.675 324.159 521.907 324.275 522.1 324.34C522.294 324.404 522.513 324.456 522.759 324.495H522.894L524.694 317.197C524.643 317.197 524.572 317.204 524.481 317.217C524.391 317.23 524.204 317.281 523.92 317.372C523.636 317.462 523.365 317.565 523.107 317.681C522.849 317.797 522.565 317.985 522.255 318.243C521.946 318.501 521.681 318.798 521.462 319.133C521.229 319.494 521.016 319.927 520.823 320.43C520.629 321.024 520.533 321.585 520.533 322.114ZM527.849 319.559C527.849 319.069 527.746 318.649 527.54 318.301C527.333 317.952 527.075 317.707 526.765 317.565C526.456 317.423 526.204 317.326 526.01 317.275C525.817 317.223 525.662 317.197 525.546 317.197H525.488L524.597 320.817L523.668 324.456C523.668 324.482 523.675 324.495 523.688 324.495C523.791 324.495 523.997 324.456 524.307 324.379C524.617 324.301 524.875 324.211 525.081 324.108C525.636 323.863 526.114 323.521 526.514 323.082C526.914 322.643 527.198 322.191 527.365 321.727C527.533 321.262 527.656 320.849 527.733 320.488C527.811 320.127 527.849 319.817 527.849 319.559Z" fill="black"/>
<path d="M531.527 320.178C531.527 319.288 531.592 318.443 531.721 317.643C531.85 316.843 531.998 316.152 532.166 315.571C532.334 314.991 532.572 314.423 532.882 313.868C533.192 313.313 533.437 312.881 533.618 312.571C533.798 312.261 534.069 311.926 534.431 311.565C534.792 311.203 535.005 310.984 535.069 310.907C535.134 310.829 535.295 310.694 535.553 310.5H535.805H535.882C536.063 310.5 536.153 310.558 536.153 310.674C536.153 310.713 536.044 310.848 535.824 311.081C535.605 311.313 535.34 311.655 535.031 312.107C534.721 312.558 534.405 313.113 534.082 313.771C533.759 314.429 533.489 315.32 533.269 316.442C533.05 317.565 532.94 318.81 532.94 320.178C532.94 321.546 533.05 322.785 533.269 323.895C533.489 325.005 533.753 325.901 534.063 326.585C534.372 327.269 534.689 327.824 535.011 328.25C535.334 328.676 535.605 329.018 535.824 329.276C536.044 329.534 536.153 329.669 536.153 329.682C536.153 329.798 536.056 329.857 535.863 329.857H535.805H535.553L535.011 329.392C533.798 328.295 532.914 326.927 532.359 325.288C531.804 323.65 531.527 321.946 531.527 320.178Z" fill="black"/>
<path d="M538.244 319.423C538.334 318.881 538.683 318.256 539.289 317.546C539.896 316.836 540.644 316.475 541.534 316.462C541.986 316.462 542.399 316.578 542.773 316.81C543.147 317.043 543.425 317.333 543.606 317.681C544.148 316.868 544.799 316.462 545.561 316.462C546.038 316.462 546.451 316.604 546.799 316.888C547.148 317.172 547.328 317.552 547.341 318.03C547.341 318.404 547.251 318.707 547.07 318.939C546.89 319.172 546.716 319.314 546.548 319.365C546.38 319.417 546.232 319.443 546.103 319.443C545.857 319.443 545.657 319.372 545.502 319.23C545.348 319.088 545.27 318.901 545.27 318.668C545.27 318.075 545.593 317.668 546.238 317.449C546.096 317.281 545.838 317.197 545.464 317.197C545.296 317.197 545.173 317.21 545.096 317.236C544.606 317.443 544.244 317.868 544.012 318.514C543.238 321.365 542.851 323.03 542.851 323.508C542.851 323.869 542.954 324.127 543.16 324.282C543.367 324.437 543.593 324.514 543.838 324.514C544.315 324.514 544.786 324.301 545.251 323.875C545.715 323.45 546.032 322.927 546.199 322.308C546.238 322.178 546.277 322.107 546.315 322.095C546.354 322.082 546.457 322.069 546.625 322.056H546.703C546.896 322.056 546.993 322.107 546.993 322.211C546.993 322.224 546.98 322.295 546.954 322.424C546.748 323.159 546.348 323.811 545.754 324.379C545.161 324.946 544.47 325.23 543.683 325.23C542.78 325.23 542.096 324.824 541.631 324.011C541.102 324.811 540.496 325.211 539.812 325.211H539.696C539.063 325.211 538.612 325.043 538.341 324.708C538.07 324.372 537.928 324.017 537.915 323.643C537.915 323.23 538.037 322.895 538.283 322.637C538.528 322.378 538.818 322.249 539.154 322.249C539.708 322.249 539.986 322.52 539.986 323.062C539.986 323.321 539.908 323.546 539.754 323.74C539.599 323.933 539.45 324.063 539.308 324.127C539.166 324.192 539.083 324.224 539.057 324.224L538.999 324.243C538.999 324.256 539.037 324.282 539.115 324.321C539.192 324.359 539.296 324.404 539.425 324.456C539.554 324.508 539.676 324.527 539.792 324.514C540.257 324.514 540.657 324.224 540.992 323.643C541.109 323.437 541.257 322.998 541.438 322.327C541.618 321.656 541.799 320.959 541.98 320.236C542.16 319.514 542.264 319.088 542.289 318.959C542.354 318.61 542.386 318.359 542.386 318.204C542.386 317.843 542.289 317.585 542.096 317.43C541.902 317.275 541.683 317.197 541.438 317.197C540.921 317.197 540.438 317.404 539.986 317.817C539.534 318.23 539.218 318.759 539.037 319.404C539.012 319.52 538.979 319.585 538.941 319.598C538.902 319.61 538.799 319.623 538.631 319.636H538.36C538.283 319.559 538.244 319.488 538.244 319.423Z" fill="black"/>
<path d="M549.471 310.519L549.548 310.5C549.613 310.5 549.677 310.5 549.742 310.5H549.974L550.516 310.965C551.729 312.061 552.613 313.429 553.168 315.068C553.723 316.707 554 318.41 554 320.178C554 321.056 553.935 321.901 553.806 322.714C553.677 323.527 553.529 324.217 553.361 324.785C553.193 325.353 552.955 325.921 552.645 326.489C552.335 327.056 552.09 327.489 551.909 327.785C551.729 328.082 551.464 328.411 551.116 328.773C550.767 329.134 550.561 329.347 550.496 329.411C550.432 329.476 550.284 329.598 550.051 329.779C550.013 329.818 549.987 329.844 549.974 329.857H549.742C549.638 329.857 549.567 329.857 549.529 329.857C549.49 329.857 549.458 329.837 549.432 329.798C549.406 329.76 549.387 329.702 549.374 329.624C549.387 329.611 549.458 329.528 549.587 329.373C551.587 327.295 552.587 324.23 552.587 320.178C552.587 316.126 551.587 313.062 549.587 310.984C549.458 310.829 549.387 310.745 549.374 310.732C549.374 310.629 549.406 310.558 549.471 310.519Z" fill="black"/>
<path d="M421.38 174.753C421.845 174.753 422.213 174.889 422.485 175.161C422.757 175.433 422.893 175.767 422.893 176.164C422.893 176.391 422.712 176.991 422.349 177.966C421.986 178.941 421.811 179.649 421.822 180.091C421.856 180.567 422.009 180.941 422.281 181.213C422.519 181.417 422.763 181.553 423.012 181.621C423.216 181.712 423.392 181.757 423.539 181.757H423.556L424.95 176.13C425.902 172.379 426.384 170.497 426.395 170.486C426.429 170.463 426.52 170.452 426.667 170.452C426.894 170.452 427.007 170.492 427.007 170.571C427.007 170.673 426.548 172.549 425.63 176.198C424.701 179.915 424.236 181.78 424.236 181.791C424.236 181.802 424.27 181.808 424.338 181.808C425.313 181.808 426.236 181.309 427.109 180.312C427.982 179.315 428.424 178.385 428.435 177.524C428.435 177.252 428.39 177.02 428.299 176.827C428.208 176.634 428.106 176.498 427.993 176.419C427.88 176.34 427.778 176.238 427.687 176.113C427.596 175.988 427.551 175.858 427.551 175.722C427.551 175.484 427.647 175.257 427.84 175.042C428.033 174.827 428.271 174.719 428.554 174.719C428.769 174.719 428.968 174.821 429.149 175.025C429.33 175.229 429.421 175.563 429.421 176.028C429.421 176.357 429.359 176.799 429.234 177.354C429.109 177.909 429.007 178.295 428.928 178.51C428.565 179.587 427.925 180.51 427.007 181.281C426.089 182.052 425.165 182.437 424.236 182.437H424.066L423.675 184.018C423.403 185.083 423.267 185.622 423.267 185.633C423.244 185.701 423.131 185.735 422.927 185.735H422.706C422.638 185.667 422.604 185.622 422.604 185.599C422.604 185.542 422.734 185.004 422.995 183.984C423.256 182.964 423.386 182.437 423.386 182.403C423.307 182.392 423.227 182.386 423.148 182.386C421.346 182.137 420.445 181.304 420.445 179.887C420.445 179.49 420.632 178.782 421.006 177.762C421.38 176.742 421.573 176.09 421.584 175.807C421.584 175.796 421.584 175.784 421.584 175.773C421.584 175.671 421.584 175.603 421.584 175.569C421.584 175.535 421.561 175.495 421.516 175.45C421.471 175.405 421.408 175.382 421.329 175.382H421.261C421 175.382 420.762 175.49 420.547 175.705C420.332 175.92 420.162 176.153 420.037 176.402C419.912 176.651 419.816 176.889 419.748 177.116C419.68 177.343 419.635 177.467 419.612 177.49C419.589 177.513 419.499 177.524 419.34 177.524H419.102C419.034 177.456 419 177.405 419 177.371C419 177.235 419.074 176.974 419.221 176.589C419.368 176.204 419.64 175.801 420.037 175.382C420.434 174.963 420.881 174.753 421.38 174.753Z" fill="black"/>
<path d="M431.308 178C431.308 177.218 431.365 176.476 431.478 175.773C431.591 175.07 431.722 174.464 431.869 173.954C432.016 173.444 432.226 172.945 432.498 172.458C432.77 171.971 432.985 171.591 433.144 171.319C433.303 171.047 433.541 170.752 433.858 170.435C434.175 170.118 434.362 169.925 434.419 169.857C434.476 169.789 434.617 169.67 434.844 169.5H435.065H435.133C435.292 169.5 435.371 169.551 435.371 169.653C435.371 169.687 435.275 169.806 435.082 170.01C434.889 170.214 434.657 170.514 434.385 170.911C434.113 171.308 433.835 171.795 433.552 172.373C433.269 172.951 433.031 173.733 432.838 174.719C432.645 175.705 432.549 176.799 432.549 178C432.549 179.201 432.645 180.289 432.838 181.264C433.031 182.239 433.263 183.026 433.535 183.627C433.807 184.228 434.085 184.715 434.368 185.089C434.651 185.463 434.889 185.763 435.082 185.99C435.275 186.217 435.371 186.336 435.371 186.347C435.371 186.449 435.286 186.5 435.116 186.5H435.065H434.844L434.368 186.092C433.303 185.129 432.526 183.927 432.039 182.488C431.552 181.049 431.308 179.553 431.308 178Z" fill="black"/>
<path d="M436.68 177.371C436.68 177.212 436.765 176.94 436.935 176.555C437.105 176.17 437.377 175.767 437.751 175.348C438.125 174.929 438.544 174.725 439.009 174.736C439.474 174.736 439.848 174.866 440.131 175.127C440.414 175.388 440.562 175.75 440.573 176.215C440.55 176.43 440.533 176.549 440.522 176.572C440.522 176.606 440.431 176.867 440.25 177.354C440.069 177.841 439.882 178.391 439.689 179.003C439.496 179.615 439.406 180.102 439.417 180.465C439.417 180.952 439.496 181.292 439.655 181.485C439.814 181.678 440.052 181.78 440.369 181.791C440.63 181.791 440.873 181.729 441.1 181.604C441.327 181.479 441.502 181.349 441.627 181.213C441.752 181.077 441.905 180.89 442.086 180.652C442.086 180.641 442.114 180.527 442.171 180.312C442.228 180.097 442.307 179.762 442.409 179.309C442.511 178.856 442.619 178.436 442.732 178.051C443.163 176.351 443.401 175.461 443.446 175.382C443.593 175.076 443.837 174.923 444.177 174.923C444.324 174.923 444.443 174.963 444.534 175.042C444.625 175.121 444.687 175.189 444.721 175.246C444.755 175.303 444.766 175.354 444.755 175.399C444.755 175.546 444.477 176.736 443.922 178.969C443.367 181.202 443.049 182.426 442.97 182.641C442.653 183.582 442.103 184.33 441.321 184.885C440.539 185.44 439.757 185.724 438.975 185.735C438.465 185.735 438.017 185.61 437.632 185.361C437.247 185.112 437.054 184.738 437.054 184.239C437.054 183.99 437.094 183.78 437.173 183.61C437.252 183.44 437.36 183.315 437.496 183.236C437.632 183.157 437.745 183.1 437.836 183.066C437.927 183.032 438.023 183.015 438.125 183.015C438.624 183.015 438.873 183.253 438.873 183.729C438.873 183.956 438.805 184.154 438.669 184.324C438.533 184.494 438.403 184.607 438.278 184.664C438.153 184.721 438.08 184.749 438.057 184.749L438.006 184.766C438.029 184.823 438.136 184.891 438.329 184.97C438.522 185.049 438.714 185.089 438.907 185.089H439.043C439.236 185.089 439.383 185.078 439.485 185.055C439.859 184.953 440.205 184.738 440.522 184.409C440.839 184.08 441.083 183.729 441.253 183.355C441.423 182.981 441.553 182.664 441.644 182.403C441.735 182.142 441.78 181.972 441.78 181.893L441.678 181.961C441.61 182.006 441.502 182.069 441.355 182.148C441.208 182.227 441.06 182.295 440.913 182.352C440.686 182.409 440.465 182.437 440.25 182.437C439.729 182.437 439.27 182.312 438.873 182.063C438.476 181.814 438.216 181.411 438.091 180.856C438.08 180.777 438.074 180.601 438.074 180.329C438.074 179.683 438.272 178.839 438.669 177.796C439.066 176.753 439.264 176.09 439.264 175.807C439.264 175.796 439.264 175.784 439.264 175.773C439.264 175.671 439.264 175.603 439.264 175.569C439.264 175.535 439.241 175.495 439.196 175.45C439.151 175.405 439.088 175.382 439.009 175.382H438.941C438.68 175.382 438.442 175.49 438.227 175.705C438.012 175.92 437.842 176.153 437.717 176.402C437.592 176.651 437.496 176.889 437.428 177.116C437.36 177.343 437.315 177.467 437.292 177.49C437.269 177.513 437.179 177.524 437.02 177.524H436.782C436.714 177.456 436.68 177.405 436.68 177.371Z" fill="black"/>
<path d="M445.673 169.517L445.741 169.5C445.798 169.5 445.854 169.5 445.911 169.5H446.115L446.591 169.908C447.656 170.871 448.433 172.073 448.92 173.512C449.407 174.951 449.651 176.447 449.651 178C449.651 178.771 449.594 179.513 449.481 180.227C449.368 180.941 449.237 181.547 449.09 182.046C448.943 182.545 448.733 183.043 448.461 183.542C448.189 184.041 447.974 184.42 447.815 184.681C447.656 184.942 447.424 185.231 447.118 185.548C446.812 185.865 446.631 186.052 446.574 186.109C446.517 186.166 446.387 186.273 446.183 186.432C446.149 186.466 446.126 186.489 446.115 186.5H445.911C445.82 186.5 445.758 186.5 445.724 186.5C445.69 186.5 445.662 186.483 445.639 186.449C445.616 186.415 445.599 186.364 445.588 186.296C445.599 186.285 445.662 186.211 445.775 186.075C447.532 184.25 448.41 181.559 448.41 178C448.41 174.441 447.532 171.75 445.775 169.925C445.662 169.789 445.599 169.715 445.588 169.704C445.588 169.613 445.616 169.551 445.673 169.517Z" fill="black"/>
<circle cx="561.5" cy="326" r="2.5" fill="black"/>
<path d="M475.799 199.387C475.452 199.387 475.246 199.381 475.182 199.368C475.118 199.355 475.085 199.284 475.085 199.156C475.085 198.809 475.156 198.596 475.298 198.519C475.323 198.506 476.442 198.5 478.653 198.5C480.864 198.513 482.06 198.532 482.24 198.558C482.96 198.661 483.564 198.841 484.053 199.098C484.541 199.355 484.888 199.651 485.094 199.985C485.3 200.319 485.435 200.596 485.499 200.814C485.563 201.033 485.602 201.251 485.615 201.47C485.615 202.048 485.428 202.588 485.055 203.09C484.683 203.591 484.252 203.977 483.763 204.247C483.275 204.517 482.844 204.735 482.471 204.902C482.099 205.07 481.854 205.153 481.739 205.153L481.874 205.25C482.735 205.738 483.166 206.445 483.166 207.371C483.166 207.512 483.133 207.904 483.069 208.547C483.005 209.19 482.973 209.717 482.973 210.128V210.302C482.973 210.533 482.979 210.713 482.992 210.842C483.005 210.971 483.076 211.086 483.204 211.189C483.333 211.292 483.5 211.35 483.706 211.363C484.066 211.363 484.361 211.221 484.593 210.938C484.824 210.656 484.991 210.353 485.094 210.032C485.158 209.852 485.21 209.743 485.248 209.704C485.287 209.666 485.383 209.646 485.538 209.646C485.795 209.646 485.923 209.723 485.923 209.878C485.923 210.109 485.769 210.476 485.46 210.977C484.972 211.71 484.393 212.076 483.725 212.076H483.551C482.767 212.076 482.118 211.915 481.604 211.594C481.089 211.273 480.807 210.771 480.755 210.09C480.755 209.743 480.852 209.203 481.044 208.47C481.237 207.737 481.334 207.268 481.334 207.062C481.334 206.407 481.057 205.931 480.504 205.635C480.312 205.545 480.151 205.494 480.022 205.481C479.894 205.468 479.437 205.455 478.653 205.442H477.322L476.705 207.949C476.281 209.646 476.069 210.508 476.069 210.533C476.069 210.585 476.075 210.617 476.088 210.63C476.101 210.643 476.146 210.668 476.223 210.707C476.3 210.746 476.41 210.758 476.551 210.746C476.693 210.733 476.905 210.746 477.187 210.784H477.785C477.862 210.887 477.901 210.945 477.901 210.958C477.901 210.971 477.882 211.086 477.843 211.305C477.792 211.472 477.727 211.594 477.65 211.671H477.361C476.898 211.645 476.056 211.633 474.835 211.633C474.398 211.633 473.993 211.633 473.62 211.633C473.247 211.633 472.951 211.633 472.733 211.633C472.514 211.633 472.379 211.639 472.328 211.652C472.109 211.652 472 211.594 472 211.478C472 211.453 472.019 211.363 472.058 211.208C472.122 210.964 472.186 210.829 472.251 210.803C472.302 210.791 472.399 210.784 472.54 210.784H472.656C473.003 210.784 473.388 210.765 473.813 210.726C473.993 210.688 474.115 210.611 474.179 210.495C474.218 210.443 474.681 208.656 475.568 205.134C476.455 201.611 476.898 199.753 476.898 199.561C476.898 199.471 476.532 199.413 475.799 199.387ZM483.513 200.988C483.513 200.576 483.378 200.229 483.108 199.946C482.838 199.663 482.285 199.484 481.449 199.406C481.424 199.406 481.276 199.406 481.006 199.406C480.736 199.406 480.492 199.4 480.273 199.387H479.849C479.244 199.387 478.897 199.451 478.807 199.58C478.795 199.618 478.576 200.473 478.152 202.145C477.727 203.816 477.515 204.671 477.515 204.71C477.515 204.722 477.959 204.729 478.846 204.729C479.849 204.716 480.517 204.671 480.852 204.594C481.674 204.465 482.317 204.086 482.78 203.456C482.986 203.16 483.159 202.775 483.301 202.299C483.442 201.823 483.513 201.386 483.513 200.988Z" fill="black"/>
<path d="M967 263L962 260.113L962 265.887L967 263ZM757 263L757 263.5L962.5 263.5L962.5 263L962.5 262.5L757 262.5L757 263Z" fill="black"/>
<path d="M786.488 234.327C786.376 234.214 786.287 234.141 786.223 234.109C786.158 234.077 786.029 234.053 785.836 234.037C785.643 234.021 785.297 233.996 784.797 233.964H784V232.853H786.561C787.946 232.853 788.727 232.861 788.904 232.877C789.082 232.893 789.219 232.949 789.315 233.046C789.331 233.062 790.177 235.293 791.852 239.738L794.365 246.358L796.877 239.738C798.552 235.293 799.406 233.062 799.438 233.046C799.486 232.949 799.607 232.893 799.801 232.877C799.994 232.861 800.783 232.853 802.168 232.853H804.729V233.964H803.932C803.288 233.98 802.877 234.004 802.7 234.037C802.523 234.069 802.378 234.166 802.265 234.327V247.88C802.362 248.041 802.498 248.138 802.676 248.17C802.853 248.202 803.272 248.227 803.932 248.243H804.729V249.354H804.463C804.125 249.306 802.998 249.282 801.081 249.282C798.971 249.282 797.844 249.306 797.699 249.354H797.433V248.243H798.23C798.907 248.227 799.317 248.202 799.462 248.17C799.607 248.138 799.76 248.041 799.921 247.88V240.971C799.921 239.73 799.921 238.812 799.921 238.216C799.921 237.62 799.921 236.936 799.921 236.163C799.921 235.39 799.921 234.85 799.921 234.544L799.897 234.085C796.144 244.039 794.236 249.072 794.171 249.185C794.107 249.282 793.946 249.33 793.688 249.33C793.43 249.33 793.269 249.282 793.205 249.185C793.189 249.153 792.239 246.664 790.354 241.72L787.552 234.278V234.713C787.535 235.003 787.527 235.51 787.527 236.235C787.527 236.96 787.527 237.604 787.527 238.168C787.527 238.732 787.527 239.593 787.527 240.753L787.552 247.276C787.729 247.856 788.413 248.178 789.605 248.243H790.016V249.354H789.798C789.557 249.306 788.631 249.282 787.02 249.282C785.377 249.282 784.435 249.306 784.193 249.354H784V248.243H784.411C784.926 248.21 785.345 248.13 785.667 248.001C785.989 247.872 786.182 247.768 786.247 247.687C786.311 247.606 786.392 247.47 786.488 247.276V234.327Z" fill="black"/>
<path d="M814.707 247.953C813.805 249.048 812.782 249.596 811.639 249.596H811.47C809.456 249.596 808.297 248.798 807.991 247.204C807.975 247.091 807.959 245.988 807.942 243.894C807.926 242.138 807.918 241.156 807.918 240.946C807.918 240.737 807.87 240.568 807.773 240.439C807.612 240.181 807.129 240.052 806.324 240.052H806.058V239.497C806.058 239.126 806.074 238.941 806.106 238.941L806.372 238.917C806.533 238.901 806.767 238.885 807.073 238.869C807.379 238.853 807.685 238.836 807.991 238.82C808.265 238.804 808.563 238.788 808.885 238.772C809.207 238.756 809.448 238.732 809.609 238.7C809.771 238.667 809.867 238.659 809.899 238.675H809.972V243.048C809.988 246.012 810.012 247.598 810.044 247.808C810.093 248.049 810.205 248.243 810.383 248.388C810.705 248.613 811.188 248.726 811.832 248.726C812.251 248.726 812.629 248.653 812.968 248.508C813.306 248.363 813.564 248.178 813.741 247.953C813.918 247.727 814.079 247.47 814.224 247.18C814.369 246.89 814.466 246.648 814.514 246.455C814.562 246.262 814.594 246.068 814.611 245.875C814.611 245.859 814.611 245.722 814.611 245.464C814.611 245.207 814.619 244.884 814.635 244.498C814.651 244.111 814.651 243.733 814.635 243.362V241.744C814.635 241.003 814.554 240.544 814.393 240.367C814.232 240.189 813.829 240.085 813.185 240.052H812.75V238.941C812.782 238.941 813.395 238.901 814.586 238.82C815.778 238.74 816.415 238.691 816.495 238.675H816.664V242.976C816.664 245.875 816.672 247.349 816.688 247.397C816.737 247.719 816.849 247.929 817.027 248.025C817.204 248.122 817.566 248.194 818.114 248.243H818.549V249.354C818.516 249.354 817.912 249.394 816.737 249.475C815.561 249.555 814.941 249.604 814.876 249.62H814.707V247.953Z" fill="black"/>
<path d="M819.902 248.243H820.24C820.868 248.243 821.246 248.13 821.375 247.904V247.711C821.375 247.566 821.375 247.381 821.375 247.156C821.375 246.93 821.375 246.664 821.375 246.358C821.375 246.052 821.383 245.706 821.399 245.319C821.416 244.933 821.416 244.53 821.399 244.111C821.383 243.693 821.383 243.25 821.399 242.783C821.416 242.315 821.416 241.856 821.399 241.405C821.399 240.81 821.399 240.181 821.399 239.521C821.399 238.861 821.399 238.257 821.399 237.709C821.399 237.161 821.399 236.678 821.399 236.259C821.399 235.841 821.391 235.486 821.375 235.196C821.359 234.906 821.359 234.77 821.375 234.786C821.327 234.48 821.214 234.278 821.037 234.182C820.86 234.085 820.498 234.013 819.95 233.964H819.515V233.409C819.515 233.038 819.531 232.853 819.563 232.853L819.805 232.829C819.966 232.813 820.2 232.796 820.506 232.78C820.812 232.764 821.11 232.748 821.399 232.732C821.673 232.716 821.971 232.7 822.293 232.684C822.616 232.668 822.857 232.643 823.018 232.611C823.179 232.579 823.268 232.571 823.284 232.587H823.356V240.197C823.356 245.303 823.364 247.872 823.381 247.904C823.445 248.033 823.542 248.122 823.671 248.17C824.009 248.219 824.403 248.243 824.854 248.243H825.241V249.354H825.048L824.492 249.33C824.122 249.314 823.727 249.306 823.308 249.306C822.889 249.306 822.583 249.298 822.39 249.282C822.197 249.265 821.891 249.265 821.472 249.282C821.053 249.298 820.651 249.314 820.264 249.33L819.708 249.354H819.515V248.243H819.902Z" fill="black"/>
<path d="M826.256 239.159C827.109 239.094 827.77 238.643 828.237 237.806C828.704 236.968 828.962 235.986 829.01 234.858V234.496H829.976V238.941H833.238V240.052H829.976V243.532C829.992 245.545 830 246.68 830 246.938C830 247.196 830.057 247.453 830.17 247.711C830.395 248.339 830.79 248.653 831.353 248.653C832.062 248.653 832.497 248.082 832.658 246.938C832.674 246.809 832.682 246.439 832.682 245.827V244.981H833.649V245.827V246.117C833.649 247.357 833.31 248.299 832.634 248.943C832.199 249.378 831.635 249.596 830.943 249.596C830.395 249.596 829.92 249.499 829.517 249.306C829.115 249.112 828.809 248.863 828.599 248.557C828.39 248.251 828.237 247.969 828.14 247.711C828.043 247.453 827.987 247.196 827.971 246.938C827.955 246.825 827.947 245.633 827.947 243.362V240.052H826.038V239.159H826.256Z" fill="black"/>
<path d="M836.669 234.641C836.669 234.19 836.813 233.835 837.103 233.578C837.393 233.32 837.748 233.191 838.166 233.191C838.537 233.223 838.859 233.36 839.133 233.602C839.407 233.843 839.544 234.19 839.544 234.641C839.544 235.124 839.407 235.486 839.133 235.728C838.859 235.969 838.521 236.09 838.118 236.09C837.715 236.09 837.377 235.969 837.103 235.728C836.83 235.486 836.685 235.124 836.669 234.641ZM840.969 249.354C840.727 249.306 839.89 249.282 838.456 249.282C838.279 249.282 837.981 249.282 837.562 249.282C837.144 249.282 836.741 249.298 836.354 249.33L835.823 249.354H835.63V248.243H836.016C836.467 248.243 836.862 248.219 837.2 248.17C837.345 248.106 837.434 248.017 837.466 247.904C837.498 247.792 837.514 247.453 837.514 246.89V244.401V242.275C837.514 241.438 837.498 240.906 837.466 240.681C837.434 240.455 837.321 240.302 837.128 240.222C836.902 240.109 836.524 240.053 835.992 240.053H835.726V239.497C835.726 239.126 835.742 238.941 835.775 238.941L836.016 238.917C836.177 238.901 836.403 238.885 836.693 238.869C836.983 238.853 837.273 238.836 837.562 238.82C837.836 238.804 838.126 238.788 838.432 238.772C838.738 238.756 838.972 238.732 839.133 238.7C839.294 238.667 839.382 238.659 839.399 238.675H839.471V247.856C839.552 248.017 839.648 248.114 839.761 248.146C839.874 248.178 840.156 248.21 840.607 248.243H841.162V249.354H840.969Z" fill="black"/>
<path d="M842.588 252.93H842.926C843.554 252.93 843.933 252.817 844.062 252.591V252.398C844.062 252.285 844.062 252.132 844.062 251.939C844.062 251.746 844.062 251.504 844.062 251.214C844.062 250.924 844.07 250.61 844.086 250.272C844.102 249.934 844.102 249.58 844.086 249.209C844.07 248.839 844.07 248.444 844.086 248.025C844.102 247.606 844.102 247.196 844.086 246.793C844.086 246.245 844.086 245.674 844.086 245.078C844.086 244.482 844.086 243.95 844.086 243.483C844.086 243.016 844.086 242.589 844.086 242.203C844.086 241.816 844.078 241.502 844.062 241.26C844.045 241.019 844.045 240.89 844.062 240.874C844.013 240.568 843.901 240.367 843.723 240.27C843.546 240.173 843.184 240.101 842.636 240.052H842.201V239.497C842.201 239.126 842.217 238.941 842.25 238.941L842.491 238.917C842.652 238.901 842.886 238.885 843.192 238.869C843.498 238.853 843.796 238.836 844.086 238.82C844.36 238.804 844.658 238.788 844.98 238.772C845.302 238.756 845.543 238.732 845.704 238.7C845.866 238.667 845.954 238.659 845.97 238.675H846.043V239.304L846.067 239.932L846.26 239.763C847.21 239.054 848.322 238.7 849.594 238.7C850.899 238.7 852.01 239.215 852.928 240.246C853.846 241.277 854.313 242.573 854.33 244.136C854.33 245.762 853.806 247.083 852.759 248.098C851.712 249.112 850.528 249.62 849.208 249.62C848.112 249.62 847.146 249.265 846.308 248.557L846.115 248.388V250.441V251.794C846.115 252.229 846.131 252.495 846.164 252.591C846.196 252.688 846.284 252.777 846.429 252.857C846.768 252.906 847.162 252.93 847.613 252.93H848V254.041H847.806L847.227 254.017C846.856 254.001 846.453 253.993 846.019 253.993C845.584 253.993 845.278 253.985 845.1 253.969C843.442 253.969 842.54 253.993 842.395 254.041H842.201V252.93H842.588ZM851.962 244.087C851.962 242.895 851.688 241.856 851.14 240.971C850.593 240.085 849.908 239.642 849.087 239.642C847.943 239.642 846.953 240.165 846.115 241.212V246.986C846.759 248.146 847.661 248.726 848.821 248.726C849.643 248.726 850.367 248.291 850.995 247.421C851.624 246.552 851.946 245.44 851.962 244.087Z" fill="black"/>
<path d="M856.166 248.243H856.504C857.132 248.243 857.511 248.13 857.639 247.904V247.711C857.639 247.566 857.639 247.381 857.639 247.156C857.639 246.93 857.639 246.664 857.639 246.358C857.639 246.052 857.647 245.706 857.664 245.319C857.68 244.933 857.68 244.53 857.664 244.111C857.647 243.693 857.647 243.25 857.664 242.783C857.68 242.315 857.68 241.856 857.664 241.405C857.664 240.81 857.664 240.181 857.664 239.521C857.664 238.861 857.664 238.257 857.664 237.709C857.664 237.161 857.664 236.678 857.664 236.259C857.664 235.841 857.655 235.486 857.639 235.196C857.623 234.906 857.623 234.77 857.639 234.786C857.591 234.48 857.478 234.278 857.301 234.182C857.124 234.085 856.762 234.013 856.214 233.964H855.779V233.409C855.779 233.038 855.795 232.853 855.827 232.853L856.069 232.829C856.23 232.813 856.464 232.796 856.77 232.78C857.076 232.764 857.374 232.748 857.664 232.732C857.937 232.716 858.235 232.7 858.557 232.684C858.88 232.668 859.121 232.643 859.282 232.611C859.443 232.579 859.532 232.571 859.548 232.587H859.62V240.197C859.62 245.303 859.629 247.872 859.645 247.904C859.709 248.033 859.806 248.122 859.935 248.17C860.273 248.219 860.667 248.243 861.118 248.243H861.505V249.354H861.312L860.756 249.33C860.386 249.314 859.991 249.306 859.572 249.306C859.153 249.306 858.847 249.298 858.654 249.282C858.461 249.265 858.155 249.265 857.736 249.282C857.317 249.298 856.915 249.314 856.528 249.33L855.972 249.354H855.779V248.243H856.166Z" fill="black"/>
<path d="M863.534 250.949C863.889 250.949 864.171 251.061 864.38 251.287C864.589 251.512 864.702 251.802 864.718 252.157C864.718 252.447 864.646 252.68 864.501 252.857C864.356 253.034 864.211 253.155 864.066 253.22C863.953 253.268 864.002 253.316 864.211 253.365C864.324 253.397 864.436 253.413 864.549 253.413C864.871 253.413 865.169 253.34 865.443 253.195C865.717 253.05 865.934 252.881 866.095 252.688C866.256 252.495 866.434 252.237 866.627 251.915C866.82 251.593 866.949 251.343 867.013 251.166C867.078 250.989 867.175 250.731 867.303 250.393L867.714 249.354L865.975 244.933C865.652 244.127 865.29 243.209 864.887 242.179C864.501 241.196 864.267 240.624 864.187 240.463C864.106 240.302 863.977 240.197 863.8 240.149C863.784 240.133 863.768 240.125 863.752 240.125C863.559 240.077 863.204 240.052 862.689 240.052H862.326V238.941H862.496L862.979 238.965C863.285 238.965 863.623 238.973 863.993 238.989C864.364 239.006 864.638 239.014 864.815 239.014C864.928 239.014 865.089 239.014 865.298 239.014C865.507 239.014 865.741 239.006 865.999 238.989C866.256 238.973 866.49 238.965 866.699 238.965C866.909 238.965 867.102 238.965 867.279 238.965L867.497 238.941H867.69V240.052H867.472C866.683 240.052 866.305 240.205 866.337 240.512L868.777 246.648C868.777 246.632 869.148 245.706 869.888 243.87L870.951 241.116V240.898C870.951 240.656 870.871 240.471 870.71 240.342C870.549 240.214 870.404 240.133 870.275 240.101C870.146 240.069 870.033 240.052 869.937 240.052H869.864V238.941H870.009H870.178C870.291 238.941 870.428 238.941 870.589 238.941C870.75 238.941 870.919 238.949 871.096 238.965C871.274 238.981 871.459 238.989 871.652 238.989C871.845 238.989 871.982 238.989 872.063 238.989C872.949 238.989 873.601 238.973 874.02 238.941H874.141V240.052H873.875C872.973 240.133 872.369 240.455 872.063 241.019C872.031 241.051 871.676 241.937 871 243.676C870.323 245.416 869.607 247.236 868.85 249.137C868.093 251.037 867.593 252.165 867.352 252.519C866.595 253.695 865.677 254.283 864.597 254.283C863.889 254.283 863.333 254.065 862.93 253.63C862.528 253.195 862.326 252.704 862.326 252.157C862.326 251.722 862.455 251.416 862.713 251.239C862.971 251.061 863.244 250.965 863.534 250.949Z" fill="black"/>
<path d="M888.081 249.62C886.905 249.62 885.786 249.088 884.723 248.025L884.481 248.46C884.449 248.508 884.409 248.581 884.36 248.678C884.312 248.774 884.264 248.863 884.215 248.943C884.167 249.024 884.135 249.08 884.119 249.112L883.998 249.33L883.515 249.354H883.031V242.154C883.031 237.306 883.023 234.85 883.007 234.786C882.959 234.48 882.846 234.278 882.669 234.182C882.492 234.085 882.129 234.013 881.582 233.964H881.147V233.409C881.147 233.038 881.163 232.853 881.195 232.853L881.437 232.829C881.598 232.813 881.832 232.796 882.138 232.78C882.444 232.764 882.742 232.748 883.031 232.732C883.305 232.716 883.603 232.7 883.925 232.684C884.247 232.668 884.489 232.643 884.65 232.611C884.811 232.579 884.9 232.571 884.916 232.587H884.988V236.235C884.988 238.683 884.996 239.908 885.013 239.908L885.085 239.835C885.133 239.787 885.206 239.73 885.302 239.666C885.399 239.602 885.52 239.521 885.665 239.424C885.81 239.328 885.979 239.247 886.172 239.183C886.366 239.118 886.575 239.038 886.8 238.941C887.026 238.844 887.284 238.78 887.574 238.748C887.863 238.716 888.161 238.691 888.467 238.675C889.724 238.675 890.835 239.183 891.801 240.197C892.768 241.212 893.259 242.525 893.275 244.136C893.275 245.762 892.76 247.083 891.729 248.098C890.698 249.112 889.482 249.62 888.081 249.62ZM885.061 246.986C885.061 247.002 885.101 247.067 885.182 247.18C885.262 247.292 885.335 247.381 885.399 247.445C885.464 247.51 885.544 247.606 885.641 247.735C885.737 247.864 885.834 247.961 885.931 248.025C886.027 248.09 886.148 248.178 886.293 248.291C886.438 248.404 886.575 248.476 886.704 248.508C886.833 248.541 887.002 248.589 887.211 248.653C887.42 248.718 887.614 248.742 887.791 248.726C888.355 248.726 888.902 248.565 889.434 248.243C889.965 247.921 890.36 247.381 890.618 246.624C890.811 246.06 890.908 245.263 890.908 244.232C890.908 243.024 890.811 242.13 890.618 241.55C890.183 240.23 889.281 239.569 887.912 239.569C887.429 239.569 886.937 239.69 886.438 239.932C885.939 240.173 885.528 240.52 885.206 240.971L885.061 241.164V246.986Z" fill="black"/>
<path d="M895.764 250.949C896.118 250.949 896.4 251.061 896.609 251.287C896.819 251.512 896.931 251.802 896.947 252.157C896.947 252.447 896.875 252.68 896.73 252.857C896.585 253.034 896.44 253.155 896.295 253.22C896.182 253.268 896.231 253.316 896.44 253.365C896.553 253.397 896.666 253.413 896.778 253.413C897.101 253.413 897.398 253.34 897.672 253.195C897.946 253.05 898.164 252.881 898.325 252.688C898.486 252.495 898.663 252.237 898.856 251.915C899.049 251.593 899.178 251.343 899.243 251.166C899.307 250.989 899.404 250.731 899.533 250.393L899.943 249.354L898.204 244.933C897.882 244.127 897.519 243.209 897.117 242.179C896.73 241.196 896.497 240.624 896.416 240.463C896.335 240.302 896.207 240.197 896.029 240.149C896.013 240.133 895.997 240.125 895.981 240.125C895.788 240.077 895.433 240.052 894.918 240.052H894.556V238.941H894.725L895.208 238.965C895.514 238.965 895.852 238.973 896.223 238.989C896.593 239.006 896.867 239.014 897.044 239.014C897.157 239.014 897.318 239.014 897.527 239.014C897.737 239.014 897.97 239.006 898.228 238.989C898.486 238.973 898.719 238.965 898.929 238.965C899.138 238.965 899.331 238.965 899.508 238.965L899.726 238.941H899.919V240.052H899.702C898.912 240.052 898.534 240.205 898.566 240.512L901.006 246.648C901.006 246.632 901.377 245.706 902.118 243.87L903.181 241.116V240.898C903.181 240.656 903.1 240.471 902.939 240.342C902.778 240.214 902.633 240.133 902.504 240.101C902.375 240.069 902.263 240.052 902.166 240.052H902.094V238.941H902.239H902.408C902.52 238.941 902.657 238.941 902.818 238.941C902.979 238.941 903.149 238.949 903.326 238.965C903.503 238.981 903.688 238.989 903.881 238.989C904.075 238.989 904.212 238.989 904.292 238.989C905.178 238.989 905.83 238.973 906.249 238.941H906.37V240.052H906.104C905.202 240.133 904.598 240.455 904.292 241.019C904.26 241.051 903.906 241.937 903.229 243.676C902.553 245.416 901.836 247.236 901.079 249.137C900.322 251.037 899.823 252.165 899.581 252.519C898.824 253.695 897.906 254.283 896.827 254.283C896.118 254.283 895.562 254.065 895.16 253.63C894.757 253.195 894.556 252.704 894.556 252.157C894.556 251.722 894.685 251.416 894.942 251.239C895.2 251.061 895.474 250.965 895.764 250.949Z" fill="black"/>
<path d="M920.407 248.315C920.165 248.525 919.811 248.75 919.344 248.992C918.877 249.233 918.385 249.354 917.87 249.354C916.855 249.354 916.042 248.992 915.43 248.267C914.818 247.542 914.504 246.616 914.488 245.488C914.488 243.797 915.108 242.243 916.348 240.826C917.588 239.408 918.965 238.691 920.479 238.675C921.236 238.675 921.937 239.062 922.581 239.835L922.654 239.738C922.686 239.69 922.726 239.642 922.774 239.593C922.823 239.545 922.895 239.481 922.992 239.4C923.089 239.32 923.193 239.263 923.306 239.231C923.419 239.199 923.548 239.175 923.693 239.159C923.918 239.159 924.103 239.231 924.248 239.376C924.393 239.521 924.474 239.674 924.49 239.835C924.49 240.077 924.031 242.026 923.113 245.682C922.195 249.338 921.711 251.206 921.663 251.287C921.373 252.157 920.753 252.873 919.803 253.437C918.852 254.001 917.765 254.291 916.541 254.307C914.27 254.307 913.135 253.759 913.135 252.664C913.135 252.245 913.28 251.875 913.57 251.553C913.859 251.23 914.23 251.069 914.681 251.069C914.922 251.069 915.148 251.142 915.357 251.287C915.567 251.432 915.679 251.681 915.696 252.036C915.696 252.197 915.679 252.35 915.647 252.495C915.615 252.64 915.559 252.753 915.478 252.833C915.398 252.914 915.333 252.994 915.285 253.075C915.237 253.155 915.18 253.22 915.116 253.268L915.067 253.316H915.092C915.253 253.365 915.736 253.389 916.541 253.389C917.153 253.389 917.636 253.292 917.991 253.099C918.361 252.922 918.708 252.656 919.03 252.302C919.352 251.947 919.577 251.569 919.706 251.166C919.803 250.86 919.932 250.361 920.093 249.668C920.302 248.895 920.407 248.444 920.407 248.315ZM922.17 241.43L922.074 241.164C922.025 240.987 921.985 240.866 921.953 240.801C921.921 240.737 921.872 240.624 921.808 240.463C921.744 240.302 921.663 240.189 921.566 240.125C921.47 240.061 921.365 239.972 921.252 239.859C921.14 239.746 920.995 239.674 920.817 239.642C920.64 239.61 920.463 239.585 920.286 239.569C919.577 239.569 918.893 239.996 918.232 240.85C917.749 241.478 917.347 242.436 917.024 243.725C916.702 245.013 916.541 245.947 916.541 246.527C916.541 247.8 917.04 248.436 918.039 248.436C918.941 248.436 919.827 247.872 920.697 246.745L920.89 246.503L922.17 241.43Z" fill="black"/>
<path d="M925.852 235.328C925.852 235.328 925.852 235.254 925.852 235.106C925.852 234.958 925.932 234.844 926.091 234.764H936.015C936.186 234.855 936.272 234.969 936.272 235.106C936.272 235.242 936.186 235.356 936.015 235.447H926.091C925.932 235.368 925.852 235.254 925.852 235.106V235.328Z" fill="black"/>
<path d="M941.345 229.503L941.123 229.589C940.963 229.645 940.735 229.702 940.439 229.759C940.143 229.816 939.813 229.856 939.449 229.879H939.124V229.093H939.449C939.984 229.07 940.479 228.985 940.935 228.837C941.39 228.689 941.709 228.552 941.891 228.427C942.073 228.302 942.233 228.177 942.37 228.051C942.392 228.017 942.461 228 942.575 228C942.677 228 942.774 228.034 942.865 228.102V233.21L942.882 238.334C942.962 238.414 943.03 238.465 943.087 238.488C943.144 238.511 943.281 238.533 943.497 238.556C943.713 238.579 944.066 238.59 944.556 238.59H945V239.376H944.812C944.573 239.342 943.668 239.325 942.096 239.325C940.548 239.325 939.654 239.342 939.415 239.376H939.21V238.59H939.654C939.904 238.59 940.121 238.59 940.303 238.59C940.485 238.59 940.627 238.585 940.73 238.573C940.832 238.562 940.923 238.545 941.003 238.522C941.083 238.499 941.128 238.488 941.14 238.488C941.151 238.488 941.185 238.459 941.242 238.402C941.299 238.345 941.333 238.323 941.345 238.334V229.503Z" fill="black"/>
<path d="M1395.51 264.741C1410.44 146.207 1229.54 38.7136 1132.89 108.686C1057.2 163.486 1045.98 280.063 1103.07 354.113C1176.52 449.395 1380.47 384.191 1395.51 264.741Z" fill="#66C8F3" fill-opacity="0.3" stroke="black"/>
<path d="M1067.84 260.564C1071.16 249.416 1155.89 232.547 1234.59 235.481C1295.89 237.767 1392.78 255.268 1395.54 264.187" stroke="black" stroke-dasharray="2 2"/>
<path d="M1067.84 260.564C1067.84 272.547 1100.02 269.558 1162.26 267.81C1196.45 266.849 1248.39 293.449 1303.05 280.629C1357.72 267.81 1392.78 276.93 1395.54 264.187" stroke="black"/>
<path d="M1218.11 159.018C1231.14 184.009 1212.61 205.518 1192.61 209.518C1102.58 227.524 1112.08 164.027 1137.58 141.527C1163.08 119.027 1205.08 134.027 1218.11 159.018Z" fill="#D9D9D9" fill-opacity="0.5" stroke="black"/>
<path d="M1160.58 165.027C1160.58 166.408 1159.46 167.527 1158.08 167.527C1156.7 167.527 1155.58 166.408 1155.58 165.027C1155.58 163.646 1156.7 162.527 1158.08 162.527C1159.46 162.527 1160.58 163.646 1160.58 165.027Z" fill="black"/>
<path d="M1268.09 311.7C1268.14 311.623 1268.22 311.584 1268.32 311.584H1268.47H1268.73C1268.8 311.661 1268.84 311.713 1268.84 311.739C1268.84 311.829 1268.65 312.623 1268.26 314.12C1268.17 314.481 1268.08 314.862 1267.99 315.262C1267.9 315.662 1267.82 315.959 1267.76 316.152L1267.68 316.462C1267.68 316.475 1267.74 316.481 1267.86 316.481C1267.97 316.481 1268.18 316.52 1268.47 316.597C1268.77 316.675 1269.08 316.784 1269.4 316.926C1269.97 317.197 1270.44 317.591 1270.82 318.107C1271.19 318.623 1271.38 319.249 1271.38 319.985C1271.38 320.72 1271.18 321.424 1270.78 322.095C1270.38 322.766 1269.88 323.321 1269.29 323.759C1268.69 324.198 1268.07 324.546 1267.41 324.805C1266.75 325.063 1266.14 325.198 1265.57 325.211H1265.49L1265.03 327.05C1264.95 327.347 1264.87 327.702 1264.78 328.114C1264.67 328.527 1264.6 328.773 1264.56 328.85C1264.53 328.927 1264.45 328.973 1264.33 328.986H1264.22C1263.96 328.986 1263.83 328.94 1263.83 328.85C1263.83 328.786 1263.97 328.173 1264.26 327.011L1264.7 325.23C1264.7 325.217 1264.65 325.211 1264.55 325.211C1264.48 325.211 1264.35 325.198 1264.16 325.172C1263.96 325.146 1263.67 325.056 1263.29 324.901C1262.9 324.746 1262.55 324.553 1262.24 324.321C1261.93 324.088 1261.64 323.746 1261.37 323.295C1261.1 322.843 1260.98 322.314 1261 321.707C1261 320.933 1261.22 320.204 1261.64 319.52C1262.07 318.836 1262.59 318.281 1263.21 317.856C1263.83 317.43 1264.46 317.094 1265.09 316.849C1265.72 316.604 1266.29 316.481 1266.79 316.481C1266.86 316.481 1266.89 316.455 1266.91 316.404L1267.49 314.042C1267.89 312.507 1268.09 311.726 1268.09 311.7ZM1262.53 322.114C1262.53 322.553 1262.61 322.933 1262.76 323.256C1262.92 323.579 1263.13 323.824 1263.4 323.992C1263.67 324.159 1263.91 324.275 1264.1 324.34C1264.29 324.404 1264.51 324.456 1264.76 324.495H1264.89L1266.69 317.197C1266.64 317.197 1266.57 317.204 1266.48 317.217C1266.39 317.23 1266.2 317.281 1265.92 317.372C1265.64 317.462 1265.37 317.565 1265.11 317.681C1264.85 317.797 1264.56 317.985 1264.26 318.243C1263.95 318.501 1263.68 318.798 1263.46 319.133C1263.23 319.494 1263.02 319.927 1262.82 320.43C1262.63 321.024 1262.53 321.585 1262.53 322.114ZM1269.85 319.559C1269.85 319.069 1269.75 318.649 1269.54 318.301C1269.33 317.952 1269.08 317.707 1268.77 317.565C1268.46 317.423 1268.2 317.326 1268.01 317.275C1267.82 317.223 1267.66 317.197 1267.55 317.197H1267.49L1266.6 320.817L1265.67 324.456C1265.67 324.482 1265.67 324.495 1265.69 324.495C1265.79 324.495 1266 324.456 1266.31 324.379C1266.62 324.301 1266.87 324.211 1267.08 324.108C1267.64 323.863 1268.11 323.521 1268.51 323.082C1268.91 322.643 1269.2 322.191 1269.37 321.727C1269.53 321.262 1269.66 320.849 1269.73 320.488C1269.81 320.127 1269.85 319.817 1269.85 319.559Z" fill="black"/>
<path d="M1273.53 320.178C1273.53 319.288 1273.59 318.443 1273.72 317.643C1273.85 316.843 1274 316.152 1274.17 315.571C1274.33 314.991 1274.57 314.423 1274.88 313.868C1275.19 313.313 1275.44 312.881 1275.62 312.571C1275.8 312.261 1276.07 311.926 1276.43 311.565C1276.79 311.203 1277 310.984 1277.07 310.907C1277.13 310.829 1277.3 310.694 1277.55 310.5H1277.8H1277.88C1278.06 310.5 1278.15 310.558 1278.15 310.674C1278.15 310.713 1278.04 310.848 1277.82 311.081C1277.6 311.313 1277.34 311.655 1277.03 312.107C1276.72 312.558 1276.4 313.113 1276.08 313.771C1275.76 314.429 1275.49 315.32 1275.27 316.442C1275.05 317.565 1274.94 318.81 1274.94 320.178C1274.94 321.546 1275.05 322.785 1275.27 323.895C1275.49 325.005 1275.75 325.901 1276.06 326.585C1276.37 327.269 1276.69 327.824 1277.01 328.25C1277.33 328.676 1277.6 329.018 1277.82 329.276C1278.04 329.534 1278.15 329.669 1278.15 329.682C1278.15 329.798 1278.06 329.857 1277.86 329.857H1277.8H1277.55L1277.01 329.392C1275.8 328.295 1274.91 326.927 1274.36 325.288C1273.8 323.65 1273.53 321.946 1273.53 320.178Z" fill="black"/>
<path d="M1280.24 319.423C1280.33 318.881 1280.68 318.256 1281.29 317.546C1281.9 316.836 1282.64 316.475 1283.53 316.462C1283.99 316.462 1284.4 316.578 1284.77 316.81C1285.15 317.043 1285.42 317.333 1285.61 317.681C1286.15 316.868 1286.8 316.462 1287.56 316.462C1288.04 316.462 1288.45 316.604 1288.8 316.888C1289.15 317.172 1289.33 317.552 1289.34 318.03C1289.34 318.404 1289.25 318.707 1289.07 318.939C1288.89 319.172 1288.72 319.314 1288.55 319.365C1288.38 319.417 1288.23 319.443 1288.1 319.443C1287.86 319.443 1287.66 319.372 1287.5 319.23C1287.35 319.088 1287.27 318.901 1287.27 318.668C1287.27 318.075 1287.59 317.668 1288.24 317.449C1288.1 317.281 1287.84 317.197 1287.46 317.197C1287.3 317.197 1287.17 317.21 1287.1 317.236C1286.61 317.443 1286.24 317.868 1286.01 318.514C1285.24 321.365 1284.85 323.03 1284.85 323.508C1284.85 323.869 1284.95 324.127 1285.16 324.282C1285.37 324.437 1285.59 324.514 1285.84 324.514C1286.32 324.514 1286.79 324.301 1287.25 323.875C1287.72 323.45 1288.03 322.927 1288.2 322.308C1288.24 322.178 1288.28 322.107 1288.32 322.095C1288.35 322.082 1288.46 322.069 1288.63 322.056H1288.7C1288.9 322.056 1288.99 322.107 1288.99 322.211C1288.99 322.224 1288.98 322.295 1288.95 322.424C1288.75 323.159 1288.35 323.811 1287.75 324.379C1287.16 324.946 1286.47 325.23 1285.68 325.23C1284.78 325.23 1284.1 324.824 1283.63 324.011C1283.1 324.811 1282.5 325.211 1281.81 325.211H1281.7C1281.06 325.211 1280.61 325.043 1280.34 324.708C1280.07 324.372 1279.93 324.017 1279.91 323.643C1279.91 323.23 1280.04 322.895 1280.28 322.637C1280.53 322.378 1280.82 322.249 1281.15 322.249C1281.71 322.249 1281.99 322.52 1281.99 323.062C1281.99 323.321 1281.91 323.546 1281.75 323.74C1281.6 323.933 1281.45 324.063 1281.31 324.127C1281.17 324.192 1281.08 324.224 1281.06 324.224L1281 324.243C1281 324.256 1281.04 324.282 1281.11 324.321C1281.19 324.359 1281.3 324.404 1281.42 324.456C1281.55 324.508 1281.68 324.527 1281.79 324.514C1282.26 324.514 1282.66 324.224 1282.99 323.643C1283.11 323.437 1283.26 322.998 1283.44 322.327C1283.62 321.656 1283.8 320.959 1283.98 320.236C1284.16 319.514 1284.26 319.088 1284.29 318.959C1284.35 318.61 1284.39 318.359 1284.39 318.204C1284.39 317.843 1284.29 317.585 1284.1 317.43C1283.9 317.275 1283.68 317.197 1283.44 317.197C1282.92 317.197 1282.44 317.404 1281.99 317.817C1281.53 318.23 1281.22 318.759 1281.04 319.404C1281.01 319.52 1280.98 319.585 1280.94 319.598C1280.9 319.61 1280.8 319.623 1280.63 319.636H1280.36C1280.28 319.559 1280.24 319.488 1280.24 319.423Z" fill="black"/>
<path d="M1291.47 310.519L1291.55 310.5C1291.61 310.5 1291.68 310.5 1291.74 310.5H1291.97L1292.52 310.965C1293.73 312.061 1294.61 313.429 1295.17 315.068C1295.72 316.707 1296 318.41 1296 320.178C1296 321.056 1295.94 321.901 1295.81 322.714C1295.68 323.527 1295.53 324.217 1295.36 324.785C1295.19 325.353 1294.95 325.921 1294.65 326.489C1294.34 327.056 1294.09 327.489 1293.91 327.785C1293.73 328.082 1293.46 328.411 1293.12 328.773C1292.77 329.134 1292.56 329.347 1292.5 329.411C1292.43 329.476 1292.28 329.598 1292.05 329.779C1292.01 329.818 1291.99 329.844 1291.97 329.857H1291.74C1291.64 329.857 1291.57 329.857 1291.53 329.857C1291.49 329.857 1291.46 329.837 1291.43 329.798C1291.41 329.76 1291.39 329.702 1291.37 329.624C1291.39 329.611 1291.46 329.528 1291.59 329.373C1293.59 327.295 1294.59 324.23 1294.59 320.178C1294.59 316.126 1293.59 313.062 1291.59 310.984C1291.46 310.829 1291.39 310.745 1291.37 310.732C1291.37 310.629 1291.41 310.558 1291.47 310.519Z" fill="black"/>
<path d="M1163.38 174.753C1163.84 174.753 1164.21 174.889 1164.49 175.161C1164.76 175.433 1164.89 175.767 1164.89 176.164C1164.89 176.391 1164.71 176.991 1164.35 177.966C1163.99 178.941 1163.81 179.649 1163.82 180.091C1163.86 180.567 1164.01 180.941 1164.28 181.213C1164.52 181.417 1164.76 181.553 1165.01 181.621C1165.22 181.712 1165.39 181.757 1165.54 181.757H1165.56L1166.95 176.13C1167.9 172.379 1168.38 170.497 1168.4 170.486C1168.43 170.463 1168.52 170.452 1168.67 170.452C1168.89 170.452 1169.01 170.492 1169.01 170.571C1169.01 170.673 1168.55 172.549 1167.63 176.198C1166.7 179.915 1166.24 181.78 1166.24 181.791C1166.24 181.802 1166.27 181.808 1166.34 181.808C1167.31 181.808 1168.24 181.309 1169.11 180.312C1169.98 179.315 1170.42 178.385 1170.44 177.524C1170.44 177.252 1170.39 177.02 1170.3 176.827C1170.21 176.634 1170.11 176.498 1169.99 176.419C1169.88 176.34 1169.78 176.238 1169.69 176.113C1169.6 175.988 1169.55 175.858 1169.55 175.722C1169.55 175.484 1169.65 175.257 1169.84 175.042C1170.03 174.827 1170.27 174.719 1170.55 174.719C1170.77 174.719 1170.97 174.821 1171.15 175.025C1171.33 175.229 1171.42 175.563 1171.42 176.028C1171.42 176.357 1171.36 176.799 1171.23 177.354C1171.11 177.909 1171.01 178.295 1170.93 178.51C1170.57 179.587 1169.93 180.51 1169.01 181.281C1168.09 182.052 1167.17 182.437 1166.24 182.437H1166.07L1165.68 184.018C1165.4 185.083 1165.27 185.622 1165.27 185.633C1165.24 185.701 1165.13 185.735 1164.93 185.735H1164.71C1164.64 185.667 1164.6 185.622 1164.6 185.599C1164.6 185.542 1164.73 185.004 1165 183.984C1165.26 182.964 1165.39 182.437 1165.39 182.403C1165.31 182.392 1165.23 182.386 1165.15 182.386C1163.35 182.137 1162.45 181.304 1162.45 179.887C1162.45 179.49 1162.63 178.782 1163.01 177.762C1163.38 176.742 1163.57 176.09 1163.58 175.807C1163.58 175.796 1163.58 175.784 1163.58 175.773C1163.58 175.671 1163.58 175.603 1163.58 175.569C1163.58 175.535 1163.56 175.495 1163.52 175.45C1163.47 175.405 1163.41 175.382 1163.33 175.382H1163.26C1163 175.382 1162.76 175.49 1162.55 175.705C1162.33 175.92 1162.16 176.153 1162.04 176.402C1161.91 176.651 1161.82 176.889 1161.75 177.116C1161.68 177.343 1161.63 177.467 1161.61 177.49C1161.59 177.513 1161.5 177.524 1161.34 177.524H1161.1C1161.03 177.456 1161 177.405 1161 177.371C1161 177.235 1161.07 176.974 1161.22 176.589C1161.37 176.204 1161.64 175.801 1162.04 175.382C1162.43 174.963 1162.88 174.753 1163.38 174.753Z" fill="black"/>
<path d="M1173.31 178C1173.31 177.218 1173.36 176.476 1173.48 175.773C1173.59 175.07 1173.72 174.464 1173.87 173.954C1174.02 173.444 1174.23 172.945 1174.5 172.458C1174.77 171.971 1174.99 171.591 1175.14 171.319C1175.3 171.047 1175.54 170.752 1175.86 170.435C1176.18 170.118 1176.36 169.925 1176.42 169.857C1176.48 169.789 1176.62 169.67 1176.84 169.5H1177.06H1177.13C1177.29 169.5 1177.37 169.551 1177.37 169.653C1177.37 169.687 1177.27 169.806 1177.08 170.01C1176.89 170.214 1176.66 170.514 1176.38 170.911C1176.11 171.308 1175.84 171.795 1175.55 172.373C1175.27 172.951 1175.03 173.733 1174.84 174.719C1174.65 175.705 1174.55 176.799 1174.55 178C1174.55 179.201 1174.65 180.289 1174.84 181.264C1175.03 182.239 1175.26 183.026 1175.53 183.627C1175.81 184.228 1176.08 184.715 1176.37 185.089C1176.65 185.463 1176.89 185.763 1177.08 185.99C1177.27 186.217 1177.37 186.336 1177.37 186.347C1177.37 186.449 1177.29 186.5 1177.12 186.5H1177.06H1176.84L1176.37 186.092C1175.3 185.129 1174.53 183.927 1174.04 182.488C1173.55 181.049 1173.31 179.553 1173.31 178Z" fill="black"/>
<path d="M1178.68 177.371C1178.68 177.212 1178.77 176.94 1178.94 176.555C1179.11 176.17 1179.38 175.767 1179.75 175.348C1180.13 174.929 1180.54 174.725 1181.01 174.736C1181.47 174.736 1181.85 174.866 1182.13 175.127C1182.41 175.388 1182.56 175.75 1182.57 176.215C1182.55 176.43 1182.53 176.549 1182.52 176.572C1182.52 176.606 1182.43 176.867 1182.25 177.354C1182.07 177.841 1181.88 178.391 1181.69 179.003C1181.5 179.615 1181.41 180.102 1181.42 180.465C1181.42 180.952 1181.5 181.292 1181.66 181.485C1181.81 181.678 1182.05 181.78 1182.37 181.791C1182.63 181.791 1182.87 181.729 1183.1 181.604C1183.33 181.479 1183.5 181.349 1183.63 181.213C1183.75 181.077 1183.9 180.89 1184.09 180.652C1184.09 180.641 1184.11 180.527 1184.17 180.312C1184.23 180.097 1184.31 179.762 1184.41 179.309C1184.51 178.856 1184.62 178.436 1184.73 178.051C1185.16 176.351 1185.4 175.461 1185.45 175.382C1185.59 175.076 1185.84 174.923 1186.18 174.923C1186.32 174.923 1186.44 174.963 1186.53 175.042C1186.62 175.121 1186.69 175.189 1186.72 175.246C1186.76 175.303 1186.77 175.354 1186.76 175.399C1186.76 175.546 1186.48 176.736 1185.92 178.969C1185.37 181.202 1185.05 182.426 1184.97 182.641C1184.65 183.582 1184.1 184.33 1183.32 184.885C1182.54 185.44 1181.76 185.724 1180.98 185.735C1180.47 185.735 1180.02 185.61 1179.63 185.361C1179.25 185.112 1179.05 184.738 1179.05 184.239C1179.05 183.99 1179.09 183.78 1179.17 183.61C1179.25 183.44 1179.36 183.315 1179.5 183.236C1179.63 183.157 1179.75 183.1 1179.84 183.066C1179.93 183.032 1180.02 183.015 1180.13 183.015C1180.62 183.015 1180.87 183.253 1180.87 183.729C1180.87 183.956 1180.81 184.154 1180.67 184.324C1180.53 184.494 1180.4 184.607 1180.28 184.664C1180.15 184.721 1180.08 184.749 1180.06 184.749L1180.01 184.766C1180.03 184.823 1180.14 184.891 1180.33 184.97C1180.52 185.049 1180.71 185.089 1180.91 185.089H1181.04C1181.24 185.089 1181.38 185.078 1181.49 185.055C1181.86 184.953 1182.2 184.738 1182.52 184.409C1182.84 184.08 1183.08 183.729 1183.25 183.355C1183.42 182.981 1183.55 182.664 1183.64 182.403C1183.73 182.142 1183.78 181.972 1183.78 181.893L1183.68 181.961C1183.61 182.006 1183.5 182.069 1183.36 182.148C1183.21 182.227 1183.06 182.295 1182.91 182.352C1182.69 182.409 1182.47 182.437 1182.25 182.437C1181.73 182.437 1181.27 182.312 1180.87 182.063C1180.48 181.814 1180.22 181.411 1180.09 180.856C1180.08 180.777 1180.07 180.601 1180.07 180.329C1180.07 179.683 1180.27 178.839 1180.67 177.796C1181.07 176.753 1181.26 176.09 1181.26 175.807C1181.26 175.796 1181.26 175.784 1181.26 175.773C1181.26 175.671 1181.26 175.603 1181.26 175.569C1181.26 175.535 1181.24 175.495 1181.2 175.45C1181.15 175.405 1181.09 175.382 1181.01 175.382H1180.94C1180.68 175.382 1180.44 175.49 1180.23 175.705C1180.01 175.92 1179.84 176.153 1179.72 176.402C1179.59 176.651 1179.5 176.889 1179.43 177.116C1179.36 177.343 1179.31 177.467 1179.29 177.49C1179.27 177.513 1179.18 177.524 1179.02 177.524H1178.78C1178.71 177.456 1178.68 177.405 1178.68 177.371Z" fill="black"/>
<path d="M1187.67 169.517L1187.74 169.5C1187.8 169.5 1187.85 169.5 1187.91 169.5H1188.12L1188.59 169.908C1189.66 170.871 1190.43 172.073 1190.92 173.512C1191.41 174.951 1191.65 176.447 1191.65 178C1191.65 178.771 1191.59 179.513 1191.48 180.227C1191.37 180.941 1191.24 181.547 1191.09 182.046C1190.94 182.545 1190.73 183.043 1190.46 183.542C1190.19 184.041 1189.97 184.42 1189.82 184.681C1189.66 184.942 1189.42 185.231 1189.12 185.548C1188.81 185.865 1188.63 186.052 1188.57 186.109C1188.52 186.166 1188.39 186.273 1188.18 186.432C1188.15 186.466 1188.13 186.489 1188.12 186.5H1187.91C1187.82 186.5 1187.76 186.5 1187.72 186.5C1187.69 186.5 1187.66 186.483 1187.64 186.449C1187.62 186.415 1187.6 186.364 1187.59 186.296C1187.6 186.285 1187.66 186.211 1187.78 186.075C1189.53 184.25 1190.41 181.559 1190.41 178C1190.41 174.441 1189.53 171.75 1187.78 169.925C1187.66 169.789 1187.6 169.715 1187.59 169.704C1187.59 169.613 1187.62 169.551 1187.67 169.517Z" fill="black"/>
<circle cx="1303.5" cy="326" r="2.5" fill="black"/>
<path d="M1217.8 199.387C1217.45 199.387 1217.25 199.381 1217.18 199.368C1217.12 199.355 1217.09 199.284 1217.09 199.156C1217.09 198.809 1217.16 198.596 1217.3 198.519C1217.32 198.506 1218.44 198.5 1220.65 198.5C1222.86 198.513 1224.06 198.532 1224.24 198.558C1224.96 198.661 1225.56 198.841 1226.05 199.098C1226.54 199.355 1226.89 199.651 1227.09 199.985C1227.3 200.319 1227.43 200.596 1227.5 200.814C1227.56 201.033 1227.6 201.251 1227.61 201.47C1227.61 202.048 1227.43 202.588 1227.06 203.09C1226.68 203.591 1226.25 203.977 1225.76 204.247C1225.27 204.517 1224.84 204.735 1224.47 204.902C1224.1 205.07 1223.85 205.153 1223.74 205.153L1223.87 205.25C1224.73 205.738 1225.17 206.445 1225.17 207.371C1225.17 207.512 1225.13 207.904 1225.07 208.547C1225 209.19 1224.97 209.717 1224.97 210.128V210.302C1224.97 210.533 1224.98 210.713 1224.99 210.842C1225 210.971 1225.08 211.086 1225.2 211.189C1225.33 211.292 1225.5 211.35 1225.71 211.363C1226.07 211.363 1226.36 211.221 1226.59 210.938C1226.82 210.656 1226.99 210.353 1227.09 210.032C1227.16 209.852 1227.21 209.743 1227.25 209.704C1227.29 209.666 1227.38 209.646 1227.54 209.646C1227.79 209.646 1227.92 209.723 1227.92 209.878C1227.92 210.109 1227.77 210.476 1227.46 210.977C1226.97 211.71 1226.39 212.076 1225.72 212.076H1225.55C1224.77 212.076 1224.12 211.915 1223.6 211.594C1223.09 211.273 1222.81 210.771 1222.76 210.09C1222.76 209.743 1222.85 209.203 1223.04 208.47C1223.24 207.737 1223.33 207.268 1223.33 207.062C1223.33 206.407 1223.06 205.931 1222.5 205.635C1222.31 205.545 1222.15 205.494 1222.02 205.481C1221.89 205.468 1221.44 205.455 1220.65 205.442H1219.32L1218.71 207.949C1218.28 209.646 1218.07 210.508 1218.07 210.533C1218.07 210.585 1218.08 210.617 1218.09 210.63C1218.1 210.643 1218.15 210.668 1218.22 210.707C1218.3 210.746 1218.41 210.758 1218.55 210.746C1218.69 210.733 1218.9 210.746 1219.19 210.784H1219.79C1219.86 210.887 1219.9 210.945 1219.9 210.958C1219.9 210.971 1219.88 211.086 1219.84 211.305C1219.79 211.472 1219.73 211.594 1219.65 211.671H1219.36C1218.9 211.645 1218.06 211.633 1216.83 211.633C1216.4 211.633 1215.99 211.633 1215.62 211.633C1215.25 211.633 1214.95 211.633 1214.73 211.633C1214.51 211.633 1214.38 211.639 1214.33 211.652C1214.11 211.652 1214 211.594 1214 211.478C1214 211.453 1214.02 211.363 1214.06 211.208C1214.12 210.964 1214.19 210.829 1214.25 210.803C1214.3 210.791 1214.4 210.784 1214.54 210.784H1214.66C1215 210.784 1215.39 210.765 1215.81 210.726C1215.99 210.688 1216.11 210.611 1216.18 210.495C1216.22 210.443 1216.68 208.656 1217.57 205.134C1218.45 201.611 1218.9 199.753 1218.9 199.561C1218.9 199.471 1218.53 199.413 1217.8 199.387ZM1225.51 200.988C1225.51 200.576 1225.38 200.229 1225.11 199.946C1224.84 199.663 1224.28 199.484 1223.45 199.406C1223.42 199.406 1223.28 199.406 1223.01 199.406C1222.74 199.406 1222.49 199.4 1222.27 199.387H1221.85C1221.24 199.387 1220.9 199.451 1220.81 199.58C1220.79 199.618 1220.58 200.473 1220.15 202.145C1219.73 203.816 1219.52 204.671 1219.52 204.71C1219.52 204.722 1219.96 204.729 1220.85 204.729C1221.85 204.716 1222.52 204.671 1222.85 204.594C1223.67 204.465 1224.32 204.086 1224.78 203.456C1224.99 203.16 1225.16 202.775 1225.3 202.299C1225.44 201.823 1225.51 201.386 1225.51 200.988Z" fill="black"/>
</svg>
