<svg width="1171" height="467" viewBox="0 0 1171 467" fill="none" xmlns="http://www.w3.org/2000/svg">
<rect width="1171" height="467" fill="white"/>
<rect x="404.5" y="46.5" width="346" height="346" fill="#EAEAEA" stroke="black"/>
<path d="M369 46V393" stroke="black" stroke-width="2"/>
<path d="M751 428H404" stroke="black" stroke-width="2"/>
<path d="M751 46L404 393" stroke="black" stroke-width="2"/>
<path d="M644.5 326.5L644 326.5L644.5 326.5ZM615 215L615.286 220.766L620.137 217.636L615 215ZM625 418C625.366 418.34 625.367 418.34 625.367 418.339C625.367 418.339 625.368 418.339 625.368 418.338C625.369 418.337 625.371 418.336 625.372 418.334C625.375 418.331 625.38 418.326 625.385 418.32C625.396 418.308 625.411 418.291 625.431 418.268C625.471 418.223 625.529 418.156 625.603 418.067C625.751 417.89 625.966 417.623 626.238 417.26C626.782 416.534 627.553 415.423 628.476 413.873C630.323 410.772 632.774 405.913 635.222 398.851C640.119 384.727 645 361.796 645 326.5L644 326.5C644 361.704 639.131 384.523 634.278 398.524C631.851 405.524 629.427 410.321 627.617 413.361C626.712 414.881 625.96 415.962 625.438 416.66C625.176 417.009 624.972 417.262 624.835 417.426C624.767 417.509 624.715 417.569 624.681 417.607C624.664 417.626 624.651 417.64 624.643 417.649C624.639 417.653 624.637 417.657 624.635 417.658C624.634 417.659 624.634 417.66 624.633 417.66C624.633 417.66 624.633 417.66 624.633 417.66C624.633 417.66 624.634 417.66 625 418ZM645 326.5C645 268.348 624.969 230.214 617.868 218.522L617.013 219.041C624.05 230.627 644 268.582 644 326.5L645 326.5Z" fill="black"/>
<path d="M658.137 311.583C658.046 311.51 658 311.446 658 311.392C658 311.355 659.541 308.164 662.622 301.819C665.704 295.474 667.281 292.264 667.354 292.191C667.409 292.064 667.664 292 668.12 292C668.539 292 668.794 292.064 668.886 292.191C668.94 292.264 670.508 295.474 673.59 301.819C676.671 308.164 678.221 311.355 678.239 311.392C678.239 311.446 678.194 311.51 678.103 311.583H658.137ZM670.609 302.174L667.245 295.282L660.489 309.067L667.217 309.094H673.973C673.973 309.058 672.851 306.751 670.609 302.174Z" fill="black"/>
<path d="M680.337 315.686H680.298C680.118 315.686 680.028 315.615 680.028 315.473C680.028 315.421 680.047 315.318 680.086 315.164C680.137 314.983 680.182 314.88 680.221 314.854C680.26 314.828 680.382 314.809 680.588 314.796C681.697 314.758 682.567 314.422 683.199 313.791C683.328 313.662 684.076 312.85 685.442 311.354C686.809 309.859 687.485 309.098 687.472 309.072C686.067 305.489 685.332 303.665 685.268 303.6C685.152 303.458 684.746 303.381 684.05 303.368H683.508C683.431 303.291 683.392 303.239 683.392 303.213C683.392 303.188 683.405 303.065 683.431 302.846C683.483 302.678 683.547 302.556 683.624 302.479H683.895C684.333 302.504 685.113 302.517 686.235 302.517C686.66 302.517 687.053 302.517 687.414 302.517C687.775 302.517 688.065 302.511 688.285 302.498C688.504 302.485 688.633 302.485 688.671 302.498C688.89 302.498 689 302.569 689 302.711C689 302.724 688.987 302.807 688.961 302.962C688.91 303.155 688.865 303.271 688.826 303.31C688.787 303.349 688.684 303.368 688.517 303.368C688.117 303.407 687.769 303.516 687.472 303.697L688.961 307.448L689.986 306.307C691.34 304.851 692.017 304.045 692.017 303.89C692.017 303.658 691.862 303.497 691.553 303.407C691.488 303.407 691.404 303.394 691.301 303.368C691.108 303.368 691.011 303.297 691.011 303.155C691.011 303.13 691.024 303.026 691.05 302.846C691.101 302.678 691.166 302.556 691.243 302.479H691.475C691.488 302.479 691.649 302.479 691.959 302.479C692.268 302.479 692.616 302.491 693.003 302.517C693.39 302.543 693.654 302.549 693.796 302.537C694.956 302.537 695.594 302.517 695.71 302.479H695.865C695.955 302.569 696 302.64 696 302.691C695.974 303.014 695.897 303.239 695.768 303.368H695.459C695.02 303.381 694.627 303.439 694.279 303.542C693.931 303.645 693.667 303.755 693.486 303.871C693.306 303.987 693.151 304.103 693.022 304.219L692.809 304.393C692.809 304.38 692.197 305.05 690.972 306.404L689.29 308.26C689.29 308.273 689.49 308.789 689.89 309.807C690.289 310.826 690.708 311.87 691.146 312.94C691.585 314.01 691.823 314.564 691.862 314.603C691.991 314.719 692.384 314.783 693.041 314.796C693.493 314.796 693.718 314.854 693.718 314.97C693.718 314.996 693.705 315.086 693.68 315.241C693.628 315.447 693.583 315.57 693.544 315.608C693.506 315.647 693.415 315.666 693.273 315.666C693.235 315.666 693.022 315.666 692.635 315.666C692.249 315.666 691.675 315.66 690.914 315.647C690.128 315.647 689.529 315.647 689.116 315.647C688.704 315.647 688.478 315.653 688.439 315.666C688.22 315.666 688.111 315.608 688.111 315.492C688.111 315.479 688.123 315.383 688.149 315.202C688.175 315.073 688.201 314.983 688.227 314.932C688.252 314.88 688.285 314.848 688.323 314.835C688.362 314.822 688.42 314.809 688.497 314.796C688.575 314.783 688.678 314.777 688.807 314.777C688.936 314.777 689.103 314.732 689.309 314.641C689.529 314.538 689.638 314.474 689.638 314.448C689.625 314.448 689.322 313.694 688.729 312.186L687.82 309.904C685.397 312.534 684.153 313.92 684.088 314.061C684.037 314.165 684.011 314.242 684.011 314.293C684.011 314.538 684.198 314.699 684.572 314.777C684.585 314.777 684.623 314.777 684.688 314.777C684.752 314.777 684.791 314.783 684.804 314.796C684.843 314.796 684.868 314.796 684.881 314.796C684.894 314.796 684.914 314.803 684.939 314.816C684.965 314.828 684.984 314.848 684.997 314.874C685.01 314.899 685.017 314.944 685.017 315.009C685.017 315.125 685.004 315.228 684.978 315.318C684.939 315.486 684.901 315.583 684.862 315.608C684.823 315.634 684.727 315.653 684.572 315.666C684.533 315.666 684.417 315.666 684.224 315.666C684.03 315.666 683.76 315.66 683.412 315.647C683.064 315.634 682.683 315.634 682.271 315.647C681.265 315.647 680.621 315.66 680.337 315.686Z" fill="black"/>
<path d="M728.446 455.018H728.39C728.13 455.018 728 454.916 728 454.712C728 454.638 728.028 454.489 728.084 454.266C728.158 454.006 728.223 453.858 728.278 453.821C728.334 453.784 728.51 453.756 728.808 453.737C730.404 453.682 731.657 453.199 732.567 452.289C732.752 452.104 733.829 450.934 735.797 448.781C737.764 446.628 738.739 445.532 738.72 445.495C736.697 440.335 735.639 437.708 735.546 437.615C735.379 437.411 734.794 437.299 733.792 437.281H733.012C732.901 437.169 732.845 437.095 732.845 437.058C732.845 437.021 732.864 436.845 732.901 436.529C732.975 436.288 733.068 436.111 733.179 436H733.569C734.2 436.037 735.323 436.056 736.938 436.056C737.551 436.056 738.117 436.056 738.637 436.056C739.157 436.056 739.574 436.046 739.89 436.028C740.205 436.009 740.391 436.009 740.447 436.028C740.762 436.028 740.92 436.13 740.92 436.334C740.92 436.353 740.902 436.473 740.864 436.696C740.79 436.975 740.725 437.142 740.669 437.197C740.614 437.253 740.465 437.281 740.224 437.281C739.649 437.337 739.147 437.494 738.72 437.754L740.864 443.156L742.34 441.513C744.289 439.416 745.264 438.255 745.264 438.033C745.264 437.699 745.041 437.467 744.596 437.337C744.503 437.337 744.382 437.318 744.234 437.281C743.955 437.281 743.816 437.179 743.816 436.975C743.816 436.937 743.835 436.789 743.872 436.529C743.946 436.288 744.039 436.111 744.15 436H744.484C744.503 436 744.735 436 745.18 436C745.626 436 746.127 436.019 746.684 436.056C747.241 436.093 747.621 436.102 747.826 436.084C749.496 436.084 750.415 436.056 750.582 436H750.805C750.935 436.13 751 436.232 751 436.306C750.963 436.77 750.851 437.095 750.666 437.281H750.22C749.589 437.299 749.023 437.383 748.522 437.531C748.021 437.68 747.64 437.838 747.38 438.005C747.12 438.172 746.897 438.339 746.712 438.506L746.406 438.757C746.406 438.738 745.524 439.703 743.76 441.653L741.338 444.326C741.338 444.344 741.626 445.087 742.201 446.553C742.776 448.02 743.38 449.523 744.011 451.064C744.642 452.605 744.985 453.403 745.041 453.459C745.227 453.626 745.793 453.719 746.74 453.737C747.389 453.737 747.714 453.821 747.714 453.988C747.714 454.025 747.696 454.155 747.659 454.378C747.584 454.675 747.519 454.851 747.464 454.907C747.408 454.962 747.278 454.99 747.074 454.99C747.018 454.99 746.712 454.99 746.155 454.99C745.598 454.99 744.772 454.981 743.677 454.962C742.544 454.962 741.681 454.962 741.087 454.962C740.493 454.962 740.168 454.972 740.113 454.99C739.797 454.99 739.639 454.907 739.639 454.74C739.639 454.721 739.658 454.582 739.695 454.322C739.732 454.136 739.769 454.006 739.806 453.932C739.843 453.858 739.89 453.812 739.946 453.793C740.001 453.774 740.085 453.756 740.196 453.737C740.308 453.719 740.456 453.709 740.642 453.709C740.827 453.709 741.069 453.644 741.366 453.515C741.681 453.366 741.839 453.273 741.839 453.236C741.82 453.236 741.384 452.15 740.53 449.978L739.222 446.692C735.732 450.479 733.94 452.475 733.847 452.679C733.773 452.828 733.736 452.939 733.736 453.013C733.736 453.366 734.005 453.598 734.544 453.709C734.562 453.709 734.618 453.709 734.711 453.709C734.803 453.709 734.859 453.719 734.878 453.737C734.933 453.737 734.971 453.737 734.989 453.737C735.008 453.737 735.036 453.747 735.073 453.765C735.11 453.784 735.138 453.812 735.156 453.849C735.175 453.886 735.184 453.951 735.184 454.044C735.184 454.211 735.165 454.359 735.128 454.489C735.073 454.73 735.017 454.87 734.961 454.907C734.906 454.944 734.766 454.972 734.544 454.99C734.488 454.99 734.321 454.99 734.042 454.99C733.764 454.99 733.374 454.981 732.873 454.962C732.372 454.944 731.824 454.944 731.23 454.962C729.782 454.962 728.854 454.981 728.446 455.018Z" fill="black"/>
<path d="M334.446 65.0182H334.39C334.13 65.0182 334 64.9161 334 64.7119C334 64.6376 334.028 64.4891 334.084 64.2663C334.158 64.0065 334.223 63.8579 334.278 63.8208C334.334 63.7837 334.51 63.7558 334.808 63.7373C336.404 63.6816 337.657 63.1989 338.567 62.2893C338.752 62.1037 339.829 60.9342 341.797 58.7809C343.764 56.6275 344.739 55.5323 344.72 55.4952C342.697 50.3345 341.639 47.7078 341.546 47.615C341.379 47.4108 340.794 47.2994 339.792 47.2809H339.012C338.901 47.1695 338.845 47.0952 338.845 47.0581C338.845 47.021 338.864 46.8446 338.901 46.5291C338.975 46.2877 339.068 46.1114 339.179 46H339.569C340.2 46.0371 341.323 46.0557 342.938 46.0557C343.551 46.0557 344.117 46.0557 344.637 46.0557C345.157 46.0557 345.574 46.0464 345.89 46.0278C346.205 46.0093 346.391 46.0093 346.447 46.0278C346.762 46.0278 346.92 46.1299 346.92 46.3341C346.92 46.3527 346.902 46.4734 346.864 46.6961C346.79 46.9746 346.725 47.1416 346.669 47.1973C346.614 47.253 346.465 47.2809 346.224 47.2809C345.649 47.3366 345.147 47.4943 344.72 47.7542L346.864 53.1562L348.34 51.5133C350.289 49.4157 351.264 48.2554 351.264 48.0327C351.264 47.6985 351.041 47.4665 350.596 47.3366C350.503 47.3366 350.382 47.318 350.234 47.2809C349.955 47.2809 349.816 47.1788 349.816 46.9746C349.816 46.9374 349.835 46.7889 349.872 46.5291C349.946 46.2877 350.039 46.1114 350.15 46H350.484C350.503 46 350.735 46 351.18 46C351.626 46 352.127 46.0186 352.684 46.0557C353.241 46.0928 353.621 46.1021 353.826 46.0835C355.496 46.0835 356.415 46.0557 356.582 46H356.805C356.935 46.1299 357 46.232 357 46.3063C356.963 46.7704 356.851 47.0952 356.666 47.2809H356.22C355.589 47.2994 355.023 47.383 354.522 47.5315C354.021 47.68 353.64 47.8378 353.38 48.0048C353.12 48.1719 352.897 48.339 352.712 48.506L352.406 48.7567C352.406 48.7381 351.524 49.7034 349.76 51.6525L347.338 54.3257C347.338 54.3442 347.626 55.0868 348.201 56.5533C348.776 58.0198 349.38 59.5234 350.011 61.0642C350.642 62.6049 350.985 63.4031 351.041 63.4588C351.227 63.6259 351.793 63.7187 352.74 63.7373C353.389 63.7373 353.714 63.8208 353.714 63.9879C353.714 64.025 353.696 64.155 353.659 64.3777C353.584 64.6747 353.519 64.8511 353.464 64.9068C353.408 64.9625 353.278 64.9903 353.074 64.9903C353.018 64.9903 352.712 64.9903 352.155 64.9903C351.598 64.9903 350.772 64.981 349.677 64.9625C348.544 64.9625 347.681 64.9625 347.087 64.9625C346.493 64.9625 346.168 64.9717 346.113 64.9903C345.797 64.9903 345.639 64.9068 345.639 64.7397C345.639 64.7211 345.658 64.5819 345.695 64.322C345.732 64.1364 345.769 64.0065 345.806 63.9322C345.843 63.8579 345.89 63.8115 345.946 63.793C346.001 63.7744 346.085 63.7558 346.196 63.7373C346.308 63.7187 346.456 63.7094 346.642 63.7094C346.827 63.7094 347.069 63.6445 347.366 63.5145C347.681 63.366 347.839 63.2732 347.839 63.2361C347.82 63.2361 347.384 62.1501 346.53 59.9782L345.222 56.6925C341.732 60.4794 339.94 62.475 339.847 62.6792C339.773 62.8277 339.736 62.9391 339.736 63.0133C339.736 63.366 340.005 63.5981 340.544 63.7094C340.562 63.7094 340.618 63.7094 340.711 63.7094C340.803 63.7094 340.859 63.7187 340.878 63.7373C340.933 63.7373 340.971 63.7373 340.989 63.7373C341.008 63.7373 341.036 63.7466 341.073 63.7651C341.11 63.7837 341.138 63.8115 341.156 63.8487C341.175 63.8858 341.184 63.9508 341.184 64.0436C341.184 64.2107 341.165 64.3592 341.128 64.4891C341.073 64.7304 341.017 64.8697 340.961 64.9068C340.906 64.9439 340.766 64.9717 340.544 64.9903C340.488 64.9903 340.321 64.9903 340.042 64.9903C339.764 64.9903 339.374 64.981 338.873 64.9625C338.372 64.9439 337.824 64.9439 337.23 64.9625C335.782 64.9625 334.854 64.981 334.446 65.0182Z" fill="black"/>
<path d="M666.445 38H666.389C666.13 38 666 37.898 666 37.694C666 37.6198 666.028 37.4714 666.083 37.2489C666.158 36.9893 666.223 36.8409 666.278 36.8038C666.334 36.7667 666.51 36.7389 666.807 36.7204C668.402 36.6647 669.653 36.1825 670.562 35.2738C670.748 35.0883 671.823 33.92 673.789 31.7687C675.755 29.6174 676.729 28.5232 676.71 28.4861C674.689 23.3304 673.632 20.7062 673.539 20.6135C673.372 20.4095 672.788 20.2982 671.786 20.2797H671.007C670.896 20.1684 670.84 20.0942 670.84 20.0571C670.84 20.02 670.859 19.8438 670.896 19.5286C670.97 19.2875 671.063 19.1113 671.174 19H671.564C672.194 19.0371 673.316 19.0556 674.93 19.0556C675.542 19.0556 676.107 19.0556 676.627 19.0556C677.146 19.0556 677.563 19.0464 677.878 19.0278C678.194 19.0093 678.379 19.0093 678.435 19.0278C678.75 19.0278 678.908 19.1298 678.908 19.3338C678.908 19.3524 678.889 19.4729 678.852 19.6955C678.778 19.9736 678.713 20.1406 678.657 20.1962C678.602 20.2518 678.453 20.2797 678.212 20.2797C677.637 20.3353 677.137 20.4929 676.71 20.7526L678.852 26.1493L680.326 24.5081C682.274 22.4124 683.247 21.2533 683.247 21.0307C683.247 20.6969 683.025 20.4651 682.58 20.3353C682.487 20.3353 682.367 20.3167 682.218 20.2797C681.94 20.2797 681.801 20.1777 681.801 19.9736C681.801 19.9366 681.819 19.7882 681.857 19.5286C681.931 19.2875 682.023 19.1113 682.135 19H682.469C682.487 19 682.719 19 683.164 19C683.609 19 684.11 19.0185 684.666 19.0556C685.223 19.0927 685.603 19.102 685.807 19.0835C687.476 19.0835 688.394 19.0556 688.561 19H688.783C688.913 19.1298 688.978 19.2318 688.978 19.306C688.941 19.7696 688.83 20.0942 688.644 20.2797H688.199C687.569 20.2982 687.003 20.3817 686.502 20.53C686.001 20.6784 685.621 20.836 685.362 21.0029C685.102 21.1698 684.879 21.3368 684.694 21.5037L684.388 21.754C684.388 21.7355 683.507 22.6999 681.745 24.6471L679.325 27.3177C679.325 27.3363 679.612 28.0781 680.187 29.5432C680.762 31.0083 681.365 32.5105 681.996 34.0498C682.626 35.5891 682.969 36.3865 683.025 36.4422C683.21 36.6091 683.776 36.7018 684.722 36.7204C685.371 36.7204 685.695 36.8038 685.695 36.9707C685.695 37.0078 685.677 37.1376 685.64 37.3602C685.566 37.6569 685.501 37.8331 685.445 37.8887C685.389 37.9444 685.26 37.9722 685.056 37.9722C685 37.9722 684.694 37.9722 684.138 37.9722C683.581 37.9722 682.756 37.9629 681.662 37.9444C680.53 37.9444 679.668 37.9444 679.075 37.9444C678.481 37.9444 678.157 37.9536 678.101 37.9722C677.786 37.9722 677.628 37.8887 677.628 37.7218C677.628 37.7033 677.647 37.5642 677.684 37.3045C677.721 37.1191 677.758 36.9893 677.795 36.9151C677.832 36.8409 677.878 36.7945 677.934 36.776C677.99 36.7574 678.073 36.7389 678.184 36.7204C678.296 36.7018 678.444 36.6925 678.63 36.6925C678.815 36.6925 679.056 36.6276 679.353 36.4978C679.668 36.3494 679.826 36.2567 679.826 36.2196C679.807 36.2196 679.371 35.1347 678.518 32.9649L677.211 29.6823C673.724 33.4656 671.935 35.4592 671.842 35.6633C671.768 35.8116 671.731 35.9229 671.731 35.9971C671.731 36.3494 672 36.5813 672.537 36.6925C672.556 36.6925 672.612 36.6925 672.704 36.6925C672.797 36.6925 672.853 36.7018 672.871 36.7204C672.927 36.7204 672.964 36.7204 672.982 36.7204C673.001 36.7204 673.029 36.7296 673.066 36.7482C673.103 36.7667 673.131 36.7945 673.149 36.8316C673.168 36.8687 673.177 36.9336 673.177 37.0264C673.177 37.1933 673.159 37.3416 673.122 37.4714C673.066 37.7125 673.01 37.8516 672.955 37.8887C672.899 37.9258 672.76 37.9536 672.537 37.9722C672.482 37.9722 672.315 37.9722 672.037 37.9722C671.758 37.9722 671.369 37.9629 670.868 37.9444C670.367 37.9258 669.82 37.9258 669.227 37.9444C667.78 37.9444 666.853 37.9629 666.445 38Z" fill="black"/>
<path d="M712.017 37.1933C712.017 37.5642 711.823 37.7496 711.433 37.7496C711.34 37.7496 711.136 37.6013 710.821 37.3045C710.506 37.0078 709.634 36.1454 708.206 34.7174L705.313 31.8243L702.392 34.7452C700.426 36.674 699.416 37.6569 699.36 37.694C699.286 37.7311 699.221 37.7496 699.165 37.7496C699.017 37.7496 698.887 37.694 698.776 37.5827C698.664 37.4714 698.6 37.3416 698.581 37.1933C698.581 37.0634 698.711 36.8594 698.97 36.5813C699.23 36.3031 700.102 35.4222 701.585 33.9385L704.478 31.0454L701.585 28.1523C700.083 26.6501 699.212 25.7692 698.97 25.5095C698.729 25.2499 698.6 25.0459 698.581 24.8975C698.581 24.7306 698.637 24.6008 698.748 24.5081C698.859 24.4153 698.998 24.369 699.165 24.369C699.258 24.369 699.323 24.3782 699.36 24.3968C699.416 24.4339 700.426 25.4168 702.392 27.3455L705.313 30.2665L708.206 27.3734C709.634 25.9453 710.506 25.083 710.821 24.7862C711.136 24.4895 711.34 24.3411 711.433 24.3411C711.823 24.3411 712.017 24.5266 712.017 24.8975C712.017 25.0273 711.925 25.1942 711.739 25.3982C711.554 25.6022 710.645 26.511 709.013 28.1245L706.12 31.0454L709.013 33.9663C710.571 35.5242 711.461 36.4236 711.683 36.6647C711.906 36.9058 712.017 37.082 712.017 37.1933Z" fill="black"/>
<path d="M723.484 38H723.428C723.169 38 723.039 37.898 723.039 37.694C723.039 37.6198 723.067 37.4714 723.122 37.2489C723.197 36.9893 723.261 36.8409 723.317 36.8038C723.373 36.7667 723.549 36.7389 723.846 36.7204C725.441 36.6647 726.692 36.1825 727.601 35.2738C727.787 35.0883 728.862 33.92 730.828 31.7687C732.794 29.6174 733.768 28.5232 733.749 28.4861C731.728 23.3304 730.67 20.7062 730.578 20.6135C730.411 20.4095 729.827 20.2982 728.825 20.2797H728.046C727.935 20.1684 727.879 20.0942 727.879 20.0571C727.879 20.02 727.898 19.8438 727.935 19.5286C728.009 19.2875 728.102 19.1113 728.213 19H728.603C729.233 19.0371 730.355 19.0556 731.969 19.0556C732.581 19.0556 733.146 19.0556 733.666 19.0556C734.185 19.0556 734.602 19.0464 734.917 19.0278C735.233 19.0093 735.418 19.0093 735.474 19.0278C735.789 19.0278 735.947 19.1298 735.947 19.3338C735.947 19.3524 735.928 19.4729 735.891 19.6955C735.817 19.9736 735.752 20.1406 735.696 20.1962C735.641 20.2518 735.492 20.2797 735.251 20.2797C734.676 20.3353 734.176 20.4929 733.749 20.7526L735.891 26.1493L737.365 24.5081C739.313 22.4124 740.286 21.2533 740.286 21.0307C740.286 20.6969 740.064 20.4651 739.619 20.3353C739.526 20.3353 739.405 20.3167 739.257 20.2797C738.979 20.2797 738.84 20.1777 738.84 19.9736C738.84 19.9366 738.858 19.7882 738.895 19.5286C738.97 19.2875 739.062 19.1113 739.174 19H739.507C739.526 19 739.758 19 740.203 19C740.648 19 741.149 19.0185 741.705 19.0556C742.261 19.0927 742.642 19.102 742.846 19.0835C744.515 19.0835 745.433 19.0556 745.6 19H745.822C745.952 19.1298 746.017 19.2318 746.017 19.306C745.98 19.7696 745.869 20.0942 745.683 20.2797H745.238C744.607 20.2982 744.042 20.3817 743.541 20.53C743.04 20.6784 742.66 20.836 742.401 21.0029C742.141 21.1698 741.918 21.3368 741.733 21.5037L741.427 21.754C741.427 21.7355 740.546 22.6999 738.784 24.6471L736.364 27.3177C736.364 27.3363 736.651 28.0781 737.226 29.5432C737.801 31.0083 738.404 32.5105 739.035 34.0498C739.665 35.5891 740.008 36.3865 740.064 36.4422C740.249 36.6091 740.815 36.7018 741.761 36.7204C742.41 36.7204 742.734 36.8038 742.734 36.9707C742.734 37.0078 742.716 37.1376 742.679 37.3602C742.605 37.6569 742.54 37.8331 742.484 37.8887C742.428 37.9444 742.299 37.9722 742.095 37.9722C742.039 37.9722 741.733 37.9722 741.177 37.9722C740.62 37.9722 739.795 37.9629 738.701 37.9444C737.569 37.9444 736.707 37.9444 736.114 37.9444C735.52 37.9444 735.196 37.9536 735.14 37.9722C734.825 37.9722 734.667 37.8887 734.667 37.7218C734.667 37.7033 734.686 37.5642 734.723 37.3045C734.76 37.1191 734.797 36.9893 734.834 36.9151C734.871 36.8409 734.917 36.7945 734.973 36.776C735.029 36.7574 735.112 36.7389 735.223 36.7204C735.335 36.7018 735.483 36.6925 735.668 36.6925C735.854 36.6925 736.095 36.6276 736.392 36.4978C736.707 36.3494 736.865 36.2567 736.865 36.2196C736.846 36.2196 736.41 35.1347 735.557 32.9649L734.25 29.6823C730.763 33.4656 728.974 35.4592 728.881 35.6633C728.807 35.8116 728.77 35.9229 728.77 35.9971C728.77 36.3494 729.038 36.5813 729.576 36.6925C729.595 36.6925 729.65 36.6925 729.743 36.6925C729.836 36.6925 729.892 36.7018 729.91 36.7204C729.966 36.7204 730.003 36.7204 730.021 36.7204C730.04 36.7204 730.068 36.7296 730.105 36.7482C730.142 36.7667 730.17 36.7945 730.188 36.8316C730.207 36.8687 730.216 36.9336 730.216 37.0264C730.216 37.1933 730.198 37.3416 730.16 37.4714C730.105 37.7125 730.049 37.8516 729.994 37.8887C729.938 37.9258 729.799 37.9536 729.576 37.9722C729.521 37.9722 729.354 37.9722 729.076 37.9722C728.797 37.9722 728.408 37.9629 727.907 37.9444C727.406 37.9258 726.859 37.9258 726.266 37.9444C724.819 37.9444 723.892 37.9629 723.484 38Z" fill="black"/>
</svg>
