<svg width="1771" height="637" viewBox="0 0 1771 637" fill="none" xmlns="http://www.w3.org/2000/svg">
<path d="M309 617C355.227 469.036 598.468 477.745 637.08 363.145C690.515 204.557 528.576 113.073 564.53 19" stroke="#8C76EC" stroke-width="4" stroke-linecap="round"/>
<path d="M658.714 269.583C709.11 271.713 754.728 279.562 785.915 291.468C817.101 303.375 831.409 318.405 825.811 333.378C820.212 348.351 795.147 362.092 755.919 371.694C716.69 381.295 666.377 386.003 615.627 384.821C564.876 383.64 517.671 376.661 483.999 365.363C450.327 354.064 432.832 339.333 435.215 324.285C437.598 309.237 459.673 295.054 496.768 284.737C533.863 274.42 583.068 268.778 633.969 269.007" stroke="black" stroke-width="4" stroke-linecap="round"/>
<path d="M461.681 271.915C461.638 271.979 461.488 273.278 461.23 275.812C460.972 278.346 460.822 279.656 460.779 279.742V279.871H451.534C446.81 279.871 444.061 279.871 443.288 279.871C442.515 279.871 442.107 279.817 442.064 279.71V279.678C442 279.549 442 279.431 442.064 279.323L442.58 278.711C442.923 278.325 443.439 277.745 444.126 276.972C444.813 276.199 445.468 275.458 446.091 274.749L450.053 270.24L442.032 259.127L442 258.676C442 258.268 442.054 258.021 442.161 257.935C442.225 257.892 445.35 257.871 451.534 257.871H460.779V258C460.822 258.107 460.972 259.342 461.23 261.704C461.488 264.066 461.638 265.322 461.681 265.473V265.602H460.392V265.473C460.221 264.227 459.984 263.196 459.684 262.38C459.383 261.564 458.9 260.899 458.234 260.383C457.59 259.932 456.72 259.653 455.625 259.546C454.53 259.439 452.973 259.374 450.955 259.353H449.698H446.316L449.666 263.959C450.117 264.582 450.675 265.355 451.341 266.278C452.522 267.91 453.113 268.79 453.113 268.919C453.113 268.962 453.102 268.994 453.081 269.016L445.189 278.035C450.622 278.035 453.564 278.024 454.015 278.003C455.045 277.96 455.904 277.852 456.592 277.681C457.279 277.509 457.74 277.348 457.977 277.197C458.213 277.047 458.47 276.832 458.75 276.553C459.179 276.081 459.533 275.447 459.813 274.653C460.092 273.858 460.264 273.182 460.328 272.624L460.392 271.786H461.681V271.915Z" fill="black"/>
<path d="M742 388.134C742 387.664 742.139 387.291 742.416 387.014H742.768C743.663 387.078 744.783 387.11 746.126 387.11C748.643 387.11 750.125 387.078 750.572 387.014H750.892C751.02 387.142 751.084 387.238 751.084 387.302C751.084 387.366 751.063 387.558 751.02 387.878C750.914 388.198 750.818 388.4 750.732 388.485H750.061C749.592 388.528 749.272 388.549 749.101 388.549C748.483 388.656 748.141 388.816 748.078 389.029C748.078 389.072 748.387 391.748 749.005 397.058C749.624 402.368 749.943 405.044 749.965 405.087L752.3 401.344C753.856 398.849 755.413 396.333 756.97 393.795C758.527 391.258 759.326 389.946 759.369 389.861C759.454 389.712 759.497 389.552 759.497 389.381C759.497 388.869 759.028 388.571 758.089 388.485C757.706 388.485 757.514 388.368 757.514 388.134C757.514 388.112 757.535 387.974 757.578 387.718C757.642 387.419 757.706 387.227 757.77 387.142C757.834 387.057 757.972 387.014 758.185 387.014C758.228 387.014 758.356 387.014 758.569 387.014C758.782 387.014 759.145 387.025 759.657 387.046C760.169 387.067 760.851 387.078 761.704 387.078C763.175 387.078 764.103 387.057 764.487 387.014H764.711C764.86 387.163 764.935 387.281 764.935 387.366C764.935 387.728 764.839 388.07 764.647 388.39C764.583 388.453 764.401 388.485 764.103 388.485C763.826 388.507 763.57 388.528 763.335 388.549C763.101 388.571 762.877 388.624 762.664 388.709C762.45 388.795 762.28 388.869 762.152 388.933C762.024 388.997 761.896 389.083 761.768 389.189C761.64 389.296 761.533 389.37 761.448 389.413C761.363 389.456 761.277 389.552 761.192 389.701C761.107 389.85 761.032 389.925 760.968 389.925L754.795 399.841C750.956 406.046 748.973 409.224 748.845 409.373C748.781 409.416 748.707 409.469 748.621 409.533L748.046 409.565H747.822C747.438 409.565 747.246 409.49 747.246 409.341C747.182 409.213 746.766 405.801 745.998 399.105C745.188 392.324 744.772 388.901 744.751 388.837C744.644 388.603 743.983 388.485 742.768 388.485H742.224C742.075 388.379 742 388.262 742 388.134Z" fill="black"/>
<path d="M759.754 410.131C759.754 408.413 760.402 406.905 761.699 405.608C762.995 404.312 764.42 403.663 765.973 403.663C767.028 403.663 767.873 403.965 768.506 404.568C769.139 405.171 769.569 405.91 769.795 406.784C769.885 407.221 769.938 407.727 769.953 408.299V408.955C770.692 407.84 771.257 406.588 771.649 405.201C771.71 404.99 771.755 404.87 771.785 404.839C771.815 404.809 771.936 404.787 772.147 404.772C772.463 404.772 772.622 404.832 772.622 404.952C772.622 405.088 772.554 405.382 772.418 405.834C772.282 406.287 772.011 406.927 771.604 407.757C771.197 408.586 770.737 409.34 770.225 410.018L769.976 410.335L769.998 410.878C770.029 411.722 770.089 412.295 770.179 412.596C770.27 412.898 770.413 413.056 770.609 413.071C770.82 413.041 771.016 412.958 771.197 412.822C771.378 412.687 771.506 412.513 771.581 412.302C771.612 412.197 771.649 412.136 771.695 412.121C771.74 412.106 771.853 412.091 772.034 412.076C772.335 412.076 772.486 412.136 772.486 412.257C772.486 412.347 772.441 412.491 772.35 412.687C772.169 413.049 771.906 413.335 771.559 413.546C771.212 413.757 770.88 413.87 770.564 413.885H770.405C769.395 413.885 768.709 413.343 768.348 412.257L768.28 412.099L768.031 412.28C767.88 412.4 767.654 412.551 767.352 412.732C767.051 412.913 766.712 413.086 766.335 413.252C765.958 413.418 765.521 413.569 765.023 413.704C764.526 413.84 764.043 413.908 763.576 413.908C762.385 413.908 761.45 413.531 760.772 412.777C760.093 412.023 759.754 411.141 759.754 410.131ZM763.689 413.071C764.428 413.071 765.166 412.913 765.905 412.596C766.644 412.28 767.194 411.955 767.556 411.624L768.099 411.126C768.069 408.97 768.016 407.629 767.94 407.101C767.729 405.367 767.036 404.5 765.86 404.5C764.82 404.5 763.908 405.05 763.124 406.151C762.716 406.754 762.385 407.568 762.128 408.593C761.872 409.619 761.736 410.403 761.721 410.945C761.721 411.684 761.91 412.219 762.287 412.551C762.664 412.883 763.131 413.056 763.689 413.071Z" fill="black"/>
<path d="M778.065 400.864C778.065 399.393 778.172 397.996 778.385 396.674C778.598 395.352 778.844 394.211 779.121 393.252C779.398 392.292 779.793 391.354 780.304 390.437C780.816 389.52 781.221 388.805 781.52 388.294C781.818 387.782 782.266 387.227 782.863 386.63C783.46 386.033 783.812 385.671 783.919 385.543C784.025 385.415 784.292 385.191 784.718 384.871H785.134H785.262C785.561 384.871 785.71 384.967 785.71 385.159C785.71 385.223 785.529 385.447 785.166 385.831C784.804 386.214 784.367 386.779 783.855 387.526C783.343 388.272 782.821 389.189 782.287 390.277C781.754 391.364 781.307 392.836 780.944 394.691C780.582 396.546 780.4 398.604 780.4 400.864C780.4 403.125 780.582 405.172 780.944 407.006C781.307 408.84 781.744 410.322 782.255 411.452C782.767 412.582 783.29 413.499 783.823 414.203C784.356 414.907 784.804 415.472 785.166 415.898C785.529 416.325 785.71 416.549 785.71 416.57C785.71 416.762 785.55 416.858 785.23 416.858H785.134H784.718L783.823 416.09C781.818 414.278 780.358 412.017 779.441 409.309C778.524 406.601 778.065 403.786 778.065 400.864Z" fill="black"/>
<path d="M808.805 400.96C808.762 401.024 808.613 402.314 808.357 404.831C808.101 407.347 807.952 408.648 807.909 408.733V408.861H798.729C794.037 408.861 791.308 408.861 790.54 408.861C789.772 408.861 789.367 408.808 789.325 408.701V408.669C789.261 408.541 789.261 408.424 789.325 408.317L789.836 407.71C790.178 407.326 790.689 406.75 791.372 405.982C792.054 405.215 792.705 404.479 793.323 403.775L797.257 399.297L789.293 388.262L789.261 387.814C789.261 387.409 789.314 387.163 789.421 387.078C789.485 387.035 792.587 387.014 798.729 387.014H807.909V387.142C807.952 387.249 808.101 388.475 808.357 390.821C808.613 393.166 808.762 394.414 808.805 394.563V394.691H807.525V394.563C807.355 393.326 807.12 392.303 806.821 391.492C806.523 390.682 806.043 390.021 805.382 389.509C804.742 389.061 803.879 388.784 802.791 388.677C801.704 388.571 800.157 388.507 798.153 388.485H796.905H793.547L796.873 393.06C797.321 393.678 797.876 394.446 798.537 395.363C799.71 396.983 800.296 397.858 800.296 397.986C800.296 398.028 800.285 398.06 800.264 398.082L792.427 407.038C797.822 407.038 800.744 407.027 801.192 407.006C802.215 406.963 803.068 406.857 803.751 406.686C804.433 406.515 804.892 406.355 805.126 406.206C805.361 406.057 805.617 405.844 805.894 405.566C806.32 405.097 806.672 404.468 806.949 403.679C807.227 402.89 807.397 402.218 807.461 401.664L807.525 400.832H808.805V400.96Z" fill="black"/>
<path d="M812.515 384.903L812.643 384.871C812.75 384.871 812.856 384.871 812.963 384.871H813.347L814.242 385.639C816.247 387.451 817.708 389.712 818.625 392.42C819.542 395.128 820 397.943 820 400.864C820 402.314 819.893 403.711 819.68 405.055C819.467 406.398 819.222 407.539 818.944 408.477C818.667 409.416 818.273 410.354 817.761 411.292C817.249 412.23 816.844 412.945 816.545 413.435C816.247 413.926 815.81 414.469 815.234 415.067C814.658 415.664 814.317 416.015 814.21 416.122C814.104 416.229 813.859 416.431 813.475 416.73C813.411 416.794 813.368 416.836 813.347 416.858H812.963C812.792 416.858 812.675 416.858 812.611 416.858C812.547 416.858 812.494 416.826 812.451 416.762C812.408 416.698 812.376 416.602 812.355 416.474C812.376 416.453 812.494 416.314 812.707 416.058C816.012 412.625 817.665 407.56 817.665 400.864C817.665 394.168 816.012 389.104 812.707 385.671C812.494 385.415 812.376 385.276 812.355 385.255C812.355 385.084 812.408 384.967 812.515 384.903Z" fill="black"/>
<path d="M588.975 35.9549C589.265 35.9549 589.783 35.9652 590.53 35.986C591.276 36.0067 591.971 36.0274 592.614 36.0482C593.671 36.0482 594.553 36.0378 595.258 36.0171C595.963 35.9963 596.367 35.986 596.471 35.986C596.844 35.986 597.03 36.0689 597.03 36.2348C597.03 36.3177 596.999 36.4732 596.937 36.7013C596.833 37.0746 596.74 37.2819 596.657 37.3234C596.574 37.3649 596.346 37.3856 595.973 37.3856C595.454 37.4063 595.04 37.4582 594.729 37.5411C594.418 37.6241 594.2 37.707 594.076 37.7899C593.951 37.8729 593.92 37.9662 593.982 38.0699C593.982 38.3187 594.148 40.7862 594.48 45.4724C594.812 50.1586 594.978 52.6365 594.978 52.906L595.04 52.8127C595.081 52.7505 595.143 52.6468 595.226 52.5017C595.309 52.3565 595.434 52.1596 595.6 51.9107C595.766 51.6619 595.942 51.3509 596.128 50.9776C596.315 50.6044 596.564 50.1793 596.875 49.7024C597.186 49.2255 597.497 48.6656 597.808 48.0228C598.119 47.3801 598.523 46.6854 599.021 45.9389C601.177 42.1236 602.401 39.9464 602.691 39.4073C602.981 38.8682 603.137 38.5364 603.158 38.412C603.158 38.101 602.961 37.8521 602.567 37.6655C602.173 37.4789 601.737 37.3856 601.26 37.3856C600.97 37.3856 600.825 37.2819 600.825 37.0746C600.825 37.0124 600.846 36.8776 600.887 36.6702C600.97 36.3385 601.032 36.1415 601.074 36.0793C601.115 36.0171 601.26 35.986 601.509 35.986C601.571 35.986 601.748 35.986 602.038 35.986C602.328 35.986 602.733 35.986 603.251 35.986C603.769 35.986 604.329 35.9963 604.931 36.0171C606.299 36.0171 607.18 35.9963 607.574 35.9549C607.865 35.9549 608.01 36.0689 608.01 36.297C608.01 36.4214 607.979 36.5977 607.916 36.8257C607.854 37.0538 607.782 37.2093 607.699 37.2923C607.616 37.3752 607.512 37.4063 607.388 37.3856C606.932 37.3856 606.517 37.4478 606.144 37.5722C605.77 37.6966 605.459 37.8418 605.21 38.0077C604.962 38.1735 604.765 38.3498 604.62 38.5364C604.474 38.723 604.35 38.8889 604.246 39.0341L604.122 39.2207L598.865 48.4272C595.382 54.5649 593.63 57.6441 593.609 57.6648C593.485 57.8099 593.236 57.8825 592.863 57.8825C592.552 57.8825 592.355 57.8307 592.272 57.727C592.209 57.6648 592.012 55.1143 591.681 50.0757C591.349 45.037 591.173 42.4347 591.152 42.2688L590.779 42.8286C590.322 43.5958 588.995 45.9078 586.797 49.7646C583.812 54.9899 582.298 57.6233 582.256 57.6648C582.215 57.7063 582.163 57.7477 582.101 57.7892C581.997 57.8514 581.811 57.8825 581.541 57.8825C581.147 57.8825 580.929 57.8099 580.888 57.6648C580.888 57.6026 580.66 54.2953 580.204 47.7429C579.747 41.1905 579.509 37.8936 579.488 37.8521C579.447 37.6655 579.343 37.5515 579.177 37.51C579.011 37.4685 578.607 37.4271 577.964 37.3856H577.218C577.073 37.2404 577 37.1264 577 37.0435C577.021 36.5665 577.156 36.2037 577.404 35.9549H577.778C578.648 36.0171 579.685 36.0482 580.888 36.0482C583.48 36.0482 584.9 36.0171 585.149 35.9549H585.46C585.584 36.0793 585.647 36.1726 585.647 36.2348C585.647 36.297 585.626 36.4836 585.584 36.7946C585.481 37.1057 585.387 37.3027 585.305 37.3856H584.651C583.386 37.4478 582.713 37.6241 582.63 37.9143C583.252 47.4526 583.604 52.4706 583.687 52.9682L590.996 40.0916L590.934 38.9407C590.872 38.0699 590.768 37.6033 590.623 37.5411C590.499 37.4582 590.063 37.4063 589.317 37.3856C588.923 37.3856 588.664 37.3649 588.539 37.3234C588.415 37.2819 588.353 37.1886 588.353 37.0435C588.353 37.002 588.373 36.8776 588.415 36.6702C588.436 36.5873 588.456 36.494 588.477 36.3903C588.498 36.2866 588.508 36.214 588.508 36.1726C588.508 36.1311 588.539 36.0896 588.601 36.0482C588.664 36.0067 588.705 35.986 588.726 35.986C588.747 35.986 588.83 35.9756 588.975 35.9549Z" fill="black"/>
<path d="M605.501 58.4113C605.501 56.9306 606.058 55.5233 607.172 54.1892C608.286 52.8552 609.54 52.1808 610.932 52.1662C611.812 52.1662 612.486 52.5473 612.955 53.3096C612.97 53.295 613.007 53.251 613.065 53.1777C613.124 53.1044 613.205 53.0238 613.307 52.9358C613.41 52.8479 613.527 52.7599 613.659 52.6719C614.157 52.3201 614.495 52.1442 614.671 52.1442C614.729 52.1442 614.78 52.1662 614.824 52.2102C614.868 52.2541 614.89 52.2908 614.89 52.3201C614.89 52.452 614.385 54.5411 613.373 58.5872C612.332 62.7506 611.812 64.8617 611.812 64.9203C611.812 65.0376 612.142 65.1036 612.801 65.1182H613.351C613.439 65.2355 613.483 65.3015 613.483 65.3161C613.483 65.3308 613.461 65.4627 613.417 65.7119C613.358 65.9025 613.285 66.0418 613.197 66.1297H612.911C612.457 66.1004 611.665 66.0858 610.536 66.0858C610.126 66.0858 609.752 66.0858 609.415 66.0858C609.078 66.0858 608.807 66.0858 608.601 66.0858C608.396 66.0858 608.271 66.0931 608.227 66.1078C608.022 66.1078 607.92 66.0491 607.92 65.9318C607.92 65.8879 607.934 65.7779 607.964 65.602C608.022 65.3674 608.074 65.2282 608.118 65.1842C608.162 65.1402 608.308 65.1182 608.557 65.1182C609.261 65.1182 609.686 65.0669 609.833 64.9643C609.95 64.891 610.155 64.2459 610.448 63.0292C610.742 61.8124 610.896 61.1894 610.91 61.16C610.91 61.1454 610.859 61.1674 610.756 61.226C610.053 61.7977 609.32 62.0836 608.557 62.0836C607.751 62.0836 607.04 61.7904 606.424 61.204C605.809 60.6176 605.501 59.6867 605.501 58.4113ZM612.516 54.695C612.178 53.5369 611.629 52.9578 610.866 52.9578C610.353 52.9578 609.862 53.185 609.393 53.6395C608.924 54.094 608.557 54.6877 608.293 55.4207C607.868 56.5788 607.568 57.7809 607.392 59.027C607.392 59.071 607.392 59.1516 607.392 59.2689C607.392 59.3862 607.385 59.4741 607.37 59.5328C607.37 60.1925 607.502 60.6469 607.766 60.8962C608.03 61.1454 608.345 61.2773 608.711 61.292C609.503 61.292 610.317 60.7642 611.152 59.7087L611.328 59.4668L612.516 54.695Z" fill="black"/>
<path d="M619.064 49.4224C619.064 47.9917 619.167 46.6335 619.375 45.3479C619.582 44.0623 619.821 42.953 620.09 42.0199C620.36 41.0868 620.743 40.1745 621.241 39.2828C621.739 38.3912 622.133 37.6966 622.423 37.1989C622.713 36.7013 623.149 36.1622 623.729 35.5816C624.31 35.001 624.652 34.6485 624.756 34.5241C624.859 34.3997 625.119 34.1819 625.533 33.8709H625.938H626.062C626.352 33.8709 626.497 33.9642 626.497 34.1508C626.497 34.213 626.321 34.4308 625.969 34.804C625.616 35.1772 625.191 35.7267 624.693 36.4525C624.196 37.1782 623.688 38.0698 623.169 39.1273C622.651 40.1848 622.216 41.6156 621.863 43.4196C621.511 45.2235 621.334 47.2245 621.334 49.4224C621.334 51.6204 621.511 53.611 621.863 55.3942C622.216 57.1775 622.641 58.6186 623.138 59.7176C623.636 60.8165 624.144 61.7082 624.662 62.3924C625.181 63.0767 625.616 63.6262 625.969 64.0409C626.321 64.4556 626.497 64.6733 626.497 64.6941C626.497 64.8807 626.342 64.974 626.031 64.974H625.938H625.533L624.662 64.2275C622.713 62.465 621.293 60.2671 620.401 57.6337C619.51 55.0003 619.064 52.2632 619.064 49.4224Z" fill="black"/>
<path d="M635.331 37.3856C634.626 37.3856 634.252 37.3441 634.211 37.2612C634.19 37.2197 634.18 37.1367 634.18 37.0123C634.18 36.5147 634.294 36.1725 634.522 35.9859C634.564 35.9652 634.719 35.9548 634.989 35.9548C636.108 36.017 637.425 36.0481 638.939 36.0481C641.862 36.0481 643.542 36.017 643.977 35.9548H644.351C644.475 36.0792 644.537 36.1725 644.537 36.2348C644.537 36.297 644.517 36.4836 644.475 36.7946C644.371 37.1056 644.278 37.3026 644.195 37.3856H643.013C641.582 37.4063 640.743 37.4996 640.494 37.6655C640.349 37.7484 640.204 38.0387 640.058 38.5364C639.913 39.034 639.219 41.7711 637.974 46.7476C637.643 48.0954 637.29 49.5261 636.917 51.0398C636.544 52.5535 636.264 53.6939 636.077 54.4612L635.797 55.5809C635.797 55.6638 635.891 55.7053 636.077 55.7053C636.264 55.7053 636.876 55.726 637.912 55.7675H638.441C639.105 55.7675 639.633 55.7571 640.027 55.7364C640.421 55.7156 640.929 55.6431 641.551 55.5187C642.173 55.3943 642.692 55.2076 643.107 54.9588C643.521 54.71 643.977 54.3575 644.475 53.9013C644.973 53.4451 645.408 52.8749 645.781 52.1906C646.113 51.5686 646.424 50.8739 646.714 50.1067C647.005 49.3395 647.181 48.9041 647.243 48.8004C647.347 48.7382 647.523 48.7071 647.772 48.7071H648.176C648.301 48.8937 648.363 49.0078 648.363 49.0492C648.363 49.0907 648.156 49.7024 647.741 50.8843C647.326 52.0662 646.87 53.3103 646.372 54.6167C645.875 55.923 645.605 56.6902 645.564 56.9183C645.522 57.022 645.481 57.0842 645.439 57.1049C645.398 57.1257 645.232 57.1568 644.942 57.1982C644.651 57.2397 644.205 57.2501 643.604 57.2293C643.376 57.2293 642.588 57.2293 641.24 57.2293C639.893 57.2293 638.607 57.219 637.384 57.1982H631.847C630.105 57.1982 629.235 57.0946 629.235 56.8872C629.235 56.7421 629.255 56.5969 629.297 56.4518C629.4 56.0578 629.504 55.8401 629.608 55.7986C629.691 55.7779 629.846 55.7675 630.074 55.7675H630.261C630.821 55.7675 631.443 55.7364 632.127 55.6742C632.417 55.612 632.614 55.4876 632.718 55.3009C632.78 55.218 633.527 52.3358 634.957 46.6543C636.388 40.9728 637.104 37.9765 637.104 37.6655C637.104 37.5203 636.513 37.427 635.331 37.3856Z" fill="black"/>
<path d="M651.287 33.902L651.411 33.8709C651.515 33.8709 651.618 33.8709 651.722 33.8709H652.095L652.966 34.6174C654.915 36.3799 656.336 38.5778 657.227 41.2112C658.119 43.8446 658.565 46.5817 658.565 49.4224C658.565 50.8325 658.461 52.1906 658.254 53.4969C658.046 54.8033 657.808 55.9126 657.538 56.825C657.269 57.7373 656.885 58.6497 656.387 59.562C655.89 60.4744 655.496 61.169 655.206 61.646C654.915 62.1229 654.49 62.6516 653.93 63.2322C653.37 63.8128 653.039 64.1549 652.935 64.2586C652.831 64.3623 652.593 64.5593 652.22 64.8496C652.157 64.9118 652.116 64.9532 652.095 64.974H651.722C651.556 64.974 651.442 64.974 651.38 64.974C651.318 64.974 651.266 64.9429 651.224 64.8807C651.183 64.8185 651.152 64.7252 651.131 64.6007C651.152 64.58 651.266 64.4452 651.473 64.1964C654.687 60.858 656.294 55.9334 656.294 49.4224C656.294 42.9115 654.687 37.9869 651.473 34.6485C651.266 34.3997 651.152 34.2649 651.131 34.2441C651.131 34.0783 651.183 33.9642 651.287 33.902Z" fill="black"/>
<path d="M339.055 597.292C338.355 597.292 337.984 597.251 337.943 597.168C337.922 597.127 337.912 597.045 337.912 596.921C337.912 596.427 338.025 596.087 338.252 595.902C338.293 595.881 338.448 595.871 338.715 595.871C339.828 595.933 341.136 595.964 342.639 595.964C345.543 595.964 347.211 595.933 347.644 595.871H348.015C348.138 595.995 348.2 596.087 348.2 596.149C348.2 596.211 348.179 596.396 348.138 596.705C348.035 597.014 347.943 597.21 347.86 597.292H346.686C345.265 597.313 344.431 597.405 344.184 597.57C344.04 597.653 343.895 597.941 343.751 598.435C343.607 598.929 342.917 601.648 341.681 606.591C341.352 607.93 341.002 609.351 340.631 610.855C340.26 612.358 339.982 613.491 339.797 614.253L339.519 615.365C339.519 615.448 339.611 615.489 339.797 615.489C339.982 615.489 340.59 615.509 341.62 615.551H342.145C342.804 615.551 343.329 615.54 343.72 615.52C344.112 615.499 344.616 615.427 345.234 615.303C345.852 615.18 346.367 614.995 346.779 614.747C347.191 614.5 347.644 614.15 348.138 613.697C348.633 613.244 349.065 612.677 349.436 611.998C349.765 611.38 350.074 610.69 350.363 609.928C350.651 609.166 350.826 608.733 350.888 608.63C350.991 608.568 351.166 608.538 351.413 608.538H351.815C351.938 608.723 352 608.836 352 608.877C352 608.919 351.794 609.526 351.382 610.7C350.97 611.874 350.517 613.11 350.023 614.408C349.528 615.705 349.261 616.467 349.22 616.694C349.178 616.797 349.137 616.858 349.096 616.879C349.055 616.9 348.89 616.931 348.602 616.972C348.313 617.013 347.87 617.023 347.273 617.003C347.047 617.003 346.264 617.003 344.925 617.003C343.586 617.003 342.309 616.992 341.094 616.972H335.595C333.865 616.972 333 616.869 333 616.663C333 616.519 333.021 616.374 333.062 616.23C333.165 615.839 333.268 615.623 333.371 615.582C333.453 615.561 333.608 615.551 333.834 615.551H334.02C334.576 615.551 335.193 615.52 335.873 615.458C336.162 615.396 336.357 615.273 336.46 615.087C336.522 615.005 337.263 612.142 338.685 606.499C340.106 600.855 340.816 597.879 340.816 597.57C340.816 597.426 340.229 597.333 339.055 597.292Z" fill="black"/>
<path d="M952 312.911C952 312.456 952.245 312.105 952.735 311.86H986.198C986.724 312.14 986.986 312.491 986.986 312.911C986.986 313.296 986.741 313.629 986.251 313.909L969.546 313.962H952.841C952.28 313.786 952 313.436 952 312.911ZM952 323.102C952 322.577 952.28 322.227 952.841 322.051H986.251C986.741 322.402 986.986 322.752 986.986 323.102C986.986 323.557 986.724 323.908 986.198 324.153H952.735C952.245 323.908 952 323.557 952 323.102Z" fill="black"/>
<path d="M1111.99 616.506C1158.21 468.79 1401.45 477.484 1440.07 363.076C1493.5 204.753 1331.56 113.422 1367.52 19.5065" stroke="#8C76EC" stroke-width="4" stroke-linecap="round"/>
<path d="M1134 318.04C1134 316.544 1134.27 315.179 1134.8 313.946C1135.33 312.712 1136.01 311.689 1136.85 310.875C1137.69 310.062 1138.62 309.38 1139.66 308.829C1140.69 308.277 1141.67 307.871 1142.59 307.608C1143.51 307.346 1144.39 307.228 1145.23 307.254H1145.35C1146.61 307.254 1147.7 307.543 1148.62 308.12C1149.54 308.697 1150 309.55 1150 310.679C1150 313.04 1148.45 314.589 1145.35 315.323C1143.99 315.665 1142.11 315.848 1139.74 315.875C1138.71 315.875 1138.18 315.901 1138.15 315.953C1138.15 316.006 1138.06 316.465 1137.9 317.331C1137.73 318.197 1137.63 318.958 1137.6 319.614C1137.6 320.847 1137.9 321.818 1138.48 322.527C1139.07 323.236 1139.95 323.603 1141.12 323.629C1142.3 323.655 1143.59 323.406 1145.02 322.881C1146.44 322.356 1147.73 321.49 1148.87 320.283C1149.12 320.021 1149.29 319.89 1149.38 319.89C1149.49 319.89 1149.67 320.008 1149.92 320.244C1150.17 320.48 1150.31 320.664 1150.34 320.795C1150.37 320.926 1150.24 321.136 1149.96 321.425C1149.68 321.713 1149.26 322.068 1148.71 322.488C1148.15 322.907 1147.5 323.314 1146.78 323.708C1146.05 324.102 1145.17 324.43 1144.14 324.692C1143.11 324.954 1142.04 325.086 1140.95 325.086C1138.75 325.086 1137.04 324.39 1135.84 322.999C1134.64 321.609 1134.03 319.955 1134 318.04ZM1147.99 310.757C1147.83 309.393 1146.88 308.71 1145.14 308.71C1144.22 308.71 1143.37 308.894 1142.59 309.262C1141.81 309.629 1141.18 310.075 1140.7 310.6C1140.23 311.125 1139.82 311.663 1139.49 312.214C1139.15 312.765 1138.93 313.237 1138.82 313.631C1138.71 314.025 1138.64 314.274 1138.61 314.379C1138.61 314.405 1138.89 314.418 1139.45 314.418C1142.6 314.418 1144.81 314.103 1146.07 313.473C1147.32 312.844 1147.97 311.938 1147.99 310.757Z" fill="black"/>
<path d="M1157.34 291.698C1157.34 291.252 1157.53 290.863 1157.9 290.529C1158.28 290.195 1158.71 290.019 1159.21 290C1159.56 290 1159.86 290.111 1160.09 290.334C1160.33 290.557 1160.46 290.835 1160.48 291.169C1160.48 291.596 1160.28 291.985 1159.89 292.338C1159.49 292.69 1159.06 292.876 1158.58 292.894C1158.29 292.894 1158.01 292.802 1157.75 292.616C1157.5 292.43 1157.36 292.124 1157.34 291.698ZM1152.51 300.408C1152.51 300.26 1152.6 299.972 1152.78 299.546C1152.96 299.119 1153.19 298.646 1153.49 298.126C1153.79 297.607 1154.22 297.134 1154.79 296.707C1155.37 296.28 1155.96 296.076 1156.57 296.095C1157.34 296.095 1157.98 296.308 1158.5 296.735C1159.01 297.162 1159.28 297.737 1159.29 298.46C1159.29 298.776 1159.16 299.295 1158.88 300.019C1158.6 300.742 1158.21 301.716 1157.7 302.941C1157.18 304.165 1156.77 305.214 1156.45 306.086C1156.35 306.494 1156.3 306.791 1156.3 306.976C1156.3 307.44 1156.47 307.672 1156.81 307.672C1156.98 307.672 1157.17 307.644 1157.37 307.588C1157.57 307.533 1157.79 307.403 1158.05 307.199C1158.31 306.995 1158.57 306.67 1158.85 306.225C1159.13 305.78 1159.37 305.232 1159.59 304.583C1159.65 304.36 1159.7 304.23 1159.74 304.193C1159.78 304.156 1159.95 304.138 1160.24 304.138C1160.64 304.138 1160.84 304.23 1160.84 304.416C1160.84 304.564 1160.75 304.852 1160.57 305.279C1160.39 305.705 1160.14 306.178 1159.83 306.698C1159.51 307.217 1159.07 307.681 1158.5 308.089C1157.92 308.498 1157.31 308.702 1156.66 308.702C1156.03 308.702 1155.44 308.507 1154.91 308.117C1154.38 307.728 1154.1 307.134 1154.08 306.336C1154.08 306.021 1154.13 305.724 1154.23 305.446C1154.33 305.167 1154.75 304.11 1155.5 302.273C1156.25 300.399 1156.69 299.277 1156.81 298.906C1156.93 298.534 1156.99 298.173 1157.01 297.82C1157.01 297.375 1156.85 297.152 1156.51 297.152H1156.45C1155.86 297.152 1155.32 297.458 1154.82 298.071C1154.33 298.683 1153.95 299.462 1153.7 300.408C1153.68 300.427 1153.66 300.455 1153.64 300.492C1153.62 300.529 1153.61 300.557 1153.61 300.575C1153.61 300.594 1153.59 300.612 1153.55 300.631C1153.51 300.65 1153.48 300.659 1153.46 300.659C1153.44 300.659 1153.4 300.659 1153.34 300.659C1153.28 300.659 1153.2 300.659 1153.1 300.659H1152.69C1152.57 300.548 1152.51 300.464 1152.51 300.408Z" fill="black"/>
<path d="M1163.09 304.026C1163.09 302.152 1163.84 300.371 1165.34 298.683C1166.84 296.995 1168.53 296.141 1170.4 296.123C1171.59 296.123 1172.5 296.605 1173.13 297.57C1173.15 297.551 1173.2 297.496 1173.28 297.403C1173.35 297.31 1173.46 297.208 1173.6 297.097C1173.74 296.985 1173.9 296.874 1174.08 296.763C1174.75 296.317 1175.2 296.095 1175.44 296.095C1175.52 296.095 1175.59 296.123 1175.65 296.178C1175.7 296.234 1175.73 296.28 1175.73 296.317C1175.73 296.484 1175.05 299.128 1173.69 304.249C1172.29 309.518 1171.59 312.19 1171.59 312.264C1171.59 312.412 1172.03 312.496 1172.92 312.514H1173.66C1173.78 312.663 1173.84 312.746 1173.84 312.765C1173.84 312.783 1173.81 312.95 1173.75 313.266C1173.67 313.507 1173.57 313.683 1173.45 313.795H1173.07C1172.46 313.757 1171.39 313.739 1169.87 313.739C1169.32 313.739 1168.81 313.739 1168.36 313.739C1167.9 313.739 1167.54 313.739 1167.26 313.739C1166.99 313.739 1166.82 313.748 1166.76 313.767C1166.48 313.767 1166.34 313.693 1166.34 313.544C1166.34 313.488 1166.36 313.349 1166.4 313.127C1166.48 312.83 1166.55 312.654 1166.61 312.598C1166.67 312.542 1166.87 312.514 1167.2 312.514C1168.15 312.514 1168.72 312.449 1168.92 312.32C1169.08 312.227 1169.36 311.41 1169.75 309.871C1170.15 308.331 1170.35 307.542 1170.37 307.505C1170.37 307.486 1170.3 307.514 1170.17 307.588C1169.22 308.312 1168.23 308.674 1167.2 308.674C1166.12 308.674 1165.16 308.303 1164.33 307.561C1163.5 306.819 1163.09 305.64 1163.09 304.026ZM1172.54 299.323C1172.08 297.857 1171.34 297.124 1170.31 297.124C1169.62 297.124 1168.96 297.412 1168.33 297.987C1167.7 298.562 1167.2 299.314 1166.85 300.241C1166.28 301.707 1165.87 303.228 1165.63 304.805C1165.63 304.861 1165.63 304.963 1165.63 305.112C1165.63 305.26 1165.62 305.371 1165.6 305.446C1165.6 306.28 1165.78 306.856 1166.14 307.171C1166.49 307.486 1166.92 307.653 1167.41 307.672C1168.48 307.672 1169.57 307.004 1170.7 305.668L1170.94 305.362L1172.54 299.323Z" fill="black"/>
<path d="M1176.33 304.054C1176.33 301.939 1177.18 300.084 1178.87 298.488C1180.57 296.893 1182.44 296.095 1184.47 296.095C1185.85 296.095 1186.96 296.466 1187.79 297.208C1188.62 297.95 1189.18 298.859 1189.48 299.935C1189.6 300.473 1189.67 301.095 1189.69 301.8V302.607C1190.65 301.234 1191.39 299.694 1191.91 297.987C1191.99 297.727 1192.05 297.579 1192.08 297.542C1192.12 297.505 1192.28 297.477 1192.56 297.458C1192.97 297.458 1193.18 297.533 1193.18 297.681C1193.18 297.848 1193.09 298.21 1192.91 298.766C1192.74 299.323 1192.38 300.112 1191.85 301.132C1191.31 302.152 1190.71 303.08 1190.04 303.915L1189.72 304.305L1189.74 304.972C1189.78 306.011 1189.86 306.716 1189.98 307.088C1190.1 307.459 1190.29 307.653 1190.54 307.672C1190.82 307.635 1191.08 307.533 1191.31 307.366C1191.55 307.199 1191.72 306.985 1191.82 306.726C1191.86 306.596 1191.91 306.522 1191.97 306.503C1192.03 306.485 1192.17 306.466 1192.41 306.447C1192.81 306.447 1193 306.522 1193 306.67C1193 306.781 1192.94 306.958 1192.83 307.199C1192.59 307.644 1192.24 307.997 1191.79 308.256C1191.33 308.516 1190.9 308.655 1190.49 308.674H1190.28C1188.95 308.674 1188.06 308.006 1187.58 306.67L1187.49 306.475L1187.17 306.698C1186.97 306.846 1186.67 307.032 1186.28 307.255C1185.88 307.477 1185.44 307.691 1184.95 307.895C1184.45 308.099 1183.88 308.284 1183.23 308.451C1182.58 308.618 1181.94 308.702 1181.33 308.702C1179.77 308.702 1178.55 308.238 1177.66 307.31C1176.77 306.383 1176.33 305.297 1176.33 304.054ZM1181.48 307.672C1182.45 307.672 1183.42 307.477 1184.38 307.088C1185.35 306.698 1186.07 306.299 1186.55 305.891L1187.26 305.279C1187.22 302.625 1187.15 300.974 1187.05 300.325C1186.77 298.191 1185.86 297.124 1184.32 297.124C1182.96 297.124 1181.77 297.802 1180.74 299.156C1180.21 299.898 1179.77 300.9 1179.44 302.162C1179.1 303.423 1178.92 304.388 1178.9 305.056C1178.9 305.965 1179.15 306.624 1179.64 307.032C1180.14 307.44 1180.75 307.653 1181.48 307.672Z" fill="black"/>
<path d="M1140.04 593.799C1139.34 593.799 1138.97 593.757 1138.93 593.675C1138.91 593.634 1138.9 593.551 1138.9 593.428C1138.9 592.934 1139.01 592.594 1139.24 592.408C1139.28 592.388 1139.43 592.377 1139.7 592.377C1140.81 592.439 1142.12 592.47 1143.63 592.47C1146.53 592.47 1148.2 592.439 1148.63 592.377H1149C1149.12 592.501 1149.19 592.594 1149.19 592.655C1149.19 592.717 1149.17 592.903 1149.12 593.212C1149.02 593.52 1148.93 593.716 1148.85 593.799H1147.67C1146.25 593.819 1145.42 593.912 1145.17 594.077C1145.03 594.159 1144.88 594.447 1144.74 594.942C1144.59 595.436 1143.9 598.155 1142.67 603.098C1142.34 604.436 1141.99 605.858 1141.62 607.361C1141.25 608.865 1140.97 609.997 1140.78 610.76L1140.5 611.872C1140.5 611.954 1140.6 611.995 1140.78 611.995C1140.97 611.995 1141.58 612.016 1142.61 612.057H1143.13C1143.79 612.057 1144.32 612.047 1144.71 612.026C1145.1 612.006 1145.6 611.934 1146.22 611.81C1146.84 611.686 1147.35 611.501 1147.77 611.254C1148.18 611.007 1148.63 610.657 1149.12 610.203C1149.62 609.75 1150.05 609.184 1150.42 608.504C1150.75 607.886 1151.06 607.196 1151.35 606.434C1151.64 605.672 1151.81 605.24 1151.87 605.137C1151.98 605.075 1152.15 605.044 1152.4 605.044H1152.8C1152.92 605.229 1152.99 605.343 1152.99 605.384C1152.99 605.425 1152.78 606.033 1152.37 607.207C1151.96 608.381 1151.5 609.616 1151.01 610.914C1150.51 612.212 1150.25 612.974 1150.21 613.2C1150.16 613.303 1150.12 613.365 1150.08 613.386C1150.04 613.406 1149.88 613.437 1149.59 613.478C1149.3 613.519 1148.86 613.53 1148.26 613.509C1148.03 613.509 1147.25 613.509 1145.91 613.509C1144.57 613.509 1143.3 613.499 1142.08 613.478H1136.58C1134.85 613.478 1133.99 613.375 1133.99 613.169C1133.99 613.025 1134.01 612.881 1134.05 612.737C1134.15 612.345 1134.25 612.129 1134.36 612.088C1134.44 612.067 1134.59 612.057 1134.82 612.057H1135.01C1135.56 612.057 1136.18 612.026 1136.86 611.964C1137.15 611.903 1137.34 611.779 1137.45 611.594C1137.51 611.511 1138.25 608.648 1139.67 603.005C1141.09 597.362 1141.8 594.386 1141.8 594.077C1141.8 593.932 1141.22 593.84 1140.04 593.799Z" fill="black"/>
<path d="M1391.96 34.4613C1392.25 34.4613 1392.77 34.4717 1393.52 34.4924C1394.26 34.5132 1394.96 34.5339 1395.6 34.5546C1396.66 34.5546 1397.54 34.5443 1398.24 34.5235C1398.95 34.5028 1399.35 34.4924 1399.46 34.4924C1399.83 34.4924 1400.02 34.5754 1400.02 34.7413C1400.02 34.8242 1399.99 34.9797 1399.92 35.2078C1399.82 35.581 1399.73 35.7884 1399.64 35.8299C1399.56 35.8713 1399.33 35.8921 1398.96 35.8921C1398.44 35.9128 1398.03 35.9646 1397.71 36.0476C1397.4 36.1305 1397.19 36.2135 1397.06 36.2964C1396.94 36.3793 1396.91 36.4727 1396.97 36.5763C1396.97 36.8252 1397.13 39.2927 1397.47 43.9789C1397.8 48.6651 1397.96 51.1429 1397.96 51.4125L1398.03 51.3192C1398.07 51.257 1398.13 51.1533 1398.21 51.0082C1398.3 50.863 1398.42 50.666 1398.59 50.4172C1398.75 50.1684 1398.93 49.8573 1399.11 49.4841C1399.3 49.1109 1399.55 48.6858 1399.86 48.2089C1400.17 47.732 1400.48 47.1721 1400.79 46.5293C1401.11 45.8865 1401.51 45.1919 1402.01 44.4454C1404.16 40.6301 1405.39 38.4529 1405.68 37.9138C1405.97 37.3746 1406.12 37.0429 1406.14 36.9185C1406.14 36.6074 1405.95 36.3586 1405.55 36.172C1405.16 35.9854 1404.72 35.8921 1404.25 35.8921C1403.96 35.8921 1403.81 35.7884 1403.81 35.581C1403.81 35.5188 1403.83 35.384 1403.87 35.1767C1403.96 34.8449 1404.02 34.6479 1404.06 34.5857C1404.1 34.5235 1404.25 34.4924 1404.5 34.4924C1404.56 34.4924 1404.73 34.4924 1405.02 34.4924C1405.31 34.4924 1405.72 34.4924 1406.24 34.4924C1406.76 34.4924 1407.32 34.5028 1407.92 34.5235C1409.29 34.5235 1410.17 34.5028 1410.56 34.4613C1410.85 34.4613 1411 34.5754 1411 34.8035C1411 34.9279 1410.96 35.1041 1410.9 35.3322C1410.84 35.5603 1410.77 35.7158 1410.68 35.7988C1410.6 35.8817 1410.5 35.9128 1410.37 35.8921C1409.92 35.8921 1409.5 35.9543 1409.13 36.0787C1408.76 36.2031 1408.45 36.3482 1408.2 36.5141C1407.95 36.68 1407.75 36.8563 1407.61 37.0429C1407.46 37.2295 1407.34 37.3954 1407.23 37.5405L1407.11 37.7271L1401.85 46.9337C1398.37 53.0713 1396.62 56.1505 1396.6 56.1713C1396.47 56.3164 1396.22 56.389 1395.85 56.389C1395.54 56.389 1395.34 56.3372 1395.26 56.2335C1395.2 56.1713 1395 53.6208 1394.67 48.5821C1394.34 43.5434 1394.16 40.9411 1394.14 40.7752L1393.76 41.3351C1393.31 42.1023 1391.98 44.4143 1389.78 48.2711C1386.8 53.4964 1385.28 56.1298 1385.24 56.1713C1385.2 56.2127 1385.15 56.2542 1385.09 56.2957C1384.98 56.3579 1384.8 56.389 1384.53 56.389C1384.13 56.389 1383.92 56.3164 1383.87 56.1713C1383.87 56.1091 1383.65 52.8018 1383.19 46.2494C1382.73 39.697 1382.5 36.4001 1382.47 36.3586C1382.43 36.172 1382.33 36.0579 1382.16 36.0165C1382 35.975 1381.59 35.9335 1380.95 35.8921H1380.2C1380.06 35.7469 1379.99 35.6329 1379.99 35.5499C1380.01 35.073 1380.14 34.7101 1380.39 34.4613H1380.76C1381.63 34.5235 1382.67 34.5546 1383.87 34.5546C1386.47 34.5546 1387.89 34.5235 1388.14 34.4613H1388.45C1388.57 34.5857 1388.63 34.679 1388.63 34.7413C1388.63 34.8035 1388.61 34.9901 1388.57 35.3011C1388.47 35.6121 1388.37 35.8091 1388.29 35.8921H1387.64C1386.37 35.9543 1385.7 36.1305 1385.62 36.4208C1386.24 45.9591 1386.59 50.9771 1386.67 51.4747L1393.98 38.598L1393.92 37.4472C1393.86 36.5763 1393.75 36.1098 1393.61 36.0476C1393.48 35.9646 1393.05 35.9128 1392.3 35.8921C1391.91 35.8921 1391.65 35.8713 1391.53 35.8299C1391.4 35.7884 1391.34 35.6951 1391.34 35.5499C1391.34 35.5085 1391.36 35.384 1391.4 35.1767C1391.42 35.0938 1391.44 35.0004 1391.46 34.8968C1391.48 34.7931 1391.49 34.7205 1391.49 34.679C1391.49 34.6376 1391.53 34.5961 1391.59 34.5546C1391.65 34.5132 1391.69 34.4924 1391.71 34.4924C1391.73 34.4924 1391.82 34.4821 1391.96 34.4613Z" fill="black"/>
<path d="M1408.49 56.9178C1408.49 55.4371 1409.04 54.0298 1410.16 52.6957C1411.27 51.3617 1412.53 50.6873 1413.92 50.6726C1414.8 50.6726 1415.47 51.0538 1415.94 51.8161C1415.96 51.8015 1415.99 51.7575 1416.05 51.6842C1416.11 51.6109 1416.19 51.5302 1416.29 51.4423C1416.4 51.3543 1416.51 51.2664 1416.65 51.1784C1417.14 50.8266 1417.48 50.6507 1417.66 50.6507C1417.72 50.6507 1417.77 50.6726 1417.81 50.7166C1417.85 50.7606 1417.88 50.7973 1417.88 50.8266C1417.88 50.9585 1417.37 53.0476 1416.36 57.0937C1415.32 61.2571 1414.8 63.3681 1414.8 63.4268C1414.8 63.5441 1415.13 63.61 1415.79 63.6247H1416.34C1416.43 63.742 1416.47 63.8079 1416.47 63.8226C1416.47 63.8372 1416.45 63.9692 1416.4 64.2184C1416.34 64.409 1416.27 64.5483 1416.18 64.6362H1415.9C1415.44 64.6069 1414.65 64.5922 1413.52 64.5922C1413.11 64.5922 1412.74 64.5922 1412.4 64.5922C1412.06 64.5922 1411.79 64.5922 1411.59 64.5922C1411.38 64.5922 1411.26 64.5996 1411.21 64.6142C1411.01 64.6142 1410.91 64.5556 1410.91 64.4383C1410.91 64.3943 1410.92 64.2844 1410.95 64.1085C1411.01 63.8739 1411.06 63.7346 1411.1 63.6907C1411.15 63.6467 1411.29 63.6247 1411.54 63.6247C1412.25 63.6247 1412.67 63.5734 1412.82 63.4708C1412.94 63.3975 1413.14 62.7524 1413.43 61.5356C1413.73 60.3189 1413.88 59.6958 1413.9 59.6665C1413.9 59.6518 1413.85 59.6738 1413.74 59.7325C1413.04 60.3042 1412.31 60.5901 1411.54 60.5901C1410.74 60.5901 1410.03 60.2969 1409.41 59.7105C1408.79 59.1241 1408.49 58.1932 1408.49 56.9178ZM1415.5 53.2015C1415.16 52.0433 1414.61 51.4643 1413.85 51.4643C1413.34 51.4643 1412.85 51.6915 1412.38 52.146C1411.91 52.6004 1411.54 53.1941 1411.28 53.9271C1410.85 55.0853 1410.55 56.2874 1410.38 57.5335C1410.38 57.5775 1410.38 57.6581 1410.38 57.7754C1410.38 57.8927 1410.37 57.9806 1410.36 58.0393C1410.36 58.6989 1410.49 59.1534 1410.75 59.4026C1411.02 59.6518 1411.33 59.7838 1411.7 59.7984C1412.49 59.7984 1413.3 59.2707 1414.14 58.2152L1414.31 57.9733L1415.5 53.2015Z" fill="black"/>
<path d="M1422.05 47.9289C1422.05 46.4982 1422.15 45.14 1422.36 43.8544C1422.57 42.5688 1422.81 41.4595 1423.08 40.5264C1423.35 39.5933 1423.73 38.6809 1424.23 37.7893C1424.72 36.8977 1425.12 36.2031 1425.41 35.7054C1425.7 35.2078 1426.13 34.6686 1426.72 34.088C1427.3 33.5075 1427.64 33.155 1427.74 33.0305C1427.85 32.9061 1428.1 32.6884 1428.52 32.3774H1428.92H1429.05C1429.34 32.3774 1429.48 32.4707 1429.48 32.6573C1429.48 32.7195 1429.31 32.9372 1428.95 33.3105C1428.6 33.6837 1428.18 34.2332 1427.68 34.9589C1427.18 35.6847 1426.67 36.5763 1426.16 37.6338C1425.64 38.6913 1425.2 40.122 1424.85 41.926C1424.5 43.73 1424.32 45.731 1424.32 47.9289C1424.32 50.1269 1424.5 52.1175 1424.85 53.9007C1425.2 55.6839 1425.63 57.1251 1426.12 58.224C1426.62 59.323 1427.13 60.2146 1427.65 60.8989C1428.17 61.5832 1428.6 62.1327 1428.95 62.5474C1429.31 62.9621 1429.48 63.1798 1429.48 63.2005C1429.48 63.3871 1429.33 63.4805 1429.02 63.4805H1428.92H1428.52L1427.65 62.734C1425.7 60.9715 1424.28 58.7735 1423.39 56.1401C1422.5 53.5067 1422.05 50.7697 1422.05 47.9289Z" fill="black"/>
<path d="M1438.32 35.892C1437.61 35.892 1437.24 35.8506 1437.2 35.7676C1437.18 35.7262 1437.17 35.6432 1437.17 35.5188C1437.17 35.0212 1437.28 34.679 1437.51 34.4924C1437.55 34.4717 1437.71 34.4613 1437.97 34.4613C1439.09 34.5235 1440.41 34.5546 1441.92 34.5546C1444.85 34.5546 1446.53 34.5235 1446.96 34.4613H1447.34C1447.46 34.5857 1447.52 34.679 1447.52 34.7412C1447.52 34.8034 1447.5 34.99 1447.46 35.3011C1447.36 35.6121 1447.26 35.8091 1447.18 35.892H1446C1444.57 35.9128 1443.73 36.0061 1443.48 36.172C1443.33 36.2549 1443.19 36.5452 1443.04 37.0429C1442.9 37.5405 1442.2 40.2776 1440.96 45.2541C1440.63 46.6019 1440.28 48.0326 1439.9 49.5463C1439.53 51.06 1439.25 52.2004 1439.06 52.9676L1438.78 54.0873C1438.78 54.1703 1438.88 54.2118 1439.06 54.2118C1439.25 54.2118 1439.86 54.2325 1440.9 54.274H1441.43C1442.09 54.274 1442.62 54.2636 1443.01 54.2429C1443.41 54.2221 1443.92 54.1495 1444.54 54.0251C1445.16 53.9007 1445.68 53.7141 1446.09 53.4653C1446.51 53.2165 1446.96 52.864 1447.46 52.4078C1447.96 51.9516 1448.39 51.3814 1448.77 50.6971C1449.1 50.075 1449.41 49.3804 1449.7 48.6132C1449.99 47.846 1450.17 47.4105 1450.23 47.3069C1450.33 47.2447 1450.51 47.2136 1450.76 47.2136H1451.16C1451.29 47.4002 1451.35 47.5142 1451.35 47.5557C1451.35 47.5972 1451.14 48.2089 1450.73 49.3908C1450.31 50.5727 1449.86 51.8168 1449.36 53.1231C1448.86 54.4295 1448.59 55.1967 1448.55 55.4248C1448.51 55.5284 1448.47 55.5907 1448.43 55.6114C1448.38 55.6321 1448.22 55.6632 1447.93 55.7047C1447.64 55.7462 1447.19 55.7565 1446.59 55.7358C1446.36 55.7358 1445.57 55.7358 1444.23 55.7358C1442.88 55.7358 1441.59 55.7254 1440.37 55.7047H1434.83C1433.09 55.7047 1432.22 55.601 1432.22 55.3937C1432.22 55.2485 1432.24 55.1034 1432.28 54.9582C1432.39 54.5643 1432.49 54.3465 1432.59 54.3051C1432.68 54.2843 1432.83 54.274 1433.06 54.274H1433.25C1433.81 54.274 1434.43 54.2429 1435.11 54.1806C1435.4 54.1184 1435.6 53.994 1435.7 53.8074C1435.77 53.7245 1436.51 50.8423 1437.94 45.1608C1439.37 39.4793 1440.09 36.483 1440.09 36.172C1440.09 36.0268 1439.5 35.9335 1438.32 35.892Z" fill="black"/>
<path d="M1454.27 32.4085L1454.4 32.3774C1454.5 32.3774 1454.6 32.3774 1454.71 32.3774H1455.08L1455.95 33.1239C1457.9 34.8864 1459.32 37.0843 1460.21 39.7177C1461.11 42.3511 1461.55 45.0882 1461.55 47.9289C1461.55 49.3389 1461.45 50.6971 1461.24 52.0034C1461.03 53.3097 1460.79 54.4191 1460.52 55.3314C1460.25 56.2438 1459.87 57.1562 1459.37 58.0685C1458.88 58.9809 1458.48 59.6755 1458.19 60.1524C1457.9 60.6293 1457.48 61.1581 1456.92 61.7387C1456.36 62.3193 1456.02 62.6614 1455.92 62.7651C1455.82 62.8688 1455.58 63.0657 1455.21 63.356C1455.14 63.4182 1455.1 63.4597 1455.08 63.4805H1454.71C1454.54 63.4805 1454.43 63.4805 1454.37 63.4805C1454.3 63.4805 1454.25 63.4494 1454.21 63.3871C1454.17 63.3249 1454.14 63.2316 1454.12 63.1072C1454.14 63.0865 1454.25 62.9517 1454.46 62.7029C1457.67 59.3645 1459.28 54.4398 1459.28 47.9289C1459.28 41.418 1457.67 36.4934 1454.46 33.155C1454.25 32.9061 1454.14 32.7713 1454.12 32.7506C1454.12 32.5847 1454.17 32.4707 1454.27 32.4085Z" fill="black"/>
<path d="M1222.86 323.336C1222.86 323.779 1222.62 324 1222.13 324C1222.02 324 1221.76 323.823 1221.37 323.469C1220.98 323.115 1219.89 322.086 1218.11 320.382L1214.5 316.929L1210.86 320.415C1208.41 322.716 1207.15 323.889 1207.08 323.934C1206.98 323.978 1206.9 324 1206.83 324C1206.65 324 1206.49 323.934 1206.35 323.801C1206.21 323.668 1206.13 323.513 1206.1 323.336C1206.1 323.181 1206.27 322.938 1206.59 322.606C1206.91 322.274 1208 321.223 1209.85 319.452L1213.46 316L1209.85 312.548C1207.98 310.755 1206.89 309.704 1206.59 309.394C1206.29 309.084 1206.13 308.841 1206.1 308.664C1206.1 308.465 1206.17 308.31 1206.31 308.199C1206.45 308.089 1206.62 308.033 1206.83 308.033C1206.95 308.033 1207.03 308.044 1207.08 308.066C1207.15 308.111 1208.41 309.284 1210.86 311.585L1214.5 315.071L1218.11 311.618C1219.89 309.914 1220.98 308.885 1221.37 308.531C1221.76 308.177 1222.02 308 1222.13 308C1222.62 308 1222.86 308.221 1222.86 308.664C1222.86 308.819 1222.75 309.018 1222.51 309.261C1222.28 309.505 1221.15 310.589 1219.11 312.515L1215.51 316L1219.11 319.485C1221.06 321.344 1222.17 322.418 1222.44 322.705C1222.72 322.993 1222.86 323.203 1222.86 323.336Z" fill="black"/>
</svg>
