<svg width="1939" height="687" viewBox="0 0 1939 687" fill="none" xmlns="http://www.w3.org/2000/svg">
<path d="M189 606L189 14" stroke="black" stroke-width="4" stroke-linecap="round"/>
<path d="M187 606C187 607.105 187.895 608 189 608C190.105 608 191 607.105 191 606L187 606ZM189 310L177.453 330L200.547 330L189 310ZM191 606L191 328L187 328L187 606L191 606Z" fill="black"/>
<path d="M224.854 311.815C223.96 311.815 223.487 311.762 223.434 311.657C223.408 311.604 223.394 311.499 223.394 311.341C223.394 310.71 223.539 310.276 223.828 310.039C223.881 310.013 224.105 310 224.499 310C225.577 310.053 227.366 310.079 229.864 310.079C230.758 310.079 231.587 310.079 232.35 310.079C233.112 310.079 233.704 310.066 234.125 310.039C234.546 310.013 234.809 310.013 234.914 310.039C235.335 310.039 235.545 310.171 235.545 310.434C235.545 310.487 235.519 310.671 235.466 310.986C235.335 311.433 235.203 311.696 235.072 311.775H234.993C234.94 311.775 234.874 311.775 234.795 311.775C234.716 311.775 234.624 311.775 234.519 311.775C234.414 311.775 234.296 311.788 234.164 311.815C234.033 311.841 233.914 311.841 233.809 311.815C232.783 311.841 232.126 311.88 231.837 311.933C231.547 311.986 231.311 312.13 231.127 312.367C231.1 312.42 230.732 313.8 230.022 316.509C229.312 319.218 228.602 322.058 227.892 325.03C227.182 328.002 226.787 329.751 226.708 330.277C226.656 330.645 226.629 331.027 226.629 331.421C226.629 332.841 227.037 333.959 227.852 334.774C228.668 335.59 229.798 335.997 231.245 335.997C233.007 335.997 234.769 335.405 236.531 334.222C238.293 333.038 239.582 331.25 240.397 328.857L242.409 320.927C243.645 315.878 244.263 313.248 244.263 313.038C244.263 312.328 243.422 311.92 241.738 311.815C241.107 311.815 240.792 311.67 240.792 311.381C240.792 311.328 240.818 311.17 240.871 310.907C240.976 310.487 241.055 310.237 241.107 310.158C241.16 310.079 241.291 310.026 241.502 310C241.581 310 242.001 310.013 242.764 310.039C243.527 310.066 244.631 310.092 246.078 310.118C247.419 310.118 248.445 310.105 249.155 310.079C249.865 310.053 250.246 310.039 250.299 310.039C250.693 310.039 250.891 310.171 250.891 310.434C250.891 311.013 250.786 311.407 250.575 311.617C250.496 311.749 250.207 311.815 249.707 311.815C247.84 311.92 246.67 312.446 246.196 313.393C246.144 313.524 245.486 316.062 244.224 321.006C243.146 325.451 242.488 328.068 242.251 328.857C241.383 331.487 239.871 333.63 237.715 335.287C235.558 336.944 233.323 337.786 231.008 337.812C228.589 337.812 226.656 337.075 225.209 335.603C223.763 334.13 223.026 332.381 223 330.356V329.725C223 329.251 223.723 326.122 225.17 320.336C226.458 315.05 227.103 312.328 227.103 312.17C227.103 311.986 226.353 311.867 224.854 311.815Z" fill="black"/>
<path d="M252.709 326.127C252.709 325.681 252.886 325.29 253.239 324.956C253.592 324.621 254.001 324.444 254.466 324.426C254.801 324.426 255.08 324.537 255.303 324.76C255.526 324.983 255.647 325.262 255.665 325.597C255.665 326.025 255.479 326.415 255.107 326.768C254.736 327.122 254.327 327.308 253.88 327.326C253.601 327.326 253.341 327.233 253.099 327.047C252.858 326.861 252.727 326.555 252.709 326.127ZM248.163 334.857C248.163 334.708 248.246 334.42 248.414 333.992C248.581 333.564 248.804 333.09 249.083 332.57C249.362 332.049 249.771 331.575 250.31 331.147C250.85 330.72 251.407 330.515 251.984 330.534C252.709 330.534 253.313 330.748 253.797 331.175C254.28 331.603 254.531 332.179 254.55 332.904C254.55 333.22 254.42 333.741 254.159 334.466C253.899 335.191 253.527 336.168 253.044 337.395C252.56 338.622 252.17 339.673 251.872 340.546C251.779 340.956 251.733 341.253 251.733 341.439C251.733 341.904 251.891 342.136 252.207 342.136C252.374 342.136 252.551 342.108 252.737 342.053C252.923 341.997 253.137 341.867 253.378 341.662C253.62 341.458 253.871 341.132 254.131 340.686C254.392 340.24 254.624 339.691 254.829 339.04C254.884 338.817 254.931 338.687 254.968 338.65C255.005 338.613 255.163 338.594 255.442 338.594C255.814 338.594 256 338.687 256 338.873C256 339.022 255.916 339.31 255.749 339.738C255.582 340.165 255.349 340.639 255.052 341.16C254.754 341.681 254.336 342.146 253.797 342.555C253.257 342.964 252.681 343.168 252.067 343.168C251.472 343.168 250.924 342.973 250.422 342.582C249.92 342.192 249.66 341.597 249.641 340.797C249.641 340.481 249.687 340.184 249.78 339.905C249.873 339.626 250.273 338.566 250.98 336.725C251.686 334.847 252.095 333.723 252.207 333.351C252.318 332.979 252.383 332.616 252.402 332.263C252.402 331.817 252.244 331.594 251.928 331.594H251.872C251.314 331.594 250.803 331.9 250.338 332.514C249.873 333.128 249.52 333.908 249.278 334.857C249.26 334.875 249.241 334.903 249.223 334.94C249.204 334.978 249.195 335.005 249.195 335.024C249.195 335.043 249.176 335.061 249.139 335.08C249.102 335.098 249.074 335.108 249.055 335.108C249.037 335.108 248.999 335.108 248.944 335.108C248.888 335.108 248.813 335.108 248.721 335.108H248.33C248.218 334.996 248.163 334.913 248.163 334.857Z" fill="black"/>
<path d="M386 606L386 14" stroke="black" stroke-width="4" stroke-linecap="round"/>
<path d="M384 606C384 607.105 384.895 608 386 608C387.105 608 388 607.105 388 606L384 606ZM386 310L374.453 330L397.547 330L386 310ZM388 606L388 328L384 328L384 606L388 606Z" fill="black"/>
<path d="M421.864 311.824C420.965 311.824 420.489 311.771 420.436 311.665C420.41 311.612 420.397 311.507 420.397 311.348C420.397 310.714 420.542 310.278 420.833 310.04C420.886 310.013 421.11 310 421.507 310C422.591 310.053 424.388 310.079 426.899 310.079C427.798 310.079 428.631 310.079 429.397 310.079C430.164 310.079 430.759 310.066 431.182 310.04C431.605 310.013 431.869 310.013 431.975 310.04C432.398 310.04 432.609 310.172 432.609 310.436C432.609 310.489 432.583 310.674 432.53 310.991C432.398 311.441 432.265 311.705 432.133 311.784H432.054C432.001 311.784 431.935 311.784 431.856 311.784C431.776 311.784 431.684 311.784 431.578 311.784C431.472 311.784 431.353 311.798 431.221 311.824C431.089 311.85 430.97 311.85 430.864 311.824C429.833 311.85 429.173 311.89 428.882 311.943C428.591 311.996 428.353 312.141 428.168 312.379C428.142 312.432 427.772 313.82 427.058 316.542C426.344 319.265 425.63 322.12 424.917 325.107C424.203 328.094 423.806 329.852 423.727 330.381C423.674 330.751 423.648 331.134 423.648 331.531C423.648 332.958 424.058 334.081 424.877 334.901C425.697 335.72 426.833 336.13 428.287 336.13C430.058 336.13 431.829 335.535 433.6 334.346C435.371 333.156 436.667 331.359 437.486 328.953L439.508 320.983C440.751 315.908 441.372 313.265 441.372 313.053C441.372 312.339 440.526 311.93 438.834 311.824C438.2 311.824 437.883 311.679 437.883 311.388C437.883 311.335 437.909 311.176 437.962 310.912C438.068 310.489 438.147 310.238 438.2 310.159C438.253 310.079 438.385 310.026 438.596 310C438.676 310 439.099 310.013 439.865 310.04C440.632 310.066 441.742 310.093 443.196 310.119C444.544 310.119 445.575 310.106 446.289 310.079C447.002 310.053 447.386 310.04 447.439 310.04C447.835 310.04 448.033 310.172 448.033 310.436C448.033 311.018 447.928 311.414 447.716 311.626C447.637 311.758 447.346 311.824 446.844 311.824C444.967 311.93 443.791 312.458 443.315 313.41C443.262 313.542 442.601 316.093 441.332 321.063C440.248 325.53 439.588 328.16 439.35 328.953C438.477 331.597 436.957 333.751 434.79 335.416C432.622 337.082 430.375 337.928 428.049 337.954C425.617 337.954 423.674 337.214 422.22 335.734C420.767 334.253 420.026 332.495 420 330.46V329.826C420 329.35 420.727 326.204 422.181 320.389C423.476 315.075 424.124 312.339 424.124 312.181C424.124 311.996 423.37 311.877 421.864 311.824Z" fill="black"/>
<path d="M453.028 326.321C453.028 325.742 453.225 325.294 453.617 324.976C454.01 324.658 454.411 324.499 454.823 324.499C455.14 324.499 455.402 324.593 455.608 324.78C455.813 324.967 455.944 325.228 456 325.565C456 326.088 455.822 326.527 455.467 326.882C455.112 327.237 454.701 327.415 454.234 327.415C453.898 327.415 453.617 327.321 453.393 327.134C453.169 326.948 453.047 326.677 453.028 326.321ZM452.776 332.489C452.776 331.947 452.533 331.676 452.047 331.676C451.636 331.676 451.244 331.788 450.87 332.012C450.496 332.237 450.169 332.526 449.889 332.881C449.608 333.236 449.384 333.582 449.216 333.919C449.048 334.255 448.889 334.554 448.739 334.816L448.543 335.208C448.506 335.227 448.356 335.236 448.095 335.236H447.702C447.59 335.124 447.534 335.049 447.534 335.012C447.534 334.974 447.571 334.853 447.646 334.647C448.039 333.732 448.59 332.872 449.3 332.068C450.01 331.265 450.833 330.797 451.767 330.667C451.786 330.667 451.86 330.667 451.991 330.667C452.122 330.667 452.234 330.657 452.328 330.639C452.776 330.657 453.187 330.751 453.561 330.919C454.028 331.181 454.383 331.47 454.626 331.788C454.869 332.106 454.991 332.601 454.991 333.274V333.722L453.617 339.301C452.664 343.039 452.159 344.982 452.103 345.132C451.767 346.066 451.113 346.898 450.141 347.627C449.169 348.356 448.057 348.729 446.805 348.748C445.871 348.748 445.235 348.552 444.899 348.159C444.562 347.767 444.385 347.337 444.366 346.87C444.366 346.365 444.544 345.935 444.899 345.58C445.254 345.225 445.684 345.038 446.188 345.02C446.506 345.02 446.777 345.113 447.001 345.3C447.226 345.487 447.347 345.777 447.366 346.169C447.366 346.842 447.067 347.356 446.469 347.711C446.581 347.73 446.712 347.739 446.861 347.739C447.497 347.739 448.076 347.477 448.599 346.954C449.123 346.431 449.524 345.814 449.805 345.104L450.113 343.926C450.319 343.123 450.562 342.151 450.842 341.011C451.122 339.871 451.421 338.703 451.739 337.507C452.057 336.311 452.309 335.273 452.496 334.395C452.683 333.517 452.786 332.984 452.804 332.797C452.804 332.666 452.795 332.564 452.776 332.489Z" fill="black"/>
<path d="M510 319.051C510 318.595 510.245 318.245 510.735 318H544.198C544.724 318.28 544.986 318.63 544.986 319.051C544.986 319.436 544.741 319.769 544.251 320.049L527.546 320.101H510.841C510.28 319.926 510 319.576 510 319.051ZM510 329.242C510 328.716 510.28 328.366 510.841 328.191H544.251C544.741 328.541 544.986 328.892 544.986 329.242C544.986 329.697 544.724 330.047 544.198 330.292H510.735C510.245 330.047 510 329.697 510 329.242Z" fill="black"/>
<path d="M770 606L770 14" stroke="black" stroke-width="4" stroke-linecap="round"/>
<path d="M768 606C768 607.105 768.895 608 770 608C771.105 608 772 607.105 772 606L768 606ZM770 310L758.453 330L781.547 330L770 310ZM772 606L772 328L768 328L768 606L772 606Z" fill="black"/>
<path d="M805.845 311.805C804.955 311.805 804.484 311.753 804.432 311.648C804.406 311.596 804.392 311.491 804.392 311.334C804.392 310.706 804.536 310.275 804.824 310.039C804.877 310.013 805.099 310 805.491 310C806.564 310.052 808.344 310.079 810.829 310.079C811.719 310.079 812.543 310.079 813.302 310.079C814.061 310.079 814.65 310.065 815.068 310.039C815.487 310.013 815.749 310.013 815.853 310.039C816.272 310.039 816.481 310.17 816.481 310.432C816.481 310.484 816.455 310.667 816.403 310.981C816.272 311.426 816.141 311.688 816.01 311.766H815.932C815.879 311.766 815.814 311.766 815.736 311.766C815.657 311.766 815.565 311.766 815.461 311.766C815.356 311.766 815.238 311.779 815.108 311.805C814.977 311.832 814.859 311.832 814.754 311.805C813.734 311.832 813.08 311.871 812.792 311.923C812.504 311.976 812.269 312.119 812.085 312.355C812.059 312.407 811.693 313.781 810.986 316.476C810.28 319.171 809.573 321.997 808.867 324.954C808.16 327.911 807.768 329.651 807.689 330.174C807.637 330.541 807.611 330.92 807.611 331.312C807.611 332.725 808.017 333.837 808.828 334.649C809.639 335.46 810.764 335.865 812.203 335.865C813.956 335.865 815.709 335.277 817.463 334.099C819.216 332.922 820.498 331.142 821.309 328.761L823.311 320.872C824.541 315.848 825.155 313.232 825.155 313.022C825.155 312.316 824.318 311.91 822.643 311.805C822.015 311.805 821.701 311.662 821.701 311.374C821.701 311.321 821.728 311.164 821.78 310.903C821.885 310.484 821.963 310.235 822.015 310.157C822.068 310.079 822.199 310.026 822.408 310C822.486 310 822.905 310.013 823.664 310.039C824.423 310.065 825.522 310.092 826.961 310.118C828.295 310.118 829.316 310.105 830.022 310.079C830.729 310.052 831.108 310.039 831.161 310.039C831.553 310.039 831.749 310.17 831.749 310.432C831.749 311.007 831.645 311.4 831.435 311.609C831.357 311.74 831.069 311.805 830.572 311.805C828.714 311.91 827.55 312.433 827.079 313.375C827.026 313.506 826.372 316.031 825.116 320.951C824.043 325.373 823.389 327.976 823.154 328.761C822.29 331.378 820.786 333.51 818.64 335.159C816.494 336.807 814.27 337.645 811.968 337.671C809.56 337.671 807.637 336.938 806.198 335.473C804.759 334.008 804.026 332.268 804 330.253V329.625C804 329.154 804.72 326.04 806.159 320.283C807.441 315.024 808.082 312.316 808.082 312.159C808.082 311.976 807.336 311.858 805.845 311.805Z" fill="black"/>
<path d="M831.81 324.741C831.81 324.556 831.847 324.343 831.921 324.103C831.995 323.862 832.106 323.742 832.254 323.742C832.273 323.742 832.939 323.696 834.252 323.603C835.566 323.511 836.241 323.455 836.278 323.437C836.5 323.437 836.611 323.511 836.611 323.659C836.611 323.788 836.148 325.721 835.223 329.458C834.298 333.121 833.836 335.017 833.836 335.147C834.187 334.962 834.456 334.786 834.641 334.62C835.085 334.287 835.723 333.704 836.555 332.871C837.388 332.039 838.035 331.475 838.498 331.179C839.238 330.679 839.941 330.43 840.607 330.43C841.162 330.43 841.596 330.605 841.911 330.957C842.225 331.308 842.392 331.808 842.41 332.455C842.41 332.918 842.346 333.306 842.216 333.621C842.087 333.935 841.911 334.166 841.689 334.314C841.467 334.462 841.273 334.564 841.106 334.62C840.94 334.675 840.773 334.703 840.607 334.703C840.237 334.703 839.941 334.601 839.719 334.398C839.497 334.194 839.386 333.926 839.386 333.593C839.386 333.13 839.534 332.751 839.83 332.455C840.126 332.159 840.422 331.965 840.718 331.873L841.162 331.789C840.94 331.567 840.718 331.456 840.496 331.456H840.385C839.793 331.512 839.21 331.743 838.636 332.15C838.063 332.557 837.388 333.149 836.611 333.926C835.834 334.703 835.223 335.267 834.779 335.619C834.816 335.637 834.955 335.665 835.196 335.702C835.436 335.739 835.658 335.794 835.862 335.868C836.065 335.942 836.306 336.016 836.583 336.09C836.861 336.164 837.11 336.294 837.332 336.479C837.554 336.664 837.758 336.83 837.943 336.978C838.128 337.126 838.285 337.367 838.414 337.7C838.544 338.033 838.599 338.338 838.581 338.616C838.581 338.93 838.535 339.309 838.442 339.753C838.35 340.197 838.294 340.567 838.276 340.863C838.276 341.603 838.525 341.973 839.025 341.973C839.913 341.973 840.634 340.873 841.189 338.671C841.226 338.523 841.411 338.449 841.744 338.449H841.855C842.151 338.449 842.299 338.532 842.299 338.699C842.299 338.791 842.272 338.921 842.216 339.087C841.458 341.696 840.366 343 838.942 343C838.109 343 837.434 342.76 836.916 342.279C836.398 341.798 836.139 341.104 836.139 340.197C836.139 339.864 836.167 339.578 836.222 339.337C836.278 339.097 836.306 338.875 836.306 338.671C836.306 338.264 836.176 337.913 835.917 337.617C835.658 337.321 835.334 337.108 834.946 336.978C834.557 336.849 834.243 336.747 834.002 336.673C833.762 336.599 833.595 336.571 833.503 336.59H833.447C833.225 337.367 833.031 338.116 832.865 338.838C832.698 339.559 832.569 340.096 832.476 340.447C832.384 340.799 832.3 341.141 832.226 341.474C832.152 341.807 832.088 342.029 832.032 342.14C831.977 342.251 831.912 342.371 831.838 342.501C831.764 342.63 831.662 342.713 831.533 342.75C831.292 342.917 831.033 343 830.756 343C830.441 343 830.201 342.908 830.034 342.723C829.868 342.538 829.784 342.38 829.784 342.251C829.784 342.066 830.127 340.586 830.811 337.811C831.496 335.036 832.171 332.307 832.837 329.625L833.864 325.601C833.882 325.361 833.817 325.213 833.669 325.157C833.521 325.102 833.161 325.055 832.587 325.018H832.448C832.263 325.018 832.143 325.018 832.088 325.018C832.032 325.018 831.967 324.991 831.893 324.935C831.819 324.88 831.792 324.815 831.81 324.741Z" fill="black"/>
<path d="M655 324.852C655 321.83 655.88 318.927 657.64 316.143C659.401 313.358 661.62 311.151 664.3 309.522C666.98 307.893 669.66 307.066 672.339 307.039C674.704 307.039 676.582 307.709 677.975 309.049C678.211 309.312 678.408 309.535 678.566 309.719C678.723 309.903 678.828 310.034 678.881 310.113L678.92 310.231C678.999 310.231 679.354 309.89 679.984 309.207C680.168 309.049 680.365 308.865 680.576 308.655C680.786 308.445 680.996 308.235 681.206 308.025C681.416 307.814 681.548 307.67 681.6 307.591L682.191 307H682.428C682.796 307 682.979 307.092 682.979 307.276C682.979 307.381 682.559 309.181 681.718 312.675C680.773 316.326 680.3 318.165 680.3 318.192C680.247 318.323 680.181 318.402 680.103 318.428C680.024 318.454 679.787 318.481 679.393 318.507H678.763C678.605 318.349 678.526 318.231 678.526 318.152C678.526 318.126 678.539 318.034 678.566 317.877C678.592 317.719 678.618 317.456 678.645 317.088C678.671 316.721 678.684 316.3 678.684 315.827C678.684 313.962 678.264 312.333 677.423 310.941C676.582 309.548 675.15 308.839 673.128 308.813C672.444 308.813 671.709 308.905 670.921 309.089C670.133 309.273 669.187 309.588 668.083 310.034C666.98 310.481 665.89 311.217 664.813 312.241C663.735 313.266 662.776 314.487 661.936 315.906C661.095 317.404 660.425 319.151 659.926 321.147C659.427 323.144 659.177 324.773 659.177 326.034C659.177 329.029 660.176 331.183 662.172 332.497C663.433 333.39 664.983 333.837 666.822 333.837C669.213 333.837 671.341 332.943 673.206 331.157C675.072 329.37 676.306 327.426 676.911 325.325C677.016 324.983 677.095 324.786 677.147 324.733C677.2 324.681 677.41 324.655 677.778 324.655C678.303 324.655 678.566 324.773 678.566 325.009C678.566 325.141 678.553 325.259 678.526 325.364C677.764 328.175 676.136 330.592 673.64 332.615C671.144 334.638 668.464 335.649 665.601 335.649C662.632 335.649 660.123 334.664 658.074 332.694C656.025 330.723 655 328.109 655 324.852Z" fill="black"/>
<path d="M684.577 322.667C684.577 322.482 684.614 322.268 684.689 322.027C684.763 321.785 684.875 321.664 685.023 321.664C685.042 321.664 685.71 321.618 687.029 321.525C688.348 321.432 689.026 321.376 689.063 321.358C689.286 321.358 689.397 321.432 689.397 321.581C689.397 321.711 688.933 323.652 688.004 327.404C687.076 331.081 686.611 332.985 686.611 333.115C686.964 332.93 687.233 332.753 687.419 332.586C687.865 332.252 688.506 331.666 689.342 330.831C690.177 329.995 690.828 329.428 691.292 329.131C692.035 328.63 692.741 328.379 693.409 328.379C693.967 328.379 694.403 328.555 694.719 328.908C695.035 329.261 695.202 329.763 695.22 330.413C695.22 330.877 695.155 331.267 695.025 331.583C694.895 331.899 694.719 332.131 694.496 332.279C694.273 332.428 694.078 332.53 693.911 332.586C693.744 332.642 693.576 332.67 693.409 332.67C693.038 332.67 692.741 332.567 692.518 332.363C692.295 332.159 692.183 331.889 692.183 331.555C692.183 331.091 692.332 330.71 692.629 330.413C692.926 330.116 693.224 329.921 693.521 329.828L693.967 329.744C693.744 329.521 693.521 329.41 693.298 329.41H693.186C692.592 329.465 692.007 329.698 691.431 330.106C690.855 330.515 690.177 331.109 689.397 331.889C688.617 332.67 688.004 333.236 687.558 333.589C687.596 333.607 687.735 333.635 687.976 333.673C688.218 333.71 688.441 333.765 688.645 333.84C688.849 333.914 689.091 333.988 689.369 334.063C689.648 334.137 689.899 334.267 690.122 334.453C690.345 334.638 690.549 334.806 690.735 334.954C690.92 335.103 691.078 335.344 691.208 335.679C691.338 336.013 691.394 336.319 691.375 336.598C691.375 336.914 691.329 337.294 691.236 337.74C691.143 338.186 691.088 338.558 691.069 338.855C691.069 339.598 691.32 339.969 691.821 339.969C692.713 339.969 693.437 338.864 693.994 336.654C694.032 336.505 694.217 336.431 694.552 336.431H694.663C694.96 336.431 695.109 336.514 695.109 336.682C695.109 336.774 695.081 336.904 695.025 337.072C694.264 339.691 693.168 341 691.738 341C690.902 341 690.224 340.759 689.704 340.276C689.184 339.793 688.924 339.096 688.924 338.186C688.924 337.852 688.952 337.564 689.007 337.322C689.063 337.081 689.091 336.858 689.091 336.654C689.091 336.245 688.961 335.892 688.701 335.595C688.441 335.298 688.116 335.084 687.726 334.954C687.336 334.824 687.02 334.722 686.778 334.648C686.537 334.573 686.37 334.545 686.277 334.564H686.221C685.998 335.344 685.803 336.096 685.636 336.821C685.469 337.545 685.339 338.084 685.246 338.437C685.153 338.79 685.07 339.133 684.995 339.468C684.921 339.802 684.856 340.025 684.8 340.136C684.744 340.248 684.679 340.368 684.605 340.498C684.531 340.629 684.429 340.712 684.299 340.749C684.057 340.916 683.797 341 683.519 341C683.203 341 682.961 340.907 682.794 340.721C682.627 340.536 682.543 340.378 682.543 340.248C682.543 340.062 682.887 338.576 683.574 335.79C684.262 333.004 684.94 330.264 685.608 327.571L686.639 323.531C686.658 323.29 686.593 323.141 686.444 323.085C686.295 323.03 685.933 322.983 685.357 322.946H685.218C685.032 322.946 684.912 322.946 684.856 322.946C684.8 322.946 684.735 322.918 684.661 322.862C684.587 322.807 684.559 322.742 684.577 322.667Z" fill="black"/>
<path d="M585.206 293.083C585.289 293.028 593.61 293 610.169 293H635.007L637.401 298.57C639.024 302.366 639.89 304.374 640 304.594H638.35L638.061 304.016C637.483 302.889 636.713 301.816 635.75 300.798C634.375 299.478 632.848 298.419 631.17 297.621C629.492 296.823 627.553 296.232 625.353 295.847C623.152 295.462 621.075 295.228 619.122 295.146C617.169 295.063 614.652 295.008 611.572 294.98H606.414H605.135H593.087L593.417 295.434C606.153 312.846 612.548 321.635 612.603 321.8C612.631 321.855 612.631 321.937 612.603 322.047C612.521 322.13 608.89 326.283 601.71 334.508L590.818 346.886C590.818 346.913 593.72 346.927 599.524 346.927C600.954 346.927 602.893 346.927 605.341 346.927C607.789 346.927 609.55 346.941 610.623 346.968C614.364 346.968 617.389 346.9 619.7 346.762C622.011 346.625 624.307 346.336 626.59 345.896C628.873 345.456 630.813 344.782 632.408 343.874C634.003 342.966 635.42 341.77 636.658 340.284C637.236 339.569 637.799 338.579 638.35 337.314H640C640 337.341 639.904 337.63 639.711 338.18C639.519 338.73 639.175 339.624 638.68 340.862C638.185 342.1 637.758 343.255 637.401 344.328L635.007 350.723L610.21 350.764C593.651 350.764 585.33 350.737 585.248 350.682C585.083 350.627 585 350.503 585 350.311C585 350.256 585.028 350.173 585.083 350.063L607.074 324.894C607.074 324.867 606.62 324.248 605.713 323.038C604.805 321.827 603.361 319.847 601.38 317.096C599.4 314.345 597.612 311.897 596.017 309.752L585.041 294.692L585 294.073C585 293.495 585.069 293.165 585.206 293.083Z" fill="black"/>
<path d="M608.45 359.028C608.45 358.833 608.489 358.61 608.567 358.357C608.645 358.104 608.761 357.978 608.917 357.978C608.936 357.978 609.636 357.929 611.017 357.832C612.398 357.734 613.108 357.676 613.147 357.657C613.38 357.657 613.497 357.734 613.497 357.89C613.497 358.026 613.011 360.058 612.038 363.987C611.066 367.837 610.58 369.831 610.58 369.967C610.949 369.772 611.231 369.588 611.426 369.413C611.892 369.063 612.563 368.45 613.438 367.575C614.314 366.7 614.994 366.107 615.48 365.795C616.258 365.27 616.997 365.008 617.697 365.008C618.281 365.008 618.738 365.192 619.068 365.562C619.399 365.931 619.574 366.457 619.594 367.137C619.594 367.623 619.525 368.032 619.389 368.362C619.253 368.693 619.068 368.936 618.835 369.092C618.602 369.247 618.397 369.354 618.222 369.413C618.047 369.471 617.872 369.5 617.697 369.5C617.308 369.5 616.997 369.393 616.764 369.179C616.531 368.965 616.414 368.683 616.414 368.333C616.414 367.847 616.569 367.448 616.881 367.137C617.192 366.826 617.503 366.622 617.814 366.525L618.281 366.437C618.047 366.204 617.814 366.087 617.581 366.087H617.464C616.842 366.145 616.229 366.389 615.626 366.816C615.023 367.244 614.314 367.867 613.497 368.683C612.68 369.5 612.038 370.093 611.571 370.463C611.61 370.482 611.756 370.511 612.009 370.55C612.262 370.589 612.495 370.647 612.709 370.725C612.923 370.803 613.176 370.881 613.468 370.959C613.759 371.036 614.022 371.173 614.255 371.367C614.489 371.562 614.702 371.737 614.897 371.892C615.091 372.048 615.257 372.301 615.393 372.651C615.529 373.001 615.587 373.321 615.568 373.613C615.568 373.944 615.519 374.342 615.422 374.809C615.325 375.276 615.266 375.665 615.247 375.976C615.247 376.754 615.51 377.143 616.035 377.143C616.968 377.143 617.727 375.986 618.31 373.672C618.349 373.516 618.543 373.438 618.893 373.438H619.01C619.321 373.438 619.477 373.526 619.477 373.701C619.477 373.798 619.448 373.934 619.389 374.109C618.592 376.851 617.445 378.222 615.947 378.222C615.072 378.222 614.362 377.969 613.818 377.464C613.273 376.958 613.001 376.229 613.001 375.276C613.001 374.926 613.03 374.624 613.088 374.372C613.147 374.119 613.176 373.885 613.176 373.672C613.176 373.244 613.04 372.874 612.767 372.563C612.495 372.252 612.155 372.028 611.746 371.892C611.338 371.756 611.007 371.649 610.755 371.571C610.502 371.493 610.327 371.464 610.23 371.484H610.171C609.938 372.301 609.734 373.088 609.559 373.847C609.384 374.605 609.248 375.169 609.15 375.538C609.053 375.908 608.966 376.268 608.888 376.618C608.81 376.968 608.742 377.201 608.684 377.318C608.625 377.435 608.557 377.561 608.479 377.697C608.402 377.833 608.295 377.921 608.158 377.96C607.906 378.135 607.633 378.222 607.342 378.222C607.011 378.222 606.758 378.125 606.583 377.931C606.408 377.736 606.321 377.571 606.321 377.435C606.321 377.24 606.68 375.684 607.4 372.767C608.12 369.85 608.829 366.982 609.529 364.162L610.609 359.932C610.628 359.679 610.56 359.524 610.405 359.465C610.249 359.407 609.87 359.358 609.267 359.319H609.121C608.927 359.319 608.8 359.319 608.742 359.319C608.684 359.319 608.615 359.29 608.538 359.232C608.46 359.174 608.431 359.105 608.45 359.028Z" fill="black"/>
<path d="M731.861 329.336C731.861 329.779 731.618 330 731.132 330C731.017 330 730.762 329.823 730.369 329.469C729.976 329.115 728.889 328.086 727.108 326.382L723.5 322.929L719.857 326.415C717.406 328.716 716.145 329.889 716.076 329.934C715.983 329.978 715.902 330 715.833 330C715.648 330 715.486 329.934 715.347 329.801C715.209 329.668 715.128 329.513 715.105 329.336C715.105 329.181 715.266 328.938 715.59 328.606C715.914 328.274 717.001 327.223 718.851 325.452L722.459 322L718.851 318.548C716.978 316.755 715.891 315.704 715.59 315.394C715.29 315.084 715.128 314.841 715.105 314.664C715.105 314.465 715.174 314.31 715.313 314.199C715.451 314.089 715.625 314.033 715.833 314.033C715.949 314.033 716.03 314.044 716.076 314.066C716.145 314.111 717.406 315.284 719.857 317.585L723.5 321.071L727.108 317.618C728.889 315.914 729.976 314.885 730.369 314.531C730.762 314.177 731.017 314 731.132 314C731.618 314 731.861 314.221 731.861 314.664C731.861 314.819 731.745 315.018 731.514 315.261C731.283 315.505 730.149 316.589 728.114 318.515L724.506 322L728.114 325.485C730.057 327.344 731.167 328.418 731.444 328.705C731.722 328.993 731.861 329.203 731.861 329.336Z" fill="black"/>
<path d="M430.153 648.419C430.004 648.269 429.886 648.173 429.8 648.13C429.715 648.087 429.543 648.055 429.287 648.033C429.03 648.012 428.57 647.98 427.906 647.937H426.846V646.46H444.731V646.589C444.773 646.717 444.923 647.959 445.18 650.313C445.437 652.668 445.587 653.909 445.63 654.038V654.166H444.345V654.038C444.195 652.989 444.099 652.379 444.056 652.208C443.928 651.416 443.735 650.752 443.478 650.217C443.221 649.682 442.932 649.275 442.611 648.997C442.29 648.718 441.873 648.494 441.359 648.322C440.845 648.151 440.353 648.055 439.882 648.033C439.411 648.012 438.801 647.991 438.052 647.969H436.768H435.227C434.499 647.969 434.049 647.991 433.878 648.033C433.707 648.076 433.589 648.183 433.525 648.355C433.503 648.397 433.493 649.799 433.493 652.561V656.638H435.162C435.227 656.638 435.43 656.638 435.772 656.638C436.115 656.638 436.372 656.628 436.543 656.606C436.714 656.585 436.95 656.553 437.249 656.51C437.549 656.467 437.795 656.403 437.988 656.317C438.18 656.232 438.362 656.103 438.534 655.932C438.919 655.547 439.144 654.755 439.208 653.556V652.882H440.492V661.872H439.208V661.198C439.144 660.02 438.919 659.218 438.534 658.79C438.362 658.64 438.17 658.522 437.956 658.436C437.742 658.351 437.496 658.287 437.217 658.244C436.939 658.201 436.714 658.169 436.543 658.147C436.372 658.126 436.115 658.115 435.772 658.115C435.43 658.115 435.227 658.115 435.162 658.115H433.493V662.225L433.525 666.335C433.675 666.485 433.803 666.581 433.91 666.624C434.017 666.667 434.285 666.71 434.713 666.752C435.141 666.795 435.815 666.817 436.736 666.817H437.603V668.294H437.217C436.704 668.229 434.927 668.197 431.887 668.197C429.083 668.197 427.521 668.229 427.2 668.294H426.846V666.817H427.906C428.805 666.795 429.351 666.763 429.543 666.72C429.736 666.678 429.939 666.549 430.153 666.335V648.419Z" fill="black"/>
<path d="M459.308 666.431C458.109 667.887 456.75 668.615 455.23 668.615H455.005C452.329 668.615 450.788 667.555 450.382 665.436C450.36 665.286 450.339 663.82 450.317 661.037C450.296 658.704 450.285 657.398 450.285 657.12C450.285 656.842 450.221 656.617 450.093 656.446C449.878 656.103 449.236 655.932 448.166 655.932H447.813V655.194C447.813 654.701 447.834 654.455 447.877 654.455L448.23 654.423C448.444 654.402 448.755 654.38 449.161 654.359C449.568 654.337 449.975 654.316 450.382 654.295C450.745 654.273 451.141 654.252 451.569 654.23C451.998 654.209 452.319 654.177 452.533 654.134C452.747 654.091 452.875 654.08 452.918 654.102H453.014V659.913C453.036 663.852 453.068 665.96 453.111 666.239C453.175 666.56 453.325 666.817 453.56 667.009C453.988 667.309 454.63 667.459 455.487 667.459C456.043 667.459 456.546 667.362 456.996 667.17C457.445 666.977 457.788 666.731 458.023 666.431C458.259 666.132 458.473 665.789 458.665 665.404C458.858 665.019 458.986 664.698 459.051 664.441C459.115 664.184 459.158 663.927 459.179 663.67C459.179 663.649 459.179 663.467 459.179 663.124C459.179 662.782 459.19 662.354 459.211 661.84C459.233 661.326 459.233 660.823 459.211 660.331V658.18C459.211 657.195 459.104 656.585 458.89 656.349C458.676 656.114 458.141 655.975 457.285 655.932H456.707V654.455C456.75 654.455 457.563 654.402 459.147 654.295C460.731 654.188 461.576 654.123 461.684 654.102H461.908V659.817C461.908 663.67 461.919 665.629 461.94 665.693C462.005 666.121 462.154 666.399 462.39 666.528C462.625 666.656 463.107 666.752 463.835 666.817H464.413V668.294C464.37 668.294 463.567 668.347 462.005 668.454C460.442 668.561 459.618 668.625 459.532 668.647H459.308V666.431Z" fill="black"/>
<path d="M474.334 658.147C474.334 657.291 474.045 656.553 473.467 655.932C472.889 655.311 472.054 655.001 470.963 655.001C470.192 655.001 469.529 655.14 468.972 655.418C468.33 655.825 468.009 656.382 468.009 657.088C467.987 657.195 467.987 657.334 468.009 657.505C468.03 657.677 468.201 657.933 468.522 658.276C468.844 658.618 469.304 658.886 469.903 659.079C470.288 659.186 470.759 659.282 471.316 659.368C471.872 659.453 472.343 659.55 472.729 659.657C473.114 659.764 473.456 659.903 473.756 660.074C474.12 660.245 474.473 660.459 474.816 660.716C475.158 660.973 475.501 661.412 475.843 662.033C476.186 662.653 476.368 663.317 476.389 664.023C476.389 665.35 475.982 666.442 475.169 667.298C474.355 668.154 473.039 668.593 471.22 668.615H470.963C469.85 668.615 468.822 668.229 467.88 667.459L467.623 667.684L467.334 667.973C467.206 668.101 467.078 668.219 466.949 668.326L466.596 668.647H466.339H466.211C466.146 668.647 466.05 668.583 465.922 668.454V665.918V664.055C465.922 663.606 465.943 663.338 465.986 663.253C466.029 663.167 466.136 663.114 466.307 663.092H466.596C466.853 663.092 467.024 663.135 467.11 663.221C467.195 663.306 467.249 663.435 467.27 663.606C467.292 663.777 467.367 664.066 467.495 664.473C467.623 664.879 467.827 665.329 468.105 665.821C468.854 666.913 469.892 667.459 471.22 667.459C473.296 667.459 474.334 666.624 474.334 664.954C474.334 664.334 474.141 663.831 473.756 663.445C473.328 662.932 472.44 662.546 471.091 662.289C469.743 662.033 468.854 661.786 468.426 661.551C467.656 661.187 467.046 660.695 466.596 660.074C466.146 659.453 465.922 658.79 465.922 658.083C465.922 657.248 466.104 656.542 466.468 655.964C466.831 655.386 467.292 654.958 467.848 654.68C468.405 654.402 468.94 654.209 469.454 654.102C469.967 653.995 470.438 653.941 470.866 653.941H471.22C472.076 653.941 472.825 654.102 473.467 654.423L473.949 654.68L474.238 654.455C474.452 654.262 474.687 654.08 474.944 653.909H475.201H475.329C475.394 653.909 475.49 653.973 475.618 654.102V658.34L475.426 658.533H474.527C474.398 658.404 474.334 658.276 474.334 658.147Z" fill="black"/>
<path d="M479.728 648.74C479.728 648.141 479.921 647.67 480.306 647.327C480.691 646.985 481.162 646.813 481.719 646.813C482.211 646.856 482.639 647.038 483.003 647.359C483.367 647.68 483.549 648.141 483.549 648.74C483.549 649.382 483.367 649.864 483.003 650.185C482.639 650.506 482.19 650.666 481.655 650.666C481.119 650.666 480.67 650.506 480.306 650.185C479.942 649.864 479.75 649.382 479.728 648.74ZM485.443 668.294C485.122 668.229 484.009 668.197 482.104 668.197C481.869 668.197 481.473 668.197 480.916 668.197C480.36 668.197 479.824 668.219 479.311 668.262L478.604 668.294H478.348V666.817H478.861C479.461 666.817 479.985 666.785 480.435 666.72C480.627 666.635 480.745 666.517 480.788 666.367C480.831 666.217 480.852 665.768 480.852 665.019V661.711V658.886C480.852 657.773 480.831 657.067 480.788 656.767C480.745 656.467 480.595 656.264 480.338 656.157C480.039 656.007 479.535 655.932 478.829 655.932H478.476V655.194C478.476 654.701 478.497 654.455 478.54 654.455L478.861 654.423C479.075 654.402 479.375 654.38 479.76 654.359C480.146 654.337 480.531 654.316 480.916 654.295C481.28 654.273 481.665 654.252 482.072 654.23C482.479 654.209 482.789 654.177 483.003 654.134C483.217 654.091 483.335 654.08 483.356 654.102H483.453V666.303C483.56 666.517 483.688 666.645 483.838 666.688C483.988 666.731 484.362 666.774 484.962 666.817H485.7V668.294H485.443Z" fill="black"/>
<path d="M487.338 661.423C487.338 659.389 488.033 657.634 489.425 656.157C490.816 654.68 492.496 653.931 494.466 653.909C496.392 653.909 498.051 654.637 499.442 656.093C500.834 657.548 501.54 659.314 501.562 661.39C501.562 663.424 500.877 665.136 499.507 666.528C498.137 667.919 496.456 668.615 494.466 668.615C492.389 668.615 490.688 667.898 489.361 666.463C488.033 665.029 487.359 663.349 487.338 661.423ZM494.466 667.33C497.077 667.33 498.383 665.586 498.383 662.097V661.069V660.267C498.383 659.796 498.372 659.389 498.351 659.047C498.329 658.704 498.254 658.297 498.126 657.826C497.998 657.356 497.826 656.97 497.612 656.671C497.398 656.371 497.066 656.071 496.617 655.772C496.167 655.472 495.643 655.258 495.044 655.129C494.937 655.108 494.765 655.097 494.53 655.097C493.888 655.097 493.278 655.226 492.7 655.483C491.779 655.953 491.18 656.606 490.902 657.441C490.623 658.276 490.484 659.261 490.484 660.395V661.037C490.484 663.092 490.688 664.537 491.094 665.372C491.779 666.678 492.903 667.33 494.466 667.33Z" fill="black"/>
<path d="M503.809 666.817H504.259C505.093 666.817 505.596 666.667 505.768 666.367V666.11C505.768 665.918 505.768 665.671 505.768 665.372C505.768 665.072 505.768 664.74 505.768 664.376C505.768 664.013 505.778 663.595 505.8 663.124C505.821 662.653 505.821 662.204 505.8 661.776C505.8 661.112 505.8 660.406 505.8 659.657C505.8 658.907 505.789 658.276 505.768 657.762V657.024C505.703 656.617 505.554 656.349 505.318 656.221C505.083 656.093 504.601 655.996 503.873 655.932H503.295V655.194C503.295 654.701 503.317 654.455 503.36 654.455L503.681 654.423C503.895 654.402 504.194 654.38 504.58 654.359C504.965 654.337 505.361 654.316 505.768 654.295C506.132 654.273 506.517 654.252 506.924 654.23C507.33 654.209 507.641 654.177 507.855 654.134C508.069 654.091 508.187 654.08 508.208 654.102H508.304V655.386C508.304 656.2 508.315 656.606 508.336 656.606C508.358 656.606 508.411 656.553 508.497 656.446C508.583 656.339 508.711 656.178 508.882 655.964C509.053 655.75 509.257 655.557 509.492 655.386C509.728 655.215 510.038 655.012 510.423 654.776C510.809 654.541 511.215 654.369 511.643 654.262C512.072 654.155 512.617 654.102 513.281 654.102C515.721 654.188 517.08 655.397 517.359 657.73C517.38 657.88 517.391 659.368 517.391 662.193V664.954C517.391 665.768 517.412 666.249 517.455 666.399C517.498 666.549 517.616 666.656 517.808 666.72C518.258 666.785 518.782 666.817 519.381 666.817H519.895V668.294H519.638L518.868 668.262C518.375 668.24 517.84 668.229 517.262 668.229C516.684 668.229 516.278 668.219 516.042 668.197C513.838 668.197 512.639 668.229 512.446 668.294H512.189V666.817H512.703C514.009 666.817 514.662 666.645 514.662 666.303C514.683 666.26 514.694 664.783 514.694 661.872C514.672 658.982 514.651 657.452 514.63 657.281C514.501 656.681 514.287 656.232 513.987 655.932C513.688 655.632 513.431 655.45 513.217 655.386C513.003 655.322 512.724 655.301 512.382 655.322C511.419 655.322 510.573 655.686 509.845 656.414C509.267 656.992 508.904 657.58 508.754 658.18C508.604 658.779 508.518 659.667 508.497 660.845V662.899V664.826C508.497 665.468 508.508 665.896 508.529 666.11C508.55 666.324 508.583 666.463 508.625 666.528C508.668 666.592 508.764 666.656 508.914 666.72C509.364 666.785 509.888 666.817 510.488 666.817H511.001V668.294H510.744L510.006 668.262C509.492 668.24 508.946 668.229 508.368 668.229C507.791 668.229 507.384 668.219 507.148 668.197C504.944 668.197 503.745 668.229 503.552 668.294H503.295V666.817H503.809Z" fill="black"/>
<path d="M532.546 648.322C532.396 648.173 532.278 648.076 532.193 648.034C532.107 647.991 531.936 647.959 531.679 647.937C531.422 647.916 530.962 647.884 530.298 647.841H529.239V646.364H534.858H535.949H538.004C539.631 646.364 540.883 646.428 541.761 646.557C542.638 646.685 543.527 646.995 544.426 647.488C546.459 648.515 547.626 649.917 547.926 651.694C547.947 651.801 547.958 651.972 547.958 652.208C547.958 652.914 547.786 653.577 547.444 654.198C547.101 654.819 546.695 655.322 546.224 655.707C545.753 656.093 545.271 656.424 544.779 656.703C544.287 656.981 543.869 657.174 543.527 657.281L543.013 657.441C543.077 657.505 543.195 657.57 543.366 657.634C544.008 657.976 544.533 658.34 544.939 658.725C545.346 659.111 545.657 659.582 545.871 660.138C546.085 660.695 546.234 661.155 546.32 661.519C546.406 661.883 546.502 662.482 546.609 663.317C546.716 664.152 546.823 664.805 546.93 665.275C547.144 666.303 547.401 666.977 547.701 667.298C548 667.619 548.407 667.78 548.921 667.78H549.081C549.402 667.78 549.713 667.609 550.013 667.266C550.312 666.924 550.505 666.335 550.59 665.5C550.59 665.265 550.633 665.115 550.719 665.051C550.805 664.987 550.976 664.944 551.233 664.922C551.489 664.901 551.661 664.922 551.746 664.987C551.832 665.051 551.875 665.19 551.875 665.404C551.875 666.067 551.704 666.742 551.361 667.427C551.019 668.112 550.548 668.572 549.948 668.807C549.606 668.936 549.156 669 548.6 669C545.41 668.872 543.57 667.673 543.077 665.404C543.034 665.168 543.013 664.387 543.013 663.06C543.013 661.733 542.938 660.845 542.788 660.395C542.382 659.154 541.568 658.362 540.348 658.019L540.027 657.955L537.908 657.923H535.789V662.129L535.821 666.335C535.949 666.549 536.131 666.678 536.367 666.72C536.602 666.763 537.159 666.795 538.036 666.817H539.096V668.294H538.743C538.293 668.229 536.773 668.197 534.183 668.197C531.572 668.197 530.041 668.229 529.592 668.294H529.239V666.817H530.298C531.197 666.795 531.743 666.763 531.936 666.72C532.128 666.678 532.332 666.549 532.546 666.335V648.322ZM544.137 652.272V651.951C544.137 651.565 544.126 651.244 544.105 650.987C544.083 650.731 543.987 650.399 543.816 649.992C543.644 649.585 543.441 649.254 543.206 648.997C542.97 648.74 542.563 648.504 541.986 648.29C541.408 648.076 540.744 647.937 539.995 647.873C539.952 647.873 539.717 647.873 539.288 647.873C538.86 647.873 538.475 647.862 538.133 647.841H537.458C536.495 647.841 535.971 647.937 535.885 648.13C535.821 648.215 535.789 649.671 535.789 652.497V656.735H537.651C539.813 656.735 541.365 656.542 542.307 656.157C543.248 655.772 543.837 654.937 544.073 653.652C544.115 653.417 544.137 652.957 544.137 652.272Z" fill="black"/>
<path d="M564.3 666.431C563.102 667.887 561.743 668.615 560.223 668.615H559.998C557.322 668.615 555.781 667.555 555.374 665.436C555.353 665.286 555.332 663.82 555.31 661.037C555.289 658.704 555.278 657.398 555.278 657.12C555.278 656.842 555.214 656.617 555.085 656.446C554.871 656.103 554.229 655.932 553.159 655.932H552.806V655.194C552.806 654.701 552.827 654.455 552.87 654.455L553.223 654.423C553.437 654.402 553.748 654.38 554.154 654.359C554.561 654.337 554.968 654.316 555.374 654.295C555.738 654.273 556.134 654.252 556.562 654.23C556.991 654.209 557.312 654.177 557.526 654.134C557.74 654.091 557.868 654.08 557.911 654.102H558.007V659.913C558.029 663.852 558.061 665.96 558.104 666.239C558.168 666.56 558.318 666.817 558.553 667.009C558.981 667.309 559.623 667.459 560.48 667.459C561.036 667.459 561.539 667.362 561.989 667.17C562.438 666.977 562.781 666.731 563.016 666.431C563.252 666.132 563.466 665.789 563.658 665.404C563.851 665.019 563.979 664.698 564.044 664.441C564.108 664.184 564.151 663.927 564.172 663.67C564.172 663.649 564.172 663.467 564.172 663.124C564.172 662.782 564.183 662.354 564.204 661.84C564.226 661.326 564.226 660.823 564.204 660.331V658.18C564.204 657.195 564.097 656.585 563.883 656.349C563.669 656.114 563.134 655.975 562.278 655.932H561.7V654.455C561.743 654.455 562.556 654.402 564.14 654.295C565.724 654.188 566.569 654.123 566.676 654.102H566.901V659.817C566.901 663.67 566.912 665.629 566.933 665.693C566.998 666.121 567.147 666.399 567.383 666.528C567.618 666.656 568.1 666.752 568.828 666.817H569.406V668.294C569.363 668.294 568.56 668.347 566.998 668.454C565.435 668.561 564.611 668.625 564.525 668.647H564.3V666.431Z" fill="black"/>
<path d="M571.204 666.817H571.653C572.488 666.817 572.991 666.667 573.162 666.367V666.11C573.162 665.918 573.162 665.671 573.162 665.372C573.162 665.072 573.162 664.719 573.162 664.312C573.162 663.906 573.173 663.445 573.194 662.932C573.216 662.418 573.216 661.883 573.194 661.326C573.173 660.77 573.173 660.181 573.194 659.56C573.216 658.939 573.216 658.329 573.194 657.73C573.194 656.938 573.194 656.103 573.194 655.226C573.194 654.348 573.194 653.545 573.194 652.818C573.194 652.09 573.194 651.448 573.194 650.891C573.194 650.335 573.184 649.864 573.162 649.478C573.141 649.093 573.141 648.911 573.162 648.933C573.098 648.526 572.948 648.258 572.713 648.13C572.477 648.001 571.996 647.905 571.268 647.841H570.69V647.102C570.69 646.61 570.711 646.364 570.754 646.364L571.075 646.332C571.289 646.31 571.6 646.289 572.006 646.268C572.413 646.246 572.809 646.225 573.194 646.203C573.558 646.182 573.954 646.161 574.382 646.139C574.811 646.118 575.132 646.086 575.346 646.043C575.56 646 575.677 645.989 575.699 646.011H575.795V656.125C575.795 662.91 575.806 666.324 575.827 666.367C575.913 666.538 576.041 666.656 576.213 666.72C576.662 666.785 577.187 666.817 577.786 666.817H578.3V668.294H578.043L577.304 668.262C576.812 668.24 576.288 668.229 575.731 668.229C575.174 668.229 574.768 668.219 574.511 668.197C574.254 668.176 573.847 668.176 573.291 668.197C572.734 668.219 572.199 668.24 571.685 668.262L570.947 668.294H570.69V666.817H571.204Z" fill="black"/>
<path d="M579.68 661.294C579.68 660.117 579.894 659.047 580.322 658.083C580.751 657.12 581.286 656.339 581.928 655.739C582.57 655.14 583.266 654.691 584.015 654.391C584.764 654.091 585.47 653.931 586.134 653.909C587.268 653.909 588.242 654.102 589.056 654.487C589.869 654.872 590.49 655.408 590.918 656.093C591.346 656.778 591.646 657.463 591.817 658.147C591.988 658.832 592.085 659.592 592.106 660.427C592.106 660.577 592.031 660.727 591.881 660.877H582.827V661.358C582.827 664.526 583.897 666.453 586.038 667.138C586.466 667.266 586.937 667.33 587.45 667.33C588.349 667.33 589.12 666.988 589.762 666.303C590.126 665.939 590.415 665.49 590.629 664.954L590.95 664.184C591.014 664.12 591.186 664.087 591.464 664.087H591.56C591.924 664.087 592.106 664.194 592.106 664.409C592.106 664.494 592.074 664.633 592.01 664.826C591.603 666.003 590.929 666.934 589.987 667.619C589.045 668.304 587.986 668.647 586.808 668.647C584.775 668.647 583.084 667.908 581.735 666.431C580.387 664.954 579.702 663.242 579.68 661.294ZM589.473 659.464C589.238 656.724 588.221 655.268 586.423 655.097H586.359C586.187 655.097 586.016 655.108 585.845 655.129C585.674 655.151 585.406 655.236 585.042 655.386C584.678 655.536 584.368 655.761 584.111 656.06C583.854 656.36 583.608 656.799 583.373 657.377C583.137 657.955 582.966 658.661 582.859 659.496V659.721H589.473V659.464Z" fill="black"/>
<path d="M602.509 658.147C602.509 657.291 602.22 656.553 601.642 655.932C601.064 655.311 600.229 655.001 599.138 655.001C598.367 655.001 597.704 655.14 597.147 655.418C596.505 655.825 596.184 656.382 596.184 657.088C596.162 657.195 596.162 657.334 596.184 657.505C596.205 657.677 596.376 657.933 596.698 658.276C597.019 658.618 597.479 658.886 598.078 659.079C598.463 659.186 598.934 659.282 599.491 659.368C600.047 659.453 600.518 659.55 600.904 659.657C601.289 659.764 601.631 659.903 601.931 660.074C602.295 660.245 602.648 660.459 602.991 660.716C603.333 660.973 603.676 661.412 604.018 662.033C604.361 662.653 604.543 663.317 604.564 664.023C604.564 665.35 604.157 666.442 603.344 667.298C602.53 668.154 601.214 668.593 599.395 668.615H599.138C598.025 668.615 596.997 668.229 596.055 667.459L595.799 667.684L595.51 667.973C595.381 668.101 595.253 668.219 595.124 668.326L594.771 668.647H594.514H594.386C594.322 668.647 594.225 668.583 594.097 668.454V665.918V664.055C594.097 663.606 594.118 663.338 594.161 663.253C594.204 663.167 594.311 663.114 594.482 663.092H594.771C595.028 663.092 595.199 663.135 595.285 663.221C595.37 663.306 595.424 663.435 595.445 663.606C595.467 663.777 595.542 664.066 595.67 664.473C595.799 664.879 596.002 665.329 596.28 665.821C597.029 666.913 598.067 667.459 599.395 667.459C601.471 667.459 602.509 666.624 602.509 664.954C602.509 664.334 602.316 663.831 601.931 663.445C601.503 662.932 600.615 662.546 599.266 662.289C597.918 662.033 597.029 661.786 596.601 661.551C595.831 661.187 595.221 660.695 594.771 660.074C594.322 659.453 594.097 658.79 594.097 658.083C594.097 657.248 594.279 656.542 594.643 655.964C595.007 655.386 595.467 654.958 596.023 654.68C596.58 654.402 597.115 654.209 597.629 654.102C598.142 653.995 598.613 653.941 599.041 653.941H599.395C600.251 653.941 601 654.102 601.642 654.423L602.124 654.68L602.413 654.455C602.627 654.262 602.862 654.08 603.119 653.909H603.376H603.504C603.569 653.909 603.665 653.973 603.793 654.102V658.34L603.601 658.533H602.702C602.573 658.404 602.509 658.276 602.509 658.147Z" fill="black"/>
<path d="M1242.41 606L1242.41 14" stroke="black" stroke-width="4" stroke-linecap="round"/>
<path d="M1240.41 606C1240.41 607.105 1241.31 608 1242.41 608C1243.51 608 1244.41 607.105 1244.41 606L1240.41 606ZM1242.41 310L1230.86 330L1253.96 330L1242.41 310ZM1244.41 606L1244.41 328L1240.41 328L1240.41 606L1244.41 606Z" fill="black"/>
<path d="M1278.26 311.815C1277.37 311.815 1276.9 311.762 1276.84 311.657C1276.82 311.604 1276.8 311.499 1276.8 311.341C1276.8 310.71 1276.95 310.276 1277.24 310.039C1277.29 310.013 1277.51 310 1277.91 310C1278.99 310.053 1280.78 310.079 1283.27 310.079C1284.17 310.079 1285 310.079 1285.76 310.079C1286.52 310.079 1287.11 310.066 1287.54 310.039C1287.96 310.013 1288.22 310.013 1288.32 310.039C1288.74 310.039 1288.96 310.171 1288.96 310.434C1288.96 310.487 1288.93 310.671 1288.88 310.986C1288.74 311.433 1288.61 311.696 1288.48 311.775H1288.4C1288.35 311.775 1288.28 311.775 1288.21 311.775C1288.13 311.775 1288.03 311.775 1287.93 311.775C1287.82 311.775 1287.71 311.788 1287.57 311.815C1287.44 311.841 1287.32 311.841 1287.22 311.815C1286.19 311.841 1285.54 311.88 1285.25 311.933C1284.96 311.986 1284.72 312.13 1284.54 312.367C1284.51 312.42 1284.14 313.8 1283.43 316.509C1282.72 319.218 1282.01 322.058 1281.3 325.03C1280.59 328.002 1280.2 329.751 1280.12 330.277C1280.07 330.645 1280.04 331.027 1280.04 331.421C1280.04 332.841 1280.45 333.959 1281.26 334.774C1282.08 335.59 1283.21 335.997 1284.66 335.997C1286.42 335.997 1288.18 335.405 1289.94 334.222C1291.7 333.038 1292.99 331.25 1293.81 328.857L1295.82 320.927C1297.06 315.878 1297.67 313.248 1297.67 313.038C1297.67 312.328 1296.83 311.92 1295.15 311.815C1294.52 311.815 1294.2 311.67 1294.2 311.381C1294.2 311.328 1294.23 311.17 1294.28 310.907C1294.39 310.487 1294.46 310.237 1294.52 310.158C1294.57 310.079 1294.7 310.026 1294.91 310C1294.99 310 1295.41 310.013 1296.17 310.039C1296.94 310.066 1298.04 310.092 1299.49 310.118C1300.83 310.118 1301.86 310.105 1302.57 310.079C1303.28 310.053 1303.66 310.039 1303.71 310.039C1304.1 310.039 1304.3 310.171 1304.3 310.434C1304.3 311.013 1304.2 311.407 1303.99 311.617C1303.91 311.749 1303.62 311.815 1303.12 311.815C1301.25 311.92 1300.08 312.446 1299.61 313.393C1299.55 313.524 1298.9 316.062 1297.63 321.006C1296.56 325.451 1295.9 328.068 1295.66 328.857C1294.79 331.487 1293.28 333.63 1291.12 335.287C1288.97 336.944 1286.73 337.786 1284.42 337.812C1282 337.812 1280.07 337.075 1278.62 335.603C1277.17 334.13 1276.44 332.381 1276.41 330.356V329.725C1276.41 329.251 1277.13 326.122 1278.58 320.336C1279.87 315.05 1280.51 312.328 1280.51 312.17C1280.51 311.986 1279.76 311.867 1278.26 311.815Z" fill="black"/>
<path d="M1306.12 326.127C1306.12 325.681 1306.3 325.29 1306.65 324.956C1307 324.621 1307.41 324.444 1307.88 324.426C1308.21 324.426 1308.49 324.537 1308.71 324.76C1308.94 324.983 1309.06 325.262 1309.08 325.597C1309.08 326.025 1308.89 326.415 1308.52 326.768C1308.15 327.122 1307.74 327.308 1307.29 327.326C1307.01 327.326 1306.75 327.233 1306.51 327.047C1306.27 326.861 1306.14 326.555 1306.12 326.127ZM1301.57 334.857C1301.57 334.708 1301.66 334.42 1301.82 333.992C1301.99 333.564 1302.21 333.09 1302.49 332.57C1302.77 332.049 1303.18 331.575 1303.72 331.147C1304.26 330.72 1304.82 330.515 1305.39 330.534C1306.12 330.534 1306.72 330.748 1307.21 331.175C1307.69 331.603 1307.94 332.179 1307.96 332.904C1307.96 333.22 1307.83 333.741 1307.57 334.466C1307.31 335.191 1306.94 336.168 1306.45 337.395C1305.97 338.622 1305.58 339.673 1305.28 340.546C1305.19 340.956 1305.14 341.253 1305.14 341.439C1305.14 341.904 1305.3 342.136 1305.62 342.136C1305.78 342.136 1305.96 342.108 1306.15 342.053C1306.33 341.997 1306.55 341.867 1306.79 341.662C1307.03 341.458 1307.28 341.132 1307.54 340.686C1307.8 340.24 1308.03 339.691 1308.24 339.04C1308.29 338.817 1308.34 338.687 1308.38 338.65C1308.42 338.613 1308.57 338.594 1308.85 338.594C1309.22 338.594 1309.41 338.687 1309.41 338.873C1309.41 339.022 1309.33 339.31 1309.16 339.738C1308.99 340.165 1308.76 340.639 1308.46 341.16C1308.16 341.681 1307.75 342.146 1307.21 342.555C1306.67 342.964 1306.09 343.168 1305.48 343.168C1304.88 343.168 1304.33 342.973 1303.83 342.582C1303.33 342.192 1303.07 341.597 1303.05 340.797C1303.05 340.481 1303.1 340.184 1303.19 339.905C1303.28 339.626 1303.68 338.566 1304.39 336.725C1305.1 334.847 1305.51 333.723 1305.62 333.351C1305.73 332.979 1305.79 332.616 1305.81 332.263C1305.81 331.817 1305.65 331.594 1305.34 331.594H1305.28C1304.72 331.594 1304.21 331.9 1303.75 332.514C1303.28 333.128 1302.93 333.908 1302.69 334.857C1302.67 334.875 1302.65 334.903 1302.63 334.94C1302.61 334.978 1302.6 335.005 1302.6 335.024C1302.6 335.043 1302.59 335.061 1302.55 335.08C1302.51 335.098 1302.48 335.108 1302.47 335.108C1302.45 335.108 1302.41 335.108 1302.35 335.108C1302.3 335.108 1302.22 335.108 1302.13 335.108H1301.74C1301.63 334.996 1301.57 334.913 1301.57 334.857Z" fill="black"/>
<path d="M1439.41 606L1439.41 14" stroke="black" stroke-width="4" stroke-linecap="round"/>
<path d="M1437.41 606C1437.41 607.105 1438.31 608 1439.41 608C1440.51 608 1441.41 607.105 1441.41 606L1437.41 606ZM1439.41 310L1427.86 330L1450.96 330L1439.41 310ZM1441.41 606L1441.41 328L1437.41 328L1437.41 606L1441.41 606Z" fill="black"/>
<path d="M1475.27 311.824C1474.38 311.824 1473.9 311.771 1473.85 311.665C1473.82 311.612 1473.81 311.507 1473.81 311.348C1473.81 310.714 1473.95 310.278 1474.24 310.04C1474.3 310.013 1474.52 310 1474.92 310C1476 310.053 1477.8 310.079 1480.31 310.079C1481.21 310.079 1482.04 310.079 1482.81 310.079C1483.57 310.079 1484.17 310.066 1484.59 310.04C1485.01 310.013 1485.28 310.013 1485.38 310.04C1485.81 310.04 1486.02 310.172 1486.02 310.436C1486.02 310.489 1485.99 310.674 1485.94 310.991C1485.81 311.441 1485.68 311.705 1485.54 311.784H1485.46C1485.41 311.784 1485.35 311.784 1485.27 311.784C1485.19 311.784 1485.09 311.784 1484.99 311.784C1484.88 311.784 1484.76 311.798 1484.63 311.824C1484.5 311.85 1484.38 311.85 1484.27 311.824C1483.24 311.85 1482.58 311.89 1482.29 311.943C1482 311.996 1481.76 312.141 1481.58 312.379C1481.55 312.432 1481.18 313.82 1480.47 316.542C1479.75 319.265 1479.04 322.12 1478.33 325.107C1477.61 328.094 1477.22 329.852 1477.14 330.381C1477.08 330.751 1477.06 331.134 1477.06 331.531C1477.06 332.958 1477.47 334.081 1478.29 334.901C1479.11 335.72 1480.24 336.13 1481.7 336.13C1483.47 336.13 1485.24 335.535 1487.01 334.346C1488.78 333.156 1490.08 331.359 1490.9 328.953L1492.92 320.983C1494.16 315.908 1494.78 313.265 1494.78 313.053C1494.78 312.339 1493.94 311.93 1492.24 311.824C1491.61 311.824 1491.29 311.679 1491.29 311.388C1491.29 311.335 1491.32 311.176 1491.37 310.912C1491.48 310.489 1491.56 310.238 1491.61 310.159C1491.66 310.079 1491.8 310.026 1492.01 310C1492.09 310 1492.51 310.013 1493.28 310.04C1494.04 310.066 1495.15 310.093 1496.61 310.119C1497.95 310.119 1498.99 310.106 1499.7 310.079C1500.41 310.053 1500.8 310.04 1500.85 310.04C1501.25 310.04 1501.44 310.172 1501.44 310.436C1501.44 311.018 1501.34 311.414 1501.13 311.626C1501.05 311.758 1500.76 311.824 1500.25 311.824C1498.38 311.93 1497.2 312.458 1496.73 313.41C1496.67 313.542 1496.01 316.093 1494.74 321.063C1493.66 325.53 1493 328.16 1492.76 328.953C1491.89 331.597 1490.37 333.751 1488.2 335.416C1486.03 337.082 1483.79 337.928 1481.46 337.954C1479.03 337.954 1477.08 337.214 1475.63 335.734C1474.18 334.253 1473.44 332.495 1473.41 330.46V329.826C1473.41 329.35 1474.14 326.204 1475.59 320.389C1476.89 315.075 1477.53 312.339 1477.53 312.181C1477.53 311.996 1476.78 311.877 1475.27 311.824Z" fill="black"/>
<path d="M1506.44 326.321C1506.44 325.742 1506.64 325.294 1507.03 324.976C1507.42 324.658 1507.82 324.499 1508.23 324.499C1508.55 324.499 1508.81 324.593 1509.02 324.78C1509.22 324.967 1509.35 325.228 1509.41 325.565C1509.41 326.088 1509.23 326.527 1508.88 326.882C1508.52 327.237 1508.11 327.415 1507.64 327.415C1507.31 327.415 1507.03 327.321 1506.8 327.134C1506.58 326.948 1506.46 326.677 1506.44 326.321ZM1506.19 332.489C1506.19 331.947 1505.94 331.676 1505.46 331.676C1505.05 331.676 1504.65 331.788 1504.28 332.012C1503.91 332.237 1503.58 332.526 1503.3 332.881C1503.02 333.236 1502.79 333.582 1502.63 333.919C1502.46 334.255 1502.3 334.554 1502.15 334.816L1501.95 335.208C1501.92 335.227 1501.77 335.236 1501.5 335.236H1501.11C1501 335.124 1500.94 335.049 1500.94 335.012C1500.94 334.974 1500.98 334.853 1501.06 334.647C1501.45 333.732 1502 332.872 1502.71 332.068C1503.42 331.265 1504.24 330.797 1505.18 330.667C1505.2 330.667 1505.27 330.667 1505.4 330.667C1505.53 330.667 1505.64 330.657 1505.74 330.639C1506.19 330.657 1506.6 330.751 1506.97 330.919C1507.44 331.181 1507.79 331.47 1508.04 331.788C1508.28 332.106 1508.4 332.601 1508.4 333.274V333.722L1507.03 339.301C1506.07 343.039 1505.57 344.982 1505.51 345.132C1505.18 346.066 1504.52 346.898 1503.55 347.627C1502.58 348.356 1501.47 348.729 1500.22 348.748C1499.28 348.748 1498.65 348.552 1498.31 348.159C1497.97 347.767 1497.8 347.337 1497.78 346.87C1497.78 346.365 1497.95 345.935 1498.31 345.58C1498.66 345.225 1499.09 345.038 1499.6 345.02C1499.92 345.02 1500.19 345.113 1500.41 345.3C1500.64 345.487 1500.76 345.777 1500.78 346.169C1500.78 346.842 1500.48 347.356 1499.88 347.711C1499.99 347.73 1500.12 347.739 1500.27 347.739C1500.91 347.739 1501.49 347.477 1502.01 346.954C1502.53 346.431 1502.93 345.814 1503.21 345.104L1503.52 343.926C1503.73 343.123 1503.97 342.151 1504.25 341.011C1504.53 339.871 1504.83 338.703 1505.15 337.507C1505.47 336.311 1505.72 335.273 1505.91 334.395C1506.09 333.517 1506.2 332.984 1506.21 332.797C1506.21 332.666 1506.21 332.564 1506.19 332.489Z" fill="black"/>
<path d="M1563.41 319.051C1563.41 318.595 1563.66 318.245 1564.15 318H1597.61C1598.13 318.28 1598.4 318.63 1598.4 319.051C1598.4 319.436 1598.15 319.769 1597.66 320.049L1580.96 320.101H1564.25C1563.69 319.926 1563.41 319.576 1563.41 319.051ZM1563.41 329.242C1563.41 328.716 1563.69 328.366 1564.25 328.191H1597.66C1598.15 328.541 1598.4 328.892 1598.4 329.242C1598.4 329.697 1598.13 330.047 1597.61 330.292H1564.15C1563.66 330.047 1563.41 329.697 1563.41 329.242Z" fill="black"/>
<path d="M1673.41 606L1673.41 14" stroke="black" stroke-width="4" stroke-linecap="round"/>
<path d="M1671.41 606C1671.41 607.105 1672.31 608 1673.41 608C1674.51 608 1675.41 607.105 1675.41 606L1671.41 606ZM1673.41 310L1661.86 330L1684.96 330L1673.41 310ZM1675.41 606L1675.41 328L1671.41 328L1671.41 606L1675.41 606Z" fill="black"/>
<path d="M1709.14 311.695C1708.31 311.695 1707.86 311.645 1707.82 311.547C1707.79 311.498 1707.78 311.4 1707.78 311.253C1707.78 310.663 1707.91 310.258 1708.18 310.037C1708.23 310.012 1708.44 310 1708.81 310C1709.82 310.049 1711.49 310.074 1713.82 310.074C1714.66 310.074 1715.43 310.074 1716.14 310.074C1716.85 310.074 1717.41 310.061 1717.8 310.037C1718.19 310.012 1718.44 310.012 1718.54 310.037C1718.93 310.037 1719.13 310.16 1719.13 310.405C1719.13 310.454 1719.1 310.626 1719.05 310.921C1718.93 311.338 1718.81 311.584 1718.68 311.658H1718.61C1718.56 311.658 1718.5 311.658 1718.43 311.658C1718.35 311.658 1718.27 311.658 1718.17 311.658C1718.07 311.658 1717.96 311.67 1717.84 311.695C1717.71 311.719 1717.6 311.719 1717.5 311.695C1716.55 311.719 1715.93 311.756 1715.66 311.805C1715.39 311.854 1715.17 311.989 1715 312.21C1714.97 312.259 1714.63 313.549 1713.97 316.078C1713.3 318.608 1712.64 321.26 1711.98 324.036C1711.32 326.811 1710.95 328.444 1710.87 328.935C1710.82 329.279 1710.8 329.635 1710.8 330.004C1710.8 331.33 1711.18 332.373 1711.94 333.135C1712.7 333.896 1713.76 334.277 1715.11 334.277C1716.76 334.277 1718.4 333.724 1720.05 332.619C1721.69 331.514 1722.89 329.844 1723.66 327.609L1725.54 320.204C1726.69 315.489 1727.27 313.033 1727.27 312.837C1727.27 312.174 1726.48 311.793 1724.91 311.695C1724.32 311.695 1724.02 311.56 1724.02 311.289C1724.02 311.24 1724.05 311.093 1724.1 310.847C1724.2 310.454 1724.27 310.221 1724.32 310.147C1724.37 310.074 1724.49 310.025 1724.69 310C1724.76 310 1725.15 310.012 1725.87 310.037C1726.58 310.061 1727.61 310.086 1728.96 310.111C1730.21 310.111 1731.17 310.098 1731.83 310.074C1732.5 310.049 1732.85 310.037 1732.9 310.037C1733.27 310.037 1733.46 310.16 1733.46 310.405C1733.46 310.946 1733.36 311.314 1733.16 311.51C1733.09 311.633 1732.82 311.695 1732.35 311.695C1730.61 311.793 1729.51 312.284 1729.07 313.168C1729.02 313.291 1728.41 315.661 1727.23 320.278C1726.22 324.429 1725.61 326.872 1725.39 327.609C1724.58 330.065 1723.17 332.067 1721.15 333.614C1719.14 335.161 1717.05 335.947 1714.89 335.971C1712.63 335.971 1710.82 335.284 1709.47 333.908C1708.12 332.533 1707.43 330.9 1707.41 329.009V328.419C1707.41 327.977 1708.09 325.055 1709.44 319.652C1710.64 314.715 1711.24 312.174 1711.24 312.026C1711.24 311.854 1710.54 311.744 1709.14 311.695Z" fill="black"/>
<path d="M1735.15 325.06C1735.15 324.643 1735.32 324.278 1735.65 323.966C1735.98 323.653 1736.36 323.488 1736.79 323.471C1737.11 323.471 1737.37 323.575 1737.58 323.784C1737.78 323.992 1737.9 324.252 1737.91 324.565C1737.91 324.964 1737.74 325.329 1737.39 325.659C1737.05 325.989 1736.66 326.162 1736.25 326.18C1735.99 326.18 1735.74 326.093 1735.52 325.919C1735.29 325.746 1735.17 325.459 1735.15 325.06ZM1730.91 333.212C1730.91 333.073 1730.99 332.804 1731.14 332.404C1731.3 332.005 1731.51 331.562 1731.77 331.076C1732.03 330.59 1732.41 330.147 1732.91 329.748C1733.42 329.349 1733.94 329.158 1734.48 329.175C1735.15 329.175 1735.72 329.375 1736.17 329.774C1736.62 330.173 1736.85 330.712 1736.87 331.389C1736.87 331.684 1736.75 332.17 1736.51 332.847C1736.26 333.524 1735.92 334.436 1735.47 335.582C1735.01 336.728 1734.65 337.709 1734.37 338.525C1734.29 338.907 1734.24 339.185 1734.24 339.359C1734.24 339.793 1734.39 340.01 1734.68 340.01C1734.84 340.01 1735.01 339.984 1735.18 339.931C1735.35 339.879 1735.55 339.758 1735.78 339.567C1736 339.376 1736.24 339.072 1736.48 338.655C1736.72 338.239 1736.94 337.726 1737.13 337.119C1737.18 336.91 1737.23 336.789 1737.26 336.754C1737.3 336.719 1737.45 336.702 1737.71 336.702C1738.05 336.702 1738.23 336.789 1738.23 336.962C1738.23 337.101 1738.15 337.37 1737.99 337.77C1737.84 338.169 1737.62 338.612 1737.34 339.098C1737.06 339.584 1736.67 340.018 1736.17 340.4C1735.67 340.782 1735.13 340.973 1734.55 340.973C1734 340.973 1733.49 340.791 1733.02 340.426C1732.55 340.062 1732.31 339.506 1732.29 338.759C1732.29 338.464 1732.33 338.186 1732.42 337.926C1732.51 337.666 1732.88 336.676 1733.54 334.957C1734.2 333.203 1734.58 332.153 1734.68 331.805C1734.79 331.458 1734.85 331.12 1734.87 330.79C1734.87 330.373 1734.72 330.165 1734.42 330.165H1734.37C1733.85 330.165 1733.37 330.451 1732.94 331.024C1732.51 331.597 1732.18 332.326 1731.95 333.212C1731.93 333.229 1731.91 333.255 1731.9 333.29C1731.88 333.325 1731.87 333.351 1731.87 333.368C1731.87 333.385 1731.85 333.403 1731.82 333.42C1731.78 333.438 1731.76 333.446 1731.74 333.446C1731.72 333.446 1731.69 333.446 1731.64 333.446C1731.59 333.446 1731.52 333.446 1731.43 333.446H1731.06C1730.96 333.342 1730.91 333.264 1730.91 333.212Z" fill="black"/>
<path d="M1747.08 325.164C1747.08 324.626 1747.26 324.209 1747.63 323.914C1747.99 323.619 1748.37 323.471 1748.75 323.471C1749.04 323.471 1749.29 323.558 1749.48 323.731C1749.67 323.905 1749.79 324.148 1749.84 324.461C1749.84 324.947 1749.68 325.355 1749.35 325.685C1749.02 326.015 1748.64 326.18 1748.2 326.18C1747.89 326.18 1747.63 326.093 1747.42 325.919C1747.21 325.746 1747.1 325.494 1747.08 325.164ZM1746.85 330.894C1746.85 330.39 1746.62 330.139 1746.17 330.139C1745.79 330.139 1745.42 330.243 1745.08 330.451C1744.73 330.659 1744.43 330.929 1744.16 331.258C1743.9 331.588 1743.7 331.91 1743.54 332.222C1743.38 332.535 1743.24 332.813 1743.1 333.056L1742.91 333.42C1742.88 333.438 1742.74 333.446 1742.5 333.446H1742.13C1742.03 333.342 1741.98 333.273 1741.98 333.238C1741.98 333.203 1742.01 333.09 1742.08 332.899C1742.45 332.049 1742.96 331.25 1743.62 330.503C1744.28 329.757 1745.04 329.322 1745.91 329.201C1745.93 329.201 1746 329.201 1746.12 329.201C1746.24 329.201 1746.34 329.192 1746.43 329.175C1746.85 329.192 1747.23 329.279 1747.58 329.435C1748.01 329.678 1748.34 329.948 1748.57 330.243C1748.79 330.538 1748.91 330.998 1748.91 331.623V332.04L1747.63 337.223C1746.74 340.695 1746.27 342.501 1746.22 342.64C1745.91 343.508 1745.3 344.281 1744.4 344.958C1743.5 345.635 1742.46 345.983 1741.3 346C1740.43 346 1739.84 345.818 1739.53 345.453C1739.22 345.088 1739.05 344.689 1739.03 344.255C1739.03 343.786 1739.2 343.387 1739.53 343.057C1739.86 342.727 1740.26 342.553 1740.73 342.536C1741.02 342.536 1741.27 342.623 1741.48 342.796C1741.69 342.97 1741.8 343.239 1741.82 343.604C1741.82 344.229 1741.54 344.706 1740.99 345.036C1741.09 345.054 1741.21 345.062 1741.35 345.062C1741.94 345.062 1742.48 344.819 1742.97 344.333C1743.45 343.847 1743.83 343.274 1744.09 342.614L1744.37 341.52C1744.56 340.774 1744.79 339.871 1745.05 338.812C1745.31 337.752 1745.59 336.667 1745.88 335.556C1746.18 334.445 1746.41 333.481 1746.59 332.665C1746.76 331.849 1746.86 331.354 1746.87 331.18C1746.87 331.059 1746.86 330.963 1746.85 330.894Z" fill="black"/>
<path d="M1367.84 656.902C1367.84 655.18 1368.17 653.598 1368.83 652.157C1369.49 650.715 1370.34 649.564 1371.38 648.703C1372.42 647.842 1373.52 647.181 1374.66 646.721C1375.8 646.26 1376.88 646.02 1377.9 646C1377.96 646 1378.05 646 1378.17 646C1378.29 646 1378.37 646.01 1378.41 646.03C1380.23 646.03 1381.84 646.711 1383.25 648.072L1383.64 648.433L1384.54 647.261C1385.08 646.521 1385.39 646.11 1385.47 646.03C1385.49 646.03 1385.53 646.03 1385.59 646.03C1385.65 646.03 1385.71 646.02 1385.77 646H1385.89C1385.95 646 1386.04 646.06 1386.16 646.18V654.59L1385.98 654.77H1384.96C1384.84 654.65 1384.77 654.479 1384.75 654.259C1384.57 652.617 1384.09 651.196 1383.31 649.994C1382.53 648.793 1381.57 648.002 1380.45 647.622C1380.07 647.482 1379.57 647.412 1378.95 647.412C1378.45 647.412 1377.95 647.452 1377.45 647.532C1376.95 647.612 1376.35 647.822 1375.65 648.162C1374.95 648.503 1374.33 648.913 1373.79 649.394C1373.24 649.874 1372.75 650.605 1372.31 651.586C1371.87 652.567 1371.59 653.649 1371.47 654.83C1371.39 655.671 1371.35 656.432 1371.35 657.112C1371.35 658.634 1371.54 659.976 1371.92 661.137C1372.3 662.298 1372.76 663.199 1373.3 663.84C1373.85 664.481 1374.49 665.011 1375.23 665.432C1375.97 665.852 1376.65 666.122 1377.27 666.243C1377.89 666.363 1378.5 666.433 1379.1 666.453C1380.04 666.453 1380.86 666.243 1381.56 665.822C1382.26 665.402 1382.73 664.851 1382.95 664.17C1383.01 663.97 1383.04 663.369 1383.04 662.368V660.806C1383.02 660.786 1382.97 660.746 1382.89 660.686C1382.81 660.626 1382.75 660.586 1382.71 660.566C1382.67 660.546 1382.58 660.516 1382.44 660.476C1382.29 660.436 1382.13 660.416 1381.95 660.416C1381.77 660.416 1381.53 660.406 1381.23 660.386C1380.93 660.366 1380.54 660.356 1380.06 660.356H1379.28V658.974H1379.64L1384.45 659.065C1386.57 659.065 1387.75 659.035 1387.99 658.974H1388.23V660.356H1387.81C1386.87 660.356 1386.34 660.476 1386.22 660.716C1386.18 660.796 1386.16 661.868 1386.16 663.93V666.993C1386.04 667.113 1385.95 667.174 1385.89 667.174C1385.81 667.174 1385.63 667.073 1385.35 666.873C1384.91 666.573 1384.52 666.253 1384.18 665.912L1383.79 665.552C1383.47 666.092 1382.84 666.603 1381.89 667.083C1380.95 667.564 1379.77 667.814 1378.35 667.834C1376.57 667.834 1374.89 667.394 1373.3 666.513C1371.72 665.632 1370.42 664.34 1369.4 662.639C1368.38 660.937 1367.86 659.024 1367.84 656.902Z" fill="black"/>
<path d="M1390.81 665.792H1391.23C1392.02 665.792 1392.49 665.652 1392.65 665.372V665.131C1392.65 664.951 1392.65 664.721 1392.65 664.44C1392.65 664.16 1392.66 663.85 1392.68 663.509C1392.7 663.169 1392.7 662.779 1392.68 662.338C1392.66 661.898 1392.66 661.477 1392.68 661.077C1392.68 660.456 1392.68 659.795 1392.68 659.095C1392.68 658.394 1392.68 657.803 1392.68 657.323L1392.65 656.632C1392.59 656.251 1392.45 656.001 1392.23 655.881C1392.01 655.761 1391.56 655.671 1390.87 655.611H1390.33V654.92C1390.33 654.459 1390.35 654.229 1390.39 654.229L1390.69 654.199C1390.89 654.179 1391.17 654.159 1391.54 654.139C1391.9 654.119 1392.26 654.099 1392.62 654.079C1392.94 654.059 1393.29 654.039 1393.67 654.019C1394.05 653.999 1394.34 653.969 1394.54 653.929C1394.74 653.889 1394.85 653.879 1394.87 653.899H1394.96V655.971C1395.74 654.61 1396.71 653.929 1397.87 653.929H1398.05C1398.95 653.929 1399.61 654.149 1400.03 654.59C1400.46 655.03 1400.67 655.491 1400.67 655.971C1400.67 656.392 1400.54 656.752 1400.27 657.052C1400.01 657.353 1399.63 657.503 1399.13 657.503C1398.63 657.503 1398.26 657.343 1398.02 657.022C1397.78 656.702 1397.65 656.362 1397.63 656.001C1397.63 655.821 1397.65 655.661 1397.69 655.521C1397.73 655.38 1397.78 655.26 1397.84 655.16C1397.9 655.06 1397.93 655.01 1397.93 655.01C1397.89 654.97 1397.66 655.01 1397.24 655.13C1396.92 655.29 1396.68 655.44 1396.52 655.581C1395.58 656.482 1395.11 658.274 1395.11 660.957V662.548C1395.11 662.809 1395.11 663.079 1395.11 663.359C1395.11 663.64 1395.11 663.9 1395.11 664.14C1395.11 664.38 1395.12 664.581 1395.14 664.741C1395.16 664.901 1395.16 665.051 1395.14 665.191V665.341C1395.16 665.382 1395.19 665.422 1395.23 665.462C1395.27 665.502 1395.32 665.532 1395.38 665.552C1395.44 665.572 1395.49 665.602 1395.53 665.642C1395.57 665.682 1395.64 665.702 1395.74 665.702C1395.84 665.702 1395.91 665.712 1395.95 665.732C1395.99 665.752 1396.08 665.762 1396.22 665.762C1396.36 665.762 1396.45 665.762 1396.49 665.762C1396.53 665.762 1396.63 665.772 1396.79 665.792C1396.95 665.812 1397.05 665.812 1397.09 665.792H1398.02V667.174H1397.75C1397.39 667.113 1396.12 667.083 1393.94 667.083C1391.88 667.083 1390.75 667.113 1390.57 667.174H1390.33V665.792H1390.81Z" fill="black"/>
<path d="M1402.35 660.746C1402.35 658.844 1403 657.202 1404.3 655.821C1405.6 654.439 1407.17 653.739 1409.01 653.719C1410.82 653.719 1412.37 654.399 1413.67 655.761C1414.97 657.122 1415.63 658.774 1415.65 660.716C1415.65 662.618 1415.01 664.22 1413.73 665.522C1412.45 666.823 1410.88 667.474 1409.01 667.474C1407.07 667.474 1405.48 666.803 1404.24 665.462C1403 664.12 1402.37 662.548 1402.35 660.746ZM1409.01 666.273C1411.46 666.273 1412.68 664.641 1412.68 661.377V660.416V659.665C1412.68 659.225 1412.67 658.844 1412.65 658.524C1412.63 658.204 1412.56 657.823 1412.44 657.383C1412.32 656.942 1412.16 656.582 1411.96 656.301C1411.76 656.021 1411.45 655.741 1411.03 655.46C1410.61 655.18 1410.12 654.98 1409.56 654.86C1409.46 654.84 1409.3 654.83 1409.07 654.83C1408.47 654.83 1407.9 654.95 1407.36 655.19C1406.5 655.631 1405.94 656.241 1405.68 657.022C1405.42 657.803 1405.29 658.724 1405.29 659.785V660.386C1405.29 662.308 1405.48 663.66 1405.86 664.44C1406.5 665.662 1407.55 666.273 1409.01 666.273Z" fill="black"/>
<path d="M1428.03 665.432C1426.9 666.793 1425.63 667.474 1424.21 667.474H1424C1421.5 667.474 1420.06 666.483 1419.68 664.501C1419.66 664.36 1419.64 662.989 1419.62 660.386C1419.6 658.204 1419.59 656.982 1419.59 656.722C1419.59 656.462 1419.53 656.251 1419.41 656.091C1419.21 655.771 1418.61 655.611 1417.6 655.611H1417.27V654.92C1417.27 654.459 1417.29 654.229 1417.33 654.229L1417.66 654.199C1417.86 654.179 1418.15 654.159 1418.54 654.139C1418.92 654.119 1419.3 654.099 1419.68 654.079C1420.02 654.059 1420.39 654.039 1420.79 654.019C1421.19 653.999 1421.49 653.969 1421.69 653.929C1421.89 653.889 1422.01 653.879 1422.05 653.899H1422.14V659.335C1422.16 663.019 1422.19 664.991 1422.23 665.251C1422.29 665.552 1422.43 665.792 1422.65 665.972C1423.05 666.252 1423.65 666.393 1424.45 666.393C1424.97 666.393 1425.44 666.303 1425.86 666.122C1426.28 665.942 1426.6 665.712 1426.82 665.432C1427.04 665.151 1427.24 664.831 1427.43 664.471C1427.61 664.11 1427.73 663.81 1427.79 663.57C1427.85 663.329 1427.89 663.089 1427.91 662.849C1427.91 662.829 1427.91 662.658 1427.91 662.338C1427.91 662.018 1427.92 661.617 1427.94 661.137C1427.96 660.656 1427.96 660.186 1427.94 659.725V657.713C1427.94 656.792 1427.84 656.221 1427.64 656.001C1427.44 655.781 1426.93 655.651 1426.13 655.611H1425.59V654.229C1425.63 654.229 1426.39 654.179 1427.88 654.079C1429.36 653.979 1430.15 653.919 1430.25 653.899H1430.46V659.245C1430.46 662.849 1430.47 664.681 1430.49 664.741C1430.55 665.141 1430.69 665.402 1430.91 665.522C1431.13 665.642 1431.58 665.732 1432.26 665.792H1432.8V667.174C1432.76 667.174 1432.01 667.224 1430.55 667.324C1429.09 667.424 1428.32 667.484 1428.24 667.504H1428.03V665.432Z" fill="black"/>
<path d="M1434.3 671.618H1434.72C1435.5 671.618 1435.97 671.478 1436.13 671.198V670.958C1436.13 670.818 1436.13 670.627 1436.13 670.387C1436.13 670.147 1436.13 669.846 1436.13 669.486C1436.13 669.126 1436.14 668.735 1436.16 668.315C1436.18 667.894 1436.18 667.454 1436.16 666.993C1436.14 666.533 1436.14 666.042 1436.16 665.522C1436.18 665.001 1436.18 664.491 1436.16 663.99C1436.16 663.309 1436.16 662.598 1436.16 661.858C1436.16 661.117 1436.16 660.456 1436.16 659.875C1436.16 659.295 1436.16 658.764 1436.16 658.284C1436.16 657.803 1436.15 657.413 1436.13 657.112C1436.11 656.812 1436.11 656.652 1436.13 656.632C1436.07 656.251 1435.93 656.001 1435.71 655.881C1435.49 655.761 1435.04 655.671 1434.36 655.611H1433.82V654.92C1433.82 654.459 1433.84 654.229 1433.88 654.229L1434.18 654.199C1434.38 654.179 1434.67 654.159 1435.05 654.139C1435.43 654.119 1435.8 654.099 1436.16 654.079C1436.51 654.059 1436.88 654.039 1437.28 654.019C1437.68 653.999 1437.98 653.969 1438.18 653.929C1438.38 653.889 1438.49 653.879 1438.51 653.899H1438.6V654.68L1438.63 655.461L1438.87 655.25C1440.05 654.369 1441.43 653.929 1443.01 653.929C1444.63 653.929 1446.02 654.57 1447.16 655.851C1448.3 657.132 1448.88 658.744 1448.9 660.686C1448.9 662.709 1448.25 664.35 1446.95 665.612C1445.65 666.873 1444.17 667.504 1442.53 667.504C1441.17 667.504 1439.97 667.063 1438.93 666.182L1438.69 665.972V668.525V670.207C1438.69 670.747 1438.71 671.078 1438.75 671.198C1438.79 671.318 1438.9 671.428 1439.08 671.528C1439.5 671.588 1439.99 671.618 1440.55 671.618H1441.03V673H1440.79L1440.07 672.97C1439.61 672.95 1439.11 672.94 1438.57 672.94C1438.03 672.94 1437.65 672.93 1437.43 672.91C1435.36 672.91 1434.24 672.94 1434.06 673H1433.82V671.618H1434.3ZM1445.96 660.626C1445.96 659.145 1445.62 657.853 1444.93 656.752C1444.25 655.651 1443.4 655.1 1442.38 655.1C1440.96 655.1 1439.73 655.751 1438.69 657.052V664.23C1439.49 665.672 1440.61 666.393 1442.05 666.393C1443.07 666.393 1443.97 665.852 1444.75 664.771C1445.54 663.69 1445.94 662.308 1445.96 660.626Z" fill="black"/>
<path d="M1461.27 648.583C1461.13 648.443 1461.02 648.353 1460.94 648.313C1460.86 648.273 1460.7 648.242 1460.46 648.222C1460.22 648.202 1459.79 648.172 1459.17 648.132H1458.18V646.751H1474.91V646.871C1474.95 646.991 1475.09 648.152 1475.33 650.355C1475.57 652.557 1475.71 653.719 1475.75 653.839V653.959H1474.55V653.839C1474.41 652.858 1474.32 652.287 1474.28 652.127C1474.16 651.386 1473.98 650.765 1473.74 650.265C1473.5 649.764 1473.23 649.384 1472.93 649.123C1472.63 648.863 1472.23 648.653 1471.75 648.493C1471.27 648.333 1470.81 648.242 1470.37 648.222C1469.93 648.202 1469.36 648.182 1468.66 648.162H1467.46H1466.02C1465.34 648.162 1464.92 648.182 1464.76 648.222C1464.6 648.263 1464.49 648.363 1464.43 648.523C1464.41 648.563 1464.4 649.874 1464.4 652.457V656.271H1465.96C1466.02 656.271 1466.21 656.271 1466.53 656.271C1466.85 656.271 1467.09 656.261 1467.25 656.241C1467.41 656.221 1467.63 656.191 1467.91 656.151C1468.19 656.111 1468.42 656.051 1468.6 655.971C1468.78 655.891 1468.95 655.771 1469.11 655.611C1469.47 655.25 1469.68 654.509 1469.74 653.388V652.757H1470.94V661.167H1469.74V660.536C1469.68 659.435 1469.47 658.684 1469.11 658.284C1468.95 658.143 1468.77 658.033 1468.57 657.953C1468.37 657.873 1468.14 657.813 1467.88 657.773C1467.62 657.733 1467.41 657.703 1467.25 657.683C1467.09 657.663 1466.85 657.653 1466.53 657.653C1466.21 657.653 1466.02 657.653 1465.96 657.653H1464.4V661.497L1464.43 665.341C1464.57 665.482 1464.69 665.572 1464.79 665.612C1464.89 665.652 1465.14 665.692 1465.54 665.732C1465.94 665.772 1466.57 665.792 1467.43 665.792H1468.24V667.174H1467.88C1467.4 667.113 1465.74 667.083 1462.89 667.083C1460.27 667.083 1458.81 667.113 1458.51 667.174H1458.18V665.792H1459.17C1460.01 665.772 1460.52 665.742 1460.7 665.702C1460.88 665.662 1461.07 665.542 1461.27 665.341V648.583Z" fill="black"/>
<path d="M1488.54 665.432C1487.42 666.793 1486.15 667.474 1484.73 667.474H1484.52C1482.02 667.474 1480.57 666.483 1480.19 664.501C1480.17 664.36 1480.15 662.989 1480.13 660.386C1480.11 658.204 1480.1 656.982 1480.1 656.722C1480.1 656.462 1480.04 656.251 1479.92 656.091C1479.72 655.771 1479.12 655.611 1478.12 655.611H1477.79V654.92C1477.79 654.459 1477.81 654.229 1477.85 654.229L1478.18 654.199C1478.38 654.179 1478.67 654.159 1479.05 654.139C1479.43 654.119 1479.81 654.099 1480.19 654.079C1480.53 654.059 1480.9 654.039 1481.3 654.019C1481.71 653.999 1482.01 653.969 1482.21 653.929C1482.41 653.889 1482.53 653.879 1482.57 653.899H1482.66V659.335C1482.68 663.019 1482.71 664.991 1482.75 665.251C1482.81 665.552 1482.95 665.792 1483.17 665.972C1483.57 666.252 1484.17 666.393 1484.97 666.393C1485.49 666.393 1485.96 666.303 1486.38 666.122C1486.8 665.942 1487.12 665.712 1487.34 665.432C1487.56 665.151 1487.76 664.831 1487.94 664.471C1488.12 664.11 1488.24 663.81 1488.3 663.57C1488.36 663.329 1488.4 663.089 1488.42 662.849C1488.42 662.829 1488.42 662.658 1488.42 662.338C1488.42 662.018 1488.43 661.617 1488.45 661.137C1488.47 660.656 1488.47 660.186 1488.45 659.725V657.713C1488.45 656.792 1488.35 656.221 1488.15 656.001C1487.95 655.781 1487.45 655.651 1486.65 655.611H1486.11V654.229C1486.15 654.229 1486.91 654.179 1488.39 654.079C1489.87 653.979 1490.67 653.919 1490.77 653.899H1490.98V659.245C1490.98 662.849 1490.99 664.681 1491.01 664.741C1491.07 665.141 1491.21 665.402 1491.43 665.522C1491.65 665.642 1492.1 665.732 1492.78 665.792H1493.32V667.174C1493.28 667.174 1492.53 667.224 1491.07 667.324C1489.6 667.424 1488.83 667.484 1488.75 667.504H1488.54V665.432Z" fill="black"/>
<path d="M1502.6 657.683C1502.6 656.882 1502.33 656.191 1501.79 655.611C1501.25 655.03 1500.47 654.74 1499.45 654.74C1498.72 654.74 1498.1 654.87 1497.58 655.13C1496.98 655.511 1496.68 656.031 1496.68 656.692C1496.66 656.792 1496.66 656.922 1496.68 657.082C1496.7 657.242 1496.86 657.483 1497.16 657.803C1497.46 658.123 1497.89 658.374 1498.45 658.554C1498.81 658.654 1499.25 658.744 1499.78 658.824C1500.3 658.904 1500.74 658.994 1501.1 659.095C1501.46 659.195 1501.78 659.325 1502.06 659.485C1502.4 659.645 1502.73 659.845 1503.05 660.086C1503.37 660.326 1503.69 660.736 1504.01 661.317C1504.33 661.898 1504.5 662.518 1504.52 663.179C1504.52 664.42 1504.14 665.442 1503.38 666.242C1502.62 667.043 1501.39 667.454 1499.69 667.474H1499.45C1498.4 667.474 1497.44 667.113 1496.56 666.393L1496.32 666.603L1496.05 666.873C1495.93 666.993 1495.81 667.103 1495.69 667.204L1495.36 667.504H1495.12H1495C1494.94 667.504 1494.85 667.444 1494.73 667.324V664.951V663.209C1494.73 662.789 1494.75 662.538 1494.79 662.458C1494.83 662.378 1494.93 662.328 1495.09 662.308H1495.36C1495.6 662.308 1495.76 662.348 1495.84 662.428C1495.92 662.508 1495.97 662.628 1495.99 662.789C1496.01 662.949 1496.08 663.219 1496.2 663.6C1496.32 663.98 1496.51 664.4 1496.77 664.861C1497.47 665.882 1498.44 666.393 1499.69 666.393C1501.63 666.393 1502.6 665.612 1502.6 664.05C1502.6 663.469 1502.42 662.999 1502.06 662.638C1501.66 662.158 1500.83 661.798 1499.57 661.557C1498.3 661.317 1497.47 661.087 1497.07 660.866C1496.35 660.526 1495.78 660.066 1495.36 659.485C1494.94 658.904 1494.73 658.284 1494.73 657.623C1494.73 656.842 1494.9 656.181 1495.24 655.641C1495.58 655.1 1496.01 654.7 1496.53 654.439C1497.05 654.179 1497.55 653.999 1498.03 653.899C1498.51 653.799 1498.95 653.749 1499.35 653.749H1499.69C1500.49 653.749 1501.19 653.899 1501.79 654.199L1502.24 654.439L1502.51 654.229C1502.71 654.049 1502.93 653.879 1503.17 653.719H1503.41H1503.53C1503.59 653.719 1503.68 653.779 1503.8 653.899V657.863L1503.62 658.043H1502.78C1502.66 657.923 1502.6 657.803 1502.6 657.683Z" fill="black"/>
<path d="M1507.64 648.883C1507.64 648.323 1507.82 647.882 1508.18 647.562C1508.55 647.241 1508.99 647.081 1509.51 647.081C1509.97 647.121 1510.37 647.291 1510.71 647.592C1511.05 647.892 1511.22 648.323 1511.22 648.883C1511.22 649.484 1511.05 649.934 1510.71 650.235C1510.37 650.535 1509.95 650.685 1509.45 650.685C1508.95 650.685 1508.53 650.535 1508.18 650.235C1507.84 649.934 1507.66 649.484 1507.64 648.883ZM1512.99 667.174C1512.69 667.113 1511.65 667.083 1509.87 667.083C1509.65 667.083 1509.28 667.083 1508.76 667.083C1508.23 667.083 1507.73 667.103 1507.25 667.143L1506.59 667.174H1506.35V665.792H1506.83C1507.39 665.792 1507.88 665.762 1508.31 665.702C1508.49 665.622 1508.6 665.512 1508.64 665.372C1508.68 665.231 1508.7 664.811 1508.7 664.11V661.017V658.374C1508.7 657.333 1508.68 656.672 1508.64 656.392C1508.6 656.111 1508.46 655.921 1508.21 655.821C1507.93 655.681 1507.46 655.611 1506.8 655.611H1506.47V654.92C1506.47 654.459 1506.49 654.229 1506.53 654.229L1506.83 654.199C1507.03 654.179 1507.31 654.159 1507.67 654.139C1508.03 654.119 1508.4 654.099 1508.76 654.079C1509.1 654.059 1509.46 654.039 1509.84 654.019C1510.22 653.999 1510.51 653.969 1510.71 653.929C1510.91 653.889 1511.02 653.879 1511.04 653.899H1511.13V665.311C1511.23 665.512 1511.35 665.632 1511.49 665.672C1511.63 665.712 1511.98 665.752 1512.54 665.792H1513.23V667.174H1512.99Z" fill="black"/>
<path d="M1514.76 660.746C1514.76 658.844 1515.41 657.202 1516.71 655.821C1518.02 654.439 1519.59 653.739 1521.43 653.719C1523.23 653.719 1524.78 654.399 1526.08 655.761C1527.39 657.122 1528.05 658.774 1528.07 660.716C1528.07 662.618 1527.43 664.22 1526.14 665.522C1524.86 666.823 1523.29 667.474 1521.43 667.474C1519.49 667.474 1517.9 666.803 1516.65 665.462C1515.41 664.12 1514.78 662.548 1514.76 660.746ZM1521.43 666.273C1523.87 666.273 1525.09 664.641 1525.09 661.377V660.416V659.665C1525.09 659.225 1525.08 658.844 1525.06 658.524C1525.04 658.204 1524.97 657.823 1524.85 657.383C1524.73 656.942 1524.57 656.582 1524.37 656.301C1524.17 656.021 1523.86 655.741 1523.44 655.46C1523.02 655.18 1522.53 654.98 1521.97 654.86C1521.87 654.84 1521.71 654.83 1521.49 654.83C1520.89 654.83 1520.32 654.95 1519.78 655.19C1518.92 655.631 1518.36 656.241 1518.1 657.022C1517.84 657.803 1517.71 658.724 1517.71 659.785V660.386C1517.71 662.308 1517.9 663.66 1518.28 664.44C1518.92 665.662 1519.97 666.273 1521.43 666.273Z" fill="black"/>
<path d="M1530.17 665.792H1530.59C1531.37 665.792 1531.84 665.652 1532 665.372V665.131C1532 664.951 1532 664.721 1532 664.44C1532 664.16 1532 663.85 1532 663.509C1532 663.169 1532.01 662.779 1532.03 662.338C1532.05 661.898 1532.05 661.477 1532.03 661.077C1532.03 660.456 1532.03 659.795 1532.03 659.095C1532.03 658.394 1532.02 657.803 1532 657.323V656.632C1531.94 656.251 1531.8 656.001 1531.58 655.881C1531.36 655.761 1530.91 655.671 1530.23 655.611H1529.69V654.92C1529.69 654.459 1529.71 654.229 1529.75 654.229L1530.05 654.199C1530.25 654.179 1530.53 654.159 1530.89 654.139C1531.25 654.119 1531.62 654.099 1532 654.079C1532.34 654.059 1532.7 654.039 1533.08 654.019C1533.46 653.999 1533.75 653.969 1533.95 653.929C1534.15 653.889 1534.26 653.879 1534.28 653.899H1534.37V655.1C1534.37 655.861 1534.38 656.241 1534.4 656.241C1534.42 656.241 1534.47 656.191 1534.55 656.091C1534.63 655.991 1534.75 655.841 1534.91 655.641C1535.07 655.44 1535.26 655.26 1535.49 655.1C1535.71 654.94 1536 654.75 1536.36 654.529C1536.72 654.309 1537.1 654.149 1537.5 654.049C1537.9 653.949 1538.41 653.899 1539.03 653.899C1541.31 653.979 1542.58 655.11 1542.84 657.293C1542.86 657.433 1542.87 658.824 1542.87 661.467V664.05C1542.87 664.811 1542.89 665.261 1542.93 665.402C1542.97 665.542 1543.08 665.642 1543.26 665.702C1543.68 665.762 1544.17 665.792 1544.74 665.792H1545.22V667.174H1544.98L1544.25 667.143C1543.79 667.123 1543.29 667.113 1542.75 667.113C1542.21 667.113 1541.83 667.103 1541.61 667.083C1539.55 667.083 1538.43 667.113 1538.25 667.174H1538.01V665.792H1538.49C1539.71 665.792 1540.32 665.632 1540.32 665.311C1540.34 665.271 1540.35 663.89 1540.35 661.167C1540.33 658.464 1540.31 657.032 1540.29 656.872C1540.17 656.311 1539.97 655.891 1539.69 655.611C1539.41 655.33 1539.17 655.16 1538.97 655.1C1538.77 655.04 1538.51 655.02 1538.19 655.04C1537.29 655.04 1536.5 655.38 1535.82 656.061C1535.27 656.602 1534.93 657.152 1534.79 657.713C1534.65 658.274 1534.57 659.105 1534.55 660.206V662.128V663.93C1534.55 664.531 1534.56 664.931 1534.58 665.131C1534.6 665.331 1534.63 665.462 1534.67 665.522C1534.71 665.582 1534.8 665.642 1534.94 665.702C1535.37 665.762 1535.86 665.792 1536.42 665.792H1536.9V667.174H1536.66L1535.97 667.143C1535.49 667.123 1534.97 667.113 1534.43 667.113C1533.89 667.113 1533.51 667.103 1533.29 667.083C1531.23 667.083 1530.11 667.113 1529.93 667.174H1529.69V665.792H1530.17Z" fill="black"/>
<path d="M1557.05 648.493C1556.91 648.353 1556.8 648.263 1556.72 648.222C1556.64 648.182 1556.48 648.152 1556.24 648.132C1556 648.112 1555.57 648.082 1554.95 648.042H1553.96V646.661H1559.21H1560.23H1562.15C1563.68 646.661 1564.85 646.721 1565.67 646.841C1566.49 646.961 1567.32 647.251 1568.16 647.712C1570.06 648.673 1571.15 649.984 1571.44 651.646C1571.46 651.746 1571.47 651.907 1571.47 652.127C1571.47 652.788 1571.31 653.408 1570.98 653.989C1570.66 654.57 1570.28 655.04 1569.84 655.4C1569.4 655.761 1568.95 656.071 1568.49 656.332C1568.03 656.592 1567.64 656.772 1567.32 656.872L1566.84 657.022C1566.9 657.082 1567.01 657.142 1567.17 657.202C1567.77 657.523 1568.26 657.863 1568.64 658.224C1569.02 658.584 1569.31 659.024 1569.51 659.545C1569.71 660.066 1569.85 660.496 1569.93 660.837C1570.01 661.177 1570.1 661.738 1570.2 662.518C1570.3 663.299 1570.4 663.91 1570.5 664.35C1570.7 665.311 1570.94 665.942 1571.23 666.243C1571.51 666.543 1571.89 666.693 1572.37 666.693H1572.52C1572.82 666.693 1573.11 666.533 1573.39 666.212C1573.67 665.892 1573.85 665.342 1573.93 664.561C1573.93 664.34 1573.97 664.2 1574.05 664.14C1574.13 664.08 1574.29 664.04 1574.53 664.02C1574.77 664 1574.93 664.02 1575.01 664.08C1575.09 664.14 1575.13 664.27 1575.13 664.471C1575.13 665.091 1574.97 665.722 1574.65 666.363C1574.33 667.003 1573.89 667.434 1573.33 667.654C1573.01 667.774 1572.59 667.834 1572.07 667.834C1569.08 667.714 1567.36 666.593 1566.9 664.471C1566.86 664.25 1566.84 663.519 1566.84 662.278C1566.84 661.037 1566.77 660.206 1566.63 659.785C1566.25 658.624 1565.49 657.883 1564.35 657.563L1564.05 657.503L1562.06 657.473H1560.08V661.407L1560.11 665.342C1560.23 665.542 1560.4 665.662 1560.62 665.702C1560.84 665.742 1561.36 665.772 1562.18 665.792H1563.18V667.174H1562.85C1562.43 667.113 1561 667.083 1558.58 667.083C1556.14 667.083 1554.71 667.113 1554.29 667.174H1553.96V665.792H1554.95C1555.79 665.772 1556.3 665.742 1556.48 665.702C1556.66 665.662 1556.85 665.542 1557.05 665.342V648.493ZM1567.89 652.187V651.887C1567.89 651.526 1567.88 651.226 1567.86 650.986C1567.84 650.745 1567.75 650.435 1567.59 650.055C1567.43 649.674 1567.24 649.364 1567.02 649.123C1566.8 648.883 1566.42 648.663 1565.88 648.463C1565.34 648.263 1564.72 648.132 1564.02 648.072C1563.98 648.072 1563.76 648.072 1563.36 648.072C1562.96 648.072 1562.6 648.062 1562.28 648.042H1561.64C1560.74 648.042 1560.25 648.132 1560.17 648.313C1560.11 648.393 1560.08 649.754 1560.08 652.397V656.362H1561.82C1563.85 656.362 1565.3 656.181 1566.18 655.821C1567.06 655.461 1567.61 654.68 1567.83 653.478C1567.87 653.258 1567.89 652.828 1567.89 652.187Z" fill="black"/>
<path d="M1586.75 665.432C1585.63 666.793 1584.36 667.474 1582.94 667.474H1582.73C1580.22 667.474 1578.78 666.483 1578.4 664.501C1578.38 664.36 1578.36 662.989 1578.34 660.386C1578.32 658.204 1578.31 656.982 1578.31 656.722C1578.31 656.462 1578.25 656.251 1578.13 656.091C1577.93 655.771 1577.33 655.611 1576.33 655.611H1576V654.92C1576 654.459 1576.02 654.229 1576.06 654.229L1576.39 654.199C1576.59 654.179 1576.88 654.159 1577.26 654.139C1577.64 654.119 1578.02 654.099 1578.4 654.079C1578.74 654.059 1579.11 654.039 1579.51 654.019C1579.91 653.999 1580.21 653.969 1580.42 653.929C1580.62 653.889 1580.74 653.879 1580.78 653.899H1580.87V659.335C1580.89 663.019 1580.92 664.991 1580.96 665.251C1581.02 665.552 1581.16 665.792 1581.38 665.972C1581.78 666.252 1582.38 666.393 1583.18 666.393C1583.7 666.393 1584.17 666.303 1584.59 666.122C1585.01 665.942 1585.33 665.712 1585.55 665.432C1585.77 665.151 1585.97 664.831 1586.15 664.471C1586.33 664.11 1586.45 663.81 1586.51 663.57C1586.57 663.329 1586.61 663.089 1586.63 662.849C1586.63 662.829 1586.63 662.658 1586.63 662.338C1586.63 662.018 1586.64 661.617 1586.66 661.137C1586.68 660.656 1586.68 660.186 1586.66 659.725V657.713C1586.66 656.792 1586.56 656.221 1586.36 656.001C1586.16 655.781 1585.66 655.651 1584.86 655.611H1584.32V654.229C1584.36 654.229 1585.12 654.179 1586.6 654.079C1588.08 653.979 1588.87 653.919 1588.97 653.899H1589.18V659.245C1589.18 662.849 1589.19 664.681 1589.21 664.741C1589.27 665.141 1589.42 665.402 1589.64 665.522C1589.86 665.642 1590.31 665.732 1590.99 665.792H1591.53V667.174C1591.49 667.174 1590.74 667.224 1589.27 667.324C1587.81 667.424 1587.04 667.484 1586.96 667.504H1586.75V665.432Z" fill="black"/>
<path d="M1593.21 665.792H1593.63C1594.41 665.792 1594.88 665.652 1595.04 665.372V665.131C1595.04 664.951 1595.04 664.721 1595.04 664.44C1595.04 664.16 1595.04 663.83 1595.04 663.449C1595.04 663.069 1595.05 662.638 1595.07 662.158C1595.09 661.677 1595.09 661.177 1595.07 660.656C1595.05 660.136 1595.05 659.585 1595.07 659.004C1595.09 658.424 1595.09 657.853 1595.07 657.293C1595.07 656.552 1595.07 655.771 1595.07 654.95C1595.07 654.129 1595.07 653.378 1595.07 652.697C1595.07 652.017 1595.07 651.416 1595.07 650.895C1595.07 650.375 1595.06 649.934 1595.04 649.574C1595.02 649.214 1595.02 649.043 1595.04 649.063C1594.98 648.683 1594.84 648.433 1594.62 648.313C1594.4 648.192 1593.95 648.102 1593.27 648.042H1592.73V647.351C1592.73 646.891 1592.75 646.661 1592.79 646.661L1593.09 646.631C1593.29 646.611 1593.58 646.591 1593.96 646.571C1594.34 646.551 1594.71 646.531 1595.07 646.511C1595.41 646.491 1595.78 646.471 1596.18 646.45C1596.58 646.43 1596.88 646.4 1597.08 646.36C1597.28 646.32 1597.39 646.31 1597.41 646.33H1597.5V655.791C1597.5 662.138 1597.51 665.331 1597.53 665.372C1597.61 665.532 1597.73 665.642 1597.89 665.702C1598.32 665.762 1598.81 665.792 1599.37 665.792H1599.85V667.174H1599.61L1598.92 667.143C1598.46 667.123 1597.96 667.113 1597.44 667.113C1596.92 667.113 1596.54 667.103 1596.3 667.083C1596.06 667.063 1595.68 667.063 1595.16 667.083C1594.64 667.103 1594.14 667.123 1593.66 667.143L1592.97 667.174H1592.73V665.792H1593.21Z" fill="black"/>
<path d="M1601.14 660.626C1601.14 659.525 1601.34 658.524 1601.74 657.623C1602.14 656.722 1602.64 655.991 1603.24 655.43C1603.84 654.87 1604.49 654.449 1605.19 654.169C1605.89 653.889 1606.55 653.739 1607.17 653.719C1608.24 653.719 1609.15 653.899 1609.91 654.259C1610.67 654.62 1611.25 655.12 1611.65 655.761C1612.05 656.402 1612.33 657.042 1612.49 657.683C1612.65 658.324 1612.74 659.034 1612.76 659.815C1612.76 659.955 1612.69 660.096 1612.55 660.236H1604.08V660.686C1604.08 663.65 1605.08 665.452 1607.08 666.092C1607.49 666.212 1607.93 666.273 1608.41 666.273C1609.25 666.273 1609.97 665.952 1610.57 665.311C1610.91 664.971 1611.18 664.551 1611.38 664.05L1611.68 663.329C1611.74 663.269 1611.9 663.239 1612.16 663.239H1612.25C1612.59 663.239 1612.76 663.339 1612.76 663.539C1612.76 663.62 1612.73 663.75 1612.67 663.93C1612.29 665.031 1611.66 665.902 1610.78 666.543C1609.9 667.184 1608.91 667.504 1607.81 667.504C1605.9 667.504 1604.32 666.813 1603.06 665.432C1601.8 664.05 1601.16 662.448 1601.14 660.626ZM1610.3 658.914C1610.08 656.351 1609.13 654.99 1607.45 654.83H1607.39C1607.22 654.83 1607.06 654.84 1606.9 654.86C1606.74 654.88 1606.49 654.96 1606.15 655.1C1605.81 655.24 1605.52 655.45 1605.28 655.731C1605.04 656.011 1604.81 656.422 1604.59 656.962C1604.37 657.503 1604.21 658.163 1604.11 658.944V659.155H1610.3V658.914Z" fill="black"/>
<path d="M1622.49 657.683C1622.49 656.882 1622.22 656.191 1621.68 655.611C1621.14 655.03 1620.36 654.74 1619.34 654.74C1618.62 654.74 1618 654.87 1617.48 655.13C1616.88 655.511 1616.58 656.031 1616.58 656.692C1616.56 656.792 1616.56 656.922 1616.58 657.082C1616.6 657.242 1616.76 657.483 1617.06 657.803C1617.36 658.123 1617.79 658.374 1618.35 658.554C1618.71 658.654 1619.15 658.744 1619.67 658.824C1620.19 658.904 1620.63 658.994 1620.99 659.095C1621.35 659.195 1621.67 659.325 1621.95 659.485C1622.29 659.645 1622.62 659.845 1622.94 660.086C1623.26 660.326 1623.58 660.736 1623.9 661.317C1624.22 661.898 1624.39 662.518 1624.41 663.179C1624.41 664.42 1624.03 665.442 1623.27 666.242C1622.51 667.043 1621.28 667.454 1619.58 667.474H1619.34C1618.3 667.474 1617.34 667.113 1616.46 666.393L1616.21 666.603L1615.94 666.873C1615.82 666.993 1615.7 667.103 1615.58 667.204L1615.25 667.504H1615.01H1614.89C1614.83 667.504 1614.74 667.444 1614.62 667.324V664.951V663.209C1614.62 662.789 1614.64 662.538 1614.68 662.458C1614.72 662.378 1614.82 662.328 1614.98 662.308H1615.25C1615.49 662.308 1615.65 662.348 1615.73 662.428C1615.81 662.508 1615.86 662.628 1615.88 662.789C1615.9 662.949 1615.97 663.219 1616.09 663.6C1616.21 663.98 1616.41 664.4 1616.67 664.861C1617.37 665.882 1618.34 666.393 1619.58 666.393C1621.52 666.393 1622.49 665.612 1622.49 664.05C1622.49 663.469 1622.31 662.999 1621.95 662.638C1621.55 662.158 1620.72 661.798 1619.46 661.557C1618.2 661.317 1617.37 661.087 1616.97 660.866C1616.24 660.526 1615.67 660.066 1615.25 659.485C1614.83 658.904 1614.62 658.284 1614.62 657.623C1614.62 656.842 1614.79 656.181 1615.13 655.641C1615.47 655.1 1615.9 654.7 1616.43 654.439C1616.95 654.179 1617.45 653.999 1617.93 653.899C1618.41 653.799 1618.85 653.749 1619.25 653.749H1619.58C1620.38 653.749 1621.08 653.899 1621.68 654.199L1622.13 654.439L1622.4 654.229C1622.6 654.049 1622.82 653.879 1623.06 653.719H1623.3H1623.42C1623.48 653.719 1623.57 653.779 1623.69 653.899V657.863L1623.51 658.043H1622.67C1622.55 657.923 1622.49 657.803 1622.49 657.683Z" fill="black"/>
</svg>
