<svg width="1939" height="622" viewBox="0 0 1939 622" fill="none" xmlns="http://www.w3.org/2000/svg">
<path d="M455.077 584.527C501.304 436.564 541.311 458.627 579.923 344.027C633.358 185.439 558.047 125.027 529.577 25.5274" stroke="#76A9EC" stroke-width="4" stroke-linecap="round"/>
<path d="M760.077 585.027C610.897 517.452 649.522 445.659 687.924 335.815C741.066 183.806 727.178 112.482 678.943 19.0274" stroke="#EC8E76" stroke-width="4" stroke-linecap="round"/>
<path d="M488.678 552.515C487.452 552.515 486.803 552.443 486.731 552.299C486.695 552.227 486.677 552.083 486.677 551.866C486.677 551.001 486.875 550.406 487.272 550.081C487.344 550.045 487.614 550.027 488.083 550.027C490.03 550.136 492.319 550.19 494.951 550.19C500.035 550.19 502.956 550.136 503.713 550.027H504.362C504.578 550.244 504.687 550.406 504.687 550.514C504.687 550.622 504.65 550.947 504.578 551.488C504.398 552.028 504.236 552.371 504.092 552.515H502.036C499.549 552.551 498.088 552.714 497.656 553.002C497.403 553.146 497.151 553.651 496.898 554.516C496.646 555.382 495.438 560.141 493.275 568.794C492.698 571.138 492.085 573.626 491.436 576.258C490.787 578.89 490.3 580.873 489.976 582.207L489.489 584.154C489.489 584.298 489.651 584.371 489.976 584.371C490.3 584.371 491.364 584.407 493.167 584.479H494.086C495.24 584.479 496.159 584.461 496.844 584.425C497.529 584.389 498.413 584.262 499.494 584.046C500.576 583.83 501.478 583.505 502.199 583.073C502.92 582.64 503.713 582.027 504.578 581.234C505.444 580.441 506.201 579.449 506.85 578.259C507.427 577.177 507.968 575.97 508.472 574.636C508.977 573.301 509.284 572.544 509.392 572.364C509.572 572.256 509.879 572.202 510.311 572.202H511.014C511.231 572.526 511.339 572.725 511.339 572.797C511.339 572.869 510.978 573.932 510.257 575.988C509.536 578.043 508.743 580.206 507.877 582.478C507.012 584.749 506.543 586.083 506.471 586.48C506.399 586.66 506.327 586.768 506.255 586.804C506.183 586.84 505.894 586.895 505.39 586.967C504.885 587.039 504.11 587.057 503.064 587.021C502.667 587.021 501.297 587.021 498.954 587.021C496.61 587.021 494.375 587.003 492.247 586.967H482.62C479.592 586.967 478.077 586.786 478.077 586.426C478.077 586.173 478.113 585.921 478.185 585.669C478.366 584.984 478.546 584.605 478.726 584.533C478.871 584.497 479.141 584.479 479.538 584.479H479.862C480.836 584.479 481.917 584.425 483.107 584.317C483.612 584.208 483.954 583.992 484.135 583.668C484.243 583.523 485.541 578.512 488.029 568.632C490.517 558.753 491.761 553.543 491.761 553.002C491.761 552.75 490.733 552.587 488.678 552.515Z" fill="black"/>
<path d="M525.069 593.435C524.687 593.766 524.126 594.123 523.387 594.506C522.648 594.888 521.87 595.079 521.055 595.079C519.449 595.079 518.161 594.506 517.193 593.359C516.224 592.211 515.727 590.746 515.701 588.961C515.701 586.285 516.683 583.825 518.646 581.581C520.608 579.338 522.788 578.204 525.184 578.178C526.382 578.178 527.491 578.79 528.511 580.014L528.626 579.861C528.677 579.784 528.74 579.708 528.817 579.631C528.893 579.555 529.008 579.453 529.161 579.325C529.314 579.198 529.48 579.109 529.658 579.058C529.836 579.007 530.04 578.969 530.27 578.943C530.627 578.943 530.92 579.058 531.149 579.287C531.379 579.517 531.506 579.759 531.532 580.014C531.532 580.396 530.805 583.481 529.352 589.267C527.899 595.054 527.134 598.011 527.058 598.138C526.599 599.515 525.618 600.649 524.114 601.541C522.61 602.433 520.889 602.892 518.952 602.918C515.357 602.918 513.56 602.051 513.56 600.318C513.56 599.655 513.789 599.069 514.248 598.559C514.707 598.049 515.293 597.794 516.007 597.794C516.39 597.794 516.747 597.909 517.078 598.138C517.409 598.368 517.588 598.763 517.613 599.324C517.613 599.578 517.588 599.821 517.537 600.05C517.486 600.279 517.397 600.458 517.269 600.585C517.142 600.713 517.04 600.84 516.963 600.968C516.887 601.095 516.797 601.197 516.696 601.274L516.619 601.35H516.657C516.912 601.427 517.677 601.465 518.952 601.465C519.92 601.465 520.685 601.312 521.246 601.006C521.832 600.726 522.38 600.305 522.89 599.744C523.4 599.183 523.757 598.584 523.961 597.947C524.114 597.463 524.317 596.672 524.572 595.576C524.904 594.353 525.069 593.639 525.069 593.435ZM527.861 582.537L527.708 582.117C527.631 581.836 527.568 581.645 527.517 581.543C527.466 581.441 527.389 581.263 527.287 581.008C527.185 580.753 527.058 580.575 526.905 580.473C526.752 580.371 526.586 580.23 526.408 580.052C526.229 579.874 526 579.759 525.72 579.708C525.439 579.657 525.159 579.619 524.878 579.593C523.757 579.593 522.673 580.269 521.628 581.62C520.863 582.614 520.226 584.131 519.716 586.17C519.206 588.209 518.952 589.688 518.952 590.605C518.952 592.619 519.742 593.626 521.322 593.626C522.75 593.626 524.152 592.734 525.528 590.95L525.834 590.567L527.861 582.537Z" fill="black"/>
<path d="M786.212 552.406C785.04 552.406 784.419 552.337 784.35 552.199C784.316 552.13 784.298 551.992 784.298 551.785C784.298 550.958 784.488 550.389 784.867 550.079C784.936 550.045 785.195 550.027 785.643 550.027C787.504 550.131 789.693 550.182 792.209 550.182C797.07 550.182 799.862 550.131 800.586 550.027H801.206C801.413 550.234 801.516 550.389 801.516 550.493C801.516 550.596 801.482 550.906 801.413 551.423C801.241 551.94 801.086 552.268 800.948 552.406H798.983C796.604 552.44 795.208 552.595 794.795 552.871C794.553 553.009 794.312 553.492 794.071 554.319C793.83 555.146 792.675 559.696 790.607 567.969C790.055 570.21 789.469 572.588 788.849 575.105C788.228 577.621 787.763 579.517 787.453 580.792L786.987 582.654C786.987 582.791 787.142 582.86 787.453 582.86C787.763 582.86 788.78 582.895 790.503 582.964H791.382C792.485 582.964 793.364 582.947 794.019 582.912C794.674 582.878 795.519 582.757 796.553 582.55C797.587 582.343 798.449 582.033 799.138 581.619C799.827 581.206 800.586 580.62 801.413 579.861C802.24 579.103 802.964 578.155 803.585 577.018C804.136 575.984 804.653 574.829 805.136 573.553C805.618 572.278 805.911 571.554 806.015 571.382C806.187 571.278 806.48 571.227 806.894 571.227H807.566C807.773 571.537 807.876 571.726 807.876 571.795C807.876 571.864 807.532 572.881 806.842 574.846C806.153 576.811 805.394 578.879 804.567 581.051C803.74 583.222 803.292 584.498 803.223 584.877C803.154 585.049 803.085 585.153 803.016 585.187C802.947 585.222 802.671 585.273 802.189 585.342C801.706 585.411 800.965 585.428 799.965 585.394C799.586 585.394 798.276 585.394 796.036 585.394C793.795 585.394 791.658 585.377 789.624 585.342H780.421C777.525 585.342 776.077 585.17 776.077 584.825C776.077 584.584 776.112 584.343 776.181 584.101C776.353 583.446 776.525 583.084 776.698 583.016C776.836 582.981 777.094 582.964 777.473 582.964H777.784C778.714 582.964 779.748 582.912 780.886 582.809C781.369 582.705 781.696 582.498 781.868 582.188C781.972 582.05 783.213 577.259 785.591 567.814C787.97 558.369 789.159 553.388 789.159 552.871C789.159 552.63 788.176 552.475 786.212 552.406Z" fill="black"/>
<path d="M814.642 568.13C814.667 568.13 815.544 568.07 817.274 567.948C819.005 567.826 819.894 567.753 819.943 567.728C820.235 567.728 820.382 567.838 820.382 568.057C820.382 568.325 819.943 570.165 819.066 573.577C818.14 577.184 817.676 579.024 817.676 579.097C817.676 579.146 817.762 579.085 817.932 578.914C819.419 577.598 821.003 576.94 822.685 576.94C824.001 576.94 825.061 577.269 825.865 577.927C826.669 578.585 827.084 579.548 827.108 580.815C827.108 582.058 826.645 583.984 825.719 586.591C824.793 589.199 824.33 590.759 824.33 591.27C824.354 591.611 824.415 591.843 824.512 591.965C824.61 592.087 824.793 592.148 825.061 592.148C825.743 592.148 826.377 591.782 826.962 591.051C827.547 590.32 828.022 589.321 828.387 588.053C828.46 587.785 828.534 587.627 828.607 587.578C828.68 587.529 828.875 587.505 829.192 587.505C829.679 587.505 829.923 587.603 829.923 587.798C829.923 587.822 829.874 588.005 829.776 588.346C829.387 589.784 828.765 590.966 827.912 591.892C827.084 592.94 826.097 593.464 824.951 593.464H824.768C823.623 593.464 822.794 593.135 822.283 592.477C821.771 591.819 821.515 591.124 821.515 590.393C821.515 590.003 821.954 588.565 822.831 586.079C823.708 583.594 824.159 581.729 824.183 580.486C824.183 579.048 823.647 578.33 822.575 578.33H822.392C820.369 578.33 818.615 579.524 817.128 581.912L816.872 582.387L815.629 587.322C814.85 590.49 814.399 592.221 814.277 592.513C813.96 593.171 813.424 593.5 812.668 593.5C812.327 593.5 812.035 593.391 811.791 593.171C811.547 592.952 811.413 592.733 811.389 592.513C811.389 592.172 812.278 588.468 814.057 581.4L816.763 570.58C816.763 570.263 816.677 570.068 816.507 569.995C816.336 569.922 815.861 569.861 815.081 569.812H814.313C814.167 569.666 814.094 569.568 814.094 569.52C814.094 569.471 814.118 569.239 814.167 568.825C814.289 568.362 814.447 568.13 814.642 568.13Z" fill="black"/>
<path d="M954.923 305.877C954.923 305.422 955.168 305.072 955.658 304.826H989.121C989.646 305.107 989.909 305.457 989.909 305.877C989.909 306.262 989.664 306.595 989.173 306.875L972.468 306.928H955.763C955.203 306.753 954.923 306.402 954.923 305.877ZM954.923 316.068C954.923 315.543 955.203 315.193 955.763 315.018H989.173C989.664 315.368 989.909 315.718 989.909 316.068C989.909 316.523 989.646 316.874 989.121 317.119H955.658C955.168 316.874 954.923 316.523 954.923 316.068Z" fill="black"/>
<path fill-rule="evenodd" clip-rule="evenodd" d="M1190.92 437.579C1209.92 417 1258.27 338.583 1258.27 232.189C1259.45 263.899 1254.51 300.206 1239.75 344C1223.83 391.271 1207.66 415.289 1190.92 437.579Z" stroke="#60BF7C" stroke-width="4" stroke-linecap="round"/>
<path d="M1190.92 437.579C1115.04 535.648 1270.67 520.48 1419.92 585M1258.27 232.189C1249.28 142.089 1364.24 68.7916 1338.42 19" stroke="#EC8E76" stroke-width="4" stroke-linecap="round"/>
<path d="M1190.92 437.579C1167.08 469.327 1142.07 497.57 1114.91 584.5M1258.27 232.189C1255.17 149.066 1210.02 97.5235 1189.41 25.5" stroke="#76A9EC" stroke-width="4" stroke-linecap="round"/>
<path d="M1278.32 320.44C1277.12 320.44 1276.48 320.369 1276.41 320.228C1276.37 320.157 1276.36 320.016 1276.36 319.803C1276.36 318.955 1276.55 318.371 1276.94 318.053C1277.01 318.018 1277.28 318 1277.74 318C1279.64 318.106 1281.89 318.159 1284.47 318.159C1289.46 318.159 1292.32 318.106 1293.06 318H1293.7C1293.91 318.212 1294.02 318.371 1294.02 318.477C1294.02 318.583 1293.98 318.902 1293.91 319.432C1293.74 319.963 1293.58 320.298 1293.44 320.44H1291.42C1288.98 320.475 1287.55 320.634 1287.12 320.917C1286.88 321.059 1286.63 321.554 1286.38 322.402C1286.13 323.251 1284.95 327.919 1282.83 336.405C1282.26 338.704 1281.66 341.144 1281.02 343.725C1280.39 346.306 1279.91 348.251 1279.59 349.56L1279.11 351.469C1279.11 351.611 1279.27 351.681 1279.59 351.681C1279.91 351.681 1280.95 351.717 1282.72 351.787H1283.62C1284.75 351.787 1285.66 351.77 1286.33 351.734C1287 351.699 1287.87 351.575 1288.93 351.363C1289.99 351.151 1290.87 350.833 1291.58 350.408C1292.29 349.984 1293.06 349.383 1293.91 348.605C1294.76 347.827 1295.5 346.855 1296.14 345.688C1296.71 344.627 1297.24 343.442 1297.73 342.134C1298.23 340.826 1298.53 340.083 1298.63 339.906C1298.81 339.8 1299.11 339.747 1299.54 339.747H1300.23C1300.44 340.065 1300.54 340.26 1300.54 340.33C1300.54 340.401 1300.19 341.444 1299.48 343.46C1298.78 345.476 1298 347.597 1297.15 349.825C1296.3 352.053 1295.84 353.361 1295.77 353.75C1295.7 353.927 1295.63 354.033 1295.56 354.068C1295.49 354.104 1295.2 354.157 1294.71 354.227C1294.21 354.298 1293.45 354.316 1292.43 354.28C1292.04 354.28 1290.7 354.28 1288.4 354.28C1286.1 354.28 1283.91 354.263 1281.82 354.227H1272.38C1269.41 354.227 1267.92 354.051 1267.92 353.697C1267.92 353.449 1267.96 353.202 1268.03 352.954C1268.21 352.282 1268.38 351.911 1268.56 351.84C1268.7 351.805 1268.97 351.787 1269.35 351.787H1269.67C1270.63 351.787 1271.69 351.734 1272.86 351.628C1273.35 351.522 1273.69 351.31 1273.86 350.992C1273.97 350.85 1275.24 345.935 1277.68 336.246C1280.12 326.557 1281.34 321.448 1281.34 320.917C1281.34 320.67 1280.33 320.511 1278.32 320.44Z" fill="black"/>
<path d="M1314.01 360.571C1313.63 360.896 1313.08 361.246 1312.36 361.621C1311.63 361.996 1310.87 362.184 1310.07 362.184C1308.5 362.184 1307.23 361.621 1306.28 360.496C1305.33 359.371 1304.85 357.934 1304.82 356.184C1304.82 353.559 1305.78 351.146 1307.71 348.946C1309.63 346.746 1311.77 345.633 1314.12 345.608C1315.3 345.608 1316.38 346.208 1317.38 347.408L1317.5 347.258C1317.55 347.183 1317.61 347.108 1317.68 347.033C1317.76 346.958 1317.87 346.858 1318.02 346.733C1318.17 346.608 1318.33 346.521 1318.51 346.471C1318.68 346.421 1318.88 346.383 1319.11 346.358C1319.46 346.358 1319.75 346.471 1319.97 346.696C1320.2 346.921 1320.32 347.158 1320.35 347.408C1320.35 347.783 1319.63 350.808 1318.21 356.484C1316.78 362.159 1316.03 365.059 1315.96 365.184C1315.51 366.534 1314.55 367.646 1313.07 368.521C1311.6 369.396 1309.91 369.846 1308.01 369.871C1304.48 369.871 1302.72 369.021 1302.72 367.321C1302.72 366.671 1302.95 366.096 1303.4 365.596C1303.85 365.096 1304.42 364.846 1305.12 364.846C1305.5 364.846 1305.85 364.959 1306.17 365.184C1306.5 365.409 1306.67 365.796 1306.7 366.346C1306.7 366.596 1306.67 366.834 1306.62 367.059C1306.57 367.284 1306.48 367.459 1306.36 367.584C1306.23 367.709 1306.13 367.834 1306.06 367.959C1305.98 368.084 1305.9 368.184 1305.8 368.259L1305.72 368.334H1305.76C1306.01 368.409 1306.76 368.446 1308.01 368.446C1308.96 368.446 1309.71 368.296 1310.26 367.996C1310.83 367.721 1311.37 367.309 1311.87 366.759C1312.37 366.209 1312.72 365.621 1312.92 364.996C1313.07 364.521 1313.27 363.746 1313.52 362.671C1313.85 361.471 1314.01 360.771 1314.01 360.571ZM1316.75 349.883L1316.6 349.471C1316.52 349.196 1316.46 349.008 1316.41 348.908C1316.36 348.808 1316.28 348.633 1316.18 348.383C1316.08 348.133 1315.96 347.958 1315.81 347.858C1315.66 347.758 1315.5 347.621 1315.32 347.446C1315.15 347.271 1314.92 347.158 1314.65 347.108C1314.37 347.058 1314.1 347.021 1313.82 346.996C1312.72 346.996 1311.66 347.658 1310.63 348.983C1309.88 349.958 1309.26 351.446 1308.76 353.446C1308.26 355.446 1308.01 356.896 1308.01 357.796C1308.01 359.771 1308.78 360.759 1310.33 360.759C1311.73 360.759 1313.11 359.884 1314.46 358.134L1314.76 357.759L1316.75 349.883Z" fill="black"/>
<path d="M1325.37 336.571C1325.4 336.571 1326.3 336.508 1328.07 336.383C1329.85 336.258 1330.76 336.183 1330.81 336.158C1331.11 336.158 1331.26 336.271 1331.26 336.496C1331.26 336.771 1330.81 338.658 1329.91 342.158C1328.96 345.858 1328.48 347.746 1328.48 347.821C1328.48 347.871 1328.57 347.808 1328.75 347.633C1330.27 346.283 1331.9 345.608 1333.62 345.608C1334.97 345.608 1336.06 345.946 1336.88 346.621C1337.71 347.296 1338.13 348.283 1338.16 349.583C1338.16 350.858 1337.68 352.833 1336.73 355.509C1335.78 358.184 1335.31 359.784 1335.31 360.309C1335.33 360.659 1335.4 360.896 1335.5 361.021C1335.6 361.146 1335.78 361.209 1336.06 361.209C1336.76 361.209 1337.41 360.834 1338.01 360.084C1338.61 359.334 1339.1 358.309 1339.47 357.009C1339.55 356.734 1339.62 356.571 1339.7 356.521C1339.77 356.471 1339.97 356.446 1340.3 356.446C1340.8 356.446 1341.05 356.546 1341.05 356.746C1341.05 356.771 1341 356.959 1340.9 357.309C1340.5 358.784 1339.86 359.996 1338.98 360.946C1338.13 362.021 1337.12 362.559 1335.95 362.559H1335.76C1334.58 362.559 1333.73 362.221 1333.21 361.546C1332.68 360.871 1332.42 360.159 1332.42 359.409C1332.42 359.009 1332.87 357.534 1333.77 354.984C1334.67 352.433 1335.13 350.521 1335.16 349.246C1335.16 347.771 1334.61 347.033 1333.51 347.033H1333.32C1331.25 347.033 1329.45 348.258 1327.92 350.708L1327.66 351.196L1326.38 356.259C1325.58 359.509 1325.12 361.284 1325 361.584C1324.67 362.259 1324.12 362.596 1323.35 362.596C1323 362.596 1322.7 362.484 1322.45 362.259C1322.2 362.034 1322.06 361.809 1322.03 361.584C1322.03 361.234 1322.95 357.434 1324.77 350.183L1327.55 339.083C1327.55 338.758 1327.46 338.558 1327.28 338.483C1327.11 338.408 1326.62 338.346 1325.82 338.296H1325.03C1324.88 338.146 1324.81 338.046 1324.81 337.996C1324.81 337.946 1324.83 337.708 1324.88 337.283C1325.01 336.808 1325.17 336.571 1325.37 336.571Z" fill="black"/>
<path d="M1142.68 552.543C1141.45 552.543 1140.8 552.47 1140.73 552.326C1140.69 552.254 1140.68 552.11 1140.68 551.894C1140.68 551.028 1140.87 550.433 1141.27 550.109C1141.34 550.073 1141.61 550.055 1142.08 550.055C1144.03 550.163 1146.32 550.217 1148.95 550.217C1154.04 550.217 1156.96 550.163 1157.71 550.055H1158.36C1158.58 550.271 1158.69 550.433 1158.69 550.542C1158.69 550.65 1158.65 550.974 1158.58 551.515C1158.4 552.056 1158.24 552.398 1158.09 552.543H1156.04C1153.55 552.579 1152.09 552.741 1151.66 553.029C1151.4 553.174 1151.15 553.678 1150.9 554.544C1150.65 555.409 1149.44 560.168 1147.27 568.822C1146.7 571.165 1146.09 573.653 1145.44 576.285C1144.79 578.917 1144.3 580.901 1143.98 582.235L1143.49 584.182C1143.49 584.326 1143.65 584.398 1143.98 584.398C1144.3 584.398 1145.36 584.434 1147.17 584.506H1148.09C1149.24 584.506 1150.16 584.488 1150.84 584.452C1151.53 584.416 1152.41 584.29 1153.49 584.073C1154.58 583.857 1155.48 583.533 1156.2 583.1C1156.92 582.667 1157.71 582.054 1158.58 581.261C1159.44 580.468 1160.2 579.476 1160.85 578.286C1161.43 577.205 1161.97 575.997 1162.47 574.663C1162.98 573.329 1163.28 572.572 1163.39 572.391C1163.57 572.283 1163.88 572.229 1164.31 572.229H1165.01C1165.23 572.554 1165.34 572.752 1165.34 572.824C1165.34 572.896 1164.98 573.96 1164.26 576.015C1163.54 578.07 1162.74 580.234 1161.88 582.505C1161.01 584.777 1160.54 586.111 1160.47 586.507C1160.4 586.688 1160.33 586.796 1160.25 586.832C1160.18 586.868 1159.89 586.922 1159.39 586.994C1158.88 587.066 1158.11 587.084 1157.06 587.048C1156.67 587.048 1155.3 587.048 1152.95 587.048C1150.61 587.048 1148.37 587.03 1146.25 586.994H1136.62C1133.59 586.994 1132.08 586.814 1132.08 586.453C1132.08 586.201 1132.11 585.948 1132.19 585.696C1132.37 585.011 1132.55 584.632 1132.73 584.56C1132.87 584.524 1133.14 584.506 1133.54 584.506H1133.86C1134.84 584.506 1135.92 584.452 1137.11 584.344C1137.61 584.236 1137.95 584.019 1138.13 583.695C1138.24 583.551 1139.54 578.539 1142.03 568.66C1144.52 558.78 1145.76 553.57 1145.76 553.029C1145.76 552.777 1144.73 552.615 1142.68 552.543Z" fill="black"/>
<path d="M1179.07 593.462C1178.69 593.794 1178.13 594.151 1177.39 594.533C1176.65 594.915 1175.87 595.107 1175.05 595.107C1173.45 595.107 1172.16 594.533 1171.19 593.386C1170.22 592.239 1169.73 590.773 1169.7 588.989C1169.7 586.312 1170.68 583.852 1172.65 581.609C1174.61 579.366 1176.79 578.231 1179.18 578.206C1180.38 578.206 1181.49 578.817 1182.51 580.041L1182.63 579.888C1182.68 579.812 1182.74 579.735 1182.82 579.659C1182.89 579.582 1183.01 579.48 1183.16 579.353C1183.31 579.225 1183.48 579.136 1183.66 579.085C1183.84 579.034 1184.04 578.996 1184.27 578.97C1184.63 578.97 1184.92 579.085 1185.15 579.315C1185.38 579.544 1185.51 579.786 1185.53 580.041C1185.53 580.423 1184.81 583.508 1183.35 589.294C1181.9 595.081 1181.13 598.038 1181.06 598.166C1180.6 599.542 1179.62 600.676 1178.11 601.569C1176.61 602.461 1174.89 602.92 1172.95 602.945C1169.36 602.945 1167.56 602.078 1167.56 600.345C1167.56 599.682 1167.79 599.096 1168.25 598.586C1168.71 598.076 1169.29 597.821 1170.01 597.821C1170.39 597.821 1170.75 597.936 1171.08 598.166C1171.41 598.395 1171.59 598.79 1171.61 599.351C1171.61 599.606 1171.59 599.848 1171.54 600.077C1171.49 600.307 1171.4 600.485 1171.27 600.613C1171.14 600.74 1171.04 600.868 1170.96 600.995C1170.89 601.123 1170.8 601.225 1170.7 601.301L1170.62 601.377H1170.66C1170.91 601.454 1171.68 601.492 1172.95 601.492C1173.92 601.492 1174.68 601.339 1175.25 601.033C1175.83 600.753 1176.38 600.332 1176.89 599.771C1177.4 599.211 1177.76 598.612 1177.96 597.974C1178.11 597.49 1178.32 596.7 1178.57 595.604C1178.9 594.38 1179.07 593.666 1179.07 593.462ZM1181.86 582.565L1181.71 582.144C1181.63 581.864 1181.57 581.673 1181.52 581.571C1181.47 581.469 1181.39 581.29 1181.29 581.035C1181.19 580.78 1181.06 580.602 1180.9 580.5C1180.75 580.398 1180.59 580.258 1180.41 580.079C1180.23 579.901 1180 579.786 1179.72 579.735C1179.44 579.684 1179.16 579.646 1178.88 579.62C1177.76 579.62 1176.67 580.296 1175.63 581.647C1174.86 582.641 1174.23 584.158 1173.72 586.197C1173.21 588.237 1172.95 589.715 1172.95 590.633C1172.95 592.647 1173.74 593.654 1175.32 593.654C1176.75 593.654 1178.15 592.761 1179.53 590.977L1179.83 590.595L1181.86 582.565Z" fill="black"/>
<path d="M1440.21 552.433C1439.04 552.433 1438.42 552.364 1438.35 552.226C1438.32 552.157 1438.3 552.02 1438.3 551.813C1438.3 550.985 1438.49 550.417 1438.87 550.106C1438.94 550.072 1439.19 550.055 1439.64 550.055C1441.5 550.158 1443.69 550.21 1446.21 550.21C1451.07 550.21 1453.86 550.158 1454.59 550.055H1455.21C1455.41 550.262 1455.52 550.417 1455.52 550.52C1455.52 550.623 1455.48 550.934 1455.41 551.451C1455.24 551.968 1455.09 552.295 1454.95 552.433H1452.98C1450.6 552.468 1449.21 552.623 1448.79 552.899C1448.55 553.036 1448.31 553.519 1448.07 554.346C1447.83 555.174 1446.67 559.724 1444.61 567.997C1444.06 570.237 1443.47 572.616 1442.85 575.132C1442.23 577.648 1441.76 579.544 1441.45 580.82L1440.99 582.681C1440.99 582.819 1441.14 582.888 1441.45 582.888C1441.76 582.888 1442.78 582.922 1444.5 582.991H1445.38C1446.49 582.991 1447.36 582.974 1448.02 582.939C1448.67 582.905 1449.52 582.784 1450.55 582.578C1451.59 582.371 1452.45 582.06 1453.14 581.647C1453.83 581.233 1454.59 580.647 1455.41 579.889C1456.24 579.13 1456.96 578.183 1457.58 577.045C1458.14 576.011 1458.65 574.856 1459.14 573.581C1459.62 572.305 1459.91 571.581 1460.01 571.409C1460.19 571.306 1460.48 571.254 1460.89 571.254H1461.57C1461.77 571.564 1461.88 571.754 1461.88 571.823C1461.88 571.892 1461.53 572.909 1460.84 574.873C1460.15 576.838 1459.39 578.906 1458.57 581.078C1457.74 583.25 1457.29 584.525 1457.22 584.904C1457.15 585.077 1457.08 585.18 1457.02 585.215C1456.95 585.249 1456.67 585.301 1456.19 585.37C1455.71 585.439 1454.96 585.456 1453.97 585.421C1453.59 585.421 1452.28 585.421 1450.04 585.421C1447.8 585.421 1445.66 585.404 1443.62 585.37H1434.42C1431.53 585.37 1430.08 585.197 1430.08 584.853C1430.08 584.611 1430.11 584.37 1430.18 584.129C1430.35 583.474 1430.53 583.112 1430.7 583.043C1430.84 583.008 1431.09 582.991 1431.47 582.991H1431.78C1432.71 582.991 1433.75 582.939 1434.89 582.836C1435.37 582.733 1435.7 582.526 1435.87 582.216C1435.97 582.078 1437.21 577.286 1439.59 567.841C1441.97 558.397 1443.16 553.416 1443.16 552.899C1443.16 552.657 1442.18 552.502 1440.21 552.433Z" fill="black"/>
<path d="M1468.64 568.158C1468.67 568.158 1469.54 568.097 1471.27 567.975C1473 567.853 1473.89 567.78 1473.94 567.756C1474.24 567.756 1474.38 567.865 1474.38 568.085C1474.38 568.353 1473.94 570.193 1473.07 573.605C1472.14 577.212 1471.68 579.051 1471.68 579.125C1471.68 579.173 1471.76 579.112 1471.93 578.942C1473.42 577.626 1475 576.968 1476.68 576.968C1478 576.968 1479.06 577.297 1479.87 577.955C1480.67 578.613 1481.08 579.575 1481.11 580.843C1481.11 582.086 1480.64 584.011 1479.72 586.619C1478.79 589.226 1478.33 590.786 1478.33 591.298C1478.35 591.639 1478.41 591.87 1478.51 591.992C1478.61 592.114 1478.79 592.175 1479.06 592.175C1479.74 592.175 1480.38 591.809 1480.96 591.078C1481.55 590.347 1482.02 589.348 1482.39 588.081C1482.46 587.813 1482.53 587.654 1482.61 587.606C1482.68 587.557 1482.87 587.532 1483.19 587.532C1483.68 587.532 1483.92 587.63 1483.92 587.825C1483.92 587.849 1483.87 588.032 1483.78 588.373C1483.39 589.811 1482.77 590.993 1481.91 591.919C1481.08 592.967 1480.1 593.491 1478.95 593.491H1478.77C1477.62 593.491 1476.79 593.162 1476.28 592.504C1475.77 591.846 1475.51 591.151 1475.51 590.42C1475.51 590.03 1475.95 588.593 1476.83 586.107C1477.71 583.621 1478.16 581.757 1478.18 580.514C1478.18 579.076 1477.65 578.357 1476.58 578.357H1476.39C1474.37 578.357 1472.61 579.551 1471.13 581.939L1470.87 582.415L1469.63 587.35C1468.85 590.518 1468.4 592.248 1468.28 592.541C1467.96 593.199 1467.42 593.528 1466.67 593.528C1466.33 593.528 1466.03 593.418 1465.79 593.199C1465.55 592.979 1465.41 592.76 1465.39 592.541C1465.39 592.199 1466.28 588.495 1468.06 581.428L1470.76 570.607C1470.76 570.29 1470.68 570.095 1470.51 570.022C1470.34 569.949 1469.86 569.888 1469.08 569.839H1468.31C1468.17 569.693 1468.09 569.596 1468.09 569.547C1468.09 569.498 1468.12 569.267 1468.17 568.852C1468.29 568.389 1468.45 568.158 1468.64 568.158Z" fill="black"/>
</svg>
