<svg width="1921" height="570" viewBox="0 0 1921 570" fill="none" xmlns="http://www.w3.org/2000/svg">
<path d="M139 560L139 9.99998" stroke="black" stroke-width="4" stroke-linecap="round"/>
<path d="M137 560C137 561.105 137.895 562 139 562C140.105 562 141 561.105 141 560L137 560ZM139 285L127.453 305L150.547 305L139 285ZM141 560L141 303L137 303L137 560L141 560Z" fill="black"/>
<path d="M173.972 289.182C174.003 289.09 174.034 288.966 174.064 288.812C174.095 288.658 174.172 288.318 174.296 287.794C174.419 287.269 174.573 286.791 174.759 286.359C174.944 285.927 175.175 285.418 175.453 284.832C175.73 284.246 176.039 283.783 176.378 283.444C176.718 283.104 177.119 282.765 177.581 282.426C178.044 282.086 178.553 281.947 179.109 282.009C179.849 282.009 180.512 282.117 181.099 282.333C181.685 282.549 182.148 282.827 182.487 283.166C182.826 283.505 183.073 283.845 183.227 284.184C183.382 284.523 183.505 284.817 183.598 285.063L183.69 285.387C183.69 285.449 183.706 285.48 183.736 285.48L184.245 284.971C186.127 282.996 188.272 282.009 190.678 282.009C192.344 282.009 193.686 282.426 194.704 283.259C195.722 284.092 196.247 285.31 196.278 286.915V287.377C196.278 288.118 195.29 292.329 193.316 300.011C191.526 307.261 190.57 310.994 190.447 311.21C190.046 312.043 189.351 312.46 188.364 312.46C187.963 312.46 187.624 312.336 187.346 312.09C187.068 311.843 186.899 311.503 186.837 311.071C186.837 310.794 187.747 307.045 189.567 299.826L192.437 288.257C192.529 287.794 192.575 287.208 192.575 286.498C192.575 284.678 191.897 283.768 190.539 283.768H190.308C187.655 283.768 185.418 285.326 183.598 288.442L183.274 288.997L181.746 295.198C180.728 299.24 180.142 301.415 179.988 301.723C179.587 302.556 178.924 302.973 177.998 302.973C177.597 302.973 177.273 302.88 177.026 302.695C176.779 302.51 176.61 302.325 176.517 302.14C176.425 301.955 176.394 301.8 176.425 301.677C176.425 301.276 177.042 298.623 178.276 293.717C179.51 288.812 180.127 286.082 180.127 285.526C180.127 284.323 179.726 283.721 178.924 283.721C178.276 283.721 177.72 284.153 177.258 285.017C176.795 285.881 176.425 286.822 176.147 287.84C175.869 288.858 175.7 289.414 175.638 289.506C175.576 289.568 175.329 289.599 174.897 289.599H174.249C174.064 289.414 173.972 289.275 173.972 289.182Z" fill="black"/>
<path d="M501 349.187C501.031 349.095 501.062 348.971 501.093 348.817C501.123 348.663 501.201 348.323 501.324 347.799C501.447 347.274 501.602 346.796 501.787 346.364C501.972 345.932 502.203 345.423 502.481 344.837C502.759 344.251 503.067 343.788 503.406 343.449C503.746 343.109 504.147 342.77 504.61 342.431C505.072 342.091 505.581 341.953 506.137 342.014C506.877 342.014 507.541 342.122 508.127 342.338C508.713 342.554 509.176 342.832 509.515 343.171C509.854 343.511 510.101 343.85 510.256 344.189C510.41 344.529 510.533 344.822 510.626 345.069L510.718 345.393C510.718 345.454 510.734 345.485 510.765 345.485L511.274 344.976C513.156 343.001 515.3 342.014 517.706 342.014C519.372 342.014 520.714 342.431 521.732 343.264C522.751 344.097 523.275 345.315 523.306 346.92V347.382C523.306 348.123 522.319 352.334 520.344 360.016C518.555 367.266 517.598 370.999 517.475 371.215C517.074 372.048 516.38 372.465 515.392 372.465C514.991 372.465 514.652 372.342 514.374 372.095C514.097 371.848 513.927 371.509 513.865 371.077C513.865 370.799 514.775 367.05 516.596 359.831L519.465 348.262C519.557 347.799 519.604 347.213 519.604 346.503C519.604 344.683 518.925 343.773 517.567 343.773H517.336C514.683 343.773 512.446 345.331 510.626 348.447L510.302 349.002L508.775 355.203C507.757 359.245 507.17 361.42 507.016 361.729C506.615 362.562 505.952 362.978 505.026 362.978C504.625 362.978 504.301 362.885 504.054 362.7C503.808 362.515 503.638 362.33 503.545 362.145C503.453 361.96 503.422 361.806 503.453 361.682C503.453 361.281 504.07 358.628 505.304 353.722C506.538 348.817 507.155 346.087 507.155 345.531C507.155 344.328 506.754 343.727 505.952 343.727C505.304 343.727 504.748 344.158 504.286 345.022C503.823 345.886 503.453 346.827 503.175 347.845C502.897 348.863 502.728 349.419 502.666 349.511C502.604 349.573 502.357 349.604 501.926 349.604H501.278C501.093 349.419 501 349.28 501 349.187Z" fill="black"/>
<path d="M350 287.051C350 286.595 350.245 286.245 350.735 286H384.198C384.724 286.28 384.986 286.63 384.986 287.051C384.986 287.436 384.741 287.769 384.251 288.049L367.546 288.101H350.841C350.28 287.926 350 287.576 350 287.051ZM350 297.242C350 296.716 350.28 296.366 350.841 296.191H384.251C384.741 296.541 384.986 296.892 384.986 297.242C384.986 297.697 384.724 298.047 384.198 298.292H350.735C350.245 298.047 350 297.697 350 297.242Z" fill="black"/>
<circle cx="275" cy="293" r="4" fill="black"/>
<path d="M286.269 329C284.115 329 282.373 328.287 281.043 326.862C279.713 325.437 279.032 323.647 279 321.493C279 318.326 280.156 315.38 282.468 312.656C284.781 309.932 287.473 308.396 290.545 308.048C290.577 308.016 292.794 308 297.197 308H303.753C303.785 308.032 303.833 308.063 303.896 308.095C303.959 308.127 304.023 308.158 304.086 308.19C304.149 308.222 304.197 308.253 304.228 308.285C304.26 308.317 304.308 308.364 304.371 308.428C304.434 308.491 304.466 308.523 304.466 308.523C304.466 308.523 304.498 308.586 304.561 308.713C304.624 308.839 304.64 308.903 304.609 308.903C304.577 308.903 304.593 308.982 304.656 309.14C304.719 309.299 304.735 309.394 304.704 309.425C304.704 310.819 303.674 311.516 301.615 311.516C301.394 311.516 301.124 311.516 300.808 311.516C300.491 311.516 300.269 311.5 300.143 311.468H297.292L297.529 311.943C298.1 313.147 298.385 314.493 298.385 315.982C298.385 319.466 297.118 322.507 294.584 325.104C292.05 327.701 289.278 329 286.269 329ZM294.679 315.269C294.679 312.735 293.333 311.468 290.64 311.468C286.713 311.468 284.163 314.224 282.991 319.735C282.959 319.862 282.943 319.957 282.943 320.02C282.69 321.192 282.563 322.158 282.563 322.919C282.563 324.502 282.959 325.611 283.751 326.244C284.543 326.878 285.446 327.21 286.459 327.242C288.17 327.242 289.738 326.498 291.163 325.009C292.081 324.059 292.826 322.792 293.396 321.208C293.966 319.624 294.314 318.357 294.441 317.407C294.568 316.457 294.647 315.744 294.679 315.269Z" fill="black"/>
<path d="M569 560L569 9.99998" stroke="black" stroke-width="4" stroke-linecap="round"/>
<path d="M567 560C567 561.105 567.895 562 569 562C570.105 562 571 561.105 571 560L567 560ZM569 285L557.453 305L580.547 305L569 285ZM571 560L571 303L567 303L567 560L571 560Z" fill="black"/>
<path d="M603.972 289.182C604.003 289.09 604.034 288.966 604.064 288.812C604.095 288.658 604.172 288.318 604.296 287.794C604.419 287.269 604.573 286.791 604.759 286.359C604.944 285.927 605.175 285.418 605.453 284.832C605.73 284.246 606.039 283.783 606.378 283.444C606.718 283.104 607.119 282.765 607.581 282.426C608.044 282.086 608.553 281.947 609.109 282.009C609.849 282.009 610.512 282.117 611.099 282.333C611.685 282.549 612.148 282.827 612.487 283.166C612.826 283.505 613.073 283.845 613.227 284.184C613.382 284.523 613.505 284.817 613.598 285.063L613.69 285.387C613.69 285.449 613.706 285.48 613.736 285.48L614.245 284.971C616.127 282.996 618.272 282.009 620.678 282.009C622.344 282.009 623.686 282.426 624.704 283.259C625.722 284.092 626.247 285.31 626.278 286.915V287.377C626.278 288.118 625.29 292.329 623.316 300.011C621.526 307.261 620.57 310.994 620.447 311.21C620.046 312.043 619.351 312.46 618.364 312.46C617.963 312.46 617.624 312.336 617.346 312.09C617.068 311.843 616.899 311.503 616.837 311.071C616.837 310.794 617.747 307.045 619.567 299.826L622.437 288.257C622.529 287.794 622.575 287.208 622.575 286.498C622.575 284.678 621.897 283.768 620.539 283.768H620.308C617.655 283.768 615.418 285.326 613.598 288.442L613.274 288.997L611.746 295.198C610.728 299.24 610.142 301.415 609.988 301.723C609.587 302.556 608.924 302.973 607.998 302.973C607.597 302.973 607.273 302.88 607.026 302.695C606.779 302.51 606.61 302.325 606.517 302.14C606.425 301.955 606.394 301.8 606.425 301.677C606.425 301.276 607.042 298.623 608.276 293.717C609.51 288.812 610.127 286.082 610.127 285.526C610.127 284.323 609.726 283.721 608.924 283.721C608.276 283.721 607.72 284.153 607.258 285.017C606.795 285.881 606.425 286.822 606.147 287.84C605.869 288.858 605.7 289.414 605.638 289.506C605.576 289.568 605.329 289.599 604.897 289.599H604.249C604.064 289.414 603.972 289.275 603.972 289.182Z" fill="black"/>
<path d="M680 287.051C680 286.595 680.245 286.245 680.735 286H714.198C714.724 286.28 714.986 286.63 714.986 287.051C714.986 287.436 714.741 287.769 714.251 288.049L697.546 288.101H680.841C680.28 287.926 680 287.576 680 287.051ZM680 297.242C680 296.716 680.28 296.366 680.841 296.191H714.251C714.741 296.541 714.986 296.892 714.986 297.242C714.986 297.697 714.724 298.047 714.198 298.292H680.735C680.245 298.047 680 297.697 680 297.242Z" fill="black"/>
<circle cx="471" cy="293" r="4" fill="black"/>
<path d="M482.269 329C480.115 329 478.373 328.287 477.043 326.862C475.713 325.437 475.032 323.647 475 321.493C475 318.326 476.156 315.38 478.468 312.656C480.781 309.932 483.473 308.396 486.545 308.048C486.577 308.016 488.794 308 493.197 308H499.753C499.785 308.032 499.833 308.063 499.896 308.095C499.959 308.127 500.023 308.158 500.086 308.19C500.149 308.222 500.197 308.253 500.228 308.285C500.26 308.317 500.308 308.364 500.371 308.428C500.434 308.491 500.466 308.523 500.466 308.523C500.466 308.523 500.498 308.586 500.561 308.713C500.624 308.839 500.64 308.903 500.609 308.903C500.577 308.903 500.593 308.982 500.656 309.14C500.719 309.299 500.735 309.394 500.704 309.425C500.704 310.819 499.674 311.516 497.615 311.516C497.394 311.516 497.124 311.516 496.808 311.516C496.491 311.516 496.269 311.5 496.143 311.468H493.292L493.529 311.943C494.1 313.147 494.385 314.493 494.385 315.982C494.385 319.466 493.118 322.507 490.584 325.104C488.05 327.701 485.278 329 482.269 329ZM490.679 315.269C490.679 312.735 489.333 311.468 486.64 311.468C482.713 311.468 480.163 314.224 478.991 319.735C478.959 319.862 478.943 319.957 478.943 320.02C478.69 321.192 478.563 322.158 478.563 322.919C478.563 324.502 478.959 325.611 479.751 326.244C480.543 326.878 481.446 327.21 482.459 327.242C484.17 327.242 485.738 326.498 487.163 325.009C488.081 324.059 488.826 322.792 489.396 321.208C489.966 319.624 490.314 318.357 490.441 317.407C490.568 316.457 490.647 315.744 490.679 315.269Z" fill="black"/>
<circle cx="474" cy="293" r="48" stroke="black" stroke-width="4"/>
<path d="M866 560L866 9.99998" stroke="black" stroke-width="4" stroke-linecap="round"/>
<path d="M864 560C864 561.105 864.895 562 866 562C867.105 562 868 561.105 868 560L864 560ZM866 285L854.453 305L877.547 305L866 285ZM868 560L868 303L864 303L864 560L868 560Z" fill="black"/>
<path d="M893 289.187C893.031 289.095 893.062 288.971 893.093 288.817C893.123 288.663 893.201 288.323 893.324 287.799C893.447 287.274 893.602 286.796 893.787 286.364C893.972 285.932 894.203 285.423 894.481 284.837C894.759 284.251 895.067 283.788 895.406 283.449C895.746 283.109 896.147 282.77 896.61 282.431C897.072 282.091 897.581 281.953 898.137 282.014C898.877 282.014 899.541 282.122 900.127 282.338C900.713 282.554 901.176 282.832 901.515 283.171C901.854 283.511 902.101 283.85 902.256 284.189C902.41 284.529 902.533 284.822 902.626 285.069L902.718 285.393C902.718 285.454 902.734 285.485 902.765 285.485L903.274 284.976C905.156 283.001 907.3 282.014 909.706 282.014C911.372 282.014 912.714 282.431 913.732 283.264C914.751 284.097 915.275 285.315 915.306 286.92V287.382C915.306 288.123 914.319 292.334 912.344 300.016C910.555 307.266 909.598 310.999 909.475 311.215C909.074 312.048 908.38 312.465 907.392 312.465C906.991 312.465 906.652 312.342 906.374 312.095C906.097 311.848 905.927 311.509 905.865 311.077C905.865 310.799 906.775 307.05 908.596 299.831L911.465 288.262C911.557 287.799 911.604 287.213 911.604 286.503C911.604 284.683 910.925 283.773 909.567 283.773H909.336C906.683 283.773 904.446 285.331 902.626 288.447L902.302 289.002L900.775 295.203C899.757 299.245 899.17 301.42 899.016 301.729C898.615 302.562 897.952 302.978 897.026 302.978C896.625 302.978 896.301 302.885 896.054 302.7C895.808 302.515 895.638 302.33 895.545 302.145C895.453 301.96 895.422 301.806 895.453 301.682C895.453 301.281 896.07 298.628 897.304 293.722C898.538 288.817 899.155 286.087 899.155 285.531C899.155 284.328 898.754 283.727 897.952 283.727C897.304 283.727 896.748 284.158 896.286 285.022C895.823 285.886 895.453 286.827 895.175 287.845C894.897 288.863 894.728 289.419 894.666 289.511C894.604 289.573 894.357 289.604 893.926 289.604H893.278C893.093 289.419 893 289.28 893 289.187Z" fill="black"/>
<path d="M749 319.039C749 319.039 749 318.837 749 318.433C749 318.029 749.217 317.719 749.652 317.501H776.722C777.188 317.75 777.421 318.06 777.421 318.433C777.421 318.806 777.188 319.116 776.722 319.365H749.652C749.217 319.147 749 318.837 749 318.433V319.039Z" fill="black"/>
<path d="M789.907 330.593C787.795 330.593 786.087 329.894 784.782 328.497C783.477 327.099 782.81 325.344 782.779 323.232C782.779 320.126 783.912 317.237 786.18 314.566C788.447 311.895 791.087 310.388 794.1 310.047C794.131 310.016 796.306 310 800.623 310H807.053C807.084 310.031 807.13 310.062 807.192 310.093C807.255 310.124 807.317 310.155 807.379 310.186C807.441 310.217 807.487 310.248 807.519 310.28C807.55 310.311 807.596 310.357 807.658 310.419C807.72 310.481 807.752 310.513 807.752 310.513C807.752 310.513 807.783 310.575 807.845 310.699C807.907 310.823 807.922 310.885 807.891 310.885C807.86 310.885 807.876 310.963 807.938 311.118C808 311.274 808.016 311.367 807.984 311.398C807.984 312.764 806.975 313.448 804.956 313.448C804.739 313.448 804.475 313.448 804.164 313.448C803.853 313.448 803.636 313.432 803.512 313.401H800.716L800.949 313.867C801.508 315.047 801.788 316.367 801.788 317.827C801.788 321.244 800.545 324.226 798.061 326.773C795.576 329.32 792.858 330.593 789.907 330.593ZM798.154 317.128C798.154 314.644 796.834 313.401 794.193 313.401C790.342 313.401 787.842 316.103 786.692 321.508C786.661 321.632 786.646 321.725 786.646 321.788C786.397 322.937 786.273 323.884 786.273 324.63C786.273 326.183 786.661 327.27 787.438 327.891C788.214 328.512 789.099 328.838 790.093 328.869C791.771 328.869 793.308 328.14 794.706 326.68C795.607 325.748 796.337 324.505 796.896 322.952C797.455 321.399 797.797 320.157 797.921 319.225C798.045 318.293 798.123 317.594 798.154 317.128Z" fill="black"/>
<circle cx="775" cy="293" r="4" fill="black"/>
<circle cx="1512.31" cy="277.853" r="4" fill="black"/>
<path d="M1523.58 313.853C1521.42 313.853 1519.68 313.14 1518.35 311.715C1517.02 310.289 1516.34 308.5 1516.31 306.346C1516.31 303.178 1517.46 300.233 1519.77 297.509C1522.09 294.785 1524.78 293.248 1527.85 292.9C1527.88 292.868 1530.1 292.853 1534.5 292.853H1541.06C1541.09 292.884 1541.14 292.916 1541.2 292.948C1541.27 292.979 1541.33 293.011 1541.39 293.043C1541.46 293.074 1541.5 293.106 1541.53 293.138C1541.57 293.169 1541.61 293.217 1541.68 293.28C1541.74 293.344 1541.77 293.375 1541.77 293.375C1541.77 293.375 1541.8 293.439 1541.87 293.565C1541.93 293.692 1541.95 293.755 1541.91 293.755C1541.88 293.755 1541.9 293.834 1541.96 293.993C1542.03 294.151 1542.04 294.246 1542.01 294.278C1542.01 295.672 1540.98 296.368 1538.92 296.368C1538.7 296.368 1538.43 296.368 1538.11 296.368C1537.8 296.368 1537.58 296.353 1537.45 296.321H1534.6L1534.84 296.796C1535.41 298 1535.69 299.346 1535.69 300.834C1535.69 304.319 1534.42 307.359 1531.89 309.957C1529.36 312.554 1526.58 313.853 1523.58 313.853ZM1531.98 300.122C1531.98 297.588 1530.64 296.321 1527.95 296.321C1524.02 296.321 1521.47 299.077 1520.3 304.588C1520.27 304.715 1520.25 304.81 1520.25 304.873C1520 306.045 1519.87 307.011 1519.87 307.771C1519.87 309.355 1520.27 310.463 1521.06 311.097C1521.85 311.73 1522.75 312.063 1523.77 312.095C1525.48 312.095 1527.04 311.35 1528.47 309.862C1529.39 308.911 1530.13 307.644 1530.7 306.061C1531.27 304.477 1531.62 303.21 1531.75 302.26C1531.87 301.31 1531.95 300.597 1531.98 300.122Z" fill="black"/>
<circle cx="1515.31" cy="277.853" r="48" stroke="black" stroke-width="4"/>
<path d="M1575.43 303.187C1575.95 303.187 1576.21 303.307 1576.21 303.548C1576.28 303.617 1576.48 304.305 1576.83 305.612C1577.17 306.92 1577.88 309.224 1578.95 312.527C1580.01 315.829 1581.27 319.356 1582.72 323.105C1584.51 328.093 1586.34 332.17 1588.2 335.335L1588.46 335.799L1589.49 331.723C1590.56 327.526 1591.73 323.14 1593.01 318.564C1594.59 312.923 1595.78 308.966 1596.57 306.696C1597.36 304.426 1598.17 302.877 1599 302.052C1600.83 300.229 1603.21 299.179 1606.13 298.904C1606.2 298.904 1606.38 298.904 1606.65 298.904C1606.93 298.904 1607.12 298.887 1607.22 298.853H1607.43C1608.01 298.853 1608.31 299.265 1608.31 300.091C1608.31 301.57 1607.82 302.826 1606.86 303.858C1606.55 304.168 1606.08 304.322 1605.46 304.322C1604.22 304.391 1603.1 304.58 1602.1 304.89C1601.1 305.2 1600.4 305.509 1599.98 305.819C1599.57 306.128 1599.31 306.386 1599.21 306.593C1598.55 307.659 1596.92 313.112 1594.3 322.951C1591.68 332.789 1590.35 338.07 1590.32 338.792C1590.32 338.827 1590.3 338.827 1590.27 338.792C1590.27 338.723 1590.25 338.723 1590.21 338.792C1590.18 338.827 1590.16 338.878 1590.16 338.947C1589.92 339.497 1589.46 339.996 1588.77 340.443C1588.08 340.891 1587.37 341.131 1586.65 341.166C1586.3 341.166 1586.06 341.114 1585.92 341.011C1585.79 340.908 1585.51 340.547 1585.1 339.927C1583.51 337.382 1582.27 335.146 1581.38 333.219C1580.48 331.293 1579.45 328.73 1578.27 325.531C1576.69 321.402 1575.24 317.24 1573.93 313.043L1573.52 311.959V312.011C1573.52 312.045 1573.35 312.837 1573 314.385C1572.66 315.933 1572.24 317.808 1571.76 320.009C1571.28 322.211 1570.62 324.619 1569.8 327.233C1568.97 329.848 1568.13 332.239 1567.26 334.406C1566.4 336.573 1565.4 338.414 1564.27 339.927C1563.13 341.441 1561.99 342.181 1560.85 342.146C1559.92 342.146 1558.94 341.871 1557.91 341.321C1556.87 340.77 1556.34 340.048 1556.31 339.153C1556.31 338.293 1556.56 337.382 1557.08 336.419C1557.6 335.455 1558.12 334.956 1558.63 334.922C1558.74 334.922 1559.05 335.146 1559.56 335.593C1560.08 336.04 1560.96 336.384 1562.2 336.625H1562.46C1563.04 336.625 1563.58 336.264 1564.06 335.541C1564.54 334.819 1565.21 333.185 1566.08 330.639C1567.59 326.305 1568.8 322.108 1569.69 318.048C1570.59 313.989 1571.16 310.859 1571.4 308.657C1571.64 306.455 1571.83 305.286 1571.97 305.148C1572.24 304.666 1572.73 304.219 1573.42 303.806C1574.1 303.393 1574.78 303.187 1575.43 303.187Z" fill="black"/>
<path d="M1756.23 255.386C1758.8 251.697 1762.32 249.853 1766.77 249.853C1768.98 249.853 1771.18 250.445 1773.38 251.629C1775.59 252.813 1777.38 254.908 1778.76 257.914C1780.46 261.695 1781.31 266.887 1781.31 273.491C1781.31 280.551 1780.32 285.948 1778.34 289.683C1777.43 291.596 1776.16 293.122 1774.56 294.26C1772.95 295.399 1771.55 296.105 1770.35 296.378C1769.16 296.651 1767.99 296.811 1766.84 296.856C1765.65 296.856 1764.45 296.72 1763.26 296.446C1762.06 296.173 1760.66 295.444 1759.06 294.26C1757.45 293.076 1756.19 291.55 1755.27 289.683C1753.29 285.948 1752.31 280.551 1752.31 273.491C1752.31 265.566 1753.61 259.531 1756.23 255.386ZM1771.73 254.567C1770.35 253.109 1768.72 252.38 1766.84 252.38C1764.91 252.38 1763.26 253.109 1761.88 254.567C1760.73 255.751 1759.97 257.39 1759.61 259.486C1759.24 261.581 1759.06 265.953 1759.06 272.603C1759.06 279.799 1759.24 284.536 1759.61 286.813C1759.97 289.091 1760.8 290.89 1762.09 292.211C1763.37 293.577 1764.96 294.26 1766.84 294.26C1768.68 294.26 1770.24 293.577 1771.52 292.211C1772.86 290.844 1773.68 288.931 1774 286.472C1774.33 284.012 1774.51 279.389 1774.56 272.603C1774.56 265.999 1774.37 261.649 1774 259.554C1773.64 257.459 1772.88 255.796 1771.73 254.567Z" fill="black"/>
<path d="M1646.31 271.903C1646.31 271.448 1646.55 271.098 1647.04 270.853H1680.5C1681.03 271.133 1681.29 271.483 1681.29 271.903C1681.29 272.288 1681.05 272.621 1680.56 272.901L1663.85 272.954H1647.15C1646.59 272.779 1646.31 272.429 1646.31 271.903ZM1646.31 282.094C1646.31 281.569 1646.59 281.219 1647.15 281.044H1680.56C1681.05 281.394 1681.29 281.744 1681.29 282.094C1681.29 282.55 1681.03 282.9 1680.5 283.145H1647.04C1646.55 282.9 1646.31 282.55 1646.31 282.094Z" fill="black"/>
</svg>
