<svg width="1049" height="446" viewBox="0 0 1049 446" fill="none" xmlns="http://www.w3.org/2000/svg">
<path d="M540.907 190.442C372.779 159.174 304.86 248.996 282.85 303.792C249.454 386.937 396.63 408.152 476.002 330.761C555.373 253.371 741.701 459.367 752.044 385.873C765.431 290.75 635.378 208.013 540.907 190.442Z" fill="#D9D9D9" fill-opacity="0.4" stroke="black"/>
<path d="M387 274C365.29 184.747 368.908 152.811 373.431 148" stroke="#014973" stroke-width="2" stroke-dasharray="1 4"/>
<path d="M387 274C396.075 198.986 416.337 197.642 451.151 179.841C485.964 162.04 476.185 144.531 469.144 141" stroke="#014973" stroke-width="2" stroke-dasharray="1 4"/>
<path d="M387.339 274C385.395 198.597 391.52 175.937 413.393 143.901C435.266 111.864 466.668 85.6883 490 81" stroke="#014973" stroke-width="2" stroke-dasharray="1 4"/>
<path d="M387 274C396.064 199.133 467.87 205.476 511.235 205.476C554.6 205.476 608.904 178.066 630 144" stroke="#014973" stroke-width="2" stroke-dasharray="1 4"/>
<path d="M559.907 51.4425C391.779 20.1737 323.86 109.996 301.85 164.792C268.454 247.937 415.63 269.152 495.002 191.761C574.373 114.371 760.701 320.367 771.044 246.873C784.431 151.75 654.378 69.0125 559.907 51.4425Z" fill="#D9D9D9" fill-opacity="0.4" stroke="black"/>
<circle cx="387" cy="274" r="2" fill="black"/>
<circle cx="374" cy="148" r="2" fill="black"/>
<circle cx="490" cy="80" r="2" fill="black"/>
<circle cx="469" cy="141" r="2" fill="black"/>
<circle cx="630" cy="144" r="2" fill="black"/>
<g clip-path="url(#clip0_1_3)">
<path d="M638.315 340.05C638.13 339.948 638.07 339.837 638.136 339.718C638.156 339.681 638.24 339.584 638.388 339.426C638.535 339.268 638.647 339.12 638.723 338.982C638.88 338.698 638.879 338.47 638.72 338.298C638.562 338.127 638.131 337.847 637.428 337.459L636.706 337.061C636.687 337.074 636.175 337.618 635.172 338.693C634.169 339.767 633.657 340.323 633.637 340.36C633.617 340.396 633.657 340.443 633.759 340.499C633.861 340.555 634.226 340.768 634.854 341.139C635.723 341.619 636.302 341.926 636.589 342.061C636.877 342.196 637.187 342.289 637.521 342.341C638.055 342.445 638.571 342.394 639.07 342.191C639.568 341.987 640.229 341.567 641.05 340.931C641.254 340.78 641.375 340.703 641.413 340.7C641.488 340.717 641.562 340.747 641.636 340.787C641.821 340.889 641.881 341 641.815 341.119C639.557 342.915 638.393 343.822 638.321 343.843C638.283 343.846 636.955 343.125 634.338 341.68L631.716 340.233C630.772 339.713 630.328 339.402 630.384 339.301C630.394 339.282 630.443 339.226 630.532 339.131C630.65 339.005 630.733 338.942 630.78 338.944C630.827 338.947 630.941 338.991 631.122 339.079C631.371 339.217 631.656 339.356 631.977 339.497C632.122 339.541 632.24 339.535 632.332 339.478C632.375 339.442 633.415 338.334 635.452 336.153C637.488 333.972 638.521 332.866 638.55 332.834C638.585 332.77 638.585 332.728 638.548 332.707C638.489 332.639 638.256 332.481 637.85 332.233L637.42 331.995C637.395 331.91 637.388 331.858 637.398 331.839C637.408 331.821 637.46 331.748 637.555 331.621C637.678 331.485 637.777 331.414 637.853 331.408L645.539 335.65C645.584 335.722 645.588 335.791 645.553 335.855C645.528 335.901 645.184 336.382 644.522 337.297C643.859 338.213 643.516 338.682 643.492 338.704C643.438 338.758 643.327 338.74 643.161 338.648L642.994 338.556C642.955 338.474 642.956 338.397 642.996 338.323L643.213 338.03C643.362 337.825 643.507 337.594 643.649 337.337C643.801 337.061 643.895 336.814 643.932 336.595C643.968 336.375 643.959 336.185 643.904 336.022C643.849 335.86 643.727 335.698 643.54 335.534C643.352 335.371 643.153 335.219 642.941 335.078C642.729 334.937 642.438 334.765 642.068 334.56L641.416 334.201C640.597 333.761 640.159 333.537 640.103 333.53C640.056 333.528 640.005 333.554 639.951 333.608C639.927 333.63 639.472 334.115 638.587 335.064C637.701 336.012 637.249 336.493 637.23 336.506C637.437 336.632 637.657 336.759 637.888 336.887L638.249 337.086C638.859 337.423 639.318 337.586 639.625 337.576C639.933 337.566 640.346 337.31 640.865 336.806C640.983 336.679 641.056 336.612 641.085 336.604C641.114 336.596 641.2 336.626 641.344 336.693C641.39 336.718 641.427 336.739 641.455 336.754C641.483 336.769 641.503 336.787 641.517 336.806C641.53 336.826 641.537 336.835 641.537 336.835C641.537 336.835 641.536 336.859 641.534 336.906C641.532 336.953 641.536 336.979 641.545 336.984L640.085 338.548C639.106 339.6 638.597 340.128 638.559 340.131C638.517 340.143 638.435 340.116 638.315 340.05Z" fill="black"/>
<path d="M641.71 342.894C641.585 342.825 641.538 342.765 641.566 342.713C641.584 342.681 641.737 342.528 642.024 342.255C642.311 341.982 642.603 341.715 642.9 341.456L643.33 341.071C643.427 340.972 643.516 340.911 643.597 340.888L648.188 343.422L649.07 343.909C649.28 344.024 649.402 344.096 649.438 344.124C649.474 344.152 649.48 344.194 649.458 344.25C649.437 344.289 649.177 344.628 648.679 345.267C648.181 345.907 647.924 346.226 647.907 346.225C647.882 346.271 647.808 346.259 647.683 346.191C647.624 346.158 647.585 346.136 647.566 346.126C647.546 346.115 647.535 346.088 647.534 346.045L647.53 346.005C647.552 345.966 647.652 345.83 647.831 345.599C648.01 345.368 648.138 345.181 648.217 345.038C648.342 344.811 648.395 344.615 648.374 344.452C648.354 344.288 648.219 344.108 647.969 343.911C647.94 343.886 647.754 343.775 647.411 343.577C647.11 343.411 646.919 343.31 646.837 343.273C646.755 343.236 646.681 343.229 646.617 343.253C646.607 343.256 645.875 344.033 644.422 345.584C642.969 347.136 642.233 347.927 642.215 347.96C642.172 348.038 642.435 348.242 643.003 348.572C643.213 348.688 643.345 348.765 643.4 348.804C643.455 348.843 643.469 348.889 643.44 348.94C643.422 348.973 643.387 349.013 643.335 349.06C643.245 349.163 643.178 349.215 643.134 349.216L643.109 349.215C643.09 349.204 643.067 349.192 643.041 349.177C643.008 349.159 642.84 349.062 642.536 348.886C642.232 348.71 641.793 348.463 641.217 348.145C640.374 347.68 639.834 347.39 639.598 347.277L639.451 347.196C639.433 347.135 639.429 347.095 639.44 347.076C639.451 347.056 639.49 347.001 639.556 346.911C639.629 346.841 639.696 346.798 639.757 346.781L640.031 346.932L640.139 346.992C640.662 347.28 640.989 347.423 641.119 347.418C641.129 347.416 641.138 347.416 641.144 347.419C641.188 347.418 641.256 347.371 641.35 347.279C641.443 347.187 641.855 346.75 642.585 345.967C642.94 345.588 643.23 345.278 643.456 345.039C644.899 343.507 645.631 342.722 645.652 342.683C645.67 342.65 645.584 342.582 645.395 342.477L645.091 342.309C644.652 342.067 644.354 341.928 644.195 341.891C643.865 341.794 643.563 341.8 643.288 341.911C643.014 342.022 642.63 342.301 642.136 342.748C642.011 342.866 641.932 342.932 641.898 342.947C641.864 342.962 641.811 342.95 641.739 342.91L641.71 342.894Z" fill="black"/>
<path d="M654.977 346.839C655.043 346.72 655.159 346.664 655.324 346.671L664.161 351.548C664.26 351.698 664.278 351.828 664.218 351.938C664.162 352.039 664.049 352.091 663.879 352.093L659.459 349.672L655.047 347.237C654.925 347.109 654.901 346.977 654.977 346.839ZM653.503 349.51C653.579 349.372 653.704 349.321 653.877 349.357L662.701 354.227C662.78 354.39 662.794 354.517 662.744 354.609C662.678 354.728 662.558 354.782 662.384 354.77L653.546 349.892C653.452 349.756 653.438 349.629 653.503 349.51Z" fill="black"/>
<path d="M674.657 360.106C674.472 360.004 674.412 359.893 674.478 359.774C674.498 359.737 674.582 359.64 674.73 359.482C674.877 359.324 674.989 359.176 675.065 359.038C675.222 358.754 675.221 358.526 675.063 358.354C674.904 358.183 674.473 357.903 673.77 357.515L673.048 357.117C673.029 357.131 672.518 357.674 671.514 358.749C670.511 359.824 669.999 360.379 669.979 360.416C669.959 360.453 670 360.499 670.101 360.555C670.203 360.611 670.568 360.825 671.196 361.195C672.065 361.675 672.644 361.982 672.932 362.117C673.219 362.252 673.53 362.346 673.863 362.398C674.397 362.501 674.914 362.451 675.412 362.247C675.911 362.043 676.571 361.623 677.392 360.987C677.596 360.836 677.717 360.759 677.755 360.756C677.83 360.774 677.904 360.803 677.978 360.844C678.163 360.946 678.223 361.057 678.157 361.176C675.899 362.971 674.735 363.879 674.663 363.899C674.625 363.902 673.298 363.181 670.68 361.737L668.058 360.29C667.114 359.769 666.67 359.458 666.726 359.357C666.736 359.339 666.786 359.282 666.874 359.187C666.992 359.061 667.075 358.999 667.122 359.001C667.169 359.003 667.283 359.048 667.464 359.136C667.714 359.273 667.999 359.413 668.319 359.554C668.464 359.598 668.582 359.591 668.674 359.534C668.718 359.498 669.758 358.39 671.794 356.209C673.83 354.029 674.863 352.922 674.892 352.891C674.928 352.827 674.927 352.784 674.89 352.764C674.831 352.695 674.599 352.537 674.193 352.289L673.762 352.052C673.737 351.966 673.73 351.914 673.74 351.896C673.75 351.877 673.802 351.804 673.897 351.677C674.02 351.541 674.119 351.471 674.195 351.464L681.882 355.706C681.926 355.779 681.931 355.847 681.895 355.911C681.87 355.957 681.526 356.438 680.864 357.354C680.202 358.269 679.858 358.738 679.834 358.761C679.78 358.815 679.67 358.796 679.503 358.704L679.337 358.612C679.297 358.53 679.298 358.453 679.338 358.38L679.555 358.086C679.704 357.881 679.85 357.65 679.991 357.393C680.143 357.118 680.238 356.87 680.274 356.651C680.311 356.432 680.301 356.241 680.246 356.079C680.191 355.917 680.069 355.754 679.882 355.591C679.695 355.427 679.495 355.275 679.283 355.134C679.071 354.994 678.78 354.821 678.41 354.617L677.758 354.257C676.939 353.817 676.502 353.593 676.445 353.586C676.398 353.584 676.347 353.61 676.294 353.664C676.269 353.687 675.814 354.172 674.929 355.12C674.044 356.068 673.591 356.549 673.572 356.562C673.78 356.689 673.999 356.816 674.23 356.943L674.591 357.143C675.202 357.479 675.66 357.643 675.968 357.633C676.275 357.623 676.688 357.366 677.207 356.862C677.325 356.736 677.399 356.669 677.427 356.66C677.456 356.652 677.542 356.682 677.686 356.749C677.732 356.775 677.769 356.795 677.797 356.811C677.825 356.826 677.845 356.843 677.859 356.863C677.872 356.882 677.879 356.892 677.879 356.892C677.879 356.892 677.878 356.915 677.876 356.962C677.874 357.009 677.878 357.035 677.887 357.04L676.427 358.605C675.448 359.657 674.94 360.184 674.902 360.187C674.859 360.2 674.777 360.173 674.657 360.106Z" fill="black"/>
<path d="M680.99 362.032C680.813 361.935 680.71 361.874 680.681 361.849C680.652 361.825 680.655 361.78 680.691 361.715C680.788 361.54 680.883 361.453 680.976 361.453C680.993 361.454 681.564 361.765 682.689 362.386C683.81 363.013 684.413 363.358 684.497 363.422C684.835 363.676 685.092 363.936 685.269 364.203C685.445 364.47 685.54 364.717 685.551 364.943C685.563 365.17 685.554 365.347 685.526 365.475C685.498 365.604 685.457 365.725 685.402 365.839C685.241 366.131 684.996 366.351 684.667 366.499C684.338 366.648 684.011 366.722 683.687 366.721C683.364 366.72 683.084 366.709 682.848 366.689C682.611 366.669 682.464 366.642 682.405 366.61L682.447 366.696C682.749 367.185 682.771 367.662 682.513 368.13C682.474 368.201 682.348 368.39 682.136 368.696C681.925 369.003 681.762 369.26 681.647 369.467L681.599 369.555C681.534 369.672 681.487 369.764 681.458 369.833C681.429 369.901 681.432 369.979 681.469 370.067C681.506 370.155 681.575 370.232 681.676 370.296C681.859 370.397 682.049 370.408 682.245 370.331C682.442 370.253 682.611 370.147 682.753 370.014C682.836 369.941 682.892 369.9 682.923 369.892C682.953 369.883 683.007 369.901 683.086 369.944C683.217 370.016 683.261 370.091 683.218 370.169C683.153 370.286 682.973 370.427 682.676 370.594C682.223 370.826 681.827 370.849 681.487 370.661L681.399 370.613C681 370.392 680.714 370.129 680.542 369.823C680.37 369.516 680.366 369.184 680.53 368.825C680.626 368.65 680.826 368.405 681.128 368.089C681.43 367.773 681.61 367.563 681.667 367.46C681.85 367.129 681.842 366.811 681.643 366.507C681.57 366.407 681.502 366.336 681.441 366.293C681.379 366.251 681.15 366.116 680.755 365.89L680.078 365.516L679.066 366.608C678.377 367.345 678.03 367.721 678.022 367.734C678.008 367.76 678.002 367.778 678.005 367.788C678.008 367.798 678.024 367.823 678.053 367.864C678.081 367.906 678.133 367.943 678.209 367.976C678.284 368.009 678.388 368.075 678.522 368.174L678.826 368.342C678.836 368.415 678.84 368.455 678.836 368.462C678.833 368.468 678.791 368.521 678.71 368.621C678.637 368.691 678.571 368.734 678.51 368.752L678.363 368.671C678.135 368.528 677.71 368.285 677.089 367.942C676.866 367.819 676.66 367.705 676.471 367.601C676.281 367.496 676.13 367.413 676.019 367.352C675.908 367.29 675.838 367.256 675.808 367.248C675.697 367.187 675.657 367.127 675.69 367.068C675.697 367.055 675.732 367.015 675.794 366.948C675.895 366.843 675.965 366.793 676.005 366.798C676.035 366.806 676.086 366.83 676.158 366.869L676.216 366.902C676.393 366.999 676.595 367.098 676.821 367.198C676.923 367.229 677.007 367.224 677.072 367.184C677.106 367.168 677.839 366.396 679.271 364.868C680.704 363.339 681.447 362.526 681.501 362.428C681.526 362.383 681.355 362.251 680.99 362.032ZM684.468 365.005C684.582 364.798 684.61 364.585 684.552 364.366C684.493 364.148 684.262 363.902 683.858 363.628C683.845 363.621 683.77 363.579 683.633 363.504C683.496 363.428 683.373 363.356 683.265 363.288L683.05 363.169C682.742 362.999 682.548 362.934 682.466 362.974C682.449 362.99 682.1 363.36 681.418 364.084C680.737 364.809 680.391 365.181 680.38 365.2C680.377 365.207 680.601 365.335 681.052 365.584C681.565 365.859 681.918 366.023 682.109 366.078C682.564 366.244 682.996 366.234 683.407 366.045C683.594 365.954 683.79 365.808 683.994 365.608C684.199 365.407 684.357 365.207 684.468 365.005Z" fill="black"/>
</g>
<g clip-path="url(#clip1_1_3)">
<path d="M646.848 188.619C646.659 188.514 646.598 188.4 646.666 188.277C646.687 188.239 646.774 188.138 646.926 187.975C647.078 187.812 647.194 187.66 647.272 187.518C647.435 187.225 647.435 186.99 647.273 186.814C647.111 186.637 646.67 186.35 645.951 185.952L645.213 185.543C645.193 185.557 644.666 186.118 643.632 187.226C642.597 188.335 642.069 188.908 642.048 188.946C642.027 188.984 642.069 189.031 642.173 189.089C642.277 189.147 642.65 189.366 643.293 189.746C644.182 190.239 644.774 190.555 645.068 190.693C645.363 190.831 645.681 190.927 646.022 190.98C646.57 191.086 647.099 191.033 647.612 190.822C648.124 190.611 648.804 190.178 649.649 189.521C649.859 189.365 649.984 189.286 650.023 189.283C650.099 189.301 650.176 189.33 650.251 189.372C650.44 189.477 650.501 189.591 650.433 189.714C648.108 191.567 646.909 192.504 646.836 192.525C646.797 192.528 645.438 191.788 642.761 190.305L640.078 188.819C639.113 188.284 638.66 187.965 638.717 187.861C638.728 187.842 638.779 187.784 638.87 187.686C638.992 187.556 639.077 187.491 639.125 187.493C639.173 187.495 639.29 187.542 639.475 187.632C639.73 187.773 640.022 187.916 640.35 188.061C640.498 188.106 640.62 188.099 640.714 188.04C640.759 188.003 641.832 186.86 643.931 184.61C646.03 182.36 647.095 181.219 647.126 181.186C647.162 181.12 647.162 181.077 647.124 181.056C647.064 180.985 646.826 180.823 646.411 180.568L645.971 180.324C645.946 180.236 645.938 180.182 645.949 180.164C645.959 180.145 646.013 180.069 646.111 179.938C646.238 179.798 646.34 179.725 646.418 179.719L654.281 184.074C654.326 184.149 654.33 184.219 654.293 184.285C654.267 184.333 653.912 184.828 653.228 185.773C652.545 186.717 652.19 187.2 652.165 187.224C652.109 187.279 651.996 187.26 651.826 187.166L651.656 187.071C651.616 186.987 651.617 186.908 651.659 186.832L651.882 186.529C652.036 186.318 652.187 186.08 652.333 185.815C652.491 185.531 652.588 185.276 652.627 185.05C652.666 184.824 652.657 184.628 652.601 184.461C652.545 184.294 652.422 184.126 652.23 183.958C652.039 183.791 651.835 183.634 651.618 183.49C651.402 183.345 651.104 183.168 650.726 182.958L650.059 182.588C649.221 182.137 648.773 181.907 648.715 181.9C648.667 181.898 648.615 181.925 648.559 181.98C648.534 182.004 648.065 182.504 647.152 183.482C646.239 184.461 645.773 184.956 645.753 184.97C645.965 185.1 646.19 185.231 646.426 185.362L646.795 185.566C647.42 185.912 647.89 186.08 648.205 186.069C648.52 186.058 648.945 185.793 649.48 185.273C649.602 185.142 649.678 185.073 649.707 185.065C649.736 185.056 649.825 185.086 649.972 185.156C650.019 185.182 650.057 185.203 650.085 185.219C650.114 185.234 650.135 185.252 650.149 185.272C650.162 185.292 650.169 185.302 650.169 185.302C650.169 185.302 650.168 185.326 650.166 185.374C650.164 185.423 650.168 185.45 650.177 185.455L648.671 187.069C647.662 188.154 647.138 188.699 647.099 188.702C647.055 188.714 646.971 188.687 646.848 188.619Z" fill="black"/>
<path d="M650.316 191.542C650.189 191.471 650.14 191.409 650.17 191.356C650.188 191.322 650.346 191.165 650.642 190.883C650.938 190.601 651.238 190.326 651.544 190.059L651.987 189.661C652.087 189.559 652.179 189.497 652.262 189.473L656.958 192.074L657.861 192.574C658.075 192.693 658.2 192.767 658.237 192.795C658.273 192.824 658.28 192.867 658.257 192.925C658.235 192.965 657.967 193.315 657.453 193.974C656.939 194.634 656.673 194.963 656.656 194.962C656.63 195.009 656.554 194.997 656.427 194.927C656.366 194.893 656.326 194.871 656.306 194.86C656.286 194.849 656.275 194.821 656.274 194.777L656.27 194.735C656.293 194.695 656.396 194.556 656.581 194.317C656.765 194.079 656.898 193.886 656.98 193.738C657.11 193.504 657.164 193.303 657.144 193.134C657.124 192.966 656.986 192.78 656.731 192.578C656.701 192.553 656.511 192.439 656.16 192.235C655.853 192.065 655.657 191.961 655.573 191.923C655.489 191.885 655.414 191.879 655.348 191.903C655.337 191.906 654.583 192.708 653.085 194.308C651.586 195.908 650.828 196.725 650.809 196.759C650.765 196.839 651.033 197.049 651.614 197.388C651.828 197.507 651.964 197.586 652.02 197.626C652.077 197.666 652.09 197.713 652.06 197.767C652.042 197.8 652.006 197.841 651.953 197.89C651.859 197.996 651.79 198.05 651.746 198.051L651.72 198.05C651.7 198.039 651.676 198.026 651.65 198.011C651.616 197.993 651.444 197.893 651.133 197.712C650.823 197.531 650.373 197.278 649.784 196.952C648.921 196.474 648.369 196.176 648.128 196.06L647.977 195.977C647.959 195.914 647.956 195.873 647.967 195.853C647.978 195.833 648.018 195.776 648.087 195.684C648.162 195.611 648.231 195.566 648.293 195.548L648.574 195.704L648.684 195.765C649.22 196.062 649.554 196.208 649.688 196.203C649.698 196.2 649.707 196.2 649.713 196.204C649.758 196.203 649.828 196.154 649.925 196.059C650.021 195.964 650.446 195.513 651.199 194.706C651.565 194.314 651.864 193.995 652.097 193.748C653.584 192.168 654.339 191.357 654.361 191.317C654.38 191.284 654.292 191.213 654.098 191.106L653.787 190.934C653.339 190.685 653.033 190.542 652.87 190.505C652.532 190.405 652.222 190.412 651.94 190.527C651.658 190.642 651.263 190.93 650.754 191.391C650.625 191.512 650.544 191.581 650.509 191.596C650.474 191.612 650.42 191.599 650.346 191.558L650.316 191.542Z" fill="black"/>
<path d="M663.905 195.582C663.973 195.459 664.092 195.401 664.261 195.408L673.301 200.416C673.401 200.57 673.42 200.704 673.357 200.818C673.299 200.922 673.183 200.975 673.009 200.977L668.488 198.491L663.975 195.991C663.85 195.86 663.826 195.724 663.905 195.582ZM662.38 198.335C662.458 198.193 662.586 198.14 662.764 198.177L671.79 203.177C671.87 203.345 671.884 203.476 671.832 203.571C671.764 203.694 671.64 203.749 671.462 203.737L662.421 198.729C662.325 198.589 662.312 198.458 662.38 198.335Z" fill="black"/>
<path d="M684.024 209.212C683.834 209.107 683.774 208.993 683.842 208.87C683.863 208.832 683.949 208.732 684.102 208.569C684.254 208.406 684.369 208.253 684.448 208.111C684.61 207.818 684.61 207.583 684.448 207.407C684.286 207.231 683.846 206.943 683.127 206.545L682.389 206.136C682.369 206.15 681.842 206.711 680.807 207.82C679.773 208.928 679.245 209.501 679.224 209.539C679.203 209.577 679.245 209.625 679.349 209.682C679.453 209.74 679.826 209.959 680.468 210.34C681.358 210.832 681.95 211.148 682.244 211.286C682.538 211.425 682.856 211.52 683.198 211.573C683.745 211.679 684.275 211.626 684.787 211.415C685.3 211.205 685.979 210.771 686.825 210.114C687.035 209.959 687.159 209.879 687.198 209.876C687.275 209.894 687.351 209.924 687.427 209.966C687.616 210.07 687.677 210.184 687.608 210.307C685.284 212.16 684.085 213.097 684.011 213.118C683.972 213.122 682.614 212.381 679.936 210.898L677.254 209.412C676.289 208.878 675.835 208.558 675.893 208.454C675.903 208.435 675.954 208.377 676.045 208.279C676.167 208.149 676.252 208.085 676.3 208.087C676.349 208.089 676.465 208.135 676.651 208.225C676.906 208.366 677.198 208.509 677.526 208.654C677.674 208.699 677.795 208.692 677.89 208.633C677.935 208.596 679.007 207.453 681.106 205.203C683.206 202.953 684.271 201.812 684.301 201.78C684.338 201.713 684.337 201.67 684.3 201.649C684.24 201.579 684.002 201.416 683.587 201.161L683.147 200.918C683.121 200.829 683.114 200.776 683.124 200.757C683.135 200.738 683.189 200.663 683.286 200.531C683.413 200.391 683.516 200.318 683.593 200.312L691.456 204.667C691.501 204.742 691.506 204.812 691.469 204.878C691.443 204.926 691.088 205.422 690.404 206.366C689.72 207.31 689.366 207.794 689.34 207.817C689.285 207.873 689.172 207.853 689.001 207.759L688.831 207.665C688.791 207.581 688.792 207.501 688.834 207.425L689.057 207.122C689.212 206.911 689.362 206.673 689.509 206.408C689.666 206.124 689.764 205.869 689.803 205.643C689.841 205.417 689.833 205.221 689.777 205.054C689.721 204.887 689.597 204.719 689.406 204.552C689.214 204.384 689.01 204.228 688.794 204.083C688.577 203.938 688.28 203.761 687.901 203.551L687.234 203.182C686.396 202.73 685.948 202.5 685.891 202.493C685.842 202.491 685.79 202.518 685.735 202.574C685.709 202.597 685.24 203.098 684.328 204.076C683.415 205.054 682.949 205.55 682.929 205.563C683.141 205.693 683.365 205.824 683.602 205.955L683.971 206.159C684.595 206.505 685.065 206.673 685.38 206.662C685.696 206.651 686.121 206.386 686.656 205.866C686.778 205.736 686.853 205.666 686.883 205.658C686.912 205.649 687 205.68 687.147 205.749C687.195 205.775 687.233 205.796 687.261 205.812C687.289 205.828 687.31 205.845 687.324 205.865C687.338 205.885 687.345 205.895 687.345 205.895C687.345 205.895 687.344 205.919 687.341 205.968C687.339 206.016 687.343 206.043 687.353 206.048L685.847 207.662C684.837 208.747 684.313 209.292 684.274 209.295C684.23 209.308 684.147 209.28 684.024 209.212Z" fill="black"/>
<path d="M690.51 211.184C690.329 211.084 690.224 211.022 690.194 210.996C690.164 210.971 690.168 210.925 690.205 210.858C690.305 210.678 690.403 210.588 690.499 210.588C690.516 210.589 691.1 210.908 692.25 211.545C693.397 212.189 694.014 212.544 694.1 212.609C694.445 212.87 694.707 213.138 694.887 213.413C695.068 213.687 695.163 213.941 695.174 214.175C695.184 214.408 695.175 214.59 695.145 214.723C695.116 214.855 695.073 214.98 695.017 215.097C694.85 215.398 694.597 215.625 694.259 215.779C693.92 215.932 693.585 216.009 693.253 216.009C692.921 216.008 692.634 215.998 692.392 215.977C692.149 215.957 691.998 215.93 691.938 215.896L691.981 215.986C692.288 216.488 692.308 216.98 692.041 217.462C692.001 217.535 691.871 217.73 691.652 218.046C691.433 218.362 691.265 218.627 691.146 218.841L691.096 218.931C691.029 219.052 690.981 219.147 690.951 219.218C690.92 219.288 690.924 219.369 690.961 219.46C690.998 219.55 691.068 219.628 691.172 219.694C691.359 219.798 691.554 219.81 691.756 219.729C691.958 219.649 692.132 219.54 692.278 219.402C692.363 219.327 692.421 219.285 692.452 219.276C692.484 219.267 692.539 219.285 692.62 219.329C692.753 219.404 692.798 219.481 692.754 219.561C692.687 219.681 692.501 219.828 692.196 220C691.731 220.24 691.324 220.264 690.976 220.071L690.886 220.021C690.478 219.795 690.186 219.524 690.011 219.209C689.836 218.893 689.834 218.551 690.003 218.182C690.103 218.001 690.309 217.748 690.621 217.422C690.932 217.097 691.118 216.88 691.177 216.773C691.366 216.432 691.359 216.105 691.157 215.792C691.083 215.689 691.014 215.616 690.951 215.572C690.887 215.529 690.654 215.39 690.249 215.158L689.557 214.774L688.513 215.901C687.803 216.661 687.445 217.048 687.437 217.062C687.422 217.089 687.417 217.107 687.42 217.118C687.423 217.128 687.439 217.154 687.468 217.197C687.497 217.239 687.55 217.277 687.627 217.311C687.704 217.345 687.811 217.413 687.947 217.515L688.258 217.687C688.269 217.763 688.272 217.804 688.268 217.811C688.265 217.817 688.221 217.872 688.138 217.975C688.063 218.047 687.995 218.092 687.932 218.11L687.782 218.026C687.548 217.879 687.114 217.63 686.478 217.278C686.251 217.152 686.04 217.035 685.846 216.928C685.652 216.82 685.498 216.735 685.385 216.672C685.271 216.609 685.199 216.574 685.168 216.565C685.055 216.502 685.014 216.441 685.048 216.381C685.055 216.367 685.091 216.326 685.156 216.257C685.26 216.148 685.332 216.097 685.373 216.102C685.403 216.11 685.455 216.134 685.529 216.175L685.589 216.208C685.77 216.308 685.976 216.41 686.208 216.512C686.313 216.544 686.398 216.539 686.465 216.497C686.5 216.481 687.256 215.685 688.733 214.108C690.21 212.531 690.976 211.692 691.031 211.591C691.057 211.545 690.883 211.409 690.51 211.184ZM694.062 214.24C694.18 214.026 694.21 213.807 694.151 213.582C694.092 213.357 693.857 213.104 693.444 212.823C693.431 212.816 693.354 212.773 693.213 212.695C693.073 212.617 692.947 212.544 692.837 212.474L692.617 212.352C692.302 212.177 692.103 212.111 692.019 212.152C692.001 212.168 691.641 212.55 690.939 213.297C690.236 214.045 689.88 214.428 689.868 214.448C689.865 214.455 690.094 214.586 690.555 214.842C691.081 215.124 691.442 215.294 691.638 215.35C692.103 215.52 692.547 215.508 692.969 215.314C693.161 215.219 693.363 215.068 693.573 214.862C693.784 214.655 693.947 214.448 694.062 214.24Z" fill="black"/>
<path d="M699.979 217.605C699.979 217.605 700.013 217.543 700.081 217.42C700.149 217.297 700.268 217.239 700.437 217.247L704.68 219.597L705.859 217.468L707.053 215.347C707.216 215.277 707.34 215.265 707.425 215.312C707.548 215.38 707.603 215.504 707.591 215.682L705.248 219.912L709.477 222.255C709.577 222.409 709.596 222.543 709.533 222.656C709.47 222.77 709.347 222.825 709.163 222.822L704.933 220.479L702.591 224.709C702.442 224.799 702.32 224.818 702.225 224.766L702.197 224.75L702.168 224.734C702.055 224.672 702.006 224.558 702.023 224.394L704.366 220.165L700.122 217.814C700.026 217.675 700.013 217.543 700.081 217.42L699.979 217.605Z" fill="black"/>
<path d="M719.76 221.144C719.438 220.965 719.278 220.852 719.28 220.804C719.281 220.78 719.297 220.739 719.329 220.682C719.455 220.455 719.593 220.328 719.744 220.3C719.769 220.301 719.852 220.341 719.994 220.42C720.371 220.654 721.009 221.02 721.908 221.518C722.23 221.696 722.528 221.861 722.802 222.013C723.076 222.165 723.292 222.278 723.449 222.352C723.605 222.427 723.7 222.479 723.732 222.51C723.884 222.593 723.933 222.683 723.881 222.777C723.87 222.796 723.824 222.857 723.742 222.96C723.606 223.095 723.506 223.163 723.443 223.166L723.415 223.15C723.396 223.139 723.372 223.126 723.344 223.111C723.316 223.095 723.282 223.076 723.245 223.055C723.207 223.035 723.162 223.016 723.109 222.999C723.056 222.982 723.014 222.959 722.981 222.928C722.607 222.733 722.363 222.616 722.248 222.578C722.134 222.539 722.02 222.544 721.906 222.592C721.857 222.614 721.383 223.112 720.485 224.086C720.282 224.296 720.06 224.531 719.816 224.792C719.573 225.052 719.393 225.243 719.276 225.364L719.102 225.546C719.091 225.565 719.772 225.954 721.144 226.714L723.202 227.854L723.239 227.819C723.255 227.791 723.724 227.29 724.646 226.317C725.514 225.376 725.969 224.868 726.011 224.792C726.053 224.716 725.809 224.519 725.28 224.202C725.063 224.081 724.926 223.993 724.87 223.938C724.815 223.882 724.805 223.821 724.842 223.755C724.852 223.736 724.893 223.684 724.965 223.6C725.091 223.46 725.17 223.386 725.199 223.378C725.228 223.369 725.312 223.397 725.45 223.461C725.497 223.487 725.693 223.602 726.038 223.805C726.383 224.009 726.825 224.26 727.364 224.559C727.951 224.883 728.403 225.128 728.72 225.291C729.038 225.455 729.211 225.544 729.239 225.56C729.4 225.649 729.454 225.741 729.402 225.836C729.26 226.091 729.114 226.22 728.964 226.224L728.936 226.208C728.917 226.198 728.893 226.184 728.865 226.169C728.836 226.153 728.803 226.135 728.765 226.114C728.728 226.093 728.682 226.074 728.63 226.057C728.577 226.04 728.535 226.017 728.502 225.986C728.128 225.791 727.883 225.675 727.769 225.636C727.654 225.597 727.54 225.602 727.427 225.651C727.372 225.682 726.29 226.832 724.18 229.101C722.07 231.37 721 232.52 720.97 232.553C720.933 232.619 720.934 232.663 720.971 232.684C721.031 232.754 721.274 232.919 721.699 233.179L722.139 233.423C722.153 233.53 722.158 233.588 722.153 233.598C722.148 233.607 722.086 233.684 721.969 233.83C721.863 233.932 721.766 233.995 721.678 234.021L721.465 233.903C721.125 233.69 720.496 233.329 719.579 232.821C719.257 232.643 718.959 232.478 718.684 232.326C718.41 232.174 718.192 232.053 718.032 231.964C717.871 231.875 717.769 231.825 717.726 231.813C717.565 231.724 717.508 231.637 717.555 231.552C717.581 231.504 717.632 231.446 717.708 231.377C717.855 231.223 717.957 231.15 718.015 231.157C718.058 231.169 718.132 231.203 718.236 231.261L718.321 231.308C718.576 231.45 718.868 231.593 719.196 231.737C719.258 231.759 719.298 231.775 719.317 231.786C719.336 231.796 719.378 231.788 719.442 231.762C719.506 231.736 719.558 231.709 719.598 231.681C719.638 231.654 719.713 231.585 719.824 231.473C719.936 231.362 720.042 231.248 720.144 231.131C720.246 231.014 720.41 230.84 720.638 230.607C720.851 230.379 721.021 230.195 721.148 230.055C722.152 228.979 722.657 228.436 722.662 228.427C722.667 228.417 721.984 228.033 720.612 227.273L718.554 226.133L717.024 227.789C716 228.879 715.475 229.447 715.449 229.495C715.412 229.561 715.426 229.624 715.492 229.685C715.557 229.746 715.786 229.891 716.178 230.121L716.618 230.365C716.633 230.472 716.637 230.53 716.632 230.539C716.627 230.549 716.565 230.626 716.448 230.771C716.342 230.873 716.245 230.937 716.157 230.962L715.944 230.844C715.604 230.632 714.976 230.271 714.058 229.763C713.736 229.584 713.438 229.419 713.164 229.267C712.889 229.115 712.672 228.995 712.511 228.906C712.35 228.817 712.248 228.766 712.205 228.755C712.044 228.666 711.987 228.579 712.034 228.493C712.045 228.474 712.096 228.416 712.187 228.318C712.334 228.165 712.436 228.092 712.494 228.099C712.537 228.11 712.611 228.145 712.715 228.203L712.8 228.25C713.055 228.391 713.347 228.534 713.675 228.679C713.823 228.724 713.945 228.717 714.039 228.658C714.088 228.636 715.158 227.509 717.246 225.279C719.335 223.048 720.419 221.861 720.498 221.719C720.535 221.653 720.288 221.461 719.76 221.144Z" fill="black"/>
</g>
<g clip-path="url(#clip2_1_3)">
<path d="M538.48 210.922C538.274 210.922 538.171 210.877 538.171 210.785C538.171 210.613 538.248 210.38 538.403 210.085C538.557 209.791 538.763 209.481 539.02 209.157C539.278 208.832 539.602 208.563 539.993 208.35C540.384 208.137 540.78 208.02 541.182 208C541.46 208 541.629 208.005 541.691 208.015C542.185 208.127 542.592 208.401 542.911 208.837C543.23 209.273 543.503 209.938 543.729 210.831C543.873 211.44 543.945 211.871 543.945 212.125C543.945 212.165 543.95 212.186 543.961 212.186L544.146 211.775C544.352 211.257 544.583 210.714 544.841 210.146C545.098 209.578 545.319 209.116 545.505 208.761C545.69 208.406 545.803 208.208 545.844 208.167C545.865 208.157 545.947 208.152 546.091 208.152H546.292C546.354 208.213 546.385 208.259 546.385 208.289C546.385 208.33 546.277 208.553 546.06 208.959C545.844 209.365 545.541 210.009 545.15 210.892C544.758 211.775 544.388 212.688 544.038 213.632C543.976 213.794 543.909 214.124 543.837 214.621C543.765 215.118 543.657 215.656 543.513 216.234C543.348 216.894 543.209 217.351 543.096 217.604C542.983 217.858 542.844 217.99 542.679 218C542.504 218 542.417 217.858 542.417 217.574C542.417 217.066 542.695 215.95 543.251 214.225L543.343 213.936L543.359 213.662C543.369 213.561 543.374 213.403 543.374 213.19C543.374 211.597 543.081 210.496 542.494 209.887C542.082 209.502 541.593 209.309 541.027 209.309C540.533 209.309 540.08 209.441 539.669 209.705C539.257 209.969 538.964 210.319 538.789 210.755C538.768 210.846 538.748 210.892 538.727 210.892C538.706 210.912 538.624 210.922 538.48 210.922Z" fill="black"/>
</g>
<g clip-path="url(#clip3_1_3)">
<path d="M458.48 181.922C458.274 181.922 458.171 181.877 458.171 181.785C458.171 181.613 458.248 181.38 458.403 181.085C458.557 180.791 458.763 180.481 459.02 180.157C459.278 179.832 459.602 179.563 459.993 179.35C460.384 179.137 460.78 179.02 461.182 179C461.46 179 461.629 179.005 461.691 179.015C462.185 179.127 462.592 179.401 462.911 179.837C463.23 180.273 463.503 180.938 463.729 181.831C463.873 182.44 463.945 182.871 463.945 183.125C463.945 183.165 463.95 183.186 463.961 183.186L464.146 182.775C464.352 182.257 464.583 181.714 464.841 181.146C465.098 180.578 465.319 180.116 465.505 179.761C465.69 179.406 465.803 179.208 465.844 179.167C465.865 179.157 465.947 179.152 466.091 179.152H466.292C466.354 179.213 466.385 179.259 466.385 179.289C466.385 179.33 466.277 179.553 466.06 179.959C465.844 180.365 465.541 181.009 465.15 181.892C464.758 182.775 464.388 183.688 464.038 184.632C463.976 184.794 463.909 185.124 463.837 185.621C463.765 186.118 463.657 186.656 463.513 187.234C463.348 187.894 463.209 188.351 463.096 188.604C462.983 188.858 462.844 188.99 462.679 189C462.504 189 462.417 188.858 462.417 188.574C462.417 188.066 462.695 186.95 463.251 185.225L463.343 184.936L463.359 184.662C463.369 184.561 463.374 184.403 463.374 184.19C463.374 182.597 463.081 181.496 462.494 180.887C462.082 180.502 461.593 180.309 461.027 180.309C460.533 180.309 460.08 180.441 459.669 180.705C459.257 180.969 458.964 181.319 458.789 181.755C458.768 181.846 458.748 181.892 458.727 181.892C458.706 181.912 458.624 181.922 458.48 181.922Z" fill="black"/>
</g>
<g clip-path="url(#clip4_1_3)">
<path d="M426.42 133.922C426.24 133.922 426.15 133.877 426.15 133.785C426.15 133.613 426.217 133.38 426.352 133.085C426.487 132.791 426.668 132.481 426.893 132.157C427.118 131.832 427.402 131.563 427.744 131.35C428.086 131.137 428.433 131.02 428.784 131C429.027 131 429.176 131.005 429.23 131.015C429.662 131.127 430.018 131.401 430.297 131.837C430.576 132.273 430.815 132.938 431.013 133.831C431.139 134.44 431.202 134.871 431.202 135.125C431.202 135.165 431.207 135.186 431.216 135.186L431.378 134.775C431.558 134.257 431.761 133.714 431.986 133.146C432.211 132.578 432.404 132.116 432.567 131.761C432.729 131.406 432.828 131.208 432.864 131.167C432.882 131.157 432.954 131.152 433.08 131.152H433.256C433.31 131.213 433.337 131.259 433.337 131.289C433.337 131.33 433.242 131.553 433.053 131.959C432.864 132.365 432.598 133.009 432.256 133.892C431.914 134.775 431.589 135.688 431.283 136.632C431.229 136.794 431.171 137.124 431.108 137.621C431.045 138.118 430.95 138.656 430.824 139.234C430.68 139.894 430.558 140.351 430.459 140.604C430.36 140.858 430.238 140.99 430.094 141C429.941 141 429.865 140.858 429.865 140.574C429.865 140.066 430.108 138.95 430.594 137.225L430.675 136.936L430.689 136.662C430.698 136.561 430.702 136.403 430.702 136.19C430.702 134.597 430.446 133.496 429.932 132.887C429.572 132.502 429.144 132.309 428.649 132.309C428.217 132.309 427.82 132.441 427.46 132.705C427.1 132.969 426.843 133.319 426.69 133.755C426.672 133.846 426.654 133.892 426.636 133.892C426.618 133.912 426.546 133.922 426.42 133.922Z" fill="black"/>
</g>
<g clip-path="url(#clip5_1_3)">
<path d="M362.48 196.922C362.274 196.922 362.171 196.877 362.171 196.785C362.171 196.613 362.248 196.38 362.403 196.085C362.557 195.791 362.763 195.481 363.02 195.157C363.278 194.832 363.602 194.563 363.993 194.35C364.384 194.137 364.78 194.02 365.182 194C365.46 194 365.629 194.005 365.691 194.015C366.185 194.127 366.592 194.401 366.911 194.837C367.23 195.273 367.503 195.938 367.729 196.831C367.873 197.44 367.945 197.871 367.945 198.125C367.945 198.165 367.95 198.186 367.961 198.186L368.146 197.775C368.352 197.257 368.583 196.714 368.841 196.146C369.098 195.578 369.319 195.116 369.505 194.761C369.69 194.406 369.803 194.208 369.844 194.167C369.865 194.157 369.947 194.152 370.091 194.152H370.292C370.354 194.213 370.385 194.259 370.385 194.289C370.385 194.33 370.277 194.553 370.06 194.959C369.844 195.365 369.541 196.009 369.15 196.892C368.758 197.775 368.388 198.688 368.038 199.632C367.976 199.794 367.909 200.124 367.837 200.621C367.765 201.118 367.657 201.656 367.513 202.234C367.348 202.894 367.209 203.351 367.096 203.604C366.983 203.858 366.844 203.99 366.679 204C366.504 204 366.417 203.858 366.417 203.574C366.417 203.066 366.695 201.95 367.251 200.225L367.343 199.936L367.359 199.662C367.369 199.561 367.374 199.403 367.374 199.19C367.374 197.597 367.081 196.496 366.494 195.887C366.082 195.502 365.593 195.309 365.027 195.309C364.533 195.309 364.08 195.441 363.669 195.705C363.257 195.969 362.964 196.319 362.789 196.755C362.768 196.846 362.748 196.892 362.727 196.892C362.706 196.912 362.624 196.922 362.48 196.922Z" fill="black"/>
</g>
<g clip-path="url(#clip6_1_3)">
<path d="M395.343 276C395.343 275.356 395.39 274.745 395.485 274.166C395.579 273.587 395.688 273.088 395.811 272.668C395.933 272.248 396.108 271.837 396.335 271.436C396.562 271.035 396.741 270.722 396.873 270.498C397.006 270.274 397.204 270.031 397.468 269.77C397.733 269.509 397.889 269.35 397.936 269.294C397.983 269.238 398.101 269.14 398.29 269H398.475H398.531C398.664 269 398.73 269.042 398.73 269.126C398.73 269.154 398.649 269.252 398.489 269.42C398.328 269.588 398.134 269.835 397.908 270.162C397.681 270.489 397.45 270.89 397.213 271.366C396.977 271.842 396.779 272.486 396.618 273.298C396.458 274.11 396.377 275.011 396.377 276C396.377 276.989 396.458 277.885 396.618 278.688C396.779 279.491 396.972 280.139 397.199 280.634C397.426 281.129 397.657 281.53 397.894 281.838C398.13 282.146 398.328 282.393 398.489 282.58C398.649 282.767 398.73 282.865 398.73 282.874C398.73 282.958 398.659 283 398.517 283H398.475H398.29L397.894 282.664C397.006 281.871 396.358 280.881 395.952 279.696C395.546 278.511 395.343 277.279 395.343 276Z" fill="black"/>
<path d="M400.09 273.382C399.911 273.382 399.821 273.345 399.821 273.27C399.821 273.223 399.896 272.962 400.048 272.486C400.199 272.01 400.359 271.539 400.529 271.072L400.77 270.386C400.817 270.218 400.879 270.097 400.954 270.022H407.586H408.862C409.164 270.022 409.343 270.027 409.4 270.036C409.457 270.045 409.49 270.087 409.499 270.162C409.499 270.218 409.419 270.75 409.258 271.758C409.098 272.766 409.008 273.275 408.989 273.284C408.989 273.349 408.899 273.382 408.72 273.382C408.635 273.382 408.578 273.382 408.55 273.382C408.522 273.382 408.493 273.359 408.465 273.312L408.437 273.27C408.437 273.214 408.465 273.004 408.522 272.64C408.578 272.276 408.607 271.991 408.607 271.786C408.607 271.459 408.545 271.212 408.422 271.044C408.3 270.876 408.04 270.759 407.643 270.694C407.596 270.685 407.322 270.675 406.821 270.666C406.387 270.666 406.113 270.671 405.999 270.68C405.886 270.689 405.801 270.727 405.744 270.792C405.735 270.801 405.399 272.103 404.738 274.698C404.077 277.293 403.746 278.613 403.746 278.66C403.746 278.772 404.162 278.837 404.993 278.856C405.295 278.856 405.489 278.861 405.574 278.87C405.659 278.879 405.702 278.921 405.702 278.996C405.702 279.043 405.687 279.108 405.659 279.192C405.621 279.36 405.579 279.458 405.532 279.486L405.503 279.5C405.475 279.5 405.442 279.5 405.404 279.5C405.357 279.5 405.111 279.495 404.667 279.486C404.223 279.477 403.585 279.472 402.754 279.472C401.535 279.472 400.761 279.481 400.43 279.5H400.218C400.161 279.444 400.133 279.402 400.133 279.374C400.133 279.346 400.142 279.262 400.161 279.122C400.199 279.001 400.246 278.912 400.303 278.856H400.699H400.855C401.611 278.856 402.06 278.814 402.201 278.73C402.211 278.721 402.22 278.716 402.23 278.716C402.277 278.688 402.324 278.595 402.371 278.436C402.419 278.277 402.608 277.545 402.938 276.238C403.099 275.603 403.231 275.085 403.335 274.684C403.996 272.117 404.327 270.806 404.327 270.75C404.327 270.703 404.19 270.68 403.916 270.68H403.477C402.844 270.68 402.428 270.708 402.23 270.764C401.805 270.857 401.474 271.049 401.238 271.338C401.002 271.627 400.747 272.169 400.473 272.962C400.407 273.167 400.359 273.289 400.331 273.326C400.303 273.363 400.236 273.382 400.133 273.382H400.09Z" fill="black"/>
<path d="M410.103 275.295C409.923 275.295 409.816 275.292 409.783 275.285C409.749 275.278 409.732 275.242 409.732 275.176C409.732 274.998 409.769 274.889 409.843 274.85C409.856 274.843 410.437 274.84 411.586 274.84C412.735 274.846 413.356 274.856 413.449 274.869C413.823 274.922 414.137 275.015 414.391 275.147C414.645 275.278 414.825 275.43 414.932 275.602C415.039 275.773 415.109 275.915 415.143 276.027C415.176 276.14 415.196 276.252 415.203 276.364C415.203 276.661 415.106 276.938 414.912 277.195C414.718 277.453 414.495 277.651 414.241 277.789C413.987 277.928 413.763 278.04 413.57 278.126C413.376 278.212 413.249 278.254 413.189 278.254L413.259 278.304C413.706 278.555 413.93 278.918 413.93 279.393C413.93 279.465 413.914 279.667 413.88 279.997C413.847 280.326 413.83 280.597 413.83 280.808V280.897C413.83 281.016 413.833 281.108 413.84 281.174C413.847 281.24 413.883 281.3 413.95 281.353C414.017 281.405 414.104 281.435 414.211 281.442C414.398 281.442 414.551 281.369 414.672 281.224C414.792 281.079 414.879 280.924 414.932 280.759C414.966 280.666 414.992 280.61 415.012 280.59C415.032 280.571 415.082 280.561 415.163 280.561C415.296 280.561 415.363 280.6 415.363 280.679C415.363 280.798 415.283 280.986 415.122 281.244C414.869 281.62 414.568 281.808 414.221 281.808H414.131C413.723 281.808 413.386 281.725 413.119 281.56C412.852 281.395 412.705 281.138 412.678 280.788C412.678 280.61 412.728 280.333 412.828 279.957C412.928 279.581 412.978 279.34 412.978 279.234C412.978 278.898 412.835 278.654 412.548 278.502C412.447 278.456 412.364 278.429 412.297 278.423C412.23 278.416 411.993 278.41 411.586 278.403H410.895L410.574 279.69C410.354 280.561 410.243 281.003 410.243 281.016C410.243 281.042 410.247 281.059 410.253 281.066C410.26 281.072 410.283 281.085 410.324 281.105C410.364 281.125 410.42 281.131 410.494 281.125C410.567 281.118 410.678 281.125 410.824 281.145H411.135C411.175 281.197 411.195 281.227 411.195 281.234C411.195 281.24 411.185 281.3 411.165 281.412C411.138 281.498 411.105 281.56 411.065 281.6H410.915C410.674 281.587 410.237 281.58 409.602 281.58C409.375 281.58 409.165 281.58 408.971 281.58C408.777 281.58 408.624 281.58 408.51 281.58C408.397 281.58 408.326 281.584 408.3 281.59C408.186 281.59 408.129 281.56 408.129 281.501C408.129 281.488 408.139 281.442 408.16 281.362C408.193 281.237 408.226 281.168 408.26 281.155C408.286 281.148 408.337 281.145 408.41 281.145H408.47C408.65 281.145 408.851 281.135 409.071 281.115C409.165 281.095 409.228 281.056 409.262 280.996C409.282 280.97 409.522 280.053 409.983 278.245C410.444 276.437 410.674 275.483 410.674 275.384C410.674 275.338 410.484 275.308 410.103 275.295ZM414.111 276.117C414.111 275.905 414.04 275.727 413.9 275.582C413.76 275.437 413.473 275.344 413.039 275.305C413.025 275.305 412.948 275.305 412.808 275.305C412.668 275.305 412.541 275.302 412.427 275.295H412.207C411.893 275.295 411.713 275.328 411.666 275.394C411.659 275.414 411.546 275.853 411.325 276.71C411.105 277.568 410.995 278.007 410.995 278.027C410.995 278.033 411.225 278.037 411.686 278.037C412.207 278.03 412.554 278.007 412.728 277.967C413.155 277.901 413.489 277.707 413.73 277.383C413.837 277.232 413.927 277.034 414 276.79C414.074 276.545 414.111 276.321 414.111 276.117Z" fill="black"/>
<path d="M417.218 279.01C417.218 279.01 417.218 278.893 417.218 278.66C417.218 278.427 417.294 278.226 417.445 278.058C417.596 277.89 417.799 277.806 418.054 277.806C418.319 277.806 418.555 277.923 418.763 278.156C418.97 278.389 419.079 278.8 419.089 279.388C419.089 279.715 419.046 280.032 418.961 280.34C418.876 280.648 418.777 280.914 418.663 281.138C418.55 281.362 418.427 281.553 418.295 281.712C418.163 281.871 418.049 281.997 417.955 282.09C417.86 282.183 417.799 282.225 417.771 282.216C417.733 282.216 417.672 282.174 417.586 282.09C417.501 282.006 417.459 281.945 417.459 281.908C417.459 281.871 417.511 281.796 417.615 281.684C417.719 281.572 417.837 281.432 417.969 281.264C418.101 281.096 418.224 280.863 418.338 280.564C418.451 280.265 418.526 279.925 418.564 279.542V279.374L418.55 279.388C418.531 279.397 418.508 279.407 418.479 279.416C418.451 279.425 418.423 279.439 418.394 279.458C418.366 279.477 418.323 279.486 418.267 279.486C418.21 279.486 418.153 279.491 418.097 279.5C417.842 279.5 417.634 279.421 417.473 279.262L417.218 279.01Z" fill="black"/>
<path d="M425.73 270.582C425.702 270.582 425.664 270.582 425.617 270.582C425.381 270.582 425.239 270.577 425.192 270.568C425.145 270.559 425.121 270.507 425.121 270.414C425.121 270.162 425.173 270.008 425.277 269.952C425.296 269.943 425.754 269.938 426.651 269.938C427.379 269.938 427.795 269.938 427.898 269.938C428.002 269.938 428.069 269.966 428.097 270.022C430.09 274.651 431.106 277.027 431.144 277.148L431.909 274.166C432.409 272.197 432.66 271.147 432.66 271.016C432.66 270.764 432.357 270.619 431.753 270.582C431.526 270.582 431.413 270.531 431.413 270.428C431.413 270.409 431.422 270.353 431.441 270.26C431.479 270.111 431.507 270.022 431.526 269.994C431.545 269.966 431.592 269.947 431.668 269.938C431.696 269.938 431.843 269.943 432.107 269.952C432.372 269.961 432.764 269.971 433.283 269.98C433.756 269.98 434.115 269.975 434.36 269.966C434.606 269.957 434.748 269.952 434.785 269.952C434.927 269.952 434.998 269.999 434.998 270.092C434.998 270.297 434.96 270.437 434.885 270.512C434.866 270.559 434.762 270.582 434.573 270.582C433.902 270.619 433.482 270.806 433.312 271.142L431.2 279.402C431.181 279.467 431.082 279.5 430.903 279.5C430.77 279.5 430.69 279.491 430.662 279.472C430.633 279.444 430.024 278.03 428.834 275.23L427.034 271.044L426.113 274.684C425.499 277.073 425.192 278.31 425.192 278.394C425.239 278.702 425.579 278.856 426.212 278.856H426.354C426.411 278.903 426.439 278.94 426.439 278.968C426.439 278.996 426.429 279.085 426.411 279.234C426.373 279.355 426.326 279.444 426.269 279.5H426.085C425.792 279.481 425.282 279.472 424.554 279.472C424.29 279.472 424.049 279.472 423.831 279.472C423.614 279.472 423.439 279.472 423.307 279.472C423.175 279.472 423.095 279.477 423.066 279.486C422.925 279.486 422.854 279.444 422.854 279.36C422.854 279.323 422.868 279.248 422.896 279.136C422.925 279.024 422.948 278.959 422.967 278.94C422.986 278.884 423.095 278.856 423.293 278.856C423.935 278.828 424.351 278.646 424.54 278.31C424.578 278.254 424.913 276.961 425.546 274.432L426.51 270.624C426.491 270.615 426.231 270.601 425.73 270.582Z" fill="black"/>
<path d="M436.098 275.295C435.917 275.295 435.811 275.292 435.777 275.285C435.744 275.278 435.727 275.242 435.727 275.176C435.727 274.998 435.764 274.889 435.837 274.85C435.851 274.843 436.432 274.84 437.58 274.84C438.729 274.846 439.35 274.856 439.444 274.869C439.818 274.922 440.132 275.015 440.386 275.147C440.64 275.278 440.82 275.43 440.927 275.602C441.034 275.773 441.104 275.915 441.137 276.027C441.17 276.14 441.191 276.252 441.197 276.364C441.197 276.661 441.1 276.938 440.907 277.195C440.713 277.453 440.489 277.651 440.235 277.789C439.982 277.928 439.758 278.04 439.564 278.126C439.37 278.212 439.244 278.254 439.183 278.254L439.254 278.304C439.701 278.555 439.925 278.918 439.925 279.393C439.925 279.465 439.908 279.667 439.875 279.997C439.841 280.326 439.825 280.597 439.825 280.808V280.897C439.825 281.016 439.828 281.108 439.835 281.174C439.841 281.24 439.878 281.3 439.945 281.353C440.012 281.405 440.098 281.435 440.205 281.442C440.392 281.442 440.546 281.369 440.666 281.224C440.786 281.079 440.873 280.924 440.927 280.759C440.96 280.666 440.987 280.61 441.007 280.59C441.027 280.571 441.077 280.561 441.157 280.561C441.291 280.561 441.358 280.6 441.358 280.679C441.358 280.798 441.277 280.986 441.117 281.244C440.863 281.62 440.563 281.808 440.215 281.808H440.125C439.718 281.808 439.38 281.725 439.113 281.56C438.846 281.395 438.699 281.138 438.673 280.788C438.673 280.61 438.723 280.333 438.823 279.957C438.923 279.581 438.973 279.34 438.973 279.234C438.973 278.898 438.829 278.654 438.542 278.502C438.442 278.456 438.359 278.429 438.292 278.423C438.225 278.416 437.988 278.41 437.58 278.403H436.889L436.569 279.69C436.348 280.561 436.238 281.003 436.238 281.016C436.238 281.042 436.241 281.059 436.248 281.066C436.255 281.072 436.278 281.085 436.318 281.105C436.358 281.125 436.415 281.131 436.488 281.125C436.562 281.118 436.672 281.125 436.819 281.145H437.13C437.17 281.197 437.19 281.227 437.19 281.234C437.19 281.24 437.18 281.3 437.16 281.412C437.133 281.498 437.1 281.56 437.06 281.6H436.909C436.669 281.587 436.231 281.58 435.597 281.58C435.37 281.58 435.159 281.58 434.966 281.58C434.772 281.58 434.618 281.58 434.505 281.58C434.391 281.58 434.321 281.584 434.294 281.59C434.181 281.59 434.124 281.56 434.124 281.501C434.124 281.488 434.134 281.442 434.154 281.362C434.188 281.237 434.221 281.168 434.254 281.155C434.281 281.148 434.331 281.145 434.405 281.145H434.465C434.645 281.145 434.845 281.135 435.066 281.115C435.159 281.095 435.223 281.056 435.256 280.996C435.276 280.97 435.517 280.053 435.978 278.245C436.438 276.437 436.669 275.483 436.669 275.384C436.669 275.338 436.478 275.308 436.098 275.295ZM440.105 276.117C440.105 275.905 440.035 275.727 439.895 275.582C439.755 275.437 439.467 275.344 439.033 275.305C439.02 275.305 438.943 275.305 438.803 275.305C438.662 275.305 438.536 275.302 438.422 275.295H438.202C437.888 275.295 437.707 275.328 437.661 275.394C437.654 275.414 437.54 275.853 437.32 276.71C437.1 277.568 436.989 278.007 436.989 278.027C436.989 278.033 437.22 278.037 437.681 278.037C438.202 278.03 438.549 278.007 438.723 277.967C439.15 277.901 439.484 277.707 439.724 277.383C439.831 277.232 439.922 277.034 439.995 276.79C440.068 276.545 440.105 276.321 440.105 276.117Z" fill="black"/>
<path d="M443.213 279.01C443.213 279.01 443.213 278.893 443.213 278.66C443.213 278.427 443.288 278.226 443.439 278.058C443.591 277.89 443.794 277.806 444.049 277.806C444.313 277.806 444.549 277.923 444.757 278.156C444.965 278.389 445.074 278.8 445.083 279.388C445.083 279.715 445.041 280.032 444.956 280.34C444.871 280.648 444.771 280.914 444.658 281.138C444.545 281.362 444.422 281.553 444.29 281.712C444.157 281.871 444.044 281.997 443.95 282.09C443.855 282.183 443.794 282.225 443.765 282.216C443.728 282.216 443.666 282.174 443.581 282.09C443.496 282.006 443.454 281.945 443.454 281.908C443.454 281.871 443.506 281.796 443.609 281.684C443.713 281.572 443.831 281.432 443.964 281.264C444.096 281.096 444.219 280.863 444.332 280.564C444.446 280.265 444.521 279.925 444.559 279.542V279.374L444.545 279.388C444.526 279.397 444.502 279.407 444.474 279.416C444.446 279.425 444.417 279.439 444.389 279.458C444.36 279.477 444.318 279.486 444.261 279.486C444.205 279.486 444.148 279.491 444.091 279.5C443.836 279.5 443.628 279.421 443.468 279.262L443.213 279.01Z" fill="black"/>
<path d="M452.772 279.164C453.33 279.164 453.84 278.921 454.303 278.436C454.765 277.951 455.002 277.386 455.011 276.742C455.011 276.154 454.765 275.748 454.274 275.524C453.273 275.272 452.63 275.099 452.347 275.006C452.064 274.913 451.865 274.819 451.752 274.726C451.185 274.334 450.902 273.769 450.902 273.032C450.902 272.463 451.053 271.945 451.355 271.478C451.657 271.011 451.964 270.661 452.276 270.428C452.55 270.195 452.881 270.008 453.268 269.868C453.655 269.728 453.958 269.653 454.175 269.644H454.331H454.43C455.337 269.644 455.994 269.943 456.4 270.54C456.409 270.54 456.471 270.479 456.584 270.358C456.697 270.237 456.82 270.101 456.952 269.952C457.085 269.803 457.179 269.7 457.236 269.644C457.245 269.644 457.264 269.644 457.293 269.644C457.321 269.644 457.345 269.639 457.363 269.63C457.486 269.63 457.548 269.663 457.548 269.728C457.548 269.793 457.415 270.358 457.151 271.422C456.886 272.486 456.735 273.037 456.697 273.074C456.66 273.111 456.584 273.125 456.471 273.116C456.282 273.116 456.187 273.074 456.187 272.99C456.187 272.934 456.192 272.887 456.201 272.85C456.201 272.822 456.206 272.733 456.216 272.584C456.225 272.435 456.235 272.313 456.244 272.22C456.244 271.903 456.201 271.627 456.116 271.394C456.031 271.161 455.946 270.988 455.861 270.876C455.776 270.764 455.658 270.647 455.507 270.526C455.167 270.33 454.78 270.232 454.345 270.232C453.807 270.232 453.306 270.447 452.843 270.876C452.38 271.305 452.144 271.8 452.134 272.36C452.134 272.64 452.205 272.883 452.347 273.088C452.489 273.293 452.682 273.438 452.928 273.522C452.966 273.541 453.296 273.629 453.92 273.788C454.543 273.947 454.86 274.031 454.869 274.04C455.191 274.143 455.502 274.367 455.805 274.712C456.107 275.057 456.258 275.524 456.258 276.112C456.258 276.355 456.22 276.616 456.145 276.896C456.098 277.101 456.013 277.33 455.89 277.582C455.767 277.834 455.597 278.109 455.38 278.408C455.162 278.707 454.851 278.987 454.444 279.248C454.038 279.509 453.594 279.687 453.112 279.78C452.999 279.799 452.838 279.808 452.63 279.808C451.695 279.808 450.968 279.551 450.448 279.038L450.306 278.884L449.91 279.318C449.692 279.57 449.56 279.715 449.513 279.752C449.466 279.789 449.404 279.808 449.329 279.808C449.206 279.808 449.144 279.771 449.144 279.696C449.144 279.668 449.418 278.571 449.966 276.406C449.985 276.35 450.08 276.322 450.25 276.322H450.434C450.491 276.378 450.519 276.429 450.519 276.476C450.519 276.495 450.514 276.537 450.505 276.602C450.495 276.667 450.477 276.765 450.448 276.896C450.42 277.027 450.41 277.181 450.42 277.358C450.439 277.722 450.524 278.03 450.675 278.282C450.826 278.534 451.029 278.721 451.284 278.842C451.539 278.963 451.785 279.047 452.021 279.094C452.257 279.141 452.508 279.164 452.772 279.164Z" fill="black"/>
<path d="M459.398 275.295C459.218 275.295 459.111 275.292 459.078 275.285C459.044 275.278 459.028 275.242 459.028 275.176C459.028 274.998 459.065 274.889 459.138 274.85C459.151 274.843 459.732 274.84 460.881 274.84C462.03 274.846 462.651 274.856 462.745 274.869C463.119 274.922 463.433 275.015 463.686 275.147C463.94 275.278 464.121 275.43 464.227 275.602C464.334 275.773 464.404 275.915 464.438 276.027C464.471 276.14 464.491 276.252 464.498 276.364C464.498 276.661 464.401 276.938 464.207 277.195C464.014 277.453 463.79 277.651 463.536 277.789C463.282 277.928 463.059 278.04 462.865 278.126C462.671 278.212 462.544 278.254 462.484 278.254L462.554 278.304C463.002 278.555 463.226 278.918 463.226 279.393C463.226 279.465 463.209 279.667 463.176 279.997C463.142 280.326 463.125 280.597 463.125 280.808V280.897C463.125 281.016 463.129 281.108 463.135 281.174C463.142 281.24 463.179 281.3 463.246 281.353C463.312 281.405 463.399 281.435 463.506 281.442C463.693 281.442 463.847 281.369 463.967 281.224C464.087 281.079 464.174 280.924 464.227 280.759C464.261 280.666 464.288 280.61 464.308 280.59C464.328 280.571 464.378 280.561 464.458 280.561C464.591 280.561 464.658 280.6 464.658 280.679C464.658 280.798 464.578 280.986 464.418 281.244C464.164 281.62 463.863 281.808 463.516 281.808H463.426C463.019 281.808 462.681 281.725 462.414 281.56C462.147 281.395 462 281.138 461.973 280.788C461.973 280.61 462.023 280.333 462.124 279.957C462.224 279.581 462.274 279.34 462.274 279.234C462.274 278.898 462.13 278.654 461.843 278.502C461.743 278.456 461.659 278.429 461.593 278.423C461.526 278.416 461.289 278.41 460.881 278.403H460.19L459.869 279.69C459.649 280.561 459.539 281.003 459.539 281.016C459.539 281.042 459.542 281.059 459.549 281.066C459.555 281.072 459.579 281.085 459.619 281.105C459.659 281.125 459.716 281.131 459.789 281.125C459.863 281.118 459.973 281.125 460.12 281.145H460.43C460.47 281.197 460.491 281.227 460.491 281.234C460.491 281.24 460.48 281.3 460.46 281.412C460.434 281.498 460.4 281.56 460.36 281.6H460.21C459.97 281.587 459.532 281.58 458.898 281.58C458.67 281.58 458.46 281.58 458.266 281.58C458.073 281.58 457.919 281.58 457.806 281.58C457.692 281.58 457.622 281.584 457.595 281.59C457.482 281.59 457.425 281.56 457.425 281.501C457.425 281.488 457.435 281.442 457.455 281.362C457.488 281.237 457.522 281.168 457.555 281.155C457.582 281.148 457.632 281.145 457.705 281.145H457.765C457.946 281.145 458.146 281.135 458.367 281.115C458.46 281.095 458.524 281.056 458.557 280.996C458.577 280.97 458.817 280.053 459.278 278.245C459.739 276.437 459.97 275.483 459.97 275.384C459.97 275.338 459.779 275.308 459.398 275.295ZM463.406 276.117C463.406 275.905 463.336 275.727 463.196 275.582C463.055 275.437 462.768 275.344 462.334 275.305C462.321 275.305 462.244 275.305 462.104 275.305C461.963 275.305 461.836 275.302 461.723 275.295H461.502C461.188 275.295 461.008 275.328 460.961 275.394C460.955 275.414 460.841 275.853 460.621 276.71C460.4 277.568 460.29 278.007 460.29 278.027C460.29 278.033 460.521 278.037 460.981 278.037C461.502 278.03 461.85 278.007 462.023 277.967C462.451 277.901 462.785 277.707 463.025 277.383C463.132 277.232 463.222 277.034 463.296 276.79C463.369 276.545 463.406 276.321 463.406 276.117Z" fill="black"/>
<path d="M466.513 279.01C466.513 279.01 466.513 278.893 466.513 278.66C466.513 278.427 466.589 278.226 466.74 278.058C466.891 277.89 467.094 277.806 467.349 277.806C467.614 277.806 467.85 277.923 468.058 278.156C468.266 278.389 468.374 278.8 468.384 279.388C468.384 279.715 468.341 280.032 468.256 280.34C468.171 280.648 468.072 280.914 467.959 281.138C467.845 281.362 467.723 281.553 467.59 281.712C467.458 281.871 467.345 281.997 467.25 282.09C467.156 282.183 467.094 282.225 467.066 282.216C467.028 282.216 466.967 282.174 466.882 282.09C466.797 282.006 466.754 281.945 466.754 281.908C466.754 281.871 466.806 281.796 466.91 281.684C467.014 281.572 467.132 281.432 467.264 281.264C467.397 281.096 467.52 280.863 467.633 280.564C467.746 280.265 467.822 279.925 467.86 279.542V279.374L467.845 279.388C467.827 279.397 467.803 279.407 467.775 279.416C467.746 279.425 467.718 279.439 467.69 279.458C467.661 279.477 467.619 279.486 467.562 279.486C467.505 279.486 467.449 279.491 467.392 279.5C467.137 279.5 466.929 279.421 466.768 279.262L466.513 279.01Z" fill="black"/>
<path d="M472.532 282.524C472.399 282.524 472.286 282.487 472.192 282.412C472.097 282.337 472.045 282.235 472.036 282.104C472.036 282.011 472.381 280.601 473.07 277.876C473.76 275.151 474.124 273.76 474.161 273.704C474.284 273.443 474.501 273.312 474.813 273.312C474.927 273.321 475.021 273.354 475.097 273.41C475.172 273.466 475.219 273.522 475.238 273.578C475.257 273.634 475.267 273.681 475.267 273.718C475.267 273.83 475.12 274.455 474.827 275.594C474.534 276.733 474.379 277.372 474.36 277.512C474.341 277.615 474.331 277.778 474.331 278.002V278.114C474.331 278.795 474.648 279.136 475.281 279.136C475.366 279.136 475.451 279.131 475.536 279.122C475.621 279.113 475.701 279.094 475.777 279.066C475.852 279.038 475.923 279.005 475.989 278.968C476.055 278.931 476.117 278.898 476.174 278.87C476.23 278.842 476.287 278.795 476.344 278.73C476.4 278.665 476.452 278.618 476.499 278.59C476.547 278.562 476.594 278.506 476.641 278.422C476.688 278.338 476.726 278.287 476.755 278.268C476.783 278.249 476.825 278.193 476.882 278.1L476.981 277.96L477.491 275.958C477.831 274.633 478.02 273.928 478.058 273.844C478.181 273.592 478.384 273.466 478.668 273.466C478.79 273.466 478.89 273.499 478.965 273.564C479.041 273.629 479.093 273.685 479.121 273.732C479.149 273.779 479.159 273.825 479.149 273.872L478.072 278.324C478.063 278.371 478.058 278.445 478.058 278.548C478.058 278.781 478.091 278.935 478.157 279.01C478.224 279.085 478.323 279.127 478.455 279.136C478.54 279.127 478.634 279.085 478.738 279.01C478.937 278.823 479.13 278.375 479.319 277.666C479.376 277.479 479.423 277.381 479.461 277.372C479.48 277.363 479.527 277.358 479.603 277.358H479.659C479.839 277.358 479.929 277.4 479.929 277.484C479.929 277.54 479.905 277.666 479.858 277.862C479.811 278.058 479.716 278.31 479.574 278.618C479.433 278.926 479.282 279.159 479.121 279.318C478.998 279.439 478.847 279.537 478.668 279.612C478.592 279.631 478.479 279.64 478.327 279.64C478.129 279.64 477.95 279.612 477.789 279.556C477.628 279.5 477.501 279.43 477.406 279.346C477.312 279.262 477.232 279.178 477.165 279.094C477.099 279.01 477.057 278.94 477.038 278.884C477.019 278.828 477.01 278.795 477.01 278.786L476.925 278.87C476.868 278.926 476.783 278.996 476.669 279.08C476.556 279.164 476.433 279.248 476.301 279.332C476.169 279.416 475.999 279.491 475.791 279.556C475.583 279.621 475.385 279.654 475.196 279.654C474.752 279.654 474.312 279.547 473.878 279.332L473.538 280.69C473.339 281.455 473.221 281.899 473.184 282.02C473.146 282.141 473.089 282.244 473.013 282.328C472.862 282.459 472.702 282.524 472.532 282.524Z" fill="black"/>
<path d="M482.559 275.295C482.379 275.295 482.272 275.292 482.238 275.285C482.205 275.278 482.188 275.242 482.188 275.176C482.188 274.998 482.225 274.889 482.298 274.85C482.312 274.843 482.893 274.84 484.042 274.84C485.191 274.846 485.812 274.856 485.905 274.869C486.279 274.922 486.593 275.015 486.847 275.147C487.101 275.278 487.281 275.43 487.388 275.602C487.495 275.773 487.565 275.915 487.598 276.027C487.632 276.14 487.652 276.252 487.658 276.364C487.658 276.661 487.562 276.938 487.368 277.195C487.174 277.453 486.95 277.651 486.697 277.789C486.443 277.928 486.219 278.04 486.025 278.126C485.832 278.212 485.705 278.254 485.645 278.254L485.715 278.304C486.162 278.555 486.386 278.918 486.386 279.393C486.386 279.465 486.369 279.667 486.336 279.997C486.303 280.326 486.286 280.597 486.286 280.808V280.897C486.286 281.016 486.289 281.108 486.296 281.174C486.303 281.24 486.339 281.3 486.406 281.353C486.473 281.405 486.56 281.435 486.667 281.442C486.854 281.442 487.007 281.369 487.127 281.224C487.248 281.079 487.334 280.924 487.388 280.759C487.421 280.666 487.448 280.61 487.468 280.59C487.488 280.571 487.538 280.561 487.618 280.561C487.752 280.561 487.819 280.6 487.819 280.679C487.819 280.798 487.739 280.986 487.578 281.244C487.324 281.62 487.024 281.808 486.677 281.808H486.586C486.179 281.808 485.842 281.725 485.575 281.56C485.307 281.395 485.16 281.138 485.134 280.788C485.134 280.61 485.184 280.333 485.284 279.957C485.384 279.581 485.434 279.34 485.434 279.234C485.434 278.898 485.291 278.654 485.003 278.502C484.903 278.456 484.82 278.429 484.753 278.423C484.686 278.416 484.449 278.41 484.042 278.403H483.35L483.03 279.69C482.809 280.561 482.699 281.003 482.699 281.016C482.699 281.042 482.703 281.059 482.709 281.066C482.716 281.072 482.739 281.085 482.779 281.105C482.819 281.125 482.876 281.131 482.95 281.125C483.023 281.118 483.133 281.125 483.28 281.145H483.591C483.631 281.197 483.651 281.227 483.651 281.234C483.651 281.24 483.641 281.3 483.621 281.412C483.594 281.498 483.561 281.56 483.521 281.6H483.37C483.13 281.587 482.693 281.58 482.058 281.58C481.831 281.58 481.621 281.58 481.427 281.58C481.233 281.58 481.08 281.58 480.966 281.58C480.852 281.58 480.782 281.584 480.756 281.59C480.642 281.59 480.585 281.56 480.585 281.501C480.585 281.488 480.595 281.442 480.615 281.362C480.649 281.237 480.682 281.168 480.716 281.155C480.742 281.148 480.792 281.145 480.866 281.145H480.926C481.106 281.145 481.307 281.135 481.527 281.115C481.621 281.095 481.684 281.056 481.717 280.996C481.737 280.97 481.978 280.053 482.439 278.245C482.9 276.437 483.13 275.483 483.13 275.384C483.13 275.338 482.94 275.308 482.559 275.295ZM486.566 276.117C486.566 275.905 486.496 275.727 486.356 275.582C486.216 275.437 485.929 275.344 485.494 275.305C485.481 275.305 485.404 275.305 485.264 275.305C485.124 275.305 484.997 275.302 484.883 275.295H484.663C484.349 275.295 484.169 275.328 484.122 275.394C484.115 275.414 484.002 275.853 483.781 276.71C483.561 277.568 483.451 278.007 483.451 278.027C483.451 278.033 483.681 278.037 484.142 278.037C484.663 278.03 485.01 278.007 485.184 277.967C485.611 277.901 485.945 277.707 486.186 277.383C486.293 277.232 486.383 277.034 486.456 276.79C486.53 276.545 486.566 276.321 486.566 276.117Z" fill="black"/>
<path d="M489.674 279.01C489.674 279.01 489.674 278.893 489.674 278.66C489.674 278.427 489.749 278.226 489.901 278.058C490.052 277.89 490.255 277.806 490.51 277.806C490.774 277.806 491.011 277.923 491.218 278.156C491.426 278.389 491.535 278.8 491.544 279.388C491.544 279.715 491.502 280.032 491.417 280.34C491.332 280.648 491.233 280.914 491.119 281.138C491.006 281.362 490.883 281.553 490.751 281.712C490.619 281.871 490.505 281.997 490.411 282.09C490.316 282.183 490.255 282.225 490.227 282.216C490.189 282.216 490.127 282.174 490.042 282.09C489.957 282.006 489.915 281.945 489.915 281.908C489.915 281.871 489.967 281.796 490.071 281.684C490.175 281.572 490.293 281.432 490.425 281.264C490.557 281.096 490.68 280.863 490.793 280.564C490.907 280.265 490.982 279.925 491.02 279.542V279.374L491.006 279.388C490.987 279.397 490.963 279.407 490.935 279.416C490.907 279.425 490.878 279.439 490.85 279.458C490.822 279.477 490.779 279.486 490.722 279.486C490.666 279.486 490.609 279.491 490.552 279.5C490.297 279.5 490.09 279.421 489.929 279.262L489.674 279.01Z" fill="black"/>
<path d="M495.974 276C495.974 275.776 496.054 275.58 496.215 275.412C496.376 275.244 496.579 275.16 496.824 275.16C497.051 275.16 497.249 275.235 497.42 275.384C497.59 275.533 497.679 275.734 497.689 275.986C497.689 276.219 497.608 276.42 497.448 276.588C497.287 276.756 497.084 276.84 496.839 276.84C496.593 276.84 496.39 276.761 496.229 276.602C496.069 276.443 495.984 276.243 495.974 276ZM502.308 276C502.308 275.776 502.389 275.58 502.549 275.412C502.71 275.244 502.913 275.16 503.159 275.16C503.385 275.16 503.584 275.235 503.754 275.384C503.924 275.533 504.014 275.734 504.023 275.986C504.023 276.219 503.943 276.42 503.782 276.588C503.622 276.756 503.418 276.84 503.173 276.84C502.927 276.84 502.724 276.761 502.563 276.602C502.403 276.443 502.318 276.243 502.308 276ZM508.643 276C508.643 275.776 508.723 275.58 508.884 275.412C509.044 275.244 509.247 275.16 509.493 275.16C509.72 275.16 509.918 275.235 510.088 275.384C510.258 275.533 510.348 275.734 510.357 275.986C510.357 276.219 510.277 276.42 510.116 276.588C509.956 276.756 509.753 276.84 509.507 276.84C509.261 276.84 509.058 276.761 508.898 276.602C508.737 276.443 508.652 276.243 508.643 276Z" fill="black"/>
<path d="M512.327 269.014L512.384 269C512.431 269 512.478 269 512.525 269H512.695L513.092 269.336C513.98 270.129 514.627 271.119 515.034 272.304C515.44 273.489 515.643 274.721 515.643 276C515.643 276.635 515.596 277.246 515.501 277.834C515.407 278.422 515.298 278.921 515.175 279.332C515.053 279.743 514.878 280.153 514.651 280.564C514.424 280.975 514.245 281.287 514.113 281.502C513.98 281.717 513.787 281.955 513.532 282.216C513.276 282.477 513.125 282.631 513.078 282.678C513.031 282.725 512.922 282.813 512.752 282.944C512.724 282.972 512.705 282.991 512.695 283H512.525C512.45 283 512.398 283 512.37 283C512.341 283 512.318 282.986 512.299 282.958C512.28 282.93 512.266 282.888 512.256 282.832C512.266 282.823 512.318 282.762 512.412 282.65C513.876 281.147 514.609 278.931 514.609 276C514.609 273.069 513.876 270.853 512.412 269.35C512.318 269.238 512.266 269.177 512.256 269.168C512.256 269.093 512.28 269.042 512.327 269.014Z" fill="black"/>
</g>
<defs>
<clipPath id="clip0_1_3">
<rect width="62.5096" height="13.2833" fill="white" transform="translate(635.033 329.852) rotate(28.8933)"/>
</clipPath>
<clipPath id="clip1_1_3">
<rect width="98.2361" height="13.7551" fill="white" transform="translate(643.558 178.079) rotate(28.9841)"/>
</clipPath>
<clipPath id="clip2_1_3">
<rect width="8" height="10" fill="white" transform="translate(538 208)"/>
</clipPath>
<clipPath id="clip3_1_3">
<rect width="8" height="10" fill="white" transform="translate(458 179)"/>
</clipPath>
<clipPath id="clip4_1_3">
<rect width="7" height="10" fill="white" transform="translate(426 131)"/>
</clipPath>
<clipPath id="clip5_1_3">
<rect width="8" height="10" fill="white" transform="translate(362 194)"/>
</clipPath>
<clipPath id="clip6_1_3">
<rect width="123" height="14" fill="white" transform="translate(394 269)"/>
</clipPath>
</defs>
</svg>
