<svg width="1863" height="556" viewBox="0 0 1863 556" fill="none" xmlns="http://www.w3.org/2000/svg">
<path d="M794.295 279.203C789.603 321.333 740.964 351.476 685.656 346.528C630.347 341.58 589.315 303.415 594.006 261.284" stroke="#3090FF" stroke-width="3" stroke-dasharray="6 6"/>
<path d="M779.21 223.463C779.21 153.323 637.06 96.4634 461.71 96.4634C286.359 96.4634 144.21 153.323 144.21 223.463" stroke="#3090FF" stroke-width="3" stroke-dasharray="6 6"/>
<path d="M779.21 327.368C779.21 237.346 637.06 164.368 461.71 164.368C286.359 164.368 144.21 237.346 144.21 327.368" stroke="#3090FF" stroke-width="3" stroke-dasharray="6 6"/>
<path d="M796.794 282.876C796.794 194.835 646.231 123.463 460.502 123.463C274.773 123.463 124.21 194.835 124.21 282.876" stroke="#3090FF" stroke-width="3" stroke-dasharray="6 6"/>
<path d="M652.441 453.396C636.386 460.189 603.031 431.871 577.941 390.147C552.851 348.423 545.526 309.092 561.581 302.3" stroke="#3090FF" stroke-width="3" stroke-dasharray="6 6"/>
<path d="M527.87 488.132C514.749 490.268 501.448 454.645 498.161 408.566C494.874 362.487 502.846 323.401 515.967 321.265" stroke="#3090FF" stroke-width="3" stroke-dasharray="6 6"/>
<path d="M460.501 64C645.549 64 795.56 159.729 795.56 277.815C795.56 395.902 645.549 491.63 460.501 491.63C275.454 491.63 125.444 395.902 125.444 277.815C125.444 159.729 275.454 64.0001 460.501 64ZM461.128 212.583C401.508 212.583 350.813 237.183 332.203 271.474C350.813 305.764 401.508 330.363 461.128 330.363C520.748 330.363 571.443 305.764 590.052 271.474C571.443 237.183 520.749 212.583 461.128 212.583Z" fill="#D9D9D9" fill-opacity="0.3"/>
<path d="M460.501 65C552.863 65 636.435 88.8922 696.885 127.468C757.346 166.051 794.56 219.231 794.56 277.815C794.56 336.4 757.346 389.579 696.885 428.162C636.435 466.738 552.864 490.63 460.501 490.63C368.139 490.63 284.567 466.738 224.117 428.162C163.656 389.579 126.444 336.399 126.444 277.815C126.444 219.231 163.656 166.051 224.117 127.468C284.567 88.8921 368.139 65.0001 460.501 65Z" stroke="black" stroke-width="2"/>
<path d="M324.857 247.917C329.218 293.921 388.561 330.363 461.128 330.363C534.17 330.363 593.815 293.442 597.478 247.011" stroke="black" stroke-width="2"/>
<path d="M590.141 271.637C571.604 237.261 520.843 212.583 461.128 212.583C401.507 212.583 350.813 237.182 332.203 271.473" stroke="black" stroke-width="2"/>
<path d="M515.861 319.769C515.043 319.902 514.428 320.68 514.487 321.506C514.546 322.332 515.256 322.894 516.074 322.761L515.967 321.265L515.861 319.769ZM545.676 400.831L544.196 401.072C545.832 424.013 544.66 445.157 541.474 460.778C539.879 468.6 537.796 474.948 535.366 479.428C532.906 483.964 530.297 486.224 527.763 486.636L527.87 488.133L527.977 489.629C532.003 488.973 535.312 485.547 537.934 480.713C540.586 475.823 542.751 469.12 544.378 461.143C547.637 445.168 548.807 423.729 547.157 400.59L545.676 400.831ZM515.967 321.265L516.074 322.761C518.608 322.349 521.475 323.718 524.519 327.357C527.525 330.952 530.455 336.484 533.116 343.613C538.433 357.851 542.56 378.132 544.196 401.072L545.676 400.831L547.157 400.59C545.506 377.451 541.339 356.882 535.903 342.322C533.188 335.052 530.128 329.199 526.847 325.275C523.603 321.396 519.887 319.113 515.861 319.769L515.967 321.265Z" fill="#3090FF"/>
<path d="M560.808 301.014C560.045 301.337 559.773 302.174 560.2 302.884C560.627 303.594 561.591 303.908 562.354 303.585L561.581 302.3L560.808 301.014ZM636.081 365.548L634.7 366.133C647.18 386.887 655.206 406.991 658.13 422.688C659.592 430.543 659.762 437.215 658.633 442.287C657.501 447.367 655.119 450.65 651.668 452.111L652.441 453.396L653.214 454.681C657.791 452.745 660.514 448.565 661.74 443.056C662.969 437.539 662.75 430.497 661.252 422.454C658.254 406.357 650.073 385.934 637.463 364.964L636.081 365.548ZM561.581 302.3L562.354 303.585C565.805 302.125 570.369 302.469 575.912 304.726C581.446 306.978 587.742 311.058 594.403 316.714C607.715 328.015 622.22 345.378 634.7 366.133L636.081 365.548L637.463 364.964C624.853 343.994 610.135 326.336 596.483 314.746C589.663 308.956 583.041 304.622 577.022 302.172C571.011 299.726 565.385 299.078 560.808 301.014L561.581 302.3Z" fill="#3090FF"/>
<path d="M592.512 261.151C592.421 261.974 593.015 262.701 593.841 262.775C594.666 262.849 595.409 262.241 595.501 261.418L594.007 261.284L592.512 261.151ZM702.646 193.959L702.48 195.45C729.836 197.897 753.606 208.556 769.932 223.741C786.257 238.925 795.084 258.567 792.801 279.069L794.295 279.203L795.789 279.336C798.198 257.708 788.854 237.201 772.009 221.533C755.165 205.867 730.764 194.969 702.812 192.468L702.646 193.959ZM594.007 261.284L595.501 261.418C597.784 240.916 610.768 223.226 630.12 211.233C649.473 199.24 675.124 193.003 702.48 195.45L702.646 193.959L702.812 192.468C674.86 189.968 648.537 196.328 628.571 208.701C608.602 221.076 594.921 239.522 592.512 261.151L594.007 261.284Z" fill="#3090FF"/>
<path d="M797.21 282.477C797.21 358.632 646.553 420.368 460.71 420.368C274.866 420.368 124.21 358.632 124.21 282.477" stroke="#3090FF" stroke-width="3"/>
<path d="M780.21 327.368C780.21 404.136 637.836 466.368 462.21 466.368C286.583 466.368 144.21 404.136 144.21 327.368" stroke="#3090FF" stroke-width="3"/>
<path d="M780.21 223.463C780.21 282.006 637.836 329.463 462.21 329.463C286.583 329.463 144.21 282.006 144.21 223.463" stroke="#3090FF" stroke-width="3"/>
<path d="M510.47 407.008C510.47 407.607 511.043 407.956 512.19 408.055C512.639 408.055 512.863 408.193 512.863 408.467C512.863 408.492 512.838 408.654 512.788 408.953C512.713 409.302 512.639 409.526 512.564 409.626C512.489 409.726 512.327 409.776 512.078 409.776C512.028 409.776 511.878 409.776 511.629 409.776C511.38 409.776 510.956 409.763 510.357 409.738C509.759 409.713 508.961 409.701 507.964 409.701C506.194 409.701 505.06 409.726 504.561 409.776H504.262C504.087 409.601 504 409.464 504 409.364C504.05 408.691 504.212 408.255 504.486 408.055H505.01C506.755 407.981 508.026 407.357 508.824 406.186C508.974 406.036 511.23 402.234 515.593 394.78C519.956 387.325 522.175 383.548 522.249 383.449C522.424 383.15 522.723 383 523.147 383H523.446H524.082C524.231 383.224 524.306 383.349 524.306 383.374L525.353 395.453C526.051 403.506 526.425 407.569 526.475 407.644C526.6 407.918 527.41 408.055 528.906 408.055C529.529 408.055 529.841 408.18 529.841 408.429C529.841 408.479 529.803 408.654 529.729 408.953C529.654 409.327 529.592 409.551 529.542 409.626C529.492 409.701 529.317 409.751 529.018 409.776C528.943 409.776 528.769 409.776 528.495 409.776C528.22 409.776 527.734 409.763 527.036 409.738C526.338 409.713 525.428 409.701 524.306 409.701C521.963 409.701 520.429 409.726 519.706 409.776H519.258C519.108 409.626 519.033 409.514 519.033 409.439C519.033 409.364 519.058 409.14 519.108 408.766C519.208 408.442 519.283 408.242 519.332 408.168L519.482 408.055H520.23C521.576 407.981 522.374 407.769 522.623 407.42L522.175 401.81H513.274L512.003 403.979C510.981 405.7 510.47 406.709 510.47 407.008ZM521.988 400.053C521.988 399.778 521.838 397.834 521.539 394.219C521.24 390.604 521.065 388.784 521.015 388.759L520.006 390.367C519.607 391.04 518.821 392.374 517.65 394.368L514.284 400.053L518.136 400.09C520.704 400.09 521.988 400.078 521.988 400.053Z" fill="black"/>
<path d="M907.79 270.281C907.79 269.591 908.162 269.061 908.905 268.689H959.597C960.393 269.114 960.79 269.644 960.79 270.281C960.79 270.864 960.419 271.368 959.676 271.793L934.37 271.872H909.064C908.215 271.607 907.79 271.077 907.79 270.281ZM907.79 285.719C907.79 284.923 908.215 284.393 909.064 284.128H959.676C960.419 284.658 960.79 285.189 960.79 285.719C960.79 286.409 960.393 286.939 959.597 287.311H908.905C908.162 286.939 907.79 286.409 907.79 285.719Z" fill="black"/>
<path d="M1738.37 282.876C1738.37 194.835 1587.81 123.463 1402.08 123.463C1216.35 123.463 1065.79 194.835 1065.79 282.876" stroke="#3090FF" stroke-width="3" stroke-dasharray="6 6"/>
<path d="M1469.45 488.132C1456.33 490.268 1443.03 454.645 1439.74 408.566C1436.45 362.487 1444.43 323.401 1457.55 321.265" stroke="#3090FF" stroke-width="3" stroke-dasharray="6 6"/>
<path d="M1402.08 64C1587.13 64 1737.14 159.729 1737.14 277.815C1737.14 395.902 1587.13 491.63 1402.08 491.63C1217.04 491.63 1067.02 395.902 1067.02 277.815C1067.02 159.729 1217.03 64.0001 1402.08 64ZM1402.71 212.583C1343.09 212.583 1292.39 237.183 1273.78 271.474C1292.39 305.764 1343.09 330.363 1402.71 330.363C1462.33 330.363 1513.02 305.764 1531.63 271.474C1513.02 237.183 1462.33 212.583 1402.71 212.583Z" fill="#D9D9D9" fill-opacity="0.3"/>
<path d="M1402.08 65C1494.44 65 1578.02 88.8922 1638.47 127.468C1698.93 166.051 1736.14 219.231 1736.14 277.815C1736.14 336.4 1698.93 389.579 1638.47 428.162C1578.02 466.738 1494.44 490.63 1402.08 490.63C1309.72 490.63 1226.15 466.738 1165.7 428.162C1105.24 389.579 1068.02 336.399 1068.02 277.815C1068.02 219.231 1105.24 166.051 1165.7 127.468C1226.15 88.8921 1309.72 65.0001 1402.08 65Z" stroke="black" stroke-width="2"/>
<path d="M1266.44 247.917C1270.8 293.921 1330.14 330.363 1402.71 330.363C1475.75 330.363 1535.4 293.442 1539.06 247.011" stroke="black" stroke-width="2"/>
<path d="M1531.72 271.637C1513.19 237.261 1462.42 212.583 1402.71 212.583C1343.09 212.583 1292.39 237.182 1273.78 271.473" stroke="black" stroke-width="2"/>
<path d="M1457.44 319.769C1456.62 319.902 1456.01 320.68 1456.07 321.506C1456.13 322.332 1456.84 322.894 1457.65 322.761L1457.55 321.265L1457.44 319.769ZM1487.26 400.831L1485.78 401.072C1487.41 424.013 1486.24 445.157 1483.05 460.778C1481.46 468.6 1479.38 474.948 1476.95 479.428C1474.49 483.964 1471.88 486.224 1469.34 486.636L1469.45 488.133L1469.56 489.629C1473.58 488.973 1476.89 485.547 1479.51 480.713C1482.17 475.823 1484.33 469.12 1485.96 461.143C1489.22 445.168 1490.39 423.729 1488.74 400.59L1487.26 400.831ZM1457.55 321.265L1457.65 322.761C1460.19 322.349 1463.06 323.718 1466.1 327.357C1469.11 330.952 1472.04 336.484 1474.7 343.613C1480.01 357.851 1484.14 378.132 1485.78 401.072L1487.26 400.831L1488.74 400.59C1487.09 377.451 1482.92 356.882 1477.48 342.322C1474.77 335.052 1471.71 329.199 1468.43 325.275C1465.18 321.396 1461.47 319.113 1457.44 319.769L1457.55 321.265Z" fill="#3090FF"/>
<path d="M1738.79 282.477C1738.79 358.632 1588.13 420.368 1402.29 420.368C1216.45 420.368 1065.79 358.632 1065.79 282.477" stroke="#3090FF" stroke-width="3"/>
<path d="M1456.05 408.008C1456.05 408.607 1456.62 408.956 1457.77 409.055C1458.22 409.055 1458.44 409.193 1458.44 409.467C1458.44 409.492 1458.42 409.654 1458.37 409.953C1458.29 410.302 1458.22 410.526 1458.14 410.626C1458.07 410.726 1457.91 410.776 1457.66 410.776C1457.61 410.776 1457.46 410.776 1457.21 410.776C1456.96 410.776 1456.54 410.763 1455.94 410.738C1455.34 410.713 1454.54 410.701 1453.54 410.701C1451.77 410.701 1450.64 410.726 1450.14 410.776H1449.84C1449.67 410.601 1449.58 410.464 1449.58 410.364C1449.63 409.691 1449.79 409.255 1450.07 409.055H1450.59C1452.33 408.981 1453.61 408.357 1454.4 407.186C1454.55 407.036 1456.81 403.234 1461.17 395.78C1465.54 388.325 1467.75 384.548 1467.83 384.449C1468 384.15 1468.3 384 1468.73 384H1469.03H1469.66C1469.81 384.224 1469.89 384.349 1469.89 384.374L1470.93 396.453C1471.63 404.506 1472 408.569 1472.05 408.644C1472.18 408.918 1472.99 409.055 1474.49 409.055C1475.11 409.055 1475.42 409.18 1475.42 409.429C1475.42 409.479 1475.38 409.654 1475.31 409.953C1475.23 410.327 1475.17 410.551 1475.12 410.626C1475.07 410.701 1474.9 410.751 1474.6 410.776C1474.52 410.776 1474.35 410.776 1474.07 410.776C1473.8 410.776 1473.31 410.763 1472.62 410.738C1471.92 410.713 1471.01 410.701 1469.89 410.701C1467.54 410.701 1466.01 410.726 1465.29 410.776H1464.84C1464.69 410.626 1464.61 410.514 1464.61 410.439C1464.61 410.364 1464.64 410.14 1464.69 409.766C1464.79 409.442 1464.86 409.242 1464.91 409.168L1465.06 409.055H1465.81C1467.16 408.981 1467.95 408.769 1468.2 408.42L1467.75 402.81H1458.85L1457.58 404.979C1456.56 406.7 1456.05 407.709 1456.05 408.008ZM1467.57 401.053C1467.57 400.778 1467.42 398.834 1467.12 395.219C1466.82 391.604 1466.64 389.784 1466.59 389.759L1465.59 391.367C1465.19 392.04 1464.4 393.374 1463.23 395.368L1459.86 401.053L1463.72 401.09C1466.28 401.09 1467.57 401.078 1467.57 401.053Z" fill="black"/>
</svg>
