<svg width="1195" height="481" viewBox="0 0 1195 481" fill="none" xmlns="http://www.w3.org/2000/svg">
<rect width="1195" height="481" fill="white"/>
<path d="M541 232C501 166 431.523 184.283 403 125C430.906 183 416 272 541 232Z" fill="#D9D9D9"/>
<path d="M403 125C365.447 46.9479 622.816 -22.3184 680 204C751 485 531.122 518.374 546 404C560.103 295.582 573.121 285 541 232M403 125C431.523 184.283 501 166 541 232M403 125C430.906 183 416 272 541 232" stroke="black"/>
<path d="M502 116L532.25 164.75L562.5 213.5L592.75 262.25L623 311L653.25 289.5L683.5 268L562.5 73L532.25 94.5L502 116Z" fill="#D9D9D9" fill-opacity="0.5"/>
<path d="M744 225L713.75 176.25L683.5 127.5L653.25 78.75L623 30L592.75 51.5L562.5 73L683.5 268L713.75 246.5L744 225Z" fill="#D9D9D9" fill-opacity="0.5"/>
<path d="M562.5 73L683.5 268M562.5 73L532.25 94.5M562.5 73L592.75 51.5M683.5 268L653.25 289.5M683.5 268L713.75 246.5M562.5 213.5L683.5 127.5M562.5 213.5L532.25 164.75M562.5 213.5L592.75 262.25M683.5 127.5L653.25 78.75M683.5 127.5L713.75 176.25M532.25 164.75L502 116L532.25 94.5M532.25 164.75L653.25 78.75M653.25 78.75L623 30L592.75 51.5M592.75 262.25L623 311L653.25 289.5M592.75 262.25L713.75 176.25M713.75 176.25L744 225L713.75 246.5M532.25 94.5L653.25 289.5M592.75 51.5L713.75 246.5" stroke="black"/>
<path d="M778 90L772.232 89.7573L774.906 94.8742L778 90ZM623.232 171.443L774.243 92.5273L773.78 91.641L622.768 170.557L623.232 171.443Z" fill="#055DAF"/>
<path d="M633.5 292.5L635.949 287.272L630.197 287.765L633.5 292.5ZM622.502 170.043L632.618 288.059L633.614 287.974L623.498 169.957L622.502 170.043Z" fill="black"/>
<path d="M655 105L650.202 108.211L655.381 110.761L655 105ZM623.449 170.221L653.461 109.258L652.564 108.816L622.551 169.779L623.449 170.221Z" fill="black"/>
<circle cx="623.5" cy="170.5" r="2.5" fill="black"/>
<path d="M635.986 173.47C635.997 173.438 636.007 173.396 636.018 173.343C636.028 173.29 636.055 173.173 636.097 172.993C636.14 172.813 636.193 172.648 636.256 172.5C636.32 172.351 636.4 172.177 636.495 171.975C636.59 171.774 636.696 171.615 636.813 171.498C636.93 171.381 637.068 171.265 637.227 171.148C637.386 171.031 637.561 170.984 637.751 171.005C638.547 171.005 639.056 171.344 639.278 172.023L639.437 171.88C640.095 171.296 640.72 171.005 641.314 171.005C642.003 171.005 642.544 171.254 642.936 171.752C643.329 172.251 643.525 172.855 643.525 173.566C643.525 174.711 643.122 175.766 642.316 176.731C641.51 177.695 640.598 178.183 639.581 178.194C639.347 178.194 639.14 178.162 638.96 178.098C638.844 178.045 638.722 177.966 638.594 177.86C638.467 177.754 638.366 177.664 638.292 177.589L638.181 177.462C638.17 177.473 638.054 177.934 637.831 178.846C637.608 179.758 637.497 180.219 637.497 180.23C637.497 180.293 637.539 180.33 637.624 180.341C637.709 180.351 637.905 180.367 638.213 180.389H638.61C638.674 180.463 638.706 180.511 638.706 180.532C638.706 180.553 638.69 180.648 638.658 180.818C638.626 180.945 638.594 181.025 638.563 181.057C638.531 181.088 638.462 181.11 638.356 181.12C638.335 181.12 638.276 181.12 638.181 181.12C638.085 181.12 637.905 181.115 637.64 181.104C637.375 181.094 637.046 181.088 636.654 181.088C635.912 181.088 635.44 181.099 635.239 181.12H635.111C635.037 181.046 635 180.988 635 180.945C635.021 180.659 635.09 180.473 635.207 180.389H635.525C635.885 180.378 636.092 180.314 636.145 180.198C636.177 180.134 636.5 178.867 637.115 176.397C637.73 173.926 638.054 172.617 638.085 172.468C638.096 172.415 638.101 172.341 638.101 172.245C638.101 171.811 637.969 171.593 637.704 171.593C637.471 171.593 637.274 171.742 637.115 172.039C636.956 172.336 636.834 172.659 636.75 173.009C636.665 173.359 636.601 173.55 636.559 173.581C636.537 173.603 636.453 173.613 636.304 173.613H636.082C636.018 173.55 635.986 173.502 635.986 173.47ZM638.451 176.412C638.685 177.218 639.077 177.621 639.628 177.621C639.946 177.621 640.254 177.499 640.551 177.255C640.848 177.012 641.091 176.704 641.282 176.333C641.473 175.972 641.664 175.4 641.855 174.615C642.046 173.831 642.146 173.247 642.157 172.866V172.77C642.157 171.986 641.834 171.593 641.187 171.593C641.07 171.593 640.954 171.609 640.837 171.641C640.72 171.673 640.604 171.721 640.487 171.784C640.37 171.848 640.264 171.917 640.169 171.991C640.074 172.065 639.983 172.145 639.899 172.23C639.814 172.314 639.734 172.394 639.66 172.468C639.586 172.542 639.528 172.617 639.485 172.691C639.443 172.765 639.4 172.818 639.358 172.85L639.31 172.913C639.31 172.924 639.294 172.998 639.262 173.136C639.231 173.274 639.172 173.507 639.087 173.836C639.003 174.165 638.928 174.44 638.865 174.663C638.589 175.787 638.451 176.37 638.451 176.412Z" fill="black"/>
<path d="M443.551 39.7668C444.404 39.7668 445.185 39.3909 445.893 38.6392C446.601 37.8875 446.963 37.0129 446.977 36.0155C446.977 35.1047 446.601 34.4759 445.85 34.129C444.317 33.7386 443.334 33.4712 442.901 33.3266C442.467 33.1821 442.163 33.0375 441.99 32.893C441.122 32.2858 440.689 31.4112 440.689 30.2692C440.689 29.3874 440.92 28.5851 441.383 27.8623C441.845 27.1395 442.315 26.5974 442.792 26.236C443.211 25.8746 443.717 25.5855 444.31 25.3686C444.903 25.1518 445.365 25.0361 445.698 25.0217H445.936H446.088C447.476 25.0217 448.481 25.4843 449.102 26.4094C449.117 26.4094 449.211 26.3155 449.384 26.1276C449.558 25.9396 449.746 25.73 449.948 25.4987C450.15 25.2674 450.295 25.1084 450.382 25.0217C450.396 25.0217 450.425 25.0217 450.468 25.0217C450.512 25.0217 450.548 25.0144 450.577 25C450.765 25 450.859 25.0506 450.859 25.1518C450.859 25.253 450.656 26.1276 450.251 27.7755C449.847 29.4235 449.615 30.2764 449.558 30.3343C449.5 30.3921 449.384 30.4138 449.211 30.3993C448.922 30.3993 448.777 30.3343 448.777 30.2042C448.777 30.1174 448.784 30.0451 448.799 29.9873C448.799 29.9439 448.806 29.8066 448.82 29.5753C448.835 29.344 448.849 29.1561 448.864 29.0115C448.864 28.52 448.799 28.0936 448.669 27.7322C448.538 27.3708 448.408 27.1033 448.278 26.9299C448.148 26.7564 447.967 26.5757 447.736 26.3878C447.216 26.0842 446.623 25.9324 445.958 25.9324C445.134 25.9324 444.368 26.2649 443.66 26.9299C442.951 27.5948 442.59 28.361 442.575 29.2284C442.575 29.6621 442.684 30.0379 442.901 30.3559C443.117 30.674 443.414 30.898 443.79 31.0281C443.847 31.0571 444.353 31.1944 445.308 31.4401C446.262 31.6859 446.746 31.816 446.76 31.8305C447.252 31.9895 447.729 32.3364 448.191 32.8713C448.654 33.4062 448.885 34.129 448.885 35.0397C448.885 35.4155 448.828 35.8203 448.712 36.254C448.64 36.572 448.51 36.9262 448.322 37.3165C448.134 37.7068 447.873 38.1333 447.541 38.5959C447.208 39.0585 446.731 39.4921 446.11 39.8969C445.488 40.3017 444.809 40.5763 444.072 40.7209C443.898 40.7498 443.652 40.7643 443.334 40.7643C441.903 40.7643 440.79 40.3667 439.995 39.5716L439.778 39.3331L439.171 40.0053C438.838 40.3956 438.636 40.6197 438.564 40.6775C438.492 40.7354 438.398 40.7643 438.282 40.7643C438.094 40.7643 438 40.7064 438 40.5908C438 40.5474 438.419 38.8488 439.258 35.4951C439.287 35.4083 439.431 35.3649 439.691 35.3649H439.973C440.06 35.4517 440.103 35.5312 440.103 35.6035C440.103 35.6324 440.096 35.6974 440.082 35.7986C440.067 35.8998 440.038 36.0516 439.995 36.254C439.952 36.4564 439.937 36.6949 439.952 36.9696C439.98 37.5333 440.111 38.0104 440.342 38.4007C440.573 38.791 440.884 39.0801 441.274 39.2681C441.665 39.456 442.04 39.5861 442.402 39.6584C442.763 39.7307 443.146 39.7668 443.551 39.7668Z" fill="black"/>
<path d="M458.01 34.8662C458.01 33.1026 458.603 31.657 459.788 30.5294C460.973 29.4018 462.376 28.7586 463.995 28.5995C464.009 28.5995 464.082 28.5995 464.212 28.5995C464.342 28.5995 464.522 28.5995 464.754 28.5995C464.985 28.5995 465.238 28.5923 465.513 28.5779C465.787 28.5634 466.113 28.5634 466.488 28.5779C466.864 28.5923 467.218 28.5923 467.551 28.5779H470.912C471.129 28.6935 471.237 28.8381 471.237 29.0115C471.237 29.1416 471.143 29.279 470.955 29.4235L467.508 29.4452H466.38H465.751C464.667 29.4452 463.923 29.4741 463.518 29.532C463.113 29.5898 462.593 29.7632 461.957 30.0524C461.638 30.2114 461.335 30.3993 461.046 30.6162C460.757 30.833 460.431 31.1366 460.07 31.5269C459.709 31.9172 459.419 32.4015 459.203 32.9797C458.986 33.558 458.877 34.1868 458.877 34.8662V34.9746C458.877 36.2468 459.318 37.3743 460.2 38.3573C461.053 39.2825 462.087 39.8752 463.301 40.1354C463.59 40.2077 463.865 40.2439 464.125 40.2439C464.385 40.2439 465.513 40.2583 467.508 40.2872H470.955C471.143 40.4318 471.237 40.5763 471.237 40.7209C471.237 40.8944 471.129 41.0389 470.912 41.1546H467.594C467.363 41.1546 467.031 41.1546 466.597 41.1546C466.163 41.1546 465.831 41.1618 465.599 41.1763C464.385 41.1763 463.337 41.0606 462.455 40.8293C461.573 40.598 460.728 40.0921 459.918 39.3114C458.646 38.1261 458.01 36.6443 458.01 34.8662Z" fill="black"/>
<path d="M485.349 26.648C485.349 26.5613 484.937 26.5034 484.113 26.4745C483.766 26.4745 483.542 26.4673 483.441 26.4528C483.34 26.4384 483.289 26.3661 483.289 26.236C483.289 26.2215 483.304 26.142 483.333 25.9975C483.347 25.9541 483.362 25.9035 483.376 25.8457C483.39 25.7879 483.398 25.7517 483.398 25.7373C483.398 25.7228 483.412 25.6867 483.441 25.6288C483.47 25.571 483.484 25.5493 483.484 25.5638C483.484 25.5782 483.513 25.5638 483.571 25.5204C483.629 25.4771 483.665 25.4626 483.68 25.4771C483.694 25.4915 483.752 25.4915 483.853 25.4771C483.954 25.4626 484.041 25.4554 484.113 25.4554C484.2 25.4554 484.417 25.4554 484.764 25.4554C485.111 25.4554 485.436 25.4626 485.74 25.4771C486.882 25.4771 487.539 25.4771 487.713 25.4771C487.886 25.4771 488.002 25.5132 488.06 25.5855C488.074 25.6433 488.342 27.6816 488.862 31.7004L489.643 37.7502L490.141 36.9479C490.488 36.4275 490.951 35.7047 491.529 34.7795C492.107 33.8543 492.743 32.8424 493.437 31.7437C495.967 27.7105 497.247 25.6794 497.275 25.6505C497.29 25.6361 497.312 25.6144 497.34 25.5855C497.369 25.5566 497.398 25.5349 497.427 25.5204L497.557 25.4771H499.639C499.885 25.4771 500.174 25.4771 500.506 25.4771C500.839 25.4771 501.048 25.4698 501.135 25.4554C501.627 25.4554 501.872 25.5349 501.872 25.6939C501.872 25.7662 501.851 25.889 501.807 26.0625C501.764 26.236 501.742 26.33 501.742 26.3444C501.685 26.4311 501.417 26.4745 500.94 26.4745C500.362 26.489 499.993 26.5107 499.834 26.5396C499.675 26.5685 499.545 26.648 499.444 26.7781C499.4 26.8504 498.88 28.8959 497.883 32.9147C496.885 36.9334 496.379 38.9645 496.365 39.0079C496.365 39.0657 496.372 39.1018 496.386 39.1163C496.401 39.1308 496.451 39.1597 496.538 39.203C496.625 39.2464 496.748 39.2609 496.907 39.2464C497.066 39.2319 497.304 39.2464 497.622 39.2898H498.295C498.381 39.4199 498.425 39.4994 498.425 39.5283C498.425 39.7596 498.374 39.9764 498.273 40.1788C498.201 40.2511 498.085 40.2872 497.926 40.2872C497.854 40.2872 497.557 40.28 497.037 40.2655C496.516 40.2511 495.852 40.2439 495.042 40.2439C494.16 40.2439 493.495 40.2439 493.047 40.2439C492.599 40.2439 492.346 40.2511 492.288 40.2655C492.042 40.2655 491.919 40.1933 491.919 40.0487C491.919 40.0198 491.934 39.9186 491.963 39.7451C492.021 39.5138 492.078 39.3837 492.136 39.3548C492.194 39.3259 492.36 39.3042 492.635 39.2898C493.025 39.2898 493.459 39.2681 493.936 39.2247C494.138 39.1813 494.276 39.0946 494.348 38.9645C494.377 38.9067 494.652 37.8514 495.172 35.7986C495.692 33.7459 496.206 31.7004 496.712 29.6621C497.218 27.6238 497.471 26.6046 497.471 26.6046L493.264 33.305C490.431 37.8153 488.978 40.1065 488.905 40.1788C488.876 40.1933 488.848 40.2077 488.819 40.2222C488.746 40.2655 488.631 40.2872 488.472 40.2872C488.255 40.2872 488.125 40.2366 488.081 40.1354C488.052 40.0776 487.756 37.8369 487.192 33.4134L486.347 26.7564L484.872 32.6111C483.904 36.4564 483.419 38.4441 483.419 38.5742C483.506 39.0512 484.026 39.2898 484.981 39.2898H485.197C485.284 39.362 485.335 39.4271 485.349 39.4849C485.364 39.5427 485.342 39.6729 485.284 39.8752C485.226 40.1065 485.169 40.2366 485.111 40.2655C485.053 40.28 484.973 40.2872 484.872 40.2872C484.843 40.2872 484.757 40.2872 484.612 40.2872C484.467 40.2872 484.222 40.28 483.875 40.2655C483.528 40.2511 483.065 40.2439 482.487 40.2439C482.053 40.2439 481.605 40.2511 481.143 40.2655C480.68 40.28 480.412 40.2872 480.34 40.2872C480.123 40.2872 479.986 40.2728 479.928 40.2439C479.87 40.215 479.841 40.1499 479.841 40.0487C479.841 40.0198 479.863 39.9186 479.907 39.7451C479.95 39.5717 479.986 39.4632 480.015 39.4199C480.044 39.3331 480.203 39.2898 480.492 39.2898C481.504 39.2898 482.147 39.0006 482.422 38.4224C482.48 38.3357 482.978 36.3986 483.918 32.6111C484.858 28.8236 485.335 26.8359 485.349 26.648Z" fill="black"/>
<path d="M562.412 34.8127C562.137 34.8127 562 34.7549 562 34.6392C562 34.5669 562.116 34.162 562.347 33.4246C562.578 32.6872 562.824 31.957 563.084 31.234L563.453 30.1712C563.525 29.9109 563.619 29.723 563.735 29.6073H573.886H575.838C576.3 29.6073 576.575 29.6145 576.662 29.629C576.749 29.6434 576.799 29.7085 576.814 29.8242C576.814 29.9109 576.691 30.7351 576.445 32.2968C576.199 33.8584 576.062 34.6464 576.033 34.6609C576.033 34.7621 575.896 34.8127 575.621 34.8127C575.491 34.8127 575.404 34.8127 575.361 34.8127C575.317 34.8127 575.274 34.7766 575.23 34.7043L575.187 34.6392C575.187 34.5524 575.23 34.2271 575.317 33.6632C575.404 33.0993 575.447 32.6583 575.447 32.3401C575.447 31.8341 575.353 31.4509 575.165 31.1906C574.977 30.9303 574.58 30.7496 573.972 30.6484C573.9 30.6339 573.481 30.6195 572.715 30.605C572.049 30.605 571.63 30.6122 571.457 30.6267C571.283 30.6411 571.153 30.699 571.066 30.8002C571.052 30.8147 570.538 32.8318 569.526 36.8515C568.514 40.8713 568.008 42.9173 568.008 42.9896C568.008 43.1631 568.644 43.2643 569.917 43.2932C570.379 43.2932 570.676 43.3005 570.806 43.3149C570.936 43.3294 571.001 43.3944 571.001 43.5101C571.001 43.5824 570.979 43.6836 570.936 43.8138C570.878 44.074 570.813 44.2259 570.741 44.2693L570.697 44.2909C570.654 44.2909 570.603 44.2909 570.546 44.2909C570.473 44.2909 570.097 44.2837 569.418 44.2693C568.738 44.2548 567.762 44.2476 566.49 44.2476C564.624 44.2476 563.439 44.262 562.933 44.2909H562.607C562.521 44.2042 562.477 44.1391 562.477 44.0957C562.477 44.0524 562.492 43.9222 562.521 43.7053C562.578 43.5174 562.651 43.38 562.737 43.2932H563.345H563.583C564.74 43.2932 565.427 43.2282 565.644 43.098C565.658 43.0836 565.673 43.0763 565.687 43.0763C565.759 43.033 565.832 42.8884 565.904 42.6426C565.976 42.3967 566.266 41.2617 566.772 39.2373C567.017 38.2541 567.22 37.4516 567.379 36.8298C568.391 32.8535 568.897 30.8219 568.897 30.7351C568.897 30.6628 568.688 30.6267 568.268 30.6267H567.596C566.627 30.6267 565.991 30.6701 565.687 30.7568C565.037 30.9014 564.53 31.1978 564.169 31.6461C563.807 32.0943 563.417 32.933 562.998 34.162C562.896 34.4802 562.824 34.6681 562.781 34.726C562.737 34.7838 562.636 34.8127 562.477 34.8127H562.412Z" fill="black"/>
<path d="M574.564 43.1434C574.574 43.1127 574.584 43.0718 574.594 43.0207C574.605 42.9696 574.63 42.8571 574.671 42.6834C574.712 42.5096 574.763 42.3511 574.824 42.208C574.886 42.0649 574.962 41.8962 575.054 41.702C575.146 41.5077 575.249 41.3544 575.361 41.2419C575.474 41.1295 575.606 41.017 575.76 40.9046C575.913 40.7921 576.082 40.7461 576.266 40.7666C577.033 40.7666 577.523 41.0937 577.738 41.748L577.891 41.61C578.525 41.0477 579.128 40.7666 579.701 40.7666C580.365 40.7666 580.887 41.0068 581.265 41.4873C581.643 41.9678 581.832 42.5505 581.832 43.2354C581.832 44.3395 581.444 45.3566 580.667 46.2869C579.89 47.2172 579.011 47.6875 578.029 47.6977C577.804 47.6977 577.605 47.667 577.431 47.6057C577.319 47.5546 577.201 47.4779 577.079 47.3757C576.956 47.2734 576.859 47.1865 576.787 47.115L576.68 46.9923C576.67 47.0025 576.557 47.4472 576.343 48.3264C576.128 49.2056 576.021 49.6503 576.021 49.6605C576.021 49.7218 576.061 49.7576 576.143 49.7678C576.225 49.778 576.414 49.7934 576.711 49.8138H577.094C577.155 49.8854 577.186 49.9314 577.186 49.9518C577.186 49.9723 577.171 50.0643 577.14 50.2278C577.109 50.3505 577.079 50.4272 577.048 50.4579C577.017 50.4885 576.951 50.509 576.849 50.5192C576.828 50.5192 576.772 50.5192 576.68 50.5192C576.588 50.5192 576.414 50.5141 576.159 50.5039C575.903 50.4936 575.586 50.4885 575.208 50.4885C574.492 50.4885 574.037 50.4987 573.843 50.5192H573.72C573.649 50.4476 573.613 50.3914 573.613 50.3505C573.633 50.0745 573.7 49.8956 573.812 49.8138H574.119C574.467 49.8036 574.666 49.7423 574.717 49.6298C574.748 49.5685 575.06 48.3468 575.652 45.9649C576.245 43.583 576.557 42.3204 576.588 42.1773C576.598 42.1262 576.603 42.0546 576.603 41.9626C576.603 41.5435 576.475 41.3339 576.22 41.3339C575.995 41.3339 575.806 41.4771 575.652 41.7633C575.499 42.0495 575.382 42.3613 575.3 42.6987C575.218 43.036 575.157 43.2201 575.116 43.2507C575.095 43.2712 575.014 43.2814 574.87 43.2814H574.656C574.594 43.2201 574.564 43.1741 574.564 43.1434ZM576.941 45.9802C577.165 46.7572 577.544 47.1456 578.075 47.1456C578.382 47.1456 578.678 47.0281 578.965 46.793C579.251 46.5578 579.486 46.2614 579.67 45.9036C579.854 45.556 580.038 45.0039 580.222 44.2475C580.406 43.491 580.503 42.9287 580.513 42.5607V42.4687C580.513 41.7122 580.202 41.3339 579.578 41.3339C579.466 41.3339 579.353 41.3493 579.241 41.3799C579.128 41.4106 579.016 41.4566 578.903 41.5179C578.791 41.5793 578.689 41.6457 578.597 41.7173C578.505 41.7889 578.418 41.8655 578.336 41.9473C578.254 42.0291 578.178 42.1058 578.106 42.1773C578.034 42.2489 577.978 42.3204 577.937 42.392C577.896 42.4636 577.856 42.5147 577.815 42.5453L577.769 42.6067C577.769 42.6169 577.753 42.6885 577.723 42.8214C577.692 42.9543 577.636 43.1792 577.554 43.4961C577.472 43.813 577.401 44.0788 577.339 44.2935C577.073 45.3771 576.941 45.9393 576.941 45.9802Z" fill="black"/>
<path d="M589.691 43.7704C590.544 43.7704 591.325 43.3945 592.033 42.6426C592.742 41.8907 593.103 41.0159 593.118 40.0182C593.118 39.1072 592.742 38.4782 591.99 38.1312C590.457 37.7408 589.474 37.4733 589.04 37.3287C588.606 37.1841 588.303 37.0395 588.129 36.8949C587.262 36.2876 586.828 35.4128 586.828 34.2705C586.828 33.3885 587.059 32.586 587.522 31.863C587.984 31.14 588.454 30.5978 588.932 30.2363C589.351 29.8748 589.857 29.5856 590.45 29.3687C591.043 29.1518 591.505 29.0361 591.838 29.0217H592.077H592.228C593.616 29.0217 594.621 29.4844 595.243 30.4098C595.258 30.4098 595.352 30.3158 595.525 30.1278C595.699 29.9399 595.887 29.7302 596.089 29.4989C596.291 29.2675 596.436 29.1084 596.523 29.0217C596.537 29.0217 596.566 29.0217 596.61 29.0217C596.653 29.0217 596.689 29.0145 596.718 29C596.906 29 597 29.0506 597 29.1518C597 29.253 596.798 30.1278 596.393 31.7762C595.988 33.4246 595.756 34.2777 595.699 34.3356C595.641 34.3934 595.525 34.4151 595.352 34.4006C595.062 34.4006 594.918 34.3356 594.918 34.2054C594.918 34.1187 594.925 34.0464 594.94 33.9885C594.94 33.9452 594.947 33.8078 594.961 33.5764C594.976 33.3451 594.99 33.1571 595.005 33.0125C595.005 32.5209 594.94 32.0943 594.809 31.7328C594.679 31.3714 594.549 31.1039 594.419 30.9303C594.289 30.7568 594.108 30.5761 593.877 30.3881C593.356 30.0845 592.763 29.9326 592.098 29.9326C591.274 29.9326 590.508 30.2652 589.799 30.9303C589.091 31.5955 588.729 32.3618 588.715 33.2294C588.715 33.6632 588.823 34.0391 589.04 34.3573C589.257 34.6754 589.553 34.8995 589.929 35.0296C589.987 35.0585 590.493 35.1959 591.448 35.4417C592.402 35.6875 592.886 35.8177 592.901 35.8321C593.392 35.9912 593.87 36.3382 594.332 36.8732C594.795 37.4082 595.026 38.1312 595.026 39.0421C595.026 39.4181 594.968 39.823 594.853 40.2567C594.78 40.5748 594.65 40.9291 594.462 41.3195C594.274 41.7099 594.014 42.1365 593.682 42.5992C593.349 43.0619 592.872 43.4957 592.25 43.9005C591.628 44.3054 590.949 44.5801 590.211 44.7247C590.038 44.7537 589.792 44.7681 589.474 44.7681C588.042 44.7681 586.929 44.3705 586.134 43.5752L585.917 43.3366L585.309 44.009C584.977 44.3994 584.774 44.6235 584.702 44.6814C584.63 44.7392 584.536 44.7681 584.42 44.7681C584.232 44.7681 584.138 44.7103 584.138 44.5946C584.138 44.5512 584.558 42.8522 585.396 39.4976C585.425 39.4109 585.57 39.3675 585.83 39.3675H586.112C586.199 39.4542 586.242 39.5338 586.242 39.6061C586.242 39.635 586.235 39.7 586.22 39.8013C586.206 39.9025 586.177 40.0543 586.134 40.2567C586.09 40.4592 586.076 40.6978 586.09 40.9725C586.119 41.5364 586.249 42.0136 586.481 42.404C586.712 42.7944 587.023 43.0836 587.413 43.2716C587.804 43.4595 588.18 43.5897 588.541 43.662C588.903 43.7343 589.286 43.7704 589.691 43.7704Z" fill="black"/>
<path d="M714.652 132.231C714.507 132.231 714.404 132.231 714.344 132.231C714.284 132.231 714.223 132.225 714.163 132.213C714.103 132.201 714.06 132.183 714.036 132.159C714.012 132.135 714 132.099 714 132.05C714 132.002 714.018 131.899 714.054 131.743C714.091 131.586 714.145 131.477 714.217 131.417C714.241 131.404 714.326 131.398 714.471 131.398C715.05 131.435 715.708 131.453 716.445 131.453C717.93 131.453 718.781 131.435 718.998 131.398H719.179C719.252 131.471 719.288 131.525 719.288 131.561C719.288 131.598 719.276 131.706 719.252 131.887C719.204 132.044 719.143 132.159 719.071 132.231H718.854C718.177 132.231 717.839 132.31 717.839 132.467C717.839 132.527 718.141 133.415 718.745 135.129C719.349 136.844 719.656 137.713 719.668 137.737L719.723 137.683C719.771 137.634 719.844 137.556 719.94 137.447C720.037 137.339 720.163 137.194 720.32 137.013C720.477 136.831 720.671 136.608 720.9 136.342C721.129 136.077 721.389 135.769 721.679 135.419C722.789 134.127 723.435 133.366 723.616 133.137C723.798 132.908 723.894 132.72 723.906 132.576C723.906 132.382 723.713 132.268 723.327 132.231C723.121 132.231 723.019 132.171 723.019 132.05C723.019 132.026 723.031 131.942 723.055 131.797C723.091 131.616 723.121 131.507 723.146 131.471C723.17 131.435 723.254 131.41 723.399 131.398C723.423 131.398 723.598 131.404 723.924 131.417C724.25 131.429 724.727 131.441 725.355 131.453C725.681 131.453 726.019 131.447 726.369 131.435C726.719 131.423 726.919 131.417 726.967 131.417C727.172 131.417 727.275 131.471 727.275 131.58C727.275 131.628 727.257 131.724 727.22 131.869C727.184 132.014 727.154 132.099 727.13 132.123C727.106 132.195 726.979 132.231 726.75 132.231C725.88 132.292 725.174 132.594 724.631 133.137C724.522 133.246 723.677 134.23 722.095 136.089L719.759 138.824L719.288 140.707C718.962 141.999 718.799 142.675 718.799 142.735C718.799 142.868 719.21 142.935 720.031 142.935C720.224 142.935 720.351 142.941 720.411 142.953C720.471 142.965 720.508 143.025 720.52 143.134C720.52 143.158 720.508 143.23 720.483 143.351C720.435 143.556 720.399 143.671 720.375 143.695C720.351 143.719 720.254 143.737 720.085 143.75C720.025 143.75 719.771 143.75 719.324 143.75C718.878 143.75 718.322 143.743 717.658 143.731C716.91 143.731 716.342 143.731 715.956 143.731C715.57 143.731 715.352 143.737 715.304 143.75C715.087 143.75 714.978 143.701 714.978 143.605C714.978 143.544 714.996 143.454 715.032 143.333C715.044 143.297 715.056 143.261 715.068 143.224C715.081 143.188 715.087 143.158 715.087 143.134C715.087 143.11 715.093 143.085 715.105 143.061C715.117 143.037 715.129 143.019 715.141 143.007C715.153 142.995 715.171 142.983 715.195 142.971C715.219 142.959 715.25 142.953 715.286 142.953C715.322 142.953 715.358 142.953 715.394 142.953C715.431 142.953 715.485 142.947 715.557 142.935C715.63 142.922 715.708 142.922 715.793 142.935C716.264 142.922 716.572 142.898 716.717 142.862C716.861 142.826 716.97 142.747 717.042 142.627C717.079 142.566 717.254 141.914 717.568 140.671L718.02 138.805L715.793 132.485C715.781 132.473 715.769 132.461 715.757 132.449C715.745 132.437 715.733 132.425 715.72 132.413C715.708 132.401 715.69 132.388 715.666 132.376C715.642 132.364 715.618 132.352 715.594 132.34C715.57 132.328 715.539 132.316 715.503 132.304C715.467 132.292 715.419 132.286 715.358 132.286C715.298 132.286 715.244 132.28 715.195 132.268C715.147 132.256 715.068 132.25 714.96 132.25C714.851 132.25 714.749 132.244 714.652 132.231Z" fill="black"/>
<path d="M724.273 142.809C724.282 142.784 724.29 142.75 724.299 142.707C724.307 142.664 724.329 142.57 724.363 142.425C724.397 142.28 724.44 142.148 724.491 142.028C724.542 141.909 724.606 141.768 724.683 141.606C724.76 141.444 724.845 141.316 724.939 141.222C725.033 141.128 725.144 141.034 725.272 140.94C725.4 140.846 725.541 140.808 725.694 140.825C726.335 140.825 726.744 141.098 726.924 141.644L727.052 141.529C727.581 141.06 728.084 140.825 728.562 140.825C729.117 140.825 729.553 141.025 729.868 141.427C730.184 141.828 730.342 142.314 730.342 142.886C730.342 143.808 730.018 144.657 729.369 145.434C728.72 146.211 727.986 146.604 727.167 146.612C726.979 146.612 726.813 146.587 726.667 146.535C726.574 146.493 726.475 146.429 726.373 146.343C726.271 146.258 726.189 146.185 726.13 146.126L726.04 146.023C726.032 146.032 725.938 146.403 725.758 147.137C725.579 147.871 725.49 148.243 725.49 148.251C725.49 148.302 725.524 148.332 725.592 148.341C725.66 148.349 725.818 148.362 726.066 148.379H726.386C726.437 148.439 726.463 148.477 726.463 148.494C726.463 148.511 726.45 148.588 726.424 148.725C726.399 148.827 726.373 148.891 726.347 148.917C726.322 148.942 726.266 148.96 726.181 148.968C726.164 148.968 726.117 148.968 726.04 148.968C725.963 148.968 725.818 148.964 725.605 148.955C725.391 148.947 725.127 148.942 724.811 148.942C724.213 148.942 723.834 148.951 723.671 148.968H723.569C723.509 148.908 723.479 148.861 723.479 148.827C723.496 148.597 723.552 148.447 723.646 148.379H723.902C724.192 148.371 724.359 148.319 724.401 148.225C724.427 148.174 724.687 147.154 725.182 145.165C725.677 143.176 725.938 142.122 725.963 142.003C725.972 141.96 725.976 141.9 725.976 141.824C725.976 141.474 725.869 141.299 725.656 141.299C725.468 141.299 725.31 141.418 725.182 141.657C725.054 141.896 724.956 142.156 724.888 142.438C724.819 142.72 724.768 142.873 724.734 142.899C724.717 142.916 724.649 142.925 724.529 142.925H724.35C724.299 142.873 724.273 142.835 724.273 142.809ZM726.258 145.178C726.446 145.827 726.761 146.151 727.205 146.151C727.461 146.151 727.709 146.053 727.948 145.857C728.187 145.66 728.383 145.413 728.537 145.114C728.69 144.824 728.844 144.363 728.998 143.731C729.151 143.1 729.233 142.63 729.241 142.323V142.246C729.241 141.614 728.981 141.299 728.46 141.299C728.366 141.299 728.272 141.311 728.178 141.337C728.084 141.363 727.991 141.401 727.897 141.452C727.803 141.503 727.717 141.559 727.641 141.619C727.564 141.678 727.491 141.742 727.423 141.811C727.355 141.879 727.291 141.943 727.231 142.003C727.171 142.063 727.124 142.122 727.09 142.182C727.056 142.242 727.022 142.284 726.988 142.31L726.949 142.361C726.949 142.37 726.936 142.43 726.911 142.541C726.885 142.652 726.838 142.839 726.77 143.104C726.702 143.369 726.642 143.59 726.591 143.77C726.369 144.675 726.258 145.144 726.258 145.178Z" fill="black"/>
<path d="M737.878 139.24C737.878 137.767 738.373 136.56 739.363 135.618C740.353 134.676 741.524 134.139 742.877 134.006C742.889 134.006 742.991 134.006 743.184 134.006C743.378 134.006 743.631 134 743.945 133.988C744.259 133.976 744.561 133.976 744.851 133.988H746.643C746.825 134.085 746.915 134.205 746.915 134.35C746.915 134.459 746.837 134.574 746.68 134.694L744.796 134.713C743.456 134.725 742.629 134.761 742.315 134.821C741.724 134.966 741.198 135.183 740.74 135.473C740.281 135.763 739.925 136.059 739.671 136.361C739.418 136.662 739.2 136.994 739.019 137.357C738.838 137.719 738.729 138.009 738.693 138.226C738.657 138.443 738.627 138.648 738.603 138.842V138.878H746.643C746.825 138.974 746.915 139.095 746.915 139.24C746.915 139.385 746.825 139.506 746.643 139.602H738.603V139.639C738.603 139.892 738.663 140.2 738.784 140.562C738.904 140.924 739.104 141.317 739.381 141.739C739.659 142.162 740.045 142.548 740.54 142.898C741.035 143.248 741.621 143.496 742.297 143.641C742.623 143.713 743.456 143.756 744.796 143.768H746.68C746.837 143.888 746.915 144.009 746.915 144.13C746.915 144.275 746.825 144.395 746.643 144.492H744.887C744.802 144.492 744.651 144.492 744.434 144.492C744.217 144.492 744.042 144.498 743.909 144.51C742.037 144.51 740.558 143.991 739.472 142.953C738.409 141.963 737.878 140.725 737.878 139.24Z" fill="black"/>
<path d="M757.703 132.231C757.667 132.231 757.619 132.231 757.558 132.231C757.257 132.231 757.075 132.225 757.015 132.213C756.955 132.201 756.925 132.135 756.925 132.014C756.925 131.688 756.991 131.489 757.124 131.417C757.148 131.404 757.733 131.398 758.88 131.398C759.81 131.398 760.341 131.398 760.474 131.398C760.607 131.398 760.691 131.435 760.728 131.507C763.275 137.495 764.573 140.568 764.621 140.725L765.599 136.868C766.239 134.32 766.559 132.962 766.559 132.793C766.559 132.467 766.173 132.28 765.4 132.231C765.11 132.231 764.965 132.165 764.965 132.032C764.965 132.008 764.978 131.936 765.002 131.815C765.05 131.622 765.086 131.507 765.11 131.471C765.134 131.435 765.195 131.41 765.291 131.398C765.328 131.398 765.515 131.404 765.853 131.417C766.191 131.429 766.692 131.441 767.356 131.453C767.96 131.453 768.418 131.447 768.732 131.435C769.046 131.423 769.227 131.417 769.276 131.417C769.457 131.417 769.547 131.477 769.547 131.598C769.547 131.863 769.499 132.044 769.402 132.141C769.378 132.201 769.245 132.231 769.004 132.231C768.147 132.28 767.61 132.521 767.392 132.956L764.694 143.641C764.67 143.725 764.543 143.768 764.313 143.768C764.144 143.768 764.042 143.756 764.006 143.731C763.969 143.695 763.191 141.866 761.669 138.244L759.369 132.829L758.192 137.538C757.407 140.629 757.015 142.228 757.015 142.337C757.075 142.735 757.51 142.935 758.319 142.935H758.5C758.573 142.995 758.609 143.043 758.609 143.079C758.609 143.116 758.597 143.23 758.573 143.424C758.524 143.58 758.464 143.695 758.391 143.768H758.156C757.782 143.743 757.13 143.731 756.2 143.731C755.862 143.731 755.554 143.731 755.277 143.731C754.999 143.731 754.775 143.731 754.606 143.731C754.437 143.731 754.335 143.737 754.299 143.75C754.117 143.75 754.027 143.695 754.027 143.587C754.027 143.538 754.045 143.442 754.081 143.297C754.117 143.152 754.148 143.067 754.172 143.043C754.196 142.971 754.335 142.935 754.588 142.935C755.409 142.898 755.941 142.663 756.182 142.228C756.23 142.156 756.659 140.484 757.468 137.212L758.699 132.286C758.675 132.274 758.343 132.256 757.703 132.231Z" fill="black"/>
<path d="M768.302 142.809C768.311 142.784 768.32 142.75 768.328 142.707C768.337 142.664 768.358 142.57 768.392 142.425C768.426 142.28 768.469 142.148 768.52 142.028C768.571 141.909 768.635 141.768 768.712 141.606C768.789 141.444 768.874 141.316 768.968 141.222C769.062 141.128 769.173 141.034 769.301 140.94C769.429 140.846 769.57 140.808 769.724 140.825C770.364 140.825 770.774 141.098 770.953 141.644L771.081 141.529C771.61 141.06 772.114 140.825 772.592 140.825C773.147 140.825 773.582 141.025 773.898 141.427C774.214 141.828 774.371 142.314 774.371 142.886C774.371 143.808 774.047 144.657 773.398 145.434C772.75 146.211 772.016 146.604 771.196 146.612C771.008 146.612 770.842 146.587 770.697 146.535C770.603 146.493 770.505 146.429 770.402 146.343C770.3 146.258 770.219 146.185 770.159 146.126L770.069 146.023C770.061 146.032 769.967 146.403 769.788 147.137C769.608 147.871 769.519 148.243 769.519 148.251C769.519 148.302 769.553 148.332 769.621 148.341C769.69 148.349 769.847 148.362 770.095 148.379H770.415C770.466 148.439 770.492 148.477 770.492 148.494C770.492 148.511 770.479 148.588 770.453 148.725C770.428 148.827 770.402 148.891 770.377 148.917C770.351 148.942 770.296 148.96 770.21 148.968C770.193 148.968 770.146 148.968 770.069 148.968C769.993 148.968 769.847 148.964 769.634 148.955C769.421 148.947 769.156 148.942 768.84 148.942C768.243 148.942 767.863 148.951 767.701 148.968H767.598C767.538 148.908 767.509 148.861 767.509 148.827C767.526 148.597 767.581 148.447 767.675 148.379H767.931C768.221 148.371 768.388 148.319 768.43 148.225C768.456 148.174 768.716 147.154 769.212 145.165C769.707 143.176 769.967 142.122 769.993 142.003C770.001 141.96 770.005 141.9 770.005 141.824C770.005 141.474 769.899 141.299 769.685 141.299C769.497 141.299 769.34 141.418 769.212 141.657C769.083 141.896 768.985 142.156 768.917 142.438C768.849 142.72 768.798 142.873 768.763 142.899C768.746 142.916 768.678 142.925 768.559 142.925H768.379C768.328 142.873 768.302 142.835 768.302 142.809ZM770.287 145.178C770.475 145.827 770.791 146.151 771.235 146.151C771.491 146.151 771.738 146.053 771.977 145.857C772.216 145.66 772.412 145.413 772.566 145.114C772.72 144.824 772.873 144.363 773.027 143.731C773.181 143.1 773.262 142.63 773.27 142.323V142.246C773.27 141.614 773.01 141.299 772.489 141.299C772.395 141.299 772.301 141.311 772.208 141.337C772.114 141.363 772.02 141.401 771.926 141.452C771.832 141.503 771.747 141.559 771.67 141.619C771.593 141.678 771.52 141.742 771.452 141.811C771.384 141.879 771.32 141.943 771.26 142.003C771.2 142.063 771.153 142.122 771.119 142.182C771.085 142.242 771.051 142.284 771.017 142.31L770.978 142.361C770.978 142.37 770.966 142.43 770.94 142.541C770.914 142.652 770.867 142.839 770.799 143.104C770.731 143.369 770.671 143.59 770.62 143.77C770.398 144.675 770.287 145.144 770.287 145.178Z" fill="black"/>
<path d="M780.933 143.333C781.645 143.333 782.297 143.019 782.889 142.391C783.481 141.763 783.782 141.033 783.795 140.2C783.795 139.439 783.481 138.914 782.853 138.624C781.573 138.298 780.752 138.075 780.39 137.954C780.028 137.834 779.774 137.713 779.629 137.592C778.905 137.085 778.543 136.355 778.543 135.401C778.543 134.664 778.736 133.994 779.122 133.391C779.508 132.787 779.901 132.334 780.299 132.032C780.649 131.73 781.072 131.489 781.567 131.308C782.062 131.127 782.448 131.03 782.726 131.018H782.925H783.052C784.211 131.018 785.05 131.404 785.569 132.177C785.581 132.177 785.66 132.099 785.805 131.942C785.95 131.785 786.107 131.61 786.276 131.417C786.445 131.223 786.565 131.091 786.638 131.018C786.65 131.018 786.674 131.018 786.71 131.018C786.746 131.018 786.777 131.012 786.801 131C786.958 131 787.036 131.042 787.036 131.127C787.036 131.211 786.867 131.942 786.529 133.318C786.191 134.694 785.998 135.407 785.95 135.455C785.901 135.503 785.805 135.521 785.66 135.509C785.418 135.509 785.298 135.455 785.298 135.346C785.298 135.274 785.304 135.214 785.316 135.165C785.316 135.129 785.322 135.014 785.334 134.821C785.346 134.628 785.358 134.471 785.37 134.35C785.37 133.94 785.316 133.584 785.207 133.282C785.098 132.98 784.99 132.757 784.881 132.612C784.772 132.467 784.622 132.316 784.428 132.159C783.994 131.906 783.499 131.779 782.943 131.779C782.255 131.779 781.615 132.056 781.024 132.612C780.432 133.167 780.13 133.807 780.118 134.531C780.118 134.894 780.209 135.208 780.39 135.473C780.571 135.739 780.818 135.926 781.132 136.035C781.181 136.059 781.603 136.173 782.4 136.379C783.197 136.584 783.601 136.693 783.613 136.705C784.024 136.837 784.422 137.127 784.809 137.574C785.195 138.021 785.388 138.624 785.388 139.385C785.388 139.699 785.34 140.037 785.243 140.399C785.183 140.665 785.074 140.961 784.917 141.287C784.76 141.613 784.543 141.969 784.265 142.355C783.988 142.741 783.589 143.104 783.07 143.442C782.551 143.78 781.984 144.009 781.368 144.13C781.223 144.154 781.018 144.166 780.752 144.166C779.557 144.166 778.627 143.834 777.963 143.17L777.782 142.971L777.275 143.532C776.997 143.858 776.828 144.045 776.768 144.094C776.707 144.142 776.629 144.166 776.532 144.166C776.375 144.166 776.297 144.118 776.297 144.021C776.297 143.985 776.647 142.566 777.347 139.765C777.371 139.693 777.492 139.657 777.71 139.657H777.945C778.017 139.729 778.054 139.795 778.054 139.856C778.054 139.88 778.048 139.934 778.036 140.019C778.023 140.103 777.999 140.23 777.963 140.399C777.927 140.568 777.915 140.767 777.927 140.997C777.951 141.468 778.06 141.866 778.253 142.192C778.446 142.518 778.706 142.759 779.032 142.916C779.358 143.073 779.671 143.182 779.973 143.242C780.275 143.303 780.595 143.333 780.933 143.333Z" fill="black"/>
<path d="M593.276 331.158H593.241C593.08 331.158 593 331.095 593 330.969C593 330.923 593.017 330.831 593.052 330.693C593.098 330.532 593.138 330.44 593.172 330.417C593.207 330.394 593.316 330.377 593.5 330.365C594.489 330.331 595.265 330.032 595.828 329.468C595.943 329.353 596.61 328.629 597.829 327.295C599.048 325.962 599.651 325.283 599.64 325.26C598.387 322.064 597.731 320.437 597.674 320.38C597.57 320.253 597.208 320.184 596.587 320.173H596.104C596.035 320.104 596.001 320.058 596.001 320.035C596.001 320.012 596.012 319.903 596.035 319.707C596.081 319.558 596.139 319.448 596.208 319.379H596.449C596.84 319.402 597.536 319.414 598.536 319.414C598.915 319.414 599.266 319.414 599.588 319.414C599.91 319.414 600.169 319.408 600.364 319.397C600.56 319.385 600.674 319.385 600.709 319.397C600.904 319.397 601.002 319.46 601.002 319.586C601.002 319.598 600.991 319.673 600.968 319.811C600.922 319.983 600.881 320.087 600.847 320.121C600.812 320.155 600.72 320.173 600.571 320.173C600.215 320.207 599.904 320.305 599.64 320.466L600.968 323.812L601.882 322.794C603.089 321.495 603.693 320.776 603.693 320.638C603.693 320.431 603.555 320.288 603.279 320.207C603.221 320.207 603.146 320.196 603.054 320.173C602.882 320.173 602.796 320.109 602.796 319.983C602.796 319.96 602.807 319.868 602.83 319.707C602.876 319.558 602.934 319.448 603.003 319.379H603.21C603.221 319.379 603.365 319.379 603.641 319.379C603.917 319.379 604.227 319.391 604.572 319.414C604.917 319.437 605.153 319.443 605.279 319.431C606.314 319.431 606.883 319.414 606.987 319.379H607.125C607.205 319.46 607.245 319.523 607.245 319.569C607.222 319.857 607.153 320.058 607.038 320.173H606.762C606.371 320.184 606.021 320.236 605.71 320.328C605.4 320.42 605.164 320.518 605.003 320.621C604.842 320.725 604.704 320.828 604.589 320.932L604.4 321.087C604.4 321.075 603.854 321.673 602.761 322.88L601.261 324.536C601.261 324.547 601.439 325.007 601.795 325.916C602.152 326.824 602.526 327.755 602.916 328.71C603.307 329.664 603.52 330.158 603.555 330.193C603.67 330.296 604.02 330.354 604.607 330.365C605.009 330.365 605.21 330.417 605.21 330.52C605.21 330.543 605.199 330.624 605.176 330.762C605.13 330.946 605.089 331.055 605.055 331.089C605.02 331.124 604.94 331.141 604.814 331.141C604.779 331.141 604.589 331.141 604.244 331.141C603.9 331.141 603.388 331.135 602.71 331.124C602.008 331.124 601.474 331.124 601.106 331.124C600.738 331.124 600.537 331.13 600.502 331.141C600.307 331.141 600.209 331.089 600.209 330.986C600.209 330.975 600.22 330.888 600.243 330.727C600.266 330.612 600.289 330.532 600.312 330.486C600.335 330.44 600.364 330.411 600.399 330.4C600.433 330.388 600.485 330.377 600.554 330.365C600.623 330.354 600.715 330.348 600.83 330.348C600.945 330.348 601.094 330.308 601.278 330.227C601.474 330.135 601.571 330.078 601.571 330.055C601.56 330.055 601.29 329.382 600.761 328.037L599.95 326.002C597.789 328.347 596.679 329.583 596.622 329.71C596.576 329.802 596.553 329.871 596.553 329.917C596.553 330.135 596.719 330.279 597.053 330.348C597.064 330.348 597.099 330.348 597.156 330.348C597.214 330.348 597.248 330.354 597.26 330.365C597.294 330.365 597.317 330.365 597.329 330.365C597.34 330.365 597.358 330.371 597.38 330.382C597.403 330.394 597.421 330.411 597.432 330.434C597.444 330.457 597.449 330.497 597.449 330.555C597.449 330.658 597.438 330.75 597.415 330.831C597.38 330.98 597.346 331.066 597.312 331.089C597.277 331.112 597.191 331.13 597.053 331.141C597.018 331.141 596.915 331.141 596.742 331.141C596.57 331.141 596.328 331.135 596.018 331.124C595.708 331.112 595.368 331.112 595.001 331.124C594.104 331.124 593.529 331.135 593.276 331.158Z" fill="black"/>
<path d="M607.112 330.246C607.12 330.222 607.128 330.189 607.136 330.148C607.144 330.108 607.165 330.018 607.197 329.88C607.23 329.742 607.27 329.616 607.319 329.502C607.368 329.388 607.429 329.254 607.502 329.1C607.575 328.945 607.656 328.823 607.746 328.734C607.835 328.645 607.941 328.555 608.063 328.466C608.185 328.376 608.319 328.34 608.465 328.356C609.075 328.356 609.465 328.616 609.636 329.136L609.758 329.027C610.262 328.58 610.741 328.356 611.196 328.356C611.725 328.356 612.139 328.547 612.44 328.929C612.741 329.311 612.891 329.775 612.891 330.319C612.891 331.197 612.582 332.006 611.965 332.746C611.347 333.485 610.648 333.859 609.867 333.867C609.689 333.867 609.53 333.843 609.392 333.794C609.302 333.754 609.209 333.693 609.111 333.611C609.014 333.53 608.937 333.461 608.88 333.404L608.794 333.306C608.786 333.315 608.697 333.668 608.526 334.367C608.355 335.066 608.27 335.42 608.27 335.428C608.27 335.477 608.303 335.505 608.368 335.513C608.433 335.521 608.583 335.534 608.819 335.55H609.124C609.172 335.607 609.197 335.643 609.197 335.66C609.197 335.676 609.185 335.749 609.16 335.879C609.136 335.977 609.111 336.038 609.087 336.062C609.063 336.086 609.01 336.103 608.929 336.111C608.912 336.111 608.868 336.111 608.794 336.111C608.721 336.111 608.583 336.107 608.38 336.099C608.177 336.09 607.925 336.086 607.624 336.086C607.055 336.086 606.693 336.095 606.539 336.111H606.441C606.384 336.054 606.356 336.009 606.356 335.977C606.372 335.757 606.425 335.615 606.514 335.55H606.758C607.035 335.542 607.193 335.493 607.234 335.404C607.258 335.355 607.506 334.383 607.977 332.49C608.449 330.596 608.697 329.592 608.721 329.478C608.729 329.437 608.733 329.38 608.733 329.307C608.733 328.974 608.632 328.807 608.429 328.807C608.25 328.807 608.099 328.921 607.977 329.149C607.856 329.376 607.762 329.624 607.697 329.892C607.632 330.161 607.583 330.307 607.551 330.331C607.534 330.348 607.469 330.356 607.356 330.356H607.185C607.136 330.307 607.112 330.27 607.112 330.246ZM609.002 332.502C609.181 333.119 609.481 333.428 609.904 333.428C610.148 333.428 610.384 333.335 610.611 333.148C610.839 332.961 611.026 332.725 611.172 332.441C611.318 332.164 611.465 331.725 611.611 331.124C611.757 330.522 611.835 330.075 611.843 329.783V329.71C611.843 329.108 611.595 328.807 611.099 328.807C611.009 328.807 610.92 328.819 610.831 328.844C610.741 328.868 610.652 328.905 610.562 328.954C610.473 329.002 610.392 329.055 610.319 329.112C610.245 329.169 610.176 329.23 610.111 329.295C610.046 329.36 609.985 329.421 609.928 329.478C609.871 329.535 609.827 329.592 609.794 329.649C609.762 329.705 609.729 329.746 609.697 329.77L609.66 329.819C609.66 329.827 609.648 329.884 609.624 329.99C609.599 330.096 609.554 330.274 609.489 330.526C609.424 330.778 609.367 330.99 609.319 331.16C609.107 332.022 609.002 332.469 609.002 332.502Z" fill="black"/>
<path d="M620.068 326.847C620.068 325.444 620.539 324.295 621.482 323.398C622.425 322.501 623.54 321.989 624.828 321.863C624.839 321.863 624.937 321.863 625.121 321.863C625.305 321.863 625.546 321.857 625.845 321.846C626.144 321.834 626.431 321.834 626.707 321.846H628.415C628.587 321.938 628.673 322.053 628.673 322.191C628.673 322.294 628.599 322.403 628.449 322.518L626.656 322.535C625.379 322.547 624.592 322.581 624.293 322.639C623.73 322.777 623.229 322.984 622.793 323.26C622.356 323.536 622.016 323.817 621.775 324.105C621.534 324.392 621.327 324.708 621.154 325.053C620.982 325.398 620.878 325.674 620.844 325.881C620.809 326.088 620.781 326.284 620.758 326.468V326.502H628.415C628.587 326.594 628.673 326.709 628.673 326.847C628.673 326.985 628.587 327.1 628.415 327.192H620.758V327.226C620.758 327.468 620.815 327.761 620.93 328.106C621.045 328.451 621.235 328.825 621.499 329.227C621.764 329.629 622.131 329.997 622.603 330.331C623.074 330.664 623.632 330.9 624.276 331.038C624.586 331.107 625.379 331.147 626.656 331.158H628.449C628.599 331.273 628.673 331.388 628.673 331.503C628.673 331.641 628.587 331.756 628.415 331.848H626.742C626.661 331.848 626.518 331.848 626.311 331.848C626.104 331.848 625.937 331.854 625.811 331.866C624.029 331.866 622.62 331.371 621.585 330.382C620.574 329.44 620.068 328.261 620.068 326.847Z" fill="black"/>
<path d="M635.601 323.622C635.383 323.622 635.274 323.576 635.274 323.484C635.274 323.426 635.366 323.105 635.549 322.518C635.733 321.932 635.929 321.351 636.136 320.776L636.429 319.931C636.486 319.724 636.561 319.575 636.653 319.483H644.724H646.277C646.644 319.483 646.863 319.489 646.932 319.5C647.001 319.512 647.041 319.563 647.053 319.655C647.053 319.724 646.955 320.38 646.759 321.621C646.564 322.863 646.455 323.49 646.432 323.501C646.432 323.582 646.322 323.622 646.104 323.622C646.001 323.622 645.932 323.622 645.897 323.622C645.863 323.622 645.828 323.593 645.794 323.536L645.759 323.484C645.759 323.415 645.794 323.156 645.863 322.708C645.932 322.26 645.966 321.909 645.966 321.656C645.966 321.253 645.891 320.949 645.742 320.742C645.592 320.535 645.276 320.391 644.793 320.311C644.736 320.299 644.402 320.288 643.793 320.276C643.264 320.276 642.931 320.282 642.793 320.293C642.655 320.305 642.551 320.351 642.482 320.431C642.471 320.443 642.063 322.047 641.258 325.243C640.453 328.439 640.051 330.066 640.051 330.124C640.051 330.262 640.557 330.342 641.568 330.365C641.936 330.365 642.172 330.371 642.275 330.382C642.379 330.394 642.431 330.446 642.431 330.538C642.431 330.595 642.413 330.676 642.379 330.779C642.333 330.986 642.281 331.107 642.224 331.141L642.189 331.158C642.155 331.158 642.114 331.158 642.068 331.158C642.011 331.158 641.712 331.153 641.172 331.141C640.631 331.13 639.855 331.124 638.843 331.124C637.36 331.124 636.418 331.135 636.015 331.158H635.756C635.687 331.089 635.653 331.038 635.653 331.003C635.653 330.969 635.664 330.865 635.687 330.693C635.733 330.543 635.791 330.434 635.86 330.365H636.343H636.532C637.452 330.365 637.998 330.313 638.171 330.21C638.182 330.198 638.194 330.193 638.205 330.193C638.263 330.158 638.32 330.043 638.378 329.848C638.435 329.652 638.665 328.75 639.068 327.14C639.263 326.358 639.424 325.72 639.551 325.226C640.355 322.064 640.758 320.449 640.758 320.38C640.758 320.322 640.591 320.293 640.258 320.293H639.723C638.953 320.293 638.447 320.328 638.205 320.397C637.688 320.512 637.286 320.748 636.998 321.104C636.711 321.46 636.4 322.127 636.067 323.105C635.986 323.358 635.929 323.507 635.894 323.553C635.86 323.599 635.779 323.622 635.653 323.622H635.601Z" fill="black"/>
<path d="M645.263 330.246C645.272 330.222 645.28 330.189 645.288 330.148C645.296 330.108 645.316 330.018 645.349 329.88C645.381 329.742 645.422 329.616 645.471 329.502C645.52 329.388 645.581 329.254 645.654 329.1C645.727 328.945 645.808 328.823 645.898 328.734C645.987 328.645 646.093 328.555 646.215 328.466C646.336 328.376 646.471 328.34 646.617 328.356C647.227 328.356 647.617 328.616 647.787 329.136L647.909 329.027C648.413 328.58 648.893 328.356 649.348 328.356C649.876 328.356 650.291 328.547 650.592 328.929C650.893 329.311 651.043 329.775 651.043 330.319C651.043 331.197 650.734 332.006 650.116 332.746C649.499 333.485 648.799 333.859 648.019 333.867C647.84 333.867 647.682 333.843 647.544 333.794C647.454 333.754 647.361 333.693 647.263 333.611C647.166 333.53 647.088 333.461 647.031 333.404L646.946 333.306C646.938 333.315 646.849 333.668 646.678 334.367C646.507 335.066 646.422 335.42 646.422 335.428C646.422 335.477 646.454 335.505 646.519 335.513C646.584 335.521 646.735 335.534 646.971 335.55H647.275C647.324 335.607 647.348 335.643 647.348 335.66C647.348 335.676 647.336 335.749 647.312 335.879C647.288 335.977 647.263 336.038 647.239 336.062C647.214 336.086 647.162 336.103 647.08 336.111C647.064 336.111 647.019 336.111 646.946 336.111C646.873 336.111 646.735 336.107 646.532 336.099C646.328 336.09 646.076 336.086 645.776 336.086C645.207 336.086 644.845 336.095 644.69 336.111H644.593C644.536 336.054 644.508 336.009 644.508 335.977C644.524 335.757 644.577 335.615 644.666 335.55H644.91C645.186 335.542 645.345 335.493 645.385 335.404C645.41 335.355 645.658 334.383 646.129 332.49C646.601 330.596 646.849 329.592 646.873 329.478C646.881 329.437 646.885 329.38 646.885 329.307C646.885 328.974 646.784 328.807 646.58 328.807C646.402 328.807 646.251 328.921 646.129 329.149C646.007 329.376 645.914 329.624 645.849 329.892C645.784 330.161 645.735 330.307 645.702 330.331C645.686 330.348 645.621 330.356 645.507 330.356H645.337C645.288 330.307 645.263 330.27 645.263 330.246ZM647.153 332.502C647.332 333.119 647.633 333.428 648.056 333.428C648.3 333.428 648.535 333.335 648.763 333.148C648.99 332.961 649.177 332.725 649.324 332.441C649.47 332.164 649.616 331.725 649.763 331.124C649.909 330.522 649.986 330.075 649.994 329.783V329.71C649.994 329.108 649.746 328.807 649.251 328.807C649.161 328.807 649.072 328.819 648.982 328.844C648.893 328.868 648.804 328.905 648.714 328.954C648.625 329.002 648.543 329.055 648.47 329.112C648.397 329.169 648.328 329.23 648.263 329.295C648.198 329.36 648.137 329.421 648.08 329.478C648.023 329.535 647.978 329.592 647.946 329.649C647.913 329.705 647.881 329.746 647.848 329.77L647.812 329.819C647.812 329.827 647.8 329.884 647.775 329.99C647.751 330.096 647.706 330.274 647.641 330.526C647.576 330.778 647.519 330.99 647.47 331.16C647.259 332.022 647.153 332.469 647.153 332.502Z" fill="black"/>
<path d="M657.292 330.745C657.97 330.745 658.591 330.446 659.154 329.848C659.717 329.25 660.005 328.554 660.016 327.761C660.016 327.037 659.717 326.537 659.12 326.261C657.901 325.95 657.119 325.737 656.774 325.622C656.429 325.508 656.188 325.393 656.05 325.278C655.36 324.795 655.015 324.099 655.015 323.191C655.015 322.489 655.199 321.851 655.567 321.276C655.935 320.702 656.309 320.27 656.688 319.983C657.021 319.696 657.424 319.466 657.895 319.293C658.367 319.121 658.734 319.029 658.999 319.017H659.189H659.309C660.413 319.017 661.212 319.385 661.707 320.121C661.718 320.121 661.793 320.046 661.931 319.897C662.069 319.747 662.218 319.581 662.379 319.397C662.54 319.213 662.655 319.086 662.724 319.017C662.736 319.017 662.759 319.017 662.793 319.017C662.828 319.017 662.856 319.011 662.879 319C663.029 319 663.103 319.04 663.103 319.121C663.103 319.201 662.943 319.897 662.621 321.207C662.299 322.518 662.115 323.197 662.069 323.243C662.023 323.289 661.931 323.306 661.793 323.294C661.563 323.294 661.448 323.243 661.448 323.139C661.448 323.07 661.454 323.013 661.465 322.967C661.465 322.932 661.471 322.823 661.482 322.639C661.494 322.455 661.505 322.305 661.517 322.191C661.517 321.8 661.465 321.46 661.362 321.173C661.258 320.886 661.155 320.673 661.051 320.535C660.948 320.397 660.804 320.253 660.62 320.104C660.206 319.862 659.735 319.742 659.206 319.742C658.551 319.742 657.941 320.006 657.378 320.535C656.814 321.064 656.527 321.673 656.515 322.363C656.515 322.708 656.602 323.007 656.774 323.26C656.947 323.513 657.182 323.691 657.481 323.794C657.527 323.817 657.93 323.927 658.688 324.122C659.447 324.318 659.832 324.421 659.844 324.433C660.235 324.559 660.614 324.835 660.982 325.26C661.35 325.686 661.534 326.261 661.534 326.985C661.534 327.284 661.488 327.606 661.396 327.951C661.339 328.204 661.235 328.485 661.086 328.796C660.936 329.106 660.729 329.445 660.465 329.813C660.2 330.181 659.821 330.526 659.327 330.848C658.832 331.17 658.292 331.388 657.705 331.503C657.567 331.526 657.372 331.538 657.119 331.538C655.981 331.538 655.096 331.222 654.463 330.589L654.291 330.4L653.808 330.934C653.543 331.245 653.382 331.423 653.325 331.469C653.267 331.515 653.193 331.538 653.101 331.538C652.951 331.538 652.877 331.492 652.877 331.4C652.877 331.365 653.21 330.014 653.877 327.347C653.9 327.278 654.015 327.244 654.222 327.244H654.446C654.515 327.313 654.549 327.376 654.549 327.433C654.549 327.456 654.544 327.508 654.532 327.589C654.521 327.669 654.498 327.79 654.463 327.951C654.429 328.112 654.417 328.301 654.429 328.52C654.452 328.968 654.555 329.348 654.739 329.658C654.923 329.968 655.17 330.198 655.481 330.348C655.791 330.497 656.09 330.601 656.378 330.658C656.665 330.716 656.97 330.745 657.292 330.745Z" fill="black"/>
</svg>
