<svg width="1756" height="438" viewBox="0 0 1756 438" fill="none" xmlns="http://www.w3.org/2000/svg">
<path d="M277.406 245.029C178.257 250.597 127.007 260.117 127.007 221.953C132.284 186.451 267.262 132.729 392.624 142.074C490.269 149.354 644.609 205.09 649.007 233.491C644.615 274.074 588.759 245.029 501.686 285.856C414.613 326.682 331.874 241.97 277.406 245.029Z" fill="#DFDFDF" fill-opacity="0.5" stroke="black"/>
<path d="M295.42 277.999C295.386 278.049 295.269 279.067 295.067 281.051C294.865 283.035 294.747 284.061 294.714 284.129V284.229H287.474C283.774 284.229 281.621 284.229 281.016 284.229C280.411 284.229 280.091 284.187 280.057 284.103V284.078C280.007 283.977 280.007 283.885 280.057 283.801L280.461 283.321C280.73 283.019 281.134 282.565 281.672 281.959C282.21 281.354 282.723 280.774 283.211 280.219L286.313 276.687L280.032 267.984L280.007 267.631C280.007 267.311 280.049 267.118 280.133 267.05C280.183 267.017 282.63 267 287.474 267H294.714V267.101C294.747 267.185 294.865 268.152 295.067 270.002C295.269 271.852 295.386 272.836 295.42 272.953V273.054H294.411V272.953C294.276 271.978 294.092 271.171 293.856 270.532C293.621 269.893 293.242 269.371 292.721 268.968C292.216 268.614 291.535 268.396 290.678 268.312C289.82 268.228 288.601 268.177 287.02 268.16H286.036H283.387L286.011 271.768C286.364 272.255 286.801 272.861 287.322 273.584C288.247 274.862 288.71 275.552 288.71 275.653C288.71 275.686 288.702 275.711 288.685 275.728L282.504 282.792C286.759 282.792 289.063 282.783 289.416 282.766C290.223 282.733 290.896 282.649 291.434 282.514C291.973 282.38 292.334 282.253 292.519 282.136C292.704 282.018 292.906 281.85 293.125 281.631C293.461 281.261 293.738 280.765 293.957 280.143C294.176 279.521 294.31 278.991 294.361 278.554L294.411 277.898H295.42V277.999Z" fill="black"/>
<path d="M349.269 194.033C348.66 194.033 348.338 193.998 348.302 193.926C348.284 193.89 348.275 193.819 348.275 193.711C348.275 193.282 348.374 192.986 348.571 192.825C348.606 192.807 348.759 192.799 349.027 192.799C349.761 192.834 350.978 192.852 352.678 192.852C353.286 192.852 353.85 192.852 354.369 192.852C354.888 192.852 355.29 192.843 355.577 192.825C355.863 192.807 356.042 192.807 356.113 192.825C356.4 192.825 356.543 192.915 356.543 193.094C356.543 193.13 356.525 193.255 356.489 193.47C356.4 193.774 356.31 193.953 356.221 194.006H356.167C356.131 194.006 356.087 194.006 356.033 194.006C355.979 194.006 355.917 194.006 355.845 194.006C355.773 194.006 355.693 194.015 355.603 194.033C355.514 194.051 355.433 194.051 355.362 194.033C354.664 194.051 354.217 194.078 354.02 194.114C353.823 194.15 353.662 194.248 353.537 194.409C353.519 194.445 353.268 195.384 352.785 197.228C352.302 199.071 351.819 201.004 351.335 203.026C350.852 205.048 350.584 206.238 350.53 206.596C350.494 206.846 350.476 207.106 350.476 207.374C350.476 208.341 350.754 209.101 351.309 209.656C351.863 210.211 352.633 210.488 353.617 210.488C354.816 210.488 356.015 210.085 357.214 209.28C358.413 208.475 359.29 207.258 359.845 205.629L361.214 200.234C362.055 196.798 362.475 195.009 362.475 194.865C362.475 194.382 361.903 194.105 360.757 194.033C360.328 194.033 360.113 193.935 360.113 193.738C360.113 193.702 360.131 193.595 360.167 193.416C360.238 193.13 360.292 192.96 360.328 192.906C360.364 192.852 360.453 192.816 360.596 192.799C360.65 192.799 360.936 192.807 361.455 192.825C361.974 192.843 362.726 192.861 363.71 192.879C364.623 192.879 365.321 192.87 365.804 192.852C366.287 192.834 366.546 192.825 366.582 192.825C366.851 192.825 366.985 192.915 366.985 193.094C366.985 193.487 366.913 193.756 366.77 193.899C366.716 193.989 366.52 194.033 366.18 194.033C364.909 194.105 364.113 194.463 363.791 195.107C363.755 195.196 363.307 196.923 362.448 200.288C361.715 203.312 361.267 205.093 361.106 205.629C360.516 207.419 359.487 208.877 358.019 210.005C356.552 211.132 355.031 211.705 353.456 211.723C351.81 211.723 350.494 211.222 349.51 210.22C348.526 209.217 348.025 208.027 348.007 206.649V206.22C348.007 205.898 348.499 203.768 349.483 199.831C350.36 196.234 350.799 194.382 350.799 194.275C350.799 194.15 350.289 194.069 349.269 194.033Z" fill="black"/>
<path d="M370.632 214.343C370.442 214.507 370.164 214.684 369.797 214.874C369.43 215.064 369.044 215.159 368.64 215.159C367.842 215.159 367.204 214.874 366.723 214.305C366.242 213.735 365.995 213.008 365.983 212.122C365.983 210.794 366.47 209.573 367.444 208.459C368.418 207.346 369.5 206.783 370.689 206.77C371.284 206.77 371.834 207.074 372.34 207.681L372.397 207.605C372.422 207.568 372.454 207.53 372.492 207.492C372.53 207.454 372.587 207.403 372.663 207.34C372.739 207.277 372.821 207.232 372.91 207.207C372.998 207.182 373.099 207.163 373.213 207.15C373.39 207.15 373.536 207.207 373.65 207.321C373.764 207.435 373.827 207.555 373.84 207.681C373.84 207.871 373.479 209.402 372.758 212.274C372.037 215.146 371.657 216.614 371.619 216.677C371.391 217.36 370.904 217.923 370.158 218.366C369.411 218.809 368.557 219.037 367.596 219.049C365.812 219.049 364.92 218.619 364.92 217.759C364.92 217.43 365.034 217.139 365.261 216.886C365.489 216.633 365.78 216.506 366.134 216.506C366.324 216.506 366.501 216.563 366.666 216.677C366.83 216.791 366.919 216.987 366.932 217.265C366.932 217.392 366.919 217.512 366.894 217.626C366.868 217.74 366.824 217.828 366.761 217.892C366.697 217.955 366.647 218.018 366.609 218.081C366.571 218.145 366.527 218.195 366.476 218.233L366.438 218.271H366.457C366.584 218.309 366.963 218.328 367.596 218.328C368.077 218.328 368.456 218.252 368.734 218.1C369.025 217.961 369.297 217.752 369.55 217.474C369.804 217.196 369.981 216.898 370.082 216.582C370.158 216.342 370.259 215.949 370.386 215.405C370.55 214.798 370.632 214.444 370.632 214.343ZM372.018 208.934L371.942 208.725C371.904 208.586 371.872 208.491 371.847 208.441C371.822 208.39 371.784 208.301 371.733 208.175C371.682 208.048 371.619 207.96 371.543 207.909C371.467 207.859 371.385 207.789 371.296 207.7C371.208 207.612 371.094 207.555 370.955 207.53C370.816 207.504 370.677 207.485 370.537 207.473C369.981 207.473 369.443 207.808 368.924 208.478C368.545 208.972 368.228 209.725 367.975 210.737C367.722 211.749 367.596 212.483 367.596 212.938C367.596 213.938 367.988 214.438 368.772 214.438C369.481 214.438 370.177 213.995 370.86 213.109L371.012 212.919L372.018 208.934Z" fill="black"/>
<path d="M377.65 204.422C377.65 203.187 377.739 202.015 377.918 200.905C378.097 199.796 378.303 198.838 378.535 198.033C378.768 197.228 379.099 196.44 379.529 195.671C379.958 194.901 380.298 194.302 380.549 193.872C380.799 193.443 381.175 192.977 381.676 192.476C382.177 191.975 382.472 191.671 382.562 191.564C382.651 191.456 382.875 191.268 383.233 191H383.582H383.689C383.94 191 384.065 191.081 384.065 191.242C384.065 191.295 383.913 191.483 383.609 191.805C383.305 192.127 382.938 192.602 382.508 193.228C382.079 193.854 381.64 194.624 381.193 195.537C380.745 196.449 380.37 197.684 380.065 199.241C379.761 200.798 379.609 202.525 379.609 204.422C379.609 206.318 379.761 208.036 380.065 209.575C380.37 211.114 380.737 212.358 381.166 213.307C381.596 214.255 382.034 215.025 382.481 215.615C382.929 216.206 383.305 216.68 383.609 217.038C383.913 217.396 384.065 217.584 384.065 217.601C384.065 217.762 383.931 217.843 383.662 217.843H383.582H383.233L382.481 217.199C380.799 215.678 379.573 213.781 378.804 211.508C378.034 209.235 377.65 206.873 377.65 204.422Z" fill="black"/>
<path d="M403.446 204.502C403.41 204.556 403.285 205.638 403.07 207.75C402.855 209.862 402.73 210.953 402.694 211.025V211.132H394.99C391.053 211.132 388.763 211.132 388.118 211.132C387.474 211.132 387.134 211.088 387.098 210.998V210.971C387.045 210.864 387.045 210.765 387.098 210.676L387.528 210.166C387.814 209.844 388.244 209.361 388.816 208.716C389.389 208.072 389.935 207.455 390.454 206.864L393.755 203.106L387.071 193.845L387.045 193.47C387.045 193.13 387.089 192.924 387.179 192.852C387.233 192.816 389.836 192.799 394.99 192.799H402.694V192.906C402.73 192.995 402.855 194.024 403.07 195.993C403.285 197.961 403.41 199.008 403.446 199.133V199.241H402.372V199.133C402.229 198.096 402.032 197.237 401.781 196.557C401.531 195.877 401.128 195.322 400.573 194.892C400.037 194.516 399.312 194.284 398.399 194.194C397.487 194.105 396.189 194.051 394.507 194.033H393.46H390.642L393.433 197.872C393.809 198.391 394.274 199.035 394.829 199.805C395.813 201.165 396.305 201.898 396.305 202.006C396.305 202.041 396.296 202.068 396.279 202.086L389.702 209.602C394.23 209.602 396.681 209.593 397.057 209.575C397.916 209.54 398.632 209.45 399.204 209.307C399.777 209.164 400.162 209.03 400.359 208.904C400.556 208.779 400.77 208.6 401.003 208.367C401.361 207.974 401.656 207.446 401.889 206.784C402.121 206.122 402.265 205.558 402.318 205.093L402.372 204.395H403.446V204.502Z" fill="black"/>
<path d="M406.559 191.027L406.667 191C406.756 191 406.846 191 406.935 191H407.257L408.009 191.644C409.691 193.165 410.917 195.062 411.686 197.335C412.456 199.608 412.841 201.97 412.841 204.422C412.841 205.638 412.751 206.811 412.572 207.938C412.393 209.065 412.188 210.023 411.955 210.81C411.722 211.598 411.391 212.385 410.962 213.172C410.532 213.96 410.192 214.559 409.942 214.971C409.691 215.382 409.324 215.839 408.841 216.34C408.358 216.841 408.072 217.136 407.982 217.226C407.893 217.315 407.687 217.485 407.365 217.736C407.311 217.789 407.275 217.825 407.257 217.843H406.935C406.792 217.843 406.694 217.843 406.64 217.843C406.586 217.843 406.542 217.816 406.506 217.762C406.47 217.709 406.443 217.628 406.425 217.521C406.443 217.503 406.542 217.387 406.721 217.172C409.494 214.291 410.881 210.041 410.881 204.422C410.881 198.802 409.494 194.552 406.721 191.671C406.542 191.456 406.443 191.34 406.425 191.322C406.425 191.179 406.47 191.081 406.559 191.027Z" fill="black"/>
<path d="M600.007 224C600.007 196.386 622.393 174 650.007 174C677.621 174 700.007 196.386 700.007 224C700.007 251.614 677.621 274 650.007 274C635.865 274 623.095 268.129 614 258.692" stroke="black"/>
<ellipse cx="600.007" cy="225" rx="3" ry="1" fill="#4F93A6" fill-opacity="0.8"/>
<path d="M600.007 224C600.007 230.503 600.007 243.5 614.5 259" stroke="black" stroke-dasharray="2 2"/>
<path d="M604.653 279.26C604.222 279.26 604.007 279.178 604.007 279.014C604.007 278.703 604.168 278.283 604.491 277.753C604.814 277.224 605.245 276.667 605.783 276.082C606.321 275.498 607 275.014 607.818 274.63C608.636 274.247 609.465 274.037 610.305 274C610.886 274 611.241 274.009 611.371 274.027C612.404 274.228 613.255 274.721 613.922 275.507C614.589 276.292 615.16 277.489 615.634 279.096C615.935 280.192 616.086 280.968 616.086 281.425C616.086 281.498 616.097 281.534 616.118 281.534L616.506 280.795C616.936 279.863 617.421 278.886 617.959 277.863C618.497 276.84 618.96 276.009 619.348 275.37C619.735 274.731 619.972 274.374 620.058 274.301C620.101 274.283 620.274 274.274 620.575 274.274H620.995C621.124 274.384 621.189 274.466 621.189 274.521C621.189 274.594 620.963 274.995 620.51 275.726C620.058 276.457 619.423 277.616 618.605 279.205C617.787 280.795 617.012 282.438 616.28 284.137C616.15 284.429 616.01 285.023 615.86 285.918C615.709 286.813 615.483 287.781 615.182 288.822C614.837 290.009 614.546 290.831 614.31 291.288C614.073 291.744 613.782 291.982 613.438 292C613.071 292 612.888 291.744 612.888 291.233C612.888 290.32 613.47 288.31 614.632 285.205L614.826 284.685L614.859 284.192C614.88 284.009 614.891 283.726 614.891 283.342C614.891 280.475 614.277 278.493 613.05 277.397C612.189 276.703 611.166 276.356 609.982 276.356C608.948 276.356 608.001 276.594 607.14 277.068C606.278 277.543 605.665 278.174 605.299 278.959C605.256 279.123 605.213 279.205 605.17 279.205C605.127 279.242 604.954 279.26 604.653 279.26Z" fill="black"/>
<path d="M640.01 146.915C640.277 146.915 640.753 146.924 641.439 146.943C642.125 146.962 642.763 146.981 643.354 147.001C644.325 147.001 645.135 146.991 645.783 146.972C646.431 146.953 646.802 146.943 646.897 146.943C647.24 146.943 647.412 147.02 647.412 147.172C647.412 147.248 647.383 147.391 647.326 147.601C647.231 147.944 647.145 148.134 647.069 148.172C646.993 148.21 646.783 148.229 646.44 148.229C645.964 148.248 645.583 148.296 645.297 148.372C645.011 148.449 644.811 148.525 644.697 148.601C644.582 148.677 644.554 148.763 644.611 148.858C644.611 149.087 644.763 151.354 645.068 155.66C645.373 159.966 645.526 162.243 645.526 162.49L645.583 162.405C645.621 162.347 645.678 162.252 645.754 162.119C645.83 161.985 645.945 161.804 646.097 161.576C646.25 161.347 646.411 161.061 646.583 160.718C646.754 160.375 646.983 159.985 647.269 159.547C647.555 159.108 647.84 158.594 648.126 158.003C648.412 157.413 648.784 156.775 649.241 156.089C651.222 152.583 652.346 150.582 652.613 150.087C652.88 149.592 653.023 149.287 653.042 149.173C653.042 148.887 652.861 148.658 652.499 148.487C652.137 148.315 651.737 148.229 651.298 148.229C651.032 148.229 650.898 148.134 650.898 147.944C650.898 147.886 650.917 147.763 650.956 147.572C651.032 147.267 651.089 147.086 651.127 147.029C651.165 146.972 651.298 146.943 651.527 146.943C651.584 146.943 651.746 146.943 652.013 146.943C652.28 146.943 652.651 146.943 653.128 146.943C653.604 146.943 654.118 146.953 654.671 146.972C655.928 146.972 656.738 146.953 657.1 146.915C657.367 146.915 657.5 147.02 657.5 147.229C657.5 147.343 657.472 147.505 657.414 147.715C657.357 147.925 657.291 148.067 657.214 148.144C657.138 148.22 657.043 148.248 656.929 148.229C656.509 148.229 656.128 148.287 655.785 148.401C655.442 148.515 655.157 148.649 654.928 148.801C654.699 148.953 654.518 149.115 654.385 149.287C654.252 149.458 654.137 149.611 654.042 149.744L653.928 149.916L649.098 158.375C645.897 164.015 644.287 166.844 644.268 166.863C644.154 166.996 643.925 167.063 643.582 167.063C643.296 167.063 643.115 167.015 643.039 166.92C642.982 166.863 642.801 164.519 642.496 159.89C642.191 155.26 642.029 152.869 642.01 152.716L641.667 153.231C641.248 153.936 640.029 156.06 638.009 159.604C635.266 164.405 633.875 166.825 633.837 166.863C633.799 166.901 633.751 166.939 633.694 166.977C633.599 167.034 633.427 167.063 633.179 167.063C632.817 167.063 632.617 166.996 632.579 166.863C632.579 166.806 632.37 163.767 631.951 157.746C631.531 151.726 631.312 148.696 631.293 148.658C631.255 148.487 631.16 148.382 631.007 148.344C630.855 148.306 630.483 148.268 629.893 148.229H629.207C629.074 148.096 629.007 147.991 629.007 147.915C629.026 147.477 629.15 147.143 629.378 146.915H629.721C630.522 146.972 631.474 147.001 632.579 147.001C634.961 147.001 636.266 146.972 636.495 146.915H636.78C636.895 147.029 636.952 147.115 636.952 147.172C636.952 147.229 636.933 147.401 636.895 147.686C636.799 147.972 636.714 148.153 636.637 148.229H636.037C634.875 148.287 634.256 148.449 634.18 148.715C634.751 157.479 635.075 162.09 635.151 162.547L641.867 150.716L641.81 149.658C641.753 148.858 641.658 148.429 641.524 148.372C641.41 148.296 641.01 148.248 640.324 148.229C639.962 148.229 639.724 148.21 639.61 148.172C639.495 148.134 639.438 148.048 639.438 147.915C639.438 147.877 639.457 147.763 639.495 147.572C639.514 147.496 639.533 147.41 639.553 147.315C639.572 147.22 639.581 147.153 639.581 147.115C639.581 147.077 639.61 147.039 639.667 147.001C639.724 146.962 639.762 146.943 639.781 146.943C639.8 146.943 639.876 146.934 640.01 146.915Z" fill="black"/>
<path d="M660.187 159.289C660.187 157.975 660.282 156.727 660.472 155.546C660.663 154.364 660.882 153.345 661.13 152.488C661.377 151.63 661.73 150.792 662.187 149.973C662.644 149.153 663.006 148.515 663.273 148.058C663.54 147.601 663.94 147.105 664.473 146.572C665.007 146.038 665.321 145.714 665.416 145.6C665.512 145.486 665.75 145.286 666.131 145H666.502H666.617C666.884 145 667.017 145.086 667.017 145.257C667.017 145.314 666.855 145.514 666.531 145.857C666.207 146.2 665.817 146.705 665.359 147.372C664.902 148.039 664.435 148.858 663.959 149.83C663.483 150.802 663.083 152.116 662.759 153.774C662.435 155.431 662.273 157.27 662.273 159.289C662.273 161.309 662.435 163.138 662.759 164.777C663.083 166.415 663.473 167.739 663.93 168.749C664.388 169.759 664.854 170.578 665.331 171.207C665.807 171.836 666.207 172.34 666.531 172.722C666.855 173.103 667.017 173.303 667.017 173.322C667.017 173.493 666.874 173.579 666.588 173.579H666.502H666.131L665.331 172.893C663.54 171.274 662.235 169.254 661.415 166.834C660.596 164.415 660.187 161.9 660.187 159.289Z" fill="black"/>
<path d="M669.503 159.318C669.122 159.318 668.932 159.232 668.932 159.061C668.932 158.737 669.075 158.299 669.36 157.746C669.646 157.194 670.027 156.613 670.503 156.003C670.98 155.393 671.58 154.888 672.304 154.488C673.028 154.088 673.761 153.869 674.505 153.831C675.019 153.831 675.333 153.84 675.448 153.859C676.362 154.069 677.115 154.583 677.705 155.403C678.296 156.222 678.801 157.47 679.22 159.147C679.487 160.29 679.62 161.099 679.62 161.576C679.62 161.652 679.63 161.69 679.649 161.69L679.992 160.918C680.373 159.947 680.801 158.927 681.278 157.861C681.754 156.794 682.164 155.927 682.507 155.26C682.85 154.593 683.059 154.221 683.135 154.145C683.173 154.126 683.326 154.117 683.593 154.117H683.964C684.078 154.231 684.136 154.317 684.136 154.374C684.136 154.45 683.936 154.869 683.535 155.631C683.135 156.393 682.573 157.603 681.849 159.261C681.125 160.918 680.439 162.633 679.792 164.405C679.677 164.71 679.553 165.329 679.42 166.263C679.287 167.196 679.087 168.206 678.82 169.292C678.515 170.531 678.258 171.388 678.048 171.864C677.839 172.341 677.582 172.588 677.277 172.607C676.953 172.607 676.791 172.341 676.791 171.807C676.791 170.854 677.305 168.759 678.334 165.52L678.506 164.977L678.534 164.462C678.553 164.272 678.563 163.976 678.563 163.576C678.563 160.585 678.02 158.518 676.934 157.375C676.172 156.651 675.267 156.289 674.219 156.289C673.304 156.289 672.466 156.536 671.704 157.032C670.942 157.527 670.399 158.184 670.075 159.004C670.037 159.175 669.999 159.261 669.96 159.261C669.922 159.299 669.77 159.318 669.503 159.318Z" fill="black"/>
<path d="M685.136 145.029L685.25 145C685.345 145 685.441 145 685.536 145H685.879L686.679 145.686C688.47 147.305 689.775 149.325 690.594 151.745C691.414 154.164 691.823 156.679 691.823 159.289C691.823 160.585 691.728 161.833 691.538 163.033C691.347 164.234 691.128 165.253 690.88 166.091C690.633 166.93 690.28 167.768 689.823 168.606C689.366 169.445 689.004 170.083 688.737 170.521C688.47 170.959 688.08 171.445 687.565 171.978C687.051 172.512 686.746 172.826 686.651 172.922C686.555 173.017 686.336 173.198 685.993 173.465C685.936 173.522 685.898 173.56 685.879 173.579H685.536C685.384 173.579 685.279 173.579 685.222 173.579C685.164 173.579 685.117 173.55 685.079 173.493C685.041 173.436 685.012 173.35 684.993 173.236C685.012 173.217 685.117 173.093 685.307 172.864C688.261 169.797 689.737 165.272 689.737 159.289C689.737 153.307 688.261 148.782 685.307 145.714C685.117 145.486 685.012 145.362 684.993 145.343C684.993 145.191 685.041 145.086 685.136 145.029Z" fill="black"/>
<circle cx="700.007" cy="225" r="3" fill="black"/>
<path d="M714.927 219.652C715.692 219.652 716.299 219.876 716.747 220.324C717.195 220.772 717.419 221.323 717.419 221.976C717.419 222.349 717.12 223.339 716.523 224.944C715.926 226.549 715.636 227.716 715.655 228.444C715.711 229.228 715.963 229.844 716.411 230.292C716.803 230.628 717.204 230.852 717.615 230.964C717.951 231.113 718.24 231.188 718.483 231.188H718.511L720.807 221.92C722.375 215.741 723.168 212.643 723.187 212.624C723.243 212.587 723.392 212.568 723.635 212.568C724.008 212.568 724.195 212.633 724.195 212.764C724.195 212.932 723.439 216.021 721.927 222.032C720.396 228.155 719.631 231.225 719.631 231.244C719.631 231.263 719.687 231.272 719.799 231.272C721.404 231.272 722.926 230.451 724.363 228.808C725.8 227.165 726.528 225.635 726.547 224.216C726.547 223.768 726.472 223.385 726.323 223.068C726.174 222.751 726.006 222.527 725.819 222.396C725.632 222.265 725.464 222.097 725.315 221.892C725.166 221.687 725.091 221.472 725.091 221.248C725.091 220.856 725.25 220.483 725.567 220.128C725.884 219.773 726.276 219.596 726.743 219.596C727.098 219.596 727.424 219.764 727.723 220.1C728.022 220.436 728.171 220.987 728.171 221.752C728.171 222.293 728.068 223.021 727.863 223.936C727.658 224.851 727.49 225.485 727.359 225.84C726.762 227.613 725.707 229.135 724.195 230.404C722.683 231.673 721.162 232.308 719.631 232.308H719.351L718.707 234.912C718.259 236.667 718.035 237.553 718.035 237.572C717.998 237.684 717.811 237.74 717.475 237.74H717.111C716.999 237.628 716.943 237.553 716.943 237.516C716.943 237.423 717.158 236.536 717.587 234.856C718.016 233.176 718.231 232.308 718.231 232.252C718.1 232.233 717.97 232.224 717.839 232.224C714.871 231.813 713.387 230.441 713.387 228.108C713.387 227.455 713.695 226.288 714.311 224.608C714.927 222.928 715.244 221.855 715.263 221.388C715.263 221.369 715.263 221.351 715.263 221.332C715.263 221.164 715.263 221.052 715.263 220.996C715.263 220.94 715.226 220.875 715.151 220.8C715.076 220.725 714.974 220.688 714.843 220.688H714.731C714.302 220.688 713.91 220.865 713.555 221.22C713.2 221.575 712.92 221.957 712.715 222.368C712.51 222.779 712.351 223.171 712.239 223.544C712.127 223.917 712.052 224.123 712.015 224.16C711.978 224.197 711.828 224.216 711.567 224.216H711.175C711.063 224.104 711.007 224.02 711.007 223.964C711.007 223.74 711.128 223.311 711.371 222.676C711.614 222.041 712.062 221.379 712.715 220.688C713.368 219.997 714.106 219.652 714.927 219.652Z" fill="black"/>
<path d="M731.279 225C731.279 223.712 731.372 222.489 731.559 221.332C731.745 220.175 731.96 219.176 732.203 218.336C732.445 217.496 732.791 216.675 733.239 215.872C733.687 215.069 734.041 214.444 734.303 213.996C734.564 213.548 734.956 213.063 735.479 212.54C736.001 212.017 736.309 211.7 736.403 211.588C736.496 211.476 736.729 211.28 737.103 211H737.467H737.579C737.84 211 737.971 211.084 737.971 211.252C737.971 211.308 737.812 211.504 737.495 211.84C737.177 212.176 736.795 212.671 736.347 213.324C735.899 213.977 735.441 214.78 734.975 215.732C734.508 216.684 734.116 217.972 733.799 219.596C733.481 221.22 733.323 223.021 733.323 225C733.323 226.979 733.481 228.771 733.799 230.376C734.116 231.981 734.499 233.279 734.947 234.268C735.395 235.257 735.852 236.06 736.319 236.676C736.785 237.292 737.177 237.787 737.495 238.16C737.812 238.533 737.971 238.729 737.971 238.748C737.971 238.916 737.831 239 737.551 239H737.467H737.103L736.319 238.328C734.564 236.741 733.285 234.763 732.483 232.392C731.68 230.021 731.279 227.557 731.279 225Z" fill="black"/>
<path d="M740.995 223.908C741.126 223.124 741.63 222.219 742.507 221.192C743.384 220.165 744.467 219.643 745.755 219.624C746.408 219.624 747.006 219.792 747.547 220.128C748.088 220.464 748.49 220.884 748.751 221.388C749.535 220.212 750.478 219.624 751.579 219.624C752.27 219.624 752.867 219.829 753.371 220.24C753.875 220.651 754.136 221.201 754.155 221.892C754.155 222.433 754.024 222.872 753.763 223.208C753.502 223.544 753.25 223.749 753.007 223.824C752.764 223.899 752.55 223.936 752.363 223.936C752.008 223.936 751.719 223.833 751.495 223.628C751.271 223.423 751.159 223.152 751.159 222.816C751.159 221.957 751.626 221.369 752.559 221.052C752.354 220.809 751.98 220.688 751.439 220.688C751.196 220.688 751.019 220.707 750.907 220.744C750.198 221.043 749.675 221.659 749.339 222.592C748.219 226.717 747.659 229.125 747.659 229.816C747.659 230.339 747.808 230.712 748.107 230.936C748.406 231.16 748.732 231.272 749.087 231.272C749.778 231.272 750.459 230.964 751.131 230.348C751.803 229.732 752.26 228.976 752.503 228.08C752.559 227.893 752.615 227.791 752.671 227.772C752.727 227.753 752.876 227.735 753.119 227.716H753.231C753.511 227.716 753.651 227.791 753.651 227.94C753.651 227.959 753.632 228.061 753.595 228.248C753.296 229.312 752.718 230.255 751.859 231.076C751 231.897 750.002 232.308 748.863 232.308C747.556 232.308 746.567 231.72 745.895 230.544C745.13 231.701 744.252 232.28 743.263 232.28H743.095C742.18 232.28 741.527 232.037 741.135 231.552C740.743 231.067 740.538 230.553 740.519 230.012C740.519 229.415 740.696 228.929 741.051 228.556C741.406 228.183 741.826 227.996 742.311 227.996C743.114 227.996 743.515 228.388 743.515 229.172C743.515 229.545 743.403 229.872 743.179 230.152C742.955 230.432 742.74 230.619 742.535 230.712C742.33 230.805 742.208 230.852 742.171 230.852L742.087 230.88C742.087 230.899 742.143 230.936 742.255 230.992C742.367 231.048 742.516 231.113 742.703 231.188C742.89 231.263 743.067 231.291 743.235 231.272C743.907 231.272 744.486 230.852 744.971 230.012C745.139 229.713 745.354 229.079 745.615 228.108C745.876 227.137 746.138 226.129 746.399 225.084C746.66 224.039 746.81 223.423 746.847 223.236C746.94 222.732 746.987 222.368 746.987 222.144C746.987 221.621 746.847 221.248 746.567 221.024C746.287 220.8 745.97 220.688 745.615 220.688C744.868 220.688 744.168 220.987 743.515 221.584C742.862 222.181 742.404 222.947 742.143 223.88C742.106 224.048 742.059 224.141 742.003 224.16C741.947 224.179 741.798 224.197 741.555 224.216H741.163C741.051 224.104 740.995 224.001 740.995 223.908Z" fill="black"/>
<path d="M757.235 211.028L757.347 211C757.44 211 757.534 211 757.627 211H757.963L758.747 211.672C760.502 213.259 761.78 215.237 762.583 217.608C763.386 219.979 763.787 222.443 763.787 225C763.787 226.269 763.694 227.492 763.507 228.668C763.32 229.844 763.106 230.843 762.863 231.664C762.62 232.485 762.275 233.307 761.827 234.128C761.379 234.949 761.024 235.575 760.763 236.004C760.502 236.433 760.119 236.909 759.615 237.432C759.111 237.955 758.812 238.263 758.719 238.356C758.626 238.449 758.411 238.627 758.075 238.888C758.019 238.944 757.982 238.981 757.963 239H757.627C757.478 239 757.375 239 757.319 239C757.263 239 757.216 238.972 757.179 238.916C757.142 238.86 757.114 238.776 757.095 238.664C757.114 238.645 757.216 238.524 757.403 238.3C760.296 235.295 761.743 230.861 761.743 225C761.743 219.139 760.296 214.705 757.403 211.7C757.216 211.476 757.114 211.355 757.095 211.336C757.095 211.187 757.142 211.084 757.235 211.028Z" fill="black"/>
<path d="M842.787 213.904C842.787 213.449 843.032 213.099 843.522 212.854H876.985C877.51 213.134 877.773 213.484 877.773 213.904C877.773 214.29 877.528 214.622 877.038 214.903L860.333 214.955H843.627C843.067 214.78 842.787 214.43 842.787 213.904ZM842.787 224.096C842.787 223.57 843.067 223.22 843.627 223.045H877.038C877.528 223.395 877.773 223.745 877.773 224.096C877.773 224.551 877.51 224.901 876.985 225.146H843.522C843.032 224.901 842.787 224.551 842.787 224.096Z" fill="black"/>
<path d="M1107.17 245.029C1008.02 250.597 956.773 260.117 956.773 221.953C962.05 186.451 1097.03 132.729 1222.39 142.074C1320.03 149.354 1474.38 205.09 1478.77 233.491C1474.38 274.074 1418.53 245.029 1331.45 285.856C1244.38 326.682 1161.64 241.97 1107.17 245.029Z" fill="#DFDFDF" fill-opacity="0.5" stroke="black"/>
<path d="M1125.19 277.999C1125.15 278.049 1125.04 279.067 1124.83 281.051C1124.63 283.035 1124.51 284.061 1124.48 284.129V284.229H1117.24C1113.54 284.229 1111.39 284.229 1110.78 284.229C1110.18 284.229 1109.86 284.187 1109.82 284.103V284.078C1109.77 283.977 1109.77 283.885 1109.82 283.801L1110.23 283.321C1110.5 283.019 1110.9 282.565 1111.44 281.959C1111.98 281.354 1112.49 280.774 1112.98 280.219L1116.08 276.687L1109.8 267.984L1109.77 267.631C1109.77 267.311 1109.82 267.118 1109.9 267.05C1109.95 267.017 1112.4 267 1117.24 267H1124.48V267.101C1124.51 267.185 1124.63 268.152 1124.83 270.002C1125.04 271.852 1125.15 272.836 1125.19 272.953V273.054H1124.18V272.953C1124.04 271.978 1123.86 271.171 1123.62 270.532C1123.39 269.893 1123.01 269.371 1122.49 268.968C1121.98 268.614 1121.3 268.396 1120.44 268.312C1119.59 268.228 1118.37 268.177 1116.79 268.16H1115.8H1113.15L1115.78 271.768C1116.13 272.255 1116.57 272.861 1117.09 273.584C1118.01 274.862 1118.48 275.552 1118.48 275.653C1118.48 275.686 1118.47 275.711 1118.45 275.728L1112.27 282.792C1116.53 282.792 1118.83 282.783 1119.18 282.766C1119.99 282.733 1120.66 282.649 1121.2 282.514C1121.74 282.38 1122.1 282.253 1122.29 282.136C1122.47 282.018 1122.67 281.85 1122.89 281.631C1123.23 281.261 1123.5 280.765 1123.72 280.143C1123.94 279.521 1124.08 278.991 1124.13 278.554L1124.18 277.898H1125.19V277.999Z" fill="black"/>
<path d="M1179.03 194.033C1178.43 194.033 1178.1 193.998 1178.07 193.926C1178.05 193.89 1178.04 193.819 1178.04 193.711C1178.04 193.282 1178.14 192.986 1178.34 192.825C1178.37 192.807 1178.52 192.799 1178.79 192.799C1179.53 192.834 1180.74 192.852 1182.44 192.852C1183.05 192.852 1183.62 192.852 1184.13 192.852C1184.65 192.852 1185.06 192.843 1185.34 192.825C1185.63 192.807 1185.81 192.807 1185.88 192.825C1186.17 192.825 1186.31 192.915 1186.31 193.094C1186.31 193.13 1186.29 193.255 1186.26 193.47C1186.17 193.774 1186.08 193.953 1185.99 194.006H1185.93C1185.9 194.006 1185.85 194.006 1185.8 194.006C1185.75 194.006 1185.68 194.006 1185.61 194.006C1185.54 194.006 1185.46 194.015 1185.37 194.033C1185.28 194.051 1185.2 194.051 1185.13 194.033C1184.43 194.051 1183.98 194.078 1183.79 194.114C1183.59 194.15 1183.43 194.248 1183.3 194.409C1183.28 194.445 1183.03 195.384 1182.55 197.228C1182.07 199.071 1181.58 201.004 1181.1 203.026C1180.62 205.048 1180.35 206.238 1180.3 206.596C1180.26 206.846 1180.24 207.106 1180.24 207.374C1180.24 208.341 1180.52 209.101 1181.07 209.656C1181.63 210.211 1182.4 210.488 1183.38 210.488C1184.58 210.488 1185.78 210.085 1186.98 209.28C1188.18 208.475 1189.06 207.258 1189.61 205.629L1190.98 200.234C1191.82 196.798 1192.24 195.009 1192.24 194.865C1192.24 194.382 1191.67 194.105 1190.52 194.033C1190.09 194.033 1189.88 193.935 1189.88 193.738C1189.88 193.702 1189.9 193.595 1189.93 193.416C1190 193.13 1190.06 192.96 1190.09 192.906C1190.13 192.852 1190.22 192.816 1190.36 192.799C1190.42 192.799 1190.7 192.807 1191.22 192.825C1191.74 192.843 1192.49 192.861 1193.48 192.879C1194.39 192.879 1195.09 192.87 1195.57 192.852C1196.05 192.834 1196.31 192.825 1196.35 192.825C1196.62 192.825 1196.75 192.915 1196.75 193.094C1196.75 193.487 1196.68 193.756 1196.54 193.899C1196.48 193.989 1196.29 194.033 1195.95 194.033C1194.68 194.105 1193.88 194.463 1193.56 195.107C1193.52 195.196 1193.07 196.923 1192.21 200.288C1191.48 203.312 1191.03 205.093 1190.87 205.629C1190.28 207.419 1189.25 208.877 1187.79 210.005C1186.32 211.132 1184.8 211.705 1183.22 211.723C1181.58 211.723 1180.26 211.222 1179.28 210.22C1178.29 209.217 1177.79 208.027 1177.77 206.649V206.22C1177.77 205.898 1178.27 203.768 1179.25 199.831C1180.13 196.234 1180.56 194.382 1180.56 194.275C1180.56 194.15 1180.05 194.069 1179.03 194.033Z" fill="black"/>
<path d="M1200.4 214.343C1200.21 214.507 1199.93 214.684 1199.56 214.874C1199.2 215.064 1198.81 215.159 1198.41 215.159C1197.61 215.159 1196.97 214.874 1196.49 214.305C1196.01 213.735 1195.76 213.008 1195.75 212.122C1195.75 210.794 1196.24 209.573 1197.21 208.459C1198.18 207.346 1199.27 206.783 1200.46 206.77C1201.05 206.77 1201.6 207.074 1202.11 207.681L1202.16 207.605C1202.19 207.568 1202.22 207.53 1202.26 207.492C1202.3 207.454 1202.35 207.403 1202.43 207.34C1202.51 207.277 1202.59 207.232 1202.68 207.207C1202.76 207.182 1202.87 207.163 1202.98 207.15C1203.16 207.15 1203.3 207.207 1203.42 207.321C1203.53 207.435 1203.59 207.555 1203.61 207.681C1203.61 207.871 1203.25 209.402 1202.52 212.274C1201.8 215.146 1201.42 216.614 1201.39 216.677C1201.16 217.36 1200.67 217.923 1199.92 218.366C1199.18 218.809 1198.32 219.037 1197.36 219.049C1195.58 219.049 1194.69 218.619 1194.69 217.759C1194.69 217.43 1194.8 217.139 1195.03 216.886C1195.26 216.633 1195.55 216.506 1195.9 216.506C1196.09 216.506 1196.27 216.563 1196.43 216.677C1196.6 216.791 1196.69 216.987 1196.7 217.265C1196.7 217.392 1196.69 217.512 1196.66 217.626C1196.63 217.74 1196.59 217.828 1196.53 217.892C1196.46 217.955 1196.41 218.018 1196.38 218.081C1196.34 218.145 1196.29 218.195 1196.24 218.233L1196.2 218.271H1196.22C1196.35 218.309 1196.73 218.328 1197.36 218.328C1197.84 218.328 1198.22 218.252 1198.5 218.1C1198.79 217.961 1199.06 217.752 1199.32 217.474C1199.57 217.196 1199.75 216.898 1199.85 216.582C1199.92 216.342 1200.03 215.949 1200.15 215.405C1200.32 214.798 1200.4 214.444 1200.4 214.343ZM1201.78 208.934L1201.71 208.725C1201.67 208.586 1201.64 208.491 1201.61 208.441C1201.59 208.39 1201.55 208.301 1201.5 208.175C1201.45 208.048 1201.39 207.96 1201.31 207.909C1201.23 207.859 1201.15 207.789 1201.06 207.7C1200.97 207.612 1200.86 207.555 1200.72 207.53C1200.58 207.504 1200.44 207.485 1200.3 207.473C1199.75 207.473 1199.21 207.808 1198.69 208.478C1198.31 208.972 1197.99 209.725 1197.74 210.737C1197.49 211.749 1197.36 212.483 1197.36 212.938C1197.36 213.938 1197.75 214.438 1198.54 214.438C1199.25 214.438 1199.94 213.995 1200.63 213.109L1200.78 212.919L1201.78 208.934Z" fill="black"/>
<path d="M1207.42 204.422C1207.42 203.187 1207.51 202.015 1207.68 200.905C1207.86 199.796 1208.07 198.838 1208.3 198.033C1208.53 197.228 1208.87 196.44 1209.29 195.671C1209.72 194.901 1210.06 194.302 1210.31 193.872C1210.57 193.443 1210.94 192.977 1211.44 192.476C1211.94 191.975 1212.24 191.671 1212.33 191.564C1212.42 191.456 1212.64 191.268 1213 191H1213.35H1213.46C1213.71 191 1213.83 191.081 1213.83 191.242C1213.83 191.295 1213.68 191.483 1213.38 191.805C1213.07 192.127 1212.7 192.602 1212.27 193.228C1211.84 193.854 1211.41 194.624 1210.96 195.537C1210.51 196.449 1210.14 197.684 1209.83 199.241C1209.53 200.798 1209.38 202.525 1209.38 204.422C1209.38 206.318 1209.53 208.036 1209.83 209.575C1210.14 211.114 1210.5 212.358 1210.93 213.307C1211.36 214.255 1211.8 215.025 1212.25 215.615C1212.7 216.206 1213.07 216.68 1213.38 217.038C1213.68 217.396 1213.83 217.584 1213.83 217.601C1213.83 217.762 1213.7 217.843 1213.43 217.843H1213.35H1213L1212.25 217.199C1210.57 215.678 1209.34 213.781 1208.57 211.508C1207.8 209.235 1207.42 206.873 1207.42 204.422Z" fill="black"/>
<path d="M1233.21 204.502C1233.18 204.556 1233.05 205.638 1232.84 207.75C1232.62 209.862 1232.5 210.953 1232.46 211.025V211.132H1224.76C1220.82 211.132 1218.53 211.132 1217.88 211.132C1217.24 211.132 1216.9 211.088 1216.86 210.998V210.971C1216.81 210.864 1216.81 210.765 1216.86 210.676L1217.29 210.166C1217.58 209.844 1218.01 209.361 1218.58 208.716C1219.16 208.072 1219.7 207.455 1220.22 206.864L1223.52 203.106L1216.84 193.845L1216.81 193.47C1216.81 193.13 1216.86 192.924 1216.95 192.852C1217 192.816 1219.6 192.799 1224.76 192.799H1232.46V192.906C1232.5 192.995 1232.62 194.024 1232.84 195.993C1233.05 197.961 1233.18 199.008 1233.21 199.133V199.241H1232.14V199.133C1232 198.096 1231.8 197.237 1231.55 196.557C1231.3 195.877 1230.89 195.322 1230.34 194.892C1229.8 194.516 1229.08 194.284 1228.17 194.194C1227.25 194.105 1225.96 194.051 1224.27 194.033H1223.23H1220.41L1223.2 197.872C1223.58 198.391 1224.04 199.035 1224.6 199.805C1225.58 201.165 1226.07 201.898 1226.07 202.006C1226.07 202.041 1226.06 202.068 1226.04 202.086L1219.47 209.602C1224 209.602 1226.45 209.593 1226.82 209.575C1227.68 209.54 1228.4 209.45 1228.97 209.307C1229.54 209.164 1229.93 209.03 1230.13 208.904C1230.32 208.779 1230.54 208.6 1230.77 208.367C1231.13 207.974 1231.42 207.446 1231.66 206.784C1231.89 206.122 1232.03 205.558 1232.08 205.093L1232.14 204.395H1233.21V204.502Z" fill="black"/>
<path d="M1236.33 191.027L1236.43 191C1236.52 191 1236.61 191 1236.7 191H1237.02L1237.78 191.644C1239.46 193.165 1240.68 195.062 1241.45 197.335C1242.22 199.608 1242.61 201.97 1242.61 204.422C1242.61 205.638 1242.52 206.811 1242.34 207.938C1242.16 209.065 1241.95 210.023 1241.72 210.81C1241.49 211.598 1241.16 212.385 1240.73 213.172C1240.3 213.96 1239.96 214.559 1239.71 214.971C1239.46 215.382 1239.09 215.839 1238.61 216.34C1238.12 216.841 1237.84 217.136 1237.75 217.226C1237.66 217.315 1237.45 217.485 1237.13 217.736C1237.08 217.789 1237.04 217.825 1237.02 217.843H1236.7C1236.56 217.843 1236.46 217.843 1236.41 217.843C1236.35 217.843 1236.31 217.816 1236.27 217.762C1236.24 217.709 1236.21 217.628 1236.19 217.521C1236.21 217.503 1236.31 217.387 1236.49 217.172C1239.26 214.291 1240.65 210.041 1240.65 204.422C1240.65 198.802 1239.26 194.552 1236.49 191.671C1236.31 191.456 1236.21 191.34 1236.19 191.322C1236.19 191.179 1236.24 191.081 1236.33 191.027Z" fill="black"/>
<circle cx="1529.77" cy="225" r="3" fill="black"/>
<path d="M1550.23 230.731C1549.95 230.975 1549.54 231.237 1549 231.518C1548.45 231.799 1547.88 231.94 1547.28 231.94C1546.1 231.94 1545.16 231.518 1544.44 230.675C1543.73 229.832 1543.37 228.755 1543.35 227.443C1543.35 225.475 1544.07 223.667 1545.51 222.018C1546.95 220.37 1548.56 219.536 1550.32 219.517C1551.2 219.517 1552.01 219.967 1552.76 220.866L1552.85 220.754C1552.88 220.697 1552.93 220.641 1552.99 220.585C1553.04 220.529 1553.13 220.454 1553.24 220.36C1553.35 220.266 1553.47 220.201 1553.61 220.163C1553.74 220.126 1553.89 220.098 1554.06 220.079C1554.32 220.079 1554.53 220.163 1554.7 220.332C1554.87 220.501 1554.96 220.679 1554.98 220.866C1554.98 221.147 1554.45 223.414 1553.38 227.668C1552.31 231.921 1551.75 234.095 1551.69 234.188C1551.36 235.2 1550.64 236.034 1549.53 236.69C1548.42 237.346 1547.16 237.683 1545.74 237.702C1543.09 237.702 1541.77 237.065 1541.77 235.79C1541.77 235.303 1541.94 234.872 1542.28 234.498C1542.62 234.123 1543.05 233.935 1543.57 233.935C1543.85 233.935 1544.12 234.02 1544.36 234.188C1544.6 234.357 1544.73 234.647 1544.75 235.06C1544.75 235.247 1544.73 235.425 1544.7 235.594C1544.66 235.762 1544.59 235.894 1544.5 235.987C1544.41 236.081 1544.33 236.175 1544.27 236.268C1544.22 236.362 1544.15 236.437 1544.08 236.493L1544.02 236.549H1544.05C1544.24 236.606 1544.8 236.634 1545.74 236.634C1546.45 236.634 1547.01 236.521 1547.42 236.296C1547.85 236.09 1548.26 235.781 1548.63 235.369C1549.01 234.957 1549.27 234.516 1549.42 234.048C1549.53 233.692 1549.68 233.111 1549.87 232.305C1550.11 231.406 1550.23 230.881 1550.23 230.731ZM1552.28 222.721L1552.17 222.412C1552.12 222.206 1552.07 222.065 1552.03 221.99C1551.99 221.915 1551.94 221.784 1551.86 221.597C1551.79 221.409 1551.69 221.278 1551.58 221.203C1551.47 221.128 1551.35 221.025 1551.22 220.894C1551.09 220.763 1550.92 220.679 1550.71 220.641C1550.5 220.604 1550.3 220.576 1550.09 220.557C1549.27 220.557 1548.47 221.053 1547.7 222.047C1547.14 222.777 1546.67 223.892 1546.3 225.391C1545.92 226.89 1545.74 227.977 1545.74 228.651C1545.74 230.132 1546.32 230.872 1547.48 230.872C1548.53 230.872 1549.56 230.216 1550.57 228.904L1550.8 228.623L1552.28 222.721Z" fill="black"/>
<path d="M1563.34 224.913C1563.34 224.464 1563.5 224.07 1563.81 223.733C1564.13 223.396 1564.54 223.227 1565.02 223.227C1565.47 223.227 1565.87 223.377 1566.2 223.677C1566.54 223.976 1566.72 224.379 1566.74 224.885C1566.74 225.354 1566.58 225.757 1566.26 226.094C1565.94 226.431 1565.54 226.6 1565.05 226.6C1564.56 226.6 1564.16 226.44 1563.84 226.122C1563.52 225.803 1563.36 225.401 1563.34 224.913Z" fill="black"/>
<path d="M1579.73 219.545C1580.5 219.545 1581.1 219.77 1581.55 220.22C1582 220.669 1582.23 221.222 1582.23 221.878C1582.23 222.253 1581.93 223.246 1581.33 224.857C1580.73 226.469 1580.44 227.64 1580.46 228.37C1580.51 229.157 1580.77 229.776 1581.22 230.225C1581.61 230.563 1582.01 230.788 1582.43 230.9C1582.76 231.05 1583.05 231.125 1583.3 231.125H1583.33L1585.63 221.822C1587.2 215.62 1588 212.509 1588.02 212.49C1588.08 212.453 1588.23 212.434 1588.47 212.434C1588.84 212.434 1589.03 212.5 1589.03 212.631C1589.03 212.8 1588.27 215.901 1586.75 221.934C1585.22 228.08 1584.45 231.162 1584.45 231.181C1584.45 231.2 1584.51 231.209 1584.62 231.209C1586.23 231.209 1587.76 230.385 1589.2 228.736C1590.64 227.087 1591.37 225.55 1591.39 224.126C1591.39 223.677 1591.32 223.293 1591.17 222.974C1591.02 222.655 1590.85 222.431 1590.66 222.299C1590.47 222.168 1590.31 222 1590.16 221.794C1590.01 221.587 1589.93 221.372 1589.93 221.147C1589.93 220.754 1590.09 220.379 1590.41 220.023C1590.73 219.667 1591.12 219.489 1591.59 219.489C1591.94 219.489 1592.27 219.657 1592.57 219.995C1592.87 220.332 1593.02 220.885 1593.02 221.653C1593.02 222.196 1592.92 222.927 1592.71 223.845C1592.51 224.763 1592.34 225.401 1592.21 225.757C1591.61 227.537 1590.55 229.064 1589.03 230.338C1587.51 231.612 1585.99 232.249 1584.45 232.249H1584.17L1583.52 234.863C1583.07 236.624 1582.85 237.514 1582.85 237.533C1582.81 237.645 1582.62 237.702 1582.29 237.702H1581.92C1581.81 237.589 1581.75 237.514 1581.75 237.477C1581.75 237.383 1581.97 236.493 1582.4 234.807C1582.83 233.12 1583.04 232.249 1583.04 232.193C1582.91 232.174 1582.78 232.165 1582.65 232.165C1579.67 231.753 1578.18 230.375 1578.18 228.033C1578.18 227.377 1578.49 226.206 1579.11 224.52C1579.73 222.833 1580.05 221.756 1580.06 221.288C1580.06 221.269 1580.06 221.25 1580.06 221.231C1580.06 221.063 1580.06 220.95 1580.06 220.894C1580.06 220.838 1580.03 220.772 1579.95 220.697C1579.88 220.622 1579.77 220.585 1579.64 220.585H1579.53C1579.1 220.585 1578.71 220.763 1578.35 221.119C1577.99 221.475 1577.71 221.859 1577.51 222.271C1577.3 222.684 1577.14 223.077 1577.03 223.452C1576.92 223.827 1576.84 224.033 1576.8 224.07C1576.77 224.108 1576.62 224.126 1576.35 224.126H1575.96C1575.85 224.014 1575.79 223.93 1575.79 223.873C1575.79 223.649 1575.91 223.218 1576.16 222.581C1576.4 221.943 1576.85 221.278 1577.51 220.585C1578.16 219.892 1578.9 219.545 1579.73 219.545Z" fill="black"/>
<path d="M1596.14 224.913C1596.14 223.62 1596.24 222.393 1596.42 221.231C1596.61 220.07 1596.83 219.067 1597.07 218.224C1597.31 217.381 1597.66 216.556 1598.11 215.751C1598.56 214.945 1598.91 214.317 1599.18 213.868C1599.44 213.418 1599.83 212.931 1600.36 212.406C1600.88 211.881 1601.19 211.563 1601.29 211.45C1601.38 211.338 1601.61 211.141 1601.99 210.86H1602.35H1602.47C1602.73 210.86 1602.86 210.945 1602.86 211.113C1602.86 211.169 1602.7 211.366 1602.38 211.703C1602.06 212.041 1601.68 212.537 1601.23 213.193C1600.78 213.849 1600.32 214.655 1599.85 215.61C1599.38 216.566 1598.99 217.859 1598.67 219.489C1598.35 221.119 1598.19 222.927 1598.19 224.913C1598.19 226.9 1598.35 228.698 1598.67 230.31C1598.99 231.921 1599.37 233.223 1599.82 234.217C1600.27 235.21 1600.73 236.015 1601.2 236.634C1601.67 237.252 1602.06 237.749 1602.38 238.123C1602.7 238.498 1602.86 238.695 1602.86 238.714C1602.86 238.882 1602.72 238.966 1602.44 238.966H1602.35H1601.99L1601.2 238.292C1599.44 236.699 1598.16 234.713 1597.35 232.333C1596.54 229.954 1596.14 227.48 1596.14 224.913Z" fill="black"/>
<path d="M1605.89 223.817C1606.03 223.03 1606.53 222.121 1607.41 221.091C1608.29 220.06 1609.38 219.536 1610.67 219.517C1611.33 219.517 1611.93 219.686 1612.47 220.023C1613.02 220.36 1613.42 220.782 1613.68 221.288C1614.47 220.107 1615.41 219.517 1616.52 219.517C1617.21 219.517 1617.81 219.723 1618.32 220.135C1618.82 220.547 1619.09 221.1 1619.1 221.794C1619.1 222.337 1618.97 222.777 1618.71 223.115C1618.45 223.452 1618.2 223.658 1617.95 223.733C1617.71 223.808 1617.49 223.845 1617.31 223.845C1616.95 223.845 1616.66 223.742 1616.43 223.536C1616.21 223.33 1616.1 223.058 1616.1 222.721C1616.1 221.859 1616.57 221.269 1617.5 220.95C1617.3 220.707 1616.92 220.585 1616.38 220.585C1616.13 220.585 1615.96 220.604 1615.84 220.641C1615.13 220.941 1614.61 221.559 1614.27 222.496C1613.15 226.637 1612.58 229.054 1612.58 229.748C1612.58 230.272 1612.73 230.647 1613.03 230.872C1613.33 231.097 1613.66 231.209 1614.02 231.209C1614.71 231.209 1615.39 230.9 1616.07 230.282C1616.74 229.663 1617.2 228.904 1617.45 228.005C1617.5 227.818 1617.56 227.715 1617.62 227.696C1617.67 227.677 1617.82 227.658 1618.06 227.64H1618.18C1618.46 227.64 1618.6 227.715 1618.6 227.864C1618.6 227.883 1618.58 227.986 1618.54 228.174C1618.24 229.242 1617.66 230.188 1616.8 231.012C1615.94 231.837 1614.94 232.249 1613.79 232.249C1612.48 232.249 1611.49 231.659 1610.81 230.478C1610.05 231.64 1609.16 232.221 1608.17 232.221H1608C1607.08 232.221 1606.43 231.977 1606.04 231.49C1605.64 231.003 1605.44 230.488 1605.42 229.944C1605.42 229.345 1605.59 228.858 1605.95 228.483C1606.31 228.108 1606.73 227.921 1607.22 227.921C1608.02 227.921 1608.42 228.314 1608.42 229.101C1608.42 229.476 1608.31 229.804 1608.09 230.085C1607.86 230.366 1607.65 230.553 1607.44 230.647C1607.23 230.741 1607.11 230.788 1607.08 230.788L1606.99 230.816C1606.99 230.834 1607.05 230.872 1607.16 230.928C1607.27 230.984 1607.42 231.05 1607.61 231.125C1607.8 231.2 1607.97 231.228 1608.14 231.209C1608.82 231.209 1609.4 230.788 1609.89 229.944C1610.05 229.645 1610.27 229.007 1610.53 228.033C1610.79 227.059 1611.06 226.047 1611.32 224.998C1611.58 223.948 1611.73 223.33 1611.77 223.143C1611.86 222.637 1611.91 222.271 1611.91 222.046C1611.91 221.522 1611.77 221.147 1611.49 220.922C1611.21 220.697 1610.89 220.585 1610.53 220.585C1609.78 220.585 1609.08 220.885 1608.42 221.484C1607.77 222.084 1607.31 222.852 1607.05 223.789C1607.01 223.958 1606.96 224.051 1606.91 224.07C1606.85 224.089 1606.7 224.108 1606.46 224.126H1606.06C1605.95 224.014 1605.89 223.911 1605.89 223.817Z" fill="black"/>
<path d="M1622.2 210.888L1622.31 210.86C1622.4 210.86 1622.5 210.86 1622.59 210.86H1622.93L1623.71 211.535C1625.48 213.127 1626.76 215.114 1627.56 217.493C1628.37 219.873 1628.77 222.346 1628.77 224.913C1628.77 226.187 1628.68 227.415 1628.49 228.595C1628.3 229.776 1628.09 230.778 1627.85 231.603C1627.6 232.427 1627.26 233.252 1626.81 234.076C1626.36 234.9 1626 235.528 1625.74 235.959C1625.48 236.39 1625.09 236.868 1624.59 237.393C1624.08 237.917 1623.78 238.226 1623.69 238.32C1623.59 238.414 1623.38 238.592 1623.04 238.854C1622.98 238.91 1622.95 238.948 1622.93 238.966H1622.59C1622.44 238.966 1622.34 238.966 1622.28 238.966C1622.22 238.966 1622.18 238.938 1622.14 238.882C1622.1 238.826 1622.07 238.742 1622.06 238.629C1622.07 238.61 1622.18 238.489 1622.36 238.264C1625.27 235.247 1626.72 230.797 1626.72 224.913C1626.72 219.03 1625.27 214.58 1622.36 211.563C1622.18 211.338 1622.07 211.216 1622.06 211.198C1622.06 211.048 1622.1 210.945 1622.2 210.888Z" fill="black"/>
</svg>
