<svg width="1863" height="646" viewBox="0 0 1863 646" fill="none" xmlns="http://www.w3.org/2000/svg">
<path d="M989.073 328.445C989.073 230.119 838.51 150.41 652.781 150.41C467.052 150.41 316.489 230.119 316.489 328.445" stroke="#E05557" stroke-width="3"/>
<path d="M720.149 557.681C707.028 560.066 693.727 520.282 690.44 468.819C687.153 417.357 695.125 373.705 708.246 371.319" stroke="#4BA5FF" stroke-width="3"/>
<path d="M652.78 84C837.828 84 987.839 190.912 987.839 322.794C987.839 454.676 837.828 561.587 652.78 561.587C467.733 561.587 317.723 454.676 317.723 322.794C317.723 190.912 467.733 84.0001 652.78 84ZM653.407 249.941C593.787 249.941 543.092 277.414 524.483 315.711C543.092 354.007 593.787 381.48 653.407 381.48C713.028 381.48 763.722 354.007 782.331 315.711C763.722 277.414 713.028 249.942 653.407 249.941Z" fill="#D9D9D9" fill-opacity="0.3"/>
<path d="M652.78 85C745.12 85 828.677 111.676 889.122 154.755C949.57 197.835 986.839 257.261 986.839 322.794C986.839 388.327 949.57 447.752 889.122 490.832C828.677 533.911 745.12 560.587 652.78 560.587C560.441 560.587 476.885 533.911 416.44 490.832C355.992 447.752 318.723 388.327 318.723 322.794C318.723 257.261 355.992 197.835 416.44 154.755C476.885 111.676 560.441 85.0001 652.78 85Z" stroke="black" stroke-width="2"/>
<path d="M517.136 289.403C521.497 340.781 580.841 381.48 653.407 381.48C726.449 381.48 786.095 340.246 789.757 288.391" stroke="black" stroke-width="2"/>
<path d="M782.42 315.893C763.883 277.502 713.122 249.941 653.407 249.941C593.787 249.941 543.092 277.414 524.483 315.711" stroke="black" stroke-width="2"/>
<path d="M621.563 472.83C621.563 473.299 622.012 473.573 622.912 473.651C623.264 473.651 623.44 473.758 623.44 473.973C623.44 473.993 623.42 474.12 623.381 474.355C623.323 474.628 623.264 474.804 623.205 474.883C623.147 474.961 623.019 475 622.824 475C622.785 475 622.668 475 622.472 475C622.276 475 621.944 474.99 621.475 474.971C621.005 474.951 620.38 474.941 619.598 474.941C618.209 474.941 617.32 474.961 616.929 475H616.694C616.557 474.863 616.489 474.756 616.489 474.677C616.528 474.149 616.655 473.807 616.87 473.651H617.281C618.649 473.592 619.647 473.103 620.272 472.184C620.39 472.067 622.159 469.085 625.581 463.239C629.003 457.392 630.743 454.43 630.802 454.352C630.938 454.117 631.173 454 631.505 454H631.74H632.239C632.356 454.176 632.415 454.274 632.415 454.293L633.236 463.767C633.783 470.082 634.077 473.27 634.116 473.328C634.214 473.543 634.849 473.651 636.022 473.651C636.511 473.651 636.755 473.749 636.755 473.944C636.755 473.983 636.726 474.12 636.667 474.355C636.609 474.648 636.56 474.824 636.521 474.883C636.482 474.941 636.345 474.98 636.11 475C636.052 475 635.915 475 635.7 475C635.485 475 635.103 474.99 634.556 474.971C634.008 474.951 633.295 474.941 632.415 474.941C630.577 474.941 629.374 474.961 628.807 475H628.455C628.338 474.883 628.279 474.795 628.279 474.736C628.279 474.677 628.299 474.501 628.338 474.208C628.416 473.954 628.475 473.797 628.514 473.739L628.631 473.651H629.218C630.274 473.592 630.899 473.426 631.095 473.152L630.743 468.753H623.762L622.765 470.454C621.964 471.803 621.563 472.595 621.563 472.83ZM630.596 467.374C630.596 467.159 630.479 465.634 630.244 462.799C630.01 459.964 629.873 458.536 629.834 458.517L629.042 459.778C628.729 460.306 628.113 461.352 627.194 462.916L624.554 467.374L627.575 467.404C629.589 467.404 630.596 467.394 630.596 467.374Z" fill="black"/>
<path d="M743.36 522.378C742.821 522.378 742.502 522.368 742.402 522.348C742.302 522.328 742.252 522.218 742.252 522.019C742.252 521.479 742.362 521.15 742.581 521.03C742.601 521.01 743.9 521 746.476 521C751.648 521 754.375 521.02 754.654 521.06C755.912 521.26 756.961 521.709 757.8 522.408C758.638 523.107 759.068 524.026 759.088 525.164C759.088 526.442 758.509 527.591 757.35 528.609C756.192 529.628 754.864 530.317 753.366 530.676L753.066 530.766C754.345 530.946 755.393 531.405 756.212 532.144C757.031 532.883 757.45 533.802 757.47 534.9C757.47 536.358 756.751 537.766 755.313 539.124C753.875 540.482 752.108 541.251 750.011 541.431C749.871 541.451 747.764 541.461 743.69 541.461C739.696 541.461 737.668 541.441 737.609 541.401C737.529 541.341 737.489 541.261 737.489 541.161C737.489 541.021 737.509 540.882 737.549 540.742C737.649 540.362 737.748 540.153 737.848 540.113C737.928 540.093 738.078 540.083 738.298 540.083H738.477C739.017 540.083 739.616 540.053 740.275 539.993C740.554 539.933 740.744 539.813 740.844 539.633C740.904 539.553 741.623 536.777 743.001 531.305C744.379 525.833 745.068 522.947 745.068 522.648C745.068 522.508 744.499 522.418 743.36 522.378ZM755.882 525.164C755.882 524.565 755.733 524.006 755.433 523.486C755.134 522.967 754.644 522.628 753.965 522.468C753.825 522.428 752.907 522.398 751.209 522.378C750.81 522.378 750.39 522.378 749.951 522.378C749.512 522.378 749.162 522.388 748.902 522.408H748.513C748.213 522.428 748.024 522.528 747.944 522.708C747.904 522.787 747.584 523.986 746.985 526.302C746.985 526.362 746.975 526.422 746.955 526.482L746.027 530.257H748.453C750.071 530.257 750.999 530.237 751.239 530.197C752.437 529.997 753.506 529.418 754.444 528.459C755.383 527.501 755.862 526.402 755.882 525.164ZM754.265 534.601C754.265 533.722 754.035 532.993 753.576 532.414C753.116 531.834 752.517 531.495 751.778 531.395C751.658 531.375 750.83 531.365 749.292 531.365C746.935 531.365 745.747 531.375 745.727 531.395C745.727 531.435 745.557 532.164 745.218 533.582C744.878 535 744.529 536.408 744.169 537.806L743.63 539.903C743.63 539.983 743.75 540.023 743.989 540.023C744.229 540.023 745.038 540.043 746.416 540.083C748.193 540.083 749.152 540.073 749.292 540.053C750.53 539.913 751.668 539.334 752.707 538.315C753.745 537.297 754.265 536.058 754.265 534.601Z" fill="black"/>
<path d="M708.151 369.822C707.336 369.971 706.718 370.761 706.771 371.588C706.823 372.414 707.527 372.965 708.342 372.816L708.151 369.822ZM737.956 460.181L736.48 460.449C738.118 486.092 736.945 509.737 733.753 527.219C732.154 535.973 730.064 543.092 727.62 548.125C725.129 553.253 722.514 555.736 720.054 556.184L720.149 557.681L720.245 559.178C724.344 558.432 727.647 554.564 730.238 549.229C732.876 543.797 735.034 536.341 736.658 527.45C739.91 509.644 741.08 485.732 739.431 459.912L737.956 460.181ZM708.246 371.319L708.342 372.816C710.803 372.369 713.671 373.855 716.753 377.97C719.776 382.009 722.717 388.214 725.384 396.192C730.711 412.125 734.842 434.807 736.48 460.449L737.956 460.181L739.431 459.912C737.782 434.093 733.619 411.15 728.194 394.923C725.485 386.819 722.434 380.309 719.171 375.951C715.965 371.669 712.251 369.077 708.151 369.822L708.246 371.319Z" fill="#4BA5FF"/>
<path d="M989.489 328C989.489 413.052 838.833 482 652.989 482C467.145 482 316.489 413.052 316.489 328" stroke="#E05557" stroke-width="3"/>
<path d="M1184.49 315.281C1184.49 314.591 1184.86 314.061 1185.6 313.689H1236.3C1237.09 314.114 1237.49 314.644 1237.49 315.281C1237.49 315.864 1237.12 316.368 1236.37 316.793L1211.07 316.872H1185.76C1184.91 316.607 1184.49 316.077 1184.49 315.281ZM1184.49 330.719C1184.49 329.923 1184.91 329.393 1185.76 329.128H1236.37C1237.12 329.658 1237.49 330.189 1237.49 330.719C1237.49 331.409 1237.09 331.939 1236.3 332.311H1185.6C1184.86 331.939 1184.49 331.409 1184.49 330.719Z" fill="black"/>
<path d="M1432.49 334.397C1432.49 333.792 1432.61 333.248 1432.85 332.765C1432.85 332.724 1438.19 326.7 1448.87 314.691C1459.55 302.682 1464.93 296.617 1465.01 296.496L1464.41 296.375C1463.96 296.375 1462.47 296.375 1459.93 296.375H1459.21H1457.76C1456.39 296.375 1455.26 296.415 1454.37 296.496C1453.48 296.576 1452.38 296.798 1451.05 297.161C1449.72 297.524 1448.63 298.047 1447.78 298.732C1446.94 299.418 1446.03 300.425 1445.06 301.755C1444.09 303.085 1443.33 304.677 1442.76 306.53C1442.72 306.651 1442.68 306.772 1442.64 306.893C1442.6 307.014 1442.56 307.115 1442.52 307.195C1442.48 307.276 1442.46 307.377 1442.46 307.497C1442.46 307.618 1442.44 307.679 1442.4 307.679L1442.34 307.8C1442.22 308.001 1441.84 308.102 1441.19 308.102C1440.51 308.102 1440.11 307.9 1439.98 307.497L1441.92 300.969C1442.48 299.156 1443.03 297.342 1443.55 295.529C1443.87 294.4 1444.11 293.796 1444.28 293.715C1444.4 293.635 1449.11 293.594 1458.42 293.594H1472.38C1472.59 293.796 1472.69 293.957 1472.69 294.078C1472.69 294.159 1472.57 294.682 1472.32 295.65C1451.05 319.627 1440.39 331.656 1440.35 331.737L1440.17 331.918H1445.55C1449.37 331.878 1451.45 331.838 1451.77 331.798C1454.79 331.435 1457.27 330.448 1459.21 328.836C1461.14 327.224 1462.73 324.262 1463.98 319.95C1464.3 318.942 1464.53 318.338 1464.65 318.136C1464.77 317.935 1465.03 317.834 1465.43 317.834H1465.67C1466.52 317.834 1466.94 318.056 1466.94 318.499C1463.68 329.218 1461.93 334.639 1461.69 334.759C1461.56 334.84 1456.71 334.88 1447.12 334.88H1436.48C1433.82 334.88 1432.49 334.719 1432.49 334.397Z" fill="black"/>
<path d="M1479.16 340.948C1479.16 341.632 1479.81 342.031 1481.12 342.145C1481.64 342.145 1481.89 342.302 1481.89 342.615C1481.89 342.643 1481.86 342.829 1481.81 343.171C1481.72 343.569 1481.64 343.826 1481.55 343.94C1481.47 344.054 1481.28 344.111 1481 344.111C1480.94 344.111 1480.77 344.111 1480.48 344.111C1480.2 344.111 1479.71 344.097 1479.03 344.068C1478.35 344.04 1477.43 344.025 1476.29 344.025C1474.27 344.025 1472.98 344.054 1472.41 344.111H1472.06C1471.86 343.911 1471.76 343.755 1471.76 343.641C1471.82 342.871 1472.01 342.373 1472.32 342.145H1472.92C1474.91 342.059 1476.37 341.347 1477.28 340.008C1477.45 339.837 1480.03 335.492 1485.01 326.973C1490 318.454 1492.53 314.138 1492.62 314.024C1492.82 313.682 1493.16 313.511 1493.65 313.511H1493.99H1494.71C1494.89 313.768 1494.97 313.91 1494.97 313.939L1496.17 327.743C1496.97 336.945 1497.39 341.589 1497.45 341.675C1497.59 341.988 1498.52 342.145 1500.23 342.145C1500.94 342.145 1501.3 342.287 1501.3 342.572C1501.3 342.629 1501.25 342.829 1501.17 343.171C1501.08 343.598 1501.01 343.854 1500.95 343.94C1500.9 344.025 1500.7 344.082 1500.36 344.111C1500.27 344.111 1500.07 344.111 1499.76 344.111C1499.44 344.111 1498.89 344.097 1498.09 344.068C1497.29 344.04 1496.25 344.025 1494.97 344.025C1492.29 344.025 1490.54 344.054 1489.71 344.111H1489.2C1489.03 343.94 1488.94 343.812 1488.94 343.726C1488.94 343.641 1488.97 343.384 1489.03 342.957C1489.14 342.587 1489.23 342.359 1489.29 342.273L1489.46 342.145H1490.31C1491.85 342.059 1492.76 341.817 1493.05 341.418L1492.53 335.008H1482.36L1480.91 337.487C1479.74 339.452 1479.16 340.606 1479.16 340.948ZM1492.32 332.999C1492.32 332.686 1492.15 330.464 1491.81 326.332C1491.47 322.201 1491.27 320.121 1491.21 320.093L1490.06 321.93C1489.6 322.7 1488.7 324.224 1487.36 326.503L1483.52 332.999L1487.92 333.042C1490.85 333.042 1492.32 333.028 1492.32 332.999Z" fill="black"/>
<path d="M1505.65 342.615C1505.65 342.615 1505.65 342.259 1505.65 341.547C1505.65 340.834 1505.88 340.222 1506.34 339.709C1506.79 339.196 1507.41 338.94 1508.18 338.94C1508.97 338.94 1509.69 339.296 1510.31 340.008C1510.94 340.72 1511.27 341.974 1511.3 343.769C1511.3 344.766 1511.17 345.735 1510.91 346.675C1510.66 347.615 1510.36 348.427 1510.01 349.111C1509.67 349.795 1509.3 350.379 1508.9 350.863C1508.5 351.348 1508.16 351.732 1507.88 352.017C1507.59 352.302 1507.41 352.43 1507.32 352.402C1507.21 352.402 1507.02 352.274 1506.77 352.017C1506.51 351.761 1506.38 351.575 1506.38 351.462C1506.38 351.348 1506.54 351.12 1506.85 350.778C1507.16 350.436 1507.52 350.008 1507.92 349.496C1508.32 348.983 1508.69 348.271 1509.03 347.359C1509.37 346.447 1509.6 345.407 1509.71 344.239V343.726L1509.67 343.769C1509.62 343.797 1509.54 343.826 1509.46 343.854C1509.37 343.883 1509.29 343.926 1509.2 343.983C1509.12 344.04 1508.99 344.068 1508.82 344.068C1508.65 344.068 1508.48 344.082 1508.3 344.111C1507.54 344.111 1506.91 343.869 1506.42 343.384L1505.65 342.615Z" fill="black"/>
<path d="M1524.07 316.887C1523.31 316.887 1522.85 316.873 1522.71 316.845C1522.56 316.816 1522.49 316.66 1522.49 316.375C1522.49 315.605 1522.65 315.135 1522.96 314.964C1522.99 314.936 1524.84 314.922 1528.52 314.922C1535.9 314.922 1539.79 314.95 1540.19 315.007C1541.98 315.292 1543.48 315.933 1544.67 316.93C1545.87 317.927 1546.48 319.238 1546.51 320.862C1546.51 322.685 1545.69 324.324 1544.03 325.777C1542.38 327.23 1540.49 328.213 1538.35 328.726L1537.92 328.854C1539.74 329.11 1541.24 329.765 1542.41 330.82C1543.58 331.874 1544.18 333.184 1544.2 334.751C1544.2 336.831 1543.18 338.84 1541.13 340.777C1539.08 342.715 1536.55 343.812 1533.56 344.068C1533.36 344.097 1530.36 344.111 1524.54 344.111C1518.85 344.111 1515.95 344.082 1515.87 344.025C1515.76 343.94 1515.7 343.826 1515.7 343.683C1515.7 343.484 1515.73 343.285 1515.78 343.085C1515.93 342.544 1516.07 342.245 1516.21 342.188C1516.32 342.159 1516.54 342.145 1516.85 342.145H1517.11C1517.88 342.145 1518.73 342.102 1519.67 342.017C1520.07 341.931 1520.34 341.76 1520.48 341.504C1520.57 341.39 1521.6 337.43 1523.56 329.623C1525.53 321.816 1526.51 317.699 1526.51 317.272C1526.51 317.073 1525.7 316.944 1524.07 316.887ZM1541.94 320.862C1541.94 320.007 1541.72 319.21 1541.3 318.469C1540.87 317.728 1540.17 317.244 1539.2 317.016C1539 316.959 1537.69 316.916 1535.27 316.887C1534.7 316.887 1534.1 316.887 1533.48 316.887C1532.85 316.887 1532.35 316.902 1531.98 316.93H1531.43C1531 316.959 1530.73 317.101 1530.61 317.358C1530.56 317.472 1530.1 319.181 1529.25 322.486C1529.25 322.571 1529.23 322.657 1529.2 322.742L1527.88 328.127H1531.34C1533.65 328.127 1534.97 328.099 1535.31 328.042C1537.02 327.757 1538.55 326.931 1539.89 325.563C1541.23 324.195 1541.91 322.628 1541.94 320.862ZM1539.63 334.324C1539.63 333.07 1539.3 332.031 1538.65 331.204C1537.99 330.378 1537.14 329.894 1536.08 329.751C1535.91 329.723 1534.73 329.709 1532.54 329.709C1529.17 329.709 1527.48 329.723 1527.45 329.751C1527.45 329.808 1527.21 330.848 1526.72 332.871C1526.24 334.894 1525.74 336.903 1525.23 338.897L1524.46 341.888C1524.46 342.002 1524.63 342.059 1524.97 342.059C1525.31 342.059 1526.47 342.088 1528.43 342.145C1530.97 342.145 1532.34 342.131 1532.54 342.102C1534.3 341.903 1535.93 341.076 1537.41 339.623C1538.89 338.17 1539.63 336.404 1539.63 334.324Z" fill="black"/>
</svg>
