<svg width="1863" height="477" viewBox="0 0 1863 477" fill="none" xmlns="http://www.w3.org/2000/svg">
<path d="M1757.51 272.241C1772.44 153.707 1591.54 46.2136 1494.89 116.186C1419.2 170.986 1407.98 287.563 1465.07 361.613C1538.52 456.895 1742.47 391.691 1757.51 272.241Z" fill="#D9D9D9" fill-opacity="0.3" stroke="black"/>
<path d="M1465.07 361.613C1538.52 456.895 1742.47 391.691 1757.51 272.241C1757.56 271.865 1757.6 271.489 1757.65 271.113L1757.54 271.687C1754.78 284.43 1719.72 275.31 1665.05 288.129C1610.39 300.949 1558.45 274.349 1524.26 275.31C1462.02 277.058 1429.84 280.047 1429.84 268.064L1429.59 267.59C1432.26 301.227 1444.02 334.311 1465.07 361.613Z" fill="#66C9F3" fill-opacity="0.3" stroke="black"/>
<path d="M1429.84 268.064C1433.16 256.916 1517.89 240.047 1596.59 242.981C1657.89 245.267 1754.78 262.768 1757.54 271.687" stroke="black" stroke-dasharray="2 2"/>
<path d="M1524.26 275.31C1462.02 277.058 1429.84 280.047 1429.84 268.064C1433.16 256.916 1517.89 240.047 1596.59 242.981C1657.89 245.267 1754.78 262.768 1757.54 271.687C1754.78 284.43 1719.72 275.31 1665.05 288.129C1610.39 300.949 1558.45 274.349 1524.26 275.31Z" fill="#66C9F3" fill-opacity="0.5"/>
<path d="M1524.26 275.31C1462.02 277.058 1429.84 280.047 1429.84 268.064C1433.16 256.916 1517.89 240.047 1596.59 242.981C1657.89 245.267 1754.78 262.768 1757.54 271.687C1754.78 284.43 1719.72 275.31 1665.05 288.129C1610.39 300.949 1558.45 274.349 1524.26 275.31Z" fill="#D9D9D9" fill-opacity="0.5"/>
<path d="M1429.84 268.064C1429.84 280.047 1462.02 277.058 1524.26 275.31C1558.45 274.349 1610.39 300.949 1665.05 288.129C1719.72 275.31 1754.78 284.43 1757.54 271.687" stroke="black"/>
<path d="M1624.31 268C1624.27 268.051 1624.15 269.068 1623.95 271.052C1623.75 273.037 1623.63 274.063 1623.6 274.13V274.231H1616.36C1612.66 274.231 1610.51 274.231 1609.9 274.231C1609.3 274.231 1608.98 274.189 1608.94 274.105V274.08C1608.89 273.979 1608.89 273.886 1608.94 273.802L1609.35 273.323C1609.62 273.02 1610.02 272.566 1610.56 271.961C1611.1 271.355 1611.61 270.775 1612.1 270.22L1615.2 266.688L1608.92 257.985L1608.89 257.632C1608.89 257.313 1608.93 257.119 1609.02 257.052C1609.07 257.018 1611.52 257.001 1616.36 257.001H1623.6V257.102C1623.63 257.186 1623.75 258.153 1623.95 260.003C1624.15 261.853 1624.27 262.837 1624.31 262.955V263.056H1623.3V262.955C1623.16 261.979 1622.98 261.172 1622.74 260.533C1622.51 259.894 1622.13 259.373 1621.61 258.969C1621.1 258.616 1620.42 258.397 1619.56 258.313C1618.71 258.229 1617.49 258.179 1615.91 258.162H1614.92H1612.27L1614.9 261.769C1615.25 262.257 1615.69 262.862 1616.21 263.586C1617.13 264.864 1617.6 265.553 1617.6 265.654C1617.6 265.688 1617.59 265.713 1617.57 265.73L1611.39 272.793C1615.65 272.793 1617.95 272.785 1618.3 272.768C1619.11 272.734 1619.78 272.65 1620.32 272.516C1620.86 272.381 1621.22 272.255 1621.4 272.137C1621.59 272.019 1621.79 271.851 1622.01 271.633C1622.35 271.263 1622.62 270.767 1622.84 270.144C1623.06 269.522 1623.2 268.992 1623.25 268.555L1623.3 267.899H1624.31V268Z" fill="black"/>
<path d="M1720.94 123.274C1720.94 123.172 1720.46 123.104 1719.49 123.07C1719.08 123.07 1718.82 123.061 1718.7 123.044C1718.58 123.027 1718.52 122.942 1718.52 122.789C1718.52 122.772 1718.54 122.679 1718.57 122.509C1718.59 122.458 1718.61 122.398 1718.62 122.33C1718.64 122.262 1718.65 122.219 1718.65 122.202C1718.65 122.185 1718.67 122.143 1718.7 122.075C1718.73 122.007 1718.75 121.981 1718.75 121.998C1718.75 122.015 1718.78 121.998 1718.85 121.947C1718.92 121.896 1718.96 121.879 1718.98 121.896C1719 121.913 1719.06 121.913 1719.18 121.896C1719.3 121.879 1719.41 121.871 1719.49 121.871C1719.59 121.871 1719.85 121.871 1720.26 121.871C1720.66 121.871 1721.05 121.879 1721.4 121.896C1722.75 121.896 1723.52 121.896 1723.73 121.896C1723.93 121.896 1724.07 121.939 1724.13 122.024C1724.15 122.092 1724.47 124.49 1725.08 129.219L1726 136.337L1726.58 135.393C1726.99 134.781 1727.54 133.93 1728.22 132.842C1728.9 131.753 1729.64 130.562 1730.46 129.27C1733.44 124.524 1734.94 122.134 1734.98 122.1C1734.99 122.083 1735.02 122.058 1735.05 122.024C1735.09 121.99 1735.12 121.964 1735.16 121.947L1735.31 121.896H1737.76C1738.05 121.896 1738.39 121.896 1738.78 121.896C1739.17 121.896 1739.42 121.888 1739.52 121.871C1740.1 121.871 1740.39 121.964 1740.39 122.151C1740.39 122.236 1740.36 122.381 1740.31 122.585C1740.26 122.789 1740.23 122.9 1740.23 122.917C1740.16 123.019 1739.85 123.07 1739.29 123.07C1738.61 123.087 1738.17 123.112 1737.99 123.146C1737.8 123.18 1737.65 123.274 1737.53 123.427C1737.48 123.512 1736.87 125.919 1735.69 130.648C1734.52 135.376 1733.92 137.766 1733.91 137.817C1733.91 137.885 1733.91 137.928 1733.93 137.945C1733.95 137.962 1734.01 137.996 1734.11 138.047C1734.21 138.098 1734.36 138.115 1734.54 138.098C1734.73 138.081 1735.01 138.098 1735.39 138.149H1736.18C1736.28 138.302 1736.33 138.395 1736.33 138.429C1736.33 138.701 1736.27 138.957 1736.15 139.195C1736.07 139.28 1735.93 139.322 1735.74 139.322C1735.66 139.322 1735.31 139.314 1734.7 139.297C1734.08 139.28 1733.3 139.271 1732.35 139.271C1731.31 139.271 1730.53 139.271 1730 139.271C1729.47 139.271 1729.18 139.28 1729.11 139.297C1728.82 139.297 1728.68 139.212 1728.68 139.042C1728.68 139.008 1728.69 138.889 1728.73 138.684C1728.79 138.412 1728.86 138.259 1728.93 138.225C1729 138.191 1729.19 138.166 1729.52 138.149C1729.98 138.149 1730.49 138.123 1731.05 138.072C1731.29 138.021 1731.45 137.919 1731.53 137.766C1731.57 137.698 1731.89 136.456 1732.5 134.041C1733.11 131.626 1733.72 129.219 1734.31 126.82C1734.91 124.422 1735.21 123.223 1735.21 123.223L1730.26 131.107C1726.92 136.414 1725.21 139.11 1725.13 139.195C1725.09 139.212 1725.06 139.229 1725.03 139.246C1724.94 139.297 1724.81 139.322 1724.62 139.322C1724.36 139.322 1724.21 139.263 1724.16 139.144C1724.13 139.076 1723.78 136.439 1723.11 131.234L1722.12 123.402L1720.38 130.29C1719.24 134.815 1718.67 137.154 1718.67 137.307C1718.78 137.868 1719.39 138.149 1720.51 138.149H1720.77C1720.87 138.234 1720.93 138.31 1720.94 138.378C1720.96 138.446 1720.94 138.599 1720.87 138.838C1720.8 139.11 1720.73 139.263 1720.66 139.297C1720.6 139.314 1720.5 139.322 1720.38 139.322C1720.35 139.322 1720.25 139.322 1720.08 139.322C1719.91 139.322 1719.62 139.314 1719.21 139.297C1718.8 139.28 1718.26 139.271 1717.58 139.271C1717.07 139.271 1716.54 139.28 1715.99 139.297C1715.45 139.314 1715.14 139.322 1715.05 139.322C1714.8 139.322 1714.63 139.305 1714.57 139.271C1714.5 139.237 1714.46 139.161 1714.46 139.042C1714.46 139.008 1714.49 138.889 1714.54 138.684C1714.59 138.48 1714.63 138.353 1714.67 138.302C1714.7 138.2 1714.89 138.149 1715.23 138.149C1716.42 138.149 1717.18 137.808 1717.5 137.128C1717.57 137.026 1718.15 134.747 1719.26 130.29C1720.37 125.834 1720.93 123.495 1720.94 123.274Z" fill="black"/>
<path d="M142.912 381.8C216.367 477.082 420.314 411.878 435.356 292.428C435.387 292.187 435.416 291.947 435.445 291.706L435.381 291.969C432.625 304.712 397.604 295.491 342.943 308.311C288.282 321.131 236.341 294.53 202.148 295.491C139.906 297.239 107.733 300.229 107.733 288.245L107.458 288.089C110.175 321.619 121.929 354.582 142.912 381.8Z" fill="#D9D9D9" fill-opacity="0.3" stroke="black"/>
<path d="M202.104 295.497C139.862 297.245 107.689 300.234 107.689 288.251C111.002 277.103 195.736 260.234 274.434 263.168C335.731 265.454 432.621 282.956 435.381 291.874C432.625 304.617 397.56 295.497 342.899 308.317C288.237 321.136 236.297 294.536 202.104 295.497Z" fill="#D9D9D9" fill-opacity="0.5" stroke="black"/>
<path d="M375.417 234.751L381.115 233.817L379.075 239.218L375.417 234.751ZM417.508 244.554L417.499 244.054L417.508 244.554ZM457.355 234.116C457.552 234.575 457.552 234.575 457.552 234.575C457.552 234.575 457.551 234.576 457.551 234.576C457.55 234.576 457.549 234.577 457.547 234.577C457.544 234.578 457.54 234.58 457.534 234.583C457.522 234.588 457.505 234.595 457.482 234.605C457.437 234.624 457.369 234.653 457.28 234.69C457.102 234.765 456.84 234.875 456.5 235.014C455.822 235.292 454.834 235.69 453.599 236.169C451.129 237.125 447.666 238.404 443.692 239.692C435.758 242.265 425.738 244.894 417.518 245.053L417.499 244.054C425.563 243.898 435.466 241.308 443.384 238.741C447.336 237.459 450.781 236.187 453.238 235.236C454.467 234.76 455.447 234.365 456.121 234.089C456.457 233.951 456.717 233.842 456.892 233.769C456.98 233.732 457.047 233.704 457.091 233.685C457.113 233.675 457.13 233.668 457.141 233.663C457.147 233.661 457.151 233.659 457.154 233.658C457.155 233.657 457.156 233.657 457.157 233.657C457.157 233.657 457.157 233.656 457.157 233.656C457.157 233.656 457.157 233.656 457.355 234.116ZM417.518 245.053C404.631 245.303 387.303 239.647 379.456 236.811L379.796 235.87C387.656 238.711 404.821 244.299 417.499 244.054L417.518 245.053Z" fill="black"/>
<path d="M106.845 224.064C106.845 236.047 139.017 233.058 201.26 231.31C235.453 230.349 287.393 256.949 342.054 244.129C396.716 231.31 431.78 240.43 434.537 227.687" stroke="black"/>
<path d="M107.689 223.777C110.993 212.755 195.509 196.076 274.004 198.977C335.144 201.237 431.783 218.542 434.537 227.359" stroke="black" stroke-dasharray="2 2"/>
<path d="M201.861 231.31C139.779 233.058 107.689 236.047 107.689 224.064C110.993 212.916 195.509 196.047 274.004 198.981C335.144 201.267 431.783 218.768 434.537 227.686C431.787 240.43 396.813 231.31 342.292 244.129C287.772 256.949 235.966 230.349 201.861 231.31Z" fill="#D9D9D9" fill-opacity="0.5"/>
<path d="M201.304 231.304C139.062 233.052 106.889 236.042 106.889 224.058L106.613 223.902C101.938 166.211 124.021 106.843 171.892 72.1857C268.345 2.3556 448.705 109.272 434.6 227.519L434.537 227.782C431.78 240.525 396.76 231.304 342.098 244.124C287.437 256.943 235.497 230.343 201.304 231.304Z" fill="#D9D9D9" fill-opacity="0.3"/>
<path d="M434.512 228.241C434.542 228 434.572 227.76 434.6 227.519M434.6 227.519C448.705 109.272 268.345 2.3556 171.892 72.1857C124.021 106.843 101.938 166.211 106.613 223.902L106.889 224.058C106.889 236.042 139.062 233.052 201.304 231.304C235.497 230.343 287.437 256.943 342.098 244.124C396.76 231.304 431.78 240.525 434.537 227.782L434.6 227.519Z" stroke="black"/>
<path d="M459.874 278.46C459.874 278.309 459.975 278.167 460.176 278.032H468.188L468.364 278.133C468.532 278.368 468.532 278.57 468.364 278.738C468.247 278.855 467.961 278.914 467.508 278.914C467.004 278.964 466.71 279.023 466.626 279.09C466.424 279.157 466.315 279.309 466.298 279.544C466.282 279.779 466.256 280.837 466.223 282.718V285.918H472.395V282.718C472.395 282.349 472.387 281.878 472.37 281.307C472.353 280.266 472.328 279.653 472.295 279.468C472.261 279.283 472.169 279.157 472.018 279.09H471.992C471.892 279.023 471.589 278.964 471.085 278.914C470.43 278.914 470.103 278.771 470.103 278.486C470.103 278.368 470.153 278.25 470.254 278.133L470.43 278.032H478.442C478.627 278.15 478.719 278.292 478.719 278.46C478.719 278.763 478.4 278.914 477.762 278.914C477.09 278.964 476.695 279.099 476.578 279.317C476.544 279.418 476.527 281.862 476.527 286.649C476.527 291.419 476.544 293.846 476.578 293.93C476.695 294.165 477.09 294.308 477.762 294.358C478.4 294.358 478.719 294.518 478.719 294.837C478.719 295.005 478.627 295.148 478.442 295.265H470.43L470.254 295.164C470.153 295.047 470.103 294.929 470.103 294.812C470.103 294.509 470.43 294.358 471.085 294.358C471.791 294.308 472.186 294.165 472.27 293.93C472.353 293.728 472.395 292.569 472.395 290.453V287.102H466.223V290.453C466.223 292.637 466.265 293.795 466.349 293.93C466.433 294.165 466.819 294.308 467.508 294.358C467.928 294.358 468.213 294.417 468.364 294.534C468.516 294.719 468.516 294.929 468.364 295.164L468.188 295.265H460.176C459.975 295.164 459.874 295.022 459.874 294.837C459.874 294.518 460.201 294.358 460.856 294.358C461.545 294.308 461.931 294.165 462.015 293.93C462.099 293.795 462.141 291.368 462.141 286.649C462.141 281.929 462.099 279.485 462.015 279.317C461.915 279.099 461.528 278.964 460.856 278.914C460.201 278.914 459.874 278.763 459.874 278.46ZM465.391 286.649V281.307C465.391 279.93 465.442 279.132 465.543 278.914H462.822C462.872 279.032 462.906 279.115 462.922 279.166C462.939 279.216 462.956 279.51 462.973 280.048C462.99 280.585 463.006 281.307 463.023 282.214C463.04 283.121 463.04 284.599 463.023 286.649C463.023 290.176 463.015 292.292 462.998 292.998C462.981 293.703 462.931 294.14 462.847 294.308C462.83 294.325 462.822 294.341 462.822 294.358H465.543C465.442 294.157 465.391 293.367 465.391 291.99V286.649ZM475.62 286.649V282.92C475.62 281.929 475.62 281.198 475.62 280.728C475.62 280.258 475.629 279.888 475.646 279.619C475.662 279.351 475.679 279.191 475.696 279.141C475.713 279.09 475.746 279.015 475.797 278.914H473.051L473.177 279.141C473.244 279.376 473.277 281.878 473.277 286.649C473.277 290.193 473.269 292.317 473.252 293.023C473.235 293.728 473.177 294.157 473.076 294.308C473.059 294.325 473.051 294.341 473.051 294.358H475.797C475.746 294.257 475.721 294.199 475.721 294.182C475.721 294.165 475.704 294.056 475.671 293.854C475.637 293.653 475.62 293.409 475.62 293.124C475.62 292.838 475.62 292.368 475.62 291.713V286.649Z" fill="black"/>
<path d="M481.491 288.941C481.491 287.782 481.575 286.682 481.743 285.641C481.911 284.6 482.104 283.701 482.322 282.945C482.54 282.189 482.851 281.45 483.254 280.728C483.657 280.006 483.976 279.443 484.212 279.04C484.447 278.637 484.799 278.2 485.27 277.73C485.74 277.26 486.017 276.974 486.101 276.873C486.185 276.772 486.395 276.596 486.731 276.344H487.059H487.159C487.394 276.344 487.512 276.42 487.512 276.571C487.512 276.621 487.369 276.798 487.084 277.1C486.798 277.402 486.454 277.847 486.051 278.435C485.648 279.023 485.236 279.745 484.816 280.602C484.396 281.459 484.044 282.618 483.758 284.079C483.473 285.54 483.33 287.161 483.33 288.941C483.33 290.722 483.473 292.334 483.758 293.779C484.044 295.223 484.388 296.391 484.791 297.281C485.194 298.171 485.606 298.893 486.026 299.447C486.446 300.002 486.798 300.447 487.084 300.783C487.369 301.119 487.512 301.295 487.512 301.312C487.512 301.463 487.386 301.539 487.134 301.539H487.059H486.731L486.026 300.934C484.447 299.506 483.296 297.726 482.574 295.593C481.852 293.46 481.491 291.242 481.491 288.941Z" fill="black"/>
<path d="M505.703 289.017C505.669 289.067 505.551 290.084 505.35 292.065C505.148 294.047 505.031 295.072 504.997 295.139V295.24H497.766C494.071 295.24 491.921 295.24 491.316 295.24C490.712 295.24 490.393 295.198 490.359 295.114V295.089C490.309 294.988 490.309 294.896 490.359 294.812L490.762 294.333C491.031 294.031 491.434 293.577 491.972 292.972C492.509 292.368 493.021 291.788 493.508 291.234L496.607 287.707L490.334 279.015L490.309 278.662C490.309 278.343 490.351 278.15 490.435 278.083C490.485 278.049 492.929 278.032 497.766 278.032H504.997V278.133C505.031 278.217 505.148 279.183 505.35 281.03C505.551 282.878 505.669 283.86 505.703 283.978V284.079H504.695V283.978C504.56 283.004 504.376 282.198 504.14 281.559C503.905 280.921 503.527 280.4 503.007 279.997C502.503 279.645 501.823 279.426 500.966 279.342C500.109 279.258 498.892 279.208 497.313 279.191H496.33H493.685L496.305 282.794C496.658 283.281 497.094 283.886 497.615 284.608C498.539 285.884 499.001 286.573 499.001 286.674C499.001 286.707 498.992 286.733 498.976 286.749L492.803 293.804C497.052 293.804 499.354 293.796 499.706 293.779C500.512 293.745 501.184 293.661 501.722 293.527C502.259 293.392 502.62 293.266 502.805 293.149C502.99 293.031 503.191 292.863 503.41 292.645C503.746 292.275 504.023 291.78 504.241 291.158C504.46 290.537 504.594 290.008 504.644 289.571L504.695 288.916H505.703V289.017Z" fill="black"/>
<path d="M508.625 276.369L508.726 276.344C508.81 276.344 508.894 276.344 508.978 276.344H509.28L509.986 276.949C511.564 278.376 512.715 280.157 513.437 282.29C514.159 284.423 514.521 286.64 514.521 288.941C514.521 290.084 514.437 291.184 514.269 292.242C514.101 293.3 513.908 294.199 513.689 294.938C513.471 295.677 513.16 296.416 512.757 297.155C512.354 297.894 512.035 298.456 511.8 298.843C511.564 299.229 511.22 299.657 510.767 300.128C510.313 300.598 510.044 300.875 509.96 300.959C509.876 301.043 509.683 301.203 509.381 301.438C509.331 301.488 509.297 301.522 509.28 301.539H508.978C508.843 301.539 508.751 301.539 508.701 301.539C508.65 301.539 508.608 301.513 508.575 301.463C508.541 301.413 508.516 301.337 508.499 301.236C508.516 301.219 508.608 301.11 508.776 300.909C511.38 298.205 512.681 294.215 512.681 288.941C512.681 283.667 511.38 279.678 508.776 276.974C508.608 276.772 508.516 276.663 508.499 276.646C508.499 276.512 508.541 276.42 508.625 276.369Z" fill="black"/>
<path d="M459.874 226.1C459.874 225.948 459.975 225.805 460.176 225.671H468.197L468.374 225.772C468.542 226.007 468.542 226.209 468.374 226.377C468.256 226.495 467.97 226.554 467.516 226.554C467.012 226.604 466.717 226.663 466.633 226.73C466.431 226.797 466.322 226.949 466.305 227.184C466.289 227.419 466.263 228.479 466.23 230.362V233.565H472.409V230.362C472.409 229.992 472.401 229.521 472.384 228.95C472.367 227.907 472.342 227.293 472.308 227.108C472.274 226.923 472.182 226.797 472.031 226.73H472.005C471.905 226.663 471.602 226.604 471.097 226.554C470.442 226.554 470.114 226.411 470.114 226.125C470.114 226.007 470.164 225.889 470.265 225.772L470.442 225.671H478.462C478.647 225.788 478.74 225.931 478.74 226.1C478.74 226.402 478.42 226.554 477.781 226.554C477.109 226.604 476.713 226.738 476.596 226.957C476.562 227.058 476.545 229.504 476.545 234.297C476.545 239.072 476.562 241.501 476.596 241.586C476.713 241.821 477.109 241.964 477.781 242.014C478.42 242.014 478.74 242.174 478.74 242.494C478.74 242.662 478.647 242.805 478.462 242.922H470.442L470.265 242.821C470.164 242.704 470.114 242.586 470.114 242.468C470.114 242.166 470.442 242.014 471.097 242.014C471.804 241.964 472.199 241.821 472.283 241.586C472.367 241.384 472.409 240.224 472.409 238.105V234.751H466.23V238.105C466.23 240.291 466.272 241.451 466.356 241.586C466.44 241.821 466.827 241.964 467.516 242.014C467.936 242.014 468.222 242.073 468.374 242.191C468.525 242.376 468.525 242.586 468.374 242.821L468.197 242.922H460.176C459.975 242.821 459.874 242.678 459.874 242.494C459.874 242.174 460.202 242.014 460.857 242.014C461.547 241.964 461.934 241.821 462.018 241.586C462.102 241.451 462.144 239.021 462.144 234.297C462.144 229.572 462.102 227.125 462.018 226.957C461.917 226.738 461.53 226.604 460.857 226.554C460.202 226.554 459.874 226.402 459.874 226.1ZM465.397 234.297V228.95C465.397 227.571 465.448 226.772 465.549 226.554H462.825C462.875 226.671 462.909 226.755 462.926 226.806C462.942 226.856 462.959 227.15 462.976 227.688C462.993 228.227 463.01 228.95 463.027 229.858C463.043 230.766 463.043 232.245 463.027 234.297C463.027 237.828 463.018 239.946 463.001 240.652C462.985 241.359 462.934 241.796 462.85 241.964C462.833 241.981 462.825 241.998 462.825 242.014H465.549C465.448 241.813 465.397 241.022 465.397 239.643V234.297ZM475.637 234.297V230.564C475.637 229.572 475.637 228.84 475.637 228.369C475.637 227.899 475.646 227.529 475.663 227.26C475.679 226.991 475.696 226.831 475.713 226.78C475.73 226.73 475.763 226.654 475.814 226.554H473.065L473.191 226.78C473.258 227.016 473.292 229.521 473.292 234.297C473.292 237.844 473.283 239.971 473.266 240.678C473.25 241.384 473.191 241.813 473.09 241.964C473.073 241.981 473.065 241.998 473.065 242.014H475.814C475.763 241.913 475.738 241.855 475.738 241.838C475.738 241.821 475.721 241.712 475.688 241.51C475.654 241.308 475.637 241.064 475.637 240.778C475.637 240.493 475.637 240.022 475.637 239.366V234.297Z" fill="black"/>
<path d="M483.226 227.381C483.072 225.788 482.995 224.896 482.995 224.706C482.995 224.492 483.137 224.326 483.423 224.207C483.434 224.207 483.464 224.207 483.512 224.207C483.559 224.207 483.595 224.201 483.619 224.189C483.761 224.201 483.892 224.254 484.011 224.349C484.13 224.444 484.189 224.563 484.189 224.706C484.189 224.908 484.154 225.384 484.082 226.132C484.011 226.881 483.969 227.297 483.958 227.381L484.992 226.632C485.658 226.144 486.02 225.883 486.08 225.847C486.139 225.812 486.198 225.794 486.258 225.794C486.412 225.794 486.555 225.853 486.686 225.972C486.817 226.091 486.888 226.251 486.9 226.453C486.9 226.608 486.84 226.745 486.721 226.864C486.662 226.899 486.258 227.095 485.509 227.452C484.76 227.809 484.356 227.999 484.296 228.023L485.473 228.575L486.721 229.2C486.828 229.307 486.882 229.443 486.882 229.61C486.882 229.788 486.828 229.937 486.721 230.055C486.614 230.174 486.472 230.24 486.294 230.252C486.198 230.252 486.091 230.216 485.973 230.145C485.854 230.073 485.527 229.836 484.992 229.431L483.958 228.682C484.112 230.275 484.189 231.167 484.189 231.357C484.189 231.476 484.148 231.589 484.065 231.696C483.981 231.803 483.827 231.856 483.601 231.856C483.375 231.856 483.221 231.803 483.137 231.696C483.054 231.589 483.007 231.476 482.995 231.357C482.995 231.155 483.03 230.68 483.102 229.931C483.173 229.182 483.215 228.766 483.226 228.682L482.192 229.431C481.527 229.919 481.164 230.18 481.104 230.216C481.057 230.252 480.998 230.269 480.926 230.269C480.772 230.269 480.629 230.21 480.498 230.091C480.367 229.972 480.296 229.812 480.284 229.61C480.284 229.55 480.284 229.503 480.284 229.467C480.284 229.431 480.302 229.396 480.338 229.36C480.373 229.324 480.403 229.289 480.427 229.253C480.451 229.217 480.504 229.176 480.587 229.128C480.671 229.081 480.748 229.039 480.819 229.003C480.891 228.968 481.003 228.914 481.158 228.843C481.313 228.772 481.461 228.706 481.604 228.647C481.746 228.587 481.937 228.498 482.174 228.379C482.412 228.26 482.65 228.142 482.888 228.023L480.463 226.864C480.356 226.757 480.302 226.62 480.302 226.453C480.302 226.275 480.356 226.127 480.463 226.008C480.57 225.889 480.712 225.823 480.891 225.812C480.986 225.812 481.093 225.847 481.211 225.919C481.33 225.99 481.657 226.228 482.192 226.632L483.226 227.381Z" fill="black"/>
<path d="M491.693 236.592C491.693 235.432 491.777 234.33 491.946 233.288C492.114 232.245 492.307 231.346 492.526 230.589C492.744 229.832 493.055 229.093 493.459 228.369C493.862 227.646 494.182 227.083 494.417 226.68C494.653 226.276 495.006 225.839 495.477 225.368C495.947 224.897 496.225 224.611 496.309 224.511C496.393 224.41 496.603 224.233 496.939 223.981H497.267H497.368C497.604 223.981 497.721 224.057 497.721 224.208C497.721 224.258 497.578 224.435 497.293 224.738C497.007 225.04 496.662 225.486 496.258 226.074C495.855 226.663 495.443 227.386 495.023 228.243C494.602 229.101 494.249 230.261 493.963 231.724C493.677 233.187 493.535 234.809 493.535 236.592C493.535 238.374 493.677 239.988 493.963 241.434C494.249 242.88 494.594 244.049 494.997 244.94C495.401 245.831 495.813 246.554 496.233 247.109C496.654 247.664 497.007 248.11 497.293 248.446C497.578 248.782 497.721 248.959 497.721 248.976C497.721 249.127 497.595 249.203 497.343 249.203H497.267H496.939L496.233 248.597C494.653 247.168 493.501 245.386 492.778 243.25C492.055 241.115 491.693 238.895 491.693 236.592Z" fill="black"/>
<path d="M515.931 236.667C515.898 236.718 515.78 237.735 515.578 239.719C515.376 241.703 515.259 242.729 515.225 242.796V242.897H507.987C504.287 242.897 502.135 242.897 501.53 242.897C500.924 242.897 500.605 242.855 500.571 242.771V242.746C500.521 242.645 500.521 242.552 500.571 242.468L500.975 241.989C501.244 241.686 501.647 241.232 502.186 240.627C502.724 240.022 503.236 239.442 503.724 238.887L506.826 235.356L500.546 226.654L500.521 226.301C500.521 225.982 500.563 225.788 500.647 225.721C500.697 225.688 503.144 225.671 507.987 225.671H515.225V225.772C515.259 225.856 515.376 226.823 515.578 228.672C515.78 230.522 515.898 231.505 515.931 231.623V231.724H514.922V231.623C514.788 230.648 514.603 229.841 514.368 229.202C514.132 228.563 513.754 228.042 513.233 227.638C512.728 227.285 512.047 227.066 511.19 226.982C510.332 226.898 509.113 226.848 507.533 226.831H506.549H503.901L506.524 230.438C506.877 230.925 507.314 231.531 507.835 232.254C508.76 233.531 509.222 234.221 509.222 234.322C509.222 234.355 509.214 234.381 509.197 234.397L503.018 241.459C507.272 241.459 509.575 241.451 509.929 241.434C510.736 241.401 511.408 241.317 511.946 241.182C512.484 241.048 512.846 240.921 513.031 240.804C513.216 240.686 513.418 240.518 513.636 240.299C513.972 239.929 514.25 239.433 514.468 238.811C514.687 238.189 514.822 237.659 514.872 237.222L514.922 236.566H515.931V236.667Z" fill="black"/>
<path d="M518.857 224.006L518.958 223.981C519.042 223.981 519.126 223.981 519.21 223.981H519.513L520.219 224.586C521.8 226.015 522.951 227.798 523.674 229.933C524.397 232.069 524.759 234.288 524.759 236.592C524.759 237.735 524.675 238.836 524.507 239.896C524.338 240.955 524.145 241.855 523.927 242.594C523.708 243.334 523.397 244.074 522.993 244.814C522.59 245.554 522.27 246.117 522.035 246.504C521.8 246.891 521.455 247.319 521.001 247.79C520.547 248.261 520.278 248.538 520.194 248.622C520.11 248.706 519.916 248.866 519.614 249.102C519.563 249.152 519.53 249.186 519.513 249.203H519.21C519.076 249.203 518.983 249.203 518.933 249.203C518.882 249.203 518.84 249.177 518.807 249.127C518.773 249.076 518.748 249.001 518.731 248.9C518.748 248.883 518.84 248.774 519.008 248.572C521.615 245.865 522.918 241.871 522.918 236.592C522.918 231.312 521.615 227.319 519.008 224.611C518.84 224.41 518.748 224.3 518.731 224.284C518.731 224.149 518.773 224.057 518.857 224.006Z" fill="black"/>
<path d="M401.354 396.838C401.354 396.736 400.867 396.667 399.893 396.633C399.482 396.633 399.217 396.625 399.098 396.607C398.978 396.59 398.918 396.505 398.918 396.351C398.918 396.334 398.935 396.24 398.97 396.069C398.987 396.018 399.004 395.958 399.021 395.89C399.038 395.821 399.047 395.779 399.047 395.761C399.047 395.744 399.064 395.702 399.098 395.633C399.132 395.565 399.149 395.539 399.149 395.556C399.149 395.573 399.183 395.556 399.252 395.505C399.32 395.454 399.363 395.437 399.38 395.454C399.397 395.471 399.465 395.471 399.585 395.454C399.705 395.437 399.807 395.428 399.893 395.428C399.995 395.428 400.251 395.428 400.662 395.428C401.072 395.428 401.456 395.437 401.815 395.454C403.165 395.454 403.943 395.454 404.148 395.454C404.353 395.454 404.49 395.497 404.558 395.582C404.575 395.65 404.892 398.06 405.507 402.812L406.43 409.964L407.019 409.016C407.43 408.4 407.977 407.546 408.66 406.452C409.344 405.358 410.096 404.162 410.916 402.863C413.907 398.094 415.42 395.693 415.454 395.659C415.471 395.642 415.497 395.616 415.531 395.582C415.565 395.548 415.599 395.522 415.633 395.505L415.787 395.454H418.248C418.539 395.454 418.881 395.454 419.274 395.454C419.667 395.454 419.915 395.445 420.017 395.428C420.598 395.428 420.889 395.522 420.889 395.71C420.889 395.796 420.863 395.941 420.812 396.146C420.761 396.351 420.735 396.462 420.735 396.479C420.667 396.582 420.351 396.633 419.787 396.633C419.103 396.65 418.667 396.676 418.479 396.71C418.291 396.744 418.137 396.838 418.018 396.992C417.966 397.077 417.351 399.496 416.172 404.247C414.992 408.998 414.394 411.4 414.377 411.451C414.377 411.519 414.386 411.562 414.403 411.579C414.42 411.596 414.48 411.631 414.582 411.682C414.685 411.733 414.83 411.75 415.018 411.733C415.206 411.716 415.488 411.733 415.864 411.784H416.659C416.761 411.938 416.813 412.032 416.813 412.066C416.813 412.34 416.753 412.596 416.633 412.835C416.548 412.921 416.411 412.964 416.223 412.964C416.138 412.964 415.787 412.955 415.172 412.938C414.557 412.921 413.77 412.912 412.813 412.912C411.771 412.912 410.985 412.912 410.455 412.912C409.925 412.912 409.626 412.921 409.558 412.938C409.267 412.938 409.122 412.853 409.122 412.682C409.122 412.647 409.139 412.528 409.173 412.323C409.241 412.049 409.31 411.895 409.378 411.861C409.446 411.827 409.643 411.801 409.968 411.784C410.429 411.784 410.942 411.759 411.506 411.707C411.745 411.656 411.908 411.554 411.993 411.4C412.027 411.331 412.352 410.084 412.967 407.657C413.582 405.23 414.189 402.812 414.787 400.402C415.386 397.992 415.685 396.787 415.685 396.787L410.711 404.709C407.361 410.041 405.644 412.75 405.558 412.835C405.524 412.853 405.49 412.87 405.456 412.887C405.37 412.938 405.233 412.964 405.045 412.964C404.789 412.964 404.635 412.904 404.584 412.784C404.55 412.716 404.199 410.067 403.533 404.837L402.533 396.966L400.79 403.888C399.645 408.434 399.072 410.785 399.072 410.938C399.175 411.502 399.79 411.784 400.918 411.784H401.174C401.277 411.87 401.337 411.947 401.354 412.015C401.371 412.083 401.345 412.237 401.277 412.477C401.209 412.75 401.14 412.904 401.072 412.938C401.003 412.955 400.909 412.964 400.79 412.964C400.756 412.964 400.653 412.964 400.482 412.964C400.311 412.964 400.021 412.955 399.611 412.938C399.2 412.921 398.653 412.912 397.97 412.912C397.457 412.912 396.927 412.921 396.38 412.938C395.833 412.955 395.517 412.964 395.432 412.964C395.175 412.964 395.013 412.947 394.945 412.912C394.876 412.878 394.842 412.801 394.842 412.682C394.842 412.647 394.868 412.528 394.919 412.323C394.97 412.118 395.013 411.989 395.047 411.938C395.081 411.836 395.269 411.784 395.611 411.784C396.808 411.784 397.568 411.443 397.893 410.759C397.961 410.656 398.551 408.366 399.662 403.888C400.773 399.41 401.337 397.06 401.354 396.838Z" fill="black"/>
<path d="M424.108 398.08C424.108 398.08 424.108 398.002 424.108 397.844C424.108 397.687 424.193 397.567 424.362 397.482H434.893C435.074 397.579 435.165 397.699 435.165 397.844C435.165 397.989 435.074 398.11 434.893 398.207H424.362C424.193 398.122 424.108 398.002 424.108 397.844V398.08Z" fill="black"/>
<path d="M399.753 74.5226C399.753 74.4187 399.259 74.3494 398.272 74.3148C397.856 74.3148 397.588 74.3061 397.466 74.2888C397.345 74.2715 397.284 74.1848 397.284 74.0289C397.284 74.0116 397.302 73.9163 397.336 73.7431C397.354 73.6911 397.371 73.6305 397.388 73.5612C397.406 73.4919 397.414 73.4486 397.414 73.4313C397.414 73.414 397.432 73.3707 397.466 73.3014C397.501 73.2321 397.518 73.2061 397.518 73.2234C397.518 73.2408 397.553 73.2234 397.622 73.1715C397.691 73.1195 397.735 73.1022 397.752 73.1195C397.769 73.1368 397.839 73.1368 397.96 73.1195C398.081 73.1022 398.185 73.0935 398.272 73.0935C398.376 73.0935 398.636 73.0935 399.051 73.0935C399.467 73.0935 399.857 73.1022 400.221 73.1195C401.589 73.1195 402.377 73.1195 402.585 73.1195C402.793 73.1195 402.932 73.1628 403.001 73.2494C403.018 73.3187 403.339 75.7612 403.962 80.577L404.898 87.8265L405.495 86.8651C405.911 86.2415 406.465 85.3754 407.158 84.2667C407.851 83.1581 408.613 81.9455 409.445 80.6289C412.476 75.7959 414.01 73.362 414.044 73.3274C414.062 73.31 414.087 73.2841 414.122 73.2494C414.157 73.2148 414.191 73.1888 414.226 73.1715L414.382 73.1195H416.876C417.171 73.1195 417.517 73.1195 417.916 73.1195C418.314 73.1195 418.565 73.1108 418.669 73.0935C419.258 73.0935 419.553 73.1888 419.553 73.3793C419.553 73.466 419.527 73.6132 419.475 73.8211C419.423 74.0289 419.397 74.1415 419.397 74.1589C419.328 74.2628 419.007 74.3148 418.436 74.3148C417.743 74.3321 417.301 74.3581 417.11 74.3927C416.92 74.4274 416.764 74.5226 416.643 74.6785C416.591 74.7652 415.967 77.2163 414.772 82.0321C413.576 86.8478 412.97 89.2817 412.953 89.3336C412.953 89.4029 412.962 89.4462 412.979 89.4636C412.996 89.4809 413.057 89.5155 413.161 89.5675C413.265 89.6195 413.412 89.6368 413.602 89.6195C413.793 89.6021 414.079 89.6195 414.46 89.6714H415.265C415.369 89.8273 415.421 89.9226 415.421 89.9573C415.421 90.2344 415.361 90.4943 415.239 90.7368C415.153 90.8234 415.014 90.8667 414.824 90.8667C414.737 90.8667 414.382 90.858 413.758 90.8407C413.135 90.8234 412.338 90.8147 411.368 90.8147C410.311 90.8147 409.514 90.8147 408.977 90.8147C408.44 90.8147 408.137 90.8234 408.068 90.8407C407.773 90.8407 407.626 90.7541 407.626 90.5809C407.626 90.5462 407.643 90.425 407.678 90.2171C407.747 89.9399 407.817 89.784 407.886 89.7494C407.955 89.7147 408.154 89.6887 408.484 89.6714C408.951 89.6714 409.471 89.6454 410.043 89.5935C410.285 89.5415 410.45 89.4376 410.536 89.2817C410.571 89.2124 410.9 87.9478 411.524 85.488C412.147 83.0281 412.762 80.577 413.369 78.1344C413.975 75.6919 414.278 74.4707 414.278 74.4707L409.237 82.4998C405.842 87.9045 404.101 90.6502 404.014 90.7368C403.98 90.7541 403.945 90.7714 403.91 90.7887C403.824 90.8407 403.685 90.8667 403.495 90.8667C403.235 90.8667 403.079 90.8061 403.027 90.6848C402.992 90.6155 402.637 87.9305 401.962 82.6297L400.948 74.6526L399.181 81.6683C398.021 86.2762 397.44 88.658 397.44 88.8139C397.544 89.3856 398.168 89.6714 399.311 89.6714H399.571C399.675 89.758 399.736 89.836 399.753 89.9053C399.77 89.9746 399.744 90.1305 399.675 90.373C399.606 90.6502 399.536 90.8061 399.467 90.8407C399.398 90.858 399.302 90.8667 399.181 90.8667C399.147 90.8667 399.043 90.8667 398.869 90.8667C398.696 90.8667 398.402 90.858 397.986 90.8407C397.57 90.8234 397.016 90.8147 396.323 90.8147C395.803 90.8147 395.266 90.8234 394.712 90.8407C394.158 90.858 393.837 90.8667 393.751 90.8667C393.491 90.8667 393.326 90.8494 393.257 90.8147C393.188 90.7801 393.153 90.7021 393.153 90.5809C393.153 90.5462 393.179 90.425 393.231 90.2171C393.283 90.0092 393.326 89.8793 393.361 89.8273C393.395 89.7234 393.586 89.6714 393.932 89.6714C395.145 89.6714 395.916 89.325 396.245 88.6321C396.314 88.5281 396.912 86.2069 398.038 81.6683C399.164 77.1297 399.736 74.7478 399.753 74.5226Z" fill="black"/>
<path d="M422.302 75.7814C422.302 75.7814 422.302 75.7018 422.302 75.5426C422.302 75.3834 422.387 75.2609 422.559 75.1752H428.052V72.4195L428.07 69.6639C428.193 69.5047 428.309 69.4251 428.419 69.4251C428.578 69.4251 428.701 69.517 428.787 69.7007V75.1752H434.261C434.445 75.2731 434.537 75.3956 434.537 75.5426C434.537 75.6895 434.445 75.812 434.261 75.91H428.787V81.3845C428.689 81.556 428.578 81.6417 428.456 81.6417H428.419H428.382C428.236 81.6417 428.125 81.556 428.052 81.3845V75.91H422.559C422.387 75.8243 422.302 75.7018 422.302 75.5426V75.7814Z" fill="black"/>
<path d="M371.194 289.013L376.912 289.814L374.747 284.462L371.194 289.013ZM413.127 278.328L413.125 278.828L413.127 278.328ZM453.132 288.377C453.326 287.917 453.326 287.917 453.326 287.916C453.326 287.916 453.325 287.916 453.325 287.916C453.324 287.916 453.323 287.915 453.321 287.915C453.318 287.913 453.314 287.911 453.308 287.909C453.296 287.904 453.279 287.897 453.256 287.887C453.21 287.868 453.142 287.84 453.052 287.803C452.873 287.729 452.609 287.621 452.267 287.484C451.584 287.21 450.591 286.819 449.349 286.349C446.864 285.41 443.381 284.156 439.387 282.901C431.413 280.394 421.352 277.862 413.129 277.828L413.125 278.828C421.189 278.861 431.131 281.354 439.087 283.855C443.059 285.103 446.523 286.35 448.995 287.284C450.23 287.752 451.217 288.14 451.895 288.412C452.234 288.548 452.495 288.655 452.672 288.728C452.76 288.764 452.827 288.792 452.871 288.81C452.894 288.82 452.911 288.827 452.922 288.831C452.927 288.834 452.932 288.836 452.934 288.837C452.936 288.837 452.937 288.838 452.937 288.838C452.938 288.838 452.938 288.838 452.938 288.838C452.938 288.838 452.938 288.838 453.132 288.377ZM413.129 277.828C400.231 277.775 382.98 283.838 375.185 286.859L375.546 287.792C383.355 284.765 400.44 278.776 413.125 278.828L413.129 277.828Z" fill="black"/>
<path d="M776.497 381.8C849.952 477.082 1053.9 411.878 1068.94 292.428C1068.97 292.187 1069 291.947 1069.03 291.706L1068.97 291.969C1066.21 304.712 1031.19 295.491 976.528 308.311C921.867 321.131 869.927 294.53 835.734 295.491C773.491 297.239 741.318 300.229 741.318 288.245L741.043 288.089C743.76 321.619 755.515 354.582 776.497 381.8Z" fill="#66C9F3" fill-opacity="0.3" stroke="black"/>
<path d="M835.689 295.497C773.447 297.245 741.274 300.234 741.274 288.251C744.587 277.103 829.321 260.234 908.019 263.168C969.317 265.454 1066.21 282.956 1068.97 291.874C1066.21 304.617 1031.15 295.497 976.484 308.317C921.822 321.136 869.883 294.536 835.689 295.497Z" fill="#66C9F3" fill-opacity="0.5" stroke="black"/>
<path d="M1009 234.751L1014.7 233.817L1012.66 239.218L1009 234.751ZM1051.09 244.554L1051.08 244.054L1051.09 244.554ZM1090.94 234.116C1091.14 234.575 1091.14 234.575 1091.14 234.575C1091.14 234.575 1091.14 234.576 1091.14 234.576C1091.14 234.576 1091.13 234.577 1091.13 234.577C1091.13 234.578 1091.13 234.58 1091.12 234.583C1091.11 234.588 1091.09 234.595 1091.07 234.605C1091.02 234.624 1090.95 234.653 1090.87 234.69C1090.69 234.765 1090.42 234.875 1090.09 235.014C1089.41 235.292 1088.42 235.69 1087.18 236.169C1084.71 237.125 1081.25 238.404 1077.28 239.692C1069.34 242.265 1059.32 244.894 1051.1 245.053L1051.08 244.054C1059.15 243.898 1069.05 241.308 1076.97 238.741C1080.92 237.459 1084.37 236.187 1086.82 235.236C1088.05 234.76 1089.03 234.365 1089.71 234.089C1090.04 233.951 1090.3 233.842 1090.48 233.769C1090.57 233.732 1090.63 233.704 1090.68 233.685C1090.7 233.675 1090.72 233.668 1090.73 233.663C1090.73 233.661 1090.74 233.659 1090.74 233.658C1090.74 233.657 1090.74 233.657 1090.74 233.657C1090.74 233.657 1090.74 233.656 1090.74 233.656C1090.74 233.656 1090.74 233.656 1090.94 234.116ZM1051.1 245.053C1038.22 245.303 1020.89 239.647 1013.04 236.811L1013.38 235.87C1021.24 238.711 1038.41 244.299 1051.08 244.054L1051.1 245.053Z" fill="black"/>
<path d="M740.43 224.064C740.43 236.047 772.602 233.058 834.845 231.31C869.038 230.349 920.978 256.949 975.639 244.129C1030.3 231.31 1065.37 240.43 1068.12 227.687" stroke="black"/>
<path d="M741.274 223.777C744.578 212.755 829.094 196.076 907.589 198.977C968.729 201.237 1065.37 218.542 1068.12 227.359" stroke="black" stroke-dasharray="2 2"/>
<path d="M835.446 231.31C773.364 233.058 741.274 236.047 741.274 224.064C744.578 212.916 829.094 196.047 907.589 198.981C968.729 201.267 1065.37 218.768 1068.12 227.686C1065.37 240.43 1030.4 231.31 975.878 244.129C921.357 256.949 869.551 230.349 835.446 231.31Z" fill="#D9D9D9" fill-opacity="0.5"/>
<path d="M834.889 231.304C772.647 233.052 740.474 236.042 740.474 224.058L740.198 223.902C735.524 166.211 757.606 106.843 805.477 72.1857C901.93 2.3556 1082.29 109.272 1068.19 227.519L1068.12 227.782C1065.37 240.525 1030.34 231.304 975.684 244.124C921.022 256.943 869.082 230.343 834.889 231.304Z" fill="#D9D9D9" fill-opacity="0.3"/>
<path d="M1068.1 228.241C1068.13 228 1068.16 227.76 1068.19 227.519M1068.19 227.519C1082.29 109.272 901.93 2.3556 805.477 72.1857C757.606 106.843 735.524 166.211 740.198 223.902L740.474 224.058C740.474 236.042 772.647 233.052 834.889 231.304C869.082 230.343 921.022 256.943 975.684 244.124C1030.34 231.304 1065.37 240.525 1068.12 227.782L1068.19 227.519Z" stroke="black"/>
<path d="M1093.46 226.1C1093.46 225.948 1093.56 225.805 1093.76 225.671H1101.78L1101.96 225.772C1102.13 226.007 1102.13 226.209 1101.96 226.377C1101.84 226.495 1101.56 226.554 1101.1 226.554C1100.6 226.604 1100.3 226.663 1100.22 226.73C1100.02 226.797 1099.91 226.949 1099.89 227.184C1099.87 227.419 1099.85 228.479 1099.81 230.362V233.565H1105.99V230.362C1105.99 229.992 1105.99 229.521 1105.97 228.95C1105.95 227.907 1105.93 227.293 1105.89 227.108C1105.86 226.923 1105.77 226.797 1105.62 226.73H1105.59C1105.49 226.663 1105.19 226.604 1104.68 226.554C1104.03 226.554 1103.7 226.411 1103.7 226.125C1103.7 226.007 1103.75 225.889 1103.85 225.772L1104.03 225.671H1112.05C1112.23 225.788 1112.32 225.931 1112.32 226.1C1112.32 226.402 1112.01 226.554 1111.37 226.554C1110.69 226.604 1110.3 226.738 1110.18 226.957C1110.15 227.058 1110.13 229.504 1110.13 234.297C1110.13 239.072 1110.15 241.501 1110.18 241.586C1110.3 241.821 1110.69 241.964 1111.37 242.014C1112.01 242.014 1112.32 242.174 1112.32 242.494C1112.32 242.662 1112.23 242.805 1112.05 242.922H1104.03L1103.85 242.821C1103.75 242.704 1103.7 242.586 1103.7 242.468C1103.7 242.166 1104.03 242.014 1104.68 242.014C1105.39 241.964 1105.78 241.821 1105.87 241.586C1105.95 241.384 1105.99 240.224 1105.99 238.105V234.751H1099.81V238.105C1099.81 240.291 1099.86 241.451 1099.94 241.586C1100.03 241.821 1100.41 241.964 1101.1 242.014C1101.52 242.014 1101.81 242.073 1101.96 242.191C1102.11 242.376 1102.11 242.586 1101.96 242.821L1101.78 242.922H1093.76C1093.56 242.821 1093.46 242.678 1093.46 242.494C1093.46 242.174 1093.79 242.014 1094.44 242.014C1095.13 241.964 1095.52 241.821 1095.6 241.586C1095.69 241.451 1095.73 239.021 1095.73 234.297C1095.73 229.572 1095.69 227.125 1095.6 226.957C1095.5 226.738 1095.12 226.604 1094.44 226.554C1093.79 226.554 1093.46 226.402 1093.46 226.1ZM1098.98 234.297V228.95C1098.98 227.571 1099.03 226.772 1099.13 226.554H1096.41C1096.46 226.671 1096.49 226.755 1096.51 226.806C1096.53 226.856 1096.54 227.15 1096.56 227.688C1096.58 228.227 1096.59 228.95 1096.61 229.858C1096.63 230.766 1096.63 232.245 1096.61 234.297C1096.61 237.828 1096.6 239.946 1096.59 240.652C1096.57 241.359 1096.52 241.796 1096.44 241.964C1096.42 241.981 1096.41 241.998 1096.41 242.014H1099.13C1099.03 241.813 1098.98 241.022 1098.98 239.643V234.297ZM1109.22 234.297V230.564C1109.22 229.572 1109.22 228.84 1109.22 228.369C1109.22 227.899 1109.23 227.529 1109.25 227.26C1109.26 226.991 1109.28 226.831 1109.3 226.78C1109.31 226.73 1109.35 226.654 1109.4 226.554H1106.65L1106.78 226.78C1106.84 227.016 1106.88 229.521 1106.88 234.297C1106.88 237.844 1106.87 239.971 1106.85 240.678C1106.83 241.384 1106.78 241.813 1106.68 241.964C1106.66 241.981 1106.65 241.998 1106.65 242.014H1109.4C1109.35 241.913 1109.32 241.855 1109.32 241.838C1109.32 241.821 1109.31 241.712 1109.27 241.51C1109.24 241.308 1109.22 241.064 1109.22 240.778C1109.22 240.493 1109.22 240.022 1109.22 239.366V234.297Z" fill="black"/>
<path d="M1116.81 227.381C1116.66 225.788 1116.58 224.896 1116.58 224.706C1116.58 224.492 1116.72 224.326 1117.01 224.207C1117.02 224.207 1117.05 224.207 1117.1 224.207C1117.14 224.207 1117.18 224.201 1117.2 224.189C1117.35 224.201 1117.48 224.254 1117.6 224.349C1117.72 224.444 1117.77 224.563 1117.77 224.706C1117.77 224.908 1117.74 225.384 1117.67 226.132C1117.6 226.881 1117.55 227.297 1117.54 227.381L1118.58 226.632C1119.24 226.144 1119.61 225.883 1119.66 225.847C1119.72 225.812 1119.78 225.794 1119.84 225.794C1120 225.794 1120.14 225.853 1120.27 225.972C1120.4 226.091 1120.47 226.251 1120.48 226.453C1120.48 226.608 1120.43 226.745 1120.31 226.864C1120.25 226.899 1119.84 227.095 1119.09 227.452C1118.35 227.809 1117.94 227.999 1117.88 228.023L1119.06 228.575L1120.31 229.2C1120.41 229.307 1120.47 229.443 1120.47 229.61C1120.47 229.788 1120.41 229.937 1120.31 230.055C1120.2 230.174 1120.06 230.24 1119.88 230.252C1119.78 230.252 1119.68 230.216 1119.56 230.145C1119.44 230.073 1119.11 229.836 1118.58 229.431L1117.54 228.682C1117.7 230.275 1117.77 231.167 1117.77 231.357C1117.77 231.476 1117.73 231.589 1117.65 231.696C1117.57 231.803 1117.41 231.856 1117.19 231.856C1116.96 231.856 1116.81 231.803 1116.72 231.696C1116.64 231.589 1116.59 231.476 1116.58 231.357C1116.58 231.155 1116.62 230.68 1116.69 229.931C1116.76 229.182 1116.8 228.766 1116.81 228.682L1115.78 229.431C1115.11 229.919 1114.75 230.18 1114.69 230.216C1114.64 230.252 1114.58 230.269 1114.51 230.269C1114.36 230.269 1114.21 230.21 1114.08 230.091C1113.95 229.972 1113.88 229.812 1113.87 229.61C1113.87 229.55 1113.87 229.503 1113.87 229.467C1113.87 229.431 1113.89 229.396 1113.92 229.36C1113.96 229.324 1113.99 229.289 1114.01 229.253C1114.04 229.217 1114.09 229.176 1114.17 229.128C1114.26 229.081 1114.33 229.039 1114.4 229.003C1114.48 228.968 1114.59 228.914 1114.74 228.843C1114.9 228.772 1115.05 228.706 1115.19 228.647C1115.33 228.587 1115.52 228.498 1115.76 228.379C1116 228.26 1116.24 228.142 1116.47 228.023L1114.05 226.864C1113.94 226.757 1113.89 226.62 1113.89 226.453C1113.89 226.275 1113.94 226.127 1114.05 226.008C1114.15 225.889 1114.3 225.823 1114.48 225.812C1114.57 225.812 1114.68 225.847 1114.8 225.919C1114.92 225.99 1115.24 226.228 1115.78 226.632L1116.81 227.381Z" fill="black"/>
<path d="M1125.28 236.592C1125.28 235.432 1125.36 234.33 1125.53 233.288C1125.7 232.245 1125.89 231.346 1126.11 230.589C1126.33 229.832 1126.64 229.093 1127.04 228.369C1127.45 227.646 1127.77 227.083 1128 226.68C1128.24 226.276 1128.59 225.839 1129.06 225.368C1129.53 224.897 1129.81 224.611 1129.89 224.511C1129.98 224.41 1130.19 224.233 1130.52 223.981H1130.85H1130.95C1131.19 223.981 1131.31 224.057 1131.31 224.208C1131.31 224.258 1131.16 224.435 1130.88 224.738C1130.59 225.04 1130.25 225.486 1129.84 226.074C1129.44 226.663 1129.03 227.386 1128.61 228.243C1128.19 229.101 1127.83 230.261 1127.55 231.724C1127.26 233.187 1127.12 234.809 1127.12 236.592C1127.12 238.374 1127.26 239.988 1127.55 241.434C1127.83 242.88 1128.18 244.049 1128.58 244.94C1128.99 245.831 1129.4 246.554 1129.82 247.109C1130.24 247.664 1130.59 248.11 1130.88 248.446C1131.16 248.782 1131.31 248.959 1131.31 248.976C1131.31 249.127 1131.18 249.203 1130.93 249.203H1130.85H1130.52L1129.82 248.597C1128.24 247.168 1127.09 245.386 1126.36 243.25C1125.64 241.115 1125.28 238.895 1125.28 236.592Z" fill="black"/>
<path d="M1149.52 236.667C1149.48 236.718 1149.37 237.735 1149.16 239.719C1148.96 241.703 1148.84 242.729 1148.81 242.796V242.897H1141.57C1137.87 242.897 1135.72 242.897 1135.11 242.897C1134.51 242.897 1134.19 242.855 1134.16 242.771V242.746C1134.11 242.645 1134.11 242.552 1134.16 242.468L1134.56 241.989C1134.83 241.686 1135.23 241.232 1135.77 240.627C1136.31 240.022 1136.82 239.442 1137.31 238.887L1140.41 235.356L1134.13 226.654L1134.11 226.301C1134.11 225.982 1134.15 225.788 1134.23 225.721C1134.28 225.688 1136.73 225.671 1141.57 225.671H1148.81V225.772C1148.84 225.856 1148.96 226.823 1149.16 228.672C1149.37 230.522 1149.48 231.505 1149.52 231.623V231.724H1148.51V231.623C1148.37 230.648 1148.19 229.841 1147.95 229.202C1147.72 228.563 1147.34 228.042 1146.82 227.638C1146.31 227.285 1145.63 227.066 1144.77 226.982C1143.92 226.898 1142.7 226.848 1141.12 226.831H1140.13H1137.49L1140.11 230.438C1140.46 230.925 1140.9 231.531 1141.42 232.254C1142.35 233.531 1142.81 234.221 1142.81 234.322C1142.81 234.355 1142.8 234.381 1142.78 234.397L1136.6 241.459C1140.86 241.459 1143.16 241.451 1143.51 241.434C1144.32 241.401 1144.99 241.317 1145.53 241.182C1146.07 241.048 1146.43 240.921 1146.62 240.804C1146.8 240.686 1147 240.518 1147.22 240.299C1147.56 239.929 1147.84 239.433 1148.05 238.811C1148.27 238.189 1148.41 237.659 1148.46 237.222L1148.51 236.566H1149.52V236.667Z" fill="black"/>
<path d="M1152.44 224.006L1152.54 223.981C1152.63 223.981 1152.71 223.981 1152.8 223.981H1153.1L1153.8 224.586C1155.38 226.015 1156.54 227.798 1157.26 229.933C1157.98 232.069 1158.34 234.288 1158.34 236.592C1158.34 237.735 1158.26 238.836 1158.09 239.896C1157.92 240.955 1157.73 241.855 1157.51 242.594C1157.29 243.334 1156.98 244.074 1156.58 244.814C1156.17 245.554 1155.86 246.117 1155.62 246.504C1155.38 246.891 1155.04 247.319 1154.59 247.79C1154.13 248.261 1153.86 248.538 1153.78 248.622C1153.69 248.706 1153.5 248.866 1153.2 249.102C1153.15 249.152 1153.11 249.186 1153.1 249.203H1152.8C1152.66 249.203 1152.57 249.203 1152.52 249.203C1152.47 249.203 1152.43 249.177 1152.39 249.127C1152.36 249.076 1152.33 249.001 1152.32 248.9C1152.33 248.883 1152.43 248.774 1152.59 248.572C1155.2 245.865 1156.5 241.871 1156.5 236.592C1156.5 231.312 1155.2 227.319 1152.59 224.611C1152.43 224.41 1152.33 224.3 1152.32 224.284C1152.32 224.149 1152.36 224.057 1152.44 224.006Z" fill="black"/>
<path d="M1034.94 396.838C1034.94 396.736 1034.45 396.667 1033.48 396.633C1033.07 396.633 1032.8 396.625 1032.68 396.607C1032.56 396.59 1032.5 396.505 1032.5 396.351C1032.5 396.334 1032.52 396.24 1032.55 396.069C1032.57 396.018 1032.59 395.958 1032.61 395.89C1032.62 395.821 1032.63 395.779 1032.63 395.761C1032.63 395.744 1032.65 395.702 1032.68 395.633C1032.72 395.565 1032.73 395.539 1032.73 395.556C1032.73 395.573 1032.77 395.556 1032.84 395.505C1032.91 395.454 1032.95 395.437 1032.96 395.454C1032.98 395.471 1033.05 395.471 1033.17 395.454C1033.29 395.437 1033.39 395.428 1033.48 395.428C1033.58 395.428 1033.84 395.428 1034.25 395.428C1034.66 395.428 1035.04 395.437 1035.4 395.454C1036.75 395.454 1037.53 395.454 1037.73 395.454C1037.94 395.454 1038.08 395.497 1038.14 395.582C1038.16 395.65 1038.48 398.06 1039.09 402.812L1040.01 409.964L1040.6 409.016C1041.01 408.4 1041.56 407.546 1042.25 406.452C1042.93 405.358 1043.68 404.162 1044.5 402.863C1047.49 398.094 1049 395.693 1049.04 395.659C1049.06 395.642 1049.08 395.616 1049.12 395.582C1049.15 395.548 1049.18 395.522 1049.22 395.505L1049.37 395.454H1051.83C1052.12 395.454 1052.47 395.454 1052.86 395.454C1053.25 395.454 1053.5 395.445 1053.6 395.428C1054.18 395.428 1054.47 395.522 1054.47 395.71C1054.47 395.796 1054.45 395.941 1054.4 396.146C1054.35 396.351 1054.32 396.462 1054.32 396.479C1054.25 396.582 1053.94 396.633 1053.37 396.633C1052.69 396.65 1052.25 396.676 1052.06 396.71C1051.88 396.744 1051.72 396.838 1051.6 396.992C1051.55 397.077 1050.94 399.496 1049.76 404.247C1048.58 408.998 1047.98 411.4 1047.96 411.451C1047.96 411.519 1047.97 411.562 1047.99 411.579C1048.01 411.596 1048.06 411.631 1048.17 411.682C1048.27 411.733 1048.42 411.75 1048.6 411.733C1048.79 411.716 1049.07 411.733 1049.45 411.784H1050.24C1050.35 411.938 1050.4 412.032 1050.4 412.066C1050.4 412.34 1050.34 412.596 1050.22 412.835C1050.13 412.921 1050 412.964 1049.81 412.964C1049.72 412.964 1049.37 412.955 1048.76 412.938C1048.14 412.921 1047.36 412.912 1046.4 412.912C1045.36 412.912 1044.57 412.912 1044.04 412.912C1043.51 412.912 1043.21 412.921 1043.14 412.938C1042.85 412.938 1042.71 412.853 1042.71 412.682C1042.71 412.647 1042.72 412.528 1042.76 412.323C1042.83 412.049 1042.89 411.895 1042.96 411.861C1043.03 411.827 1043.23 411.801 1043.55 411.784C1044.01 411.784 1044.53 411.759 1045.09 411.707C1045.33 411.656 1045.49 411.554 1045.58 411.4C1045.61 411.331 1045.94 410.084 1046.55 407.657C1047.17 405.23 1047.77 402.812 1048.37 400.402C1048.97 397.992 1049.27 396.787 1049.27 396.787L1044.3 404.709C1040.95 410.041 1039.23 412.75 1039.14 412.835C1039.11 412.853 1039.07 412.87 1039.04 412.887C1038.96 412.938 1038.82 412.964 1038.63 412.964C1038.37 412.964 1038.22 412.904 1038.17 412.784C1038.13 412.716 1037.78 410.067 1037.12 404.837L1036.12 396.966L1034.37 403.888C1033.23 408.434 1032.66 410.785 1032.66 410.938C1032.76 411.502 1033.38 411.784 1034.5 411.784H1034.76C1034.86 411.87 1034.92 411.947 1034.94 412.015C1034.96 412.083 1034.93 412.237 1034.86 412.477C1034.79 412.75 1034.73 412.904 1034.66 412.938C1034.59 412.955 1034.49 412.964 1034.37 412.964C1034.34 412.964 1034.24 412.964 1034.07 412.964C1033.9 412.964 1033.61 412.955 1033.2 412.938C1032.79 412.921 1032.24 412.912 1031.55 412.912C1031.04 412.912 1030.51 412.921 1029.97 412.938C1029.42 412.955 1029.1 412.964 1029.02 412.964C1028.76 412.964 1028.6 412.947 1028.53 412.912C1028.46 412.878 1028.43 412.801 1028.43 412.682C1028.43 412.647 1028.45 412.528 1028.5 412.323C1028.56 412.118 1028.6 411.989 1028.63 411.938C1028.67 411.836 1028.85 411.784 1029.2 411.784C1030.39 411.784 1031.15 411.443 1031.48 410.759C1031.55 410.656 1032.14 408.366 1033.25 403.888C1034.36 399.41 1034.92 397.06 1034.94 396.838Z" fill="black"/>
<path d="M1057.69 398.08C1057.69 398.08 1057.69 398.002 1057.69 397.844C1057.69 397.687 1057.78 397.567 1057.95 397.482H1068.48C1068.66 397.579 1068.75 397.699 1068.75 397.844C1068.75 397.989 1068.66 398.11 1068.48 398.207H1057.95C1057.78 398.122 1057.69 398.002 1057.69 397.844V398.08Z" fill="black"/>
<path d="M1033.34 74.5226C1033.34 74.4187 1032.84 74.3494 1031.86 74.3148C1031.44 74.3148 1031.17 74.3061 1031.05 74.2888C1030.93 74.2715 1030.87 74.1848 1030.87 74.0289C1030.87 74.0116 1030.89 73.9163 1030.92 73.7431C1030.94 73.6911 1030.96 73.6305 1030.97 73.5612C1030.99 73.4919 1031 73.4486 1031 73.4313C1031 73.414 1031.02 73.3707 1031.05 73.3014C1031.09 73.2321 1031.1 73.2061 1031.1 73.2234C1031.1 73.2408 1031.14 73.2234 1031.21 73.1715C1031.28 73.1195 1031.32 73.1022 1031.34 73.1195C1031.35 73.1368 1031.42 73.1368 1031.55 73.1195C1031.67 73.1022 1031.77 73.0935 1031.86 73.0935C1031.96 73.0935 1032.22 73.0935 1032.64 73.0935C1033.05 73.0935 1033.44 73.1022 1033.81 73.1195C1035.17 73.1195 1035.96 73.1195 1036.17 73.1195C1036.38 73.1195 1036.52 73.1628 1036.59 73.2494C1036.6 73.3187 1036.92 75.7612 1037.55 80.577L1038.48 87.8265L1039.08 86.8651C1039.5 86.2415 1040.05 85.3754 1040.74 84.2667C1041.44 83.1581 1042.2 81.9455 1043.03 80.6289C1046.06 75.7959 1047.59 73.362 1047.63 73.3274C1047.65 73.31 1047.67 73.2841 1047.71 73.2494C1047.74 73.2148 1047.78 73.1888 1047.81 73.1715L1047.97 73.1195H1050.46C1050.76 73.1195 1051.1 73.1195 1051.5 73.1195C1051.9 73.1195 1052.15 73.1108 1052.25 73.0935C1052.84 73.0935 1053.14 73.1888 1053.14 73.3793C1053.14 73.466 1053.11 73.6132 1053.06 73.8211C1053.01 74.0289 1052.98 74.1415 1052.98 74.1589C1052.91 74.2628 1052.59 74.3148 1052.02 74.3148C1051.33 74.3321 1050.89 74.3581 1050.7 74.3927C1050.5 74.4274 1050.35 74.5226 1050.23 74.6785C1050.18 74.7652 1049.55 77.2163 1048.36 82.0321C1047.16 86.8478 1046.56 89.2817 1046.54 89.3336C1046.54 89.4029 1046.55 89.4462 1046.56 89.4636C1046.58 89.4809 1046.64 89.5155 1046.75 89.5675C1046.85 89.6195 1047 89.6368 1047.19 89.6195C1047.38 89.6021 1047.66 89.6195 1048.05 89.6714H1048.85C1048.95 89.8273 1049.01 89.9226 1049.01 89.9573C1049.01 90.2344 1048.95 90.4943 1048.82 90.7368C1048.74 90.8234 1048.6 90.8667 1048.41 90.8667C1048.32 90.8667 1047.97 90.858 1047.34 90.8407C1046.72 90.8234 1045.92 90.8147 1044.95 90.8147C1043.9 90.8147 1043.1 90.8147 1042.56 90.8147C1042.03 90.8147 1041.72 90.8234 1041.65 90.8407C1041.36 90.8407 1041.21 90.7541 1041.21 90.5809C1041.21 90.5462 1041.23 90.425 1041.26 90.2171C1041.33 89.9399 1041.4 89.784 1041.47 89.7494C1041.54 89.7147 1041.74 89.6887 1042.07 89.6714C1042.54 89.6714 1043.06 89.6454 1043.63 89.5935C1043.87 89.5415 1044.03 89.4376 1044.12 89.2817C1044.16 89.2124 1044.49 87.9478 1045.11 85.488C1045.73 83.0281 1046.35 80.577 1046.95 78.1344C1047.56 75.6919 1047.86 74.4707 1047.86 74.4707L1042.82 82.4998C1039.43 87.9045 1037.69 90.6502 1037.6 90.7368C1037.56 90.7541 1037.53 90.7714 1037.5 90.7887C1037.41 90.8407 1037.27 90.8667 1037.08 90.8667C1036.82 90.8667 1036.66 90.8061 1036.61 90.6848C1036.58 90.6155 1036.22 87.9305 1035.55 82.6297L1034.53 74.6526L1032.77 81.6683C1031.61 86.2762 1031.03 88.658 1031.03 88.8139C1031.13 89.3856 1031.75 89.6714 1032.9 89.6714H1033.16C1033.26 89.758 1033.32 89.836 1033.34 89.9053C1033.36 89.9746 1033.33 90.1305 1033.26 90.373C1033.19 90.6502 1033.12 90.8061 1033.05 90.8407C1032.98 90.858 1032.89 90.8667 1032.77 90.8667C1032.73 90.8667 1032.63 90.8667 1032.45 90.8667C1032.28 90.8667 1031.99 90.858 1031.57 90.8407C1031.16 90.8234 1030.6 90.8147 1029.91 90.8147C1029.39 90.8147 1028.85 90.8234 1028.3 90.8407C1027.74 90.858 1027.42 90.8667 1027.34 90.8667C1027.08 90.8667 1026.91 90.8494 1026.84 90.8147C1026.77 90.7801 1026.74 90.7021 1026.74 90.5809C1026.74 90.5462 1026.76 90.425 1026.82 90.2171C1026.87 90.0092 1026.91 89.8793 1026.95 89.8273C1026.98 89.7234 1027.17 89.6714 1027.52 89.6714C1028.73 89.6714 1029.5 89.325 1029.83 88.6321C1029.9 88.5281 1030.5 86.2069 1031.62 81.6683C1032.75 77.1297 1033.32 74.7478 1033.34 74.5226Z" fill="black"/>
<path d="M1055.89 75.7814C1055.89 75.7814 1055.89 75.7018 1055.89 75.5426C1055.89 75.3834 1055.97 75.2609 1056.14 75.1752H1061.64V72.4195L1061.66 69.6639C1061.78 69.5047 1061.89 69.4251 1062 69.4251C1062.16 69.4251 1062.29 69.517 1062.37 69.7007V75.1752H1067.85C1068.03 75.2731 1068.12 75.3956 1068.12 75.5426C1068.12 75.6895 1068.03 75.812 1067.85 75.91H1062.37V81.3845C1062.27 81.556 1062.16 81.6417 1062.04 81.6417H1062H1061.97C1061.82 81.6417 1061.71 81.556 1061.64 81.3845V75.91H1056.14C1055.97 75.8243 1055.89 75.7018 1055.89 75.5426V75.7814Z" fill="black"/>
<path d="M1004.78 289.013L1010.5 289.814L1008.33 284.462L1004.78 289.013ZM1046.71 278.328L1046.71 278.828L1046.71 278.328ZM1086.72 288.377C1086.91 287.917 1086.91 287.917 1086.91 287.916C1086.91 287.916 1086.91 287.916 1086.91 287.916C1086.91 287.916 1086.91 287.915 1086.91 287.915C1086.9 287.913 1086.9 287.911 1086.89 287.909C1086.88 287.904 1086.86 287.897 1086.84 287.887C1086.79 287.868 1086.73 287.84 1086.64 287.803C1086.46 287.729 1086.19 287.621 1085.85 287.484C1085.17 287.21 1084.18 286.819 1082.93 286.349C1080.45 285.41 1076.97 284.156 1072.97 282.901C1065 280.394 1054.94 277.862 1046.71 277.828L1046.71 278.828C1054.77 278.861 1064.72 281.354 1072.67 283.855C1076.64 285.103 1080.11 286.35 1082.58 287.284C1083.82 287.752 1084.8 288.14 1085.48 288.412C1085.82 288.548 1086.08 288.655 1086.26 288.728C1086.34 288.764 1086.41 288.792 1086.46 288.81C1086.48 288.82 1086.5 288.827 1086.51 288.831C1086.51 288.834 1086.52 288.836 1086.52 288.837C1086.52 288.837 1086.52 288.838 1086.52 288.838C1086.52 288.838 1086.52 288.838 1086.52 288.838C1086.52 288.838 1086.52 288.838 1086.72 288.377ZM1046.71 277.828C1033.82 277.775 1016.57 283.838 1008.77 286.859L1009.13 287.792C1016.94 284.765 1034.03 278.776 1046.71 278.828L1046.71 277.828Z" fill="black"/>
<path d="M1093.77 282.857C1093.2 282.857 1092.9 282.823 1092.86 282.756C1092.85 282.722 1092.84 282.655 1092.84 282.554C1092.84 282.149 1092.93 281.871 1093.12 281.719C1093.15 281.703 1093.29 281.694 1093.55 281.694C1094.24 281.728 1095.38 281.745 1096.98 281.745C1097.56 281.745 1098.09 281.745 1098.58 281.745C1099.07 281.745 1099.45 281.736 1099.72 281.719C1099.99 281.703 1100.15 281.703 1100.22 281.719C1100.49 281.719 1100.63 281.804 1100.63 281.972C1100.63 282.006 1100.61 282.124 1100.58 282.326C1100.49 282.613 1100.41 282.781 1100.32 282.832H1100.27C1100.24 282.832 1100.2 282.832 1100.15 282.832C1100.09 282.832 1100.04 282.832 1099.97 282.832C1099.9 282.832 1099.83 282.84 1099.74 282.857C1099.66 282.874 1099.58 282.874 1099.51 282.857C1098.86 282.874 1098.43 282.899 1098.25 282.933C1098.06 282.967 1097.91 283.059 1097.79 283.211C1097.78 283.245 1097.54 284.13 1097.09 285.866C1096.63 287.602 1096.18 289.423 1095.72 291.328C1095.27 293.232 1095.01 294.353 1094.96 294.69C1094.93 294.926 1094.91 295.171 1094.91 295.424C1094.91 296.334 1095.17 297.05 1095.7 297.573C1096.22 298.095 1096.94 298.357 1097.87 298.357C1099 298.357 1100.13 297.977 1101.26 297.219C1102.39 296.46 1103.21 295.314 1103.74 293.78L1105.03 288.698C1105.82 285.462 1106.21 283.776 1106.21 283.641C1106.21 283.186 1105.67 282.925 1104.6 282.857C1104.19 282.857 1103.99 282.764 1103.99 282.579C1103.99 282.545 1104.01 282.444 1104.04 282.276C1104.11 282.006 1104.16 281.846 1104.19 281.795C1104.22 281.745 1104.31 281.711 1104.44 281.694C1104.49 281.694 1104.76 281.703 1105.25 281.719C1105.74 281.736 1106.45 281.753 1107.38 281.77C1108.24 281.77 1108.89 281.762 1109.35 281.745C1109.8 281.728 1110.05 281.719 1110.08 281.719C1110.34 281.719 1110.46 281.804 1110.46 281.972C1110.46 282.343 1110.39 282.596 1110.26 282.731C1110.21 282.815 1110.02 282.857 1109.7 282.857C1108.51 282.925 1107.76 283.262 1107.45 283.869C1107.42 283.953 1107 285.58 1106.19 288.749C1105.5 291.597 1105.08 293.275 1104.92 293.78C1104.37 295.466 1103.4 296.84 1102.02 297.902C1100.63 298.964 1099.2 299.503 1097.72 299.52C1096.17 299.52 1094.93 299.048 1094 298.104C1093.07 297.16 1092.6 296.039 1092.59 294.741V294.336C1092.59 294.033 1093.05 292.027 1093.98 288.319C1094.8 284.931 1095.21 283.186 1095.21 283.085C1095.21 282.967 1094.73 282.891 1093.77 282.857Z" fill="black"/>
<path d="M1112.84 292.642C1112.84 291.479 1112.92 290.375 1113.09 289.33C1113.26 288.285 1113.45 287.383 1113.67 286.625C1113.89 285.866 1114.2 285.124 1114.61 284.4C1115.01 283.675 1115.33 283.11 1115.57 282.705C1115.8 282.301 1116.16 281.863 1116.63 281.391C1117.1 280.919 1117.38 280.632 1117.47 280.531C1117.55 280.43 1117.76 280.253 1118.1 280H1118.43H1118.53C1118.76 280 1118.88 280.076 1118.88 280.228C1118.88 280.278 1118.74 280.455 1118.45 280.759C1118.16 281.062 1117.82 281.509 1117.41 282.099C1117.01 282.689 1116.6 283.413 1116.18 284.273C1115.75 285.133 1115.4 286.296 1115.11 287.762C1114.83 289.229 1114.68 290.856 1114.68 292.642C1114.68 294.429 1114.83 296.047 1115.11 297.497C1115.4 298.947 1115.75 300.118 1116.15 301.012C1116.56 301.905 1116.97 302.63 1117.39 303.186C1117.81 303.742 1118.16 304.189 1118.45 304.526C1118.74 304.863 1118.88 305.04 1118.88 305.057C1118.88 305.209 1118.75 305.285 1118.5 305.285H1118.43H1118.1L1117.39 304.678C1115.8 303.245 1114.65 301.458 1113.93 299.318C1113.2 297.177 1112.84 294.952 1112.84 292.642Z" fill="black"/>
<path d="M1137.14 292.718C1137.1 292.769 1136.99 293.789 1136.78 295.778C1136.58 297.767 1136.46 298.795 1136.43 298.862V298.964H1129.17C1125.46 298.964 1123.31 298.964 1122.7 298.964C1122.09 298.964 1121.77 298.921 1121.74 298.837V298.812C1121.69 298.711 1121.69 298.618 1121.74 298.534L1122.14 298.053C1122.41 297.75 1122.82 297.295 1123.36 296.688C1123.9 296.081 1124.41 295.5 1124.9 294.943L1128.01 291.403L1121.71 282.68L1121.69 282.326C1121.69 282.006 1121.73 281.812 1121.81 281.745C1121.86 281.711 1124.32 281.694 1129.17 281.694H1136.43V281.795C1136.46 281.88 1136.58 282.849 1136.78 284.703C1136.99 286.557 1137.1 287.543 1137.14 287.661V287.762H1136.13V287.661C1135.99 286.684 1135.81 285.874 1135.57 285.234C1135.33 284.593 1134.95 284.071 1134.43 283.666C1133.93 283.312 1133.24 283.093 1132.38 283.009C1131.52 282.925 1130.3 282.874 1128.72 282.857H1127.73H1125.08L1127.71 286.473C1128.06 286.962 1128.5 287.569 1129.02 288.293C1129.95 289.574 1130.41 290.266 1130.41 290.367C1130.41 290.4 1130.4 290.426 1130.39 290.443L1124.19 297.522C1128.46 297.522 1130.77 297.514 1131.12 297.497C1131.93 297.463 1132.6 297.379 1133.14 297.244C1133.68 297.109 1134.04 296.983 1134.23 296.865C1134.41 296.747 1134.62 296.578 1134.84 296.359C1135.17 295.988 1135.45 295.491 1135.67 294.867C1135.89 294.244 1136.02 293.713 1136.08 293.274L1136.13 292.617H1137.14V292.718Z" fill="black"/>
<path d="M1140.07 280.025L1140.17 280C1140.26 280 1140.34 280 1140.42 280H1140.73L1141.44 280.607C1143.02 282.04 1144.17 283.826 1144.9 285.967C1145.62 288.108 1145.99 290.333 1145.99 292.642C1145.99 293.789 1145.9 294.893 1145.73 295.955C1145.57 297.017 1145.37 297.918 1145.15 298.66C1144.93 299.402 1144.62 300.143 1144.22 300.885C1143.81 301.627 1143.49 302.192 1143.26 302.579C1143.02 302.967 1142.67 303.397 1142.22 303.869C1141.76 304.341 1141.49 304.619 1141.41 304.703C1141.33 304.787 1141.13 304.948 1140.83 305.184C1140.78 305.234 1140.74 305.268 1140.73 305.285H1140.42C1140.29 305.285 1140.2 305.285 1140.15 305.285C1140.1 305.285 1140.05 305.259 1140.02 305.209C1139.99 305.158 1139.96 305.082 1139.94 304.981C1139.96 304.964 1140.05 304.855 1140.22 304.653C1142.83 301.939 1144.14 297.935 1144.14 292.642C1144.14 287.349 1142.83 283.346 1140.22 280.632C1140.05 280.43 1139.96 280.32 1139.94 280.303C1139.94 280.169 1139.99 280.076 1140.07 280.025Z" fill="black"/>
<path d="M1148.74 282.124C1148.74 281.972 1148.84 281.829 1149.05 281.694H1157.09L1157.26 281.795C1157.43 282.031 1157.43 282.233 1157.26 282.402C1157.15 282.52 1156.86 282.579 1156.4 282.579C1155.9 282.63 1155.6 282.689 1155.52 282.756C1155.32 282.823 1155.21 282.975 1155.19 283.211C1155.17 283.447 1155.15 284.509 1155.11 286.397V289.608H1161.31V286.397C1161.31 286.026 1161.3 285.554 1161.28 284.981C1161.27 283.936 1161.24 283.321 1161.21 283.135C1161.17 282.95 1161.08 282.823 1160.93 282.756H1160.9C1160.8 282.689 1160.5 282.63 1159.99 282.579C1159.34 282.579 1159.01 282.436 1159.01 282.149C1159.01 282.031 1159.06 281.913 1159.16 281.795L1159.34 281.694H1167.38C1167.56 281.812 1167.66 281.955 1167.66 282.124C1167.66 282.427 1167.34 282.579 1166.69 282.579C1166.02 282.63 1165.62 282.764 1165.51 282.984C1165.47 283.085 1165.46 285.537 1165.46 290.341C1165.46 295.129 1165.47 297.564 1165.51 297.649C1165.62 297.885 1166.02 298.028 1166.69 298.079C1167.34 298.079 1167.66 298.239 1167.66 298.559C1167.66 298.728 1167.56 298.871 1167.38 298.989H1159.34L1159.16 298.888C1159.06 298.77 1159.01 298.652 1159.01 298.534C1159.01 298.23 1159.34 298.079 1159.99 298.079C1160.7 298.028 1161.1 297.885 1161.18 297.649C1161.27 297.446 1161.31 296.283 1161.31 294.159V290.797H1155.11V294.159C1155.11 296.351 1155.16 297.514 1155.24 297.649C1155.33 297.885 1155.71 298.028 1156.4 298.079C1156.83 298.079 1157.11 298.138 1157.26 298.256C1157.42 298.441 1157.42 298.652 1157.26 298.888L1157.09 298.989H1149.05C1148.84 298.888 1148.74 298.744 1148.74 298.559C1148.74 298.239 1149.07 298.079 1149.73 298.079C1150.42 298.028 1150.81 297.885 1150.89 297.649C1150.98 297.514 1151.02 295.078 1151.02 290.341C1151.02 285.605 1150.98 283.152 1150.89 282.984C1150.79 282.764 1150.4 282.63 1149.73 282.579C1149.07 282.579 1148.74 282.427 1148.74 282.124ZM1154.28 290.341V284.981C1154.28 283.599 1154.33 282.798 1154.43 282.579H1151.7C1151.75 282.697 1151.79 282.781 1151.8 282.832C1151.82 282.882 1151.84 283.177 1151.85 283.717C1151.87 284.256 1151.89 284.981 1151.9 285.891C1151.92 286.802 1151.92 288.285 1151.9 290.341C1151.9 293.881 1151.89 296.005 1151.88 296.713C1151.86 297.421 1151.81 297.859 1151.73 298.028C1151.71 298.045 1151.7 298.062 1151.7 298.079H1154.43C1154.33 297.876 1154.28 297.084 1154.28 295.702V290.341ZM1164.55 290.341V286.599C1164.55 285.605 1164.55 284.872 1164.55 284.4C1164.55 283.928 1164.55 283.557 1164.57 283.287C1164.59 283.017 1164.6 282.857 1164.62 282.807C1164.64 282.756 1164.67 282.68 1164.72 282.579H1161.97L1162.09 282.807C1162.16 283.043 1162.19 285.554 1162.19 290.341C1162.19 293.898 1162.19 296.031 1162.17 296.738C1162.15 297.446 1162.09 297.876 1161.99 298.028C1161.98 298.045 1161.97 298.062 1161.97 298.079H1164.72C1164.67 297.977 1164.65 297.918 1164.65 297.902C1164.65 297.885 1164.63 297.775 1164.6 297.573C1164.56 297.371 1164.55 297.126 1164.55 296.84C1164.55 296.553 1164.55 296.081 1164.55 295.424V290.341Z" fill="black"/>
<path d="M1170.44 292.642C1170.44 291.479 1170.52 290.375 1170.69 289.33C1170.86 288.285 1171.05 287.383 1171.27 286.625C1171.49 285.866 1171.8 285.124 1172.21 284.4C1172.61 283.675 1172.93 283.11 1173.17 282.705C1173.4 282.301 1173.76 281.863 1174.23 281.391C1174.7 280.919 1174.98 280.632 1175.06 280.531C1175.15 280.43 1175.36 280.253 1175.7 280H1176.02H1176.13C1176.36 280 1176.48 280.076 1176.48 280.228C1176.48 280.278 1176.34 280.455 1176.05 280.759C1175.76 281.062 1175.42 281.509 1175.01 282.099C1174.61 282.689 1174.2 283.413 1173.77 284.273C1173.35 285.133 1173 286.296 1172.71 287.762C1172.43 289.229 1172.28 290.856 1172.28 292.642C1172.28 294.429 1172.43 296.047 1172.71 297.497C1173 298.947 1173.34 300.118 1173.75 301.012C1174.15 301.905 1174.57 302.63 1174.99 303.186C1175.41 303.742 1175.76 304.189 1176.05 304.526C1176.34 304.863 1176.48 305.04 1176.48 305.057C1176.48 305.209 1176.35 305.285 1176.1 305.285H1176.02H1175.7L1174.99 304.678C1173.4 303.245 1172.25 301.458 1171.52 299.318C1170.8 297.177 1170.44 294.952 1170.44 292.642Z" fill="black"/>
<path d="M1194.74 292.718C1194.7 292.769 1194.58 293.789 1194.38 295.778C1194.18 297.767 1194.06 298.795 1194.03 298.862V298.964H1186.77C1183.06 298.964 1180.9 298.964 1180.3 298.964C1179.69 298.964 1179.37 298.921 1179.34 298.837V298.812C1179.29 298.711 1179.29 298.618 1179.34 298.534L1179.74 298.053C1180.01 297.75 1180.42 297.295 1180.96 296.688C1181.49 296.081 1182.01 295.5 1182.5 294.943L1185.61 291.403L1179.31 282.68L1179.29 282.326C1179.29 282.006 1179.33 281.812 1179.41 281.745C1179.46 281.711 1181.92 281.694 1186.77 281.694H1194.03V281.795C1194.06 281.88 1194.18 282.849 1194.38 284.703C1194.58 286.557 1194.7 287.543 1194.74 287.661V287.762H1193.72V287.661C1193.59 286.684 1193.4 285.874 1193.17 285.234C1192.93 284.593 1192.55 284.071 1192.03 283.666C1191.52 283.312 1190.84 283.093 1189.98 283.009C1189.12 282.925 1187.9 282.874 1186.32 282.857H1185.33H1182.67L1185.3 286.473C1185.66 286.962 1186.1 287.569 1186.62 288.293C1187.55 289.574 1188.01 290.266 1188.01 290.367C1188.01 290.4 1188 290.426 1187.98 290.443L1181.79 297.522C1186.05 297.522 1188.36 297.514 1188.72 297.497C1189.53 297.463 1190.2 297.379 1190.74 297.244C1191.28 297.109 1191.64 296.983 1191.83 296.865C1192.01 296.747 1192.22 296.578 1192.43 296.359C1192.77 295.988 1193.05 295.491 1193.27 294.867C1193.49 294.244 1193.62 293.713 1193.67 293.274L1193.72 292.617H1194.74V292.718Z" fill="black"/>
<path d="M1197.67 280.025L1197.77 280C1197.85 280 1197.94 280 1198.02 280H1198.33L1199.03 280.607C1200.62 282.04 1201.77 283.826 1202.5 285.967C1203.22 288.108 1203.59 290.333 1203.59 292.642C1203.59 293.789 1203.5 294.893 1203.33 295.955C1203.16 297.017 1202.97 297.918 1202.75 298.66C1202.53 299.402 1202.22 300.143 1201.82 300.885C1201.41 301.627 1201.09 302.192 1200.85 302.579C1200.62 302.967 1200.27 303.397 1199.82 303.869C1199.36 304.341 1199.09 304.619 1199.01 304.703C1198.92 304.787 1198.73 304.948 1198.43 305.184C1198.38 305.234 1198.34 305.268 1198.33 305.285H1198.02C1197.89 305.285 1197.8 305.285 1197.74 305.285C1197.69 305.285 1197.65 305.259 1197.62 305.209C1197.58 305.158 1197.56 305.082 1197.54 304.981C1197.56 304.964 1197.65 304.855 1197.82 304.653C1200.43 301.939 1201.74 297.935 1201.74 292.642C1201.74 287.349 1200.43 283.346 1197.82 280.632C1197.65 280.43 1197.56 280.32 1197.54 280.303C1197.54 280.169 1197.58 280.076 1197.67 280.025Z" fill="black"/>
<path d="M710.585 259.679L705.585 256.792V262.566L710.585 259.679ZM554.585 260.179H706.085V259.179H554.585V260.179Z" fill="black"/>
<path d="M599 236.072C599.017 235.985 599.104 234.991 599.259 233.088C599.415 231.185 599.493 230.208 599.493 230.156V230H615.347V230.156C615.365 230.242 615.451 231.237 615.607 233.14C615.762 235.043 615.84 236.02 615.84 236.072V236.228H614.802V236.072C614.802 236.037 614.776 235.735 614.725 235.164C614.673 234.593 614.578 234.022 614.439 233.451C614.301 232.88 614.119 232.456 613.894 232.18C613.6 231.816 613.124 231.54 612.467 231.349C612.104 231.263 611.438 231.22 610.469 231.22H609.768H609.561C609.111 231.22 608.86 231.323 608.808 231.531C608.791 231.566 608.782 233.979 608.782 238.77V245.932C608.904 246.105 609.128 246.218 609.457 246.269C609.786 246.321 610.556 246.356 611.766 246.373H612.545V247.567H612.208L607.433 247.489C604.406 247.524 602.814 247.55 602.659 247.567H602.321V246.373H603.1C604.311 246.373 605.081 246.347 605.409 246.295C605.738 246.244 605.963 246.122 606.084 245.932V238.77V233.295C606.084 232.085 606.041 231.436 605.954 231.349C605.868 231.263 605.582 231.22 605.098 231.22H604.397H603.878C602.667 231.22 601.759 231.47 601.154 231.972C600.842 232.249 600.617 232.655 600.479 233.192C600.341 233.728 600.237 234.316 600.168 234.956C600.098 235.596 600.055 235.968 600.038 236.072V236.228H599V236.072Z" fill="black"/>
<path d="M619.136 238.018C619.032 237.845 618.911 237.741 618.772 237.707C618.634 237.672 618.323 237.629 617.838 237.577H617.267V236.383H617.423L617.916 236.409C618.245 236.409 618.599 236.418 618.98 236.435C619.361 236.452 619.637 236.461 619.81 236.461C621.367 236.461 622.275 236.435 622.535 236.383H622.743V237.577H622.379C621.722 237.611 621.393 237.758 621.393 238.018C621.393 238.035 621.774 239.151 622.535 241.365L623.677 244.635L625.597 239.056L625.441 238.615C625.268 238.113 625.121 237.819 625 237.733C624.862 237.646 624.533 237.594 624.014 237.577H623.495V236.383H623.651C623.754 236.435 624.481 236.461 625.83 236.461C627.405 236.461 628.321 236.435 628.581 236.383H628.762V237.577H628.529C627.699 237.577 627.283 237.715 627.283 237.992C627.283 238.044 627.405 238.433 627.647 239.16C627.889 239.886 628.157 240.665 628.451 241.495C628.745 242.325 629.022 243.112 629.281 243.856L629.671 244.972L630.735 241.884C631.461 239.774 631.824 238.667 631.824 238.563C631.824 238.286 631.695 238.061 631.435 237.888C631.176 237.715 630.882 237.611 630.553 237.577H630.345V236.383H630.527C630.735 236.435 631.556 236.461 632.992 236.461C634.168 236.461 634.808 236.435 634.912 236.383H635.042V237.577H634.886C634.869 237.577 634.817 237.577 634.731 237.577C634.644 237.577 634.566 237.585 634.497 237.603C633.684 237.724 633.139 238.156 632.862 238.9L631.305 243.389C631.08 244.029 630.812 244.808 630.501 245.725C630.155 246.745 629.939 247.351 629.852 247.541C629.766 247.731 629.627 247.835 629.437 247.852H629.23C628.901 247.852 628.702 247.792 628.633 247.671C628.615 247.653 628.192 246.468 627.361 244.116L626.168 240.639C626.133 240.708 625.311 243.052 623.703 247.671C623.616 247.792 623.417 247.852 623.106 247.852H622.976C622.751 247.852 622.595 247.783 622.509 247.645L619.136 238.018Z" fill="black"/>
<path d="M637.325 231.764C637.325 231.28 637.481 230.9 637.792 230.623C638.104 230.346 638.484 230.208 638.934 230.208C639.332 230.242 639.678 230.389 639.972 230.649C640.266 230.908 640.413 231.28 640.413 231.764C640.413 232.283 640.266 232.673 639.972 232.932C639.678 233.192 639.315 233.321 638.882 233.321C638.45 233.321 638.087 233.192 637.792 232.932C637.498 232.673 637.343 232.283 637.325 231.764ZM641.944 247.567C641.685 247.515 640.785 247.489 639.246 247.489C639.055 247.489 638.735 247.489 638.285 247.489C637.836 247.489 637.403 247.506 636.988 247.541L636.417 247.567H636.21V246.373H636.625C637.109 246.373 637.533 246.347 637.896 246.295C638.052 246.226 638.147 246.131 638.182 246.01C638.216 245.889 638.234 245.526 638.234 244.92V242.248V239.964C638.234 239.065 638.216 238.494 638.182 238.252C638.147 238.009 638.026 237.845 637.818 237.759C637.576 237.637 637.17 237.577 636.599 237.577H636.313V236.98C636.313 236.582 636.331 236.383 636.365 236.383L636.625 236.357C636.798 236.34 637.04 236.323 637.351 236.305C637.663 236.288 637.974 236.271 638.285 236.254C638.58 236.236 638.891 236.219 639.22 236.202C639.548 236.184 639.799 236.158 639.972 236.124C640.145 236.089 640.24 236.081 640.257 236.098H640.335V245.958C640.422 246.131 640.526 246.235 640.647 246.269C640.768 246.304 641.071 246.339 641.555 246.373H642.152V247.567H641.944Z" fill="black"/>
<path d="M650.403 239.367C650.403 238.675 650.17 238.079 649.703 237.577C649.236 237.075 648.561 236.824 647.679 236.824C647.056 236.824 646.52 236.937 646.07 237.162C645.551 237.49 645.291 237.94 645.291 238.511C645.274 238.597 645.274 238.71 645.291 238.848C645.309 238.987 645.447 239.194 645.707 239.471C645.966 239.748 646.338 239.964 646.822 240.12C647.134 240.206 647.514 240.284 647.964 240.353C648.414 240.422 648.794 240.5 649.106 240.587C649.417 240.673 649.694 240.786 649.936 240.924C650.23 241.063 650.516 241.236 650.792 241.443C651.069 241.651 651.346 242.005 651.623 242.507C651.9 243.009 652.047 243.545 652.064 244.116C652.064 245.188 651.735 246.071 651.078 246.762C650.42 247.454 649.357 247.809 647.886 247.826H647.679C646.779 247.826 645.949 247.515 645.188 246.892L644.98 247.074L644.747 247.307C644.643 247.411 644.539 247.506 644.435 247.593L644.15 247.852H643.942H643.838C643.786 247.852 643.709 247.8 643.605 247.697V245.647V244.142C643.605 243.778 643.622 243.562 643.657 243.493C643.691 243.424 643.778 243.381 643.916 243.363H644.15C644.357 243.363 644.496 243.398 644.565 243.467C644.634 243.536 644.677 243.64 644.695 243.778C644.712 243.917 644.772 244.15 644.876 244.479C644.98 244.808 645.144 245.171 645.369 245.569C645.975 246.451 646.814 246.892 647.886 246.892C649.564 246.892 650.403 246.218 650.403 244.868C650.403 244.367 650.248 243.96 649.936 243.649C649.59 243.234 648.872 242.922 647.782 242.715C646.693 242.507 645.975 242.308 645.629 242.118C645.006 241.824 644.513 241.426 644.15 240.924C643.786 240.422 643.605 239.886 643.605 239.315C643.605 238.641 643.752 238.07 644.046 237.603C644.34 237.136 644.712 236.79 645.162 236.565C645.611 236.34 646.044 236.184 646.459 236.098C646.874 236.011 647.255 235.968 647.601 235.968H647.886C648.578 235.968 649.184 236.098 649.703 236.357L650.092 236.565L650.325 236.383C650.498 236.228 650.689 236.081 650.896 235.942H651.104H651.208C651.259 235.942 651.337 235.994 651.441 236.098V239.523L651.285 239.679H650.559C650.455 239.575 650.403 239.471 650.403 239.367Z" fill="black"/>
<path d="M653.673 236.617C654.59 236.548 655.299 236.063 655.8 235.164C656.302 234.264 656.579 233.209 656.631 231.998V231.609H657.669V236.383H661.172V237.577H657.669V241.313C657.686 243.476 657.695 244.695 657.695 244.972C657.695 245.249 657.755 245.526 657.876 245.802C658.118 246.477 658.542 246.814 659.148 246.814C659.909 246.814 660.376 246.2 660.549 244.972C660.566 244.834 660.575 244.436 660.575 243.778V242.87H661.613V243.778V244.09C661.613 245.422 661.25 246.434 660.523 247.126C660.056 247.593 659.45 247.826 658.707 247.826C658.118 247.826 657.608 247.723 657.176 247.515C656.743 247.307 656.415 247.039 656.19 246.711C655.965 246.382 655.8 246.079 655.697 245.802C655.593 245.526 655.532 245.249 655.515 244.972C655.498 244.851 655.489 243.571 655.489 241.132V237.577H653.439V236.617H653.673Z" fill="black"/>
<path d="M1392 259.679L1387 256.792V262.566L1392 259.679ZM1236 260.179H1387.5V259.179H1236V260.179Z" fill="black"/>
<path d="M1289 238.992C1289 237.572 1289.27 236.267 1289.82 235.078C1290.36 233.889 1291.06 232.94 1291.92 232.23C1292.78 231.519 1293.68 230.974 1294.62 230.595C1295.56 230.215 1296.46 230.016 1297.3 230C1297.35 230 1297.42 230 1297.52 230C1297.62 230 1297.69 230.008 1297.72 230.025C1299.22 230.025 1300.55 230.586 1301.71 231.709L1302.03 232.007L1302.77 231.04C1303.22 230.429 1303.48 230.091 1303.54 230.025C1303.56 230.025 1303.59 230.025 1303.64 230.025C1303.69 230.025 1303.74 230.016 1303.79 230H1303.89C1303.94 230 1304.01 230.05 1304.11 230.149V237.085L1303.96 237.234H1303.12C1303.02 237.134 1302.96 236.994 1302.95 236.812C1302.8 235.458 1302.4 234.286 1301.76 233.295C1301.11 232.304 1300.33 231.651 1299.4 231.338C1299.09 231.222 1298.68 231.164 1298.17 231.164C1297.75 231.164 1297.34 231.197 1296.93 231.263C1296.51 231.329 1296.02 231.503 1295.44 231.784C1294.86 232.064 1294.35 232.403 1293.9 232.799C1293.46 233.196 1293.05 233.798 1292.69 234.608C1292.33 235.417 1292.1 236.309 1292 237.283C1291.93 237.977 1291.9 238.604 1291.9 239.166C1291.9 240.421 1292.06 241.527 1292.37 242.485C1292.68 243.443 1293.06 244.186 1293.51 244.715C1293.95 245.243 1294.48 245.681 1295.09 246.028C1295.71 246.375 1296.27 246.598 1296.78 246.697C1297.29 246.796 1297.79 246.854 1298.29 246.87C1299.07 246.87 1299.74 246.697 1300.32 246.35C1300.9 246.003 1301.28 245.549 1301.46 244.987C1301.51 244.822 1301.53 244.327 1301.53 243.501V242.213C1301.52 242.196 1301.48 242.163 1301.41 242.114C1301.34 242.064 1301.3 242.031 1301.26 242.015C1301.23 241.998 1301.16 241.973 1301.04 241.94C1300.92 241.907 1300.79 241.891 1300.64 241.891C1300.49 241.891 1300.3 241.883 1300.05 241.866C1299.8 241.849 1299.48 241.841 1299.08 241.841H1298.44V240.702H1298.74L1302.7 240.776C1304.45 240.776 1305.42 240.751 1305.62 240.702H1305.82V241.841H1305.47C1304.7 241.841 1304.26 241.94 1304.16 242.139C1304.13 242.205 1304.11 243.088 1304.11 244.789V247.316C1304.01 247.415 1303.94 247.465 1303.89 247.465C1303.82 247.465 1303.67 247.382 1303.44 247.217C1303.08 246.969 1302.76 246.705 1302.48 246.424L1302.15 246.127C1301.89 246.573 1301.37 246.994 1300.59 247.39C1299.82 247.787 1298.84 247.993 1297.67 248.01C1296.2 248.01 1294.81 247.646 1293.51 246.92C1292.2 246.193 1291.13 245.128 1290.29 243.724C1289.45 242.32 1289.02 240.743 1289 238.992Z" fill="black"/>
<path d="M1308.1 246.325H1308.45C1309.09 246.325 1309.48 246.209 1309.61 245.978V245.78C1309.61 245.631 1309.61 245.442 1309.61 245.21C1309.61 244.979 1309.61 244.707 1309.61 244.393C1309.61 244.079 1309.62 243.724 1309.64 243.328C1309.65 242.931 1309.65 242.518 1309.64 242.089C1309.62 241.66 1309.62 241.205 1309.64 240.726C1309.65 240.248 1309.65 239.777 1309.64 239.314C1309.64 238.703 1309.64 238.059 1309.64 237.382C1309.64 236.705 1309.64 236.086 1309.64 235.524C1309.64 234.963 1309.64 234.467 1309.64 234.038C1309.64 233.609 1309.63 233.245 1309.61 232.948C1309.59 232.651 1309.59 232.51 1309.61 232.527C1309.56 232.213 1309.45 232.007 1309.26 231.907C1309.08 231.808 1308.71 231.734 1308.15 231.685H1307.7V231.115C1307.7 230.735 1307.72 230.545 1307.75 230.545L1308 230.52C1308.17 230.504 1308.41 230.487 1308.72 230.471C1309.03 230.454 1309.34 230.438 1309.64 230.421C1309.92 230.405 1310.22 230.388 1310.55 230.372C1310.88 230.355 1311.13 230.33 1311.3 230.297C1311.46 230.264 1311.55 230.256 1311.57 230.272H1311.64V238.076C1311.64 243.311 1311.65 245.945 1311.67 245.978C1311.73 246.11 1311.83 246.201 1311.96 246.251C1312.31 246.3 1312.72 246.325 1313.18 246.325H1313.57V247.465H1313.38L1312.81 247.44C1312.43 247.423 1312.02 247.415 1311.59 247.415C1311.16 247.415 1310.85 247.407 1310.65 247.39C1310.45 247.374 1310.14 247.374 1309.71 247.39C1309.28 247.407 1308.87 247.423 1308.47 247.44L1307.9 247.465H1307.7V246.325H1308.1Z" fill="black"/>
<path d="M1323.43 246.028C1322.51 247.151 1321.46 247.712 1320.29 247.712H1320.11C1318.05 247.712 1316.86 246.895 1316.55 245.26C1316.53 245.144 1316.51 244.013 1316.5 241.866C1316.48 240.066 1316.47 239.058 1316.47 238.844C1316.47 238.629 1316.42 238.456 1316.32 238.324C1316.16 238.059 1315.66 237.927 1314.84 237.927H1314.57V237.357C1314.57 236.978 1314.58 236.788 1314.61 236.788L1314.89 236.763C1315.05 236.746 1315.29 236.73 1315.61 236.713C1315.92 236.697 1316.23 236.68 1316.55 236.664C1316.83 236.647 1317.13 236.631 1317.46 236.614C1317.79 236.598 1318.04 236.573 1318.21 236.54C1318.37 236.507 1318.47 236.499 1318.5 236.515H1318.58V240.999C1318.59 244.038 1318.62 245.664 1318.65 245.879C1318.7 246.127 1318.82 246.325 1319 246.474C1319.33 246.705 1319.83 246.82 1320.49 246.82C1320.92 246.82 1321.3 246.746 1321.65 246.598C1322 246.449 1322.26 246.259 1322.44 246.028C1322.62 245.797 1322.79 245.532 1322.94 245.235C1323.09 244.938 1323.19 244.69 1323.24 244.492C1323.29 244.294 1323.32 244.096 1323.33 243.897C1323.33 243.881 1323.33 243.74 1323.33 243.476C1323.33 243.212 1323.34 242.882 1323.36 242.485C1323.38 242.089 1323.38 241.701 1323.36 241.321V239.661C1323.36 238.902 1323.28 238.431 1323.11 238.249C1322.95 238.068 1322.53 237.96 1321.87 237.927H1321.43V236.788C1321.46 236.788 1322.09 236.746 1323.31 236.664C1324.53 236.581 1325.18 236.532 1325.27 236.515H1325.44V240.925C1325.44 243.897 1325.45 245.408 1325.47 245.458C1325.51 245.788 1325.63 246.003 1325.81 246.102C1325.99 246.201 1326.37 246.275 1326.93 246.325H1327.37V247.465C1327.34 247.465 1326.72 247.506 1325.51 247.588C1324.31 247.671 1323.67 247.721 1323.61 247.737H1323.43V246.028Z" fill="black"/>
<path d="M1328.41 242.064C1328.41 241.156 1328.58 240.33 1328.91 239.587C1329.24 238.844 1329.65 238.241 1330.15 237.779C1330.64 237.316 1331.18 236.969 1331.76 236.738C1332.34 236.507 1332.88 236.383 1333.39 236.366C1334.27 236.366 1335.02 236.515 1335.65 236.812C1336.27 237.11 1336.75 237.523 1337.08 238.051C1337.41 238.579 1337.64 239.108 1337.78 239.636C1337.91 240.165 1337.98 240.751 1338 241.395C1338 241.511 1337.94 241.627 1337.83 241.742H1330.84V242.114C1330.84 244.558 1331.67 246.044 1333.32 246.573C1333.65 246.672 1334.01 246.721 1334.41 246.721C1335.1 246.721 1335.7 246.457 1336.19 245.929C1336.47 245.648 1336.7 245.301 1336.86 244.888L1337.11 244.294C1337.16 244.244 1337.29 244.219 1337.5 244.219H1337.58C1337.86 244.219 1338 244.302 1338 244.467C1338 244.533 1337.98 244.64 1337.93 244.789C1337.61 245.697 1337.09 246.416 1336.36 246.944C1335.64 247.473 1334.82 247.737 1333.91 247.737C1332.34 247.737 1331.04 247.167 1330 246.028C1328.96 244.888 1328.43 243.567 1328.41 242.064ZM1335.97 240.652C1335.79 238.538 1335 237.415 1333.62 237.283H1333.57C1333.43 237.283 1333.3 237.291 1333.17 237.308C1333.04 237.324 1332.83 237.39 1332.55 237.506C1332.27 237.622 1332.03 237.795 1331.83 238.026C1331.63 238.257 1331.44 238.596 1331.26 239.042C1331.08 239.488 1330.95 240.033 1330.87 240.677V240.85H1335.97V240.652Z" fill="black"/>
</svg>
