<svg width="826" height="524" viewBox="0 0 826 524" fill="none" xmlns="http://www.w3.org/2000/svg">
<path d="M413.5 49L410.619 54.0034L416.393 53.9966L413.5 49ZM413.005 53.5006L413.499 474.001L414.499 473.999L414.005 53.4994L413.005 53.5006Z" fill="black"/>
<path d="M691 261.5L686 258.613V264.387L691 261.5ZM135 262L686.5 262V261L135 261V262Z" fill="black"/>
<line x1="222" y1="261.5" x2="603" y2="261.5" stroke="#0A3392"/>
<line x1="413.5" y1="451" x2="413.5" y2="72" stroke="#0A3392"/>
<mask id="path-5-inside-1_1_5" fill="white">
<path d="M413.5 71C438.517 71 463.289 75.9274 486.401 85.501C509.514 95.0745 530.514 109.107 548.204 126.796C565.893 144.486 579.926 165.486 589.499 188.599C599.073 211.711 604 236.483 604 261.5L413.5 261.5L413.5 71Z"/>
</mask>
<path d="M413.5 71C438.517 71 463.289 75.9274 486.401 85.501C509.514 95.0745 530.514 109.107 548.204 126.796C565.893 144.486 579.926 165.486 589.499 188.599C599.073 211.711 604 236.483 604 261.5L413.5 261.5L413.5 71Z" stroke="#0A3392" stroke-width="2" mask="url(#path-5-inside-1_1_5)"/>
<mask id="path-6-inside-2_1_5" fill="white">
<path d="M414.5 452C389.483 452 364.711 447.073 341.599 437.499C318.486 427.926 297.486 413.893 279.796 396.204C262.107 378.514 248.074 357.514 238.501 334.401C228.927 311.289 224 286.517 224 261.5L414.5 261.5L414.5 452Z"/>
</mask>
<path d="M414.5 452C389.483 452 364.711 447.073 341.599 437.499C318.486 427.926 297.486 413.893 279.796 396.204C262.107 378.514 248.074 357.514 238.501 334.401C228.927 311.289 224 286.517 224 261.5L414.5 261.5L414.5 452Z" stroke="#0A3392" stroke-width="2" mask="url(#path-6-inside-2_1_5)"/>
<circle cx="414" cy="262" r="3" fill="black"/>
<path d="M421.379 54.6513C421.126 54.6513 421 54.5912 421 54.471C421 54.3868 421.162 54.1223 421.487 53.6774C421.812 53.2325 422.136 52.8718 422.461 52.5952C422.882 52.2706 423.273 52.0842 423.633 52.0361C423.705 52.012 424.715 52 426.663 52C428.587 52 429.579 52.012 429.639 52.0361C429.88 52.0962 430 52.2585 430 52.5231C430 52.6914 429.946 52.8477 429.838 52.992C429.729 53.1363 429.591 53.2325 429.423 53.2806C429.351 53.3046 428.774 53.3166 427.691 53.3166C426.609 53.3166 426.068 53.3287 426.068 53.3527C426.056 53.3647 425.96 53.8577 425.78 54.8317C425.599 55.8056 425.407 56.7976 425.202 57.8076C424.998 58.8176 424.89 59.3527 424.878 59.4128C424.818 59.5932 424.709 59.7375 424.553 59.8457C424.397 59.9539 424.222 60.008 424.03 60.008C423.633 60.008 423.435 59.8096 423.435 59.4128V59.2325L424.337 56.3106C424.469 55.8778 424.613 55.3968 424.77 54.8677C424.926 54.3387 425.052 53.9539 425.148 53.7134L425.257 53.3347C425.257 53.3227 424.98 53.3166 424.427 53.3166C424.403 53.3166 424.337 53.3166 424.228 53.3166C424.12 53.3166 424.036 53.3106 423.976 53.2986C423.038 53.2986 422.305 53.6834 421.776 54.4529C421.715 54.5491 421.667 54.6032 421.631 54.6152C421.595 54.6273 421.511 54.6393 421.379 54.6513Z" fill="black"/>
<path d="M675.155 271.297C675.052 271.194 675 271.121 675 271.077C675 271.018 675.022 270.901 675.066 270.725C675.111 270.549 675.148 270.447 675.177 270.418C675.207 270.344 675.273 270.308 675.377 270.308C675.48 270.308 675.857 270.3 676.506 270.286H677.68L678.101 268.527C678.145 268.366 678.197 268.154 678.256 267.89C678.315 267.626 678.367 267.436 678.411 267.319C678.456 267.201 678.5 267.055 678.544 266.879C678.588 266.703 678.648 266.579 678.721 266.505C678.795 266.432 678.869 266.344 678.943 266.242C679.017 266.139 679.12 266.073 679.253 266.044C679.386 266.015 679.519 266 679.652 266C679.918 266.015 680.102 266.095 680.205 266.242C680.309 266.388 680.361 266.527 680.361 266.659C680.361 266.762 680.294 267.106 680.161 267.692C680.028 268.278 679.881 268.857 679.718 269.429L679.497 270.242C679.497 270.271 679.866 270.286 680.604 270.286H681.734C681.837 270.388 681.889 270.469 681.889 270.527C681.889 270.85 681.793 271.106 681.601 271.297H679.231L678.433 274.484C677.857 276.828 677.57 278.088 677.57 278.264C677.57 278.879 677.769 279.187 678.168 279.187C678.684 279.187 679.187 278.938 679.674 278.44C680.161 277.941 680.553 277.326 680.848 276.593C680.877 276.505 680.914 276.454 680.959 276.44C681.003 276.425 681.114 276.41 681.291 276.396H681.379C681.601 276.396 681.712 276.454 681.712 276.571C681.712 276.615 681.69 276.703 681.645 276.835C681.571 277.07 681.439 277.348 681.247 277.67C681.055 277.993 680.804 278.337 680.493 278.703C680.183 279.07 679.807 279.377 679.364 279.626C678.921 279.875 678.47 280 678.013 280C677.57 280 677.149 279.89 676.75 279.67C676.351 279.451 676.063 279.07 675.886 278.527C675.857 278.41 675.842 278.212 675.842 277.934V277.538L676.617 274.462C677.134 272.396 677.4 271.355 677.414 271.341C677.414 271.311 677.038 271.297 676.285 271.297H675.155Z" fill="black"/>
</svg>
