<svg width="826" height="341" viewBox="0 0 826 341" fill="none" xmlns="http://www.w3.org/2000/svg">
<path d="M691 171L686 168.113L686 173.887L691 171ZM223 171.5L686.5 171.5L686.5 170.5L223 170.5L223 171.5Z" fill="#0A3392"/>
<path d="M179 22L647 22" stroke="black"/>
<path d="M180 320L648 320" stroke="black"/>
<path d="M441.379 38.6513C441.126 38.6513 441 38.5912 441 38.4709C441 38.3868 441.162 38.1222 441.487 37.6773C441.812 37.2324 442.136 36.8717 442.461 36.5952C442.882 36.2705 443.273 36.0841 443.633 36.0361C443.705 36.012 444.715 36 446.663 36C448.587 36 449.579 36.012 449.639 36.0361C449.88 36.0962 450 36.2585 450 36.523C450 36.6914 449.946 36.8477 449.838 36.992C449.729 37.1363 449.591 37.2324 449.423 37.2805C449.351 37.3046 448.774 37.3166 447.691 37.3166C446.609 37.3166 446.068 37.3286 446.068 37.3527C446.056 37.3647 445.96 37.8577 445.78 38.8316C445.599 39.8056 445.407 40.7976 445.202 41.8076C444.998 42.8176 444.89 43.3527 444.878 43.4128C444.818 43.5932 444.709 43.7375 444.553 43.8457C444.397 43.9539 444.222 44.008 444.03 44.008C443.633 44.008 443.435 43.8096 443.435 43.4128V43.2324L444.337 40.3106C444.469 39.8777 444.613 39.3968 444.77 38.8677C444.926 38.3387 445.052 37.9539 445.148 37.7134L445.257 37.3346C445.257 37.3226 444.98 37.3166 444.427 37.3166C444.403 37.3166 444.337 37.3166 444.228 37.3166C444.12 37.3166 444.036 37.3106 443.976 37.2986C443.038 37.2986 442.305 37.6833 441.776 38.4529C441.715 38.5491 441.667 38.6032 441.631 38.6152C441.595 38.6272 441.511 38.6393 441.379 38.6513Z" fill="black"/>
<path d="M675.155 180.297C675.052 180.194 675 180.121 675 180.077C675 180.018 675.022 179.901 675.066 179.725C675.111 179.549 675.148 179.447 675.177 179.418C675.207 179.344 675.273 179.308 675.377 179.308C675.48 179.308 675.857 179.3 676.506 179.286H677.68L678.101 177.527C678.145 177.366 678.197 177.154 678.256 176.89C678.315 176.626 678.367 176.436 678.411 176.319C678.456 176.201 678.5 176.055 678.544 175.879C678.588 175.703 678.648 175.579 678.721 175.505C678.795 175.432 678.869 175.344 678.943 175.242C679.017 175.139 679.12 175.073 679.253 175.044C679.386 175.015 679.519 175 679.652 175C679.918 175.015 680.102 175.095 680.205 175.242C680.309 175.388 680.361 175.527 680.361 175.659C680.361 175.762 680.294 176.106 680.161 176.692C680.028 177.278 679.881 177.857 679.718 178.429L679.497 179.242C679.497 179.271 679.866 179.286 680.604 179.286H681.734C681.837 179.388 681.889 179.469 681.889 179.527C681.889 179.85 681.793 180.106 681.601 180.297H679.231L678.433 183.484C677.857 185.828 677.57 187.088 677.57 187.264C677.57 187.879 677.769 188.187 678.168 188.187C678.684 188.187 679.187 187.938 679.674 187.44C680.161 186.941 680.553 186.326 680.848 185.593C680.877 185.505 680.914 185.454 680.959 185.44C681.003 185.425 681.114 185.41 681.291 185.396H681.379C681.601 185.396 681.712 185.454 681.712 185.571C681.712 185.615 681.69 185.703 681.645 185.835C681.571 186.07 681.439 186.348 681.247 186.67C681.055 186.993 680.804 187.337 680.493 187.703C680.183 188.07 679.807 188.377 679.364 188.626C678.921 188.875 678.47 189 678.013 189C677.57 189 677.149 188.89 676.75 188.67C676.351 188.451 676.063 188.07 675.886 187.527C675.857 187.41 675.842 187.212 675.842 186.934V186.538L676.617 183.462C677.134 181.396 677.4 180.355 677.414 180.341C677.414 180.311 677.038 180.297 676.285 180.297H675.155Z" fill="black"/>
<path d="M647 320C622.699 320 603 253.29 603 171C603 88.7096 622.699 22 647 22" stroke="black" stroke-dasharray="2 2"/>
<path d="M647 320C671.301 320 691 253.29 691 171C691 88.7096 671.301 22 647 22" stroke="black"/>
<path d="M409 321C384.699 321 365 254.29 365 172C365 89.7096 384.699 23 409 23" stroke="#0A3392" stroke-dasharray="2 2"/>
<path d="M409 321C433.301 321 453 254.29 453 172C453 89.7096 433.301 23 409 23" stroke="#0A3392"/>
<path d="M409 321C433.301 321 453 254.29 453 172C453 89.7096 433.301 23 409 23" stroke="#0A3392"/>
<path d="M222.5 171C222.5 212.111 217.579 249.311 209.633 276.217C205.66 289.674 200.938 300.527 195.717 308.005C190.486 315.497 184.829 319.5 179 319.5C173.171 319.5 167.514 315.497 162.283 308.005C157.062 300.527 152.341 289.674 148.367 276.217C140.421 249.311 135.5 212.111 135.5 171C135.5 129.889 140.421 92.6888 148.367 65.7827C152.341 52.3264 157.062 41.4732 162.283 33.9954C167.514 26.5032 173.171 22.5 179 22.5C184.829 22.5 190.486 26.5032 195.717 33.9954C200.938 41.4732 205.66 52.3264 209.633 65.7827C217.579 92.6888 222.5 129.889 222.5 171Z" fill="#DEDEDE" fill-opacity="0.3" stroke="black"/>
<path d="M453 171C532 171 601.013 22 648 22" stroke="#08700C"/>
<path d="M453 171C374 171 338.5 321 259 321" stroke="#08700C"/>
<path d="M259 321C207.277 321 162.584 293.907 143 249" stroke="#08700C" stroke-dasharray="2 2"/>
<circle cx="453" cy="171" r="3" fill="black"/>
</svg>
