<svg width="408" height="234" viewBox="0 0 408 234" fill="none" xmlns="http://www.w3.org/2000/svg">
<rect width="408" height="234" fill="white"/>
<path d="M337 116L332 113.113V118.887L337 116ZM70 116.5H332.5V115.5H70V116.5Z" fill="black"/>
<path d="M309 45L303.241 45.4155L306.481 50.1948L309 45ZM304.994 47.1107L97.7195 187.586L98.2805 188.414L305.555 47.9385L304.994 47.1107Z" fill="black"/>
<path d="M157 59L158.082 65.2581L162.96 61.1924L157 59ZM159.746 63.1548L251.577 173.352L252.423 172.648L160.591 62.4506L159.746 63.1548Z" fill="#00008B"/>
<circle cx="203.5" cy="116.5" r="95" fill="#D9D9D9" fill-opacity="0.3" stroke="black"/>
<path d="M299 116.5C299 137.211 256.243 154 203.5 154C150.757 154 108 137.211 108 116.5" stroke="black"/>
<path d="M299 116.5C299 95.7893 256.243 79 203.5 79C150.757 79 108 95.7893 108 116.5" stroke="black" stroke-dasharray="2 2"/>
<circle cx="204" cy="116" r="2" fill="black"/>
<circle cx="157" cy="59" r="2" fill="black" fill-opacity="0.7"/>
<circle cx="252" cy="173" r="2" fill="black" fill-opacity="0.3"/>
<path d="M181.427 80.0546C181.353 80.0546 181.29 80.0318 181.237 79.9862C181.184 79.9405 181.155 79.8778 181.15 79.798C181.15 79.741 181.342 78.8801 181.727 77.2154C182.112 75.5506 182.315 74.7011 182.336 74.6669C182.405 74.5073 182.526 74.4275 182.7 74.4275C182.763 74.4332 182.816 74.4531 182.858 74.4873C182.9 74.5215 182.927 74.5558 182.937 74.59C182.948 74.6242 182.953 74.6527 182.953 74.6755C182.953 74.7439 182.871 75.1259 182.708 75.8214C182.544 76.517 182.457 76.9075 182.447 76.993C182.436 77.0557 182.431 77.1555 182.431 77.2923V77.3607C182.431 77.7769 182.608 77.985 182.961 77.985C183.008 77.985 183.056 77.9822 183.103 77.9765C183.151 77.9708 183.195 77.9594 183.238 77.9423C183.28 77.9252 183.319 77.9052 183.356 77.8824C183.393 77.8596 183.427 77.8396 183.459 77.8225C183.491 77.8054 183.522 77.7769 183.554 77.737C183.586 77.6971 183.615 77.6686 183.641 77.6515C183.667 77.6344 183.694 77.6002 183.72 77.5489C183.746 77.4976 183.767 77.4662 183.783 77.4548C183.799 77.4434 183.823 77.4092 183.854 77.3522L183.91 77.2667L184.194 76.0438C184.384 75.2342 184.49 74.8038 184.511 74.7524C184.579 74.5985 184.693 74.5215 184.851 74.5215C184.919 74.5215 184.975 74.5415 185.017 74.5814C185.059 74.6213 185.088 74.6555 185.104 74.684C185.12 74.7125 185.125 74.741 185.12 74.7695L184.519 77.489C184.513 77.5175 184.511 77.5631 184.511 77.6259C184.511 77.7684 184.529 77.8625 184.566 77.9081C184.603 77.9537 184.658 77.9793 184.732 77.985C184.78 77.9793 184.832 77.9537 184.89 77.9081C185.001 77.794 185.109 77.5204 185.215 77.0871C185.246 76.9731 185.273 76.9132 185.294 76.9075C185.304 76.9018 185.331 76.8989 185.373 76.8989H185.404C185.505 76.8989 185.555 76.9246 185.555 76.9759C185.555 77.0101 185.541 77.0871 185.515 77.2068C185.489 77.3265 185.436 77.4805 185.357 77.6686C185.278 77.8567 185.194 77.9993 185.104 78.0962C185.035 78.1703 184.951 78.2302 184.851 78.2758C184.809 78.2872 184.745 78.2929 184.661 78.2929C184.55 78.2929 184.45 78.2758 184.361 78.2416C184.271 78.2074 184.2 78.1646 184.147 78.1133C184.094 78.062 184.049 78.0107 184.013 77.9594C183.976 77.9081 183.952 77.8653 183.941 77.8311C183.931 77.7969 183.926 77.7769 183.926 77.7712L183.878 77.8225C183.846 77.8567 183.799 77.8995 183.736 77.9508C183.673 78.0021 183.604 78.0534 183.53 78.1048C183.456 78.1561 183.361 78.2017 183.245 78.2416C183.129 78.2815 183.019 78.3014 182.913 78.3014C182.666 78.3014 182.42 78.2359 182.178 78.1048L181.988 78.9343C181.877 79.4018 181.811 79.6726 181.79 79.7467C181.769 79.8208 181.738 79.8835 181.695 79.9348C181.611 80.0147 181.521 80.0546 181.427 80.0546Z" fill="black"/>
</svg>
