<svg width="803" height="444" viewBox="0 0 803 444" fill="none" xmlns="http://www.w3.org/2000/svg">
<circle cx="385.5" cy="232.5" r="188" stroke="black"/>
<circle cx="383.5" cy="44.5" r="2.5" fill="black"/>
<path d="M198.5 226.5C190 250 272 312.5 391 312.5C510 312.5 573 275 573 243.5" stroke="#2434AD"/>
<path d="M198.5 226.5C207 203 244.4 213.2 268 222C297.5 233 328.5 244 366.5 222C404.5 200 573 212 573 243.5" stroke="#2434AD" stroke-dasharray="4 4"/>
<path d="M227.5 131.5C213 153.5 239 187.5 358 187.5C477 187.5 565.5 156.5 541 127.5" stroke="#2434AD"/>
<path d="M227.5 131.5C242 109.5 280.9 122.7 304.5 131.5C334 142.5 382.5 132 420.5 110C458.5 88 516.5 98.5 541 127.5" stroke="#2434AD" stroke-dasharray="4 4"/>
<g clip-path="url(#clip0_1_2)">
<path d="M369.65 27.7521C369.65 25.9921 370.21 24.4321 371.33 23.0721C372.45 21.7121 373.88 21.0221 375.62 21.0021C377.38 21.0021 379.03 21.6121 380.57 22.8321C381.33 23.4521 382.07 24.2321 382.79 25.1721L383.21 25.7421L383.42 25.4421C385.5 22.4821 387.83 21.0021 390.41 21.0021C392.13 21.0021 393.54 21.6821 394.64 23.0421C395.74 24.4021 396.3 26.0021 396.32 27.8421C396.32 29.5621 395.77 31.1121 394.67 32.4921C393.57 33.8721 392.11 34.5721 390.29 34.5921C388.57 34.5921 386.94 33.9821 385.4 32.7621C384.64 32.1421 383.9 31.3621 383.18 30.4221L382.76 29.8521L382.55 30.1521C380.47 33.1121 378.14 34.5921 375.56 34.5921C373.84 34.5921 372.43 33.9121 371.33 32.5521C370.23 31.1921 369.67 29.5921 369.65 27.7521ZM395.21 27.7521C395.21 26.3921 394.83 25.1521 394.07 24.0321C393.31 22.9121 392.23 22.3521 390.83 22.3521C390.41 22.3521 390 22.4021 389.6 22.5021C389.2 22.6021 388.82 22.7421 388.46 22.9221C388.1 23.1021 387.76 23.2921 387.44 23.4921C387.12 23.6921 386.83 23.9321 386.57 24.2121C386.31 24.4921 386.06 24.7421 385.82 24.9621C385.58 25.1821 385.38 25.4321 385.22 25.7121C385.06 25.9921 384.91 26.2121 384.77 26.3721C384.63 26.5321 384.52 26.7021 384.44 26.8821L384.29 27.1221L385.22 28.3221C385.84 29.1221 386.32 29.7221 386.66 30.1221C387 30.5221 387.42 30.9621 387.92 31.4421C388.42 31.9221 388.92 32.2521 389.42 32.4321C389.92 32.6121 390.43 32.7121 390.95 32.7321C392.19 32.7321 393.21 32.2421 394.01 31.2621C394.81 30.2821 395.21 29.1121 395.21 27.7521ZM370.76 27.8421C370.76 29.2221 371.15 30.4721 371.93 31.5921C372.71 32.7121 373.79 33.2721 375.17 33.2721C377.53 33.2721 379.7 31.6721 381.68 28.4721L380.75 27.2721C379.53 25.6921 378.62 24.6521 378.02 24.1521C377.04 23.2921 376.03 22.8621 374.99 22.8621C373.75 22.8621 372.74 23.3521 371.96 24.3321C371.18 25.3121 370.78 26.4821 370.76 27.8421Z" fill="black"/>
</g>
<path d="M582.408 250.493C582.408 250.32 582.524 250.157 582.758 250.004H592.023L592.227 250.119C592.421 250.388 592.421 250.618 592.227 250.81C592.091 250.944 591.761 251.012 591.236 251.012C590.654 251.069 590.314 251.136 590.217 251.213C589.984 251.29 589.857 251.463 589.838 251.732C589.818 252.001 589.789 253.21 589.75 255.361V259.019H596.889V255.361C596.889 254.938 596.879 254.401 596.86 253.748C596.84 252.557 596.811 251.857 596.773 251.645C596.734 251.434 596.627 251.29 596.452 251.213H596.423C596.306 251.136 595.957 251.069 595.374 251.012C594.616 251.012 594.238 250.848 594.238 250.522C594.238 250.388 594.296 250.253 594.412 250.119L594.616 250.004H603.882C604.096 250.138 604.202 250.301 604.202 250.493C604.202 250.839 603.833 251.012 603.095 251.012C602.318 251.069 601.862 251.223 601.726 251.473C601.687 251.588 601.668 254.382 601.668 259.854C601.668 265.308 601.687 268.082 601.726 268.178C601.862 268.447 602.318 268.61 603.095 268.668C603.833 268.668 604.202 268.85 604.202 269.215C604.202 269.407 604.096 269.57 603.882 269.705H594.616L594.412 269.59C594.296 269.455 594.238 269.321 594.238 269.186C594.238 268.841 594.616 268.668 595.374 268.668C596.19 268.61 596.646 268.447 596.743 268.178C596.84 267.948 596.889 266.623 596.889 264.203V260.373H589.75V264.203C589.75 266.7 589.799 268.025 589.896 268.178C589.993 268.447 590.44 268.61 591.236 268.668C591.722 268.668 592.052 268.735 592.227 268.87C592.402 269.081 592.402 269.321 592.227 269.59L592.023 269.705H582.758C582.524 269.59 582.408 269.426 582.408 269.215C582.408 268.85 582.787 268.668 583.544 268.668C584.341 268.61 584.787 268.447 584.885 268.178C584.982 268.025 585.03 265.25 585.03 259.854C585.03 254.458 584.982 251.665 584.885 251.473C584.768 251.223 584.321 251.069 583.544 251.012C582.787 251.012 582.408 250.839 582.408 250.493ZM588.789 259.854V253.748C588.789 252.173 588.847 251.261 588.964 251.012H585.817C585.875 251.146 585.914 251.242 585.934 251.3C585.953 251.357 585.972 251.693 585.992 252.308C586.011 252.922 586.031 253.748 586.05 254.785C586.069 255.822 586.069 257.512 586.05 259.854C586.05 263.887 586.04 266.306 586.021 267.113C586.001 267.919 585.943 268.418 585.846 268.61C585.827 268.629 585.817 268.649 585.817 268.668H588.964C588.847 268.437 588.789 267.535 588.789 265.96V259.854ZM600.619 259.854V255.591C600.619 254.458 600.619 253.623 600.619 253.085C600.619 252.548 600.628 252.125 600.648 251.818C600.667 251.511 600.687 251.328 600.706 251.271C600.725 251.213 600.764 251.127 600.823 251.012H597.647L597.792 251.271C597.87 251.54 597.909 254.401 597.909 259.854C597.909 263.906 597.899 266.335 597.88 267.141C597.86 267.948 597.792 268.437 597.676 268.61C597.656 268.629 597.647 268.649 597.647 268.668H600.823C600.764 268.553 600.735 268.485 600.735 268.466C600.735 268.447 600.716 268.322 600.677 268.092C600.638 267.861 600.619 267.583 600.619 267.257C600.619 266.93 600.619 266.392 600.619 265.644V259.854Z" fill="black"/>
<path d="M618.388 268.967C618.361 269.007 618.265 269.829 618.1 271.431C617.935 273.033 617.839 273.861 617.811 273.915V273.996H611.899C608.878 273.996 607.12 273.996 606.626 273.996C606.131 273.996 605.87 273.962 605.843 273.895V273.874C605.802 273.793 605.802 273.718 605.843 273.65L606.172 273.263C606.392 273.019 606.722 272.652 607.161 272.164C607.601 271.675 608.02 271.207 608.418 270.759L610.952 267.908L605.822 260.882L605.802 260.597C605.802 260.339 605.836 260.183 605.905 260.129C605.946 260.102 607.944 260.088 611.899 260.088H617.811V260.169C617.839 260.237 617.935 261.018 618.1 262.511C618.265 264.005 618.361 264.799 618.388 264.894V264.975H617.564V264.894C617.454 264.106 617.303 263.455 617.111 262.939C616.919 262.423 616.61 262.002 616.184 261.676C615.772 261.391 615.216 261.215 614.515 261.147C613.815 261.079 612.819 261.038 611.528 261.025H610.725H608.562L610.704 263.937C610.993 264.33 611.35 264.819 611.776 265.403C612.531 266.435 612.909 266.991 612.909 267.073C612.909 267.1 612.902 267.12 612.888 267.134L607.841 272.836C611.316 272.836 613.197 272.829 613.485 272.815C614.145 272.788 614.694 272.72 615.133 272.612C615.573 272.503 615.868 272.401 616.019 272.306C616.17 272.211 616.335 272.075 616.514 271.899C616.788 271.6 617.015 271.2 617.193 270.698C617.372 270.195 617.482 269.768 617.523 269.415L617.564 268.885H618.388V268.967Z" fill="black"/>
<path d="M611.052 184.32C610.405 184.32 610.063 184.282 610.025 184.206C610.006 184.167 609.997 184.091 609.997 183.977C609.997 183.519 610.101 183.204 610.31 183.032C610.348 183.013 610.51 183.003 610.795 183.003C611.575 183.042 612.868 183.061 614.674 183.061C615.321 183.061 615.92 183.061 616.471 183.061C617.023 183.061 617.451 183.051 617.755 183.032C618.059 183.013 618.249 183.013 618.325 183.032C618.63 183.032 618.782 183.127 618.782 183.318C618.782 183.356 618.763 183.49 618.725 183.719C618.63 184.043 618.535 184.234 618.439 184.291H618.382C618.344 184.291 618.297 184.291 618.24 184.291C618.183 184.291 618.116 184.291 618.04 184.291C617.964 184.291 617.878 184.301 617.783 184.32C617.688 184.339 617.603 184.339 617.527 184.32C616.785 184.339 616.31 184.368 616.101 184.406C615.891 184.444 615.72 184.549 615.587 184.721C615.568 184.759 615.302 185.761 614.788 187.726C614.275 189.692 613.762 191.752 613.248 193.909C612.735 196.065 612.45 197.334 612.393 197.716C612.355 197.983 612.335 198.259 612.335 198.546C612.335 199.576 612.63 200.387 613.22 200.979C613.809 201.57 614.627 201.866 615.673 201.866C616.947 201.866 618.221 201.437 619.495 200.578C620.769 199.719 621.701 198.422 622.29 196.685L623.745 190.932C624.638 187.268 625.085 185.36 625.085 185.207C625.085 184.692 624.477 184.396 623.26 184.32C622.803 184.32 622.575 184.215 622.575 184.005C622.575 183.967 622.594 183.853 622.632 183.662C622.708 183.356 622.765 183.175 622.803 183.118C622.841 183.061 622.937 183.022 623.089 183.003C623.146 183.003 623.45 183.013 624.001 183.032C624.553 183.051 625.352 183.07 626.397 183.089C627.367 183.089 628.109 183.08 628.622 183.061C629.136 183.042 629.411 183.032 629.449 183.032C629.735 183.032 629.877 183.127 629.877 183.318C629.877 183.738 629.801 184.024 629.649 184.177C629.592 184.272 629.383 184.32 629.021 184.32C627.671 184.396 626.825 184.778 626.483 185.465C626.445 185.56 625.97 187.402 625.057 190.989C624.277 194.214 623.802 196.113 623.631 196.685C623.003 198.593 621.91 200.149 620.35 201.351C618.791 202.553 617.175 203.163 615.502 203.183C613.752 203.183 612.355 202.648 611.309 201.58C610.263 200.511 609.73 199.242 609.711 197.773V197.315C609.711 196.971 610.234 194.701 611.28 190.503C612.212 186.667 612.678 184.692 612.678 184.578C612.678 184.444 612.136 184.358 611.052 184.32Z" fill="black"/>
<path d="M629.861 210.125C629.888 210.125 629.928 210.138 629.982 210.165C630.036 210.192 630.11 210.212 630.204 210.226C630.298 210.239 630.378 210.246 630.446 210.246C630.62 210.246 630.782 210.158 630.93 209.983C631.077 209.808 631.185 209.612 631.252 209.396C631.387 209.032 631.615 208 631.938 206.3C632.261 204.6 632.57 202.981 632.865 201.443C633.161 199.905 633.309 199.129 633.309 199.116V199.055H632.361C631.729 199.055 631.393 199.042 631.353 199.015C631.299 198.974 631.272 198.907 631.272 198.812L631.414 198.246C631.44 198.178 631.494 198.145 631.575 198.145C631.656 198.145 631.971 198.138 632.523 198.124C633.168 198.124 633.491 198.118 633.491 198.104C633.491 198.077 633.551 197.74 633.672 197.092C633.793 196.445 633.874 196.054 633.914 195.919C634.412 193.693 635.393 192.58 636.858 192.58C637.356 192.607 637.766 192.755 638.088 193.025C638.411 193.295 638.572 193.652 638.572 194.097C638.572 194.583 638.431 194.934 638.149 195.15C637.867 195.365 637.584 195.48 637.302 195.494C636.71 195.494 636.415 195.21 636.415 194.644C636.415 194.387 636.489 194.165 636.636 193.976C636.784 193.787 636.946 193.645 637.12 193.551L637.302 193.45C637.087 193.369 636.885 193.328 636.697 193.328C636.536 193.328 636.381 193.396 636.233 193.531C636.085 193.666 635.984 193.855 635.931 194.097C635.837 194.489 635.729 195.015 635.608 195.676C635.487 196.337 635.379 196.897 635.285 197.355C635.191 197.814 635.144 198.057 635.144 198.084C635.144 198.111 635.514 198.124 636.253 198.124C636.858 198.124 637.208 198.131 637.302 198.145C637.396 198.158 637.47 198.199 637.524 198.266C637.537 198.32 637.524 198.435 637.483 198.61C637.443 198.785 637.41 198.893 637.383 198.934C637.356 199.001 637.295 199.035 637.201 199.035C637.107 199.035 636.744 199.042 636.112 199.055H634.983L634.519 201.524C633.874 204.87 633.423 206.961 633.168 207.797C632.805 208.944 632.334 209.794 631.756 210.347C631.259 210.779 630.768 210.995 630.284 210.995C629.854 210.995 629.464 210.867 629.115 210.61C628.765 210.354 628.59 209.99 628.59 209.517C628.59 209.018 628.732 208.654 629.014 208.425C629.296 208.195 629.578 208.081 629.861 208.081C630.452 208.081 630.748 208.364 630.748 208.931C630.748 209.187 630.674 209.41 630.526 209.598C630.378 209.787 630.217 209.929 630.042 210.023L629.861 210.125Z" fill="black"/>
<path d="M548.419 98.5084C548.419 98.329 548.538 98.1595 548.777 98H558.271L558.48 98.1196C558.679 98.3988 558.679 98.638 558.48 98.8374C558.341 98.977 558.002 99.0468 557.465 99.0468C556.868 99.1066 556.519 99.1764 556.42 99.2561C556.181 99.3359 556.052 99.5154 556.032 99.7945C556.012 100.074 555.982 101.33 555.942 103.563V107.361H563.257V103.563C563.257 103.124 563.247 102.566 563.227 101.888C563.207 100.652 563.177 99.9241 563.137 99.7048C563.098 99.4854 562.988 99.3359 562.809 99.2561H562.779C562.66 99.1764 562.301 99.1066 561.704 99.0468C560.928 99.0468 560.54 98.8773 560.54 98.5383C560.54 98.3988 560.6 98.2592 560.719 98.1196L560.928 98H570.422C570.641 98.1396 570.75 98.3091 570.75 98.5084C570.75 98.8673 570.372 99.0468 569.616 99.0468C568.82 99.1066 568.352 99.2661 568.213 99.5253C568.173 99.645 568.153 102.546 568.153 108.229C568.153 113.891 568.173 116.772 568.213 116.872C568.352 117.151 568.82 117.321 569.616 117.381C570.372 117.381 570.75 117.57 570.75 117.949C570.75 118.148 570.641 118.318 570.422 118.457H560.928L560.719 118.338C560.6 118.198 560.54 118.059 560.54 117.919C560.54 117.56 560.928 117.381 561.704 117.381C562.54 117.321 563.008 117.151 563.108 116.872C563.207 116.633 563.257 115.257 563.257 112.745V108.767H555.942V112.745C555.942 115.337 555.992 116.713 556.092 116.872C556.191 117.151 556.649 117.321 557.465 117.381C557.962 117.381 558.301 117.45 558.48 117.59C558.659 117.809 558.659 118.059 558.48 118.338L558.271 118.457H548.777C548.538 118.338 548.419 118.168 548.419 117.949C548.419 117.57 548.807 117.381 549.583 117.381C550.399 117.321 550.857 117.151 550.956 116.872C551.056 116.713 551.106 113.831 551.106 108.229C551.106 102.626 551.056 99.7247 550.956 99.5253C550.837 99.2661 550.379 99.1066 549.583 99.0468C548.807 99.0468 548.419 98.8673 548.419 98.5084ZM554.957 108.229V101.888C554.957 100.253 555.017 99.306 555.136 99.0468H551.912C551.971 99.1864 552.011 99.2861 552.031 99.3459C552.051 99.4057 552.071 99.7546 552.091 100.393C552.111 101.031 552.131 101.888 552.151 102.965C552.171 104.041 552.171 105.796 552.151 108.229C552.151 112.416 552.141 114.928 552.121 115.766C552.101 116.603 552.041 117.121 551.942 117.321C551.922 117.341 551.912 117.361 551.912 117.381H555.136C555.017 117.141 554.957 116.204 554.957 114.569V108.229ZM567.078 108.229V103.802C567.078 102.626 567.078 101.758 567.078 101.2C567.078 100.642 567.088 100.203 567.108 99.8842C567.128 99.5652 567.148 99.3758 567.168 99.316C567.188 99.2561 567.228 99.1664 567.287 99.0468H564.033L564.182 99.316C564.262 99.5951 564.302 102.566 564.302 108.229C564.302 112.436 564.292 114.958 564.272 115.795C564.252 116.633 564.182 117.141 564.063 117.321C564.043 117.341 564.033 117.361 564.033 117.381H567.287C567.228 117.261 567.198 117.191 567.198 117.171C567.198 117.151 567.178 117.022 567.138 116.782C567.098 116.543 567.078 116.254 567.078 115.915C567.078 115.576 567.078 115.018 567.078 114.24V108.229Z" fill="black"/>
<path d="M573.719 127.138C573.747 127.138 573.789 127.152 573.846 127.18C573.902 127.208 573.979 127.229 574.078 127.243C574.176 127.258 574.261 127.265 574.331 127.265C574.514 127.265 574.683 127.173 574.838 126.99C574.992 126.806 575.105 126.602 575.175 126.376C575.316 125.996 575.555 124.917 575.893 123.141C576.231 121.365 576.554 119.673 576.864 118.066C577.174 116.459 577.328 115.649 577.328 115.635V115.571H576.336C575.675 115.571 575.323 115.557 575.281 115.529C575.225 115.487 575.196 115.416 575.196 115.318L575.344 114.725C575.372 114.655 575.429 114.62 575.513 114.62C575.597 114.62 575.928 114.613 576.505 114.599C577.181 114.599 577.518 114.592 577.518 114.577C577.518 114.549 577.582 114.197 577.708 113.52C577.835 112.844 577.919 112.435 577.962 112.294C578.482 109.968 579.509 108.805 581.043 108.805C581.564 108.833 581.993 108.988 582.331 109.27C582.669 109.552 582.837 109.926 582.837 110.391C582.837 110.898 582.69 111.265 582.394 111.49C582.099 111.716 581.803 111.836 581.508 111.85C580.888 111.85 580.579 111.554 580.579 110.962C580.579 110.694 580.656 110.461 580.811 110.264C580.966 110.066 581.135 109.918 581.318 109.82L581.508 109.714C581.283 109.629 581.071 109.587 580.874 109.587C580.706 109.587 580.544 109.658 580.389 109.799C580.234 109.94 580.129 110.137 580.072 110.391C579.974 110.8 579.861 111.349 579.735 112.04C579.608 112.731 579.495 113.316 579.397 113.795C579.298 114.274 579.249 114.528 579.249 114.556C579.249 114.585 579.636 114.599 580.41 114.599C581.043 114.599 581.409 114.606 581.508 114.62C581.606 114.634 581.684 114.676 581.74 114.747C581.754 114.803 581.74 114.923 581.698 115.106C581.655 115.289 581.62 115.402 581.592 115.444C581.564 115.515 581.501 115.55 581.402 115.55C581.304 115.55 580.924 115.557 580.262 115.571H579.08L578.595 118.151C577.919 121.647 577.448 123.832 577.181 124.706C576.801 125.904 576.308 126.792 575.703 127.37C575.182 127.821 574.669 128.047 574.162 128.047C573.712 128.047 573.304 127.913 572.938 127.645C572.572 127.377 572.389 126.997 572.389 126.503C572.389 125.982 572.537 125.601 572.832 125.362C573.128 125.122 573.423 125.002 573.719 125.002C574.338 125.002 574.648 125.298 574.648 125.89C574.648 126.158 574.57 126.391 574.415 126.588C574.261 126.785 574.092 126.933 573.909 127.032L573.719 127.138Z" fill="black"/>
<path d="M584.822 118.426C584.822 117.453 584.892 116.53 585.033 115.656C585.173 114.782 585.335 114.028 585.518 113.393C585.701 112.759 585.961 112.139 586.299 111.533C586.637 110.926 586.904 110.454 587.101 110.116C587.298 109.778 587.594 109.411 587.988 109.016C588.382 108.622 588.614 108.382 588.684 108.297C588.755 108.213 588.931 108.065 589.212 107.853H589.486H589.571C589.768 107.853 589.866 107.917 589.866 108.044C589.866 108.086 589.747 108.234 589.507 108.488C589.268 108.741 588.98 109.115 588.642 109.608C588.304 110.102 587.96 110.708 587.608 111.427C587.256 112.146 586.96 113.118 586.721 114.345C586.482 115.571 586.362 116.932 586.362 118.426C586.362 119.92 586.482 121.273 586.721 122.486C586.96 123.698 587.249 124.678 587.587 125.425C587.924 126.172 588.269 126.778 588.621 127.243C588.973 127.709 589.268 128.082 589.507 128.364C589.747 128.646 589.866 128.794 589.866 128.808C589.866 128.935 589.761 128.999 589.55 128.999H589.486H589.212L588.621 128.491C587.298 127.293 586.334 125.799 585.729 124.008C585.124 122.218 584.822 120.357 584.822 118.426Z" fill="black"/>
<path d="M605.106 118.489C605.078 118.532 604.979 119.384 604.811 121.048C604.642 122.711 604.543 123.571 604.515 123.628V123.712H598.457C595.361 123.712 593.56 123.712 593.054 123.712C592.547 123.712 592.28 123.677 592.251 123.606V123.585C592.209 123.501 592.209 123.423 592.251 123.353L592.589 122.951C592.814 122.697 593.152 122.317 593.602 121.809C594.053 121.302 594.482 120.815 594.89 120.35L597.486 117.39L592.23 110.095L592.209 109.799C592.209 109.531 592.244 109.369 592.315 109.312C592.357 109.284 594.404 109.27 598.457 109.27H604.515V109.355C604.543 109.425 604.642 110.236 604.811 111.786C604.979 113.337 605.078 114.162 605.106 114.26V114.345H604.262V114.26C604.149 113.443 603.994 112.766 603.797 112.23C603.6 111.695 603.284 111.258 602.848 110.919C602.425 110.623 601.856 110.44 601.138 110.37C600.42 110.299 599.4 110.257 598.077 110.243H597.254H595.038L597.233 113.266C597.528 113.675 597.894 114.183 598.331 114.789C599.104 115.86 599.491 116.438 599.491 116.523C599.491 116.551 599.484 116.572 599.47 116.586L594.299 122.507C597.859 122.507 599.787 122.5 600.082 122.486C600.758 122.458 601.321 122.387 601.771 122.274C602.221 122.162 602.524 122.056 602.679 121.957C602.834 121.858 603.002 121.718 603.185 121.534C603.467 121.224 603.699 120.808 603.882 120.287C604.065 119.765 604.177 119.321 604.22 118.955L604.262 118.405H605.106V118.489Z" fill="black"/>
<path d="M607.555 107.874L607.639 107.853C607.709 107.853 607.78 107.853 607.85 107.853H608.103L608.694 108.361C610.017 109.559 610.981 111.053 611.586 112.844C612.191 114.634 612.494 116.495 612.494 118.426C612.494 119.384 612.423 120.308 612.283 121.196C612.142 122.084 611.98 122.838 611.797 123.458C611.614 124.079 611.354 124.699 611.016 125.319C610.679 125.939 610.411 126.412 610.214 126.736C610.017 127.06 609.729 127.42 609.349 127.814C608.969 128.209 608.744 128.442 608.673 128.512C608.603 128.583 608.441 128.717 608.188 128.914C608.146 128.956 608.117 128.984 608.103 128.999H607.85C607.738 128.999 607.66 128.999 607.618 128.999C607.576 128.999 607.541 128.977 607.512 128.935C607.484 128.893 607.463 128.829 607.449 128.745C607.463 128.731 607.541 128.639 607.681 128.47C609.862 126.2 610.953 122.852 610.953 118.426C610.953 114 609.862 110.652 607.681 108.382C607.541 108.213 607.463 108.121 607.449 108.107C607.449 107.994 607.484 107.917 607.555 107.874Z" fill="black"/>
<path d="M591.5 143L590.285 148.644L595.781 146.874L591.5 143ZM598.998 237.138C604.284 201.972 604.035 181.075 593.355 147.129L592.401 147.429C603.026 181.2 603.278 201.938 598.01 236.989L598.998 237.138Z" fill="black"/>
<defs>
<clipPath id="clip0_1_2">
<rect width="30" height="13.5942" fill="white" transform="translate(368 21)"/>
</clipPath>
</defs>
</svg>
