<svg width="1863" height="646" viewBox="0 0 1863 646" fill="none" xmlns="http://www.w3.org/2000/svg">
<path d="M309 617.129C355.227 469.165 598.468 477.874 637.08 363.275C690.515 204.686 528.576 113.202 564.53 19.1291" stroke="#8C76EC" stroke-width="4" stroke-linecap="round"/>
<path d="M1111 624.129C1157.23 476.413 1400.47 485.107 1439.08 370.699C1492.51 212.376 1330.58 121.044 1366.53 27.1291" stroke="#EC8876" stroke-width="4" stroke-linecap="round"/>
<path d="M658.714 269.712C709.11 271.842 754.728 279.691 785.915 291.597C817.101 303.504 831.409 318.534 825.811 333.507C820.212 348.48 795.147 362.221 755.919 371.823C716.69 381.424 666.377 386.132 615.627 384.95C564.876 383.769 517.671 376.79 483.999 365.492C450.327 354.194 432.832 339.462 435.215 324.414C437.598 309.366 459.673 295.183 496.768 284.866C533.863 274.549 583.068 268.907 633.969 269.136" stroke="black" stroke-width="4" stroke-linecap="round"/>
<path d="M346.262 591.203C346.262 590.657 346.423 590.223 346.745 589.901H347.154C348.196 589.975 349.497 590.012 351.059 590.012C353.985 590.012 355.708 589.975 356.229 589.901H356.601C356.75 590.05 356.824 590.161 356.824 590.236C356.824 590.31 356.799 590.533 356.75 590.905C356.626 591.277 356.514 591.513 356.415 591.612H355.634C355.089 591.661 354.717 591.686 354.518 591.686C353.799 591.81 353.403 591.996 353.328 592.244C353.328 592.294 353.688 595.405 354.407 601.579C355.126 607.753 355.498 610.865 355.523 610.915L358.238 606.563C360.048 603.662 361.858 600.736 363.668 597.786C365.478 594.835 366.408 593.31 366.457 593.211C366.556 593.037 366.606 592.851 366.606 592.653C366.606 592.058 366.06 591.711 364.969 591.612C364.523 591.612 364.3 591.475 364.3 591.203C364.3 591.178 364.325 591.017 364.374 590.719C364.449 590.372 364.523 590.149 364.597 590.05C364.672 589.95 364.833 589.901 365.081 589.901C365.131 589.901 365.279 589.901 365.527 589.901C365.775 589.901 366.197 589.913 366.792 589.938C367.387 589.963 368.18 589.975 369.172 589.975C370.883 589.975 371.962 589.95 372.408 589.901H372.668C372.842 590.074 372.929 590.211 372.929 590.31C372.929 590.731 372.817 591.128 372.594 591.5C372.519 591.575 372.309 591.612 371.962 591.612C371.639 591.637 371.342 591.661 371.069 591.686C370.796 591.711 370.536 591.773 370.288 591.872C370.04 591.971 369.842 592.058 369.693 592.132C369.544 592.207 369.395 592.306 369.247 592.43C369.098 592.554 368.974 592.641 368.875 592.69C368.775 592.74 368.676 592.851 368.577 593.025C368.478 593.199 368.391 593.285 368.317 593.285L361.139 604.815C356.675 612.03 354.37 615.725 354.221 615.898C354.146 615.948 354.06 616.01 353.96 616.084L353.291 616.122H353.031C352.584 616.122 352.361 616.035 352.361 615.861C352.287 615.712 351.803 611.745 350.911 603.96C349.968 596.075 349.485 592.095 349.46 592.021C349.336 591.748 348.568 591.612 347.154 591.612H346.522C346.348 591.488 346.262 591.351 346.262 591.203Z" fill="black"/>
<path d="M376.425 606.005C376.425 604.294 376.549 602.67 376.797 601.133C377.045 599.596 377.33 598.269 377.652 597.153C377.974 596.038 378.433 594.947 379.028 593.88C379.623 592.814 380.094 591.984 380.441 591.389C380.789 590.793 381.309 590.149 382.004 589.455C382.698 588.76 383.107 588.339 383.231 588.19C383.355 588.041 383.665 587.781 384.161 587.409H384.644H384.793C385.14 587.409 385.314 587.521 385.314 587.744C385.314 587.818 385.103 588.078 384.681 588.525C384.26 588.971 383.752 589.628 383.157 590.496C382.561 591.364 381.954 592.43 381.334 593.694C380.714 594.959 380.194 596.67 379.772 598.827C379.35 600.984 379.14 603.377 379.14 606.005C379.14 608.633 379.35 611.014 379.772 613.146C380.194 615.279 380.702 617.002 381.297 618.316C381.892 619.63 382.499 620.696 383.119 621.514C383.739 622.333 384.26 622.99 384.681 623.486C385.103 623.982 385.314 624.242 385.314 624.267C385.314 624.49 385.128 624.601 384.756 624.601H384.644H384.161L383.119 623.709C380.789 621.601 379.09 618.973 378.024 615.824C376.958 612.675 376.425 609.402 376.425 606.005Z" fill="black"/>
<path d="M389.256 605.931C389.256 603.079 390.087 600.34 391.748 597.711C393.409 595.083 395.504 593 398.033 591.463C400.563 589.926 403.092 589.145 405.621 589.12C407.852 589.12 409.625 589.752 410.939 591.017C411.162 591.265 411.348 591.475 411.497 591.649C411.646 591.822 411.745 591.946 411.795 592.021L411.832 592.132C411.906 592.132 412.241 591.81 412.836 591.165C413.01 591.017 413.196 590.843 413.394 590.645C413.592 590.446 413.791 590.248 413.989 590.05C414.187 589.851 414.311 589.715 414.361 589.641L414.919 589.083H415.142C415.489 589.083 415.663 589.169 415.663 589.343C415.663 589.442 415.266 591.141 414.473 594.438C413.58 597.885 413.134 599.62 413.134 599.645C413.084 599.769 413.022 599.844 412.948 599.868C412.873 599.893 412.65 599.918 412.278 599.943H411.683C411.534 599.794 411.46 599.682 411.46 599.608C411.46 599.583 411.472 599.497 411.497 599.348C411.522 599.199 411.547 598.951 411.572 598.604C411.596 598.257 411.609 597.86 411.609 597.414C411.609 595.653 411.212 594.116 410.419 592.802C409.625 591.488 408.274 590.818 406.365 590.793C405.72 590.793 405.026 590.88 404.282 591.054C403.538 591.227 402.645 591.525 401.604 591.946C400.563 592.368 399.534 593.062 398.517 594.029C397.5 594.996 396.595 596.149 395.802 597.488C395.009 598.901 394.376 600.55 393.905 602.435C393.434 604.319 393.198 605.856 393.198 607.047C393.198 609.873 394.141 611.906 396.025 613.146C397.215 613.989 398.678 614.411 400.414 614.411C402.67 614.411 404.679 613.568 406.439 611.882C408.199 610.196 409.365 608.361 409.935 606.377C410.034 606.055 410.109 605.869 410.158 605.819C410.208 605.77 410.406 605.745 410.753 605.745C411.249 605.745 411.497 605.856 411.497 606.08C411.497 606.204 411.485 606.315 411.46 606.414C410.741 609.067 409.204 611.349 406.848 613.258C404.493 615.167 401.963 616.122 399.261 616.122C396.459 616.122 394.091 615.192 392.157 613.332C390.223 611.472 389.256 609.005 389.256 605.931Z" fill="black"/>
<path d="M416.221 587.446L416.369 587.409C416.493 587.409 416.617 587.409 416.741 587.409H417.188L418.229 588.302C420.56 590.409 422.258 593.037 423.324 596.186C424.391 599.335 424.924 602.608 424.924 606.005C424.924 607.691 424.8 609.315 424.552 610.877C424.304 612.439 424.019 613.766 423.696 614.857C423.374 615.948 422.915 617.039 422.32 618.13C421.725 619.221 421.254 620.052 420.907 620.622C420.56 621.192 420.051 621.824 419.382 622.519C418.713 623.213 418.316 623.622 418.192 623.746C418.068 623.87 417.783 624.106 417.336 624.453C417.262 624.527 417.212 624.577 417.188 624.601H416.741C416.543 624.601 416.407 624.601 416.332 624.601C416.258 624.601 416.196 624.564 416.146 624.49C416.097 624.415 416.059 624.304 416.035 624.155C416.059 624.13 416.196 623.969 416.444 623.672C420.287 619.68 422.209 613.791 422.209 606.005C422.209 598.22 420.287 592.331 416.444 588.339C416.196 588.041 416.059 587.88 416.035 587.855C416.035 587.657 416.097 587.521 416.221 587.446Z" fill="black"/>
<path d="M576 37.3299C576 34.588 576.818 31.9535 578.454 29.4262C580.089 26.8989 582.152 24.8961 584.642 23.4179C587.132 21.9397 589.623 21.1887 592.113 21.1648C594.31 21.1648 596.055 21.7728 597.349 22.9888C597.569 23.2272 597.752 23.4298 597.899 23.5967C598.045 23.7636 598.143 23.8828 598.192 23.9544L598.228 24.0617C598.301 24.0617 598.631 23.7517 599.217 23.1318C599.388 22.9888 599.571 22.8219 599.766 22.6311C599.962 22.4404 600.157 22.2496 600.352 22.0589C600.547 21.8682 600.669 21.737 600.718 21.6655L601.268 21.1291H601.487C601.829 21.1291 602 21.2125 602 21.3794C602 21.4748 601.609 23.108 600.828 26.279C599.949 29.5931 599.51 31.262 599.51 31.2859C599.461 31.4051 599.4 31.4766 599.327 31.5004C599.254 31.5243 599.034 31.5481 598.668 31.572H598.082C597.935 31.4289 597.862 31.3216 597.862 31.2501C597.862 31.2263 597.874 31.1428 597.899 30.9998C597.923 30.8567 597.947 30.6183 597.972 30.2845C597.996 29.9507 598.008 29.5692 598.008 29.1401C598.008 27.4473 597.618 25.969 596.837 24.7054C596.055 23.4418 594.725 22.798 592.845 22.7742C592.21 22.7742 591.527 22.8576 590.794 23.0245C590.062 23.1914 589.183 23.4775 588.158 23.8828C587.132 24.2882 586.119 24.9557 585.118 25.8856C584.117 26.8154 583.226 27.9241 582.445 29.2116C581.664 30.5706 581.041 32.1561 580.577 33.9681C580.114 35.7801 579.882 37.2584 579.882 38.4028C579.882 41.1208 580.809 43.0759 582.665 44.268C583.837 45.0786 585.277 45.4839 586.986 45.4839C589.208 45.4839 591.185 44.6733 592.918 43.052C594.652 41.4308 595.799 39.6664 596.361 37.759C596.458 37.4491 596.531 37.2703 596.58 37.2226C596.629 37.1749 596.824 37.1511 597.166 37.1511C597.654 37.1511 597.899 37.2584 597.899 37.4729C597.899 37.5921 597.886 37.6994 597.862 37.7948C597.154 40.3459 595.64 42.5394 593.321 44.3753C591.002 46.2111 588.512 47.1291 585.851 47.1291C583.092 47.1291 580.761 46.235 578.856 44.4468C576.952 42.6586 576 40.2863 576 37.3299Z" fill="black"/>
<path d="M1377 47.3299C1377 44.588 1377.79 41.9535 1379.36 39.4262C1380.93 36.8989 1382.92 34.8961 1385.31 33.4179C1387.7 31.9397 1390.1 31.1887 1392.49 31.1648C1394.61 31.1648 1396.28 31.7728 1397.53 32.9888C1397.74 33.2272 1397.92 33.4298 1398.06 33.5967C1398.2 33.7636 1398.29 33.8828 1398.34 33.9544L1398.37 34.0617C1398.44 34.0617 1398.76 33.7517 1399.32 33.1318C1399.49 32.9888 1399.66 32.8219 1399.85 32.6311C1400.04 32.4404 1400.23 32.2496 1400.42 32.0589C1400.6 31.8682 1400.72 31.737 1400.77 31.6655L1401.3 31.1291H1401.51C1401.84 31.1291 1402 31.2125 1402 31.3794C1402 31.4748 1401.62 33.108 1400.87 36.279C1400.03 39.5931 1399.61 41.262 1399.61 41.2859C1399.56 41.4051 1399.5 41.4766 1399.43 41.5004C1399.36 41.5243 1399.15 41.5481 1398.8 41.572H1398.23C1398.09 41.4289 1398.02 41.3216 1398.02 41.2501C1398.02 41.2263 1398.03 41.1428 1398.06 40.9998C1398.08 40.8567 1398.1 40.6183 1398.13 40.2845C1398.15 39.9507 1398.16 39.5692 1398.16 39.1401C1398.16 37.4473 1397.79 35.969 1397.04 34.7054C1396.28 33.4418 1395 32.798 1393.2 32.7742C1392.59 32.7742 1391.93 32.8576 1391.23 33.0245C1390.52 33.1914 1389.68 33.4775 1388.69 33.8828C1387.7 34.2882 1386.73 34.9557 1385.77 35.8856C1384.81 36.8154 1383.95 37.9241 1383.2 39.2116C1382.45 40.5706 1381.85 42.1561 1381.4 43.9681C1380.96 45.7801 1380.73 47.2584 1380.73 48.4028C1380.73 51.1208 1381.62 53.0759 1383.41 54.268C1384.54 55.0786 1385.92 55.4839 1387.56 55.4839C1389.7 55.4839 1391.6 54.6733 1393.27 53.052C1394.93 51.4308 1396.04 49.6664 1396.58 47.759C1396.67 47.4491 1396.74 47.2703 1396.79 47.2226C1396.84 47.1749 1397.02 47.1511 1397.35 47.1511C1397.82 47.1511 1398.06 47.2584 1398.06 47.4729C1398.06 47.5921 1398.04 47.6994 1398.02 47.7948C1397.34 50.3459 1395.88 52.5394 1393.65 54.3753C1391.42 56.2111 1389.03 57.1291 1386.47 57.1291C1383.82 57.1291 1381.58 56.235 1379.75 54.4468C1377.92 52.6586 1377 50.2863 1377 47.3299Z" fill="black"/>
<path d="M433.916 266.496C435.341 266.496 436.645 265.868 437.828 264.612C439.012 263.356 439.616 261.895 439.64 260.229C439.64 258.707 439.012 257.656 437.756 257.077C435.196 256.425 433.553 255.978 432.829 255.736C432.104 255.495 431.597 255.253 431.307 255.012C429.858 253.997 429.133 252.536 429.133 250.628C429.133 249.155 429.52 247.814 430.293 246.606C431.066 245.399 431.851 244.493 432.648 243.889C433.348 243.285 434.193 242.802 435.184 242.44C436.174 242.078 436.947 241.885 437.502 241.86H437.901H438.154C440.473 241.86 442.152 242.633 443.19 244.179C443.214 244.179 443.371 244.022 443.661 243.708C443.951 243.394 444.265 243.044 444.603 242.658C444.941 242.271 445.183 242.005 445.328 241.86C445.352 241.86 445.4 241.86 445.473 241.86C445.545 241.86 445.606 241.848 445.654 241.824C445.968 241.824 446.125 241.909 446.125 242.078C446.125 242.247 445.787 243.708 445.11 246.462C444.434 249.215 444.048 250.64 443.951 250.737C443.855 250.833 443.661 250.869 443.371 250.845C442.888 250.845 442.647 250.737 442.647 250.519C442.647 250.374 442.659 250.254 442.683 250.157C442.683 250.084 442.695 249.855 442.719 249.469C442.743 249.082 442.768 248.768 442.792 248.527C442.792 247.705 442.683 246.993 442.466 246.389C442.248 245.785 442.031 245.338 441.814 245.049C441.596 244.759 441.294 244.457 440.908 244.143C440.038 243.636 439.048 243.382 437.937 243.382C436.56 243.382 435.28 243.938 434.097 245.049C432.913 246.16 432.309 247.44 432.285 248.889C432.285 249.614 432.466 250.241 432.829 250.773C433.191 251.304 433.686 251.679 434.314 251.896C434.411 251.944 435.256 252.174 436.85 252.584C438.444 252.995 439.253 253.212 439.278 253.236C440.099 253.502 440.896 254.082 441.669 254.975C442.442 255.869 442.828 257.077 442.828 258.598C442.828 259.226 442.731 259.903 442.538 260.627C442.417 261.159 442.2 261.75 441.886 262.402C441.572 263.055 441.137 263.767 440.582 264.54C440.026 265.313 439.229 266.037 438.191 266.714C437.152 267.39 436.017 267.849 434.785 268.09C434.495 268.139 434.085 268.163 433.553 268.163C431.162 268.163 429.302 267.499 427.974 266.17L427.612 265.772L426.597 266.895C426.042 267.547 425.704 267.921 425.583 268.018C425.462 268.115 425.305 268.163 425.112 268.163C424.798 268.163 424.641 268.066 424.641 267.873C424.641 267.801 425.341 264.963 426.742 259.359C426.791 259.214 427.032 259.142 427.467 259.142H427.938C428.083 259.287 428.155 259.42 428.155 259.54C428.155 259.589 428.143 259.697 428.119 259.866C428.095 260.035 428.047 260.289 427.974 260.627C427.902 260.965 427.877 261.364 427.902 261.823C427.95 262.765 428.167 263.562 428.554 264.214C428.94 264.866 429.459 265.349 430.112 265.663C430.764 265.977 431.392 266.194 431.995 266.315C432.599 266.436 433.239 266.496 433.916 266.496Z" fill="black"/>
<path d="M445.503 245.052C445.521 244.949 445.546 244.813 445.58 244.642C445.614 244.471 445.717 244.147 445.888 243.669C446.058 243.191 446.229 242.789 446.4 242.465C446.571 242.14 446.852 241.825 447.245 241.517C447.638 241.21 448.031 241.065 448.423 241.082C449.038 241.082 449.55 241.235 449.96 241.543C450.37 241.85 450.626 242.14 450.729 242.414C450.831 242.687 450.882 242.866 450.882 242.952C450.882 242.986 450.891 243.003 450.908 243.003L451.19 242.721C452.231 241.628 453.418 241.082 454.75 241.082C455.672 241.082 456.415 241.312 456.979 241.773C457.542 242.234 457.832 242.909 457.849 243.797C457.867 244.685 457.542 246.025 456.876 247.818C456.21 249.611 455.886 250.696 455.903 251.071C455.903 251.515 456.048 251.737 456.338 251.737C456.441 251.737 456.518 251.729 456.569 251.712C457.064 251.626 457.508 251.302 457.901 250.738C458.293 250.175 458.592 249.492 458.797 248.689C458.831 248.553 459.002 248.484 459.309 248.484C459.651 248.484 459.822 248.553 459.822 248.689C459.822 248.706 459.788 248.834 459.719 249.073C459.583 249.569 459.395 250.055 459.156 250.533C458.917 251.011 458.524 251.49 457.978 251.968C457.431 252.446 456.842 252.676 456.21 252.659C455.408 252.659 454.827 252.429 454.468 251.968C454.11 251.507 453.93 251.029 453.93 250.533C453.93 250.209 454.238 249.184 454.853 247.46C455.467 245.735 455.783 244.437 455.8 243.566C455.8 242.559 455.425 242.055 454.673 242.055H454.545C453.077 242.055 451.839 242.917 450.831 244.642L450.652 244.949L449.807 248.382C449.243 250.619 448.919 251.823 448.833 251.993C448.611 252.454 448.244 252.685 447.732 252.685C447.51 252.685 447.331 252.634 447.194 252.531C447.057 252.429 446.963 252.326 446.912 252.224C446.861 252.121 446.844 252.036 446.861 251.968C446.861 251.746 447.185 250.354 447.834 247.793C448.483 245.231 448.825 243.84 448.859 243.618C448.876 243.532 448.885 243.336 448.885 243.028C448.885 242.362 448.68 242.029 448.27 242.029C447.621 242.029 447.083 242.883 446.656 244.591C446.554 244.932 446.502 245.112 446.502 245.129C446.468 245.231 446.306 245.282 446.016 245.282H445.657C445.555 245.18 445.503 245.103 445.503 245.052Z" fill="black"/>
<path d="M462.486 246.333C462.486 246.333 462.486 246.222 462.486 246C462.486 245.778 462.605 245.607 462.844 245.487H477.726C477.982 245.624 478.11 245.795 478.11 246C478.11 246.205 477.982 246.375 477.726 246.512H462.844C462.605 246.392 462.486 246.222 462.486 246V246.333Z" fill="black"/>
<path d="M480.851 245.052C480.868 245.001 480.885 244.932 480.902 244.847C480.919 244.762 480.962 244.574 481.03 244.284C481.098 243.993 481.184 243.729 481.286 243.489C481.389 243.25 481.517 242.969 481.671 242.644C481.824 242.32 481.995 242.064 482.183 241.876C482.371 241.688 482.593 241.5 482.849 241.312C483.105 241.124 483.387 241.048 483.694 241.082C484.975 241.082 485.794 241.628 486.153 242.721L486.409 242.491C487.468 241.551 488.475 241.082 489.432 241.082C490.542 241.082 491.412 241.483 492.044 242.286C492.676 243.088 492.992 244.062 492.992 245.206C492.992 247.05 492.343 248.749 491.045 250.303C489.747 251.857 488.279 252.642 486.64 252.659C486.264 252.659 485.931 252.608 485.641 252.506C485.453 252.42 485.256 252.292 485.052 252.121C484.847 251.951 484.684 251.806 484.565 251.686L484.386 251.481C484.369 251.498 484.181 252.241 483.822 253.709C483.464 255.178 483.284 255.921 483.284 255.938C483.284 256.04 483.353 256.1 483.489 256.117C483.626 256.134 483.942 256.16 484.437 256.194H485.077C485.18 256.314 485.231 256.39 485.231 256.425C485.231 256.459 485.205 256.612 485.154 256.886C485.103 257.091 485.052 257.219 485 257.27C484.949 257.321 484.838 257.355 484.667 257.372C484.633 257.372 484.539 257.372 484.386 257.372C484.232 257.372 483.942 257.364 483.515 257.347C483.088 257.33 482.558 257.321 481.927 257.321C480.731 257.321 479.971 257.338 479.647 257.372H479.442C479.323 257.253 479.263 257.159 479.263 257.091C479.297 256.629 479.408 256.331 479.596 256.194H480.108C480.689 256.177 481.022 256.075 481.107 255.887C481.158 255.784 481.679 253.744 482.669 249.765C483.66 245.786 484.181 243.677 484.232 243.438C484.249 243.353 484.258 243.233 484.258 243.08C484.258 242.38 484.044 242.029 483.617 242.029C483.242 242.029 482.926 242.269 482.669 242.747C482.413 243.225 482.217 243.746 482.08 244.309C481.944 244.873 481.841 245.18 481.773 245.231C481.739 245.265 481.602 245.282 481.363 245.282H481.005C480.902 245.18 480.851 245.103 480.851 245.052ZM484.821 249.791C485.197 251.088 485.829 251.737 486.716 251.737C487.229 251.737 487.724 251.541 488.202 251.148C488.68 250.755 489.073 250.26 489.38 249.662C489.688 249.082 489.995 248.16 490.302 246.896C490.61 245.633 490.772 244.693 490.789 244.079V243.925C490.789 242.661 490.268 242.029 489.227 242.029C489.039 242.029 488.851 242.055 488.663 242.106C488.475 242.158 488.287 242.234 488.1 242.337C487.912 242.439 487.741 242.55 487.587 242.67C487.434 242.789 487.289 242.917 487.152 243.054C487.015 243.191 486.887 243.319 486.768 243.438C486.648 243.558 486.554 243.677 486.486 243.797C486.418 243.916 486.349 244.002 486.281 244.053L486.204 244.155C486.204 244.173 486.179 244.292 486.127 244.514C486.076 244.736 485.982 245.112 485.846 245.641C485.709 246.17 485.589 246.614 485.487 246.973C485.043 248.783 484.821 249.722 484.821 249.791Z" fill="black"/>
<path d="M495.297 246.333C495.297 246.333 495.297 246.222 495.297 246C495.297 245.778 495.417 245.607 495.656 245.487H510.538C510.794 245.624 510.922 245.795 510.922 246C510.922 246.205 510.794 246.375 510.538 246.512H495.656C495.417 246.392 495.297 246.222 495.297 246V246.333Z" fill="black"/>
<path d="M518.529 237.598L518.196 237.726C517.957 237.812 517.616 237.897 517.172 237.982C516.728 238.068 516.232 238.128 515.686 238.162H515.199V236.984H515.686C516.489 236.949 517.231 236.821 517.914 236.599C518.597 236.377 519.076 236.172 519.349 235.985C519.622 235.797 519.861 235.609 520.066 235.421C520.1 235.37 520.203 235.344 520.373 235.344C520.527 235.344 520.672 235.395 520.809 235.498V243.156L520.834 250.841C520.954 250.96 521.056 251.037 521.142 251.071C521.227 251.105 521.432 251.14 521.756 251.174C522.081 251.208 522.61 251.225 523.345 251.225H524.011V252.403H523.729C523.37 252.352 522.013 252.326 519.656 252.326C517.334 252.326 515.993 252.352 515.635 252.403H515.327V251.225H515.993C516.369 251.225 516.693 251.225 516.967 251.225C517.24 251.225 517.453 251.216 517.607 251.199C517.761 251.182 517.897 251.157 518.017 251.122C518.136 251.088 518.205 251.071 518.222 251.071C518.239 251.071 518.29 251.029 518.375 250.943C518.461 250.858 518.512 250.824 518.529 250.841V237.598Z" fill="black"/>
<path d="M671.782 407.581C670.951 407.581 670.511 407.532 670.462 407.434C670.437 407.385 670.425 407.288 670.425 407.141C670.425 406.554 670.56 406.151 670.829 405.931C670.877 405.906 671.085 405.894 671.452 405.894C672.454 405.943 674.117 405.967 676.44 405.967C677.271 405.967 678.041 405.967 678.75 405.967C679.459 405.967 680.009 405.955 680.401 405.931C680.792 405.906 681.036 405.906 681.134 405.931C681.525 405.931 681.721 406.053 681.721 406.297C681.721 406.346 681.696 406.517 681.647 406.811C681.525 407.227 681.403 407.471 681.281 407.544H681.207C681.158 407.544 681.097 407.544 681.024 407.544C680.951 407.544 680.865 407.544 680.767 407.544C680.669 407.544 680.559 407.557 680.437 407.581C680.315 407.605 680.205 407.605 680.107 407.581C679.154 407.605 678.542 407.642 678.273 407.691C678.004 407.74 677.784 407.874 677.613 408.094C677.589 408.143 677.247 409.427 676.586 411.945C675.926 414.464 675.266 417.104 674.606 419.867C673.946 422.63 673.579 424.256 673.506 424.745C673.457 425.087 673.432 425.441 673.432 425.808C673.432 427.128 673.811 428.167 674.569 428.925C675.327 429.683 676.379 430.062 677.723 430.062C679.361 430.062 681 429.512 682.638 428.412C684.276 427.312 685.474 425.649 686.232 423.424L688.102 416.053C689.251 411.358 689.826 408.914 689.826 408.718C689.826 408.058 689.043 407.679 687.479 407.581C686.892 407.581 686.598 407.447 686.598 407.178C686.598 407.129 686.623 406.982 686.672 406.738C686.77 406.346 686.843 406.114 686.892 406.041C686.941 405.967 687.063 405.918 687.259 405.894C687.332 405.894 687.723 405.906 688.432 405.931C689.141 405.955 690.168 405.98 691.513 406.004C692.76 406.004 693.713 405.992 694.373 405.967C695.034 405.943 695.388 405.931 695.437 405.931C695.804 405.931 695.987 406.053 695.987 406.297C695.987 406.835 695.889 407.202 695.694 407.398C695.62 407.52 695.351 407.581 694.887 407.581C693.151 407.679 692.063 408.168 691.623 409.048C691.574 409.17 690.963 411.53 689.789 416.126C688.787 420.258 688.175 422.691 687.955 423.424C687.149 425.869 685.743 427.862 683.738 429.402C681.733 430.943 679.655 431.725 677.503 431.749C675.254 431.749 673.457 431.065 672.112 429.696C670.767 428.326 670.083 426.701 670.058 424.818V424.231C670.058 423.791 670.731 420.882 672.075 415.503C673.274 410.588 673.873 408.058 673.873 407.911C673.873 407.74 673.176 407.63 671.782 407.581Z" fill="black"/>
<path d="M699.434 421.774C699.434 420.087 699.557 418.485 699.801 416.97C700.046 415.454 700.327 414.146 700.645 413.045C700.963 411.945 701.415 410.869 702.002 409.818C702.588 408.767 703.053 407.948 703.395 407.361C703.738 406.774 704.251 406.139 704.936 405.454C705.62 404.769 706.024 404.354 706.146 404.207C706.268 404.06 706.574 403.804 707.063 403.437H707.539H707.686C708.028 403.437 708.2 403.547 708.2 403.767C708.2 403.84 707.992 404.097 707.576 404.537C707.16 404.977 706.659 405.625 706.072 406.481C705.486 407.337 704.887 408.388 704.275 409.635C703.664 410.882 703.151 412.569 702.735 414.696C702.319 416.823 702.112 419.182 702.112 421.774C702.112 424.366 702.319 426.713 702.735 428.815C703.151 430.918 703.652 432.617 704.239 433.913C704.826 435.209 705.425 436.26 706.036 437.067C706.647 437.874 707.16 438.522 707.576 439.011C707.992 439.5 708.2 439.757 708.2 439.781C708.2 440.001 708.016 440.111 707.649 440.111H707.539H707.063L706.036 439.231C703.738 437.153 702.063 434.561 701.011 431.456C699.96 428.351 699.434 425.124 699.434 421.774Z" fill="black"/>
<path d="M721.549 430.062C722.992 430.062 724.312 429.427 725.51 428.155C726.708 426.884 727.319 425.405 727.344 423.718C727.344 422.177 726.708 421.114 725.436 420.527C722.845 419.867 721.182 419.415 720.449 419.17C719.715 418.926 719.202 418.681 718.908 418.437C717.441 417.41 716.708 415.931 716.708 413.999C716.708 412.508 717.099 411.151 717.882 409.928C718.664 408.706 719.459 407.789 720.265 407.178C720.974 406.566 721.83 406.077 722.833 405.711C723.835 405.344 724.617 405.148 725.18 405.124H725.583H725.84C728.187 405.124 729.886 405.906 730.938 407.471C730.962 407.471 731.121 407.312 731.414 406.994C731.708 406.676 732.026 406.322 732.368 405.931C732.71 405.54 732.955 405.271 733.101 405.124C733.126 405.124 733.175 405.124 733.248 405.124C733.321 405.124 733.383 405.112 733.431 405.087C733.749 405.087 733.908 405.173 733.908 405.344C733.908 405.515 733.566 406.994 732.881 409.781C732.197 412.569 731.806 414.011 731.708 414.109C731.61 414.207 731.414 414.244 731.121 414.219C730.632 414.219 730.387 414.109 730.387 413.889C730.387 413.742 730.4 413.62 730.424 413.522C730.424 413.449 730.436 413.217 730.461 412.825C730.485 412.434 730.51 412.116 730.534 411.872C730.534 411.041 730.424 410.319 730.204 409.708C729.984 409.097 729.764 408.645 729.544 408.351C729.324 408.058 729.018 407.752 728.627 407.434C727.747 406.921 726.745 406.664 725.62 406.664C724.226 406.664 722.93 407.227 721.732 408.351C720.534 409.476 719.923 410.772 719.899 412.239C719.899 412.972 720.082 413.608 720.449 414.146C720.816 414.684 721.317 415.063 721.952 415.283C722.05 415.332 722.906 415.564 724.52 415.979C726.133 416.395 726.952 416.615 726.977 416.64C727.808 416.909 728.615 417.495 729.397 418.4C730.18 419.305 730.571 420.527 730.571 422.067C730.571 422.703 730.473 423.388 730.277 424.121C730.155 424.659 729.935 425.258 729.617 425.918C729.299 426.578 728.859 427.3 728.297 428.082C727.735 428.864 726.928 429.598 725.877 430.282C724.825 430.967 723.676 431.432 722.429 431.676C722.136 431.725 721.72 431.749 721.182 431.749C718.762 431.749 716.879 431.077 715.534 429.732L715.168 429.329L714.141 430.466C713.578 431.126 713.236 431.505 713.114 431.603C712.992 431.7 712.833 431.749 712.637 431.749C712.319 431.749 712.16 431.652 712.16 431.456C712.16 431.383 712.869 428.51 714.288 422.838C714.336 422.691 714.581 422.617 715.021 422.617H715.498C715.644 422.764 715.718 422.899 715.718 423.021C715.718 423.07 715.706 423.18 715.681 423.351C715.657 423.522 715.608 423.779 715.534 424.121C715.461 424.463 715.437 424.867 715.461 425.331C715.51 426.285 715.73 427.092 716.121 427.752C716.512 428.412 717.038 428.901 717.698 429.219C718.358 429.537 718.994 429.757 719.605 429.879C720.217 430.001 720.864 430.062 721.549 430.062Z" fill="black"/>
<path d="M733.279 408.354C733.296 408.251 733.322 408.112 733.357 407.94C733.391 407.767 733.495 407.438 733.668 406.954C733.841 406.47 734.014 406.064 734.187 405.736C734.359 405.407 734.645 405.087 735.042 404.776C735.44 404.465 735.837 404.318 736.235 404.336C736.857 404.336 737.376 404.491 737.791 404.802C738.206 405.113 738.465 405.407 738.569 405.684C738.672 405.96 738.724 406.142 738.724 406.228C738.724 406.263 738.733 406.28 738.75 406.28L739.035 405.995C740.09 404.889 741.291 404.336 742.639 404.336C743.573 404.336 744.325 404.569 744.895 405.036C745.466 405.502 745.759 406.185 745.777 407.084C745.794 407.983 745.466 409.34 744.791 411.155C744.117 412.97 743.789 414.067 743.806 414.448C743.806 414.897 743.953 415.122 744.247 415.122C744.351 415.122 744.428 415.113 744.48 415.096C744.982 415.01 745.431 414.681 745.829 414.111C746.226 413.54 746.529 412.849 746.736 412.036C746.771 411.898 746.943 411.829 747.255 411.829C747.6 411.829 747.773 411.898 747.773 412.036C747.773 412.054 747.739 412.183 747.669 412.425C747.531 412.927 747.341 413.419 747.099 413.903C746.857 414.387 746.459 414.871 745.906 415.355C745.353 415.839 744.757 416.073 744.117 416.055C743.305 416.055 742.717 415.822 742.354 415.355C741.991 414.889 741.81 414.405 741.81 413.903C741.81 413.575 742.121 412.538 742.743 410.792C743.365 409.046 743.685 407.732 743.702 406.851C743.702 405.831 743.322 405.321 742.562 405.321H742.432C740.945 405.321 739.692 406.194 738.672 407.94L738.491 408.251L737.635 411.725C737.065 413.99 736.736 415.208 736.65 415.381C736.425 415.848 736.053 416.081 735.535 416.081C735.31 416.081 735.129 416.029 734.99 415.926C734.852 415.822 734.757 415.718 734.705 415.615C734.653 415.511 734.636 415.424 734.653 415.355C734.653 415.131 734.982 413.722 735.639 411.129C736.295 408.536 736.641 407.127 736.676 406.902C736.693 406.816 736.702 406.617 736.702 406.306C736.702 405.632 736.494 405.295 736.079 405.295C735.422 405.295 734.878 406.159 734.446 407.888C734.342 408.233 734.29 408.415 734.29 408.432C734.256 408.536 734.091 408.588 733.798 408.588H733.435C733.331 408.484 733.279 408.406 733.279 408.354Z" fill="black"/>
<path d="M750.47 409.651C750.47 409.651 750.47 409.539 750.47 409.314C750.47 409.089 750.591 408.916 750.833 408.795H765.897C766.157 408.934 766.286 409.106 766.286 409.314C766.286 409.521 766.157 409.694 765.897 409.832H750.833C750.591 409.711 750.47 409.539 750.47 409.314V409.651Z" fill="black"/>
<path d="M769.061 408.354C769.078 408.303 769.095 408.233 769.113 408.147C769.13 408.061 769.173 407.87 769.242 407.577C769.311 407.283 769.398 407.015 769.501 406.773C769.605 406.531 769.735 406.246 769.89 405.917C770.046 405.589 770.219 405.329 770.409 405.139C770.599 404.949 770.824 404.759 771.083 404.569C771.342 404.379 771.628 404.301 771.939 404.336C773.235 404.336 774.065 404.889 774.428 405.995L774.687 405.762C775.759 404.811 776.779 404.336 777.747 404.336C778.87 404.336 779.752 404.742 780.392 405.554C781.031 406.367 781.351 407.352 781.351 408.51C781.351 410.377 780.694 412.097 779.38 413.67C778.067 415.243 776.58 416.038 774.921 416.055C774.54 416.055 774.203 416.003 773.909 415.9C773.719 415.813 773.52 415.684 773.313 415.511C773.106 415.338 772.941 415.191 772.82 415.07L772.639 414.863C772.622 414.88 772.431 415.632 772.068 417.118C771.705 418.605 771.524 419.357 771.524 419.374C771.524 419.478 771.593 419.538 771.731 419.556C771.87 419.573 772.189 419.599 772.691 419.633H773.339C773.443 419.754 773.494 419.832 773.494 419.867C773.494 419.901 773.469 420.057 773.417 420.334C773.365 420.541 773.313 420.671 773.261 420.722C773.209 420.774 773.097 420.809 772.924 420.826C772.889 420.826 772.794 420.826 772.639 420.826C772.483 420.826 772.189 420.818 771.757 420.8C771.325 420.783 770.789 420.774 770.15 420.774C768.94 420.774 768.17 420.792 767.842 420.826H767.635C767.514 420.705 767.453 420.61 767.453 420.541C767.488 420.074 767.6 419.772 767.79 419.633H768.309C768.896 419.616 769.234 419.512 769.32 419.322C769.372 419.219 769.899 417.153 770.902 413.125C771.904 409.098 772.431 406.963 772.483 406.721C772.501 406.635 772.509 406.514 772.509 406.358C772.509 405.649 772.293 405.295 771.861 405.295C771.481 405.295 771.161 405.537 770.902 406.021C770.642 406.505 770.444 407.032 770.305 407.603C770.167 408.173 770.063 408.484 769.994 408.536C769.96 408.571 769.821 408.588 769.579 408.588H769.216C769.113 408.484 769.061 408.406 769.061 408.354ZM773.08 413.151C773.46 414.465 774.099 415.122 774.998 415.122C775.517 415.122 776.018 414.923 776.502 414.526C776.986 414.128 777.384 413.627 777.695 413.022C778.006 412.434 778.317 411.501 778.628 410.221C778.939 408.942 779.104 407.991 779.121 407.369V407.214C779.121 405.934 778.594 405.295 777.539 405.295C777.349 405.295 777.159 405.321 776.969 405.373C776.779 405.425 776.589 405.502 776.398 405.606C776.208 405.71 776.035 405.822 775.88 405.943C775.724 406.064 775.577 406.194 775.439 406.332C775.301 406.47 775.171 406.6 775.05 406.721C774.929 406.842 774.834 406.963 774.765 407.084C774.696 407.205 774.627 407.291 774.558 407.343L774.48 407.447C774.48 407.464 774.454 407.585 774.402 407.81C774.35 408.035 774.255 408.415 774.117 408.951C773.978 409.487 773.857 409.936 773.754 410.299C773.304 412.131 773.08 413.082 773.08 413.151Z" fill="black"/>
<path d="M783.684 409.651C783.684 409.651 783.684 409.539 783.684 409.314C783.684 409.089 783.805 408.916 784.047 408.795H799.112C799.371 408.934 799.501 409.106 799.501 409.314C799.501 409.521 799.371 409.694 799.112 409.832H784.047C783.805 409.711 783.684 409.539 783.684 409.314V409.651Z" fill="black"/>
<path d="M807.202 400.809L806.865 400.939C806.623 401.025 806.277 401.112 805.827 401.198C805.378 401.285 804.877 401.345 804.324 401.38H803.831V400.187H804.324C805.136 400.152 805.888 400.023 806.579 399.798C807.271 399.573 807.755 399.366 808.031 399.176C808.308 398.986 808.55 398.795 808.757 398.605C808.792 398.553 808.896 398.528 809.068 398.528C809.224 398.528 809.371 398.579 809.509 398.683V406.436L809.535 414.214C809.656 414.335 809.76 414.413 809.846 414.448C809.933 414.482 810.14 414.517 810.469 414.551C810.797 414.586 811.333 414.603 812.076 414.603H812.75V415.796H812.465C812.102 415.744 810.728 415.718 808.342 415.718C805.992 415.718 804.635 415.744 804.272 415.796H803.961V414.603H804.635C805.015 414.603 805.343 414.603 805.62 414.603C805.897 414.603 806.113 414.595 806.268 414.577C806.424 414.56 806.562 414.534 806.683 414.5C806.804 414.465 806.873 414.448 806.89 414.448C806.908 414.448 806.96 414.405 807.046 414.318C807.132 414.232 807.184 414.197 807.202 414.214V400.809Z" fill="black"/>
<path d="M818.692 403.474L818.838 403.437C818.961 403.437 819.083 403.437 819.205 403.437H819.645L820.672 404.317C822.97 406.395 824.645 408.987 825.696 412.092C826.748 415.197 827.273 418.424 827.273 421.774C827.273 423.437 827.151 425.038 826.907 426.578C826.662 428.119 826.381 429.427 826.063 430.502C825.745 431.578 825.293 432.654 824.706 433.73C824.119 434.806 823.655 435.625 823.313 436.187C822.97 436.749 822.469 437.373 821.809 438.057C821.149 438.742 820.758 439.145 820.635 439.268C820.513 439.39 820.232 439.622 819.792 439.964C819.718 440.038 819.67 440.087 819.645 440.111H819.205C819.009 440.111 818.875 440.111 818.802 440.111C818.728 440.111 818.667 440.074 818.618 440.001C818.569 439.928 818.533 439.818 818.508 439.671C818.533 439.647 818.667 439.488 818.912 439.194C822.701 435.258 824.596 429.451 824.596 421.774C824.596 414.097 822.701 408.29 818.912 404.354C818.667 404.06 818.533 403.901 818.508 403.877C818.508 403.681 818.569 403.547 818.692 403.474Z" fill="black"/>
<path d="M1164.55 616.674C1164.17 617.001 1163.62 617.353 1162.89 617.731C1162.16 618.108 1161.39 618.297 1160.58 618.297C1159 618.297 1157.73 617.731 1156.77 616.598C1155.81 615.465 1155.32 614.018 1155.3 612.256C1155.3 609.613 1156.27 607.184 1158.21 604.969C1160.14 602.754 1162.3 601.633 1164.66 601.608C1165.85 601.608 1166.94 602.212 1167.95 603.421L1168.06 603.27C1168.11 603.194 1168.17 603.119 1168.25 603.043C1168.32 602.967 1168.44 602.867 1168.59 602.741C1168.74 602.615 1168.9 602.527 1169.08 602.477C1169.26 602.426 1169.46 602.389 1169.68 602.363C1170.04 602.363 1170.33 602.477 1170.55 602.703C1170.78 602.93 1170.9 603.169 1170.93 603.421C1170.93 603.798 1170.21 606.844 1168.78 612.558C1167.34 618.272 1166.59 621.192 1166.51 621.318C1166.06 622.677 1165.09 623.797 1163.6 624.678C1162.12 625.559 1160.42 626.012 1158.51 626.038C1154.96 626.038 1153.18 625.182 1153.18 623.47C1153.18 622.816 1153.41 622.237 1153.86 621.733C1154.32 621.23 1154.9 620.978 1155.6 620.978C1155.98 620.978 1156.33 621.091 1156.66 621.318C1156.98 621.544 1157.16 621.935 1157.19 622.488C1157.19 622.74 1157.16 622.979 1157.11 623.206C1157.06 623.432 1156.97 623.608 1156.85 623.734C1156.72 623.86 1156.62 623.986 1156.54 624.112C1156.47 624.238 1156.38 624.338 1156.28 624.414L1156.2 624.489H1156.24C1156.49 624.565 1157.25 624.603 1158.51 624.603C1159.46 624.603 1160.22 624.452 1160.77 624.15C1161.35 623.873 1161.89 623.457 1162.4 622.904C1162.9 622.35 1163.25 621.758 1163.45 621.129C1163.6 620.651 1163.81 619.87 1164.06 618.788C1164.39 617.58 1164.55 616.875 1164.55 616.674ZM1167.31 605.913L1167.15 605.497C1167.08 605.22 1167.02 605.032 1166.97 604.931C1166.92 604.83 1166.84 604.654 1166.74 604.402C1166.64 604.151 1166.51 603.974 1166.36 603.874C1166.21 603.773 1166.05 603.635 1165.87 603.458C1165.69 603.282 1165.47 603.169 1165.19 603.119C1164.91 603.068 1164.64 603.03 1164.36 603.005C1163.25 603.005 1162.18 603.672 1161.15 605.006C1160.4 605.988 1159.77 607.486 1159.26 609.5C1158.76 611.513 1158.51 612.973 1158.51 613.88C1158.51 615.868 1159.29 616.862 1160.85 616.862C1162.26 616.862 1163.64 615.981 1165 614.219L1165.3 613.842L1167.31 605.913Z" fill="black"/>
<path d="M1182.15 608.858C1182.15 608.254 1182.37 607.725 1182.79 607.272C1183.22 606.819 1183.76 606.592 1184.42 606.592C1185.02 606.592 1185.55 606.794 1186 607.196C1186.46 607.599 1186.7 608.14 1186.72 608.82C1186.72 609.449 1186.51 609.99 1186.08 610.444C1185.65 610.897 1185.11 611.123 1184.45 611.123C1183.8 611.123 1183.26 610.909 1182.83 610.481C1182.4 610.053 1182.18 609.512 1182.15 608.858Z" fill="black"/>
<path d="M1200.06 593.83C1200.06 593.276 1200.22 592.836 1200.55 592.509H1200.96C1202.02 592.584 1203.34 592.622 1204.93 592.622C1207.9 592.622 1209.65 592.584 1210.18 592.509H1210.55C1210.7 592.66 1210.78 592.773 1210.78 592.848C1210.78 592.924 1210.75 593.15 1210.7 593.528C1210.58 593.906 1210.46 594.145 1210.36 594.245H1209.57C1209.02 594.296 1208.64 594.321 1208.44 594.321C1207.71 594.447 1207.31 594.636 1207.23 594.887C1207.23 594.938 1207.6 598.097 1208.33 604.365C1209.06 610.632 1209.43 613.791 1209.46 613.842L1212.21 609.424C1214.05 606.479 1215.89 603.509 1217.73 600.513C1219.56 597.518 1220.51 595.97 1220.56 595.869C1220.66 595.693 1220.71 595.504 1220.71 595.303C1220.71 594.699 1220.16 594.346 1219.05 594.245C1218.6 594.245 1218.37 594.107 1218.37 593.83C1218.37 593.805 1218.39 593.641 1218.44 593.339C1218.52 592.987 1218.6 592.76 1218.67 592.66C1218.75 592.559 1218.91 592.509 1219.16 592.509C1219.21 592.509 1219.36 592.509 1219.61 592.509C1219.87 592.509 1220.29 592.521 1220.9 592.546C1221.5 592.572 1222.31 592.584 1223.32 592.584C1225.05 592.584 1226.15 592.559 1226.6 592.509H1226.86C1227.04 592.685 1227.13 592.823 1227.13 592.924C1227.13 593.352 1227.02 593.755 1226.79 594.132C1226.71 594.208 1226.5 594.245 1226.15 594.245C1225.82 594.271 1225.52 594.296 1225.24 594.321C1224.96 594.346 1224.7 594.409 1224.45 594.51C1224.2 594.61 1223.99 594.699 1223.84 594.774C1223.69 594.85 1223.54 594.95 1223.39 595.076C1223.24 595.202 1223.11 595.29 1223.01 595.34C1222.91 595.391 1222.81 595.504 1222.71 595.68C1222.61 595.856 1222.52 595.945 1222.45 595.945L1215.16 607.649C1210.63 614.975 1208.29 618.725 1208.14 618.901C1208.06 618.952 1207.97 619.015 1207.87 619.09L1207.19 619.128H1206.93C1206.48 619.128 1206.25 619.04 1206.25 618.864C1206.17 618.713 1205.68 614.685 1204.78 606.781C1203.82 598.776 1203.33 594.736 1203.3 594.661C1203.18 594.384 1202.4 594.245 1200.96 594.245H1200.32C1200.14 594.12 1200.06 593.981 1200.06 593.83Z" fill="black"/>
<path d="M1230.68 608.858C1230.68 607.121 1230.8 605.472 1231.06 603.911C1231.31 602.351 1231.6 601.004 1231.92 599.871C1232.25 598.739 1232.72 597.631 1233.32 596.549C1233.93 595.466 1234.4 594.623 1234.76 594.019C1235.11 593.415 1235.64 592.76 1236.34 592.055C1237.05 591.351 1237.46 590.923 1237.59 590.772C1237.71 590.621 1238.03 590.356 1238.53 589.979H1239.02H1239.17C1239.53 589.979 1239.7 590.092 1239.7 590.319C1239.7 590.394 1239.49 590.658 1239.06 591.112C1238.63 591.565 1238.12 592.232 1237.51 593.113C1236.91 593.994 1236.29 595.076 1235.66 596.36C1235.03 597.644 1234.5 599.381 1234.08 601.57C1233.65 603.76 1233.43 606.19 1233.43 608.858C1233.43 611.526 1233.65 613.942 1234.08 616.107C1234.5 618.272 1235.02 620.021 1235.62 621.356C1236.23 622.69 1236.85 623.772 1237.47 624.603C1238.1 625.433 1238.63 626.101 1239.06 626.604C1239.49 627.107 1239.7 627.372 1239.7 627.397C1239.7 627.623 1239.51 627.737 1239.14 627.737H1239.02H1238.53L1237.47 626.831C1235.11 624.691 1233.38 622.023 1232.3 618.826C1231.22 615.629 1230.68 612.306 1230.68 608.858Z" fill="black"/>
<path d="M1243.7 608.782C1243.7 605.887 1244.55 603.106 1246.23 600.438C1247.92 597.77 1250.05 595.655 1252.62 594.094C1255.18 592.534 1257.75 591.741 1260.32 591.716C1262.58 591.716 1264.38 592.358 1265.72 593.641C1265.94 593.893 1266.13 594.107 1266.28 594.283C1266.43 594.459 1266.54 594.585 1266.59 594.661L1266.62 594.774C1266.7 594.774 1267.04 594.447 1267.64 593.792C1267.82 593.641 1268.01 593.465 1268.21 593.264C1268.41 593.062 1268.61 592.861 1268.81 592.66C1269.01 592.458 1269.14 592.32 1269.19 592.244L1269.76 591.678H1269.98C1270.34 591.678 1270.51 591.766 1270.51 591.942C1270.51 592.043 1270.11 593.767 1269.3 597.115C1268.4 600.614 1267.95 602.376 1267.95 602.401C1267.89 602.527 1267.83 602.603 1267.76 602.628C1267.68 602.653 1267.45 602.678 1267.08 602.703H1266.47C1266.32 602.552 1266.25 602.439 1266.25 602.363C1266.25 602.338 1266.26 602.25 1266.28 602.099C1266.31 601.948 1266.33 601.696 1266.36 601.344C1266.38 600.992 1266.4 600.589 1266.4 600.136C1266.4 598.348 1265.99 596.788 1265.19 595.454C1264.38 594.12 1263.01 593.44 1261.07 593.415C1260.42 593.415 1259.71 593.503 1258.96 593.679C1258.2 593.855 1257.3 594.157 1256.24 594.585C1255.18 595.013 1254.14 595.718 1253.11 596.7C1252.07 597.681 1251.16 598.852 1250.35 600.211C1249.54 601.646 1248.9 603.32 1248.42 605.233C1247.95 607.146 1247.71 608.707 1247.71 609.915C1247.71 612.785 1248.66 614.849 1250.58 616.107C1251.78 616.963 1253.27 617.391 1255.03 617.391C1257.32 617.391 1259.36 616.535 1261.15 614.823C1262.94 613.112 1264.12 611.249 1264.7 609.235C1264.8 608.908 1264.87 608.719 1264.92 608.669C1264.97 608.619 1265.18 608.593 1265.53 608.593C1266.03 608.593 1266.28 608.707 1266.28 608.933C1266.28 609.059 1266.27 609.172 1266.25 609.273C1265.52 611.966 1263.96 614.282 1261.56 616.221C1259.17 618.159 1256.61 619.128 1253.86 619.128C1251.02 619.128 1248.61 618.184 1246.65 616.296C1244.69 614.408 1243.7 611.904 1243.7 608.782Z" fill="black"/>
<path d="M1271.08 590.017L1271.23 589.979C1271.36 589.979 1271.48 589.979 1271.61 589.979H1272.06L1273.12 590.885C1275.48 593.025 1277.21 595.693 1278.29 598.89C1279.37 602.086 1279.91 605.409 1279.91 608.858C1279.91 610.569 1279.79 612.218 1279.54 613.804C1279.29 615.39 1279 616.737 1278.67 617.844C1278.34 618.952 1277.88 620.059 1277.27 621.167C1276.67 622.274 1276.19 623.118 1275.84 623.697C1275.48 624.276 1274.97 624.917 1274.29 625.622C1273.61 626.327 1273.21 626.742 1273.08 626.868C1272.95 626.994 1272.66 627.233 1272.21 627.586C1272.14 627.661 1272.09 627.712 1272.06 627.737H1271.61C1271.41 627.737 1271.27 627.737 1271.19 627.737C1271.12 627.737 1271.05 627.699 1271 627.623C1270.95 627.548 1270.92 627.435 1270.89 627.284C1270.92 627.258 1271.05 627.095 1271.31 626.793C1275.21 622.74 1277.16 616.762 1277.16 608.858C1277.16 600.954 1275.21 594.975 1271.31 590.923C1271.05 590.621 1270.92 590.457 1270.89 590.432C1270.89 590.231 1270.95 590.092 1271.08 590.017Z" fill="black"/>
<path d="M1020.54 322.38C1020.54 321.925 1020.79 321.575 1021.28 321.33H1054.74C1055.27 321.61 1055.53 321.96 1055.53 322.38C1055.53 322.766 1055.29 323.098 1054.8 323.379L1038.09 323.431H1021.39C1020.82 323.256 1020.54 322.906 1020.54 322.38ZM1020.54 332.572C1020.54 332.046 1020.82 331.696 1021.39 331.521H1054.8C1055.29 331.871 1055.53 332.221 1055.53 332.572C1055.53 333.027 1055.27 333.377 1054.74 333.622H1021.28C1020.79 333.377 1020.54 333.027 1020.54 332.572Z" fill="black"/>
</svg>
