<svg width="1863" height="363" viewBox="0 0 1863 363" fill="none" xmlns="http://www.w3.org/2000/svg">
<circle cx="295.444" cy="179.676" r="3.32301" fill="black"/>
<path d="M147.903 140.202L19.6348 65.9107C161.484 66.0708 303.333 66.0799 445.182 66.0799L573.248 140.202H147.903Z" fill="#D9D9D9" fill-opacity="0.3" stroke="black" stroke-dasharray="2 2"/>
<path d="M333.327 140.465L328.327 137.578V143.352L333.327 140.465ZM328.01 140.965H328.827V139.965H328.01V140.965Z" fill="black"/>
<path d="M238.953 66.0294L243.953 68.9162V63.1427L238.953 66.0294ZM243.453 66.5294H244.27V65.5294H243.453V66.5294Z" fill="black"/>
<path d="M147.903 273.241L19.6348 198.95C161.484 199.11 303.333 199.119 445.182 199.119L573.248 273.241H147.903Z" fill="#D9D9D9" fill-opacity="0.3" stroke="black" stroke-dasharray="2 2"/>
<path d="M325.351 273.385L330.351 276.272V270.498L325.351 273.385ZM329.851 273.885H330.668V272.885H329.851V273.885Z" fill="black"/>
<path d="M249.587 198.95L244.587 196.063V201.836L249.587 198.95ZM244.27 199.45H245.087V198.45H244.27V199.45Z" fill="black"/>
<path d="M1047.28 196.243C1011.32 225.178 1007.99 276.884 966.727 276.884C925.469 276.884 910.04 230.466 887.024 199.336C886.263 198.569 885.562 197.817 884.92 197.079C855.482 163.266 948.434 159.673 969.54 159.673C991.107 159.673 1077.37 166.237 1047.28 196.243Z" fill="#D9D9D9" fill-opacity="0.3"/>
<path d="M969.54 159.674C991.107 159.674 1077.37 166.237 1047.28 196.243C1022.05 213.122 984.543 213.122 968.602 213.122C952.662 213.122 906.715 213.122 887.024 199.336C851.392 163.424 947.973 159.674 969.54 159.674Z" stroke="black" stroke-dasharray="1 1"/>
<path d="M1081.12 185.929C1066 185.929 1055.24 189.839 1047.28 196.243C1011.32 225.178 1007.99 276.884 966.727 276.884C925.469 276.884 910.04 230.466 887.024 199.336C880.95 191.12 860.367 185.929 847.641 185.929" stroke="black"/>
<path d="M809.846 221.694L681.578 147.403C823.427 147.563 965.276 147.572 1107.13 147.572L1235.19 221.694H809.846Z" fill="#D9D9D9" fill-opacity="0.3" stroke="black" stroke-dasharray="2 2"/>
<path d="M987.294 221.838L992.294 224.725V218.951L987.294 221.838ZM991.794 222.338H992.611V221.338H991.794V222.338Z" fill="black"/>
<path d="M911.53 147.403L906.53 144.516V150.29L911.53 147.403ZM906.213 147.903H907.03V146.903H906.213V147.903Z" fill="black"/>
<circle cx="957.387" cy="181.124" r="3.32301" fill="black"/>
<path d="M809.846 197.476L681.578 123.185C823.427 123.345 965.276 123.354 1107.13 123.354L1235.19 197.476H809.846Z" fill="#D9D9D9" fill-opacity="0.3" stroke="black" stroke-dasharray="2 2"/>
<path d="M883.357 155.757C919.324 126.822 922.656 75.1161 963.914 75.1161C1005.17 75.1161 1020.6 121.534 1043.62 152.665C1044.38 153.432 1045.08 154.184 1045.72 154.921C1075.16 188.734 982.207 192.327 961.101 192.327C939.534 192.327 853.267 185.763 883.357 155.757Z" fill="#D9D9D9" fill-opacity="0.3"/>
<path d="M961.101 192.327C939.534 192.327 853.267 185.763 883.357 155.757C908.591 138.879 946.098 138.879 962.039 138.879C977.979 138.879 1023.93 138.879 1043.62 152.665C1079.25 188.576 982.668 192.327 961.101 192.327Z" stroke="black" stroke-dasharray="1 1"/>
<path d="M849.516 166.072C864.64 166.072 875.396 162.161 883.357 155.757C919.324 126.822 922.656 75.1161 963.914 75.1161C1005.17 75.1161 1020.6 121.534 1043.62 152.665C1049.69 160.88 1070.27 166.072 1083 166.072" stroke="black"/>
<path d="M995.269 197.739L990.269 194.852V200.626L995.269 197.739ZM989.953 198.239H990.769V197.239H989.953V198.239Z" fill="black"/>
<path d="M900.896 123.304L905.896 126.191V120.417L900.896 123.304ZM905.396 123.804H906.213V122.804H905.396V123.804Z" fill="black"/>
<circle cx="1583.44" cy="177.018" r="3.32301" fill="black"/>
<circle cx="1584.11" cy="180.341" r="79.8408" fill="#D9D9D9" fill-opacity="0.3" stroke="black"/>
<path d="M1664.3 178.845C1664.37 179.174 1664.41 179.506 1664.43 179.839L1663.93 179.871C1663.94 180.027 1663.95 180.184 1663.95 180.341C1663.95 180.498 1663.94 180.654 1663.93 180.81L1664.43 180.843C1664.41 181.176 1664.37 181.507 1664.3 181.837L1663.81 181.741C1663.75 182.046 1663.67 182.351 1663.57 182.655L1664.05 182.81C1663.95 183.122 1663.82 183.433 1663.69 183.741L1663.23 183.535C1663.1 183.818 1662.96 184.101 1662.79 184.382L1663.23 184.631C1663.06 184.917 1662.88 185.2 1662.69 185.482L1662.28 185.197C1662.1 185.455 1661.9 185.713 1661.7 185.969L1662.09 186.284C1661.88 186.537 1661.66 186.788 1661.43 187.038L1661.06 186.699C1660.85 186.935 1660.62 187.17 1660.38 187.403L1660.72 187.762C1660.49 187.989 1660.25 188.214 1659.99 188.438L1659.66 188.062C1659.42 188.274 1659.17 188.485 1658.91 188.695L1659.22 189.084C1658.97 189.291 1658.7 189.496 1658.43 189.699L1658.13 189.298C1657.87 189.49 1657.6 189.681 1657.33 189.871L1657.61 190.282C1657.34 190.47 1657.06 190.657 1656.77 190.843L1656.5 190.424C1656.23 190.599 1655.95 190.773 1655.67 190.947L1655.93 191.374C1655.65 191.546 1655.36 191.717 1655.06 191.888L1654.81 191.454C1654.53 191.616 1654.24 191.777 1653.95 191.936L1654.19 192.375C1653.9 192.534 1653.6 192.691 1653.3 192.847L1653.07 192.403C1652.78 192.553 1652.48 192.703 1652.18 192.851L1652.4 193.3C1652.11 193.446 1651.81 193.59 1651.5 193.734L1651.29 193.281C1650.99 193.422 1650.68 193.563 1650.37 193.702L1650.58 194.158C1650.28 194.292 1649.98 194.425 1649.67 194.558L1649.47 194.099C1649.17 194.23 1648.86 194.361 1648.55 194.49L1648.74 194.952C1648.43 195.078 1648.13 195.203 1647.81 195.327L1647.63 194.863C1647.32 194.984 1647.01 195.105 1646.7 195.225L1646.88 195.692C1646.57 195.812 1646.25 195.93 1645.93 196.048L1645.76 195.579C1645.45 195.692 1645.14 195.804 1644.83 195.915L1645 196.386C1644.68 196.498 1644.36 196.609 1644.04 196.719L1643.88 196.246C1643.57 196.353 1643.25 196.459 1642.93 196.564L1643.09 197.039C1642.78 197.143 1642.46 197.246 1642.14 197.348L1641.99 196.872C1641.67 196.973 1641.35 197.074 1641.03 197.174L1641.18 197.652C1640.86 197.749 1640.54 197.846 1640.22 197.942L1640.08 197.463C1639.76 197.557 1639.44 197.651 1639.12 197.744L1639.26 198.224C1638.94 198.317 1638.61 198.41 1638.28 198.502L1638.15 198.02C1637.83 198.109 1637.51 198.196 1637.19 198.283L1637.32 198.766C1637 198.853 1636.68 198.939 1636.36 199.024L1636.23 198.54C1635.9 198.625 1635.58 198.709 1635.25 198.793L1635.37 199.277C1635.05 199.359 1634.73 199.439 1634.41 199.519L1634.29 199.034C1633.97 199.113 1633.64 199.191 1633.32 199.269L1633.43 199.755C1633.11 199.833 1632.78 199.91 1632.45 199.986L1632.34 199.499C1632.01 199.573 1631.69 199.647 1631.36 199.72L1631.47 200.208C1631.15 200.28 1630.82 200.352 1630.5 200.423L1630.39 199.934C1630.06 200.005 1629.74 200.075 1629.41 200.145L1629.51 200.634C1629.18 200.702 1628.86 200.77 1628.53 200.837L1628.43 200.347C1628.1 200.413 1627.78 200.478 1627.45 200.543L1627.55 201.033C1627.22 201.098 1626.89 201.162 1626.56 201.225L1626.46 200.734C1626.14 200.797 1625.81 200.859 1625.47 200.92L1625.57 201.411C1625.24 201.472 1624.91 201.531 1624.59 201.59L1624.5 201.097C1624.17 201.156 1623.84 201.214 1623.51 201.271L1623.6 201.764C1623.27 201.821 1622.93 201.878 1622.6 201.934L1622.52 201.44C1622.19 201.495 1621.86 201.549 1621.53 201.602L1621.61 202.096C1621.29 202.149 1620.96 202.201 1620.63 202.253L1620.55 201.759C1620.22 201.811 1619.89 201.862 1619.55 201.912L1619.63 202.406C1619.3 202.456 1618.97 202.506 1618.63 202.554L1618.56 202.06C1618.23 202.107 1617.91 202.154 1617.58 202.201L1617.65 202.696C1617.32 202.742 1616.98 202.788 1616.65 202.833L1616.58 202.338C1616.25 202.383 1615.92 202.427 1615.58 202.471L1615.65 202.967C1615.32 203.01 1614.99 203.053 1614.66 203.094L1614.59 202.598C1614.27 202.64 1613.94 202.681 1613.6 202.721L1613.66 203.217C1613.33 203.257 1613 203.297 1612.66 203.336L1612.61 202.839C1612.27 202.878 1611.94 202.916 1611.6 202.953L1611.66 203.45C1611.33 203.487 1611 203.523 1610.67 203.559L1610.62 203.062C1610.29 203.097 1609.95 203.132 1609.62 203.166L1609.67 203.663C1609.34 203.698 1609.01 203.731 1608.67 203.764L1608.62 203.267C1608.29 203.299 1607.96 203.331 1607.62 203.363L1607.67 203.86C1607.34 203.891 1607.01 203.922 1606.67 203.951L1606.63 203.453C1606.3 203.483 1605.96 203.512 1605.63 203.54L1605.67 204.039C1605.34 204.067 1605 204.095 1604.67 204.122L1604.63 203.624C1604.3 203.65 1603.96 203.677 1603.63 203.702L1603.67 204.201C1603.34 204.226 1603 204.251 1602.67 204.275L1602.63 203.776C1602.3 203.8 1601.97 203.824 1601.63 203.847L1601.67 204.346C1601.33 204.368 1601 204.391 1600.66 204.412L1600.63 203.913C1600.3 203.934 1599.97 203.955 1599.63 203.975L1599.66 204.474C1599.33 204.494 1599 204.514 1598.66 204.532L1598.64 204.033C1598.3 204.052 1597.97 204.07 1597.63 204.087L1597.66 204.586C1597.32 204.604 1596.99 204.621 1596.65 204.637L1596.63 204.137C1596.3 204.153 1595.96 204.169 1595.63 204.183L1595.65 204.683C1595.32 204.698 1594.99 204.712 1594.65 204.725L1594.63 204.225C1594.3 204.239 1593.96 204.252 1593.63 204.264L1593.65 204.763C1593.31 204.775 1592.98 204.787 1592.64 204.798L1592.62 204.298C1592.29 204.309 1591.96 204.319 1591.62 204.328L1591.64 204.828C1591.31 204.838 1590.97 204.847 1590.64 204.855L1590.63 204.355C1590.29 204.363 1589.96 204.371 1589.62 204.378L1589.63 204.878C1589.3 204.885 1588.96 204.891 1588.63 204.897L1588.62 204.397C1588.28 204.402 1587.95 204.407 1587.62 204.412L1587.62 204.912C1587.29 204.916 1586.96 204.92 1586.62 204.923L1586.62 204.423C1586.28 204.426 1585.95 204.429 1585.61 204.431L1585.62 204.931C1585.28 204.933 1584.95 204.934 1584.61 204.934L1584.61 204.434C1584.44 204.435 1584.27 204.435 1584.11 204.435C1583.94 204.435 1583.77 204.435 1583.6 204.434L1583.6 204.934C1583.27 204.934 1582.93 204.933 1582.59 204.931L1582.6 204.431C1582.26 204.429 1581.93 204.426 1581.59 204.423L1581.59 204.923C1581.26 204.92 1580.92 204.916 1580.59 204.912L1580.6 204.412C1580.26 204.407 1579.93 204.402 1579.59 204.397L1579.59 204.897C1579.25 204.891 1578.91 204.885 1578.58 204.878L1578.59 204.378C1578.25 204.371 1577.92 204.363 1577.59 204.355L1577.57 204.855C1577.24 204.847 1576.91 204.838 1576.57 204.828L1576.59 204.328C1576.25 204.319 1575.92 204.309 1575.59 204.298L1575.57 204.798C1575.24 204.787 1574.9 204.775 1574.56 204.763L1574.58 204.264C1574.25 204.252 1573.91 204.239 1573.58 204.225L1573.56 204.725C1573.23 204.712 1572.89 204.698 1572.56 204.683L1572.58 204.183C1572.25 204.169 1571.92 204.153 1571.58 204.137L1571.56 204.637C1571.22 204.621 1570.89 204.604 1570.55 204.586L1570.58 204.087C1570.24 204.07 1569.91 204.052 1569.58 204.033L1569.55 204.532C1569.22 204.514 1568.88 204.494 1568.55 204.474L1568.58 203.975C1568.25 203.955 1567.91 203.934 1567.58 203.913L1567.55 204.412C1567.21 204.391 1566.88 204.368 1566.54 204.346L1566.58 203.847C1566.24 203.824 1565.91 203.8 1565.58 203.776L1565.54 204.275C1565.21 204.251 1564.88 204.226 1564.54 204.201L1564.58 203.702C1564.25 203.677 1563.92 203.65 1563.58 203.624L1563.54 204.122C1563.21 204.095 1562.87 204.067 1562.54 204.039L1562.58 203.54C1562.25 203.512 1561.91 203.483 1561.58 203.453L1561.54 203.951C1561.21 203.922 1560.87 203.891 1560.54 203.86L1560.59 203.363C1560.26 203.331 1559.92 203.299 1559.59 203.267L1559.54 203.764C1559.21 203.731 1558.87 203.698 1558.54 203.663L1558.59 203.166C1558.26 203.132 1557.93 203.097 1557.6 203.062L1557.54 203.559C1557.21 203.523 1556.88 203.487 1556.55 203.45L1556.61 202.953C1556.27 202.916 1555.94 202.878 1555.61 202.839L1555.55 203.336C1555.21 203.297 1554.88 203.257 1554.55 203.217L1554.61 202.721C1554.28 202.681 1553.95 202.64 1553.62 202.598L1553.56 203.094C1553.22 203.053 1552.89 203.01 1552.56 202.967L1552.63 202.471C1552.29 202.427 1551.96 202.383 1551.63 202.338L1551.56 202.833C1551.23 202.788 1550.9 202.742 1550.57 202.696L1550.64 202.201C1550.31 202.154 1549.98 202.107 1549.65 202.06L1549.58 202.554C1549.25 202.506 1548.91 202.456 1548.58 202.406L1548.66 201.912C1548.32 201.862 1547.99 201.811 1547.66 201.759L1547.59 202.253C1547.26 202.201 1546.93 202.149 1546.6 202.096L1546.68 201.602C1546.35 201.549 1546.02 201.495 1545.7 201.44L1545.61 201.934C1545.28 201.878 1544.95 201.821 1544.62 201.764L1544.7 201.271C1544.37 201.214 1544.04 201.156 1543.71 201.097L1543.63 201.59C1543.3 201.531 1542.97 201.472 1542.65 201.411L1542.74 200.92C1542.41 200.859 1542.08 200.797 1541.75 200.734L1541.65 201.225C1541.32 201.162 1540.99 201.098 1540.67 201.033L1540.76 200.543C1540.43 200.478 1540.11 200.413 1539.79 200.347L1539.69 200.837C1539.36 200.77 1539.03 200.702 1538.7 200.634L1538.81 200.145C1538.48 200.075 1538.15 200.005 1537.82 199.934L1537.72 200.423C1537.39 200.352 1537.06 200.28 1536.74 200.208L1536.85 199.72C1536.52 199.647 1536.2 199.573 1535.88 199.499L1535.76 199.986C1535.43 199.91 1535.1 199.833 1534.78 199.755L1534.89 199.269C1534.57 199.191 1534.25 199.113 1533.92 199.034L1533.8 199.519C1533.48 199.439 1533.16 199.359 1532.84 199.277L1532.96 198.793C1532.63 198.709 1532.31 198.625 1531.98 198.54L1531.86 199.024C1531.53 198.939 1531.21 198.853 1530.89 198.766L1531.02 198.283C1530.7 198.196 1530.38 198.109 1530.06 198.02L1529.93 198.502C1529.6 198.41 1529.28 198.317 1528.95 198.224L1529.09 197.744C1528.77 197.651 1528.45 197.557 1528.13 197.463L1527.99 197.942C1527.67 197.846 1527.35 197.749 1527.04 197.652L1527.18 197.174C1526.86 197.074 1526.54 196.973 1526.22 196.872L1526.07 197.348C1525.75 197.246 1525.43 197.143 1525.12 197.039L1525.28 196.564C1524.96 196.459 1524.64 196.353 1524.33 196.246L1524.17 196.719C1523.85 196.609 1523.53 196.498 1523.22 196.386L1523.38 195.915C1523.07 195.804 1522.76 195.692 1522.45 195.579L1522.28 196.048C1521.96 195.93 1521.65 195.812 1521.33 195.692L1521.51 195.225C1521.2 195.105 1520.89 194.984 1520.58 194.863L1520.4 195.327C1520.09 195.203 1519.78 195.078 1519.47 194.952L1519.67 194.49C1519.35 194.361 1519.04 194.23 1518.74 194.099L1518.54 194.558C1518.23 194.425 1517.93 194.292 1517.63 194.158L1517.84 193.702C1517.53 193.563 1517.22 193.422 1516.92 193.281L1516.71 193.734C1516.41 193.59 1516.11 193.446 1515.81 193.3L1516.03 192.852C1515.73 192.703 1515.43 192.553 1515.14 192.403L1514.91 192.847C1514.61 192.691 1514.32 192.534 1514.02 192.376L1514.26 191.936C1513.97 191.777 1513.68 191.616 1513.4 191.454L1513.15 191.888C1512.86 191.717 1512.57 191.546 1512.28 191.374L1512.54 190.947C1512.26 190.773 1511.98 190.599 1511.71 190.424L1511.44 190.843C1511.15 190.658 1510.87 190.47 1510.6 190.282L1510.88 189.871C1510.61 189.681 1510.34 189.49 1510.08 189.298L1509.79 189.699C1509.51 189.496 1509.25 189.291 1508.99 189.084L1509.3 188.695C1509.04 188.485 1508.79 188.274 1508.55 188.062L1508.22 188.438C1507.97 188.214 1507.72 187.989 1507.49 187.762L1507.84 187.403C1507.59 187.17 1507.36 186.935 1507.15 186.699L1506.78 187.038C1506.55 186.788 1506.33 186.537 1506.13 186.284L1506.52 185.969C1506.31 185.713 1506.11 185.455 1505.93 185.197L1505.52 185.482C1505.33 185.2 1505.15 184.917 1504.98 184.631L1505.42 184.382C1505.26 184.101 1505.11 183.818 1504.98 183.535L1504.53 183.741C1504.39 183.433 1504.27 183.122 1504.17 182.81L1504.64 182.655C1504.54 182.351 1504.46 182.046 1504.4 181.741L1503.91 181.837C1503.85 181.507 1503.8 181.176 1503.78 180.843L1504.28 180.81C1504.27 180.654 1504.27 180.498 1504.27 180.341C1504.27 180.184 1504.27 180.027 1504.28 179.871L1503.78 179.839C1503.8 179.506 1503.85 179.174 1503.91 178.845L1504.4 178.941C1504.46 178.635 1504.54 178.33 1504.64 178.026L1504.17 177.872C1504.27 177.56 1504.39 177.249 1504.53 176.941L1504.98 177.146C1505.11 176.863 1505.26 176.581 1505.42 176.3L1504.98 176.05C1505.15 175.765 1505.33 175.481 1505.52 175.199L1505.93 175.485C1506.11 175.226 1506.31 174.969 1506.52 174.712L1506.13 174.398C1506.33 174.145 1506.55 173.893 1506.78 173.643L1507.15 173.982C1507.36 173.747 1507.59 173.512 1507.84 173.278L1507.49 172.919C1507.72 172.693 1507.97 172.468 1508.22 172.244L1508.55 172.62C1508.79 172.408 1509.04 172.197 1509.3 171.987L1508.99 171.598C1509.25 171.391 1509.51 171.186 1509.79 170.982L1510.08 171.384C1510.34 171.192 1510.61 171.001 1510.88 170.811L1510.6 170.4C1510.87 170.211 1511.15 170.024 1511.44 169.838L1511.71 170.258C1511.98 170.083 1512.26 169.908 1512.54 169.735L1512.28 169.308C1512.57 169.135 1512.86 168.964 1513.15 168.794L1513.4 169.228C1513.68 169.066 1513.97 168.905 1514.26 168.745L1514.02 168.306C1514.32 168.148 1514.61 167.991 1514.91 167.835L1515.14 168.279C1515.43 168.128 1515.73 167.979 1516.03 167.83L1515.81 167.382C1516.11 167.236 1516.41 167.091 1516.71 166.948L1516.92 167.4C1517.22 167.259 1517.53 167.119 1517.84 166.98L1517.63 166.524C1517.93 166.39 1518.23 166.256 1518.54 166.124L1518.74 166.583C1519.04 166.451 1519.35 166.321 1519.67 166.191L1519.47 165.729C1519.78 165.603 1520.09 165.478 1520.4 165.354L1520.58 165.819C1520.89 165.697 1521.2 165.577 1521.51 165.457L1521.33 164.99C1521.65 164.87 1521.96 164.751 1522.28 164.634L1522.45 165.103C1522.76 164.99 1523.07 164.878 1523.38 164.767L1523.22 164.296C1523.53 164.184 1523.85 164.073 1524.17 163.963L1524.33 164.436C1524.64 164.329 1524.96 164.223 1525.28 164.117L1525.12 163.643C1525.43 163.539 1525.75 163.436 1526.07 163.334L1526.22 163.81C1526.54 163.708 1526.86 163.608 1527.18 163.508L1527.04 163.03C1527.35 162.933 1527.67 162.836 1527.99 162.74L1528.13 163.219C1528.45 163.124 1528.77 163.031 1529.09 162.938L1528.95 162.458C1529.28 162.364 1529.6 162.272 1529.93 162.18L1530.06 162.662C1530.38 162.573 1530.7 162.485 1531.02 162.398L1530.89 161.916C1531.21 161.829 1531.53 161.743 1531.86 161.658L1531.98 162.141C1532.31 162.056 1532.63 161.972 1532.96 161.889L1532.84 161.404C1533.16 161.323 1533.48 161.242 1533.8 161.163L1533.92 161.648C1534.25 161.569 1534.57 161.491 1534.89 161.413L1534.78 160.927C1535.1 160.849 1535.43 160.772 1535.76 160.695L1535.88 161.183C1536.2 161.108 1536.52 161.035 1536.85 160.962L1536.74 160.474C1537.06 160.401 1537.39 160.33 1537.72 160.259L1537.82 160.747C1538.15 160.677 1538.48 160.606 1538.81 160.537L1538.7 160.048C1539.03 159.979 1539.36 159.912 1539.69 159.845L1539.79 160.334C1540.11 160.269 1540.43 160.203 1540.76 160.139L1540.66 159.648C1540.99 159.584 1541.32 159.52 1541.65 159.457L1541.75 159.948C1542.08 159.885 1542.41 159.823 1542.74 159.762L1542.65 159.27C1542.97 159.21 1543.3 159.151 1543.63 159.092L1543.71 159.584C1544.04 159.526 1544.37 159.468 1544.7 159.411L1544.62 158.918C1544.95 158.861 1545.28 158.804 1545.61 158.748L1545.7 159.241C1546.02 159.187 1546.35 159.133 1546.68 159.079L1546.6 158.586C1546.93 158.533 1547.26 158.48 1547.59 158.429L1547.66 158.923C1547.99 158.871 1548.32 158.82 1548.66 158.77L1548.58 158.275C1548.91 158.225 1549.25 158.176 1549.58 158.127L1549.65 158.622C1549.98 158.574 1550.31 158.527 1550.64 158.481L1550.57 157.986C1550.9 157.939 1551.23 157.893 1551.56 157.848L1551.63 158.344C1551.96 158.299 1552.29 158.254 1552.63 158.21L1552.56 157.715C1552.89 157.672 1553.22 157.629 1553.56 157.587L1553.62 158.083C1553.95 158.042 1554.28 158.001 1554.61 157.961L1554.55 157.465C1554.88 157.424 1555.21 157.385 1555.55 157.346L1555.61 157.843C1555.94 157.804 1556.27 157.766 1556.61 157.728L1556.55 157.231C1556.88 157.194 1557.21 157.158 1557.54 157.123L1557.6 157.62C1557.93 157.585 1558.26 157.55 1558.59 157.516L1558.54 157.018C1558.87 156.984 1559.21 156.95 1559.54 156.917L1559.59 157.415C1559.92 157.382 1560.26 157.35 1560.59 157.319L1560.54 156.821C1560.87 156.79 1561.21 156.76 1561.54 156.73L1561.58 157.228C1561.91 157.199 1562.25 157.17 1562.58 157.141L1562.54 156.643C1562.87 156.615 1563.21 156.587 1563.54 156.56L1563.58 157.058C1563.92 157.031 1564.25 157.005 1564.58 156.979L1564.54 156.481C1564.88 156.455 1565.21 156.431 1565.54 156.407L1565.58 156.905C1565.91 156.881 1566.24 156.858 1566.58 156.835L1566.54 156.336C1566.88 156.313 1567.21 156.291 1567.55 156.27L1567.58 156.768C1567.91 156.747 1568.25 156.727 1568.58 156.706L1568.55 156.207C1568.88 156.187 1569.22 156.168 1569.55 156.149L1569.58 156.649C1569.91 156.63 1570.24 156.612 1570.58 156.595L1570.55 156.095C1570.89 156.078 1571.22 156.061 1571.56 156.045L1571.58 156.544C1571.92 156.528 1572.25 156.513 1572.58 156.498L1572.56 155.999C1572.89 155.984 1573.23 155.97 1573.56 155.957L1573.58 156.456C1573.91 156.443 1574.25 156.43 1574.58 156.418L1574.56 155.918C1574.9 155.906 1575.24 155.895 1575.57 155.884L1575.59 156.384C1575.92 156.373 1576.25 156.363 1576.59 156.353L1576.57 155.853C1576.91 155.844 1577.24 155.835 1577.57 155.827L1577.59 156.327C1577.92 156.318 1578.25 156.311 1578.59 156.304L1578.58 155.804C1578.91 155.797 1579.25 155.791 1579.59 155.785L1579.59 156.285C1579.93 156.279 1580.26 156.274 1580.6 156.27L1580.59 155.77C1580.92 155.765 1581.26 155.762 1581.59 155.759L1581.59 156.259C1581.93 156.255 1582.26 156.253 1582.6 156.251L1582.59 155.751C1582.93 155.749 1583.27 155.748 1583.6 155.747L1583.6 156.247C1583.77 156.247 1583.94 156.247 1584.11 156.247C1584.27 156.247 1584.44 156.247 1584.61 156.247L1584.61 155.747C1584.95 155.748 1585.28 155.749 1585.62 155.751L1585.61 156.251C1585.95 156.253 1586.28 156.255 1586.62 156.259L1586.62 155.759C1586.96 155.762 1587.29 155.765 1587.62 155.77L1587.62 156.27C1587.95 156.274 1588.28 156.279 1588.62 156.285L1588.63 155.785C1588.96 155.791 1589.3 155.797 1589.63 155.804L1589.62 156.304C1589.96 156.311 1590.29 156.318 1590.63 156.327L1590.64 155.827C1590.97 155.835 1591.31 155.844 1591.64 155.853L1591.62 156.353C1591.96 156.363 1592.29 156.373 1592.62 156.384L1592.64 155.884C1592.98 155.895 1593.31 155.906 1593.65 155.918L1593.63 156.418C1593.96 156.43 1594.3 156.443 1594.63 156.456L1594.65 155.957C1594.99 155.97 1595.32 155.984 1595.65 155.999L1595.63 156.498C1595.96 156.513 1596.3 156.528 1596.63 156.544L1596.65 156.045C1596.99 156.061 1597.32 156.078 1597.66 156.095L1597.63 156.595C1597.97 156.612 1598.3 156.63 1598.64 156.649L1598.66 156.149C1599 156.168 1599.33 156.187 1599.66 156.207L1599.63 156.706C1599.97 156.727 1600.3 156.747 1600.63 156.768L1600.66 156.269C1601 156.291 1601.33 156.313 1601.67 156.336L1601.63 156.835C1601.97 156.858 1602.3 156.881 1602.63 156.905L1602.67 156.407C1603 156.431 1603.34 156.455 1603.67 156.481L1603.63 156.979C1603.96 157.005 1604.3 157.031 1604.63 157.058L1604.67 156.56C1605 156.587 1605.34 156.615 1605.67 156.643L1605.63 157.141C1605.96 157.17 1606.3 157.199 1606.63 157.228L1606.67 156.73C1607.01 156.76 1607.34 156.79 1607.67 156.821L1607.62 157.319C1607.96 157.35 1608.29 157.382 1608.62 157.415L1608.67 156.917C1609.01 156.95 1609.34 156.984 1609.67 157.018L1609.62 157.516C1609.95 157.55 1610.29 157.585 1610.62 157.62L1610.67 157.123C1611 157.158 1611.33 157.194 1611.66 157.231L1611.6 157.728C1611.94 157.766 1612.27 157.804 1612.61 157.843L1612.66 157.346C1613 157.385 1613.33 157.424 1613.66 157.465L1613.6 157.961C1613.94 158.001 1614.27 158.042 1614.59 158.083L1614.66 157.587C1614.99 157.629 1615.32 157.672 1615.65 157.715L1615.58 158.21C1615.92 158.254 1616.25 158.299 1616.58 158.344L1616.65 157.848C1616.98 157.893 1617.32 157.939 1617.65 157.986L1617.58 158.481C1617.91 158.527 1618.23 158.574 1618.56 158.622L1618.63 158.127C1618.97 158.176 1619.3 158.225 1619.63 158.275L1619.55 158.77C1619.89 158.82 1620.22 158.871 1620.55 158.923L1620.63 158.429C1620.96 158.48 1621.29 158.533 1621.61 158.586L1621.53 159.079C1621.86 159.133 1622.19 159.187 1622.52 159.241L1622.6 158.748C1622.93 158.804 1623.27 158.861 1623.6 158.918L1623.51 159.411C1623.84 159.468 1624.17 159.526 1624.5 159.584L1624.59 159.092C1624.91 159.151 1625.24 159.21 1625.57 159.27L1625.47 159.762C1625.81 159.823 1626.14 159.885 1626.46 159.948L1626.56 159.457C1626.89 159.52 1627.22 159.584 1627.55 159.648L1627.45 160.139C1627.78 160.203 1628.1 160.269 1628.43 160.334L1628.53 159.845C1628.86 159.912 1629.18 159.979 1629.51 160.048L1629.41 160.537C1629.74 160.606 1630.06 160.677 1630.39 160.747L1630.5 160.259C1630.82 160.33 1631.15 160.401 1631.47 160.474L1631.36 160.962C1631.69 161.035 1632.01 161.108 1632.34 161.183L1632.45 160.695C1632.78 160.772 1633.11 160.849 1633.43 160.927L1633.32 161.413C1633.64 161.491 1633.97 161.569 1634.29 161.648L1634.41 161.163C1634.73 161.242 1635.05 161.323 1635.37 161.404L1635.25 161.889C1635.58 161.972 1635.9 162.056 1636.23 162.141L1636.36 161.658C1636.68 161.743 1637 161.829 1637.32 161.916L1637.19 162.398C1637.51 162.485 1637.83 162.573 1638.15 162.662L1638.28 162.18C1638.61 162.272 1638.94 162.364 1639.26 162.458L1639.12 162.938C1639.44 163.031 1639.76 163.124 1640.08 163.219L1640.22 162.74C1640.54 162.836 1640.86 162.932 1641.18 163.03L1641.03 163.508C1641.35 163.608 1641.67 163.708 1641.99 163.81L1642.14 163.334C1642.46 163.436 1642.78 163.539 1643.09 163.643L1642.93 164.117C1643.25 164.223 1643.57 164.329 1643.88 164.436L1644.04 163.963C1644.36 164.073 1644.68 164.184 1645 164.296L1644.83 164.767C1645.14 164.878 1645.45 164.99 1645.76 165.103L1645.93 164.634C1646.25 164.751 1646.57 164.87 1646.88 164.99L1646.7 165.457C1647.01 165.577 1647.32 165.697 1647.63 165.819L1647.81 165.354C1648.13 165.478 1648.43 165.603 1648.74 165.729L1648.55 166.191C1648.86 166.321 1649.17 166.451 1649.47 166.583L1649.67 166.124C1649.98 166.256 1650.28 166.39 1650.58 166.524L1650.37 166.98C1650.68 167.119 1650.99 167.259 1651.29 167.4L1651.5 166.948C1651.81 167.091 1652.11 167.236 1652.4 167.382L1652.18 167.83C1652.48 167.979 1652.78 168.128 1653.07 168.279L1653.3 167.835C1653.6 167.991 1653.9 168.148 1654.19 168.306L1653.95 168.745C1654.24 168.905 1654.53 169.066 1654.81 169.228L1655.06 168.794C1655.36 168.964 1655.65 169.135 1655.93 169.308L1655.67 169.735C1655.95 169.908 1656.23 170.083 1656.5 170.258L1656.77 169.838C1657.06 170.024 1657.34 170.211 1657.61 170.4L1657.33 170.811C1657.6 171.001 1657.87 171.192 1658.13 171.384L1658.43 170.982C1658.7 171.186 1658.97 171.391 1659.22 171.597L1658.91 171.987C1659.17 172.197 1659.42 172.408 1659.66 172.62L1659.99 172.244C1660.25 172.468 1660.49 172.693 1660.72 172.919L1660.38 173.278C1660.62 173.512 1660.85 173.747 1661.06 173.982L1661.43 173.643C1661.66 173.893 1661.88 174.145 1662.09 174.398L1661.7 174.712C1661.9 174.969 1662.1 175.226 1662.28 175.485L1662.69 175.199C1662.88 175.481 1663.06 175.765 1663.23 176.05L1662.79 176.3C1662.96 176.581 1663.1 176.863 1663.23 177.146L1663.69 176.941C1663.82 177.249 1663.95 177.56 1664.05 177.872L1663.57 178.026C1663.67 178.33 1663.75 178.635 1663.81 178.941L1664.3 178.845Z" stroke="black" stroke-dasharray="1 1"/>
<path d="M1590.66 204.935L1585.66 202.048V207.822L1590.66 204.935ZM1584.11 205.435H1586.16V204.435H1584.11V205.435Z" fill="black"/>
<path d="M1427.92 216.085L1299.66 141.794C1441.51 141.954 1583.35 141.963 1725.2 141.963L1853.27 216.085H1427.92Z" stroke="black" stroke-dasharray="2 2"/>
<path d="M1613.35 216.348L1608.35 213.461V219.235L1613.35 216.348ZM1608.03 216.848H1608.85V215.848H1608.03V216.848Z" fill="black"/>
<path d="M1518.98 141.913L1523.98 144.799V139.026L1518.98 141.913ZM1523.48 142.413H1524.29V141.413H1523.48V142.413Z" fill="black"/>
<path d="M559.617 294.282C559.581 294.337 559.454 295.434 559.236 297.573C559.019 299.713 558.892 300.819 558.856 300.891V301H551.05C547.061 301 544.741 301 544.088 301C543.435 301 543.091 300.955 543.054 300.864V300.837C543 300.728 543 300.628 543.054 300.538L543.49 300.021C543.78 299.695 544.215 299.205 544.795 298.552C545.375 297.9 545.928 297.274 546.454 296.676L549.799 292.868L543.027 283.485L543 283.105C543 282.76 543.045 282.552 543.136 282.479C543.19 282.443 545.828 282.425 551.05 282.425H558.856V282.533C558.892 282.624 559.019 283.667 559.236 285.661C559.454 287.655 559.581 288.716 559.617 288.843V288.952H558.529V288.843C558.384 287.791 558.185 286.921 557.931 286.232C557.677 285.543 557.269 284.981 556.707 284.546C556.163 284.165 555.429 283.93 554.504 283.839C553.58 283.748 552.265 283.694 550.561 283.676H549.5H546.644L549.473 287.565C549.854 288.091 550.325 288.743 550.887 289.523C551.884 290.901 552.383 291.644 552.383 291.753C552.383 291.789 552.374 291.817 552.356 291.835L545.692 299.45C550.28 299.45 552.764 299.441 553.144 299.423C554.015 299.386 554.74 299.296 555.32 299.151C555.9 299.006 556.29 298.87 556.49 298.743C556.689 298.616 556.907 298.434 557.142 298.199C557.505 297.8 557.804 297.265 558.04 296.594C558.276 295.923 558.421 295.352 558.475 294.881L558.529 294.174H559.617V294.282Z" fill="black"/>
<path d="M562.659 288.941C562.582 288.941 562.409 288.902 562.14 288.826C561.871 288.749 561.73 288.672 561.717 288.595C561.717 288.505 562.07 287.018 562.775 284.134C563.48 281.25 563.871 279.743 563.948 279.615C564.14 279.205 564.473 279 564.947 279C565.204 279 565.473 279.096 565.755 279.288C566.037 279.481 566.178 279.763 566.178 280.134C566.178 280.199 566.165 280.295 566.14 280.423C566.127 280.513 565.569 281.942 564.467 284.711C563.364 287.48 562.794 288.877 562.755 288.902C562.717 288.928 562.685 288.941 562.659 288.941Z" fill="black"/>
<path d="M371.262 31.0333C370.653 31.0333 370.331 30.9975 370.295 30.9259C370.277 30.8901 370.268 30.8185 370.268 30.7111C370.268 30.2817 370.367 29.9864 370.564 29.8253C370.599 29.8074 370.752 29.7985 371.02 29.7985C371.754 29.8343 372.971 29.8522 374.671 29.8522C375.279 29.8522 375.843 29.8522 376.362 29.8522C376.881 29.8522 377.283 29.8432 377.57 29.8253C377.856 29.8074 378.035 29.8074 378.107 29.8253C378.393 29.8253 378.536 29.9148 378.536 30.0938C378.536 30.1295 378.518 30.2548 378.482 30.4696C378.393 30.7738 378.303 30.9527 378.214 31.0064H378.16C378.124 31.0064 378.08 31.0064 378.026 31.0064C377.972 31.0064 377.91 31.0064 377.838 31.0064C377.767 31.0064 377.686 31.0154 377.597 31.0333C377.507 31.0512 377.427 31.0512 377.355 31.0333C376.657 31.0512 376.21 31.078 376.013 31.1138C375.816 31.1496 375.655 31.248 375.53 31.4091C375.512 31.4449 375.261 32.3844 374.778 34.2276C374.295 36.0708 373.812 38.0035 373.329 40.0257C372.845 42.0478 372.577 43.2379 372.523 43.5958C372.487 43.8463 372.47 44.1058 372.47 44.3742C372.47 45.3406 372.747 46.1011 373.302 46.6559C373.856 47.2106 374.626 47.488 375.61 47.488C376.809 47.488 378.008 47.0854 379.207 46.2801C380.406 45.4748 381.283 44.2579 381.838 42.6294L383.207 37.234C384.048 33.7981 384.468 32.0086 384.468 31.8654C384.468 31.3822 383.896 31.1048 382.75 31.0333C382.321 31.0333 382.106 30.9348 382.106 30.738C382.106 30.7022 382.124 30.5948 382.16 30.4159C382.231 30.1295 382.285 29.9595 382.321 29.9059C382.357 29.8522 382.446 29.8164 382.589 29.7985C382.643 29.7985 382.929 29.8074 383.448 29.8253C383.967 29.8432 384.719 29.8611 385.703 29.879C386.616 29.879 387.314 29.8701 387.797 29.8522C388.28 29.8343 388.54 29.8253 388.575 29.8253C388.844 29.8253 388.978 29.9148 388.978 30.0938C388.978 30.4875 388.906 30.7559 388.763 30.899C388.71 30.9885 388.513 31.0333 388.173 31.0333C386.902 31.1048 386.106 31.4627 385.784 32.107C385.748 32.1965 385.3 33.9234 384.442 37.2877C383.708 40.312 383.26 42.0926 383.099 42.6294C382.509 44.419 381.48 45.8774 380.012 47.0048C378.545 48.1322 377.024 48.7049 375.449 48.7228C373.803 48.7228 372.487 48.2217 371.503 47.2196C370.519 46.2174 370.018 45.0274 370 43.6495V43.22C370 42.8979 370.492 40.7683 371.476 36.8313C372.353 33.2344 372.792 31.3822 372.792 31.2748C372.792 31.1496 372.282 31.0691 371.262 31.0333Z" fill="black"/>
<path d="M392.625 51.3426C392.436 51.5071 392.157 51.6842 391.79 51.874C391.423 52.0638 391.038 52.1587 390.633 52.1587C389.836 52.1587 389.197 51.874 388.716 51.3047C388.235 50.7353 387.988 50.0078 387.976 49.1222C387.976 47.7937 388.463 46.5728 389.437 45.4595C390.411 44.3461 391.493 43.7831 392.682 43.7704C393.277 43.7704 393.827 44.0741 394.333 44.6814L394.39 44.6054C394.416 44.5675 394.447 44.5295 394.485 44.4916C394.523 44.4536 394.58 44.403 394.656 44.3398C394.732 44.2765 394.814 44.2322 394.903 44.2069C394.991 44.1816 395.092 44.1626 395.206 44.15C395.383 44.15 395.529 44.2069 395.643 44.3208C395.757 44.4346 395.82 44.5548 395.833 44.6814C395.833 44.8711 395.472 46.402 394.751 49.274C394.03 52.146 393.65 53.6137 393.612 53.6769C393.384 54.3601 392.897 54.9231 392.151 55.366C391.404 55.8088 390.55 56.0365 389.589 56.0492C387.805 56.0492 386.913 55.619 386.913 54.7587C386.913 54.4297 387.027 54.1387 387.255 53.8857C387.482 53.6326 387.773 53.5061 388.128 53.5061C388.317 53.5061 388.494 53.563 388.659 53.6769C388.823 53.7908 388.912 53.9869 388.925 54.2652C388.925 54.3918 388.912 54.5119 388.887 54.6258C388.861 54.7397 388.817 54.8282 388.754 54.8915C388.691 54.9548 388.64 55.018 388.602 55.0813C388.564 55.1445 388.52 55.1952 388.469 55.2331L388.431 55.2711H388.45C388.577 55.309 388.956 55.328 389.589 55.328C390.07 55.328 390.449 55.2521 390.728 55.1003C391.019 54.9611 391.291 54.7523 391.544 54.474C391.797 54.1956 391.974 53.8983 392.075 53.582C392.151 53.3416 392.252 52.9494 392.379 52.4054C392.543 51.7981 392.625 51.4438 392.625 51.3426ZM394.011 45.9339L393.935 45.7251C393.897 45.586 393.865 45.4911 393.84 45.4405C393.815 45.3899 393.777 45.3013 393.726 45.1748C393.675 45.0483 393.612 44.9597 393.536 44.9091C393.46 44.8585 393.378 44.7889 393.29 44.7003C393.201 44.6118 393.087 44.5548 392.948 44.5295C392.809 44.5042 392.67 44.4852 392.53 44.4726C391.974 44.4726 391.436 44.8079 390.917 45.4784C390.538 45.9719 390.221 46.7247 389.968 47.7368C389.715 48.749 389.589 49.4828 389.589 49.9383C389.589 50.9378 389.981 51.4375 390.765 51.4375C391.474 51.4375 392.17 50.9947 392.853 50.1091L393.005 49.9193L394.011 45.9339Z" fill="black"/>
<path d="M399.643 41.4215C399.643 40.1867 399.732 39.0146 399.911 37.9051C400.09 36.7955 400.296 35.8381 400.529 35.0329C400.761 34.2276 401.092 33.4402 401.522 32.6707C401.951 31.9012 402.291 31.3017 402.542 30.8722C402.792 30.4427 403.168 29.9774 403.669 29.4764C404.17 28.9753 404.465 28.6711 404.555 28.5637C404.644 28.4563 404.868 28.2684 405.226 28H405.575H405.682C405.933 28 406.058 28.0805 406.058 28.2416C406.058 28.2953 405.906 28.4832 405.602 28.8053C405.298 29.1274 404.931 29.6016 404.501 30.228C404.072 30.8543 403.633 31.6238 403.186 32.5365C402.739 33.4491 402.363 34.6839 402.059 36.2408C401.754 37.7977 401.602 39.5246 401.602 41.4215C401.602 43.3184 401.754 45.0363 402.059 46.5753C402.363 48.1143 402.73 49.3581 403.159 50.3065C403.589 51.255 404.027 52.0245 404.474 52.615C404.922 53.2056 405.298 53.6798 405.602 54.0377C405.906 54.3956 406.058 54.5835 406.058 54.6014C406.058 54.7624 405.924 54.843 405.656 54.843H405.575H405.226L404.474 54.1987C402.792 52.6776 401.566 50.7807 400.797 48.508C400.027 46.2353 399.643 43.8731 399.643 41.4215Z" fill="black"/>
<path d="M425.439 41.502C425.403 41.5557 425.278 42.6384 425.063 44.75C424.848 46.8617 424.723 47.9533 424.687 48.0249V48.1322H416.983C413.046 48.1322 410.756 48.1322 410.111 48.1322C409.467 48.1322 409.127 48.0875 409.091 47.998V47.9712C409.038 47.8638 409.038 47.7654 409.091 47.6759L409.521 47.1659C409.807 46.8438 410.237 46.3606 410.809 45.7164C411.382 45.0721 411.928 44.4547 412.447 43.8642L415.748 40.1062L409.065 30.8454L409.038 30.4696C409.038 30.1295 409.082 29.9237 409.172 29.8522C409.226 29.8164 411.829 29.7985 416.983 29.7985H424.687V29.9059C424.723 29.9953 424.848 31.0243 425.063 32.9928C425.278 34.9613 425.403 36.0082 425.439 36.1334V36.2408H424.365V36.1334C424.222 35.0955 424.025 34.2365 423.775 33.5565C423.524 32.8765 423.121 32.3217 422.567 31.8922C422.03 31.5164 421.305 31.2838 420.392 31.1943C419.48 31.1048 418.182 31.0512 416.5 31.0333H415.453H412.635L415.426 34.8718C415.802 35.3908 416.267 36.035 416.822 36.8045C417.806 38.1645 418.299 38.8983 418.299 39.0056C418.299 39.0414 418.29 39.0683 418.272 39.0862L411.695 46.6022C416.223 46.6022 418.674 46.5932 419.05 46.5753C419.909 46.5395 420.625 46.4501 421.198 46.3069C421.77 46.1637 422.155 46.0295 422.352 45.9043C422.549 45.779 422.763 45.6 422.996 45.3674C423.354 44.9737 423.649 44.4458 423.882 43.7837C424.115 43.1215 424.258 42.5578 424.311 42.0926L424.365 41.3946H425.439V41.502Z" fill="black"/>
<path d="M428.553 28.0268L428.66 28C428.749 28 428.839 28 428.928 28H429.25L430.002 28.6442C431.684 30.1653 432.91 32.0622 433.68 34.3349C434.449 36.6076 434.834 38.9698 434.834 41.4215C434.834 42.6384 434.744 43.8105 434.565 44.9379C434.386 46.0653 434.181 47.0227 433.948 47.8101C433.715 48.5975 433.384 49.3849 432.955 50.1723C432.525 50.9597 432.185 51.5592 431.935 51.9708C431.684 52.3824 431.317 52.8387 430.834 53.3398C430.351 53.8408 430.065 54.1361 429.975 54.2256C429.886 54.3151 429.68 54.4851 429.358 54.7356C429.304 54.7893 429.268 54.8251 429.25 54.843H428.928C428.785 54.843 428.687 54.843 428.633 54.843C428.579 54.843 428.535 54.8161 428.499 54.7624C428.463 54.7088 428.436 54.6282 428.418 54.5209C428.436 54.503 428.535 54.3866 428.714 54.1719C431.487 51.2908 432.874 47.0406 432.874 41.4215C432.874 35.8024 431.487 31.5522 428.714 28.6711C428.535 28.4563 428.436 28.34 428.418 28.3221C428.418 28.179 428.463 28.0805 428.553 28.0268Z" fill="black"/>
<path d="M149.237 286.525C148.64 286.525 148.325 286.49 148.29 286.419C148.272 286.384 148.263 286.314 148.263 286.209C148.263 285.788 148.36 285.498 148.553 285.34C148.588 285.323 148.737 285.314 149 285.314C149.719 285.349 150.913 285.367 152.579 285.367C153.176 285.367 153.729 285.367 154.238 285.367C154.746 285.367 155.141 285.358 155.422 285.34C155.703 285.323 155.878 285.323 155.948 285.34C156.229 285.34 156.369 285.428 156.369 285.604C156.369 285.639 156.352 285.761 156.317 285.972C156.229 286.27 156.141 286.446 156.054 286.498H156.001C155.966 286.498 155.922 286.498 155.869 286.498C155.817 286.498 155.755 286.498 155.685 286.498C155.615 286.498 155.536 286.507 155.448 286.525C155.36 286.542 155.282 286.542 155.211 286.525C154.527 286.542 154.088 286.569 153.895 286.604C153.702 286.639 153.544 286.735 153.422 286.893C153.404 286.928 153.158 287.849 152.685 289.657C152.211 291.464 151.737 293.359 151.264 295.342C150.79 297.324 150.527 298.491 150.474 298.842C150.439 299.088 150.421 299.342 150.421 299.605C150.421 300.553 150.693 301.298 151.237 301.842C151.781 302.386 152.536 302.658 153.501 302.658C154.676 302.658 155.852 302.263 157.027 301.474C158.203 300.684 159.063 299.491 159.607 297.894L160.949 292.604C161.773 289.236 162.186 287.481 162.186 287.341C162.186 286.867 161.624 286.595 160.501 286.525C160.08 286.525 159.87 286.428 159.87 286.235C159.87 286.2 159.887 286.095 159.922 285.919C159.993 285.639 160.045 285.472 160.08 285.419C160.115 285.367 160.203 285.332 160.343 285.314C160.396 285.314 160.677 285.323 161.186 285.34C161.695 285.358 162.431 285.375 163.396 285.393C164.291 285.393 164.976 285.384 165.449 285.367C165.923 285.349 166.177 285.34 166.213 285.34C166.476 285.34 166.607 285.428 166.607 285.604C166.607 285.99 166.537 286.253 166.397 286.393C166.344 286.481 166.151 286.525 165.818 286.525C164.572 286.595 163.791 286.946 163.475 287.577C163.44 287.665 163.002 289.358 162.159 292.657C161.44 295.622 161.001 297.368 160.844 297.894C160.265 299.649 159.256 301.079 157.817 302.184C156.378 303.29 154.887 303.851 153.343 303.869C151.728 303.869 150.439 303.378 149.474 302.395C148.509 301.412 148.018 300.246 148 298.895V298.473C148 298.158 148.483 296.07 149.448 292.21C150.307 288.683 150.737 286.867 150.737 286.762C150.737 286.639 150.237 286.56 149.237 286.525Z" fill="black"/>
<path d="M170.183 306.437C169.997 306.599 169.724 306.772 169.365 306.958C169.005 307.145 168.627 307.238 168.23 307.238C167.448 307.238 166.822 306.958 166.35 306.4C165.879 305.842 165.637 305.129 165.625 304.26C165.625 302.958 166.102 301.761 167.057 300.669C168.013 299.578 169.073 299.026 170.239 299.013C170.822 299.013 171.362 299.311 171.858 299.906L171.914 299.832C171.939 299.795 171.97 299.757 172.007 299.72C172.044 299.683 172.1 299.633 172.174 299.571C172.249 299.509 172.33 299.466 172.416 299.441C172.503 299.416 172.602 299.398 172.714 299.385C172.888 299.385 173.03 299.441 173.142 299.553C173.254 299.664 173.316 299.782 173.328 299.906C173.328 300.092 172.975 301.593 172.267 304.409C171.56 307.225 171.188 308.664 171.151 308.726C170.928 309.396 170.45 309.948 169.718 310.382C168.986 310.816 168.149 311.04 167.206 311.052C165.457 311.052 164.583 310.63 164.583 309.787C164.583 309.464 164.694 309.179 164.918 308.931C165.141 308.683 165.426 308.559 165.774 308.559C165.96 308.559 166.133 308.615 166.295 308.726C166.456 308.838 166.543 309.03 166.555 309.303C166.555 309.427 166.543 309.545 166.518 309.657C166.493 309.768 166.45 309.855 166.388 309.917C166.326 309.979 166.276 310.041 166.239 310.103C166.201 310.165 166.158 310.215 166.108 310.252L166.071 310.289H166.09C166.214 310.326 166.586 310.345 167.206 310.345C167.678 310.345 168.05 310.271 168.323 310.122C168.608 309.985 168.875 309.781 169.123 309.508C169.371 309.235 169.545 308.943 169.644 308.633C169.718 308.397 169.818 308.013 169.942 307.479C170.103 306.884 170.183 306.537 170.183 306.437ZM171.542 301.134L171.467 300.93C171.43 300.793 171.399 300.7 171.374 300.651C171.35 300.601 171.312 300.514 171.263 300.39C171.213 300.266 171.151 300.179 171.077 300.13C171.002 300.08 170.922 300.012 170.835 299.925C170.748 299.838 170.636 299.782 170.5 299.757C170.363 299.733 170.227 299.714 170.09 299.702C169.545 299.702 169.017 300.03 168.509 300.688C168.137 301.172 167.827 301.91 167.578 302.902C167.33 303.894 167.206 304.614 167.206 305.061C167.206 306.041 167.591 306.531 168.36 306.531C169.055 306.531 169.737 306.096 170.407 305.228L170.556 305.042L171.542 301.134Z" fill="black"/>
<path d="M177.064 296.71C177.064 295.499 177.152 294.35 177.327 293.262C177.502 292.174 177.704 291.236 177.932 290.446C178.16 289.657 178.485 288.885 178.906 288.13C179.327 287.376 179.661 286.788 179.906 286.367C180.152 285.946 180.52 285.49 181.012 284.998C181.503 284.507 181.792 284.209 181.88 284.103C181.968 283.998 182.187 283.814 182.538 283.551H182.88H182.986C183.231 283.551 183.354 283.63 183.354 283.788C183.354 283.84 183.205 284.024 182.907 284.34C182.608 284.656 182.249 285.121 181.828 285.735C181.406 286.349 180.977 287.104 180.538 287.999C180.099 288.893 179.731 290.104 179.433 291.631C179.134 293.157 178.985 294.85 178.985 296.71C178.985 298.57 179.134 300.254 179.433 301.763C179.731 303.272 180.09 304.492 180.512 305.422C180.933 306.352 181.363 307.106 181.801 307.685C182.24 308.264 182.608 308.729 182.907 309.08C183.205 309.431 183.354 309.615 183.354 309.633C183.354 309.791 183.222 309.869 182.959 309.869H182.88H182.538L181.801 309.238C180.152 307.746 178.95 305.887 178.196 303.658C177.441 301.43 177.064 299.114 177.064 296.71Z" fill="black"/>
<path d="M202.356 296.789C202.321 296.842 202.198 297.903 201.988 299.974C201.777 302.044 201.654 303.114 201.619 303.185V303.29H194.066C190.206 303.29 187.96 303.29 187.328 303.29C186.696 303.29 186.363 303.246 186.328 303.158V303.132C186.275 303.027 186.275 302.93 186.328 302.842L186.749 302.342C187.03 302.026 187.451 301.553 188.012 300.921C188.574 300.289 189.109 299.684 189.618 299.105L192.855 295.42L186.302 286.341L186.275 285.972C186.275 285.639 186.319 285.437 186.407 285.367C186.46 285.332 189.013 285.314 194.066 285.314H201.619V285.419C201.654 285.507 201.777 286.516 201.988 288.446C202.198 290.376 202.321 291.402 202.356 291.525V291.631H201.303V291.525C201.163 290.508 200.97 289.665 200.724 288.999C200.479 288.332 200.084 287.788 199.54 287.367C199.014 286.998 198.303 286.77 197.408 286.683C196.513 286.595 195.241 286.542 193.592 286.525H192.566H189.802L192.539 290.288C192.908 290.797 193.364 291.429 193.908 292.183C194.873 293.517 195.355 294.236 195.355 294.341C195.355 294.377 195.347 294.403 195.329 294.42L188.881 301.79C193.32 301.79 195.724 301.781 196.092 301.763C196.934 301.728 197.636 301.64 198.198 301.5C198.759 301.36 199.136 301.228 199.329 301.105C199.522 300.983 199.733 300.807 199.961 300.579C200.312 300.193 200.602 299.675 200.83 299.026C201.058 298.377 201.198 297.824 201.251 297.368L201.303 296.684H202.356V296.789Z" fill="black"/>
<path d="M205.3 291.62C205.226 291.62 205.058 291.583 204.798 291.508C204.537 291.434 204.401 291.36 204.388 291.285C204.388 291.198 204.729 289.759 205.412 286.968C206.094 284.177 206.472 282.72 206.547 282.595C206.733 282.198 207.055 282 207.514 282C207.762 282 208.023 282.093 208.296 282.279C208.569 282.465 208.705 282.738 208.705 283.098C208.705 283.16 208.693 283.253 208.668 283.377C208.656 283.464 208.116 284.847 207.049 287.526C205.982 290.206 205.43 291.558 205.393 291.583C205.356 291.608 205.325 291.62 205.3 291.62Z" fill="black"/>
<path d="M211.841 283.577L211.947 283.551C212.034 283.551 212.122 283.551 212.21 283.551H212.526L213.263 284.182C214.912 285.674 216.114 287.534 216.868 289.762C217.623 291.99 218 294.306 218 296.71C218 297.903 217.912 299.052 217.737 300.158C217.561 301.263 217.36 302.202 217.132 302.974C216.903 303.746 216.579 304.518 216.158 305.29C215.737 306.062 215.403 306.65 215.158 307.053C214.912 307.457 214.552 307.904 214.079 308.396C213.605 308.887 213.324 309.176 213.236 309.264C213.149 309.352 212.947 309.519 212.631 309.764C212.578 309.817 212.543 309.852 212.526 309.869H212.21C212.07 309.869 211.973 309.869 211.92 309.869C211.868 309.869 211.824 309.843 211.789 309.791C211.754 309.738 211.727 309.659 211.71 309.554C211.727 309.536 211.824 309.422 211.999 309.212C214.719 306.387 216.079 302.219 216.079 296.71C216.079 291.201 214.719 287.034 211.999 284.209C211.824 283.998 211.727 283.884 211.71 283.867C211.71 283.726 211.754 283.63 211.841 283.577Z" fill="black"/>
<path d="M1037.26 91.0333C1036.65 91.0333 1036.33 90.9975 1036.3 90.9259C1036.28 90.8901 1036.27 90.8185 1036.27 90.7111C1036.27 90.2817 1036.37 89.9864 1036.56 89.8253C1036.6 89.8074 1036.75 89.7985 1037.02 89.7985C1037.75 89.8343 1038.97 89.8522 1040.67 89.8522C1041.28 89.8522 1041.84 89.8522 1042.36 89.8522C1042.88 89.8522 1043.28 89.8432 1043.57 89.8253C1043.86 89.8074 1044.03 89.8074 1044.11 89.8253C1044.39 89.8253 1044.54 89.9148 1044.54 90.0938C1044.54 90.1295 1044.52 90.2548 1044.48 90.4696C1044.39 90.7738 1044.3 90.9527 1044.21 91.0064H1044.16C1044.12 91.0064 1044.08 91.0064 1044.03 91.0064C1043.97 91.0064 1043.91 91.0064 1043.84 91.0064C1043.77 91.0064 1043.69 91.0154 1043.6 91.0333C1043.51 91.0512 1043.43 91.0512 1043.35 91.0333C1042.66 91.0512 1042.21 91.078 1042.01 91.1138C1041.82 91.1496 1041.65 91.248 1041.53 91.4091C1041.51 91.4449 1041.26 92.3844 1040.78 94.2276C1040.29 96.0708 1039.81 98.0035 1039.33 100.026C1038.85 102.048 1038.58 103.238 1038.52 103.596C1038.49 103.846 1038.47 104.106 1038.47 104.374C1038.47 105.341 1038.75 106.101 1039.3 106.656C1039.86 107.211 1040.63 107.488 1041.61 107.488C1042.81 107.488 1044.01 107.085 1045.21 106.28C1046.41 105.475 1047.28 104.258 1047.84 102.629L1049.21 97.234C1050.05 93.7981 1050.47 92.0086 1050.47 91.8654C1050.47 91.3822 1049.9 91.1048 1048.75 91.0333C1048.32 91.0333 1048.11 90.9348 1048.11 90.738C1048.11 90.7022 1048.12 90.5948 1048.16 90.4159C1048.23 90.1295 1048.29 89.9595 1048.32 89.9059C1048.36 89.8522 1048.45 89.8164 1048.59 89.7985C1048.64 89.7985 1048.93 89.8074 1049.45 89.8253C1049.97 89.8432 1050.72 89.8611 1051.7 89.879C1052.62 89.879 1053.31 89.8701 1053.8 89.8522C1054.28 89.8343 1054.54 89.8253 1054.58 89.8253C1054.84 89.8253 1054.98 89.9148 1054.98 90.0938C1054.98 90.4875 1054.91 90.7559 1054.76 90.899C1054.71 90.9885 1054.51 91.0333 1054.17 91.0333C1052.9 91.1048 1052.11 91.4627 1051.78 92.107C1051.75 92.1965 1051.3 93.9234 1050.44 97.2877C1049.71 100.312 1049.26 102.093 1049.1 102.629C1048.51 104.419 1047.48 105.877 1046.01 107.005C1044.55 108.132 1043.02 108.705 1041.45 108.723C1039.8 108.723 1038.49 108.222 1037.5 107.22C1036.52 106.217 1036.02 105.027 1036 103.649V103.22C1036 102.898 1036.49 100.768 1037.48 96.8313C1038.35 93.2344 1038.79 91.3822 1038.79 91.2748C1038.79 91.1496 1038.28 91.0691 1037.26 91.0333Z" fill="black"/>
<path d="M1058.63 111.343C1058.44 111.507 1058.16 111.684 1057.79 111.874C1057.42 112.064 1057.04 112.159 1056.63 112.159C1055.84 112.159 1055.2 111.874 1054.72 111.305C1054.24 110.735 1053.99 110.008 1053.98 109.122C1053.98 107.794 1054.46 106.573 1055.44 105.459C1056.41 104.346 1057.49 103.783 1058.68 103.77C1059.28 103.77 1059.83 104.074 1060.33 104.681L1060.39 104.605C1060.42 104.567 1060.45 104.53 1060.49 104.492C1060.52 104.454 1060.58 104.403 1060.66 104.34C1060.73 104.276 1060.81 104.232 1060.9 104.207C1060.99 104.182 1061.09 104.163 1061.21 104.15C1061.38 104.15 1061.53 104.207 1061.64 104.321C1061.76 104.435 1061.82 104.555 1061.83 104.681C1061.83 104.871 1061.47 106.402 1060.75 109.274C1060.03 112.146 1059.65 113.614 1059.61 113.677C1059.38 114.36 1058.9 114.923 1058.15 115.366C1057.4 115.809 1056.55 116.037 1055.59 116.049C1053.8 116.049 1052.91 115.619 1052.91 114.759C1052.91 114.43 1053.03 114.139 1053.25 113.886C1053.48 113.633 1053.77 113.506 1054.13 113.506C1054.32 113.506 1054.49 113.563 1054.66 113.677C1054.82 113.791 1054.91 113.987 1054.92 114.265C1054.92 114.392 1054.91 114.512 1054.89 114.626C1054.86 114.74 1054.82 114.828 1054.75 114.892C1054.69 114.955 1054.64 115.018 1054.6 115.081C1054.56 115.145 1054.52 115.195 1054.47 115.233L1054.43 115.271H1054.45C1054.58 115.309 1054.96 115.328 1055.59 115.328C1056.07 115.328 1056.45 115.252 1056.73 115.1C1057.02 114.961 1057.29 114.752 1057.54 114.474C1057.8 114.196 1057.97 113.898 1058.07 113.582C1058.15 113.342 1058.25 112.949 1058.38 112.405C1058.54 111.798 1058.63 111.444 1058.63 111.343ZM1060.01 105.934L1059.93 105.725C1059.9 105.586 1059.87 105.491 1059.84 105.44C1059.81 105.39 1059.78 105.301 1059.73 105.175C1059.68 105.048 1059.61 104.96 1059.54 104.909C1059.46 104.858 1059.38 104.789 1059.29 104.7C1059.2 104.612 1059.09 104.555 1058.95 104.53C1058.81 104.504 1058.67 104.485 1058.53 104.473C1057.97 104.473 1057.44 104.808 1056.92 105.478C1056.54 105.972 1056.22 106.725 1055.97 107.737C1055.72 108.749 1055.59 109.483 1055.59 109.938C1055.59 110.938 1055.98 111.438 1056.77 111.438C1057.47 111.438 1058.17 110.995 1058.85 110.109L1059 109.919L1060.01 105.934Z" fill="black"/>
<path d="M1065.64 101.422C1065.64 100.187 1065.73 99.0146 1065.91 97.9051C1066.09 96.7956 1066.3 95.8382 1066.53 95.0329C1066.76 94.2276 1067.09 93.4402 1067.52 92.6707C1067.95 91.9012 1068.29 91.3017 1068.54 90.8722C1068.79 90.4427 1069.17 89.9774 1069.67 89.4764C1070.17 88.9753 1070.47 88.6711 1070.55 88.5637C1070.64 88.4563 1070.87 88.2684 1071.23 88H1071.57H1071.68C1071.93 88 1072.06 88.0805 1072.06 88.2416C1072.06 88.2953 1071.91 88.4832 1071.6 88.8053C1071.3 89.1274 1070.93 89.6016 1070.5 90.228C1070.07 90.8543 1069.63 91.6238 1069.19 92.5365C1068.74 93.4491 1068.36 94.6839 1068.06 96.2408C1067.75 97.7977 1067.6 99.5246 1067.6 101.422C1067.6 103.318 1067.75 105.036 1068.06 106.575C1068.36 108.114 1068.73 109.358 1069.16 110.307C1069.59 111.255 1070.03 112.024 1070.47 112.615C1070.92 113.206 1071.3 113.68 1071.6 114.038C1071.91 114.396 1072.06 114.584 1072.06 114.601C1072.06 114.762 1071.92 114.843 1071.66 114.843H1071.57H1071.23L1070.47 114.199C1068.79 112.678 1067.57 110.781 1066.8 108.508C1066.03 106.235 1065.64 103.873 1065.64 101.422Z" fill="black"/>
<path d="M1091.44 101.502C1091.4 101.556 1091.28 102.638 1091.06 104.75C1090.85 106.862 1090.72 107.953 1090.69 108.025V108.132H1082.98C1079.05 108.132 1076.76 108.132 1076.11 108.132C1075.47 108.132 1075.13 108.087 1075.09 107.998V107.971C1075.04 107.864 1075.04 107.765 1075.09 107.676L1075.52 107.166C1075.81 106.844 1076.24 106.361 1076.81 105.716C1077.38 105.072 1077.93 104.455 1078.45 103.864L1081.75 100.106L1075.06 90.8454L1075.04 90.4696C1075.04 90.1295 1075.08 89.9237 1075.17 89.8522C1075.23 89.8164 1077.83 89.7985 1082.98 89.7985H1090.69V89.9059C1090.72 89.9953 1090.85 91.0243 1091.06 92.9928C1091.28 94.9613 1091.4 96.0082 1091.44 96.1334V96.2408H1090.37V96.1334C1090.22 95.0955 1090.03 94.2365 1089.77 93.5565C1089.52 92.8765 1089.12 92.3217 1088.57 91.8922C1088.03 91.5164 1087.3 91.2838 1086.39 91.1943C1085.48 91.1048 1084.18 91.0512 1082.5 91.0333H1081.45H1078.63L1081.43 94.8718C1081.8 95.3908 1082.27 96.035 1082.82 96.8045C1083.81 98.1645 1084.3 98.8983 1084.3 99.0056C1084.3 99.0414 1084.29 99.0683 1084.27 99.0862L1077.7 106.602C1082.22 106.602 1084.67 106.593 1085.05 106.575C1085.91 106.54 1086.62 106.45 1087.2 106.307C1087.77 106.164 1088.15 106.03 1088.35 105.904C1088.55 105.779 1088.76 105.6 1089 105.367C1089.35 104.974 1089.65 104.446 1089.88 103.784C1090.11 103.122 1090.26 102.558 1090.31 102.093L1090.37 101.395H1091.44V101.502Z" fill="black"/>
<path d="M1094.55 88.0269L1094.66 88C1094.75 88 1094.84 88 1094.93 88H1095.25L1096 88.6442C1097.68 90.1653 1098.91 92.0623 1099.68 94.335C1100.45 96.6077 1100.83 98.9698 1100.83 101.422C1100.83 102.638 1100.74 103.811 1100.57 104.938C1100.39 106.065 1100.18 107.023 1099.95 107.81C1099.72 108.598 1099.38 109.385 1098.95 110.172C1098.53 110.96 1098.19 111.559 1097.93 111.971C1097.68 112.382 1097.32 112.839 1096.83 113.34C1096.35 113.841 1096.06 114.136 1095.98 114.226C1095.89 114.315 1095.68 114.485 1095.36 114.736C1095.3 114.789 1095.27 114.825 1095.25 114.843H1094.93C1094.79 114.843 1094.69 114.843 1094.63 114.843C1094.58 114.843 1094.53 114.816 1094.5 114.762C1094.46 114.709 1094.44 114.628 1094.42 114.521C1094.44 114.503 1094.53 114.387 1094.71 114.172C1097.49 111.291 1098.87 107.041 1098.87 101.422C1098.87 95.8024 1097.49 91.5522 1094.71 88.6711C1094.53 88.4563 1094.44 88.34 1094.42 88.3221C1094.42 88.179 1094.46 88.0805 1094.55 88.0269Z" fill="black"/>
<path d="M1631.26 85.0333C1630.65 85.0333 1630.33 84.9975 1630.3 84.9259C1630.28 84.8901 1630.27 84.8185 1630.27 84.7111C1630.27 84.2817 1630.37 83.9864 1630.56 83.8253C1630.6 83.8074 1630.75 83.7985 1631.02 83.7985C1631.75 83.8343 1632.97 83.8522 1634.67 83.8522C1635.28 83.8522 1635.84 83.8522 1636.36 83.8522C1636.88 83.8522 1637.28 83.8432 1637.57 83.8253C1637.86 83.8074 1638.03 83.8074 1638.11 83.8253C1638.39 83.8253 1638.54 83.9148 1638.54 84.0938C1638.54 84.1295 1638.52 84.2548 1638.48 84.4696C1638.39 84.7738 1638.3 84.9527 1638.21 85.0064H1638.16C1638.12 85.0064 1638.08 85.0064 1638.03 85.0064C1637.97 85.0064 1637.91 85.0064 1637.84 85.0064C1637.77 85.0064 1637.69 85.0154 1637.6 85.0333C1637.51 85.0512 1637.43 85.0512 1637.35 85.0333C1636.66 85.0512 1636.21 85.078 1636.01 85.1138C1635.82 85.1496 1635.65 85.248 1635.53 85.4091C1635.51 85.4449 1635.26 86.3844 1634.78 88.2276C1634.29 90.0708 1633.81 92.0035 1633.33 94.0257C1632.85 96.0478 1632.58 97.2379 1632.52 97.5958C1632.49 97.8463 1632.47 98.1058 1632.47 98.3742C1632.47 99.3406 1632.75 100.101 1633.3 100.656C1633.86 101.211 1634.63 101.488 1635.61 101.488C1636.81 101.488 1638.01 101.085 1639.21 100.28C1640.41 99.4748 1641.28 98.2579 1641.84 96.6294L1643.21 91.234C1644.05 87.7981 1644.47 86.0086 1644.47 85.8654C1644.47 85.3822 1643.9 85.1048 1642.75 85.0333C1642.32 85.0333 1642.11 84.9348 1642.11 84.738C1642.11 84.7022 1642.12 84.5948 1642.16 84.4159C1642.23 84.1295 1642.29 83.9595 1642.32 83.9059C1642.36 83.8522 1642.45 83.8164 1642.59 83.7985C1642.64 83.7985 1642.93 83.8074 1643.45 83.8253C1643.97 83.8432 1644.72 83.8611 1645.7 83.879C1646.62 83.879 1647.31 83.8701 1647.8 83.8522C1648.28 83.8343 1648.54 83.8253 1648.58 83.8253C1648.84 83.8253 1648.98 83.9148 1648.98 84.0938C1648.98 84.4875 1648.91 84.7559 1648.76 84.899C1648.71 84.9885 1648.51 85.0333 1648.17 85.0333C1646.9 85.1048 1646.11 85.4627 1645.78 86.107C1645.75 86.1965 1645.3 87.9234 1644.44 91.2877C1643.71 94.312 1643.26 96.0926 1643.1 96.6294C1642.51 98.419 1641.48 99.8774 1640.01 101.005C1638.55 102.132 1637.02 102.705 1635.45 102.723C1633.8 102.723 1632.49 102.222 1631.5 101.22C1630.52 100.217 1630.02 99.0274 1630 97.6495V97.22C1630 96.8979 1630.49 94.7683 1631.48 90.8313C1632.35 87.2344 1632.79 85.3822 1632.79 85.2748C1632.79 85.1496 1632.28 85.0691 1631.26 85.0333Z" fill="black"/>
<path d="M1652.63 105.343C1652.44 105.507 1652.16 105.684 1651.79 105.874C1651.42 106.064 1651.04 106.159 1650.63 106.159C1649.84 106.159 1649.2 105.874 1648.72 105.305C1648.24 104.735 1647.99 104.008 1647.98 103.122C1647.98 101.794 1648.46 100.573 1649.44 99.4595C1650.41 98.3461 1651.49 97.7831 1652.68 97.7704C1653.28 97.7704 1653.83 98.0741 1654.33 98.6814L1654.39 98.6054C1654.42 98.5675 1654.45 98.5295 1654.49 98.4916C1654.52 98.4536 1654.58 98.403 1654.66 98.3398C1654.73 98.2765 1654.81 98.2322 1654.9 98.2069C1654.99 98.1816 1655.09 98.1626 1655.21 98.15C1655.38 98.15 1655.53 98.2069 1655.64 98.3208C1655.76 98.4346 1655.82 98.5548 1655.83 98.6814C1655.83 98.8711 1655.47 100.402 1654.75 103.274C1654.03 106.146 1653.65 107.614 1653.61 107.677C1653.38 108.36 1652.9 108.923 1652.15 109.366C1651.4 109.809 1650.55 110.037 1649.59 110.049C1647.8 110.049 1646.91 109.619 1646.91 108.759C1646.91 108.43 1647.03 108.139 1647.25 107.886C1647.48 107.633 1647.77 107.506 1648.13 107.506C1648.32 107.506 1648.49 107.563 1648.66 107.677C1648.82 107.791 1648.91 107.987 1648.92 108.265C1648.92 108.392 1648.91 108.512 1648.89 108.626C1648.86 108.74 1648.82 108.828 1648.75 108.892C1648.69 108.955 1648.64 109.018 1648.6 109.081C1648.56 109.145 1648.52 109.195 1648.47 109.233L1648.43 109.271H1648.45C1648.58 109.309 1648.96 109.328 1649.59 109.328C1650.07 109.328 1650.45 109.252 1650.73 109.1C1651.02 108.961 1651.29 108.752 1651.54 108.474C1651.8 108.196 1651.97 107.898 1652.07 107.582C1652.15 107.342 1652.25 106.949 1652.38 106.405C1652.54 105.798 1652.63 105.444 1652.63 105.343ZM1654.01 99.9339L1653.93 99.7251C1653.9 99.586 1653.87 99.4911 1653.84 99.4405C1653.81 99.3899 1653.78 99.3013 1653.73 99.1748C1653.68 99.0483 1653.61 98.9597 1653.54 98.9091C1653.46 98.8585 1653.38 98.7889 1653.29 98.7003C1653.2 98.6118 1653.09 98.5548 1652.95 98.5295C1652.81 98.5042 1652.67 98.4852 1652.53 98.4726C1651.97 98.4726 1651.44 98.8079 1650.92 99.4784C1650.54 99.9719 1650.22 100.725 1649.97 101.737C1649.72 102.749 1649.59 103.483 1649.59 103.938C1649.59 104.938 1649.98 105.438 1650.77 105.438C1651.47 105.438 1652.17 104.995 1652.85 104.109L1653 103.919L1654.01 99.9339Z" fill="black"/>
<path d="M1659.64 95.4215C1659.64 94.1867 1659.73 93.0146 1659.91 91.9051C1660.09 90.7955 1660.3 89.8381 1660.53 89.0329C1660.76 88.2276 1661.09 87.4402 1661.52 86.6707C1661.95 85.9012 1662.29 85.3017 1662.54 84.8722C1662.79 84.4427 1663.17 83.9774 1663.67 83.4764C1664.17 82.9753 1664.47 82.6711 1664.55 82.5637C1664.64 82.4563 1664.87 82.2684 1665.23 82H1665.57H1665.68C1665.93 82 1666.06 82.0805 1666.06 82.2416C1666.06 82.2953 1665.91 82.4832 1665.6 82.8053C1665.3 83.1274 1664.93 83.6016 1664.5 84.228C1664.07 84.8543 1663.63 85.6238 1663.19 86.5365C1662.74 87.4491 1662.36 88.6839 1662.06 90.2408C1661.75 91.7977 1661.6 93.5246 1661.6 95.4215C1661.6 97.3184 1661.75 99.0363 1662.06 100.575C1662.36 102.114 1662.73 103.358 1663.16 104.307C1663.59 105.255 1664.03 106.024 1664.47 106.615C1664.92 107.206 1665.3 107.68 1665.6 108.038C1665.91 108.396 1666.06 108.583 1666.06 108.601C1666.06 108.762 1665.92 108.843 1665.66 108.843H1665.57H1665.23L1664.47 108.199C1662.79 106.678 1661.57 104.781 1660.8 102.508C1660.03 100.235 1659.64 97.8731 1659.64 95.4215Z" fill="black"/>
<path d="M1685.44 95.502C1685.4 95.5557 1685.28 96.6384 1685.06 98.75C1684.85 100.862 1684.72 101.953 1684.69 102.025V102.132H1676.98C1673.05 102.132 1670.76 102.132 1670.11 102.132C1669.47 102.132 1669.13 102.087 1669.09 101.998V101.971C1669.04 101.864 1669.04 101.765 1669.09 101.676L1669.52 101.166C1669.81 100.844 1670.24 100.361 1670.81 99.7164C1671.38 99.0721 1671.93 98.4547 1672.45 97.8642L1675.75 94.1062L1669.06 84.8454L1669.04 84.4696C1669.04 84.1295 1669.08 83.9237 1669.17 83.8522C1669.23 83.8164 1671.83 83.7985 1676.98 83.7985H1684.69V83.9059C1684.72 83.9953 1684.85 85.0243 1685.06 86.9928C1685.28 88.9613 1685.4 90.0082 1685.44 90.1334V90.2408H1684.37V90.1334C1684.22 89.0955 1684.03 88.2365 1683.77 87.5565C1683.52 86.8765 1683.12 86.3217 1682.57 85.8922C1682.03 85.5164 1681.3 85.2838 1680.39 85.1943C1679.48 85.1048 1678.18 85.0512 1676.5 85.0333H1675.45H1672.63L1675.43 88.8718C1675.8 89.3908 1676.27 90.035 1676.82 90.8045C1677.81 92.1645 1678.3 92.8983 1678.3 93.0056C1678.3 93.0414 1678.29 93.0683 1678.27 93.0862L1671.7 100.602C1676.22 100.602 1678.67 100.593 1679.05 100.575C1679.91 100.54 1680.62 100.45 1681.2 100.307C1681.77 100.164 1682.15 100.03 1682.35 99.9043C1682.55 99.779 1682.76 99.6 1683 99.3674C1683.35 98.9737 1683.65 98.4458 1683.88 97.7837C1684.11 97.1215 1684.26 96.5578 1684.31 96.0926L1684.37 95.3946H1685.44V95.502Z" fill="black"/>
<path d="M1688.55 82.0268L1688.66 82C1688.75 82 1688.84 82 1688.93 82H1689.25L1690 82.6442C1691.68 84.1653 1692.91 86.0622 1693.68 88.3349C1694.45 90.6076 1694.83 92.9698 1694.83 95.4215C1694.83 96.6384 1694.74 97.8105 1694.57 98.9379C1694.39 100.065 1694.18 101.023 1693.95 101.81C1693.72 102.598 1693.38 103.385 1692.95 104.172C1692.53 104.96 1692.19 105.559 1691.93 105.971C1691.68 106.382 1691.32 106.839 1690.83 107.34C1690.35 107.841 1690.06 108.136 1689.98 108.226C1689.89 108.315 1689.68 108.485 1689.36 108.736C1689.3 108.789 1689.27 108.825 1689.25 108.843H1688.93C1688.79 108.843 1688.69 108.843 1688.63 108.843C1688.58 108.843 1688.53 108.816 1688.5 108.762C1688.46 108.709 1688.44 108.628 1688.42 108.521C1688.44 108.503 1688.53 108.387 1688.71 108.172C1691.49 105.291 1692.87 101.041 1692.87 95.4215C1692.87 89.8024 1691.49 85.5522 1688.71 82.6711C1688.53 82.4563 1688.44 82.34 1688.42 82.3221C1688.42 82.179 1688.46 82.0805 1688.55 82.0268Z" fill="black"/>
<path d="M813.237 240.525C812.64 240.525 812.325 240.49 812.29 240.419C812.272 240.384 812.263 240.314 812.263 240.209C812.263 239.788 812.36 239.498 812.553 239.34C812.588 239.323 812.737 239.314 813 239.314C813.719 239.349 814.913 239.367 816.579 239.367C817.176 239.367 817.729 239.367 818.238 239.367C818.746 239.367 819.141 239.358 819.422 239.34C819.703 239.323 819.878 239.323 819.948 239.34C820.229 239.34 820.369 239.428 820.369 239.604C820.369 239.639 820.352 239.761 820.317 239.972C820.229 240.27 820.141 240.446 820.054 240.498H820.001C819.966 240.498 819.922 240.498 819.869 240.498C819.817 240.498 819.755 240.498 819.685 240.498C819.615 240.498 819.536 240.507 819.448 240.525C819.36 240.542 819.282 240.542 819.211 240.525C818.527 240.542 818.088 240.569 817.895 240.604C817.702 240.639 817.544 240.735 817.422 240.893C817.404 240.928 817.158 241.849 816.685 243.657C816.211 245.464 815.737 247.359 815.264 249.342C814.79 251.324 814.527 252.491 814.474 252.842C814.439 253.088 814.421 253.342 814.421 253.605C814.421 254.553 814.693 255.298 815.237 255.842C815.781 256.386 816.536 256.658 817.501 256.658C818.676 256.658 819.852 256.263 821.027 255.474C822.203 254.684 823.063 253.491 823.607 251.894L824.949 246.604C825.773 243.236 826.186 241.481 826.186 241.341C826.186 240.867 825.624 240.595 824.501 240.525C824.08 240.525 823.87 240.428 823.87 240.235C823.87 240.2 823.887 240.095 823.922 239.919C823.993 239.639 824.045 239.472 824.08 239.419C824.115 239.367 824.203 239.332 824.343 239.314C824.396 239.314 824.677 239.323 825.186 239.34C825.695 239.358 826.431 239.375 827.396 239.393C828.291 239.393 828.976 239.384 829.449 239.367C829.923 239.349 830.177 239.34 830.213 239.34C830.476 239.34 830.607 239.428 830.607 239.604C830.607 239.99 830.537 240.253 830.397 240.393C830.344 240.481 830.151 240.525 829.818 240.525C828.572 240.595 827.791 240.946 827.475 241.577C827.44 241.665 827.002 243.358 826.159 246.657C825.44 249.622 825.001 251.368 824.844 251.894C824.265 253.649 823.256 255.079 821.817 256.184C820.378 257.29 818.887 257.851 817.343 257.869C815.728 257.869 814.439 257.378 813.474 256.395C812.509 255.412 812.018 254.246 812 252.895V252.473C812 252.158 812.483 250.07 813.448 246.21C814.307 242.683 814.737 240.867 814.737 240.762C814.737 240.639 814.237 240.56 813.237 240.525Z" fill="black"/>
<path d="M834.183 260.437C833.997 260.599 833.724 260.772 833.365 260.958C833.005 261.145 832.627 261.238 832.23 261.238C831.448 261.238 830.822 260.958 830.35 260.4C829.879 259.842 829.637 259.129 829.625 258.26C829.625 256.958 830.102 255.761 831.057 254.669C832.013 253.578 833.073 253.026 834.239 253.013C834.822 253.013 835.362 253.311 835.858 253.906L835.914 253.832C835.939 253.795 835.97 253.757 836.007 253.72C836.044 253.683 836.1 253.633 836.174 253.571C836.249 253.509 836.33 253.466 836.416 253.441C836.503 253.416 836.602 253.398 836.714 253.385C836.888 253.385 837.03 253.441 837.142 253.553C837.254 253.664 837.316 253.782 837.328 253.906C837.328 254.092 836.975 255.593 836.267 258.409C835.56 261.225 835.188 262.664 835.151 262.726C834.928 263.396 834.45 263.948 833.718 264.382C832.986 264.816 832.149 265.04 831.206 265.052C829.457 265.052 828.583 264.63 828.583 263.787C828.583 263.464 828.694 263.179 828.918 262.931C829.141 262.683 829.426 262.559 829.774 262.559C829.96 262.559 830.133 262.615 830.295 262.726C830.456 262.838 830.543 263.03 830.555 263.303C830.555 263.427 830.543 263.545 830.518 263.657C830.493 263.768 830.45 263.855 830.388 263.917C830.326 263.979 830.276 264.041 830.239 264.103C830.201 264.165 830.158 264.215 830.108 264.252L830.071 264.289H830.09C830.214 264.326 830.586 264.345 831.206 264.345C831.678 264.345 832.05 264.271 832.323 264.122C832.608 263.985 832.875 263.781 833.123 263.508C833.371 263.235 833.545 262.943 833.644 262.633C833.718 262.397 833.818 262.013 833.942 261.479C834.103 260.884 834.183 260.537 834.183 260.437ZM835.542 255.134L835.467 254.93C835.43 254.793 835.399 254.7 835.374 254.651C835.35 254.601 835.312 254.514 835.263 254.39C835.213 254.266 835.151 254.179 835.077 254.13C835.002 254.08 834.922 254.012 834.835 253.925C834.748 253.838 834.636 253.782 834.5 253.757C834.363 253.733 834.227 253.714 834.09 253.702C833.545 253.702 833.017 254.03 832.509 254.688C832.137 255.172 831.827 255.91 831.578 256.902C831.33 257.894 831.206 258.614 831.206 259.061C831.206 260.041 831.591 260.531 832.36 260.531C833.055 260.531 833.737 260.096 834.407 259.228L834.556 259.042L835.542 255.134Z" fill="black"/>
<path d="M841.064 250.71C841.064 249.499 841.152 248.35 841.327 247.262C841.502 246.174 841.704 245.236 841.932 244.446C842.16 243.657 842.485 242.885 842.906 242.13C843.327 241.376 843.661 240.788 843.906 240.367C844.152 239.946 844.52 239.49 845.012 238.998C845.503 238.507 845.792 238.209 845.88 238.103C845.968 237.998 846.187 237.814 846.538 237.551H846.88H846.986C847.231 237.551 847.354 237.63 847.354 237.788C847.354 237.84 847.205 238.024 846.907 238.34C846.608 238.656 846.249 239.121 845.828 239.735C845.406 240.349 844.977 241.104 844.538 241.999C844.099 242.893 843.731 244.104 843.433 245.631C843.134 247.157 842.985 248.85 842.985 250.71C842.985 252.57 843.134 254.254 843.433 255.763C843.731 257.272 844.091 258.492 844.512 259.422C844.933 260.352 845.363 261.106 845.801 261.685C846.24 262.264 846.608 262.729 846.907 263.08C847.205 263.431 847.354 263.615 847.354 263.633C847.354 263.791 847.222 263.869 846.959 263.869H846.88H846.538L845.801 263.238C844.152 261.746 842.95 259.887 842.196 257.658C841.441 255.43 841.064 253.114 841.064 250.71Z" fill="black"/>
<path d="M866.356 250.789C866.321 250.842 866.198 251.903 865.988 253.974C865.777 256.044 865.654 257.114 865.619 257.185V257.29H858.066C854.206 257.29 851.96 257.29 851.328 257.29C850.696 257.29 850.363 257.246 850.328 257.158V257.132C850.275 257.027 850.275 256.93 850.328 256.842L850.749 256.342C851.03 256.026 851.451 255.553 852.012 254.921C852.574 254.289 853.109 253.684 853.618 253.105L856.855 249.42L850.302 240.341L850.275 239.972C850.275 239.639 850.319 239.437 850.407 239.367C850.46 239.332 853.013 239.314 858.066 239.314H865.619V239.419C865.654 239.507 865.777 240.516 865.988 242.446C866.198 244.376 866.321 245.402 866.356 245.525V245.631H865.303V245.525C865.163 244.508 864.97 243.665 864.724 242.999C864.479 242.332 864.084 241.788 863.54 241.367C863.014 240.998 862.303 240.77 861.408 240.683C860.513 240.595 859.241 240.542 857.592 240.525H856.566H853.802L856.539 244.288C856.908 244.797 857.364 245.429 857.908 246.183C858.873 247.517 859.355 248.236 859.355 248.341C859.355 248.377 859.347 248.403 859.329 248.42L852.881 255.79C857.32 255.79 859.724 255.781 860.092 255.763C860.934 255.728 861.636 255.64 862.198 255.5C862.759 255.36 863.136 255.228 863.329 255.105C863.522 254.983 863.733 254.807 863.961 254.579C864.312 254.193 864.602 253.675 864.83 253.026C865.058 252.377 865.198 251.824 865.251 251.368L865.303 250.684H866.356V250.789Z" fill="black"/>
<path d="M869.3 245.62C869.226 245.62 869.058 245.583 868.798 245.508C868.537 245.434 868.401 245.36 868.388 245.285C868.388 245.198 868.729 243.759 869.412 240.968C870.094 238.177 870.472 236.72 870.547 236.595C870.733 236.198 871.055 236 871.514 236C871.762 236 872.023 236.093 872.296 236.279C872.569 236.465 872.705 236.738 872.705 237.098C872.705 237.16 872.693 237.253 872.668 237.377C872.656 237.464 872.116 238.847 871.049 241.526C869.982 244.206 869.43 245.558 869.393 245.583C869.356 245.608 869.325 245.62 869.3 245.62Z" fill="black"/>
<path d="M875.841 237.577L875.947 237.551C876.034 237.551 876.122 237.551 876.21 237.551H876.526L877.263 238.182C878.912 239.674 880.114 241.534 880.868 243.762C881.623 245.99 882 248.306 882 250.71C882 251.903 881.912 253.052 881.737 254.158C881.561 255.263 881.36 256.202 881.132 256.974C880.903 257.746 880.579 258.518 880.158 259.29C879.737 260.062 879.403 260.65 879.158 261.053C878.912 261.457 878.552 261.904 878.079 262.396C877.605 262.887 877.324 263.176 877.236 263.264C877.149 263.352 876.947 263.519 876.631 263.764C876.578 263.817 876.543 263.852 876.526 263.869H876.21C876.07 263.869 875.973 263.869 875.92 263.869C875.868 263.869 875.824 263.843 875.789 263.791C875.754 263.738 875.727 263.659 875.71 263.554C875.727 263.536 875.824 263.422 875.999 263.212C878.719 260.387 880.079 256.219 880.079 250.71C880.079 245.201 878.719 241.034 875.999 238.209C875.824 237.998 875.727 237.884 875.71 237.867C875.71 237.726 875.754 237.63 875.841 237.577Z" fill="black"/>
<path d="M318.521 163.612C318.59 163.508 318.694 163.456 318.833 163.456H319.041H319.379C319.483 163.56 319.535 163.629 319.535 163.664C319.535 163.785 319.275 164.851 318.755 166.862C318.633 167.347 318.512 167.859 318.391 168.396C318.269 168.933 318.165 169.332 318.079 169.592L317.975 170.008C317.975 170.025 318.053 170.034 318.209 170.034C318.365 170.034 318.642 170.086 319.041 170.19C319.439 170.294 319.855 170.441 320.289 170.632C321.051 170.996 321.684 171.525 322.187 172.218C322.689 172.911 322.941 173.752 322.941 174.74C322.941 175.728 322.672 176.673 322.135 177.574C321.597 178.475 320.93 179.221 320.133 179.81C319.335 180.399 318.495 180.867 317.611 181.214C316.727 181.561 315.903 181.743 315.141 181.76H315.037L314.413 184.23C314.309 184.629 314.196 185.105 314.075 185.66C313.936 186.215 313.841 186.544 313.789 186.648C313.737 186.752 313.633 186.813 313.477 186.83H313.321C312.974 186.83 312.801 186.769 312.801 186.648C312.801 186.561 312.991 185.738 313.373 184.178L313.971 181.786C313.971 181.769 313.901 181.76 313.763 181.76C313.676 181.76 313.503 181.743 313.243 181.708C312.983 181.673 312.593 181.552 312.073 181.344C311.553 181.136 311.085 180.876 310.669 180.564C310.253 180.252 309.863 179.793 309.499 179.186C309.135 178.579 308.97 177.869 309.005 177.054C309.005 176.014 309.291 175.035 309.863 174.116C310.435 173.197 311.137 172.452 311.969 171.88C312.801 171.308 313.641 170.857 314.491 170.528C315.34 170.199 316.103 170.034 316.779 170.034C316.865 170.034 316.917 169.999 316.935 169.93L317.715 166.758C318.252 164.695 318.521 163.647 318.521 163.612ZM311.059 177.6C311.059 178.189 311.163 178.701 311.371 179.134C311.579 179.567 311.865 179.897 312.229 180.122C312.593 180.347 312.905 180.503 313.165 180.59C313.425 180.677 313.719 180.746 314.049 180.798H314.231L316.649 170.996C316.579 170.996 316.484 171.005 316.363 171.022C316.241 171.039 315.99 171.109 315.609 171.23C315.227 171.351 314.863 171.49 314.517 171.646C314.17 171.802 313.789 172.053 313.373 172.4C312.957 172.747 312.601 173.145 312.307 173.596C311.995 174.081 311.709 174.662 311.449 175.338C311.189 176.135 311.059 176.889 311.059 177.6ZM320.887 174.168C320.887 173.509 320.748 172.946 320.471 172.478C320.193 172.01 319.847 171.681 319.431 171.49C319.015 171.299 318.677 171.169 318.417 171.1C318.157 171.031 317.949 170.996 317.793 170.996H317.715L316.519 175.858L315.271 180.746C315.271 180.781 315.279 180.798 315.297 180.798C315.435 180.798 315.713 180.746 316.129 180.642C316.545 180.538 316.891 180.417 317.169 180.278C317.914 179.949 318.555 179.489 319.093 178.9C319.63 178.311 320.011 177.704 320.237 177.08C320.462 176.456 320.627 175.901 320.731 175.416C320.835 174.931 320.887 174.515 320.887 174.168Z" fill="black"/>
<path d="M325.827 175C325.827 173.804 325.913 172.669 326.087 171.594C326.26 170.519 326.459 169.592 326.685 168.812C326.91 168.032 327.231 167.269 327.647 166.524C328.063 165.779 328.392 165.198 328.635 164.782C328.877 164.366 329.241 163.915 329.727 163.43C330.212 162.945 330.498 162.65 330.585 162.546C330.671 162.442 330.888 162.26 331.235 162H331.573H331.677C331.919 162 332.041 162.078 332.041 162.234C332.041 162.286 331.893 162.468 331.599 162.78C331.304 163.092 330.949 163.551 330.533 164.158C330.117 164.765 329.692 165.51 329.259 166.394C328.825 167.278 328.461 168.474 328.167 169.982C327.872 171.49 327.725 173.163 327.725 175C327.725 176.837 327.872 178.501 328.167 179.992C328.461 181.483 328.817 182.687 329.233 183.606C329.649 184.525 330.073 185.27 330.507 185.842C330.94 186.414 331.304 186.873 331.599 187.22C331.893 187.567 332.041 187.749 332.041 187.766C332.041 187.922 331.911 188 331.651 188H331.573H331.235L330.507 187.376C328.877 185.903 327.69 184.065 326.945 181.864C326.199 179.663 325.827 177.375 325.827 175Z" fill="black"/>
<path d="M334.849 173.986C334.97 173.258 335.438 172.417 336.253 171.464C337.067 170.511 338.073 170.025 339.269 170.008C339.875 170.008 340.43 170.164 340.933 170.476C341.435 170.788 341.808 171.178 342.051 171.646C342.779 170.554 343.654 170.008 344.677 170.008C345.318 170.008 345.873 170.199 346.341 170.58C346.809 170.961 347.051 171.473 347.069 172.114C347.069 172.617 346.947 173.024 346.705 173.336C346.462 173.648 346.228 173.839 346.003 173.908C345.777 173.977 345.578 174.012 345.405 174.012C345.075 174.012 344.807 173.917 344.599 173.726C344.391 173.535 344.287 173.284 344.287 172.972C344.287 172.175 344.72 171.629 345.587 171.334C345.396 171.109 345.049 170.996 344.547 170.996C344.321 170.996 344.157 171.013 344.053 171.048C343.394 171.325 342.909 171.897 342.597 172.764C341.557 176.595 341.037 178.831 341.037 179.472C341.037 179.957 341.175 180.304 341.453 180.512C341.73 180.72 342.033 180.824 342.363 180.824C343.004 180.824 343.637 180.538 344.261 179.966C344.885 179.394 345.309 178.692 345.535 177.86C345.587 177.687 345.639 177.591 345.691 177.574C345.743 177.557 345.881 177.539 346.107 177.522H346.211C346.471 177.522 346.601 177.591 346.601 177.73C346.601 177.747 346.583 177.843 346.549 178.016C346.271 179.004 345.734 179.879 344.937 180.642C344.139 181.405 343.212 181.786 342.155 181.786C340.941 181.786 340.023 181.24 339.399 180.148C338.688 181.223 337.873 181.76 336.955 181.76H336.799C335.949 181.76 335.343 181.535 334.979 181.084C334.615 180.633 334.424 180.157 334.407 179.654C334.407 179.099 334.571 178.649 334.901 178.302C335.23 177.955 335.62 177.782 336.071 177.782C336.816 177.782 337.189 178.146 337.189 178.874C337.189 179.221 337.085 179.524 336.877 179.784C336.669 180.044 336.469 180.217 336.279 180.304C336.088 180.391 335.975 180.434 335.941 180.434L335.863 180.46C335.863 180.477 335.915 180.512 336.019 180.564C336.123 180.616 336.261 180.677 336.435 180.746C336.608 180.815 336.773 180.841 336.929 180.824C337.553 180.824 338.09 180.434 338.541 179.654C338.697 179.377 338.896 178.787 339.139 177.886C339.381 176.985 339.624 176.049 339.867 175.078C340.109 174.107 340.248 173.535 340.283 173.362C340.369 172.894 340.413 172.556 340.413 172.348C340.413 171.863 340.283 171.516 340.023 171.308C339.763 171.1 339.468 170.996 339.139 170.996C338.445 170.996 337.795 171.273 337.189 171.828C336.582 172.383 336.157 173.093 335.915 173.96C335.88 174.116 335.837 174.203 335.785 174.22C335.733 174.237 335.594 174.255 335.369 174.272H335.005C334.901 174.168 334.849 174.073 334.849 173.986Z" fill="black"/>
<path d="M349.929 162.026L350.033 162C350.119 162 350.206 162 350.293 162H350.605L351.333 162.624C352.962 164.097 354.149 165.935 354.895 168.136C355.64 170.337 356.013 172.625 356.013 175C356.013 176.179 355.926 177.314 355.753 178.406C355.579 179.498 355.38 180.425 355.155 181.188C354.929 181.951 354.609 182.713 354.193 183.476C353.777 184.239 353.447 184.819 353.205 185.218C352.962 185.617 352.607 186.059 352.139 186.544C351.671 187.029 351.393 187.315 351.307 187.402C351.22 187.489 351.021 187.653 350.709 187.896C350.657 187.948 350.622 187.983 350.605 188H350.293C350.154 188 350.059 188 350.007 188C349.955 188 349.911 187.974 349.877 187.922C349.842 187.87 349.816 187.792 349.799 187.688C349.816 187.671 349.911 187.558 350.085 187.35C352.771 184.559 354.115 180.443 354.115 175C354.115 169.557 352.771 165.441 350.085 162.65C349.911 162.442 349.816 162.329 349.799 162.312C349.799 162.173 349.842 162.078 349.929 162.026Z" fill="black"/>
<path d="M978.521 163.612C978.59 163.508 978.694 163.456 978.833 163.456H979.041H979.379C979.483 163.56 979.535 163.629 979.535 163.664C979.535 163.785 979.275 164.851 978.755 166.862C978.633 167.347 978.512 167.859 978.391 168.396C978.269 168.933 978.165 169.332 978.079 169.592L977.975 170.008C977.975 170.025 978.053 170.034 978.209 170.034C978.365 170.034 978.642 170.086 979.041 170.19C979.439 170.294 979.855 170.441 980.289 170.632C981.051 170.996 981.684 171.525 982.187 172.218C982.689 172.911 982.941 173.752 982.941 174.74C982.941 175.728 982.672 176.673 982.135 177.574C981.597 178.475 980.93 179.221 980.133 179.81C979.335 180.399 978.495 180.867 977.611 181.214C976.727 181.561 975.903 181.743 975.141 181.76H975.037L974.413 184.23C974.309 184.629 974.196 185.105 974.075 185.66C973.936 186.215 973.841 186.544 973.789 186.648C973.737 186.752 973.633 186.813 973.477 186.83H973.321C972.974 186.83 972.801 186.769 972.801 186.648C972.801 186.561 972.991 185.738 973.373 184.178L973.971 181.786C973.971 181.769 973.901 181.76 973.763 181.76C973.676 181.76 973.503 181.743 973.243 181.708C972.983 181.673 972.593 181.552 972.073 181.344C971.553 181.136 971.085 180.876 970.669 180.564C970.253 180.252 969.863 179.793 969.499 179.186C969.135 178.579 968.97 177.869 969.005 177.054C969.005 176.014 969.291 175.035 969.863 174.116C970.435 173.197 971.137 172.452 971.969 171.88C972.801 171.308 973.641 170.857 974.491 170.528C975.34 170.199 976.103 170.034 976.779 170.034C976.865 170.034 976.917 169.999 976.935 169.93L977.715 166.758C978.252 164.695 978.521 163.647 978.521 163.612ZM971.059 177.6C971.059 178.189 971.163 178.701 971.371 179.134C971.579 179.567 971.865 179.897 972.229 180.122C972.593 180.347 972.905 180.503 973.165 180.59C973.425 180.677 973.719 180.746 974.049 180.798H974.231L976.649 170.996C976.579 170.996 976.484 171.005 976.363 171.022C976.241 171.039 975.99 171.109 975.609 171.23C975.227 171.351 974.863 171.49 974.517 171.646C974.17 171.802 973.789 172.053 973.373 172.4C972.957 172.747 972.601 173.145 972.307 173.596C971.995 174.081 971.709 174.662 971.449 175.338C971.189 176.135 971.059 176.889 971.059 177.6ZM980.887 174.168C980.887 173.509 980.748 172.946 980.471 172.478C980.193 172.01 979.847 171.681 979.431 171.49C979.015 171.299 978.677 171.169 978.417 171.1C978.157 171.031 977.949 170.996 977.793 170.996H977.715L976.519 175.858L975.271 180.746C975.271 180.781 975.279 180.798 975.297 180.798C975.435 180.798 975.713 180.746 976.129 180.642C976.545 180.538 976.891 180.417 977.169 180.278C977.914 179.949 978.555 179.489 979.093 178.9C979.63 178.311 980.011 177.704 980.237 177.08C980.462 176.456 980.627 175.901 980.731 175.416C980.835 174.931 980.887 174.515 980.887 174.168Z" fill="black"/>
<path d="M985.827 175C985.827 173.804 985.913 172.669 986.087 171.594C986.26 170.519 986.459 169.592 986.685 168.812C986.91 168.032 987.231 167.269 987.647 166.524C988.063 165.779 988.392 165.198 988.635 164.782C988.877 164.366 989.241 163.915 989.727 163.43C990.212 162.945 990.498 162.65 990.585 162.546C990.671 162.442 990.888 162.26 991.235 162H991.573H991.677C991.919 162 992.041 162.078 992.041 162.234C992.041 162.286 991.893 162.468 991.599 162.78C991.304 163.092 990.949 163.551 990.533 164.158C990.117 164.765 989.692 165.51 989.259 166.394C988.825 167.278 988.461 168.474 988.167 169.982C987.872 171.49 987.725 173.163 987.725 175C987.725 176.837 987.872 178.501 988.167 179.992C988.461 181.483 988.817 182.687 989.233 183.606C989.649 184.525 990.073 185.27 990.507 185.842C990.94 186.414 991.304 186.873 991.599 187.22C991.893 187.567 992.041 187.749 992.041 187.766C992.041 187.922 991.911 188 991.651 188H991.573H991.235L990.507 187.376C988.877 185.903 987.69 184.065 986.945 181.864C986.199 179.663 985.827 177.375 985.827 175Z" fill="black"/>
<path d="M994.849 173.986C994.97 173.258 995.438 172.417 996.253 171.464C997.067 170.511 998.073 170.025 999.269 170.008C999.875 170.008 1000.43 170.164 1000.93 170.476C1001.44 170.788 1001.81 171.178 1002.05 171.646C1002.78 170.554 1003.65 170.008 1004.68 170.008C1005.32 170.008 1005.87 170.199 1006.34 170.58C1006.81 170.961 1007.05 171.473 1007.07 172.114C1007.07 172.617 1006.95 173.024 1006.7 173.336C1006.46 173.648 1006.23 173.839 1006 173.908C1005.78 173.977 1005.58 174.012 1005.4 174.012C1005.08 174.012 1004.81 173.917 1004.6 173.726C1004.39 173.535 1004.29 173.284 1004.29 172.972C1004.29 172.175 1004.72 171.629 1005.59 171.334C1005.4 171.109 1005.05 170.996 1004.55 170.996C1004.32 170.996 1004.16 171.013 1004.05 171.048C1003.39 171.325 1002.91 171.897 1002.6 172.764C1001.56 176.595 1001.04 178.831 1001.04 179.472C1001.04 179.957 1001.18 180.304 1001.45 180.512C1001.73 180.72 1002.03 180.824 1002.36 180.824C1003 180.824 1003.64 180.538 1004.26 179.966C1004.88 179.394 1005.31 178.692 1005.53 177.86C1005.59 177.687 1005.64 177.591 1005.69 177.574C1005.74 177.557 1005.88 177.539 1006.11 177.522H1006.21C1006.47 177.522 1006.6 177.591 1006.6 177.73C1006.6 177.747 1006.58 177.843 1006.55 178.016C1006.27 179.004 1005.73 179.879 1004.94 180.642C1004.14 181.405 1003.21 181.786 1002.15 181.786C1000.94 181.786 1000.02 181.24 999.399 180.148C998.688 181.223 997.873 181.76 996.955 181.76H996.799C995.949 181.76 995.343 181.535 994.979 181.084C994.615 180.633 994.424 180.157 994.407 179.654C994.407 179.099 994.571 178.649 994.901 178.302C995.23 177.955 995.62 177.782 996.071 177.782C996.816 177.782 997.189 178.146 997.189 178.874C997.189 179.221 997.085 179.524 996.877 179.784C996.669 180.044 996.469 180.217 996.279 180.304C996.088 180.391 995.975 180.434 995.941 180.434L995.863 180.46C995.863 180.477 995.915 180.512 996.019 180.564C996.123 180.616 996.261 180.677 996.435 180.746C996.608 180.815 996.773 180.841 996.929 180.824C997.553 180.824 998.09 180.434 998.541 179.654C998.697 179.377 998.896 178.787 999.139 177.886C999.381 176.985 999.624 176.049 999.867 175.078C1000.11 174.107 1000.25 173.535 1000.28 173.362C1000.37 172.894 1000.41 172.556 1000.41 172.348C1000.41 171.863 1000.28 171.516 1000.02 171.308C999.763 171.1 999.468 170.996 999.139 170.996C998.445 170.996 997.795 171.273 997.189 171.828C996.582 172.383 996.157 173.093 995.915 173.96C995.88 174.116 995.837 174.203 995.785 174.22C995.733 174.237 995.594 174.255 995.369 174.272H995.005C994.901 174.168 994.849 174.073 994.849 173.986Z" fill="black"/>
<path d="M1009.93 162.026L1010.03 162C1010.12 162 1010.21 162 1010.29 162H1010.6L1011.33 162.624C1012.96 164.097 1014.15 165.935 1014.89 168.136C1015.64 170.337 1016.01 172.625 1016.01 175C1016.01 176.179 1015.93 177.314 1015.75 178.406C1015.58 179.498 1015.38 180.425 1015.15 181.188C1014.93 181.951 1014.61 182.713 1014.19 183.476C1013.78 184.239 1013.45 184.819 1013.2 185.218C1012.96 185.617 1012.61 186.059 1012.14 186.544C1011.67 187.029 1011.39 187.315 1011.31 187.402C1011.22 187.489 1011.02 187.653 1010.71 187.896C1010.66 187.948 1010.62 187.983 1010.6 188H1010.29C1010.15 188 1010.06 188 1010.01 188C1009.95 188 1009.91 187.974 1009.88 187.922C1009.84 187.87 1009.82 187.792 1009.8 187.688C1009.82 187.671 1009.91 187.558 1010.08 187.35C1012.77 184.559 1014.11 180.443 1014.11 175C1014.11 169.557 1012.77 165.441 1010.08 162.65C1009.91 162.442 1009.82 162.329 1009.8 162.312C1009.8 162.173 1009.84 162.078 1009.93 162.026Z" fill="black"/>
<path d="M1598.52 163.612C1598.59 163.508 1598.69 163.456 1598.83 163.456H1599.04H1599.38C1599.48 163.56 1599.53 163.629 1599.53 163.664C1599.53 163.785 1599.27 164.851 1598.75 166.862C1598.63 167.347 1598.51 167.859 1598.39 168.396C1598.27 168.933 1598.17 169.332 1598.08 169.592L1597.97 170.008C1597.97 170.025 1598.05 170.034 1598.21 170.034C1598.36 170.034 1598.64 170.086 1599.04 170.19C1599.44 170.294 1599.86 170.441 1600.29 170.632C1601.05 170.996 1601.68 171.525 1602.19 172.218C1602.69 172.911 1602.94 173.752 1602.94 174.74C1602.94 175.728 1602.67 176.673 1602.13 177.574C1601.6 178.475 1600.93 179.221 1600.13 179.81C1599.34 180.399 1598.49 180.867 1597.61 181.214C1596.73 181.561 1595.9 181.743 1595.14 181.76H1595.04L1594.41 184.23C1594.31 184.629 1594.2 185.105 1594.07 185.66C1593.94 186.215 1593.84 186.544 1593.79 186.648C1593.74 186.752 1593.63 186.813 1593.48 186.83H1593.32C1592.97 186.83 1592.8 186.769 1592.8 186.648C1592.8 186.561 1592.99 185.738 1593.37 184.178L1593.97 181.786C1593.97 181.769 1593.9 181.76 1593.76 181.76C1593.68 181.76 1593.5 181.743 1593.24 181.708C1592.98 181.673 1592.59 181.552 1592.07 181.344C1591.55 181.136 1591.08 180.876 1590.67 180.564C1590.25 180.252 1589.86 179.793 1589.5 179.186C1589.13 178.579 1588.97 177.869 1589 177.054C1589 176.014 1589.29 175.035 1589.86 174.116C1590.43 173.197 1591.14 172.452 1591.97 171.88C1592.8 171.308 1593.64 170.857 1594.49 170.528C1595.34 170.199 1596.1 170.034 1596.78 170.034C1596.87 170.034 1596.92 169.999 1596.93 169.93L1597.71 166.758C1598.25 164.695 1598.52 163.647 1598.52 163.612ZM1591.06 177.6C1591.06 178.189 1591.16 178.701 1591.37 179.134C1591.58 179.567 1591.86 179.897 1592.23 180.122C1592.59 180.347 1592.9 180.503 1593.16 180.59C1593.42 180.677 1593.72 180.746 1594.05 180.798H1594.23L1596.65 170.996C1596.58 170.996 1596.48 171.005 1596.36 171.022C1596.24 171.039 1595.99 171.109 1595.61 171.23C1595.23 171.351 1594.86 171.49 1594.52 171.646C1594.17 171.802 1593.79 172.053 1593.37 172.4C1592.96 172.747 1592.6 173.145 1592.31 173.596C1591.99 174.081 1591.71 174.662 1591.45 175.338C1591.19 176.135 1591.06 176.889 1591.06 177.6ZM1600.89 174.168C1600.89 173.509 1600.75 172.946 1600.47 172.478C1600.19 172.01 1599.85 171.681 1599.43 171.49C1599.01 171.299 1598.68 171.169 1598.42 171.1C1598.16 171.031 1597.95 170.996 1597.79 170.996H1597.71L1596.52 175.858L1595.27 180.746C1595.27 180.781 1595.28 180.798 1595.3 180.798C1595.44 180.798 1595.71 180.746 1596.13 180.642C1596.54 180.538 1596.89 180.417 1597.17 180.278C1597.91 179.949 1598.56 179.489 1599.09 178.9C1599.63 178.311 1600.01 177.704 1600.24 177.08C1600.46 176.456 1600.63 175.901 1600.73 175.416C1600.83 174.931 1600.89 174.515 1600.89 174.168Z" fill="black"/>
<path d="M1605.83 175C1605.83 173.804 1605.91 172.669 1606.09 171.594C1606.26 170.519 1606.46 169.592 1606.68 168.812C1606.91 168.032 1607.23 167.269 1607.65 166.524C1608.06 165.779 1608.39 165.198 1608.63 164.782C1608.88 164.366 1609.24 163.915 1609.73 163.43C1610.21 162.945 1610.5 162.65 1610.58 162.546C1610.67 162.442 1610.89 162.26 1611.23 162H1611.57H1611.68C1611.92 162 1612.04 162.078 1612.04 162.234C1612.04 162.286 1611.89 162.468 1611.6 162.78C1611.3 163.092 1610.95 163.551 1610.53 164.158C1610.12 164.765 1609.69 165.51 1609.26 166.394C1608.83 167.278 1608.46 168.474 1608.17 169.982C1607.87 171.49 1607.72 173.163 1607.72 175C1607.72 176.837 1607.87 178.501 1608.17 179.992C1608.46 181.483 1608.82 182.687 1609.23 183.606C1609.65 184.525 1610.07 185.27 1610.51 185.842C1610.94 186.414 1611.3 186.873 1611.6 187.22C1611.89 187.567 1612.04 187.749 1612.04 187.766C1612.04 187.922 1611.91 188 1611.65 188H1611.57H1611.23L1610.51 187.376C1608.88 185.903 1607.69 184.065 1606.94 181.864C1606.2 179.663 1605.83 177.375 1605.83 175Z" fill="black"/>
<path d="M1614.85 173.986C1614.97 173.258 1615.44 172.417 1616.25 171.464C1617.07 170.511 1618.07 170.025 1619.27 170.008C1619.88 170.008 1620.43 170.164 1620.93 170.476C1621.44 170.788 1621.81 171.178 1622.05 171.646C1622.78 170.554 1623.65 170.008 1624.68 170.008C1625.32 170.008 1625.87 170.199 1626.34 170.58C1626.81 170.961 1627.05 171.473 1627.07 172.114C1627.07 172.617 1626.95 173.024 1626.7 173.336C1626.46 173.648 1626.23 173.839 1626 173.908C1625.78 173.977 1625.58 174.012 1625.4 174.012C1625.08 174.012 1624.81 173.917 1624.6 173.726C1624.39 173.535 1624.29 173.284 1624.29 172.972C1624.29 172.175 1624.72 171.629 1625.59 171.334C1625.4 171.109 1625.05 170.996 1624.55 170.996C1624.32 170.996 1624.16 171.013 1624.05 171.048C1623.39 171.325 1622.91 171.897 1622.6 172.764C1621.56 176.595 1621.04 178.831 1621.04 179.472C1621.04 179.957 1621.18 180.304 1621.45 180.512C1621.73 180.72 1622.03 180.824 1622.36 180.824C1623 180.824 1623.64 180.538 1624.26 179.966C1624.88 179.394 1625.31 178.692 1625.53 177.86C1625.59 177.687 1625.64 177.591 1625.69 177.574C1625.74 177.557 1625.88 177.539 1626.11 177.522H1626.21C1626.47 177.522 1626.6 177.591 1626.6 177.73C1626.6 177.747 1626.58 177.843 1626.55 178.016C1626.27 179.004 1625.73 179.879 1624.94 180.642C1624.14 181.405 1623.21 181.786 1622.15 181.786C1620.94 181.786 1620.02 181.24 1619.4 180.148C1618.69 181.223 1617.87 181.76 1616.95 181.76H1616.8C1615.95 181.76 1615.34 181.535 1614.98 181.084C1614.61 180.633 1614.42 180.157 1614.41 179.654C1614.41 179.099 1614.57 178.649 1614.9 178.302C1615.23 177.955 1615.62 177.782 1616.07 177.782C1616.82 177.782 1617.19 178.146 1617.19 178.874C1617.19 179.221 1617.08 179.524 1616.88 179.784C1616.67 180.044 1616.47 180.217 1616.28 180.304C1616.09 180.391 1615.98 180.434 1615.94 180.434L1615.86 180.46C1615.86 180.477 1615.91 180.512 1616.02 180.564C1616.12 180.616 1616.26 180.677 1616.43 180.746C1616.61 180.815 1616.77 180.841 1616.93 180.824C1617.55 180.824 1618.09 180.434 1618.54 179.654C1618.7 179.377 1618.9 178.787 1619.14 177.886C1619.38 176.985 1619.62 176.049 1619.87 175.078C1620.11 174.107 1620.25 173.535 1620.28 173.362C1620.37 172.894 1620.41 172.556 1620.41 172.348C1620.41 171.863 1620.28 171.516 1620.02 171.308C1619.76 171.1 1619.47 170.996 1619.14 170.996C1618.45 170.996 1617.8 171.273 1617.19 171.828C1616.58 172.383 1616.16 173.093 1615.91 173.96C1615.88 174.116 1615.84 174.203 1615.78 174.22C1615.73 174.237 1615.59 174.255 1615.37 174.272H1615C1614.9 174.168 1614.85 174.073 1614.85 173.986Z" fill="black"/>
<path d="M1629.93 162.026L1630.03 162C1630.12 162 1630.21 162 1630.29 162H1630.6L1631.33 162.624C1632.96 164.097 1634.15 165.935 1634.89 168.136C1635.64 170.337 1636.01 172.625 1636.01 175C1636.01 176.179 1635.93 177.314 1635.75 178.406C1635.58 179.498 1635.38 180.425 1635.15 181.188C1634.93 181.951 1634.61 182.713 1634.19 183.476C1633.78 184.239 1633.45 184.819 1633.2 185.218C1632.96 185.617 1632.61 186.059 1632.14 186.544C1631.67 187.029 1631.39 187.315 1631.31 187.402C1631.22 187.489 1631.02 187.653 1630.71 187.896C1630.66 187.948 1630.62 187.983 1630.6 188H1630.29C1630.15 188 1630.06 188 1630.01 188C1629.95 188 1629.91 187.974 1629.88 187.922C1629.84 187.87 1629.82 187.792 1629.8 187.688C1629.82 187.671 1629.91 187.558 1630.08 187.35C1632.77 184.559 1634.11 180.443 1634.11 175C1634.11 169.557 1632.77 165.441 1630.08 162.65C1629.91 162.442 1629.82 162.329 1629.8 162.312C1629.8 162.173 1629.84 162.078 1629.93 162.026Z" fill="black"/>
<path d="M1436 225.438C1436 225.266 1436.09 225.12 1436.28 225H1444.72C1444.91 225.12 1445 225.266 1445 225.438C1445 225.748 1444.67 225.903 1444.02 225.903C1443.28 225.954 1442.86 226.092 1442.76 226.315C1442.69 226.418 1442.65 228.92 1442.65 233.819C1442.65 238.702 1442.69 241.203 1442.76 241.324C1442.83 241.461 1442.94 241.547 1443.09 241.582C1443.25 241.616 1443.56 241.659 1444.02 241.711C1444.67 241.711 1445 241.874 1445 242.201C1445 242.373 1444.91 242.519 1444.72 242.639H1436.28C1436.09 242.553 1436 242.407 1436 242.201C1436 241.874 1436.33 241.711 1436.98 241.711C1437.43 241.676 1437.73 241.642 1437.88 241.607C1438.04 241.573 1438.16 241.479 1438.24 241.324C1438.35 241.152 1438.4 238.65 1438.4 233.819C1438.4 228.971 1438.35 226.47 1438.24 226.315C1438.14 226.092 1437.72 225.954 1436.98 225.903C1436.33 225.903 1436 225.748 1436 225.438ZM1441.91 241.711C1441.85 241.625 1441.83 241.573 1441.83 241.556C1441.83 241.539 1441.81 241.427 1441.78 241.221C1441.74 241.014 1441.72 240.765 1441.72 240.473C1441.72 240.181 1441.72 239.699 1441.72 239.029V233.819C1441.72 228.817 1441.74 226.255 1441.78 226.135L1441.91 225.903H1439.09C1439.2 226.143 1439.26 226.59 1439.28 227.244C1439.29 227.897 1439.31 230.089 1439.33 233.819C1439.33 237.55 1439.32 239.742 1439.3 240.395C1439.28 241.049 1439.21 241.487 1439.09 241.711H1441.91Z" fill="black"/>
<path d="M562 108.129C561.963 108.184 561.833 109.306 561.61 111.495C561.388 113.683 561.258 114.815 561.221 114.889V115H553.236C549.155 115 546.781 115 546.113 115C545.445 115 545.093 114.954 545.056 114.861V114.833C545 114.722 545 114.62 545.056 114.527L545.501 113.999C545.798 113.665 546.243 113.164 546.836 112.496C547.43 111.829 547.996 111.189 548.534 110.577L551.956 106.682L545.028 97.0849L545 96.6955C545 96.3431 545.046 96.1298 545.139 96.0556C545.195 96.0185 547.894 96 553.236 96H561.221V96.1113C561.258 96.204 561.388 97.2704 561.61 99.3104C561.833 101.35 561.963 102.435 562 102.565V102.676H560.887V102.565C560.739 101.49 560.535 100.599 560.275 99.8946C560.015 99.1898 559.598 98.6149 559.023 98.1698C558.466 97.7804 557.715 97.5393 556.769 97.4466C555.823 97.3538 554.478 97.2982 552.735 97.2796H551.65H548.728L551.622 101.258C552.011 101.796 552.494 102.463 553.069 103.261C554.089 104.67 554.599 105.43 554.599 105.542C554.599 105.579 554.59 105.607 554.571 105.625L547.755 113.414C552.447 113.414 554.989 113.405 555.378 113.387C556.268 113.349 557.01 113.257 557.604 113.108C558.197 112.96 558.596 112.821 558.8 112.691C559.004 112.561 559.227 112.376 559.468 112.135C559.839 111.727 560.145 111.18 560.386 110.493C560.627 109.807 560.776 109.223 560.831 108.741L560.887 108.018H562V108.129Z" fill="black"/>
<path d="M1218.62 248.282C1218.58 248.337 1218.45 249.434 1218.24 251.573C1218.02 253.713 1217.89 254.819 1217.86 254.891V255H1210.05C1206.06 255 1203.74 255 1203.09 255C1202.44 255 1202.09 254.955 1202.05 254.864V254.837C1202 254.728 1202 254.628 1202.05 254.538L1202.49 254.021C1202.78 253.695 1203.21 253.205 1203.79 252.552C1204.38 251.9 1204.93 251.274 1205.45 250.676L1208.8 246.868L1202.03 237.485L1202 237.105C1202 236.76 1202.05 236.552 1202.14 236.479C1202.19 236.443 1204.83 236.425 1210.05 236.425H1217.86V236.533C1217.89 236.624 1218.02 237.667 1218.24 239.661C1218.45 241.655 1218.58 242.716 1218.62 242.843V242.952H1217.53V242.843C1217.38 241.791 1217.18 240.921 1216.93 240.232C1216.68 239.543 1216.27 238.981 1215.71 238.546C1215.16 238.165 1214.43 237.93 1213.5 237.839C1212.58 237.748 1211.27 237.694 1209.56 237.676H1208.5H1205.64L1208.47 241.565C1208.85 242.091 1209.32 242.743 1209.89 243.523C1210.88 244.901 1211.38 245.644 1211.38 245.753C1211.38 245.789 1211.37 245.817 1211.36 245.835L1204.69 253.45C1209.28 253.45 1211.76 253.441 1212.14 253.423C1213.01 253.386 1213.74 253.296 1214.32 253.151C1214.9 253.006 1215.29 252.87 1215.49 252.743C1215.69 252.616 1215.91 252.434 1216.14 252.199C1216.5 251.8 1216.8 251.265 1217.04 250.594C1217.28 249.923 1217.42 249.352 1217.47 248.881L1217.53 248.174H1218.62V248.282Z" fill="black"/>
<path d="M1221.66 242.941C1221.58 242.941 1221.41 242.902 1221.14 242.826C1220.87 242.749 1220.73 242.672 1220.72 242.595C1220.72 242.505 1221.07 241.018 1221.77 238.134C1222.48 235.25 1222.87 233.743 1222.95 233.615C1223.14 233.205 1223.47 233 1223.95 233C1224.2 233 1224.47 233.096 1224.75 233.288C1225.04 233.481 1225.18 233.763 1225.18 234.134C1225.18 234.199 1225.17 234.295 1225.14 234.423C1225.13 234.513 1224.57 235.942 1223.47 238.711C1222.36 241.48 1221.79 242.877 1221.76 242.902C1221.72 242.928 1221.68 242.941 1221.66 242.941Z" fill="black"/>
<path d="M1219 159.129C1218.96 159.184 1218.83 160.306 1218.61 162.495C1218.39 164.683 1218.26 165.815 1218.22 165.889V166H1210.24C1206.15 166 1203.78 166 1203.11 166C1202.45 166 1202.09 165.954 1202.06 165.861V165.833C1202 165.722 1202 165.62 1202.06 165.527L1202.5 164.999C1202.8 164.665 1203.24 164.164 1203.84 163.496C1204.43 162.829 1205 162.189 1205.53 161.577L1208.96 157.682L1202.03 148.085L1202 147.695C1202 147.343 1202.05 147.13 1202.14 147.056C1202.19 147.019 1204.89 147 1210.24 147H1218.22V147.111C1218.26 147.204 1218.39 148.27 1218.61 150.31C1218.83 152.35 1218.96 153.435 1219 153.565V153.676H1217.89V153.565C1217.74 152.49 1217.53 151.599 1217.27 150.895C1217.02 150.19 1216.6 149.615 1216.02 149.17C1215.47 148.78 1214.72 148.539 1213.77 148.447C1212.82 148.354 1211.48 148.298 1209.73 148.28H1208.65H1205.73L1208.62 152.258C1209.01 152.796 1209.49 153.463 1210.07 154.261C1211.09 155.67 1211.6 156.43 1211.6 156.542C1211.6 156.579 1211.59 156.607 1211.57 156.625L1204.75 164.414C1209.45 164.414 1211.99 164.405 1212.38 164.387C1213.27 164.349 1214.01 164.257 1214.6 164.108C1215.2 163.96 1215.6 163.821 1215.8 163.691C1216 163.561 1216.23 163.376 1216.47 163.135C1216.84 162.727 1217.15 162.18 1217.39 161.493C1217.63 160.807 1217.78 160.223 1217.83 159.741L1217.89 159.018H1219V159.129Z" fill="black"/>
<path d="M614 180.804C614 180.456 614.188 180.188 614.563 180H640.168C640.57 180.214 640.771 180.482 640.771 180.804C640.771 181.099 640.584 181.353 640.209 181.568L627.426 181.608H614.643C614.214 181.474 614 181.206 614 180.804ZM614 188.602C614 188.2 614.214 187.932 614.643 187.798H640.209C640.584 188.066 640.771 188.334 640.771 188.602C640.771 188.951 640.57 189.219 640.168 189.406H614.563C614.188 189.219 614 188.951 614 188.602Z" fill="black"/>
<path d="M1284 180.804C1284 180.456 1284.19 180.188 1284.56 180H1310.17C1310.57 180.214 1310.77 180.482 1310.77 180.804C1310.77 181.099 1310.58 181.353 1310.21 181.568L1297.43 181.608H1284.64C1284.21 181.474 1284 181.206 1284 180.804ZM1284 188.602C1284 188.2 1284.21 187.932 1284.64 187.798H1310.21C1310.58 188.066 1310.77 188.334 1310.77 188.602C1310.77 188.951 1310.57 189.219 1310.17 189.406H1284.56C1284.19 189.219 1284 188.951 1284 188.602Z" fill="black"/>
</svg>
