<svg width="1863" height="646" viewBox="0 0 1863 646" fill="none" xmlns="http://www.w3.org/2000/svg">
<path d="M522.461 424.378H262.517C102.828 424.378 53 349.336 53 349.336H312.945C312.945 349.336 320.398 356.238 334.368 365.855C366.463 387.95 432.951 424.378 522.461 424.378Z" fill="#D9D9D9" fill-opacity="0.3"/>
<path d="M522.461 424.378C432.951 424.378 366.463 387.95 334.368 365.855" stroke="black" stroke-dasharray="2 2"/>
<path d="M522.461 424.378C420.947 424.378 364.031 424.378 262.517 424.378C102.828 424.378 53 349.336 53 349.336H312.945C312.945 349.336 320.398 356.238 334.368 365.855" stroke="black"/>
<path d="M707.364 141.62C707.364 141.62 599.504 155.482 491.844 141.62C391.668 128.722 377.399 279.325 334.368 365.855C317.314 400.148 295.743 424.378 262.517 424.378H522.461C608.909 424.378 707.364 141.62 707.364 141.62Z" fill="#D9D9D9" fill-opacity="0.3" stroke="black"/>
<circle cx="291.933" cy="217.863" r="3.602" fill="black"/>
<circle cx="547.675" cy="480.809" r="3.602" fill="black"/>
<path d="M570.492 465.83C570.571 465.712 570.689 465.653 570.846 465.653H571.083H571.466C571.584 465.771 571.644 465.85 571.644 465.889C571.644 466.027 571.348 467.237 570.758 469.52C570.62 470.072 570.482 470.652 570.345 471.262C570.207 471.872 570.089 472.325 569.99 472.62L569.872 473.093C569.872 473.112 569.961 473.122 570.138 473.122C570.315 473.122 570.63 473.181 571.083 473.299C571.535 473.417 572.008 473.585 572.5 473.801C573.366 474.214 574.084 474.815 574.655 475.602C575.225 476.389 575.511 477.344 575.511 478.466C575.511 479.587 575.206 480.66 574.596 481.683C573.986 482.707 573.228 483.553 572.323 484.222C571.417 484.892 570.463 485.423 569.459 485.817C568.455 486.21 567.52 486.417 566.654 486.437H566.536L565.828 489.241C565.71 489.694 565.582 490.235 565.444 490.865C565.286 491.495 565.178 491.869 565.119 491.987C565.06 492.105 564.942 492.174 564.765 492.193H564.588C564.194 492.193 563.997 492.124 563.997 491.987C563.997 491.888 564.214 490.953 564.647 489.182L565.326 486.466C565.326 486.446 565.247 486.437 565.09 486.437C564.991 486.437 564.794 486.417 564.499 486.377C564.204 486.338 563.761 486.2 563.171 485.964C562.58 485.728 562.049 485.433 561.577 485.078C561.104 484.724 560.661 484.203 560.248 483.514C559.835 482.825 559.648 482.018 559.687 481.093C559.687 479.912 560.012 478.8 560.661 477.757C561.311 476.714 562.108 475.868 563.053 475.218C563.997 474.569 564.952 474.057 565.916 473.683C566.881 473.309 567.747 473.122 568.514 473.122C568.613 473.122 568.672 473.083 568.691 473.004L569.577 469.402C570.187 467.06 570.492 465.87 570.492 465.83ZM562.019 481.713C562.019 482.382 562.137 482.963 562.374 483.455C562.61 483.947 562.935 484.321 563.348 484.577C563.761 484.832 564.115 485.01 564.411 485.108C564.706 485.206 565.04 485.285 565.414 485.344H565.621L568.367 474.214C568.288 474.214 568.18 474.224 568.042 474.244C567.904 474.264 567.619 474.342 567.186 474.48C566.753 474.618 566.339 474.775 565.946 474.952C565.552 475.13 565.119 475.415 564.647 475.809C564.174 476.202 563.771 476.655 563.436 477.167C563.082 477.718 562.757 478.377 562.462 479.145C562.167 480.05 562.019 480.906 562.019 481.713ZM573.179 477.816C573.179 477.068 573.021 476.429 572.706 475.897C572.391 475.366 571.998 474.992 571.525 474.775C571.053 474.559 570.669 474.411 570.374 474.333C570.079 474.254 569.843 474.214 569.666 474.214H569.577L568.219 479.735L566.802 485.285C566.802 485.325 566.812 485.344 566.831 485.344C566.989 485.344 567.304 485.285 567.776 485.167C568.248 485.049 568.642 484.911 568.957 484.754C569.803 484.38 570.532 483.858 571.142 483.189C571.752 482.52 572.185 481.831 572.441 481.123C572.696 480.414 572.883 479.784 573.002 479.233C573.12 478.682 573.179 478.21 573.179 477.816Z" fill="black"/>
<path d="M578.788 478.761C578.788 477.403 578.886 476.114 579.083 474.893C579.28 473.673 579.506 472.62 579.762 471.735C580.018 470.849 580.382 469.983 580.854 469.137C581.327 468.29 581.701 467.631 581.976 467.159C582.252 466.686 582.665 466.175 583.216 465.624C583.767 465.072 584.092 464.738 584.19 464.62C584.289 464.502 584.535 464.295 584.928 464H585.312H585.43C585.706 464 585.844 464.088 585.844 464.266C585.844 464.325 585.676 464.531 585.342 464.886C585.007 465.24 584.604 465.761 584.131 466.45C583.659 467.139 583.177 467.985 582.685 468.989C582.193 469.993 581.779 471.351 581.445 473.063C581.11 474.775 580.943 476.675 580.943 478.761C580.943 480.847 581.11 482.736 581.445 484.429C581.779 486.122 582.183 487.489 582.655 488.533C583.128 489.576 583.61 490.422 584.102 491.071C584.594 491.721 585.007 492.242 585.342 492.636C585.676 493.03 585.844 493.236 585.844 493.256C585.844 493.433 585.696 493.522 585.401 493.522H585.312H584.928L584.102 492.813C582.252 491.14 580.904 489.054 580.057 486.555C579.211 484.055 578.788 481.457 578.788 478.761Z" fill="black"/>
<path d="M588.117 477.669C588.117 477.393 588.264 476.921 588.56 476.251C588.855 475.582 589.327 474.884 589.977 474.155C590.626 473.427 591.354 473.073 592.161 473.093C592.968 473.093 593.618 473.319 594.11 473.772C594.602 474.224 594.858 474.854 594.877 475.661C594.838 476.035 594.808 476.242 594.789 476.281C594.789 476.34 594.631 476.793 594.316 477.639C594.001 478.485 593.677 479.44 593.342 480.503C593.007 481.565 592.85 482.412 592.87 483.041C592.87 483.888 593.007 484.478 593.283 484.813C593.559 485.147 593.972 485.325 594.523 485.344C594.976 485.344 595.399 485.236 595.792 485.019C596.186 484.803 596.491 484.577 596.708 484.34C596.924 484.104 597.19 483.78 597.505 483.366C597.505 483.347 597.554 483.15 597.652 482.776C597.751 482.402 597.888 481.821 598.066 481.034C598.243 480.247 598.43 479.519 598.626 478.849C599.374 475.897 599.788 474.352 599.866 474.214C600.122 473.683 600.545 473.417 601.136 473.417C601.392 473.417 601.598 473.486 601.756 473.624C601.913 473.762 602.022 473.88 602.081 473.978C602.14 474.077 602.159 474.165 602.14 474.244C602.14 474.5 601.657 476.566 600.693 480.444C599.729 484.321 599.178 486.446 599.04 486.82C598.489 488.454 597.534 489.753 596.176 490.717C594.818 491.682 593.46 492.174 592.102 492.193C591.216 492.193 590.439 491.977 589.77 491.544C589.101 491.111 588.766 490.461 588.766 489.595C588.766 489.162 588.835 488.798 588.973 488.503C589.111 488.208 589.298 487.991 589.534 487.854C589.77 487.716 589.967 487.617 590.124 487.558C590.282 487.499 590.449 487.47 590.626 487.47C591.492 487.47 591.925 487.883 591.925 488.71C591.925 489.103 591.807 489.448 591.571 489.743C591.335 490.038 591.108 490.235 590.892 490.333C590.675 490.432 590.547 490.481 590.508 490.481L590.419 490.511C590.459 490.609 590.646 490.727 590.98 490.865C591.315 491.003 591.649 491.071 591.984 491.071H592.22C592.555 491.071 592.811 491.052 592.988 491.012C593.637 490.835 594.238 490.461 594.789 489.891C595.34 489.32 595.763 488.71 596.058 488.06C596.353 487.411 596.58 486.86 596.737 486.407C596.895 485.954 596.973 485.659 596.973 485.521L596.796 485.639C596.678 485.718 596.491 485.826 596.235 485.964C595.979 486.102 595.724 486.22 595.468 486.318C595.074 486.417 594.69 486.466 594.316 486.466C593.411 486.466 592.614 486.25 591.925 485.817C591.236 485.384 590.784 484.685 590.567 483.72C590.547 483.583 590.537 483.278 590.537 482.805C590.537 481.683 590.882 480.217 591.571 478.407C592.26 476.596 592.604 475.445 592.604 474.952C592.604 474.933 592.604 474.913 592.604 474.893C592.604 474.716 592.604 474.598 592.604 474.539C592.604 474.48 592.565 474.411 592.486 474.333C592.407 474.254 592.299 474.214 592.161 474.214H592.043C591.59 474.214 591.177 474.401 590.803 474.775C590.429 475.149 590.134 475.553 589.918 475.986C589.701 476.419 589.534 476.832 589.416 477.226C589.298 477.619 589.219 477.836 589.179 477.875C589.14 477.915 588.983 477.934 588.707 477.934H588.294C588.176 477.816 588.117 477.728 588.117 477.669Z" fill="black"/>
<path d="M603.734 464.029L603.852 464C603.95 464 604.049 464 604.147 464H604.501L605.328 464.708C607.178 466.381 608.526 468.468 609.372 470.967C610.219 473.467 610.642 476.064 610.642 478.761C610.642 480.099 610.544 481.388 610.347 482.628C610.15 483.868 609.924 484.921 609.668 485.787C609.412 486.653 609.048 487.519 608.575 488.385C608.103 489.251 607.729 489.91 607.454 490.363C607.178 490.816 606.775 491.317 606.243 491.869C605.712 492.42 605.397 492.744 605.298 492.843C605.2 492.941 604.974 493.128 604.619 493.404C604.56 493.463 604.521 493.502 604.501 493.522H604.147C603.99 493.522 603.881 493.522 603.822 493.522C603.763 493.522 603.714 493.492 603.675 493.433C603.635 493.374 603.606 493.286 603.586 493.167C603.606 493.148 603.714 493.02 603.911 492.784C606.962 489.615 608.487 484.941 608.487 478.761C608.487 472.581 606.962 467.907 603.911 464.738C603.714 464.502 603.606 464.374 603.586 464.354C603.586 464.197 603.635 464.088 603.734 464.029Z" fill="black"/>
<path d="M238.849 202.84C238.926 202.725 239.041 202.667 239.195 202.667H239.426H239.8C239.915 202.782 239.973 202.859 239.973 202.898C239.973 203.032 239.685 204.214 239.109 206.442C238.974 206.98 238.84 207.547 238.705 208.142C238.571 208.738 238.455 209.18 238.359 209.468L238.244 209.929C238.244 209.948 238.331 209.958 238.503 209.958C238.676 209.958 238.984 210.015 239.426 210.131C239.867 210.246 240.328 210.409 240.809 210.62C241.654 211.024 242.355 211.61 242.912 212.378C243.469 213.147 243.748 214.078 243.748 215.173C243.748 216.268 243.45 217.315 242.855 218.314C242.259 219.313 241.52 220.139 240.636 220.792C239.752 221.446 238.82 221.964 237.841 222.349C236.861 222.733 235.948 222.934 235.103 222.954H234.988L234.296 225.691C234.181 226.133 234.056 226.661 233.922 227.276C233.768 227.891 233.662 228.256 233.605 228.371C233.547 228.486 233.432 228.554 233.259 228.573H233.086C232.702 228.573 232.51 228.506 232.51 228.371C232.51 228.275 232.721 227.363 233.144 225.634L233.806 222.983C233.806 222.963 233.73 222.954 233.576 222.954C233.48 222.954 233.288 222.934 233 222.896C232.711 222.858 232.279 222.723 231.703 222.493C231.127 222.262 230.608 221.974 230.147 221.628C229.686 221.282 229.254 220.773 228.85 220.101C228.447 219.429 228.264 218.641 228.303 217.738C228.303 216.585 228.62 215.5 229.254 214.482C229.887 213.464 230.666 212.638 231.588 212.004C232.51 211.37 233.441 210.87 234.383 210.505C235.324 210.14 236.169 209.958 236.919 209.958C237.015 209.958 237.072 209.919 237.091 209.842L237.956 206.327C238.551 204.041 238.849 202.879 238.849 202.84ZM230.579 218.343C230.579 218.996 230.694 219.563 230.925 220.043C231.155 220.524 231.472 220.889 231.876 221.138C232.279 221.388 232.625 221.561 232.913 221.657C233.201 221.753 233.528 221.83 233.893 221.887H234.095L236.775 211.024C236.698 211.024 236.592 211.033 236.458 211.053C236.323 211.072 236.044 211.149 235.622 211.283C235.199 211.418 234.796 211.571 234.412 211.744C234.027 211.917 233.605 212.196 233.144 212.58C232.683 212.964 232.289 213.406 231.962 213.905C231.616 214.443 231.299 215.087 231.011 215.836C230.723 216.72 230.579 217.555 230.579 218.343ZM241.472 214.539C241.472 213.809 241.318 213.185 241.01 212.666C240.703 212.148 240.319 211.783 239.858 211.571C239.397 211.36 239.022 211.216 238.734 211.139C238.446 211.062 238.215 211.024 238.042 211.024H237.956L236.63 216.412L235.247 221.83C235.247 221.868 235.257 221.887 235.276 221.887C235.43 221.887 235.737 221.83 236.198 221.715C236.659 221.599 237.043 221.465 237.351 221.311C238.177 220.946 238.888 220.437 239.483 219.784C240.079 219.131 240.501 218.458 240.751 217.767C241.001 217.075 241.183 216.46 241.299 215.923C241.414 215.385 241.472 214.924 241.472 214.539Z" fill="black"/>
<path d="M246.947 215.462C246.947 214.136 247.043 212.878 247.235 211.687C247.427 210.496 247.648 209.468 247.898 208.603C248.147 207.739 248.503 206.894 248.964 206.067C249.425 205.241 249.79 204.598 250.059 204.137C250.328 203.676 250.731 203.176 251.269 202.638C251.807 202.1 252.124 201.774 252.22 201.659C252.316 201.543 252.556 201.342 252.94 201.053H253.315H253.43C253.699 201.053 253.834 201.14 253.834 201.313C253.834 201.37 253.67 201.572 253.344 201.918C253.017 202.264 252.623 202.773 252.162 203.445C251.701 204.118 251.231 204.944 250.75 205.923C250.27 206.903 249.867 208.229 249.54 209.9C249.213 211.571 249.05 213.425 249.05 215.462C249.05 217.498 249.213 219.342 249.54 220.994C249.867 222.646 250.26 223.981 250.721 225C251.183 226.018 251.653 226.844 252.133 227.478C252.614 228.112 253.017 228.621 253.344 229.005C253.67 229.389 253.834 229.591 253.834 229.61C253.834 229.783 253.69 229.87 253.401 229.87H253.315H252.94L252.133 229.178C250.328 227.545 249.012 225.509 248.186 223.069C247.36 220.629 246.947 218.093 246.947 215.462Z" fill="black"/>
<path d="M256.946 214.338C257.08 213.531 257.599 212.599 258.502 211.543C259.405 210.486 260.519 209.948 261.844 209.929C262.517 209.929 263.132 210.102 263.689 210.447C264.246 210.793 264.659 211.226 264.928 211.744C265.735 210.534 266.705 209.929 267.838 209.929C268.549 209.929 269.164 210.14 269.682 210.563C270.201 210.985 270.47 211.552 270.489 212.263C270.489 212.82 270.355 213.271 270.086 213.617C269.817 213.963 269.558 214.174 269.308 214.251C269.058 214.328 268.837 214.366 268.645 214.366C268.28 214.366 267.982 214.261 267.752 214.05C267.521 213.838 267.406 213.56 267.406 213.214C267.406 212.33 267.886 211.725 268.847 211.398C268.635 211.149 268.251 211.024 267.694 211.024C267.444 211.024 267.262 211.043 267.147 211.081C266.417 211.389 265.879 212.023 265.533 212.983C264.38 217.229 263.804 219.707 263.804 220.418C263.804 220.956 263.958 221.34 264.265 221.57C264.572 221.801 264.909 221.916 265.274 221.916C265.984 221.916 266.686 221.599 267.377 220.965C268.069 220.331 268.539 219.553 268.789 218.631C268.847 218.439 268.904 218.333 268.962 218.314C269.02 218.295 269.173 218.276 269.423 218.257H269.538C269.827 218.257 269.971 218.333 269.971 218.487C269.971 218.506 269.951 218.612 269.913 218.804C269.606 219.899 269.01 220.869 268.126 221.715C267.243 222.56 266.215 222.982 265.043 222.982C263.698 222.982 262.68 222.377 261.989 221.167C261.201 222.358 260.298 222.954 259.28 222.954H259.107C258.166 222.954 257.493 222.704 257.09 222.204C256.686 221.705 256.475 221.177 256.456 220.62C256.456 220.005 256.638 219.505 257.003 219.121C257.368 218.737 257.801 218.545 258.3 218.545C259.126 218.545 259.539 218.948 259.539 219.755C259.539 220.139 259.424 220.475 259.193 220.764C258.963 221.052 258.742 221.244 258.531 221.34C258.319 221.436 258.194 221.484 258.156 221.484L258.07 221.513C258.07 221.532 258.127 221.57 258.242 221.628C258.358 221.686 258.511 221.753 258.704 221.83C258.896 221.907 259.078 221.935 259.251 221.916C259.943 221.916 260.538 221.484 261.038 220.62C261.211 220.312 261.431 219.659 261.7 218.66C261.969 217.661 262.238 216.624 262.507 215.548C262.776 214.472 262.93 213.838 262.968 213.646C263.064 213.127 263.112 212.753 263.112 212.522C263.112 211.984 262.968 211.6 262.68 211.37C262.392 211.139 262.065 211.024 261.7 211.024C260.932 211.024 260.212 211.331 259.539 211.946C258.867 212.561 258.396 213.348 258.127 214.309C258.089 214.482 258.041 214.578 257.983 214.597C257.925 214.616 257.772 214.635 257.522 214.655H257.119C257.003 214.539 256.946 214.434 256.946 214.338Z" fill="black"/>
<path d="M273.659 201.082L273.774 201.053C273.87 201.053 273.966 201.053 274.062 201.053H274.408L275.215 201.745C277.021 203.378 278.337 205.414 279.163 207.854C279.989 210.294 280.402 212.83 280.402 215.462C280.402 216.768 280.306 218.026 280.114 219.236C279.922 220.447 279.701 221.474 279.451 222.32C279.201 223.165 278.846 224.01 278.385 224.856C277.924 225.701 277.559 226.344 277.29 226.786C277.021 227.228 276.627 227.718 276.108 228.256C275.59 228.794 275.282 229.111 275.186 229.207C275.09 229.303 274.869 229.485 274.523 229.754C274.466 229.812 274.427 229.85 274.408 229.87H274.062C273.909 229.87 273.803 229.87 273.745 229.87C273.688 229.87 273.64 229.841 273.601 229.783C273.563 229.725 273.534 229.639 273.515 229.524C273.534 229.505 273.64 229.38 273.832 229.149C276.81 226.056 278.298 221.494 278.298 215.462C278.298 209.429 276.81 204.867 273.832 201.774C273.64 201.543 273.534 201.418 273.515 201.399C273.515 201.246 273.563 201.14 273.659 201.082Z" fill="black"/>
<path d="M647.493 108.276C646.836 108.276 646.488 108.238 646.449 108.16C646.43 108.122 646.42 108.044 646.42 107.928C646.42 107.464 646.526 107.146 646.739 106.972C646.778 106.952 646.942 106.943 647.232 106.943C648.024 106.981 649.339 107.001 651.175 107.001C651.832 107.001 652.441 107.001 653.002 107.001C653.562 107.001 653.997 106.991 654.306 106.972C654.616 106.952 654.809 106.952 654.886 106.972C655.195 106.972 655.35 107.068 655.35 107.262C655.35 107.3 655.331 107.435 655.292 107.667C655.195 107.996 655.099 108.189 655.002 108.247H654.944C654.905 108.247 654.857 108.247 654.799 108.247C654.741 108.247 654.674 108.247 654.596 108.247C654.519 108.247 654.432 108.257 654.335 108.276C654.239 108.296 654.152 108.296 654.074 108.276C653.32 108.296 652.837 108.325 652.625 108.363C652.412 108.402 652.238 108.508 652.103 108.682C652.083 108.721 651.813 109.736 651.291 111.726C650.769 113.717 650.247 115.805 649.725 117.989C649.203 120.173 648.913 121.459 648.856 121.845C648.817 122.116 648.798 122.396 648.798 122.686C648.798 123.73 649.097 124.551 649.696 125.15C650.296 125.75 651.127 126.049 652.19 126.049C653.485 126.049 654.78 125.614 656.075 124.745C657.37 123.875 658.317 122.56 658.916 120.801L660.395 114.974C661.303 111.263 661.758 109.33 661.758 109.175C661.758 108.653 661.139 108.354 659.902 108.276C659.438 108.276 659.206 108.17 659.206 107.957C659.206 107.919 659.225 107.803 659.264 107.609C659.341 107.3 659.399 107.117 659.438 107.059C659.477 107.001 659.573 106.962 659.728 106.943C659.786 106.943 660.095 106.952 660.656 106.972C661.216 106.991 662.028 107.01 663.091 107.03C664.077 107.03 664.831 107.02 665.353 107.001C665.875 106.981 666.155 106.972 666.194 106.972C666.483 106.972 666.628 107.068 666.628 107.262C666.628 107.687 666.551 107.977 666.397 108.131C666.339 108.228 666.126 108.276 665.759 108.276C664.386 108.354 663.526 108.74 663.178 109.436C663.14 109.533 662.656 111.398 661.729 115.032C660.936 118.298 660.453 120.222 660.279 120.801C659.641 122.734 658.53 124.31 656.945 125.527C655.36 126.745 653.717 127.364 652.016 127.383C650.238 127.383 648.817 126.842 647.754 125.759C646.691 124.677 646.149 123.392 646.13 121.903V121.439C646.13 121.091 646.662 118.791 647.725 114.539C648.672 110.654 649.145 108.653 649.145 108.537C649.145 108.402 648.595 108.315 647.493 108.276Z" fill="black"/>
<path d="M669.354 119.497C669.354 118.163 669.451 116.897 669.644 115.699C669.837 114.5 670.059 113.466 670.311 112.596C670.562 111.726 670.92 110.876 671.383 110.045C671.847 109.214 672.215 108.566 672.485 108.102C672.756 107.638 673.162 107.136 673.703 106.595C674.244 106.053 674.563 105.725 674.66 105.609C674.756 105.493 674.998 105.29 675.385 105H675.761H675.877C676.148 105 676.283 105.087 676.283 105.261C676.283 105.319 676.119 105.522 675.79 105.87C675.462 106.218 675.066 106.73 674.602 107.406C674.138 108.083 673.664 108.914 673.181 109.9C672.698 110.886 672.292 112.219 671.963 113.901C671.635 115.583 671.47 117.448 671.47 119.497C671.47 121.546 671.635 123.401 671.963 125.063C672.292 126.726 672.688 128.069 673.152 129.094C673.616 130.118 674.089 130.949 674.573 131.587C675.056 132.225 675.462 132.737 675.79 133.124C676.119 133.51 676.283 133.713 676.283 133.732C676.283 133.906 676.138 133.993 675.848 133.993H675.761H675.385L674.573 133.298C672.756 131.655 671.432 129.606 670.601 127.151C669.769 124.696 669.354 122.145 669.354 119.497Z" fill="black"/>
<path d="M697.216 119.584C697.178 119.642 697.043 120.811 696.811 123.092C696.579 125.373 696.443 126.552 696.405 126.629V126.745H688.084C683.831 126.745 681.357 126.745 680.661 126.745C679.965 126.745 679.598 126.697 679.56 126.6V126.571C679.502 126.455 679.502 126.349 679.56 126.252L680.023 125.701C680.333 125.353 680.797 124.832 681.415 124.136C682.034 123.44 682.623 122.773 683.184 122.135L686.75 118.076L679.531 108.073L679.502 107.667C679.502 107.3 679.55 107.078 679.646 107.001C679.704 106.962 682.517 106.943 688.084 106.943H696.405V107.059C696.443 107.155 696.579 108.267 696.811 110.393C697.043 112.519 697.178 113.65 697.216 113.785V113.901H696.057V113.785C695.902 112.664 695.69 111.736 695.419 111.002C695.148 110.267 694.713 109.668 694.114 109.204C693.534 108.798 692.752 108.547 691.766 108.45C690.78 108.354 689.379 108.296 687.562 108.276H686.431H683.387L686.402 112.422C686.808 112.983 687.31 113.679 687.91 114.51C688.973 115.979 689.504 116.771 689.504 116.887C689.504 116.926 689.495 116.955 689.475 116.974L682.372 125.092C687.262 125.092 689.91 125.083 690.316 125.063C691.244 125.025 692.017 124.928 692.636 124.774C693.254 124.619 693.67 124.474 693.882 124.339C694.095 124.203 694.327 124.01 694.578 123.759C694.965 123.334 695.284 122.763 695.535 122.048C695.786 121.333 695.941 120.724 695.999 120.222L696.057 119.468H697.216V119.584Z" fill="black"/>
<path d="M700.58 105.029L700.696 105C700.792 105 700.889 105 700.986 105H701.334L702.145 105.696C703.962 107.339 705.286 109.388 706.118 111.842C706.949 114.297 707.364 116.849 707.364 119.497C707.364 120.811 707.268 122.077 707.074 123.295C706.881 124.513 706.659 125.547 706.407 126.397C706.156 127.248 705.799 128.098 705.335 128.949C704.871 129.799 704.504 130.447 704.233 130.891C703.962 131.336 703.566 131.829 703.044 132.37C702.522 132.911 702.213 133.23 702.116 133.327C702.02 133.423 701.798 133.607 701.45 133.877C701.392 133.935 701.353 133.974 701.334 133.993H700.986C700.831 133.993 700.725 133.993 700.667 133.993C700.609 133.993 700.56 133.964 700.522 133.906C700.483 133.848 700.454 133.761 700.435 133.645C700.454 133.626 700.56 133.501 700.754 133.269C703.75 130.157 705.248 125.566 705.248 119.497C705.248 113.427 703.75 108.837 700.754 105.725C700.56 105.493 700.454 105.367 700.435 105.348C700.435 105.193 700.483 105.087 700.58 105.029Z" fill="black"/>
<path d="M74.8617 335.351C74.8218 335.411 74.6823 336.616 74.4433 338.967C74.2042 341.318 74.0647 342.533 74.0249 342.613V342.732H65.4479C61.0648 342.732 58.5146 342.732 57.7974 342.732C57.0802 342.732 56.7016 342.683 56.6618 342.583V342.553C56.602 342.433 56.602 342.324 56.6618 342.224L57.1399 341.656C57.4587 341.298 57.9369 340.76 58.5744 340.043C59.2119 339.325 59.8196 338.638 60.3974 337.981L64.0732 333.797L56.6319 323.486L56.602 323.068C56.602 322.69 56.6518 322.46 56.7514 322.381C56.8112 322.341 59.71 322.321 65.4479 322.321H74.0249V322.441C74.0647 322.54 74.2042 323.686 74.4433 325.877C74.6823 328.069 74.8218 329.234 74.8617 329.374V329.493H73.6663V329.374C73.5069 328.218 73.2877 327.262 73.0088 326.505C72.7299 325.748 72.2816 325.13 71.664 324.652C71.0663 324.234 70.2594 323.975 69.2433 323.875C68.2272 323.775 66.7828 323.716 64.91 323.696H63.7445H60.6066L63.7146 327.969C64.133 328.547 64.651 329.264 65.2686 330.121C66.3644 331.635 66.9123 332.452 66.9123 332.571C66.9123 332.611 66.9023 332.641 66.8824 332.661L59.5606 341.029C64.6012 341.029 67.3307 341.019 67.7491 340.999C68.7054 340.959 69.5023 340.86 70.1398 340.7C70.7774 340.541 71.2057 340.391 71.4249 340.252C71.644 340.112 71.8831 339.913 72.1421 339.654C72.5406 339.216 72.8693 338.628 73.1283 337.891C73.3873 337.154 73.5467 336.526 73.6065 336.008L73.6663 335.231H74.8617V335.351Z" fill="black"/>
<path d="M1543.03 465.83C1543.11 465.712 1543.23 465.653 1543.39 465.653H1543.62H1544.01C1544.13 465.771 1544.18 465.85 1544.18 465.889C1544.18 466.027 1543.89 467.237 1543.3 469.52C1543.16 470.072 1543.02 470.652 1542.89 471.262C1542.75 471.872 1542.63 472.325 1542.53 472.62L1542.41 473.093C1542.41 473.112 1542.5 473.122 1542.68 473.122C1542.86 473.122 1543.17 473.181 1543.62 473.299C1544.08 473.417 1544.55 473.585 1545.04 473.801C1545.91 474.214 1546.63 474.815 1547.2 475.602C1547.77 476.389 1548.05 477.344 1548.05 478.466C1548.05 479.587 1547.75 480.66 1547.14 481.683C1546.53 482.707 1545.77 483.553 1544.86 484.222C1543.96 484.892 1543 485.423 1542 485.817C1541 486.21 1540.06 486.417 1539.2 486.437H1539.08L1538.37 489.241C1538.25 489.694 1538.12 490.235 1537.99 490.865C1537.83 491.495 1537.72 491.869 1537.66 491.987C1537.6 492.105 1537.48 492.174 1537.31 492.193H1537.13C1536.74 492.193 1536.54 492.124 1536.54 491.987C1536.54 491.888 1536.76 490.953 1537.19 489.182L1537.87 486.466C1537.87 486.446 1537.79 486.437 1537.63 486.437C1537.53 486.437 1537.34 486.417 1537.04 486.377C1536.75 486.338 1536.3 486.2 1535.71 485.964C1535.12 485.728 1534.59 485.433 1534.12 485.078C1533.65 484.724 1533.2 484.203 1532.79 483.514C1532.38 482.825 1532.19 482.018 1532.23 481.093C1532.23 479.912 1532.55 478.8 1533.2 477.757C1533.85 476.714 1534.65 475.868 1535.59 475.218C1536.54 474.569 1537.49 474.057 1538.46 473.683C1539.42 473.309 1540.29 473.122 1541.06 473.122C1541.15 473.122 1541.21 473.083 1541.23 473.004L1542.12 469.402C1542.73 467.06 1543.03 465.87 1543.03 465.83ZM1534.56 481.713C1534.56 482.382 1534.68 482.963 1534.91 483.455C1535.15 483.947 1535.48 484.321 1535.89 484.577C1536.3 484.832 1536.66 485.01 1536.95 485.108C1537.25 485.206 1537.58 485.285 1537.96 485.344H1538.16L1540.91 474.214C1540.83 474.214 1540.72 474.224 1540.58 474.244C1540.45 474.264 1540.16 474.342 1539.73 474.48C1539.29 474.618 1538.88 474.775 1538.49 474.952C1538.09 475.13 1537.66 475.415 1537.19 475.809C1536.72 476.202 1536.31 476.655 1535.98 477.167C1535.62 477.718 1535.3 478.377 1535 479.145C1534.71 480.05 1534.56 480.906 1534.56 481.713ZM1545.72 477.816C1545.72 477.068 1545.56 476.429 1545.25 475.897C1544.93 475.366 1544.54 474.992 1544.07 474.775C1543.59 474.559 1543.21 474.411 1542.92 474.333C1542.62 474.254 1542.38 474.214 1542.21 474.214H1542.12L1540.76 479.735L1539.34 485.285C1539.34 485.325 1539.35 485.344 1539.37 485.344C1539.53 485.344 1539.85 485.285 1540.32 485.167C1540.79 485.049 1541.18 484.911 1541.5 484.754C1542.34 484.38 1543.07 483.858 1543.68 483.189C1544.29 482.52 1544.73 481.831 1544.98 481.123C1545.24 480.414 1545.42 479.784 1545.54 479.233C1545.66 478.682 1545.72 478.21 1545.72 477.816Z" fill="black"/>
<path d="M1551.33 478.761C1551.33 477.403 1551.43 476.114 1551.62 474.893C1551.82 473.673 1552.05 472.62 1552.3 471.735C1552.56 470.849 1552.92 469.983 1553.4 469.137C1553.87 468.29 1554.24 467.631 1554.52 467.159C1554.79 466.686 1555.21 466.175 1555.76 465.624C1556.31 465.072 1556.63 464.738 1556.73 464.62C1556.83 464.502 1557.08 464.295 1557.47 464H1557.85H1557.97C1558.25 464 1558.38 464.088 1558.38 464.266C1558.38 464.325 1558.22 464.531 1557.88 464.886C1557.55 465.24 1557.14 465.761 1556.67 466.45C1556.2 467.139 1555.72 467.985 1555.23 468.989C1554.73 469.993 1554.32 471.351 1553.99 473.063C1553.65 474.775 1553.48 476.675 1553.48 478.761C1553.48 480.847 1553.65 482.736 1553.99 484.429C1554.32 486.122 1554.72 487.489 1555.2 488.533C1555.67 489.576 1556.15 490.422 1556.64 491.071C1557.13 491.721 1557.55 492.242 1557.88 492.636C1558.22 493.03 1558.38 493.236 1558.38 493.256C1558.38 493.433 1558.24 493.522 1557.94 493.522H1557.85H1557.47L1556.64 492.813C1554.79 491.14 1553.44 489.054 1552.6 486.555C1551.75 484.055 1551.33 481.457 1551.33 478.761Z" fill="black"/>
<path d="M1560.66 477.669C1560.66 477.393 1560.81 476.921 1561.1 476.251C1561.4 475.582 1561.87 474.884 1562.52 474.155C1563.17 473.427 1563.9 473.073 1564.7 473.093C1565.51 473.093 1566.16 473.319 1566.65 473.772C1567.14 474.224 1567.4 474.854 1567.42 475.661C1567.38 476.035 1567.35 476.242 1567.33 476.281C1567.33 476.34 1567.17 476.793 1566.86 477.639C1566.54 478.485 1566.22 479.44 1565.88 480.503C1565.55 481.565 1565.39 482.412 1565.41 483.041C1565.41 483.888 1565.55 484.478 1565.82 484.813C1566.1 485.147 1566.51 485.325 1567.06 485.344C1567.52 485.344 1567.94 485.236 1568.33 485.019C1568.73 484.803 1569.03 484.577 1569.25 484.34C1569.47 484.104 1569.73 483.78 1570.05 483.366C1570.05 483.347 1570.09 483.15 1570.19 482.776C1570.29 482.402 1570.43 481.821 1570.61 481.034C1570.78 480.247 1570.97 479.519 1571.17 478.849C1571.92 475.897 1572.33 474.352 1572.41 474.214C1572.66 473.683 1573.09 473.417 1573.68 473.417C1573.93 473.417 1574.14 473.486 1574.3 473.624C1574.45 473.762 1574.56 473.88 1574.62 473.978C1574.68 474.077 1574.7 474.165 1574.68 474.244C1574.68 474.5 1574.2 476.566 1573.23 480.444C1572.27 484.321 1571.72 486.446 1571.58 486.82C1571.03 488.454 1570.08 489.753 1568.72 490.717C1567.36 491.682 1566 492.174 1564.64 492.193C1563.76 492.193 1562.98 491.977 1562.31 491.544C1561.64 491.111 1561.31 490.461 1561.31 489.595C1561.31 489.162 1561.38 488.798 1561.51 488.503C1561.65 488.208 1561.84 487.991 1562.07 487.854C1562.31 487.716 1562.51 487.617 1562.67 487.558C1562.82 487.499 1562.99 487.47 1563.17 487.47C1564.03 487.47 1564.47 487.883 1564.47 488.71C1564.47 489.103 1564.35 489.448 1564.11 489.743C1563.88 490.038 1563.65 490.235 1563.43 490.333C1563.22 490.432 1563.09 490.481 1563.05 490.481L1562.96 490.511C1563 490.609 1563.19 490.727 1563.52 490.865C1563.86 491.003 1564.19 491.071 1564.53 491.071H1564.76C1565.1 491.071 1565.35 491.052 1565.53 491.012C1566.18 490.835 1566.78 490.461 1567.33 489.891C1567.88 489.32 1568.3 488.71 1568.6 488.06C1568.89 487.411 1569.12 486.86 1569.28 486.407C1569.44 485.954 1569.51 485.659 1569.51 485.521L1569.34 485.639C1569.22 485.718 1569.03 485.826 1568.78 485.964C1568.52 486.102 1568.26 486.22 1568.01 486.318C1567.62 486.417 1567.23 486.466 1566.86 486.466C1565.95 486.466 1565.16 486.25 1564.47 485.817C1563.78 485.384 1563.32 484.685 1563.11 483.72C1563.09 483.583 1563.08 483.278 1563.08 482.805C1563.08 481.683 1563.42 480.217 1564.11 478.407C1564.8 476.596 1565.15 475.445 1565.15 474.952C1565.15 474.933 1565.15 474.913 1565.15 474.893C1565.15 474.716 1565.15 474.598 1565.15 474.539C1565.15 474.48 1565.11 474.411 1565.03 474.333C1564.95 474.254 1564.84 474.214 1564.7 474.214H1564.58C1564.13 474.214 1563.72 474.401 1563.34 474.775C1562.97 475.149 1562.68 475.553 1562.46 475.986C1562.24 476.419 1562.07 476.832 1561.96 477.226C1561.84 477.619 1561.76 477.836 1561.72 477.875C1561.68 477.915 1561.52 477.934 1561.25 477.934H1560.83C1560.72 477.816 1560.66 477.728 1560.66 477.669Z" fill="black"/>
<path d="M1576.27 464.029L1576.39 464C1576.49 464 1576.59 464 1576.69 464H1577.04L1577.87 464.708C1579.72 466.381 1581.07 468.468 1581.91 470.967C1582.76 473.467 1583.18 476.064 1583.18 478.761C1583.18 480.099 1583.08 481.388 1582.89 482.628C1582.69 483.868 1582.46 484.921 1582.21 485.787C1581.95 486.653 1581.59 487.519 1581.12 488.385C1580.64 489.251 1580.27 489.91 1579.99 490.363C1579.72 490.816 1579.32 491.317 1578.78 491.869C1578.25 492.42 1577.94 492.744 1577.84 492.843C1577.74 492.941 1577.51 493.128 1577.16 493.404C1577.1 493.463 1577.06 493.502 1577.04 493.522H1576.69C1576.53 493.522 1576.42 493.522 1576.36 493.522C1576.3 493.522 1576.26 493.492 1576.22 493.433C1576.18 493.374 1576.15 493.286 1576.13 493.167C1576.15 493.148 1576.26 493.02 1576.45 492.784C1579.5 489.615 1581.03 484.941 1581.03 478.761C1581.03 472.581 1579.5 467.907 1576.45 464.738C1576.26 464.502 1576.15 464.374 1576.13 464.354C1576.13 464.197 1576.18 464.088 1576.27 464.029Z" fill="black"/>
<circle cx="1264.47" cy="217.863" r="3.602" fill="black"/>
<circle cx="1520.22" cy="480.809" r="3.602" fill="black"/>
<path d="M1544.23 269.492H1284.29C1124.6 269.492 1107.19 487.413 1107.19 487.413H1367.13C1367.13 487.413 1380.7 426.612 1412.43 369.241C1440.78 317.998 1483.62 269.492 1544.23 269.492Z" fill="#D9D9D9" fill-opacity="0.3"/>
<path d="M1544.23 269.492C1442.72 269.492 1385.8 269.492 1284.29 269.492C1124.6 269.492 1107.19 487.413 1107.19 487.413H1367.13C1367.13 487.413 1380.7 426.612 1412.43 369.241" stroke="black"/>
<path d="M1544.23 269.492C1483.62 269.492 1440.78 317.998 1412.43 369.241" stroke="black" stroke-dasharray="2 2"/>
<path d="M1811.55 534.839C1811.55 534.839 1703.69 548.701 1596.03 534.839C1456.15 516.829 1401.35 269.492 1284.29 269.492H1544.23C1630.68 269.492 1811.55 534.839 1811.55 534.839Z" fill="#D9D9D9" fill-opacity="0.3" stroke="black"/>
<path d="M1211.39 202.84C1211.47 202.725 1211.58 202.667 1211.74 202.667H1211.97H1212.34C1212.46 202.782 1212.51 202.859 1212.51 202.898C1212.51 203.032 1212.23 204.214 1211.65 206.442C1211.52 206.98 1211.38 207.547 1211.25 208.142C1211.11 208.738 1211 209.18 1210.9 209.468L1210.79 209.929C1210.79 209.948 1210.87 209.958 1211.04 209.958C1211.22 209.958 1211.53 210.015 1211.97 210.131C1212.41 210.246 1212.87 210.409 1213.35 210.62C1214.2 211.024 1214.9 211.61 1215.45 212.378C1216.01 213.147 1216.29 214.078 1216.29 215.173C1216.29 216.268 1215.99 217.315 1215.4 218.314C1214.8 219.313 1214.06 220.139 1213.18 220.792C1212.29 221.446 1211.36 221.964 1210.38 222.349C1209.4 222.733 1208.49 222.934 1207.64 222.954H1207.53L1206.84 225.691C1206.72 226.133 1206.6 226.661 1206.46 227.276C1206.31 227.891 1206.2 228.256 1206.15 228.371C1206.09 228.486 1205.97 228.554 1205.8 228.573H1205.63C1205.24 228.573 1205.05 228.506 1205.05 228.371C1205.05 228.275 1205.26 227.363 1205.69 225.634L1206.35 222.983C1206.35 222.963 1206.27 222.954 1206.12 222.954C1206.02 222.954 1205.83 222.934 1205.54 222.896C1205.25 222.858 1204.82 222.723 1204.24 222.493C1203.67 222.262 1203.15 221.974 1202.69 221.628C1202.23 221.282 1201.79 220.773 1201.39 220.101C1200.99 219.429 1200.81 218.641 1200.84 217.738C1200.84 216.585 1201.16 215.5 1201.79 214.482C1202.43 213.464 1203.21 212.638 1204.13 212.004C1205.05 211.37 1205.98 210.87 1206.92 210.505C1207.87 210.14 1208.71 209.958 1209.46 209.958C1209.56 209.958 1209.61 209.919 1209.63 209.842L1210.5 206.327C1211.09 204.041 1211.39 202.879 1211.39 202.84ZM1203.12 218.343C1203.12 218.996 1203.24 219.563 1203.47 220.043C1203.7 220.524 1204.01 220.889 1204.42 221.138C1204.82 221.388 1205.17 221.561 1205.45 221.657C1205.74 221.753 1206.07 221.83 1206.43 221.888H1206.64L1209.32 211.024C1209.24 211.024 1209.13 211.033 1209 211.053C1208.86 211.072 1208.59 211.149 1208.16 211.283C1207.74 211.418 1207.34 211.571 1206.95 211.744C1206.57 211.917 1206.15 212.196 1205.69 212.58C1205.22 212.964 1204.83 213.406 1204.5 213.905C1204.16 214.443 1203.84 215.087 1203.55 215.836C1203.26 216.72 1203.12 217.555 1203.12 218.343ZM1214.01 214.539C1214.01 213.809 1213.86 213.185 1213.55 212.666C1213.24 212.148 1212.86 211.783 1212.4 211.571C1211.94 211.36 1211.56 211.216 1211.28 211.139C1210.99 211.062 1210.76 211.024 1210.58 211.024H1210.5L1209.17 216.412L1207.79 221.83C1207.79 221.868 1207.8 221.888 1207.82 221.888C1207.97 221.888 1208.28 221.83 1208.74 221.715C1209.2 221.599 1209.58 221.465 1209.89 221.311C1210.72 220.946 1211.43 220.437 1212.02 219.784C1212.62 219.131 1213.04 218.458 1213.29 217.767C1213.54 217.075 1213.72 216.46 1213.84 215.923C1213.96 215.385 1214.01 214.924 1214.01 214.539Z" fill="black"/>
<path d="M1219.49 215.462C1219.49 214.136 1219.58 212.878 1219.78 211.687C1219.97 210.496 1220.19 209.468 1220.44 208.603C1220.69 207.739 1221.04 206.894 1221.5 206.067C1221.97 205.241 1222.33 204.598 1222.6 204.137C1222.87 203.676 1223.27 203.176 1223.81 202.638C1224.35 202.1 1224.67 201.774 1224.76 201.659C1224.86 201.543 1225.1 201.342 1225.48 201.054H1225.86H1225.97C1226.24 201.054 1226.37 201.14 1226.37 201.313C1226.37 201.37 1226.21 201.572 1225.89 201.918C1225.56 202.264 1225.16 202.773 1224.7 203.445C1224.24 204.118 1223.77 204.944 1223.29 205.923C1222.81 206.903 1222.41 208.229 1222.08 209.9C1221.75 211.571 1221.59 213.425 1221.59 215.462C1221.59 217.498 1221.75 219.342 1222.08 220.994C1222.41 222.646 1222.8 223.981 1223.26 225C1223.72 226.018 1224.19 226.844 1224.67 227.478C1225.16 228.112 1225.56 228.621 1225.89 229.005C1226.21 229.389 1226.37 229.591 1226.37 229.61C1226.37 229.783 1226.23 229.87 1225.94 229.87H1225.86H1225.48L1224.67 229.178C1222.87 227.545 1221.55 225.509 1220.73 223.069C1219.9 220.629 1219.49 218.093 1219.49 215.462Z" fill="black"/>
<path d="M1229.49 214.338C1229.62 213.531 1230.14 212.599 1231.04 211.543C1231.95 210.486 1233.06 209.948 1234.39 209.929C1235.06 209.929 1235.67 210.102 1236.23 210.448C1236.79 210.793 1237.2 211.226 1237.47 211.744C1238.28 210.534 1239.25 209.929 1240.38 209.929C1241.09 209.929 1241.71 210.14 1242.22 210.563C1242.74 210.985 1243.01 211.552 1243.03 212.263C1243.03 212.82 1242.9 213.271 1242.63 213.617C1242.36 213.963 1242.1 214.174 1241.85 214.251C1241.6 214.328 1241.38 214.366 1241.19 214.366C1240.82 214.366 1240.52 214.261 1240.29 214.05C1240.06 213.838 1239.95 213.56 1239.95 213.214C1239.95 212.33 1240.43 211.725 1241.39 211.398C1241.18 211.149 1240.79 211.024 1240.24 211.024C1239.99 211.024 1239.8 211.043 1239.69 211.081C1238.96 211.389 1238.42 212.023 1238.07 212.983C1236.92 217.229 1236.35 219.707 1236.35 220.418C1236.35 220.956 1236.5 221.34 1236.81 221.571C1237.11 221.801 1237.45 221.916 1237.81 221.916C1238.53 221.916 1239.23 221.599 1239.92 220.965C1240.61 220.331 1241.08 219.553 1241.33 218.631C1241.39 218.439 1241.45 218.333 1241.5 218.314C1241.56 218.295 1241.71 218.276 1241.96 218.257H1242.08C1242.37 218.257 1242.51 218.333 1242.51 218.487C1242.51 218.506 1242.49 218.612 1242.45 218.804C1242.15 219.899 1241.55 220.869 1240.67 221.715C1239.78 222.56 1238.76 222.982 1237.58 222.982C1236.24 222.982 1235.22 222.377 1234.53 221.167C1233.74 222.358 1232.84 222.954 1231.82 222.954H1231.65C1230.71 222.954 1230.03 222.704 1229.63 222.204C1229.23 221.705 1229.02 221.177 1229 220.62C1229 220.005 1229.18 219.505 1229.54 219.121C1229.91 218.737 1230.34 218.545 1230.84 218.545C1231.67 218.545 1232.08 218.948 1232.08 219.755C1232.08 220.139 1231.97 220.475 1231.73 220.764C1231.5 221.052 1231.28 221.244 1231.07 221.34C1230.86 221.436 1230.74 221.484 1230.7 221.484L1230.61 221.513C1230.61 221.532 1230.67 221.571 1230.78 221.628C1230.9 221.686 1231.05 221.753 1231.24 221.83C1231.44 221.907 1231.62 221.936 1231.79 221.916C1232.48 221.916 1233.08 221.484 1233.58 220.62C1233.75 220.312 1233.97 219.659 1234.24 218.66C1234.51 217.661 1234.78 216.624 1235.05 215.548C1235.32 214.472 1235.47 213.838 1235.51 213.646C1235.61 213.127 1235.65 212.753 1235.65 212.522C1235.65 211.984 1235.51 211.6 1235.22 211.37C1234.93 211.139 1234.61 211.024 1234.24 211.024C1233.47 211.024 1232.75 211.331 1232.08 211.946C1231.41 212.561 1230.94 213.348 1230.67 214.309C1230.63 214.482 1230.58 214.578 1230.52 214.597C1230.47 214.616 1230.31 214.635 1230.06 214.655H1229.66C1229.54 214.539 1229.49 214.434 1229.49 214.338Z" fill="black"/>
<path d="M1246.2 201.082L1246.32 201.054C1246.41 201.054 1246.51 201.054 1246.6 201.054H1246.95L1247.76 201.745C1249.56 203.378 1250.88 205.414 1251.7 207.854C1252.53 210.294 1252.94 212.83 1252.94 215.462C1252.94 216.768 1252.85 218.026 1252.66 219.236C1252.46 220.447 1252.24 221.474 1251.99 222.32C1251.74 223.165 1251.39 224.01 1250.93 224.856C1250.47 225.701 1250.1 226.344 1249.83 226.786C1249.56 227.228 1249.17 227.718 1248.65 228.256C1248.13 228.794 1247.82 229.111 1247.73 229.207C1247.63 229.303 1247.41 229.485 1247.06 229.754C1247.01 229.812 1246.97 229.85 1246.95 229.87H1246.6C1246.45 229.87 1246.34 229.87 1246.29 229.87C1246.23 229.87 1246.18 229.841 1246.14 229.783C1246.1 229.725 1246.08 229.639 1246.06 229.524C1246.08 229.505 1246.18 229.38 1246.37 229.149C1249.35 226.056 1250.84 221.494 1250.84 215.462C1250.84 209.429 1249.35 204.867 1246.37 201.774C1246.18 201.543 1246.08 201.419 1246.06 201.399C1246.06 201.246 1246.1 201.14 1246.2 201.082Z" fill="black"/>
<path d="M1478.34 234.801C1477.69 234.801 1477.35 234.763 1477.31 234.686C1477.29 234.648 1477.28 234.571 1477.28 234.457C1477.28 233.998 1477.38 233.682 1477.6 233.51C1477.63 233.491 1477.8 233.481 1478.08 233.481C1478.87 233.52 1480.17 233.539 1481.98 233.539C1482.63 233.539 1483.24 233.539 1483.79 233.539C1484.35 233.539 1484.78 233.529 1485.08 233.51C1485.39 233.491 1485.58 233.491 1485.66 233.51C1485.96 233.51 1486.11 233.606 1486.11 233.797C1486.11 233.835 1486.1 233.969 1486.06 234.199C1485.96 234.524 1485.87 234.715 1485.77 234.772H1485.71C1485.67 234.772 1485.63 234.772 1485.57 234.772C1485.51 234.772 1485.44 234.772 1485.37 234.772C1485.29 234.772 1485.21 234.782 1485.11 234.801C1485.01 234.82 1484.93 234.82 1484.85 234.801C1484.11 234.82 1483.63 234.849 1483.42 234.887C1483.21 234.925 1483.04 235.03 1482.9 235.202C1482.88 235.241 1482.61 236.245 1482.1 238.214C1481.58 240.184 1481.07 242.249 1480.55 244.41C1480.03 246.571 1479.75 247.843 1479.69 248.225C1479.65 248.493 1479.63 248.77 1479.63 249.057C1479.63 250.09 1479.93 250.902 1480.52 251.495C1481.11 252.088 1481.94 252.384 1482.99 252.384C1484.27 252.384 1485.55 251.954 1486.83 251.093C1488.11 250.233 1489.05 248.933 1489.64 247.192L1491.11 241.427C1492 237.755 1492.45 235.843 1492.45 235.69C1492.45 235.174 1491.84 234.877 1490.62 234.801C1490.16 234.801 1489.93 234.696 1489.93 234.485C1489.93 234.447 1489.95 234.332 1489.99 234.141C1490.06 233.835 1490.12 233.654 1490.16 233.596C1490.2 233.539 1490.29 233.501 1490.45 233.481C1490.5 233.481 1490.81 233.491 1491.36 233.51C1491.92 233.529 1492.72 233.548 1493.77 233.567C1494.75 233.567 1495.49 233.558 1496.01 233.539C1496.53 233.52 1496.8 233.51 1496.84 233.51C1497.13 233.51 1497.27 233.606 1497.27 233.797C1497.27 234.218 1497.2 234.505 1497.04 234.657C1496.99 234.753 1496.78 234.801 1496.41 234.801C1495.05 234.877 1494.2 235.26 1493.86 235.948C1493.82 236.044 1493.34 237.889 1492.42 241.484C1491.64 244.716 1491.16 246.619 1490.99 247.192C1490.36 249.105 1489.26 250.663 1487.69 251.868C1486.12 253.073 1484.5 253.685 1482.82 253.704C1481.06 253.704 1479.65 253.168 1478.6 252.097C1477.55 251.027 1477.01 249.755 1476.99 248.282V247.823C1476.99 247.479 1477.52 245.204 1478.57 240.997C1479.51 237.153 1479.98 235.174 1479.98 235.059C1479.98 234.925 1479.43 234.839 1478.34 234.801Z" fill="black"/>
<path d="M1499.97 245.902C1499.97 244.582 1500.06 243.33 1500.26 242.144C1500.45 240.958 1500.67 239.935 1500.92 239.075C1501.16 238.214 1501.52 237.373 1501.98 236.551C1502.44 235.728 1502.8 235.088 1503.07 234.629C1503.33 234.17 1503.74 233.673 1504.27 233.137C1504.81 232.602 1505.12 232.277 1505.22 232.162C1505.31 232.047 1505.55 231.846 1505.93 231.56H1506.31H1506.42C1506.69 231.56 1506.82 231.646 1506.82 231.818C1506.82 231.875 1506.66 232.076 1506.34 232.42C1506.01 232.764 1505.62 233.271 1505.16 233.94C1504.7 234.61 1504.23 235.432 1503.75 236.407C1503.28 237.382 1502.88 238.702 1502.55 240.366C1502.23 242.029 1502.06 243.875 1502.06 245.902C1502.06 247.929 1502.23 249.764 1502.55 251.409C1502.88 253.054 1503.27 254.383 1503.73 255.396C1504.19 256.41 1504.65 257.232 1505.13 257.863C1505.61 258.494 1506.01 259.001 1506.34 259.383C1506.66 259.766 1506.82 259.966 1506.82 259.986C1506.82 260.158 1506.68 260.244 1506.39 260.244H1506.31H1505.93L1505.13 259.555C1503.33 257.93 1502.02 255.903 1501.2 253.474C1500.38 251.046 1499.97 248.521 1499.97 245.902Z" fill="black"/>
<path d="M1527.53 245.988C1527.5 246.045 1527.36 247.202 1527.13 249.458C1526.9 251.715 1526.77 252.881 1526.73 252.958V253.073H1518.5C1514.29 253.073 1511.84 253.073 1511.16 253.073C1510.47 253.073 1510.1 253.025 1510.07 252.929V252.901C1510.01 252.786 1510.01 252.681 1510.07 252.585L1510.52 252.04C1510.83 251.696 1511.29 251.18 1511.9 250.491C1512.51 249.803 1513.1 249.143 1513.65 248.512L1517.18 244.496L1510.04 234.6L1510.01 234.199C1510.01 233.835 1510.06 233.615 1510.15 233.539C1510.21 233.501 1512.99 233.481 1518.5 233.481H1526.73V233.596C1526.77 233.692 1526.9 234.791 1527.13 236.895C1527.36 238.998 1527.5 240.117 1527.53 240.251V240.366H1526.39V240.251C1526.23 239.142 1526.02 238.224 1525.76 237.497C1525.49 236.771 1525.06 236.178 1524.46 235.719C1523.89 235.317 1523.12 235.069 1522.14 234.973C1521.17 234.877 1519.78 234.82 1517.98 234.801H1516.86H1513.85L1516.83 238.903C1517.24 239.457 1517.73 240.146 1518.33 240.968C1519.38 242.421 1519.9 243.205 1519.9 243.32C1519.9 243.358 1519.89 243.387 1519.88 243.406L1512.85 251.438C1517.69 251.438 1520.31 251.428 1520.71 251.409C1521.63 251.371 1522.39 251.275 1523 251.122C1523.61 250.969 1524.03 250.826 1524.24 250.692C1524.45 250.558 1524.68 250.367 1524.92 250.118C1525.31 249.698 1525.62 249.133 1525.87 248.426C1526.12 247.718 1526.27 247.116 1526.33 246.619L1526.39 245.873H1527.53V245.988Z" fill="black"/>
<path d="M1530.74 240.354C1530.66 240.354 1530.48 240.314 1530.19 240.232C1529.91 240.151 1529.76 240.07 1529.75 239.989C1529.75 239.894 1530.12 238.326 1530.86 235.284C1531.61 232.242 1532.02 230.654 1532.1 230.518C1532.3 230.086 1532.66 229.87 1533.16 229.87C1533.43 229.87 1533.71 229.971 1534.01 230.174C1534.3 230.377 1534.45 230.674 1534.45 231.066C1534.45 231.134 1534.44 231.235 1534.41 231.37C1534.4 231.465 1533.81 232.972 1532.65 235.893C1531.49 238.813 1530.88 240.287 1530.84 240.314C1530.8 240.341 1530.77 240.354 1530.74 240.354Z" fill="black"/>
<path d="M1537.87 231.588L1537.99 231.56C1538.09 231.56 1538.18 231.56 1538.28 231.56H1538.62L1539.42 232.248C1541.22 233.873 1542.53 235.9 1543.35 238.329C1544.18 240.758 1544.59 243.282 1544.59 245.902C1544.59 247.202 1544.49 248.455 1544.3 249.659C1544.11 250.864 1543.89 251.887 1543.64 252.728C1543.39 253.57 1543.04 254.411 1542.58 255.253C1542.12 256.094 1541.76 256.735 1541.49 257.174C1541.22 257.614 1540.83 258.102 1540.31 258.637C1539.8 259.173 1539.49 259.488 1539.4 259.584C1539.3 259.68 1539.08 259.861 1538.74 260.129C1538.68 260.186 1538.64 260.225 1538.62 260.244H1538.28C1538.12 260.244 1538.02 260.244 1537.96 260.244C1537.9 260.244 1537.86 260.215 1537.82 260.158C1537.78 260.1 1537.75 260.014 1537.73 259.899C1537.75 259.88 1537.86 259.756 1538.05 259.527C1541.01 256.448 1542.49 251.906 1542.49 245.902C1542.49 239.897 1541.01 235.355 1538.05 232.277C1537.86 232.047 1537.75 231.923 1537.73 231.904C1537.73 231.751 1537.78 231.646 1537.87 231.588Z" fill="black"/>
<path d="M1130.42 508.663C1130.38 508.719 1130.25 509.857 1130.03 512.075C1129.8 514.294 1129.67 515.441 1129.63 515.516V515.629H1121.54C1117.4 515.629 1114.99 515.629 1114.32 515.629C1113.64 515.629 1113.28 515.582 1113.25 515.488V515.459C1113.19 515.347 1113.19 515.243 1113.25 515.149L1113.7 514.613C1114 514.275 1114.45 513.767 1115.05 513.09C1115.65 512.414 1116.23 511.765 1116.77 511.145L1120.24 507.196L1113.22 497.467L1113.19 497.072C1113.19 496.715 1113.24 496.499 1113.33 496.423C1113.39 496.386 1116.12 496.367 1121.54 496.367H1129.63V496.48C1129.67 496.574 1129.8 497.655 1130.03 499.723C1130.25 501.791 1130.38 502.891 1130.42 503.023V503.135H1129.29V503.023C1129.14 501.932 1128.94 501.03 1128.67 500.315C1128.41 499.601 1127.99 499.018 1127.4 498.567C1126.84 498.172 1126.08 497.928 1125.12 497.834C1124.16 497.74 1122.8 497.683 1121.03 497.664H1119.93H1116.97L1119.9 501.697C1120.3 502.242 1120.79 502.919 1121.37 503.728C1122.4 505.156 1122.92 505.927 1122.92 506.04C1122.92 506.078 1122.91 506.106 1122.89 506.125L1115.98 514.021C1120.74 514.021 1123.31 514.012 1123.71 513.993C1124.61 513.955 1125.36 513.861 1125.97 513.711C1126.57 513.56 1126.97 513.419 1127.18 513.288C1127.38 513.156 1127.61 512.968 1127.85 512.724C1128.23 512.31 1128.54 511.756 1128.79 511.06C1129.03 510.364 1129.18 509.772 1129.24 509.283L1129.29 508.55H1130.42V508.663Z" fill="black"/>
<path d="M1133.58 503.124C1133.5 503.124 1133.32 503.084 1133.04 503.004C1132.76 502.925 1132.61 502.845 1132.6 502.765C1132.6 502.672 1132.96 501.13 1133.7 498.139C1134.43 495.149 1134.83 493.587 1134.91 493.454C1135.11 493.029 1135.46 492.816 1135.95 492.816C1136.21 492.816 1136.49 492.916 1136.79 493.115C1137.08 493.314 1137.22 493.607 1137.22 493.992C1137.22 494.059 1137.21 494.158 1137.18 494.291C1137.17 494.384 1136.59 495.866 1135.45 498.738C1134.31 501.609 1133.72 503.058 1133.68 503.084C1133.64 503.111 1133.6 503.124 1133.58 503.124Z" fill="black"/>
<path d="M880.26 331.184C880.26 330.465 880.648 329.912 881.422 329.525H934.247C935.077 329.967 935.491 330.52 935.491 331.184C935.491 331.792 935.104 332.317 934.33 332.759L907.959 332.842H881.587C880.703 332.566 880.26 332.013 880.26 331.184ZM880.26 347.272C880.26 346.443 880.703 345.89 881.587 345.613H934.33C935.104 346.166 935.491 346.719 935.491 347.272C935.491 347.991 935.077 348.543 934.247 348.93H881.422C880.648 348.543 880.26 347.991 880.26 347.272Z" fill="black"/>
</svg>
