<svg width="880" height="379" viewBox="0 0 880 379" fill="none" xmlns="http://www.w3.org/2000/svg">
<path d="M182.903 47.5073C277.074 13.8746 359.959 40.4844 401.574 74.7634C466.932 128.599 450.037 279.107 387.574 336.263C296 420.058 352 208.5 193.966 216.582C72.031 222.819 104.828 75.3913 182.903 47.5073Z" fill="#D9D9D9" fill-opacity="0.3" stroke="black"/>
<circle cx="351.074" cy="252.763" r="2.5" fill="black"/>
<circle cx="196.074" cy="119.763" r="2.5" fill="black"/>
<g clip-path="url(#clip0_1_5)">
<path d="M216.354 99.4419C216.404 99.3659 216.48 99.3278 216.582 99.3278H216.734H216.981C217.057 99.4039 217.095 99.4546 217.095 99.4799C217.095 99.5686 216.905 100.348 216.525 101.818C216.436 102.173 216.347 102.547 216.259 102.939C216.17 103.332 216.094 103.624 216.03 103.814L215.954 104.118C215.954 104.131 216.011 104.137 216.126 104.137C216.24 104.137 216.442 104.175 216.734 104.251C217.025 104.327 217.329 104.435 217.646 104.574C218.204 104.84 218.666 105.227 219.034 105.734C219.401 106.241 219.585 106.855 219.585 107.577C219.585 108.3 219.389 108.99 218.996 109.649C218.603 110.308 218.115 110.853 217.532 111.284C216.949 111.715 216.335 112.057 215.688 112.311C215.042 112.564 214.44 112.697 213.883 112.71H213.807L213.35 114.516C213.274 114.807 213.192 115.156 213.103 115.561C213.002 115.967 212.932 116.207 212.894 116.283C212.856 116.359 212.78 116.404 212.666 116.416H212.552C212.299 116.416 212.172 116.372 212.172 116.283C212.172 116.22 212.311 115.618 212.59 114.478L213.027 112.729C213.027 112.716 212.976 112.71 212.875 112.71C212.812 112.71 212.685 112.697 212.495 112.672C212.305 112.646 212.02 112.558 211.64 112.406C211.259 112.254 210.917 112.063 210.613 111.835C210.309 111.607 210.024 111.271 209.758 110.828C209.492 110.384 209.371 109.865 209.397 109.269C209.397 108.509 209.606 107.793 210.024 107.121C210.442 106.45 210.955 105.905 211.564 105.487C212.172 105.068 212.786 104.739 213.407 104.498C214.028 104.257 214.586 104.137 215.08 104.137C215.143 104.137 215.181 104.112 215.194 104.061L215.764 101.742C216.157 100.234 216.354 99.4672 216.354 99.4419ZM210.898 109.668C210.898 110.099 210.974 110.473 211.126 110.79C211.278 111.107 211.487 111.347 211.754 111.512C212.02 111.677 212.248 111.791 212.438 111.854C212.628 111.918 212.843 111.968 213.084 112.006H213.217L214.985 104.84C214.934 104.84 214.865 104.847 214.776 104.859C214.687 104.872 214.503 104.923 214.225 105.011C213.946 105.1 213.68 105.201 213.426 105.315C213.173 105.43 212.894 105.613 212.59 105.867C212.286 106.12 212.026 106.412 211.811 106.741C211.583 107.096 211.373 107.52 211.183 108.015C210.993 108.598 210.898 109.149 210.898 109.668ZM218.083 107.159C218.083 106.678 217.982 106.266 217.779 105.924C217.577 105.582 217.323 105.341 217.019 105.201C216.715 105.062 216.468 104.967 216.278 104.916C216.088 104.866 215.935 104.84 215.821 104.84H215.764L214.89 108.395L213.978 111.968C213.978 111.994 213.984 112.006 213.997 112.006C214.098 112.006 214.301 111.968 214.605 111.892C214.909 111.816 215.162 111.728 215.365 111.626C215.91 111.386 216.379 111.05 216.772 110.619C217.165 110.188 217.443 109.744 217.608 109.288C217.773 108.832 217.893 108.427 217.969 108.072C218.045 107.717 218.083 107.413 218.083 107.159Z" fill="black"/>
<path d="M221.695 107.768C221.695 106.893 221.758 106.063 221.885 105.277C222.012 104.492 222.158 103.814 222.322 103.244C222.487 102.673 222.721 102.116 223.026 101.571C223.33 101.026 223.571 100.601 223.748 100.297C223.925 99.9931 224.191 99.6637 224.546 99.3088C224.901 98.954 225.11 98.7386 225.174 98.6625C225.237 98.5865 225.395 98.4535 225.649 98.2634H225.896H225.972C226.149 98.2634 226.238 98.3204 226.238 98.4344C226.238 98.4725 226.13 98.6055 225.915 98.8336C225.699 99.0617 225.44 99.3975 225.136 99.8411C224.831 100.285 224.521 100.83 224.204 101.476C223.887 102.122 223.621 102.996 223.406 104.099C223.19 105.201 223.083 106.424 223.083 107.768C223.083 109.111 223.19 110.327 223.406 111.417C223.621 112.507 223.881 113.388 224.185 114.059C224.489 114.731 224.8 115.276 225.117 115.694C225.433 116.112 225.699 116.448 225.915 116.702C226.13 116.955 226.238 117.088 226.238 117.101C226.238 117.215 226.143 117.272 225.953 117.272H225.896H225.649L225.117 116.816C223.925 115.738 223.057 114.395 222.512 112.786C221.967 111.176 221.695 109.504 221.695 107.768Z" fill="black"/>
<path d="M228.291 107.026C228.38 106.494 228.722 105.879 229.317 105.182C229.913 104.485 230.648 104.131 231.522 104.118C231.966 104.118 232.371 104.232 232.739 104.46C233.106 104.688 233.379 104.973 233.556 105.315C234.088 104.517 234.728 104.118 235.476 104.118C235.945 104.118 236.35 104.257 236.693 104.536C237.035 104.815 237.212 105.189 237.225 105.658C237.225 106.025 237.136 106.323 236.959 106.551C236.781 106.779 236.61 106.919 236.446 106.969C236.281 107.02 236.135 107.045 236.008 107.045C235.768 107.045 235.571 106.976 235.419 106.836C235.267 106.697 235.191 106.513 235.191 106.285C235.191 105.702 235.508 105.303 236.141 105.087C236.002 104.923 235.749 104.84 235.381 104.84C235.216 104.84 235.096 104.853 235.02 104.878C234.538 105.081 234.184 105.499 233.955 106.133C233.195 108.933 232.815 110.568 232.815 111.037C232.815 111.392 232.916 111.645 233.119 111.797C233.322 111.949 233.544 112.025 233.784 112.025C234.253 112.025 234.716 111.816 235.172 111.398C235.628 110.98 235.939 110.467 236.103 109.858C236.141 109.732 236.179 109.662 236.217 109.649C236.255 109.637 236.357 109.624 236.522 109.611H236.598C236.788 109.611 236.883 109.662 236.883 109.763C236.883 109.776 236.87 109.846 236.845 109.973C236.642 110.695 236.249 111.335 235.666 111.892C235.083 112.45 234.405 112.729 233.632 112.729C232.745 112.729 232.074 112.33 231.617 111.531C231.098 112.317 230.502 112.71 229.831 112.71H229.717C229.096 112.71 228.652 112.545 228.386 112.216C228.12 111.886 227.98 111.538 227.968 111.17C227.968 110.765 228.088 110.435 228.329 110.182C228.57 109.928 228.855 109.801 229.184 109.801C229.729 109.801 230.002 110.068 230.002 110.6C230.002 110.853 229.926 111.075 229.774 111.265C229.622 111.455 229.476 111.582 229.336 111.645C229.197 111.709 229.115 111.74 229.089 111.74L229.032 111.759C229.032 111.772 229.07 111.797 229.146 111.835C229.222 111.873 229.324 111.918 229.45 111.968C229.577 112.019 229.698 112.038 229.812 112.025C230.268 112.025 230.661 111.74 230.99 111.17C231.104 110.967 231.25 110.536 231.427 109.877C231.605 109.219 231.782 108.534 231.96 107.825C232.137 107.115 232.238 106.697 232.264 106.57C232.327 106.228 232.359 105.981 232.359 105.829C232.359 105.474 232.264 105.22 232.074 105.068C231.884 104.916 231.668 104.84 231.427 104.84C230.92 104.84 230.445 105.043 230.002 105.449C229.558 105.854 229.248 106.374 229.07 107.007C229.045 107.121 229.013 107.185 228.975 107.197C228.937 107.21 228.836 107.223 228.671 107.235H228.405C228.329 107.159 228.291 107.09 228.291 107.026Z" fill="black"/>
<path d="M239.316 98.2824L239.392 98.2634C239.455 98.2634 239.519 98.2634 239.582 98.2634H239.81L240.342 98.7196C241.533 99.7967 242.402 101.14 242.946 102.749C243.491 104.359 243.764 106.031 243.764 107.768C243.764 108.629 243.7 109.459 243.574 110.258C243.447 111.056 243.301 111.734 243.136 112.292C242.972 112.849 242.737 113.407 242.433 113.964C242.129 114.522 241.888 114.946 241.711 115.238C241.533 115.529 241.274 115.852 240.932 116.207C240.589 116.562 240.387 116.771 240.323 116.835C240.26 116.898 240.114 117.018 239.886 117.196C239.848 117.234 239.823 117.259 239.81 117.272H239.582C239.481 117.272 239.411 117.272 239.373 117.272C239.335 117.272 239.303 117.253 239.278 117.215C239.252 117.177 239.233 117.12 239.221 117.044C239.233 117.031 239.303 116.949 239.43 116.797C241.394 114.756 242.376 111.747 242.376 107.768C242.376 103.788 241.394 100.779 239.43 98.7386C239.303 98.5865 239.233 98.5041 239.221 98.4915C239.221 98.3901 239.252 98.3204 239.316 98.2824Z" fill="black"/>
</g>
<g clip-path="url(#clip1_1_5)">
<path d="M362.683 242.219C363.21 242.219 363.627 242.374 363.936 242.682C364.244 242.99 364.398 243.37 364.398 243.819C364.398 244.076 364.193 244.757 363.782 245.863C363.37 246.968 363.171 247.771 363.184 248.272C363.223 248.812 363.396 249.236 363.705 249.544C363.974 249.775 364.251 249.93 364.533 250.007C364.765 250.11 364.964 250.161 365.131 250.161H365.15L366.731 243.781C367.81 239.527 368.356 237.394 368.369 237.381C368.408 237.356 368.511 237.343 368.678 237.343C368.935 237.343 369.063 237.388 369.063 237.478C369.063 237.593 368.543 239.72 367.502 243.858C366.448 248.073 365.921 250.187 365.921 250.2C365.921 250.212 365.96 250.219 366.037 250.219C367.142 250.219 368.189 249.653 369.179 248.523C370.168 247.392 370.669 246.338 370.682 245.361C370.682 245.053 370.631 244.79 370.528 244.571C370.425 244.353 370.31 244.198 370.181 244.108C370.053 244.019 369.937 243.903 369.834 243.762C369.731 243.62 369.68 243.472 369.68 243.318C369.68 243.048 369.789 242.791 370.008 242.547C370.226 242.303 370.496 242.181 370.817 242.181C371.061 242.181 371.286 242.297 371.492 242.528C371.697 242.759 371.8 243.138 371.8 243.665C371.8 244.038 371.73 244.539 371.588 245.169C371.447 245.798 371.331 246.235 371.241 246.479C370.83 247.7 370.104 248.747 369.063 249.621C368.022 250.495 366.975 250.932 365.921 250.932H365.728L365.285 252.725C364.977 253.933 364.823 254.543 364.823 254.556C364.797 254.633 364.668 254.671 364.437 254.671H364.186C364.109 254.594 364.071 254.543 364.071 254.517C364.071 254.453 364.219 253.843 364.514 252.686C364.81 251.53 364.957 250.932 364.957 250.893C364.867 250.881 364.778 250.874 364.688 250.874C362.644 250.591 361.623 249.647 361.623 248.041C361.623 247.591 361.835 246.788 362.259 245.631C362.683 244.475 362.901 243.736 362.914 243.415C362.914 243.402 362.914 243.389 362.914 243.376C362.914 243.26 362.914 243.183 362.914 243.145C362.914 243.106 362.889 243.061 362.837 243.01C362.786 242.958 362.715 242.933 362.625 242.933H362.548C362.252 242.933 361.983 243.055 361.738 243.299C361.494 243.543 361.302 243.806 361.16 244.089C361.019 244.372 360.91 244.642 360.832 244.899C360.755 245.156 360.704 245.297 360.678 245.323C360.653 245.349 360.55 245.361 360.37 245.361H360.1C360.023 245.284 359.984 245.226 359.984 245.188C359.984 245.034 360.068 244.738 360.235 244.301C360.402 243.864 360.71 243.408 361.16 242.933C361.61 242.457 362.118 242.219 362.683 242.219Z" fill="black"/>
<path d="M373.94 245.901C373.94 245.014 374.004 244.173 374.133 243.376C374.261 242.579 374.409 241.892 374.576 241.314C374.743 240.735 374.981 240.17 375.289 239.617C375.598 239.065 375.842 238.634 376.022 238.326C376.201 238.017 376.471 237.683 376.831 237.324C377.191 236.964 377.403 236.745 377.467 236.668C377.531 236.591 377.692 236.456 377.949 236.263H378.2H378.277C378.457 236.263 378.547 236.321 378.547 236.437C378.547 236.475 378.437 236.61 378.219 236.842C378.001 237.073 377.737 237.413 377.429 237.863C377.12 238.313 376.805 238.866 376.484 239.521C376.163 240.176 375.893 241.063 375.675 242.181C375.456 243.299 375.347 244.539 375.347 245.901C375.347 247.263 375.456 248.497 375.675 249.602C375.893 250.707 376.156 251.6 376.465 252.281C376.773 252.962 377.088 253.515 377.409 253.939C377.731 254.363 378.001 254.704 378.219 254.961C378.437 255.218 378.547 255.352 378.547 255.365C378.547 255.481 378.45 255.539 378.258 255.539H378.2H377.949L377.409 255.076C376.201 253.984 375.321 252.622 374.769 250.99C374.216 249.358 373.94 247.662 373.94 245.901Z" fill="black"/>
<path d="M380.031 245.188C380.031 245.008 380.127 244.7 380.32 244.263C380.513 243.826 380.821 243.37 381.245 242.894C381.669 242.419 382.145 242.187 382.672 242.2C383.198 242.2 383.623 242.348 383.944 242.644C384.265 242.939 384.432 243.35 384.445 243.877C384.419 244.121 384.4 244.256 384.387 244.282C384.387 244.321 384.284 244.616 384.079 245.169C383.873 245.721 383.661 246.344 383.443 247.038C383.224 247.732 383.121 248.285 383.134 248.696C383.134 249.249 383.224 249.634 383.404 249.853C383.584 250.071 383.854 250.187 384.214 250.2C384.509 250.2 384.785 250.129 385.043 249.987C385.3 249.846 385.499 249.698 385.64 249.544C385.781 249.39 385.955 249.178 386.16 248.908C386.16 248.895 386.193 248.767 386.257 248.523C386.321 248.278 386.411 247.899 386.527 247.385C386.642 246.871 386.764 246.396 386.893 245.959C387.381 244.031 387.651 243.023 387.703 242.933C387.87 242.586 388.146 242.412 388.531 242.412C388.698 242.412 388.833 242.457 388.936 242.547C389.039 242.637 389.11 242.714 389.148 242.778C389.187 242.843 389.2 242.901 389.187 242.952C389.187 243.119 388.872 244.468 388.242 247C387.613 249.531 387.253 250.919 387.163 251.163C386.803 252.23 386.18 253.078 385.293 253.708C384.406 254.337 383.52 254.659 382.633 254.671C382.055 254.671 381.547 254.53 381.11 254.247C380.673 253.965 380.455 253.541 380.455 252.975C380.455 252.692 380.5 252.455 380.59 252.262C380.68 252.069 380.802 251.928 380.956 251.838C381.11 251.748 381.239 251.684 381.342 251.645C381.444 251.607 381.554 251.587 381.669 251.587C382.235 251.587 382.517 251.857 382.517 252.397C382.517 252.654 382.44 252.879 382.286 253.072C382.132 253.264 381.984 253.393 381.843 253.457C381.701 253.521 381.618 253.553 381.592 253.553L381.534 253.573C381.56 253.637 381.682 253.714 381.901 253.804C382.119 253.894 382.338 253.939 382.556 253.939H382.71C382.929 253.939 383.096 253.926 383.211 253.9C383.635 253.785 384.027 253.541 384.387 253.168C384.747 252.795 385.023 252.397 385.216 251.973C385.409 251.549 385.557 251.189 385.659 250.893C385.762 250.598 385.814 250.405 385.814 250.315L385.698 250.392C385.621 250.444 385.499 250.514 385.332 250.604C385.165 250.694 384.998 250.771 384.83 250.836C384.573 250.9 384.323 250.932 384.079 250.932C383.488 250.932 382.967 250.791 382.517 250.508C382.068 250.225 381.772 249.769 381.631 249.139C381.618 249.049 381.611 248.85 381.611 248.542C381.611 247.809 381.836 246.852 382.286 245.67C382.736 244.488 382.961 243.736 382.961 243.415C382.961 243.402 382.961 243.389 382.961 243.376C382.961 243.26 382.961 243.183 382.961 243.145C382.961 243.106 382.935 243.061 382.884 243.01C382.832 242.958 382.762 242.933 382.672 242.933H382.595C382.299 242.933 382.029 243.055 381.785 243.299C381.541 243.543 381.348 243.806 381.207 244.089C381.065 244.372 380.956 244.642 380.879 244.899C380.802 245.156 380.751 245.297 380.725 245.323C380.699 245.349 380.596 245.361 380.416 245.361H380.147C380.069 245.284 380.031 245.226 380.031 245.188Z" fill="black"/>
<path d="M390.228 236.283L390.305 236.263C390.369 236.263 390.433 236.263 390.497 236.263H390.729L391.268 236.726C392.476 237.818 393.357 239.18 393.909 240.812C394.462 242.444 394.738 244.141 394.738 245.901C394.738 246.775 394.674 247.617 394.545 248.426C394.417 249.236 394.269 249.923 394.102 250.489C393.935 251.054 393.697 251.619 393.389 252.185C393.08 252.75 392.836 253.181 392.656 253.476C392.476 253.772 392.213 254.1 391.866 254.459C391.519 254.819 391.313 255.031 391.249 255.095C391.185 255.16 391.037 255.282 390.806 255.462C390.767 255.5 390.742 255.526 390.729 255.539H390.497C390.395 255.539 390.324 255.539 390.285 255.539C390.247 255.539 390.215 255.52 390.189 255.481C390.163 255.442 390.144 255.385 390.131 255.308C390.144 255.295 390.215 255.211 390.343 255.057C392.335 252.988 393.331 249.936 393.331 245.901C393.331 241.866 392.335 238.814 390.343 236.745C390.215 236.591 390.144 236.508 390.131 236.495C390.131 236.392 390.163 236.321 390.228 236.283Z" fill="black"/>
</g>
<g clip-path="url(#clip2_1_5)">
<path d="M662.547 196.831C662.531 196.943 662.483 197.039 662.403 197.119C662.324 197.199 662.212 197.247 662.069 197.263C661.909 197.263 661.774 197.183 661.662 197.023C661.615 196.911 660.866 194.943 659.416 191.119C657.966 187.295 657.233 185.343 657.217 185.263C657.201 185.183 657.926 183.231 659.392 179.407C660.858 175.583 661.615 173.615 661.662 173.503C661.71 173.423 661.79 173.351 661.901 173.287L661.973 173.263C662.021 173.263 662.053 173.263 662.069 173.263C662.356 173.263 662.515 173.407 662.547 173.695C662.547 173.775 661.83 175.719 660.396 179.527C658.946 183.319 658.221 185.231 658.221 185.263C658.221 185.295 658.946 187.207 660.396 190.999C661.83 194.807 662.547 196.751 662.547 196.831Z" fill="black"/>
<path d="M673.661 174.751C673.725 174.655 673.82 174.607 673.948 174.607H674.139H674.45C674.545 174.703 674.593 174.767 674.593 174.799C674.593 174.911 674.354 175.895 673.876 177.751C673.764 178.199 673.653 178.671 673.541 179.167C673.43 179.663 673.334 180.031 673.254 180.271L673.159 180.655C673.159 180.671 673.231 180.679 673.374 180.679C673.517 180.679 673.772 180.727 674.139 180.823C674.505 180.919 674.888 181.055 675.286 181.231C675.987 181.567 676.569 182.055 677.031 182.695C677.493 183.335 677.724 184.111 677.724 185.023C677.724 185.935 677.477 186.807 676.983 187.639C676.489 188.471 675.876 189.159 675.143 189.703C674.41 190.247 673.637 190.679 672.824 190.999C672.012 191.319 671.255 191.487 670.554 191.503H670.458L669.884 193.783C669.789 194.151 669.685 194.591 669.574 195.103C669.446 195.615 669.359 195.919 669.311 196.015C669.263 196.111 669.167 196.167 669.024 196.183H668.881C668.562 196.183 668.403 196.127 668.403 196.015C668.403 195.935 668.578 195.175 668.928 193.735L669.478 191.527C669.478 191.511 669.414 191.503 669.287 191.503C669.207 191.503 669.048 191.487 668.809 191.455C668.57 191.423 668.211 191.311 667.733 191.119C667.255 190.927 666.825 190.687 666.443 190.399C666.06 190.111 665.702 189.687 665.367 189.127C665.032 188.567 664.881 187.911 664.913 187.159C664.913 186.199 665.176 185.295 665.702 184.447C666.228 183.599 666.873 182.911 667.638 182.383C668.403 181.855 669.175 181.439 669.956 181.135C670.737 180.831 671.438 180.679 672.059 180.679C672.139 180.679 672.187 180.647 672.203 180.583L672.92 177.655C673.414 175.751 673.661 174.783 673.661 174.751ZM666.801 187.663C666.801 188.207 666.897 188.679 667.088 189.079C667.279 189.479 667.542 189.783 667.877 189.991C668.211 190.199 668.498 190.343 668.737 190.423C668.976 190.503 669.247 190.567 669.55 190.615H669.717L671.94 181.567C671.876 181.567 671.789 181.575 671.677 181.591C671.565 181.607 671.334 181.671 670.984 181.783C670.633 181.895 670.299 182.023 669.98 182.167C669.661 182.311 669.311 182.543 668.928 182.863C668.546 183.183 668.219 183.551 667.948 183.967C667.662 184.415 667.399 184.951 667.16 185.575C666.921 186.311 666.801 187.007 666.801 187.663ZM675.836 184.495C675.836 183.887 675.708 183.367 675.453 182.935C675.198 182.503 674.88 182.199 674.497 182.023C674.115 181.847 673.804 181.727 673.565 181.663C673.326 181.599 673.135 181.567 672.992 181.567H672.92L671.82 186.055L670.673 190.567C670.673 190.599 670.681 190.615 670.697 190.615C670.825 190.615 671.079 190.567 671.462 190.471C671.844 190.375 672.163 190.263 672.418 190.135C673.103 189.831 673.693 189.407 674.187 188.863C674.681 188.319 675.031 187.759 675.238 187.183C675.445 186.607 675.597 186.095 675.692 185.647C675.788 185.199 675.836 184.815 675.836 184.495Z" fill="black"/>
<path d="M680.377 185.263C680.377 184.159 680.457 183.111 680.616 182.119C680.775 181.127 680.959 180.271 681.166 179.551C681.373 178.831 681.668 178.127 682.05 177.439C682.433 176.751 682.735 176.215 682.958 175.831C683.181 175.447 683.516 175.031 683.962 174.583C684.408 174.135 684.671 173.863 684.751 173.767C684.831 173.671 685.03 173.503 685.349 173.263H685.659H685.755C685.978 173.263 686.089 173.335 686.089 173.479C686.089 173.527 685.954 173.695 685.683 173.983C685.412 174.271 685.086 174.695 684.703 175.255C684.321 175.815 683.93 176.503 683.532 177.319C683.134 178.135 682.799 179.239 682.528 180.631C682.257 182.023 682.122 183.567 682.122 185.263C682.122 186.959 682.257 188.495 682.528 189.871C682.799 191.247 683.126 192.359 683.508 193.207C683.891 194.055 684.281 194.743 684.679 195.271C685.078 195.799 685.412 196.223 685.683 196.543C685.954 196.863 686.089 197.031 686.089 197.047C686.089 197.191 685.97 197.263 685.731 197.263H685.659H685.349L684.679 196.687C683.181 195.327 682.09 193.631 681.405 191.599C680.72 189.567 680.377 187.455 680.377 185.263Z" fill="black"/>
<path d="M688.671 184.327C688.782 183.655 689.212 182.879 689.961 181.999C690.71 181.119 691.634 180.671 692.734 180.655C693.292 180.655 693.802 180.799 694.264 181.087C694.726 181.375 695.068 181.735 695.291 182.167C695.961 181.159 696.765 180.655 697.705 180.655C698.295 180.655 698.805 180.831 699.235 181.183C699.665 181.535 699.888 182.007 699.904 182.599C699.904 183.063 699.793 183.439 699.57 183.727C699.347 184.015 699.131 184.191 698.924 184.255C698.717 184.319 698.534 184.351 698.375 184.351C698.072 184.351 697.825 184.263 697.634 184.087C697.442 183.911 697.347 183.679 697.347 183.391C697.347 182.655 697.745 182.151 698.542 181.879C698.367 181.671 698.048 181.567 697.586 181.567C697.379 181.567 697.227 181.583 697.132 181.615C696.526 181.871 696.08 182.399 695.793 183.199C694.837 186.735 694.359 188.799 694.359 189.391C694.359 189.839 694.487 190.159 694.742 190.351C694.997 190.543 695.275 190.639 695.578 190.639C696.168 190.639 696.749 190.375 697.323 189.847C697.897 189.319 698.287 188.671 698.494 187.903C698.542 187.743 698.59 187.655 698.638 187.639C698.685 187.623 698.813 187.607 699.02 187.591H699.116C699.355 187.591 699.474 187.655 699.474 187.783C699.474 187.799 699.458 187.887 699.426 188.047C699.171 188.959 698.677 189.767 697.944 190.471C697.211 191.175 696.359 191.527 695.387 191.527C694.272 191.527 693.427 191.023 692.853 190.015C692.2 191.007 691.451 191.503 690.607 191.503H690.463C689.683 191.503 689.125 191.295 688.79 190.879C688.456 190.463 688.28 190.023 688.264 189.559C688.264 189.047 688.416 188.631 688.719 188.311C689.021 187.991 689.38 187.831 689.794 187.831C690.479 187.831 690.822 188.167 690.822 188.839C690.822 189.159 690.726 189.439 690.535 189.679C690.344 189.919 690.161 190.079 689.985 190.159C689.81 190.239 689.706 190.279 689.675 190.279L689.603 190.303C689.603 190.319 689.651 190.351 689.746 190.399C689.842 190.447 689.969 190.503 690.129 190.567C690.288 190.631 690.439 190.655 690.583 190.639C691.156 190.639 691.65 190.279 692.065 189.559C692.208 189.303 692.391 188.759 692.614 187.927C692.837 187.095 693.061 186.231 693.284 185.335C693.507 184.439 693.634 183.911 693.666 183.751C693.746 183.319 693.786 183.007 693.786 182.815C693.786 182.367 693.666 182.047 693.427 181.855C693.188 181.663 692.917 181.567 692.614 181.567C691.977 181.567 691.38 181.823 690.822 182.335C690.264 182.847 689.874 183.503 689.651 184.303C689.619 184.447 689.579 184.527 689.531 184.543C689.483 184.559 689.356 184.575 689.149 184.591H688.814C688.719 184.495 688.671 184.407 688.671 184.327Z" fill="black"/>
<path d="M702.533 173.287L702.629 173.263C702.709 173.263 702.788 173.263 702.868 173.263H703.155L703.824 173.839C705.322 175.199 706.413 176.895 707.099 178.927C707.784 180.959 708.126 183.071 708.126 185.263C708.126 186.351 708.047 187.399 707.887 188.407C707.728 189.415 707.545 190.271 707.338 190.975C707.13 191.679 706.836 192.383 706.453 193.087C706.071 193.791 705.768 194.327 705.545 194.695C705.322 195.063 704.995 195.471 704.565 195.919C704.135 196.367 703.88 196.631 703.8 196.711C703.721 196.791 703.537 196.943 703.25 197.167C703.203 197.215 703.171 197.247 703.155 197.263H702.868C702.741 197.263 702.653 197.263 702.605 197.263C702.557 197.263 702.518 197.239 702.486 197.191C702.454 197.143 702.43 197.071 702.414 196.975C702.43 196.959 702.518 196.855 702.677 196.663C705.147 194.087 706.382 190.287 706.382 185.263C706.382 180.239 705.147 176.439 702.677 173.863C702.518 173.671 702.43 173.567 702.414 173.551C702.414 173.423 702.454 173.335 702.533 173.287Z" fill="black"/>
<path d="M714.245 180.679C714.898 180.679 715.416 180.871 715.799 181.255C716.181 181.639 716.372 182.111 716.372 182.671C716.372 182.991 716.117 183.839 715.607 185.215C715.098 186.591 714.851 187.591 714.867 188.215C714.914 188.887 715.129 189.415 715.512 189.799C715.846 190.087 716.189 190.279 716.54 190.375C716.826 190.503 717.073 190.567 717.281 190.567H717.304L719.264 182.623C720.603 177.327 721.28 174.671 721.296 174.655C721.344 174.623 721.471 174.607 721.678 174.607C721.997 174.607 722.156 174.663 722.156 174.775C722.156 174.919 721.511 177.567 720.22 182.719C718.914 187.967 718.26 190.599 718.26 190.615C718.26 190.631 718.308 190.639 718.404 190.639C719.774 190.639 721.073 189.935 722.3 188.527C723.527 187.119 724.148 185.807 724.164 184.591C724.164 184.207 724.1 183.879 723.973 183.607C723.845 183.335 723.702 183.143 723.543 183.031C723.383 182.919 723.24 182.775 723.112 182.599C722.985 182.423 722.921 182.239 722.921 182.047C722.921 181.711 723.057 181.391 723.328 181.087C723.598 180.783 723.933 180.631 724.331 180.631C724.634 180.631 724.913 180.775 725.168 181.063C725.423 181.351 725.55 181.823 725.55 182.479C725.55 182.943 725.463 183.567 725.287 184.351C725.112 185.135 724.969 185.679 724.857 185.983C724.347 187.503 723.447 188.807 722.156 189.895C720.866 190.983 719.567 191.527 718.26 191.527H718.021L717.472 193.759C717.089 195.263 716.898 196.023 716.898 196.039C716.866 196.135 716.707 196.183 716.42 196.183H716.109C716.014 196.087 715.966 196.023 715.966 195.991C715.966 195.911 716.149 195.151 716.516 193.711C716.882 192.271 717.065 191.527 717.065 191.479C716.954 191.463 716.842 191.455 716.731 191.455C714.197 191.103 712.931 189.927 712.931 187.927C712.931 187.367 713.193 186.367 713.719 184.927C714.245 183.487 714.516 182.567 714.532 182.167C714.532 182.151 714.532 182.135 714.532 182.119C714.532 181.975 714.532 181.879 714.532 181.831C714.532 181.783 714.5 181.727 714.436 181.663C714.373 181.599 714.285 181.567 714.173 181.567H714.078C713.711 181.567 713.377 181.719 713.074 182.023C712.771 182.327 712.532 182.655 712.357 183.007C712.182 183.359 712.046 183.695 711.951 184.015C711.855 184.335 711.791 184.511 711.759 184.543C711.728 184.575 711.6 184.591 711.377 184.591H711.042C710.947 184.495 710.899 184.423 710.899 184.375C710.899 184.183 711.002 183.815 711.21 183.271C711.417 182.727 711.799 182.159 712.357 181.567C712.915 180.975 713.544 180.679 714.245 180.679Z" fill="black"/>
<path d="M728.203 185.263C728.203 184.159 728.283 183.111 728.442 182.119C728.602 181.127 728.785 180.271 728.992 179.551C729.199 178.831 729.494 178.127 729.876 177.439C730.259 176.751 730.562 176.215 730.785 175.831C731.008 175.447 731.342 175.031 731.789 174.583C732.235 174.135 732.498 173.863 732.577 173.767C732.657 173.671 732.856 173.503 733.175 173.263H733.486H733.581C733.804 173.263 733.916 173.335 733.916 173.479C733.916 173.527 733.78 173.695 733.509 173.983C733.239 174.271 732.912 174.695 732.529 175.255C732.147 175.815 731.757 176.503 731.358 177.319C730.96 178.135 730.625 179.239 730.354 180.631C730.084 182.023 729.948 183.567 729.948 185.263C729.948 186.959 730.084 188.495 730.354 189.871C730.625 191.247 730.952 192.359 731.334 193.207C731.717 194.055 732.107 194.743 732.506 195.271C732.904 195.799 733.239 196.223 733.509 196.543C733.78 196.863 733.916 197.031 733.916 197.047C733.916 197.191 733.796 197.263 733.557 197.263H733.486H733.175L732.506 196.687C731.008 195.327 729.916 193.631 729.231 191.599C728.546 189.567 728.203 187.455 728.203 185.263Z" fill="black"/>
<path d="M735.756 184.375C735.756 184.151 735.876 183.767 736.115 183.223C736.354 182.679 736.736 182.111 737.262 181.519C737.788 180.927 738.377 180.639 739.031 180.655C739.684 180.655 740.21 180.839 740.608 181.207C741.006 181.575 741.214 182.087 741.229 182.743C741.198 183.047 741.174 183.215 741.158 183.247C741.158 183.295 741.03 183.663 740.775 184.351C740.52 185.039 740.257 185.815 739.987 186.679C739.716 187.543 739.588 188.231 739.604 188.743C739.604 189.431 739.716 189.911 739.939 190.183C740.162 190.455 740.497 190.599 740.943 190.615C741.309 190.615 741.652 190.527 741.97 190.351C742.289 190.175 742.536 189.991 742.711 189.799C742.887 189.607 743.102 189.343 743.357 189.007C743.357 188.991 743.397 188.831 743.476 188.527C743.556 188.223 743.667 187.751 743.811 187.111C743.954 186.471 744.106 185.879 744.265 185.335C744.87 182.935 745.205 181.679 745.269 181.567C745.476 181.135 745.819 180.919 746.297 180.919C746.504 180.919 746.671 180.975 746.798 181.087C746.926 181.199 747.014 181.295 747.061 181.375C747.109 181.455 747.125 181.527 747.109 181.591C747.109 181.799 746.719 183.479 745.938 186.631C745.157 189.783 744.711 191.511 744.6 191.815C744.153 193.143 743.381 194.199 742.281 194.983C741.182 195.767 740.082 196.167 738.983 196.183C738.266 196.183 737.636 196.007 737.095 195.655C736.553 195.303 736.282 194.775 736.282 194.071C736.282 193.719 736.338 193.423 736.449 193.183C736.561 192.943 736.712 192.767 736.903 192.655C737.095 192.543 737.254 192.463 737.381 192.415C737.509 192.367 737.644 192.343 737.788 192.343C738.489 192.343 738.839 192.679 738.839 193.351C738.839 193.671 738.744 193.951 738.553 194.191C738.361 194.431 738.178 194.591 738.003 194.671C737.828 194.751 737.724 194.791 737.692 194.791L737.62 194.815C737.652 194.895 737.804 194.991 738.075 195.103C738.345 195.215 738.616 195.271 738.887 195.271H739.078C739.349 195.271 739.556 195.255 739.7 195.223C740.226 195.079 740.712 194.775 741.158 194.311C741.604 193.847 741.947 193.351 742.186 192.823C742.425 192.295 742.608 191.847 742.735 191.479C742.863 191.111 742.926 190.871 742.926 190.759L742.783 190.855C742.687 190.919 742.536 191.007 742.329 191.119C742.122 191.231 741.915 191.327 741.707 191.407C741.389 191.487 741.078 191.527 740.775 191.527C740.042 191.527 739.397 191.351 738.839 190.999C738.282 190.647 737.915 190.079 737.74 189.295C737.724 189.183 737.716 188.935 737.716 188.551C737.716 187.639 737.995 186.447 738.553 184.975C739.11 183.503 739.389 182.567 739.389 182.167C739.389 182.151 739.389 182.135 739.389 182.119C739.389 181.975 739.389 181.879 739.389 181.831C739.389 181.783 739.357 181.727 739.293 181.663C739.23 181.599 739.142 181.567 739.031 181.567H738.935C738.568 181.567 738.234 181.719 737.931 182.023C737.628 182.327 737.389 182.655 737.214 183.007C737.039 183.359 736.903 183.695 736.808 184.015C736.712 184.335 736.648 184.511 736.617 184.543C736.585 184.575 736.457 184.591 736.234 184.591H735.9C735.804 184.495 735.756 184.423 735.756 184.375Z" fill="black"/>
<path d="M748.4 173.287L748.496 173.263C748.575 173.263 748.655 173.263 748.735 173.263H749.021L749.691 173.839C751.188 175.199 752.28 176.895 752.965 178.927C753.65 180.959 753.993 183.071 753.993 185.263C753.993 186.351 753.913 187.399 753.754 188.407C753.594 189.415 753.411 190.271 753.204 190.975C752.997 191.679 752.702 192.383 752.32 193.087C751.937 193.791 751.635 194.327 751.411 194.695C751.188 195.063 750.862 195.471 750.432 195.919C750.001 196.367 749.746 196.631 749.667 196.711C749.587 196.791 749.404 196.943 749.117 197.167C749.069 197.215 749.037 197.247 749.021 197.263H748.735C748.607 197.263 748.519 197.263 748.472 197.263C748.424 197.263 748.384 197.239 748.352 197.191C748.32 197.143 748.296 197.071 748.28 196.975C748.296 196.959 748.384 196.855 748.543 196.663C751.013 194.087 752.248 190.287 752.248 185.263C752.248 180.239 751.013 176.439 748.543 173.863C748.384 173.671 748.296 173.567 748.28 173.551C748.28 173.423 748.32 173.335 748.4 173.287Z" fill="black"/>
<path d="M757.578 173.695C757.594 173.583 757.642 173.487 757.721 173.407C757.801 173.327 757.912 173.279 758.056 173.263C758.215 173.263 758.351 173.343 758.462 173.503C758.51 173.615 759.259 175.583 760.709 179.407C762.159 183.231 762.892 185.183 762.908 185.263C762.924 185.343 762.199 187.295 760.733 191.119C759.267 194.943 758.51 196.911 758.462 197.023C758.351 197.183 758.215 197.263 758.056 197.263C757.928 197.263 757.825 197.223 757.745 197.143C757.666 197.063 757.61 196.959 757.578 196.831C757.578 196.751 758.295 194.807 759.729 190.999C761.179 187.207 761.904 185.295 761.904 185.263C761.904 185.231 761.179 183.319 759.729 179.527C758.295 175.719 757.578 173.775 757.578 173.695Z" fill="black"/>
</g>
<g clip-path="url(#clip3_1_5)">
<path d="M242.776 264.107C242.776 264.025 242.396 263.97 241.637 263.943C241.317 263.943 241.111 263.936 241.018 263.922C240.924 263.909 240.878 263.84 240.878 263.717C240.878 263.704 240.891 263.629 240.918 263.492C240.931 263.451 240.944 263.403 240.958 263.348C240.971 263.294 240.978 263.26 240.978 263.246C240.978 263.232 240.991 263.198 241.018 263.143C241.044 263.089 241.058 263.068 241.058 263.082C241.058 263.096 241.084 263.082 241.138 263.041C241.191 263 241.224 262.986 241.237 263C241.251 263.014 241.304 263.014 241.397 263C241.49 262.986 241.57 262.98 241.637 262.98C241.717 262.98 241.917 262.98 242.236 262.98C242.556 262.98 242.855 262.986 243.135 263C244.187 263 244.793 263 244.953 263C245.113 263 245.219 263.034 245.273 263.102C245.286 263.157 245.532 265.084 246.012 268.883L246.731 274.602L247.19 273.843C247.51 273.351 247.936 272.668 248.469 271.794C249.002 270.919 249.588 269.962 250.227 268.924C252.557 265.111 253.736 263.191 253.763 263.164C253.776 263.15 253.796 263.13 253.822 263.102C253.849 263.075 253.876 263.055 253.902 263.041L254.022 263H255.94C256.166 263 256.433 263 256.739 263C257.045 263 257.238 262.993 257.318 262.98C257.771 262.98 257.998 263.055 257.998 263.205C257.998 263.273 257.978 263.389 257.938 263.553C257.898 263.717 257.878 263.806 257.878 263.82C257.824 263.902 257.578 263.943 257.139 263.943C256.606 263.957 256.266 263.977 256.12 264.004C255.973 264.032 255.853 264.107 255.76 264.23C255.72 264.298 255.241 266.232 254.322 270.031C253.403 273.83 252.937 275.75 252.924 275.791C252.924 275.845 252.93 275.879 252.944 275.893C252.957 275.907 253.003 275.934 253.083 275.975C253.163 276.016 253.276 276.03 253.423 276.016C253.569 276.002 253.789 276.016 254.082 276.057H254.701C254.781 276.18 254.821 276.255 254.821 276.283C254.821 276.501 254.775 276.706 254.681 276.898C254.615 276.966 254.508 277 254.362 277C254.295 277 254.022 276.993 253.543 276.98C253.063 276.966 252.451 276.959 251.705 276.959C250.893 276.959 250.28 276.959 249.867 276.959C249.454 276.959 249.221 276.966 249.168 276.98C248.942 276.98 248.828 276.911 248.828 276.775C248.828 276.747 248.842 276.652 248.868 276.488C248.922 276.269 248.975 276.146 249.028 276.119C249.081 276.091 249.235 276.071 249.488 276.057C249.847 276.057 250.247 276.037 250.686 275.996C250.873 275.955 250.999 275.873 251.066 275.75C251.092 275.695 251.345 274.697 251.825 272.757C252.304 270.816 252.777 268.883 253.243 266.956C253.709 265.029 253.942 264.066 253.942 264.066L250.067 270.4C247.457 274.663 246.118 276.829 246.052 276.898C246.025 276.911 245.998 276.925 245.972 276.939C245.905 276.98 245.799 277 245.652 277C245.452 277 245.333 276.952 245.293 276.857C245.266 276.802 244.993 274.684 244.474 270.502L243.694 264.209L242.336 269.744C241.444 273.379 240.998 275.258 240.998 275.381C241.078 275.832 241.557 276.057 242.436 276.057H242.636C242.716 276.125 242.762 276.187 242.776 276.242C242.789 276.296 242.769 276.419 242.716 276.611C242.662 276.829 242.609 276.952 242.556 276.98C242.503 276.993 242.429 277 242.336 277C242.309 277 242.23 277 242.096 277C241.963 277 241.737 276.993 241.417 276.98C241.098 276.966 240.671 276.959 240.139 276.959C239.739 276.959 239.326 276.966 238.9 276.98C238.474 276.993 238.228 277 238.161 277C237.961 277 237.835 276.986 237.782 276.959C237.728 276.932 237.702 276.87 237.702 276.775C237.702 276.747 237.722 276.652 237.762 276.488C237.801 276.324 237.835 276.221 237.861 276.18C237.888 276.098 238.035 276.057 238.301 276.057C239.233 276.057 239.826 275.784 240.079 275.237C240.132 275.155 240.592 273.324 241.457 269.744C242.323 266.163 242.762 264.285 242.776 264.107Z" fill="black"/>
</g>
<path d="M633.574 185.263L628.574 182.377V188.15L633.574 185.263ZM474.574 185.763H629.074V184.763H474.574V185.763Z" fill="black"/>
<g clip-path="url(#clip4_1_5)">
<path d="M528.109 162.24C528.109 159.354 529.031 156.97 530.877 155.088C532.722 153.206 534.832 152.265 537.207 152.265C539.637 152.265 541.765 153.215 543.592 155.115C545.419 157.015 546.341 159.39 546.36 162.24C546.36 163.446 546.186 164.57 545.839 165.611C545.492 166.652 545.099 167.484 544.661 168.105C544.222 168.726 543.702 169.311 543.099 169.859C542.496 170.407 542.057 170.754 541.783 170.9C541.509 171.046 541.235 171.192 540.961 171.338C540.943 171.357 540.934 171.366 540.934 171.366H540.906C540.925 171.421 540.952 171.503 540.989 171.612C541.025 171.722 541.126 171.905 541.29 172.16C541.454 172.416 541.619 172.654 541.783 172.873C541.948 173.092 542.185 173.275 542.496 173.421C542.806 173.567 543.117 173.649 543.428 173.668C544.122 173.668 544.697 173.485 545.154 173.12C545.611 172.754 545.866 172.27 545.921 171.667C545.94 171.43 546.031 171.311 546.195 171.311C546.287 171.311 546.396 171.357 546.524 171.448L546.497 171.941C546.497 173.311 546.223 174.472 545.675 175.422C545.127 176.372 544.295 176.856 543.181 176.874C542.395 176.874 541.774 176.627 541.317 176.134C540.861 175.641 540.495 174.883 540.221 173.86C539.947 172.763 539.81 172.078 539.81 171.804L539.481 171.886C539.262 171.941 538.933 172.005 538.495 172.078C538.056 172.151 537.627 172.188 537.207 172.188C534.759 172.188 532.63 171.247 530.822 169.365C529.013 167.484 528.109 165.109 528.109 162.24ZM543.208 162.295C543.208 160.651 543.016 159.217 542.633 157.993C542.249 156.769 541.747 155.837 541.126 155.198C540.504 154.558 539.865 154.092 539.207 153.8C538.55 153.508 537.901 153.362 537.262 153.362C536.622 153.362 535.965 153.508 535.289 153.8C534.613 154.092 533.973 154.558 533.37 155.198C532.768 155.837 532.256 156.769 531.836 157.993C531.416 159.217 531.215 160.651 531.233 162.295C531.233 165.876 532.21 168.452 534.165 170.023C534.604 170.352 534.859 170.516 534.932 170.516L534.905 170.434C534.905 170.398 534.905 170.361 534.905 170.324C534.85 170.197 534.823 169.996 534.823 169.722C534.823 169.119 535.042 168.571 535.48 168.077C535.919 167.584 536.522 167.337 537.289 167.337C538.44 167.337 539.39 168.114 540.139 169.667L540.303 169.996C541.18 169.393 541.884 168.424 542.414 167.091C542.943 165.812 543.208 164.213 543.208 162.295ZM537.125 171.092C537.472 171.092 537.837 171.046 538.221 170.955C538.604 170.863 538.915 170.772 539.153 170.681C539.39 170.589 539.509 170.525 539.509 170.489C539.491 170.361 539.454 170.206 539.399 170.023C539.344 169.84 539.171 169.557 538.879 169.173C538.586 168.79 538.248 168.543 537.865 168.434C537.609 168.397 537.371 168.379 537.152 168.379C536.805 168.379 536.504 168.516 536.248 168.79C535.992 169.064 535.855 169.384 535.837 169.749C535.837 170.096 535.955 170.407 536.193 170.681C536.43 170.955 536.741 171.092 537.125 171.092Z" fill="black"/>
<path d="M551.402 154.622C551.274 154.494 551.174 154.412 551.1 154.376C551.027 154.339 550.881 154.312 550.662 154.293C550.443 154.275 550.05 154.248 549.484 154.211H548.579V152.951H563.843V153.06C563.88 153.17 564.008 154.229 564.227 156.239C564.446 158.249 564.574 159.308 564.61 159.418V159.527H563.514V159.418C563.386 158.523 563.304 158.002 563.268 157.856C563.158 157.18 562.994 156.613 562.774 156.157C562.555 155.7 562.309 155.353 562.035 155.115C561.76 154.878 561.404 154.686 560.966 154.54C560.527 154.394 560.107 154.312 559.705 154.293C559.303 154.275 558.783 154.257 558.143 154.238H557.047H555.732C555.111 154.238 554.727 154.257 554.581 154.293C554.435 154.33 554.334 154.421 554.279 154.567C554.261 154.604 554.252 155.801 554.252 158.157V161.637H555.677C555.732 161.637 555.905 161.637 556.198 161.637C556.49 161.637 556.709 161.628 556.855 161.61C557.001 161.592 557.202 161.564 557.458 161.528C557.714 161.491 557.924 161.437 558.088 161.363C558.253 161.29 558.408 161.181 558.554 161.035C558.883 160.706 559.075 160.03 559.13 159.007V158.431H560.226V166.104H559.13V165.529C559.075 164.524 558.883 163.839 558.554 163.474C558.408 163.346 558.244 163.245 558.061 163.172C557.878 163.099 557.668 163.044 557.431 163.008C557.193 162.971 557.001 162.944 556.855 162.925C556.709 162.907 556.49 162.898 556.198 162.898C555.905 162.898 555.732 162.898 555.677 162.898H554.252V166.406L554.279 169.913C554.407 170.041 554.517 170.123 554.608 170.16C554.699 170.197 554.928 170.233 555.293 170.27C555.659 170.306 556.234 170.324 557.02 170.324H557.76V171.585H557.431C556.992 171.53 555.476 171.503 552.882 171.503C550.488 171.503 549.155 171.53 548.881 171.585H548.579V170.324H549.484C550.251 170.306 550.717 170.279 550.881 170.242C551.046 170.206 551.219 170.096 551.402 169.913V154.622Z" fill="black"/>
<path d="M566.775 159.445C566.794 159.354 566.885 158.303 567.049 156.294C567.214 154.284 567.296 153.252 567.296 153.197V153.033H584.04V153.197C584.058 153.289 584.149 154.339 584.314 156.349C584.478 158.358 584.56 159.39 584.56 159.445V159.61H583.464V159.445C583.464 159.409 583.437 159.089 583.382 158.486C583.327 157.883 583.227 157.28 583.081 156.677C582.934 156.075 582.743 155.627 582.505 155.335C582.194 154.951 581.692 154.659 580.998 154.458C580.614 154.366 579.911 154.321 578.888 154.321H578.148H577.929C577.454 154.321 577.189 154.43 577.134 154.65C577.116 154.686 577.107 157.235 577.107 162.295V169.859C577.234 170.041 577.472 170.16 577.819 170.215C578.166 170.27 578.979 170.306 580.258 170.324H581.08V171.585H580.724L575.682 171.503C572.484 171.539 570.804 171.567 570.639 171.585H570.283V170.324H571.105C572.384 170.324 573.197 170.297 573.544 170.242C573.891 170.187 574.129 170.06 574.257 169.859V162.295V156.513C574.257 155.234 574.211 154.549 574.12 154.458C574.028 154.366 573.727 154.321 573.215 154.321H572.475H571.927C570.648 154.321 569.689 154.586 569.05 155.115C568.721 155.408 568.484 155.837 568.337 156.403C568.191 156.97 568.082 157.591 568.009 158.267C567.935 158.943 567.89 159.336 567.872 159.445V159.61H566.775V159.445Z" fill="black"/>
</g>
<path d="M400.5 159.224C395.032 163.356 388.506 166.934 381.144 169.799C367.713 175.027 352.103 177.648 336.289 177.331C320.475 177.014 305.166 173.773 292.299 168.018C286.652 165.493 281.586 162.533 277.208 159.224" stroke="black"/>
<path d="M336.445 177.474C320.69 177.159 305.448 173.929 292.649 168.205C291.404 167.648 290.188 167.071 289.002 166.473C291.473 165.231 294.07 164.079 296.782 163.023C310.146 157.822 325.69 155.21 341.446 155.526C357.201 155.841 372.443 159.071 385.242 164.795C386.487 165.352 387.703 165.929 388.889 166.527C386.418 167.769 383.821 168.921 381.109 169.977C367.745 175.178 352.201 177.79 336.445 177.474Z" fill="white" stroke="black"/>
<defs>
<clipPath id="clip0_1_5">
<rect width="37" height="19.0084" fill="white" transform="translate(208.574 98.2634)"/>
</clipPath>
<clipPath id="clip1_1_5">
<rect width="37" height="19.2754" fill="white" transform="translate(359.574 236.263)"/>
</clipPath>
<clipPath id="clip2_1_5">
<rect width="111" height="24" fill="white" transform="translate(654.574 173.263)"/>
</clipPath>
<clipPath id="clip3_1_5">
<rect width="21" height="14" fill="white" transform="translate(237 263)"/>
</clipPath>
<clipPath id="clip4_1_5">
<rect width="59" height="24.6126" fill="white" transform="translate(526.574 152.263)"/>
</clipPath>
</defs>
</svg>
