<svg width="1086" height="477" viewBox="0 0 1086 477" fill="none" xmlns="http://www.w3.org/2000/svg">
<path d="M881.658 234.49L887.356 233.556L885.316 238.957L881.658 234.49ZM923.749 244.293L923.74 243.793L923.749 244.293ZM963.596 233.855C963.793 234.314 963.793 234.314 963.793 234.314C963.793 234.315 963.792 234.315 963.792 234.315C963.791 234.315 963.79 234.316 963.789 234.316C963.786 234.318 963.781 234.319 963.775 234.322C963.764 234.327 963.746 234.334 963.723 234.344C963.678 234.363 963.61 234.392 963.521 234.43C963.343 234.504 963.081 234.614 962.742 234.753C962.063 235.032 961.076 235.429 959.84 235.908C957.371 236.864 953.907 238.143 949.934 239.431C941.999 242.004 931.979 244.634 923.759 244.793L923.74 243.793C931.804 243.637 941.708 241.047 949.625 238.48C953.577 237.198 957.022 235.927 959.479 234.975C960.708 234.5 961.689 234.104 962.362 233.828C962.699 233.69 962.958 233.581 963.134 233.508C963.221 233.471 963.288 233.443 963.332 233.424C963.354 233.414 963.371 233.407 963.382 233.402C963.388 233.4 963.392 233.398 963.395 233.397C963.396 233.397 963.397 233.396 963.398 233.396C963.398 233.396 963.398 233.396 963.398 233.396C963.399 233.395 963.399 233.395 963.596 233.855ZM923.759 244.793C910.872 245.042 893.544 239.386 885.697 236.55L886.037 235.61C893.897 238.45 911.062 244.038 923.74 243.793L923.759 244.793Z" fill="black"/>
<path d="M649.153 381.539C722.608 476.821 926.555 411.617 941.598 292.167C941.628 291.927 941.657 291.686 941.686 291.445L941.623 291.708C938.866 304.451 903.845 295.23 849.184 308.05C794.523 320.87 742.583 294.27 708.389 295.23C646.147 296.978 613.974 299.968 613.974 287.984L613.699 287.829C616.416 321.358 628.17 354.321 649.153 381.539Z" fill="#D9D9D9" fill-opacity="0.3" stroke="black"/>
<path d="M708.345 295.236C646.103 296.984 613.93 299.974 613.93 287.99C617.243 276.842 701.977 259.973 780.675 262.908C841.972 265.193 938.862 282.695 941.622 291.613C938.866 304.356 903.801 295.236 849.14 308.056C794.478 320.876 742.538 294.275 708.345 295.236Z" fill="#D9D9D9" fill-opacity="0.5" stroke="black"/>
<path d="M613.086 223.803C613.086 235.786 645.258 232.797 707.501 231.049C741.694 230.088 793.634 256.688 848.295 243.868C902.957 231.049 938.021 240.169 940.778 227.426" stroke="black"/>
<path d="M613.93 223.516C617.234 212.494 701.75 195.815 780.245 198.717C841.385 200.977 938.024 218.281 940.778 227.098" stroke="black" stroke-dasharray="2 2"/>
<path d="M708.102 231.049C646.02 232.797 613.93 235.786 613.93 223.803C617.234 212.655 701.75 195.786 780.245 198.72C841.385 201.006 938.024 218.508 940.778 227.426C938.028 240.169 903.054 231.049 848.534 243.868C794.013 256.688 742.207 230.088 708.102 231.049Z" fill="#D9D9D9" fill-opacity="0.5"/>
<path d="M707.545 231.043C645.303 232.791 613.13 235.781 613.13 223.797L612.854 223.641C608.18 165.95 630.262 106.582 678.133 71.9248C774.586 2.09471 954.946 109.011 940.841 227.258L940.778 227.521C938.021 240.264 903.001 231.043 848.339 243.863C793.678 256.683 741.738 230.082 707.545 231.043Z" fill="#D9D9D9" fill-opacity="0.3"/>
<path d="M940.753 227.98C940.783 227.739 940.813 227.499 940.841 227.258M940.841 227.258C954.946 109.011 774.586 2.09471 678.133 71.9248C630.262 106.582 608.18 165.95 612.854 223.641L613.13 223.797C613.13 235.781 645.303 232.791 707.545 231.043C741.738 230.082 793.678 256.683 848.339 243.863C903.001 231.043 938.021 240.264 940.778 227.521L940.841 227.258Z" stroke="black"/>
<path d="M383.338 268.519C398.265 149.986 217.367 42.492 120.718 112.464C45.0253 167.264 33.8078 283.842 90.8938 357.891C164.348 453.174 368.296 387.969 383.338 268.519Z" fill="#D9D9D9" fill-opacity="0.3" stroke="black"/>
<path d="M55.6709 264.342C58.9837 253.194 143.718 236.325 222.416 239.26C283.713 241.545 380.603 259.047 383.363 267.965" stroke="black" stroke-dasharray="2 2"/>
<path d="M150.086 271.588C87.8437 273.336 55.6709 276.326 55.6709 264.342C58.9837 253.194 143.718 236.325 222.416 239.26C283.713 241.545 380.603 259.047 383.363 267.965C380.606 280.708 345.542 271.588 290.881 284.408C236.219 297.228 184.279 270.627 150.086 271.588Z" fill="#D9D9D9" fill-opacity="0.5"/>
<path d="M55.6709 264.342C55.6709 276.326 87.8437 273.336 150.086 271.588C184.279 270.627 236.219 297.228 290.881 284.408C345.542 271.588 380.606 280.708 383.363 267.965" stroke="black"/>
<path d="M250.132 264.279C250.099 264.329 249.981 265.346 249.779 267.331C249.577 269.315 249.46 270.341 249.426 270.408V270.509H242.186C238.486 270.509 236.334 270.509 235.728 270.509C235.123 270.509 234.803 270.467 234.77 270.383V270.358C234.719 270.257 234.719 270.165 234.77 270.081L235.173 269.601C235.442 269.299 235.846 268.844 236.384 268.239C236.922 267.634 237.435 267.053 237.923 266.498L241.026 262.967L234.744 254.264L234.719 253.911C234.719 253.591 234.761 253.398 234.845 253.33C234.896 253.297 237.343 253.28 242.186 253.28H249.426V253.381C249.46 253.465 249.577 254.432 249.779 256.282C249.981 258.132 250.099 259.116 250.132 259.233V259.334H249.123V259.233C248.989 258.258 248.804 257.451 248.568 256.812C248.333 256.173 247.955 255.651 247.433 255.248C246.929 254.894 246.248 254.676 245.39 254.592C244.532 254.508 243.313 254.457 241.732 254.44H240.748H238.1L240.723 258.048C241.076 258.535 241.513 259.141 242.035 259.864C242.96 261.142 243.422 261.832 243.422 261.933C243.422 261.966 243.414 261.991 243.397 262.008L237.217 269.072C241.471 269.072 243.775 269.063 244.129 269.046C244.936 269.013 245.609 268.929 246.147 268.794C246.685 268.659 247.046 268.533 247.231 268.416C247.416 268.298 247.618 268.13 247.837 267.911C248.173 267.541 248.451 267.045 248.669 266.423C248.888 265.801 249.022 265.271 249.073 264.834L249.123 264.178H250.132V264.279Z" fill="black"/>
<path d="M346.771 119.552C346.771 119.45 346.286 119.382 345.317 119.348C344.908 119.348 344.645 119.34 344.526 119.323C344.407 119.306 344.347 119.221 344.347 119.068C344.347 119.051 344.364 118.957 344.398 118.787C344.415 118.736 344.432 118.676 344.449 118.608C344.466 118.54 344.475 118.498 344.475 118.481C344.475 118.464 344.492 118.421 344.526 118.353C344.56 118.285 344.577 118.26 344.577 118.277C344.577 118.294 344.611 118.277 344.679 118.226C344.747 118.175 344.789 118.158 344.806 118.175C344.823 118.192 344.891 118.192 345.01 118.175C345.129 118.158 345.231 118.149 345.317 118.149C345.419 118.149 345.674 118.149 346.082 118.149C346.49 118.149 346.873 118.158 347.23 118.175C348.574 118.175 349.348 118.175 349.552 118.175C349.756 118.175 349.892 118.217 349.96 118.302C349.977 118.37 350.292 120.769 350.904 125.497L351.823 132.616L352.409 131.671C352.818 131.059 353.362 130.209 354.042 129.12C354.723 128.032 355.471 126.841 356.288 125.548C359.264 120.803 360.769 118.413 360.804 118.379C360.821 118.362 360.846 118.336 360.88 118.302C360.914 118.268 360.948 118.243 360.982 118.226L361.135 118.175H363.585C363.874 118.175 364.214 118.175 364.605 118.175C364.996 118.175 365.243 118.166 365.345 118.149C365.923 118.149 366.212 118.243 366.212 118.43C366.212 118.515 366.187 118.659 366.136 118.863C366.085 119.068 366.059 119.178 366.059 119.195C365.991 119.297 365.677 119.348 365.115 119.348C364.435 119.365 364.001 119.391 363.814 119.425C363.627 119.459 363.474 119.552 363.355 119.705C363.304 119.791 362.692 122.197 361.518 126.926C360.344 131.654 359.749 134.044 359.732 134.095C359.732 134.163 359.74 134.206 359.757 134.223C359.774 134.24 359.834 134.274 359.936 134.325C360.038 134.376 360.183 134.393 360.37 134.376C360.557 134.359 360.838 134.376 361.212 134.427H362.003C362.105 134.58 362.156 134.674 362.156 134.708C362.156 134.98 362.096 135.235 361.977 135.473C361.892 135.558 361.756 135.601 361.569 135.601C361.484 135.601 361.135 135.592 360.523 135.575C359.911 135.558 359.128 135.55 358.176 135.55C357.138 135.55 356.356 135.55 355.828 135.55C355.301 135.55 355.003 135.558 354.935 135.575C354.646 135.575 354.502 135.49 354.502 135.32C354.502 135.286 354.519 135.167 354.553 134.963C354.621 134.691 354.689 134.538 354.757 134.504C354.825 134.47 355.02 134.444 355.344 134.427C355.803 134.427 356.313 134.401 356.874 134.35C357.112 134.299 357.274 134.197 357.359 134.044C357.393 133.976 357.716 132.735 358.329 130.319C358.941 127.904 359.545 125.497 360.14 123.099C360.735 120.7 361.033 119.501 361.033 119.501L356.083 127.385C352.75 132.692 351.04 135.388 350.955 135.473C350.921 135.49 350.887 135.507 350.853 135.524C350.768 135.575 350.632 135.601 350.445 135.601C350.19 135.601 350.037 135.541 349.986 135.422C349.952 135.354 349.603 132.718 348.94 127.513L347.944 119.68L346.21 126.569C345.07 131.093 344.5 133.432 344.5 133.585C344.602 134.146 345.214 134.427 346.337 134.427H346.592C346.694 134.512 346.754 134.589 346.771 134.657C346.788 134.725 346.762 134.878 346.694 135.116C346.626 135.388 346.558 135.541 346.49 135.575C346.422 135.592 346.329 135.601 346.21 135.601C346.176 135.601 346.073 135.601 345.903 135.601C345.733 135.601 345.444 135.592 345.036 135.575C344.628 135.558 344.083 135.55 343.403 135.55C342.893 135.55 342.365 135.558 341.821 135.575C341.277 135.592 340.962 135.601 340.877 135.601C340.622 135.601 340.46 135.584 340.392 135.55C340.324 135.516 340.29 135.439 340.29 135.32C340.29 135.286 340.316 135.167 340.367 134.963C340.418 134.759 340.46 134.631 340.494 134.58C340.528 134.478 340.716 134.427 341.056 134.427C342.246 134.427 343.003 134.087 343.326 133.406C343.394 133.304 343.981 131.025 345.087 126.569C346.193 122.112 346.754 119.773 346.771 119.552Z" fill="black"/>
<path d="M966.115 278.2C966.115 278.048 966.216 277.906 966.417 277.771H974.429L974.605 277.872C974.773 278.107 974.773 278.309 974.605 278.477C974.488 278.594 974.202 278.653 973.749 278.653C973.245 278.703 972.951 278.762 972.867 278.829C972.665 278.897 972.556 279.048 972.539 279.283C972.523 279.518 972.497 280.576 972.464 282.457V285.657H978.637V282.457C978.637 282.088 978.628 281.618 978.611 281.047C978.595 280.005 978.569 279.392 978.536 279.207C978.502 279.023 978.41 278.897 978.259 278.829H978.233C978.133 278.762 977.83 278.703 977.326 278.653C976.671 278.653 976.344 278.51 976.344 278.225C976.344 278.107 976.394 277.99 976.495 277.872L976.671 277.771H984.683C984.868 277.889 984.96 278.032 984.96 278.2C984.96 278.502 984.641 278.653 984.003 278.653C983.331 278.703 982.936 278.838 982.819 279.056C982.785 279.157 982.768 281.601 982.768 286.388C982.768 291.158 982.785 293.585 982.819 293.669C982.936 293.904 983.331 294.047 984.003 294.097C984.641 294.097 984.96 294.257 984.96 294.576C984.96 294.744 984.868 294.887 984.683 295.004H976.671L976.495 294.903C976.394 294.786 976.344 294.668 976.344 294.551C976.344 294.248 976.671 294.097 977.326 294.097C978.032 294.047 978.427 293.904 978.511 293.669C978.595 293.467 978.637 292.308 978.637 290.192V286.841H972.464V290.192C972.464 292.376 972.506 293.535 972.59 293.669C972.674 293.904 973.06 294.047 973.749 294.097C974.169 294.097 974.454 294.156 974.605 294.274C974.757 294.458 974.757 294.668 974.605 294.903L974.429 295.004H966.417C966.216 294.903 966.115 294.761 966.115 294.576C966.115 294.257 966.442 294.097 967.097 294.097C967.786 294.047 968.172 293.904 968.256 293.669C968.34 293.535 968.382 291.108 968.382 286.388C968.382 281.668 968.34 279.224 968.256 279.056C968.156 278.838 967.769 278.703 967.097 278.653C966.442 278.653 966.115 278.502 966.115 278.2ZM971.632 286.388V281.047C971.632 279.669 971.683 278.871 971.784 278.653H969.063C969.113 278.771 969.147 278.855 969.163 278.905C969.18 278.955 969.197 279.249 969.214 279.787C969.231 280.324 969.247 281.047 969.264 281.954C969.281 282.861 969.281 284.339 969.264 286.388C969.264 289.915 969.256 292.031 969.239 292.737C969.222 293.442 969.172 293.879 969.088 294.047C969.071 294.064 969.063 294.08 969.063 294.097H971.784C971.683 293.896 971.632 293.106 971.632 291.729V286.388ZM981.861 286.388V282.659C981.861 281.668 981.861 280.937 981.861 280.467C981.861 279.997 981.87 279.627 981.887 279.359C981.903 279.09 981.92 278.93 981.937 278.88C981.954 278.829 981.987 278.754 982.038 278.653H979.292L979.418 278.88C979.485 279.115 979.518 281.618 979.518 286.388C979.518 289.932 979.51 292.057 979.493 292.762C979.476 293.467 979.418 293.896 979.317 294.047C979.3 294.064 979.292 294.08 979.292 294.097H982.038C981.987 293.996 981.962 293.938 981.962 293.921C981.962 293.904 981.945 293.795 981.912 293.593C981.878 293.392 981.861 293.148 981.861 292.863C981.861 292.577 981.861 292.107 981.861 291.452V286.388Z" fill="black"/>
<path d="M987.732 288.68C987.732 287.522 987.816 286.421 987.984 285.38C988.152 284.339 988.345 283.44 988.563 282.684C988.781 281.928 989.092 281.189 989.495 280.467C989.898 279.745 990.218 279.182 990.453 278.779C990.688 278.376 991.041 277.939 991.511 277.469C991.981 276.999 992.258 276.713 992.342 276.612C992.426 276.512 992.636 276.335 992.972 276.083H993.3H993.4C993.636 276.083 993.753 276.159 993.753 276.31C993.753 276.36 993.61 276.537 993.325 276.839C993.039 277.141 992.695 277.587 992.292 278.174C991.889 278.762 991.477 279.485 991.057 280.341C990.637 281.198 990.285 282.357 989.999 283.818C989.714 285.279 989.571 286.9 989.571 288.68C989.571 290.461 989.714 292.073 989.999 293.518C990.285 294.962 990.629 296.13 991.032 297.02C991.435 297.91 991.847 298.632 992.267 299.187C992.687 299.741 993.039 300.186 993.325 300.522C993.61 300.858 993.753 301.034 993.753 301.051C993.753 301.202 993.627 301.278 993.375 301.278H993.3H992.972L992.267 300.673C990.688 299.245 989.537 297.465 988.815 295.332C988.093 293.199 987.732 290.982 987.732 288.68Z" fill="black"/>
<path d="M1011.94 288.756C1011.91 288.806 1011.79 289.823 1011.59 291.805C1011.39 293.787 1011.27 294.811 1011.24 294.878V294.979H1004.01C1000.31 294.979 998.162 294.979 997.557 294.979C996.953 294.979 996.634 294.937 996.6 294.853V294.828C996.55 294.727 996.55 294.635 996.6 294.551L997.003 294.072C997.272 293.77 997.675 293.316 998.213 292.712C998.75 292.107 999.262 291.527 999.749 290.973L1002.85 287.446L996.575 278.754L996.55 278.401C996.55 278.082 996.592 277.889 996.676 277.822C996.726 277.788 999.17 277.771 1004.01 277.771H1011.24V277.872C1011.27 277.956 1011.39 278.922 1011.59 280.769C1011.79 282.617 1011.91 283.6 1011.94 283.717V283.818H1010.94V283.717C1010.8 282.743 1010.62 281.937 1010.38 281.299C1010.15 280.66 1009.77 280.14 1009.25 279.736C1008.74 279.384 1008.06 279.165 1007.21 279.081C1006.35 278.997 1005.13 278.947 1003.55 278.93H1002.57H999.926L1002.55 282.533C1002.9 283.02 1003.34 283.625 1003.86 284.347C1004.78 285.624 1005.24 286.312 1005.24 286.413C1005.24 286.447 1005.23 286.472 1005.22 286.489L999.044 293.543C1003.29 293.543 1005.59 293.535 1005.95 293.518C1006.75 293.484 1007.43 293.4 1007.96 293.266C1008.5 293.132 1008.86 293.006 1009.05 292.888C1009.23 292.77 1009.43 292.602 1009.65 292.384C1009.99 292.015 1010.26 291.519 1010.48 290.898C1010.7 290.276 1010.83 289.747 1010.89 289.31L1010.94 288.655H1011.94V288.756Z" fill="black"/>
<path d="M1014.87 276.108L1014.97 276.083C1015.05 276.083 1015.13 276.083 1015.22 276.083H1015.52L1016.23 276.688C1017.81 278.116 1018.96 279.896 1019.68 282.029C1020.4 284.162 1020.76 286.379 1020.76 288.68C1020.76 289.823 1020.68 290.923 1020.51 291.981C1020.34 293.039 1020.15 293.938 1019.93 294.677C1019.71 295.416 1019.4 296.155 1019 296.894C1018.59 297.633 1018.28 298.196 1018.04 298.582C1017.81 298.968 1017.46 299.397 1017.01 299.867C1016.55 300.337 1016.29 300.614 1016.2 300.698C1016.12 300.782 1015.92 300.942 1015.62 301.177C1015.57 301.227 1015.54 301.261 1015.52 301.278H1015.22C1015.08 301.278 1014.99 301.278 1014.94 301.278C1014.89 301.278 1014.85 301.253 1014.82 301.202C1014.78 301.152 1014.76 301.076 1014.74 300.975C1014.76 300.959 1014.85 300.849 1015.02 300.648C1017.62 297.944 1018.92 293.955 1018.92 288.68C1018.92 283.406 1017.62 279.417 1015.02 276.713C1014.85 276.512 1014.76 276.402 1014.74 276.386C1014.74 276.251 1014.78 276.159 1014.87 276.108Z" fill="black"/>
<path d="M966.115 225.839C966.115 225.687 966.216 225.544 966.418 225.41H974.438L974.615 225.511C974.783 225.746 974.783 225.948 974.615 226.116C974.497 226.234 974.211 226.293 973.757 226.293C973.253 226.343 972.958 226.402 972.874 226.469C972.672 226.536 972.563 226.688 972.546 226.923C972.53 227.159 972.504 228.218 972.471 230.101V233.304H978.65V230.101C978.65 229.731 978.642 229.26 978.625 228.689C978.608 227.646 978.583 227.032 978.549 226.847C978.515 226.662 978.423 226.536 978.272 226.469H978.246C978.146 226.402 977.843 226.343 977.338 226.293C976.683 226.293 976.355 226.15 976.355 225.864C976.355 225.746 976.405 225.628 976.506 225.511L976.683 225.41H984.703C984.888 225.528 984.981 225.67 984.981 225.839C984.981 226.141 984.661 226.293 984.022 226.293C983.35 226.343 982.954 226.478 982.837 226.696C982.803 226.797 982.786 229.243 982.786 234.036C982.786 238.811 982.803 241.241 982.837 241.325C982.954 241.56 983.35 241.703 984.022 241.753C984.661 241.753 984.981 241.913 984.981 242.233C984.981 242.401 984.888 242.544 984.703 242.661H976.683L976.506 242.56C976.405 242.443 976.355 242.325 976.355 242.207C976.355 241.905 976.683 241.753 977.338 241.753C978.045 241.703 978.44 241.56 978.524 241.325C978.608 241.123 978.65 239.963 978.65 237.844V234.49H972.471V237.844C972.471 240.03 972.513 241.19 972.597 241.325C972.681 241.56 973.068 241.703 973.757 241.753C974.177 241.753 974.463 241.812 974.615 241.93C974.766 242.115 974.766 242.325 974.615 242.56L974.438 242.661H966.418C966.216 242.56 966.115 242.418 966.115 242.233C966.115 241.913 966.443 241.753 967.099 241.753C967.788 241.703 968.175 241.56 968.259 241.325C968.343 241.19 968.385 238.76 968.385 234.036C968.385 229.311 968.343 226.864 968.259 226.696C968.158 226.478 967.771 226.343 967.099 226.293C966.443 226.293 966.115 226.141 966.115 225.839ZM971.638 234.036V228.689C971.638 227.31 971.689 226.511 971.79 226.293H969.066C969.116 226.41 969.15 226.494 969.167 226.545C969.183 226.595 969.2 226.889 969.217 227.428C969.234 227.966 969.251 228.689 969.268 229.597C969.284 230.505 969.284 231.984 969.268 234.036C969.268 237.567 969.259 239.685 969.242 240.391C969.226 241.098 969.175 241.535 969.091 241.703C969.074 241.72 969.066 241.737 969.066 241.753H971.79C971.689 241.552 971.638 240.761 971.638 239.383V234.036ZM981.878 234.036V230.303C981.878 229.311 981.878 228.579 981.878 228.109C981.878 227.638 981.887 227.268 981.904 226.999C981.92 226.73 981.937 226.57 981.954 226.52C981.971 226.469 982.004 226.393 982.055 226.293H979.306L979.432 226.52C979.499 226.755 979.533 229.26 979.533 234.036C979.533 237.583 979.524 239.71 979.508 240.417C979.491 241.123 979.432 241.552 979.331 241.703C979.314 241.72 979.306 241.737 979.306 241.753H982.055C982.004 241.653 981.979 241.594 981.979 241.577C981.979 241.56 981.962 241.451 981.929 241.249C981.895 241.047 981.878 240.803 981.878 240.518C981.878 240.232 981.878 239.761 981.878 239.105V234.036Z" fill="black"/>
<path d="M989.467 227.12C989.313 225.527 989.236 224.635 989.236 224.445C989.236 224.231 989.378 224.065 989.664 223.946C989.676 223.946 989.705 223.946 989.753 223.946C989.8 223.946 989.836 223.94 989.86 223.928C990.002 223.94 990.133 223.993 990.252 224.088C990.371 224.183 990.43 224.302 990.43 224.445C990.43 224.647 990.395 225.123 990.323 225.872C990.252 226.62 990.21 227.037 990.199 227.12L991.233 226.371C991.899 225.883 992.261 225.622 992.321 225.586C992.38 225.551 992.439 225.533 992.499 225.533C992.653 225.533 992.796 225.592 992.927 225.711C993.058 225.83 993.129 225.99 993.141 226.193C993.141 226.347 993.081 226.484 992.962 226.603C992.903 226.638 992.499 226.834 991.75 227.191C991.001 227.548 990.597 227.738 990.537 227.762L991.714 228.314L992.962 228.939C993.069 229.046 993.123 229.182 993.123 229.349C993.123 229.527 993.069 229.676 992.962 229.795C992.856 229.913 992.713 229.979 992.535 229.991C992.439 229.991 992.332 229.955 992.214 229.884C992.095 229.812 991.768 229.575 991.233 229.17L990.199 228.421C990.353 230.014 990.43 230.906 990.43 231.096C990.43 231.215 990.389 231.328 990.306 231.435C990.222 231.542 990.068 231.596 989.842 231.596C989.616 231.596 989.462 231.542 989.378 231.435C989.295 231.328 989.248 231.215 989.236 231.096C989.236 230.894 989.271 230.419 989.343 229.67C989.414 228.921 989.456 228.505 989.467 228.421L988.433 229.17C987.768 229.658 987.405 229.919 987.346 229.955C987.298 229.991 987.239 230.009 987.167 230.009C987.013 230.009 986.87 229.949 986.739 229.83C986.608 229.711 986.537 229.551 986.525 229.349C986.525 229.289 986.525 229.242 986.525 229.206C986.525 229.17 986.543 229.135 986.579 229.099C986.614 229.063 986.644 229.028 986.668 228.992C986.692 228.956 986.745 228.915 986.828 228.867C986.912 228.82 986.989 228.778 987.06 228.742C987.132 228.707 987.244 228.653 987.399 228.582C987.554 228.511 987.702 228.445 987.845 228.386C987.987 228.326 988.178 228.237 988.415 228.118C988.653 227.999 988.891 227.881 989.129 227.762L986.704 226.603C986.597 226.496 986.543 226.359 986.543 226.193C986.543 226.014 986.597 225.866 986.704 225.747C986.811 225.628 986.953 225.562 987.132 225.551C987.227 225.551 987.334 225.586 987.453 225.658C987.571 225.729 987.898 225.967 988.433 226.371L989.467 227.12Z" fill="black"/>
<path d="M997.934 236.331C997.934 235.171 998.019 234.069 998.187 233.027C998.355 231.984 998.548 231.085 998.767 230.328C998.985 229.571 999.296 228.832 999.7 228.109C1000.1 227.386 1000.42 226.822 1000.66 226.419C1000.89 226.015 1001.25 225.578 1001.72 225.107C1002.19 224.636 1002.47 224.351 1002.55 224.25C1002.63 224.149 1002.84 223.972 1003.18 223.72H1003.51H1003.61C1003.84 223.72 1003.96 223.796 1003.96 223.947C1003.96 223.997 1003.82 224.174 1003.53 224.477C1003.25 224.779 1002.9 225.225 1002.5 225.813C1002.1 226.402 1001.68 227.125 1001.26 227.982C1000.84 228.84 1000.49 230 1000.2 231.463C999.919 232.926 999.776 234.548 999.776 236.331C999.776 238.113 999.919 239.727 1000.2 241.173C1000.49 242.619 1000.83 243.788 1001.24 244.679C1001.64 245.57 1002.05 246.293 1002.47 246.848C1002.89 247.403 1003.25 247.849 1003.53 248.185C1003.82 248.521 1003.96 248.698 1003.96 248.715C1003.96 248.866 1003.84 248.942 1003.58 248.942H1003.51H1003.18L1002.47 248.336C1000.89 246.907 999.742 245.125 999.019 242.989C998.296 240.854 997.934 238.634 997.934 236.331Z" fill="black"/>
<path d="M1022.17 236.406C1022.14 236.457 1022.02 237.474 1021.82 239.458C1021.62 241.442 1021.5 242.468 1021.47 242.535V242.636H1014.23C1010.53 242.636 1008.38 242.636 1007.77 242.636C1007.17 242.636 1006.85 242.594 1006.81 242.51V242.485C1006.76 242.384 1006.76 242.291 1006.81 242.207L1007.22 241.728C1007.48 241.426 1007.89 240.972 1008.43 240.366C1008.96 239.761 1009.48 239.181 1009.97 238.626L1013.07 235.095L1006.79 226.393L1006.76 226.04C1006.76 225.721 1006.8 225.528 1006.89 225.46C1006.94 225.427 1009.39 225.41 1014.23 225.41H1021.47V225.511C1021.5 225.595 1021.62 226.562 1021.82 228.411C1022.02 230.261 1022.14 231.244 1022.17 231.362V231.463H1021.16V231.362C1021.03 230.387 1020.84 229.58 1020.61 228.941C1020.37 228.302 1019.99 227.781 1019.47 227.377C1018.97 227.024 1018.29 226.805 1017.43 226.721C1016.57 226.637 1015.35 226.587 1013.77 226.57H1012.79H1010.14L1012.76 230.177C1013.12 230.664 1013.55 231.27 1014.08 231.993C1015 233.271 1015.46 233.96 1015.46 234.061C1015.46 234.094 1015.45 234.12 1015.44 234.136L1009.26 241.199C1013.51 241.199 1015.82 241.19 1016.17 241.173C1016.98 241.14 1017.65 241.056 1018.19 240.921C1018.73 240.787 1019.09 240.66 1019.27 240.543C1019.46 240.425 1019.66 240.257 1019.88 240.038C1020.21 239.668 1020.49 239.172 1020.71 238.55C1020.93 237.928 1021.06 237.398 1021.11 236.961L1021.16 236.306H1022.17V236.406Z" fill="black"/>
<path d="M1025.1 223.745L1025.2 223.72C1025.28 223.72 1025.37 223.72 1025.45 223.72H1025.75L1026.46 224.325C1028.04 225.755 1029.19 227.537 1029.92 229.672C1030.64 231.808 1031 234.027 1031 236.331C1031 237.474 1030.92 238.576 1030.75 239.635C1030.58 240.694 1030.39 241.594 1030.17 242.334C1029.95 243.073 1029.64 243.813 1029.23 244.553C1028.83 245.293 1028.51 245.856 1028.28 246.243C1028.04 246.63 1027.7 247.058 1027.24 247.529C1026.79 248 1026.52 248.277 1026.43 248.361C1026.35 248.446 1026.16 248.605 1025.85 248.841C1025.8 248.891 1025.77 248.925 1025.75 248.942H1025.45C1025.32 248.942 1025.22 248.942 1025.17 248.942C1025.12 248.942 1025.08 248.916 1025.05 248.866C1025.01 248.815 1024.99 248.74 1024.97 248.639C1024.99 248.622 1025.08 248.513 1025.25 248.311C1027.86 245.604 1029.16 241.611 1029.16 236.331C1029.16 231.051 1027.86 227.058 1025.25 224.351C1025.08 224.149 1024.99 224.039 1024.97 224.023C1024.97 223.888 1025.01 223.796 1025.1 223.745Z" fill="black"/>
<path d="M907.595 396.577C907.595 396.475 907.108 396.406 906.134 396.372C905.723 396.372 905.459 396.364 905.339 396.347C905.219 396.33 905.159 396.244 905.159 396.09C905.159 396.073 905.177 395.979 905.211 395.808C905.228 395.757 905.245 395.697 905.262 395.629C905.279 395.56 905.288 395.518 905.288 395.501C905.288 395.484 905.305 395.441 905.339 395.372C905.373 395.304 905.39 395.278 905.39 395.296C905.39 395.313 905.424 395.296 905.493 395.244C905.561 395.193 905.604 395.176 905.621 395.193C905.638 395.21 905.706 395.21 905.826 395.193C905.946 395.176 906.048 395.167 906.134 395.167C906.236 395.167 906.493 395.167 906.903 395.167C907.313 395.167 907.697 395.176 908.056 395.193C909.407 395.193 910.184 395.193 910.389 395.193C910.594 395.193 910.731 395.236 910.8 395.321C910.817 395.39 911.133 397.799 911.748 402.551L912.671 409.703L913.261 408.755C913.671 408.139 914.218 407.285 914.901 406.191C915.585 405.097 916.337 403.901 917.157 402.602C920.148 397.834 921.661 395.432 921.695 395.398C921.712 395.381 921.738 395.355 921.772 395.321C921.806 395.287 921.84 395.261 921.875 395.244L922.028 395.193H924.489C924.78 395.193 925.122 395.193 925.515 395.193C925.908 395.193 926.156 395.184 926.258 395.167C926.839 395.167 927.13 395.261 927.13 395.449C927.13 395.535 927.104 395.68 927.053 395.885C927.002 396.09 926.976 396.201 926.976 396.218C926.908 396.321 926.592 396.372 926.028 396.372C925.344 396.389 924.908 396.415 924.72 396.449C924.532 396.483 924.378 396.577 924.259 396.731C924.207 396.817 923.592 399.235 922.413 403.986C921.234 408.738 920.635 411.139 920.618 411.19C920.618 411.259 920.627 411.301 920.644 411.318C920.661 411.335 920.721 411.37 920.823 411.421C920.926 411.472 921.071 411.489 921.259 411.472C921.447 411.455 921.729 411.472 922.105 411.523H922.9C923.003 411.677 923.054 411.771 923.054 411.805C923.054 412.079 922.994 412.335 922.874 412.575C922.789 412.66 922.652 412.703 922.464 412.703C922.379 412.703 922.028 412.694 921.413 412.677C920.798 412.66 920.012 412.651 919.055 412.651C918.012 412.651 917.226 412.651 916.696 412.651C916.166 412.651 915.867 412.66 915.799 412.677C915.508 412.677 915.363 412.592 915.363 412.421C915.363 412.387 915.38 412.267 915.414 412.062C915.482 411.788 915.551 411.635 915.619 411.6C915.688 411.566 915.884 411.541 916.209 411.523C916.67 411.523 917.183 411.498 917.747 411.447C917.986 411.395 918.149 411.293 918.234 411.139C918.268 411.071 918.593 409.823 919.208 407.396C919.824 404.969 920.43 402.551 921.029 400.141C921.627 397.731 921.926 396.526 921.926 396.526L916.952 404.448C913.602 409.78 911.885 412.489 911.799 412.575C911.765 412.592 911.731 412.609 911.697 412.626C911.611 412.677 911.475 412.703 911.287 412.703C911.03 412.703 910.876 412.643 910.825 412.523C910.791 412.455 910.441 409.806 909.774 404.576L908.774 396.706L907.031 403.627C905.886 408.174 905.313 410.524 905.313 410.677C905.416 411.241 906.031 411.523 907.159 411.523H907.415C907.518 411.609 907.578 411.686 907.595 411.754C907.612 411.823 907.586 411.976 907.518 412.216C907.45 412.489 907.381 412.643 907.313 412.677C907.245 412.694 907.151 412.703 907.031 412.703C906.997 412.703 906.894 412.703 906.723 412.703C906.552 412.703 906.262 412.694 905.852 412.677C905.441 412.66 904.895 412.651 904.211 412.651C903.698 412.651 903.168 412.66 902.621 412.677C902.075 412.694 901.758 412.703 901.673 412.703C901.417 412.703 901.254 412.686 901.186 412.651C901.117 412.617 901.083 412.54 901.083 412.421C901.083 412.387 901.109 412.267 901.16 412.062C901.211 411.857 901.254 411.729 901.288 411.677C901.323 411.575 901.511 411.523 901.852 411.523C903.049 411.523 903.809 411.182 904.134 410.498C904.202 410.395 904.792 408.105 905.903 403.627C907.014 399.15 907.578 396.8 907.595 396.577Z" fill="black"/>
<path d="M930.35 397.819C930.35 397.819 930.35 397.741 930.35 397.584C930.35 397.427 930.434 397.306 930.603 397.221H941.134C941.315 397.318 941.406 397.439 941.406 397.584C941.406 397.729 941.315 397.849 941.134 397.946H930.603C930.434 397.862 930.35 397.741 930.35 397.584V397.819Z" fill="black"/>
<path d="M905.994 74.2617C905.994 74.1578 905.5 74.0885 904.513 74.0539C904.097 74.0539 903.829 74.0452 903.707 74.0279C903.586 74.0106 903.526 73.924 903.526 73.768C903.526 73.7507 903.543 73.6555 903.577 73.4822C903.595 73.4303 903.612 73.3696 903.629 73.3003C903.647 73.231 903.655 73.1877 903.655 73.1704C903.655 73.1531 903.673 73.1098 903.707 73.0405C903.742 72.9712 903.759 72.9452 903.759 72.9625C903.759 72.9799 903.794 72.9625 903.863 72.9106C903.933 72.8586 903.976 72.8413 903.993 72.8586C904.011 72.8759 904.08 72.8759 904.201 72.8586C904.322 72.8413 904.426 72.8326 904.513 72.8326C904.617 72.8326 904.877 72.8326 905.292 72.8326C905.708 72.8326 906.098 72.8413 906.462 72.8586C907.83 72.8586 908.618 72.8586 908.826 72.8586C909.034 72.8586 909.173 72.9019 909.242 72.9885C909.259 73.0578 909.58 75.5003 910.203 80.3161L911.139 87.5657L911.737 86.6042C912.152 85.9806 912.707 85.1145 913.4 84.0058C914.092 82.8972 914.855 81.6846 915.686 80.368C918.718 75.535 920.251 73.1011 920.285 73.0665C920.303 73.0492 920.329 73.0232 920.363 72.9885C920.398 72.9539 920.433 72.9279 920.467 72.9106L920.623 72.8586H923.118C923.412 72.8586 923.759 72.8586 924.157 72.8586C924.555 72.8586 924.807 72.8499 924.911 72.8326C925.499 72.8326 925.794 72.9279 925.794 73.1184C925.794 73.2051 925.768 73.3523 925.716 73.5602C925.664 73.768 925.638 73.8806 925.638 73.898C925.569 74.0019 925.248 74.0539 924.677 74.0539C923.984 74.0712 923.542 74.0972 923.351 74.1318C923.161 74.1665 923.005 74.2617 922.884 74.4177C922.832 74.5043 922.208 76.9554 921.013 81.7712C919.818 86.5869 919.211 89.0208 919.194 89.0727C919.194 89.142 919.203 89.1853 919.22 89.2027C919.237 89.22 919.298 89.2546 919.402 89.3066C919.506 89.3586 919.653 89.3759 919.844 89.3586C920.034 89.3412 920.32 89.3586 920.701 89.4105H921.507C921.611 89.5664 921.662 89.6617 921.662 89.6964C921.662 89.9735 921.602 90.2334 921.481 90.4759C921.394 90.5625 921.255 90.6058 921.065 90.6058C920.978 90.6058 920.623 90.5971 920 90.5798C919.376 90.5625 918.579 90.5538 917.609 90.5538C916.552 90.5538 915.755 90.5538 915.218 90.5538C914.681 90.5538 914.378 90.5625 914.309 90.5798C914.014 90.5798 913.867 90.4932 913.867 90.32C913.867 90.2853 913.885 90.1641 913.919 89.9562C913.988 89.679 914.058 89.5231 914.127 89.4885C914.196 89.4538 914.396 89.4279 914.725 89.4105C915.192 89.4105 915.712 89.3845 916.284 89.3326C916.526 89.2806 916.691 89.1767 916.777 89.0208C916.812 88.9515 917.141 87.6869 917.765 85.2271C918.388 82.7672 919.003 80.3161 919.61 77.8736C920.216 75.431 920.519 74.2098 920.519 74.2098L915.478 82.2389C912.083 87.6436 910.342 90.3893 910.255 90.4759C910.221 90.4932 910.186 90.5105 910.151 90.5279C910.065 90.5798 909.926 90.6058 909.736 90.6058C909.476 90.6058 909.32 90.5452 909.268 90.4239C909.233 90.3546 908.878 87.6696 908.203 82.3688L907.189 74.3917L905.422 81.4074C904.262 86.0153 903.681 88.3971 903.681 88.5531C903.785 89.1247 904.409 89.4105 905.552 89.4105H905.812C905.916 89.4971 905.977 89.5751 905.994 89.6444C906.011 89.7137 905.985 89.8696 905.916 90.1121C905.847 90.3893 905.777 90.5452 905.708 90.5798C905.639 90.5971 905.544 90.6058 905.422 90.6058C905.388 90.6058 905.284 90.6058 905.111 90.6058C904.937 90.6058 904.643 90.5971 904.227 90.5798C903.811 90.5625 903.257 90.5538 902.564 90.5538C902.044 90.5538 901.507 90.5625 900.953 90.5798C900.399 90.5971 900.078 90.6058 899.992 90.6058C899.732 90.6058 899.567 90.5885 899.498 90.5538C899.429 90.5192 899.394 90.4412 899.394 90.32C899.394 90.2853 899.42 90.1641 899.472 89.9562C899.524 89.7483 899.567 89.6184 899.602 89.5664C899.637 89.4625 899.827 89.4105 900.174 89.4105C901.386 89.4105 902.157 89.0641 902.486 88.3712C902.555 88.2672 903.153 85.946 904.279 81.4074C905.405 76.8688 905.977 74.4869 905.994 74.2617Z" fill="black"/>
<path d="M928.543 75.5205C928.543 75.5205 928.543 75.4409 928.543 75.2817C928.543 75.1225 928.629 75 928.8 74.9143H934.293V72.1586L934.311 69.403C934.434 69.2438 934.55 69.1642 934.66 69.1642C934.82 69.1642 934.942 69.2561 935.028 69.4398V74.9143H940.502C940.686 75.0122 940.778 75.1347 940.778 75.2817C940.778 75.4287 940.686 75.5511 940.502 75.6491H935.028V81.1236C934.93 81.2951 934.82 81.3808 934.697 81.3808H934.66H934.624C934.477 81.3808 934.367 81.2951 934.293 81.1236V75.6491H928.8C928.629 75.5634 928.543 75.4409 928.543 75.2817V75.5205Z" fill="black"/>
<path d="M877.435 288.752L883.153 289.553L880.988 284.201L877.435 288.752ZM919.368 278.067L919.366 278.567L919.368 278.067ZM959.373 288.117C959.567 287.656 959.567 287.656 959.567 287.656C959.567 287.655 959.566 287.655 959.566 287.655C959.565 287.655 959.564 287.654 959.562 287.654C959.559 287.652 959.555 287.651 959.549 287.648C959.537 287.643 959.52 287.636 959.497 287.626C959.451 287.607 959.383 287.579 959.293 287.542C959.114 287.468 958.85 287.361 958.508 287.224C957.825 286.949 956.832 286.558 955.59 286.088C953.105 285.149 949.622 283.896 945.628 282.64C937.654 280.134 927.593 277.601 919.37 277.567L919.366 278.567C927.43 278.601 937.372 281.093 945.328 283.594C949.3 284.843 952.765 286.089 955.236 287.024C956.471 287.491 957.458 287.88 958.136 288.152C958.475 288.288 958.736 288.394 958.913 288.467C959.001 288.503 959.068 288.531 959.112 288.55C959.135 288.559 959.152 288.566 959.163 288.571C959.168 288.573 959.173 288.575 959.175 288.576C959.177 288.576 959.178 288.577 959.178 288.577C959.179 288.577 959.179 288.577 959.179 288.577C959.179 288.577 959.179 288.577 959.373 288.117ZM919.37 277.567C906.472 277.514 889.221 283.577 881.426 286.599L881.787 287.531C889.596 284.504 906.681 278.515 919.366 278.567L919.37 277.567Z" fill="black"/>
<path d="M577 261L572 258.113V263.887L577 261ZM421 261.5H572.5V260.5H421V261.5Z" fill="black"/>
<path d="M475.421 236.199C475.421 234.836 475.889 233.686 476.825 232.75C477.761 231.814 478.837 231.346 480.052 231.346H480.397C481.793 231.346 483.009 231.863 484.043 232.898L484.561 232.134C484.643 232.019 484.725 231.896 484.807 231.765C484.889 231.633 484.971 231.526 485.053 231.444L485.127 231.346C485.144 231.346 485.176 231.346 485.226 231.346C485.275 231.346 485.324 231.338 485.374 231.321H485.472C485.521 231.321 485.595 231.37 485.694 231.469V237.307L485.546 237.455H485.103C484.922 237.455 484.815 237.431 484.782 237.381C484.749 237.332 484.708 237.168 484.659 236.889C484.38 234.819 483.551 233.448 482.171 232.775C481.563 232.512 480.948 232.38 480.323 232.38C479.453 232.38 478.747 232.676 478.205 233.267C477.663 233.858 477.392 234.548 477.392 235.337C477.392 235.895 477.531 236.404 477.811 236.864C478.09 237.324 478.484 237.693 478.993 237.973C479.157 238.038 479.864 238.227 481.112 238.539C482.36 238.851 483.05 239.04 483.181 239.106C484.117 239.467 484.881 240.083 485.472 240.953C486.063 241.824 486.367 242.834 486.384 243.983C486.384 245.314 485.957 246.513 485.103 247.58C484.249 248.648 483.041 249.19 481.481 249.206C480.562 249.206 479.74 249.066 479.018 248.787C478.295 248.508 477.794 248.253 477.515 248.024L477.072 247.679C477.006 247.761 476.883 247.925 476.702 248.171C476.521 248.418 476.357 248.648 476.209 248.861C476.062 249.075 475.988 249.19 475.988 249.206C475.955 249.222 475.873 249.231 475.741 249.231H475.643C475.594 249.231 475.52 249.181 475.421 249.083V246.201C475.421 244.246 475.429 243.253 475.446 243.22C475.479 243.138 475.643 243.097 475.938 243.097H476.259C476.357 243.195 476.406 243.302 476.406 243.417C476.406 243.942 476.489 244.46 476.653 244.969C476.817 245.478 477.096 245.979 477.49 246.472C477.885 246.964 478.427 247.358 479.116 247.654C479.806 247.95 480.627 248.097 481.58 248.097C482.352 248.097 483.017 247.785 483.575 247.161C484.134 246.537 484.413 245.774 484.413 244.87C484.413 244.164 484.232 243.524 483.871 242.949C483.51 242.374 483.033 241.98 482.442 241.766C481.522 241.536 480.915 241.38 480.619 241.298C480.537 241.282 480.315 241.233 479.954 241.15C479.593 241.068 479.322 241.003 479.141 240.953C478.96 240.904 478.698 240.814 478.353 240.682C478.008 240.551 477.737 240.403 477.54 240.239C477.343 240.075 477.104 239.878 476.825 239.648C476.546 239.418 476.324 239.13 476.16 238.785C475.667 237.981 475.421 237.118 475.421 236.199Z" fill="black"/>
<path d="M488.65 252.335H488.995C489.635 252.335 490.021 252.22 490.153 251.99V251.793C490.153 251.678 490.153 251.522 490.153 251.325C490.153 251.128 490.153 250.881 490.153 250.586C490.153 250.29 490.161 249.97 490.177 249.625C490.194 249.28 490.194 248.919 490.177 248.541C490.161 248.163 490.161 247.761 490.177 247.334C490.194 246.907 490.194 246.488 490.177 246.077C490.177 245.519 490.177 244.936 490.177 244.328C490.177 243.721 490.177 243.179 490.177 242.702C490.177 242.226 490.177 241.791 490.177 241.397C490.177 241.003 490.169 240.682 490.153 240.436C490.136 240.19 490.136 240.058 490.153 240.042C490.103 239.73 489.989 239.525 489.808 239.426C489.627 239.327 489.258 239.254 488.699 239.204H488.256V238.638C488.256 238.26 488.272 238.071 488.305 238.071L488.551 238.046C488.716 238.03 488.954 238.014 489.266 237.997C489.578 237.981 489.882 237.964 490.177 237.948C490.457 237.931 490.76 237.915 491.089 237.899C491.417 237.882 491.664 237.858 491.828 237.825C491.992 237.792 492.082 237.784 492.099 237.8H492.173V238.441L492.197 239.081L492.395 238.909C493.363 238.186 494.497 237.825 495.794 237.825C497.124 237.825 498.258 238.35 499.194 239.401C500.13 240.452 500.606 241.775 500.623 243.368C500.623 245.026 500.089 246.373 499.021 247.408C497.954 248.442 496.747 248.96 495.4 248.96C494.283 248.96 493.298 248.598 492.444 247.876L492.247 247.703V249.797V251.177C492.247 251.62 492.263 251.891 492.296 251.99C492.329 252.088 492.419 252.179 492.567 252.261C492.912 252.31 493.314 252.335 493.774 252.335H494.168V253.468H493.971L493.38 253.443C493.002 253.427 492.592 253.419 492.148 253.419C491.705 253.419 491.393 253.41 491.212 253.394C489.52 253.394 488.601 253.419 488.453 253.468H488.256V252.335H488.65ZM498.208 243.318C498.208 242.103 497.929 241.044 497.371 240.14C496.812 239.237 496.114 238.786 495.277 238.786C494.111 238.786 493.101 239.319 492.247 240.387V246.275C492.904 247.457 493.823 248.048 495.006 248.048C495.843 248.048 496.582 247.605 497.223 246.718C497.863 245.831 498.192 244.698 498.208 243.318Z" fill="black"/>
<path d="M502.495 247.556H502.84C503.48 247.556 503.866 247.441 503.998 247.211V247.014C503.998 246.866 503.998 246.677 503.998 246.447C503.998 246.217 503.998 245.946 503.998 245.634C503.998 245.322 504.006 244.969 504.022 244.575C504.039 244.181 504.039 243.77 504.022 243.343C504.006 242.916 504.006 242.464 504.022 241.988C504.039 241.512 504.039 241.044 504.022 240.584C504.022 239.976 504.022 239.336 504.022 238.662C504.022 237.989 504.022 237.373 504.022 236.815C504.022 236.256 504.022 235.764 504.022 235.337C504.022 234.91 504.014 234.548 503.998 234.253C503.981 233.957 503.981 233.817 503.998 233.834C503.948 233.522 503.833 233.317 503.653 233.218C503.472 233.119 503.103 233.046 502.544 232.996H502.101V232.43C502.101 232.052 502.117 231.863 502.15 231.863L502.396 231.838C502.561 231.822 502.799 231.806 503.111 231.789C503.423 231.773 503.727 231.756 504.022 231.74C504.301 231.723 504.605 231.707 504.934 231.691C505.262 231.674 505.509 231.65 505.673 231.617C505.837 231.584 505.927 231.576 505.944 231.592H506.018V239.352C506.018 244.558 506.026 247.178 506.042 247.211C506.108 247.342 506.207 247.432 506.338 247.482C506.683 247.531 507.085 247.556 507.545 247.556H507.939V248.689H507.742L507.175 248.664C506.798 248.648 506.395 248.639 505.968 248.639C505.541 248.639 505.229 248.631 505.032 248.615C504.835 248.598 504.523 248.598 504.096 248.615C503.669 248.631 503.259 248.648 502.864 248.664L502.298 248.689H502.101V247.556H502.495Z" fill="black"/>
<path d="M510.008 233.686C510.008 233.226 510.156 232.865 510.452 232.602C510.748 232.339 511.109 232.208 511.536 232.208C511.914 232.241 512.242 232.38 512.521 232.627C512.8 232.873 512.94 233.226 512.94 233.686C512.94 234.179 512.8 234.548 512.521 234.795C512.242 235.041 511.897 235.164 511.487 235.164C511.076 235.164 510.731 235.041 510.452 234.795C510.173 234.548 510.025 234.179 510.008 233.686ZM514.393 248.689C514.147 248.639 513.293 248.615 511.831 248.615C511.651 248.615 511.347 248.615 510.92 248.615C510.493 248.615 510.082 248.631 509.688 248.664L509.146 248.689H508.949V247.556H509.343C509.803 247.556 510.206 247.531 510.55 247.482C510.698 247.416 510.789 247.326 510.821 247.211C510.854 247.096 510.871 246.751 510.871 246.176V243.639V241.471C510.871 240.617 510.854 240.075 510.821 239.845C510.789 239.615 510.674 239.459 510.477 239.377C510.247 239.262 509.861 239.204 509.319 239.204H509.048V238.638C509.048 238.26 509.064 238.071 509.097 238.071L509.343 238.046C509.508 238.03 509.737 238.014 510.033 237.997C510.329 237.981 510.624 237.964 510.92 237.948C511.199 237.931 511.495 237.915 511.807 237.899C512.119 237.882 512.357 237.858 512.521 237.825C512.685 237.792 512.776 237.784 512.792 237.8H512.866V247.161C512.948 247.326 513.047 247.424 513.162 247.457C513.277 247.49 513.564 247.523 514.024 247.556H514.591V248.689H514.393Z" fill="black"/>
<path d="M515.822 238.293C516.693 238.227 517.366 237.767 517.842 236.913C518.319 236.059 518.581 235.057 518.631 233.908V233.538H519.616V238.071H522.942V239.204H519.616V242.752C519.632 244.805 519.641 245.963 519.641 246.225C519.641 246.488 519.698 246.751 519.813 247.014C520.043 247.654 520.445 247.974 521.02 247.974C521.743 247.974 522.186 247.391 522.351 246.225C522.367 246.094 522.375 245.716 522.375 245.092V244.23H523.361V245.092V245.388C523.361 246.652 523.016 247.613 522.326 248.27C521.882 248.713 521.308 248.935 520.601 248.935C520.043 248.935 519.559 248.837 519.148 248.64C518.737 248.442 518.425 248.188 518.212 247.876C517.998 247.564 517.842 247.276 517.744 247.014C517.645 246.751 517.588 246.488 517.571 246.225C517.555 246.11 517.547 244.895 517.547 242.579V239.204H515.601V238.293H515.822Z" fill="black"/>
</svg>
