<svg width="1863" height="477" viewBox="0 0 1863 477" fill="none" xmlns="http://www.w3.org/2000/svg">
<path d="M1270.66 234.49L1276.36 233.556L1274.32 238.957L1270.66 234.49ZM1312.75 244.293L1312.74 243.793L1312.75 244.293ZM1352.6 233.855C1352.79 234.314 1352.79 234.314 1352.79 234.314C1352.79 234.315 1352.79 234.315 1352.79 234.315C1352.79 234.315 1352.79 234.316 1352.79 234.316C1352.79 234.318 1352.78 234.319 1352.78 234.322C1352.76 234.327 1352.75 234.334 1352.72 234.344C1352.68 234.363 1352.61 234.392 1352.52 234.43C1352.34 234.504 1352.08 234.614 1351.74 234.753C1351.06 235.032 1350.08 235.429 1348.84 235.908C1346.37 236.864 1342.91 238.143 1338.93 239.431C1331 242.004 1320.98 244.634 1312.76 244.793L1312.74 243.793C1320.8 243.637 1330.71 241.047 1338.63 238.48C1342.58 237.198 1346.02 235.927 1348.48 234.975C1349.71 234.5 1350.69 234.104 1351.36 233.828C1351.7 233.69 1351.96 233.581 1352.13 233.508C1352.22 233.471 1352.29 233.443 1352.33 233.424C1352.35 233.414 1352.37 233.407 1352.38 233.402C1352.39 233.4 1352.39 233.398 1352.39 233.397C1352.4 233.397 1352.4 233.396 1352.4 233.396C1352.4 233.396 1352.4 233.396 1352.4 233.396C1352.4 233.395 1352.4 233.395 1352.6 233.855ZM1312.76 244.793C1299.87 245.042 1282.54 239.386 1274.7 236.55L1275.04 235.61C1282.9 238.45 1300.06 244.038 1312.74 243.793L1312.76 244.793Z" fill="black"/>
<path d="M1038.15 381.539C1111.61 476.821 1315.56 411.617 1330.6 292.167C1330.63 291.927 1330.66 291.686 1330.69 291.445L1330.62 291.708C1327.87 304.451 1292.85 295.23 1238.18 308.05C1183.52 320.87 1131.58 294.27 1097.39 295.23C1035.15 296.978 1002.97 299.968 1002.97 287.984L1002.7 287.829C1005.42 321.358 1017.17 354.321 1038.15 381.539Z" fill="#D9D9D9" fill-opacity="0.3" stroke="black"/>
<path d="M1097.35 295.236C1035.1 296.984 1002.93 299.974 1002.93 287.99C1006.24 276.842 1090.98 259.973 1169.68 262.908C1230.97 265.193 1327.86 282.695 1330.62 291.613C1327.87 304.356 1292.8 295.236 1238.14 308.056C1183.48 320.876 1131.54 294.275 1097.35 295.236Z" fill="#D9D9D9" fill-opacity="0.5" stroke="black"/>
<path d="M1002.09 223.803C1002.09 235.786 1034.26 232.797 1096.5 231.049C1130.69 230.088 1182.63 256.688 1237.3 243.868C1291.96 231.049 1327.02 240.169 1329.78 227.426" stroke="black"/>
<path d="M1002.93 223.516C1006.23 212.494 1090.75 195.815 1169.25 198.717C1230.38 200.977 1327.02 218.281 1329.78 227.098" stroke="black" stroke-dasharray="2 2"/>
<path d="M1097.1 231.049C1035.02 232.797 1002.93 235.786 1002.93 223.803C1006.23 212.655 1090.75 195.786 1169.25 198.72C1230.38 201.006 1327.02 218.508 1329.78 227.426C1327.03 240.169 1292.05 231.049 1237.53 243.868C1183.01 256.688 1131.21 230.088 1097.1 231.049Z" fill="#D9D9D9" fill-opacity="0.5"/>
<path d="M1096.54 231.043C1034.3 232.791 1002.13 235.781 1002.13 223.797L1001.85 223.641C997.18 165.95 1019.26 106.582 1067.13 71.9248C1163.59 2.09471 1343.95 109.011 1329.84 227.258L1329.78 227.521C1327.02 240.264 1292 231.043 1237.34 243.863C1182.68 256.683 1130.74 230.082 1096.54 231.043Z" fill="#D9D9D9" fill-opacity="0.3"/>
<path d="M1329.75 227.98C1329.78 227.739 1329.81 227.499 1329.84 227.258M1329.84 227.258C1343.95 109.011 1163.59 2.09471 1067.13 71.9248C1019.26 106.582 997.18 165.95 1001.85 223.641L1002.13 223.797C1002.13 235.781 1034.3 232.791 1096.54 231.043C1130.74 230.082 1182.68 256.683 1237.34 243.863C1292 231.043 1327.02 240.264 1329.78 227.521L1329.84 227.258Z" stroke="black"/>
<path d="M772.338 268.519C787.265 149.986 606.367 42.492 509.718 112.464C434.025 167.264 422.808 283.842 479.894 357.891C553.348 453.174 757.296 387.969 772.338 268.519Z" fill="#D9D9D9" fill-opacity="0.3" stroke="black"/>
<path d="M444.671 264.342C447.984 253.194 532.718 236.325 611.416 239.26C672.713 241.545 769.603 259.047 772.363 267.965" stroke="black" stroke-dasharray="2 2"/>
<path d="M539.086 271.588C476.844 273.336 444.671 276.326 444.671 264.342C447.984 253.194 532.718 236.325 611.416 239.26C672.713 241.545 769.603 259.047 772.363 267.965C769.606 280.708 734.542 271.588 679.88 284.408C625.219 297.228 573.279 270.627 539.086 271.588Z" fill="#D9D9D9" fill-opacity="0.5"/>
<path d="M444.671 264.342C444.671 276.326 476.844 273.336 539.086 271.588C573.279 270.627 625.219 297.228 679.88 284.408C734.542 271.588 769.606 280.708 772.363 267.965" stroke="black"/>
<path d="M639.132 264.279C639.099 264.329 638.981 265.346 638.779 267.331C638.577 269.315 638.46 270.341 638.426 270.408V270.509H631.186C627.486 270.509 625.334 270.509 624.728 270.509C624.123 270.509 623.803 270.467 623.77 270.383V270.358C623.719 270.257 623.719 270.165 623.77 270.081L624.173 269.601C624.442 269.299 624.846 268.844 625.384 268.239C625.922 267.634 626.435 267.053 626.923 266.498L630.026 262.967L623.744 254.264L623.719 253.911C623.719 253.591 623.761 253.398 623.845 253.33C623.896 253.297 626.343 253.28 631.186 253.28H638.426V253.381C638.46 253.465 638.577 254.432 638.779 256.282C638.981 258.132 639.099 259.116 639.132 259.233V259.334H638.123V259.233C637.989 258.258 637.804 257.451 637.568 256.812C637.333 256.173 636.955 255.651 636.433 255.248C635.929 254.894 635.248 254.676 634.39 254.592C633.532 254.508 632.313 254.457 630.732 254.44H629.748H627.1L629.723 258.048C630.076 258.535 630.513 259.141 631.035 259.864C631.96 261.142 632.422 261.832 632.422 261.933C632.422 261.966 632.414 261.991 632.397 262.008L626.217 269.072C630.471 269.072 632.775 269.063 633.129 269.046C633.936 269.013 634.609 268.929 635.147 268.794C635.685 268.659 636.046 268.533 636.231 268.416C636.416 268.298 636.618 268.13 636.837 267.911C637.173 267.541 637.451 267.045 637.669 266.423C637.888 265.801 638.022 265.271 638.073 264.834L638.123 264.178H639.132V264.279Z" fill="black"/>
<path d="M735.771 119.552C735.771 119.45 735.286 119.382 734.317 119.348C733.908 119.348 733.645 119.34 733.526 119.323C733.407 119.306 733.347 119.221 733.347 119.068C733.347 119.051 733.364 118.957 733.398 118.787C733.415 118.736 733.432 118.676 733.449 118.608C733.466 118.54 733.475 118.498 733.475 118.481C733.475 118.464 733.492 118.421 733.526 118.353C733.56 118.285 733.577 118.26 733.577 118.277C733.577 118.294 733.611 118.277 733.679 118.226C733.747 118.175 733.789 118.158 733.806 118.175C733.823 118.192 733.891 118.192 734.01 118.175C734.129 118.158 734.231 118.149 734.317 118.149C734.419 118.149 734.674 118.149 735.082 118.149C735.49 118.149 735.873 118.158 736.23 118.175C737.574 118.175 738.348 118.175 738.552 118.175C738.756 118.175 738.892 118.217 738.96 118.302C738.977 118.37 739.292 120.769 739.904 125.497L740.823 132.616L741.409 131.671C741.818 131.059 742.362 130.209 743.042 129.12C743.723 128.032 744.471 126.841 745.288 125.548C748.264 120.803 749.769 118.413 749.804 118.379C749.821 118.362 749.846 118.336 749.88 118.302C749.914 118.268 749.948 118.243 749.982 118.226L750.135 118.175H752.585C752.874 118.175 753.214 118.175 753.605 118.175C753.996 118.175 754.243 118.166 754.345 118.149C754.923 118.149 755.212 118.243 755.212 118.43C755.212 118.515 755.187 118.659 755.136 118.863C755.085 119.068 755.059 119.178 755.059 119.195C754.991 119.297 754.677 119.348 754.115 119.348C753.435 119.365 753.001 119.391 752.814 119.425C752.627 119.459 752.474 119.552 752.355 119.705C752.304 119.791 751.692 122.197 750.518 126.926C749.344 131.654 748.749 134.044 748.732 134.095C748.732 134.163 748.74 134.206 748.757 134.223C748.774 134.24 748.834 134.274 748.936 134.325C749.038 134.376 749.183 134.393 749.37 134.376C749.557 134.359 749.838 134.376 750.212 134.427H751.003C751.105 134.58 751.156 134.674 751.156 134.708C751.156 134.98 751.096 135.235 750.977 135.473C750.892 135.558 750.756 135.601 750.569 135.601C750.484 135.601 750.135 135.592 749.523 135.575C748.911 135.558 748.128 135.55 747.176 135.55C746.138 135.55 745.356 135.55 744.828 135.55C744.301 135.55 744.003 135.558 743.935 135.575C743.646 135.575 743.502 135.49 743.502 135.32C743.502 135.286 743.519 135.167 743.553 134.963C743.621 134.691 743.689 134.538 743.757 134.504C743.825 134.47 744.02 134.444 744.344 134.427C744.803 134.427 745.313 134.401 745.874 134.35C746.112 134.299 746.274 134.197 746.359 134.044C746.393 133.976 746.716 132.735 747.329 130.319C747.941 127.904 748.545 125.497 749.14 123.099C749.735 120.7 750.033 119.501 750.033 119.501L745.083 127.385C741.75 132.692 740.04 135.388 739.955 135.473C739.921 135.49 739.887 135.507 739.853 135.524C739.768 135.575 739.632 135.601 739.445 135.601C739.19 135.601 739.037 135.541 738.986 135.422C738.952 135.354 738.603 132.718 737.94 127.513L736.944 119.68L735.21 126.569C734.07 131.093 733.5 133.432 733.5 133.585C733.602 134.146 734.214 134.427 735.337 134.427H735.592C735.694 134.512 735.754 134.589 735.771 134.657C735.788 134.725 735.762 134.878 735.694 135.116C735.626 135.388 735.558 135.541 735.49 135.575C735.422 135.592 735.329 135.601 735.21 135.601C735.176 135.601 735.073 135.601 734.903 135.601C734.733 135.601 734.444 135.592 734.036 135.575C733.628 135.558 733.083 135.55 732.403 135.55C731.893 135.55 731.365 135.558 730.821 135.575C730.277 135.592 729.962 135.601 729.877 135.601C729.622 135.601 729.46 135.584 729.392 135.55C729.324 135.516 729.29 135.439 729.29 135.32C729.29 135.286 729.316 135.167 729.367 134.963C729.418 134.759 729.46 134.631 729.494 134.58C729.528 134.478 729.716 134.427 730.056 134.427C731.246 134.427 732.003 134.087 732.326 133.406C732.394 133.304 732.981 131.025 734.087 126.569C735.193 122.112 735.754 119.773 735.771 119.552Z" fill="black"/>
<path d="M1355.11 278.2C1355.11 278.048 1355.22 277.906 1355.42 277.771H1363.43L1363.61 277.872C1363.77 278.107 1363.77 278.309 1363.61 278.477C1363.49 278.594 1363.2 278.653 1362.75 278.653C1362.24 278.703 1361.95 278.762 1361.87 278.829C1361.67 278.897 1361.56 279.048 1361.54 279.283C1361.52 279.518 1361.5 280.576 1361.46 282.457V285.657H1367.64V282.457C1367.64 282.088 1367.63 281.618 1367.61 281.047C1367.59 280.005 1367.57 279.392 1367.54 279.207C1367.5 279.023 1367.41 278.897 1367.26 278.829H1367.23C1367.13 278.762 1366.83 278.703 1366.33 278.653C1365.67 278.653 1365.34 278.51 1365.34 278.225C1365.34 278.107 1365.39 277.99 1365.49 277.872L1365.67 277.771H1373.68C1373.87 277.889 1373.96 278.032 1373.96 278.2C1373.96 278.502 1373.64 278.653 1373 278.653C1372.33 278.703 1371.94 278.838 1371.82 279.056C1371.79 279.157 1371.77 281.601 1371.77 286.388C1371.77 291.158 1371.79 293.585 1371.82 293.669C1371.94 293.904 1372.33 294.047 1373 294.097C1373.64 294.097 1373.96 294.257 1373.96 294.576C1373.96 294.744 1373.87 294.887 1373.68 295.004H1365.67L1365.49 294.903C1365.39 294.786 1365.34 294.668 1365.34 294.551C1365.34 294.248 1365.67 294.097 1366.33 294.097C1367.03 294.047 1367.43 293.904 1367.51 293.669C1367.59 293.467 1367.64 292.308 1367.64 290.192V286.841H1361.46V290.192C1361.46 292.376 1361.51 293.535 1361.59 293.669C1361.67 293.904 1362.06 294.047 1362.75 294.097C1363.17 294.097 1363.45 294.156 1363.61 294.274C1363.76 294.458 1363.76 294.668 1363.61 294.903L1363.43 295.004H1355.42C1355.22 294.903 1355.11 294.761 1355.11 294.576C1355.11 294.257 1355.44 294.097 1356.1 294.097C1356.79 294.047 1357.17 293.904 1357.26 293.669C1357.34 293.535 1357.38 291.108 1357.38 286.388C1357.38 281.668 1357.34 279.224 1357.26 279.056C1357.16 278.838 1356.77 278.703 1356.1 278.653C1355.44 278.653 1355.11 278.502 1355.11 278.2ZM1360.63 286.388V281.047C1360.63 279.669 1360.68 278.871 1360.78 278.653H1358.06C1358.11 278.771 1358.15 278.855 1358.16 278.905C1358.18 278.955 1358.2 279.249 1358.21 279.787C1358.23 280.324 1358.25 281.047 1358.26 281.954C1358.28 282.861 1358.28 284.339 1358.26 286.388C1358.26 289.915 1358.26 292.031 1358.24 292.737C1358.22 293.442 1358.17 293.879 1358.09 294.047C1358.07 294.064 1358.06 294.08 1358.06 294.097H1360.78C1360.68 293.896 1360.63 293.106 1360.63 291.729V286.388ZM1370.86 286.388V282.659C1370.86 281.668 1370.86 280.937 1370.86 280.467C1370.86 279.997 1370.87 279.627 1370.89 279.359C1370.9 279.09 1370.92 278.93 1370.94 278.88C1370.95 278.829 1370.99 278.754 1371.04 278.653H1368.29L1368.42 278.88C1368.48 279.115 1368.52 281.618 1368.52 286.388C1368.52 289.932 1368.51 292.057 1368.49 292.762C1368.48 293.467 1368.42 293.896 1368.32 294.047C1368.3 294.064 1368.29 294.08 1368.29 294.097H1371.04C1370.99 293.996 1370.96 293.938 1370.96 293.921C1370.96 293.904 1370.95 293.795 1370.91 293.593C1370.88 293.392 1370.86 293.148 1370.86 292.863C1370.86 292.577 1370.86 292.107 1370.86 291.452V286.388Z" fill="black"/>
<path d="M1376.73 288.68C1376.73 287.522 1376.82 286.421 1376.98 285.38C1377.15 284.339 1377.34 283.44 1377.56 282.684C1377.78 281.928 1378.09 281.189 1378.5 280.467C1378.9 279.745 1379.22 279.182 1379.45 278.779C1379.69 278.376 1380.04 277.939 1380.51 277.469C1380.98 276.999 1381.26 276.713 1381.34 276.612C1381.43 276.512 1381.64 276.335 1381.97 276.083H1382.3H1382.4C1382.64 276.083 1382.75 276.159 1382.75 276.31C1382.75 276.36 1382.61 276.537 1382.32 276.839C1382.04 277.141 1381.69 277.587 1381.29 278.174C1380.89 278.762 1380.48 279.485 1380.06 280.341C1379.64 281.198 1379.28 282.357 1379 283.818C1378.71 285.279 1378.57 286.9 1378.57 288.68C1378.57 290.461 1378.71 292.073 1379 293.518C1379.28 294.962 1379.63 296.13 1380.03 297.02C1380.44 297.91 1380.85 298.632 1381.27 299.187C1381.69 299.741 1382.04 300.186 1382.32 300.522C1382.61 300.858 1382.75 301.034 1382.75 301.051C1382.75 301.202 1382.63 301.278 1382.38 301.278H1382.3H1381.97L1381.27 300.673C1379.69 299.245 1378.54 297.465 1377.82 295.332C1377.09 293.199 1376.73 290.982 1376.73 288.68Z" fill="black"/>
<path d="M1400.94 288.756C1400.91 288.806 1400.79 289.823 1400.59 291.805C1400.39 293.787 1400.27 294.811 1400.24 294.878V294.979H1393.01C1389.31 294.979 1387.16 294.979 1386.56 294.979C1385.95 294.979 1385.63 294.937 1385.6 294.853V294.828C1385.55 294.727 1385.55 294.635 1385.6 294.551L1386 294.072C1386.27 293.77 1386.68 293.316 1387.21 292.712C1387.75 292.107 1388.26 291.527 1388.75 290.973L1391.85 287.446L1385.57 278.754L1385.55 278.401C1385.55 278.082 1385.59 277.889 1385.68 277.822C1385.73 277.788 1388.17 277.771 1393.01 277.771H1400.24V277.872C1400.27 277.956 1400.39 278.922 1400.59 280.769C1400.79 282.617 1400.91 283.6 1400.94 283.717V283.818H1399.94V283.717C1399.8 282.743 1399.62 281.937 1399.38 281.299C1399.15 280.66 1398.77 280.14 1398.25 279.736C1397.74 279.384 1397.06 279.165 1396.21 279.081C1395.35 278.997 1394.13 278.947 1392.55 278.93H1391.57H1388.93L1391.55 282.533C1391.9 283.02 1392.34 283.625 1392.86 284.347C1393.78 285.624 1394.24 286.312 1394.24 286.413C1394.24 286.447 1394.23 286.472 1394.22 286.489L1388.04 293.543C1392.29 293.543 1394.59 293.535 1394.95 293.518C1395.75 293.484 1396.43 293.4 1396.96 293.266C1397.5 293.132 1397.86 293.006 1398.05 292.888C1398.23 292.77 1398.43 292.602 1398.65 292.384C1398.99 292.015 1399.26 291.519 1399.48 290.898C1399.7 290.276 1399.83 289.747 1399.89 289.31L1399.94 288.655H1400.94V288.756Z" fill="black"/>
<path d="M1403.87 276.108L1403.97 276.083C1404.05 276.083 1404.13 276.083 1404.22 276.083H1404.52L1405.23 276.688C1406.81 278.116 1407.96 279.896 1408.68 282.029C1409.4 284.162 1409.76 286.379 1409.76 288.68C1409.76 289.823 1409.68 290.923 1409.51 291.981C1409.34 293.039 1409.15 293.938 1408.93 294.677C1408.71 295.416 1408.4 296.155 1408 296.894C1407.59 297.633 1407.28 298.196 1407.04 298.582C1406.81 298.968 1406.46 299.397 1406.01 299.867C1405.55 300.337 1405.29 300.614 1405.2 300.698C1405.12 300.782 1404.92 300.942 1404.62 301.177C1404.57 301.227 1404.54 301.261 1404.52 301.278H1404.22C1404.08 301.278 1403.99 301.278 1403.94 301.278C1403.89 301.278 1403.85 301.253 1403.82 301.202C1403.78 301.152 1403.76 301.076 1403.74 300.975C1403.76 300.959 1403.85 300.849 1404.02 300.648C1406.62 297.944 1407.92 293.955 1407.92 288.68C1407.92 283.406 1406.62 279.417 1404.02 276.713C1403.85 276.512 1403.76 276.402 1403.74 276.386C1403.74 276.251 1403.78 276.159 1403.87 276.108Z" fill="black"/>
<path d="M1355.11 225.839C1355.11 225.687 1355.22 225.544 1355.42 225.41H1363.44L1363.61 225.511C1363.78 225.746 1363.78 225.948 1363.61 226.116C1363.5 226.234 1363.21 226.293 1362.76 226.293C1362.25 226.343 1361.96 226.402 1361.87 226.469C1361.67 226.536 1361.56 226.688 1361.55 226.923C1361.53 227.159 1361.5 228.218 1361.47 230.101V233.304H1367.65V230.101C1367.65 229.731 1367.64 229.26 1367.62 228.689C1367.61 227.646 1367.58 227.032 1367.55 226.847C1367.52 226.662 1367.42 226.536 1367.27 226.469H1367.25C1367.15 226.402 1366.84 226.343 1366.34 226.293C1365.68 226.293 1365.35 226.15 1365.35 225.864C1365.35 225.746 1365.41 225.628 1365.51 225.511L1365.68 225.41H1373.7C1373.89 225.528 1373.98 225.67 1373.98 225.839C1373.98 226.141 1373.66 226.293 1373.02 226.293C1372.35 226.343 1371.95 226.478 1371.84 226.696C1371.8 226.797 1371.79 229.243 1371.79 234.036C1371.79 238.811 1371.8 241.241 1371.84 241.325C1371.95 241.56 1372.35 241.703 1373.02 241.753C1373.66 241.753 1373.98 241.913 1373.98 242.233C1373.98 242.401 1373.89 242.544 1373.7 242.661H1365.68L1365.51 242.56C1365.41 242.443 1365.35 242.325 1365.35 242.207C1365.35 241.905 1365.68 241.753 1366.34 241.753C1367.04 241.703 1367.44 241.56 1367.52 241.325C1367.61 241.123 1367.65 239.963 1367.65 237.844V234.49H1361.47V237.844C1361.47 240.03 1361.51 241.19 1361.6 241.325C1361.68 241.56 1362.07 241.703 1362.76 241.753C1363.18 241.753 1363.46 241.812 1363.61 241.93C1363.77 242.115 1363.77 242.325 1363.61 242.56L1363.44 242.661H1355.42C1355.22 242.56 1355.11 242.418 1355.11 242.233C1355.11 241.913 1355.44 241.753 1356.1 241.753C1356.79 241.703 1357.17 241.56 1357.26 241.325C1357.34 241.19 1357.38 238.76 1357.38 234.036C1357.38 229.311 1357.34 226.864 1357.26 226.696C1357.16 226.478 1356.77 226.343 1356.1 226.293C1355.44 226.293 1355.11 226.141 1355.11 225.839ZM1360.64 234.036V228.689C1360.64 227.31 1360.69 226.511 1360.79 226.293H1358.07C1358.12 226.41 1358.15 226.494 1358.17 226.545C1358.18 226.595 1358.2 226.889 1358.22 227.428C1358.23 227.966 1358.25 228.689 1358.27 229.597C1358.28 230.505 1358.28 231.984 1358.27 234.036C1358.27 237.567 1358.26 239.685 1358.24 240.391C1358.23 241.098 1358.18 241.535 1358.09 241.703C1358.07 241.72 1358.07 241.737 1358.07 241.753H1360.79C1360.69 241.552 1360.64 240.761 1360.64 239.383V234.036ZM1370.88 234.036V230.303C1370.88 229.311 1370.88 228.579 1370.88 228.109C1370.88 227.638 1370.89 227.268 1370.9 226.999C1370.92 226.73 1370.94 226.57 1370.95 226.52C1370.97 226.469 1371 226.393 1371.05 226.293H1368.31L1368.43 226.52C1368.5 226.755 1368.53 229.26 1368.53 234.036C1368.53 237.583 1368.52 239.71 1368.51 240.417C1368.49 241.123 1368.43 241.552 1368.33 241.703C1368.31 241.72 1368.31 241.737 1368.31 241.753H1371.05C1371 241.653 1370.98 241.594 1370.98 241.577C1370.98 241.56 1370.96 241.451 1370.93 241.249C1370.9 241.047 1370.88 240.803 1370.88 240.518C1370.88 240.232 1370.88 239.761 1370.88 239.105V234.036Z" fill="black"/>
<path d="M1378.47 227.12C1378.31 225.527 1378.24 224.635 1378.24 224.445C1378.24 224.231 1378.38 224.065 1378.66 223.946C1378.68 223.946 1378.71 223.946 1378.75 223.946C1378.8 223.946 1378.84 223.94 1378.86 223.928C1379 223.94 1379.13 223.993 1379.25 224.088C1379.37 224.183 1379.43 224.302 1379.43 224.445C1379.43 224.647 1379.39 225.123 1379.32 225.872C1379.25 226.62 1379.21 227.037 1379.2 227.12L1380.23 226.371C1380.9 225.883 1381.26 225.622 1381.32 225.586C1381.38 225.551 1381.44 225.533 1381.5 225.533C1381.65 225.533 1381.8 225.592 1381.93 225.711C1382.06 225.83 1382.13 225.99 1382.14 226.193C1382.14 226.347 1382.08 226.484 1381.96 226.603C1381.9 226.638 1381.5 226.834 1380.75 227.191C1380 227.548 1379.6 227.738 1379.54 227.762L1380.71 228.314L1381.96 228.939C1382.07 229.046 1382.12 229.182 1382.12 229.349C1382.12 229.527 1382.07 229.676 1381.96 229.795C1381.86 229.913 1381.71 229.979 1381.53 229.991C1381.44 229.991 1381.33 229.955 1381.21 229.884C1381.09 229.812 1380.77 229.575 1380.23 229.17L1379.2 228.421C1379.35 230.014 1379.43 230.906 1379.43 231.096C1379.43 231.215 1379.39 231.328 1379.31 231.435C1379.22 231.542 1379.07 231.596 1378.84 231.596C1378.62 231.596 1378.46 231.542 1378.38 231.435C1378.3 231.328 1378.25 231.215 1378.24 231.096C1378.24 230.894 1378.27 230.419 1378.34 229.67C1378.41 228.921 1378.46 228.505 1378.47 228.421L1377.43 229.17C1376.77 229.658 1376.4 229.919 1376.35 229.955C1376.3 229.991 1376.24 230.009 1376.17 230.009C1376.01 230.009 1375.87 229.949 1375.74 229.83C1375.61 229.711 1375.54 229.551 1375.53 229.349C1375.53 229.289 1375.53 229.242 1375.53 229.206C1375.53 229.17 1375.54 229.135 1375.58 229.099C1375.61 229.063 1375.64 229.028 1375.67 228.992C1375.69 228.956 1375.75 228.915 1375.83 228.867C1375.91 228.82 1375.99 228.778 1376.06 228.742C1376.13 228.707 1376.24 228.653 1376.4 228.582C1376.55 228.511 1376.7 228.445 1376.84 228.386C1376.99 228.326 1377.18 228.237 1377.42 228.118C1377.65 227.999 1377.89 227.881 1378.13 227.762L1375.7 226.603C1375.6 226.496 1375.54 226.359 1375.54 226.193C1375.54 226.014 1375.6 225.866 1375.7 225.747C1375.81 225.628 1375.95 225.562 1376.13 225.551C1376.23 225.551 1376.33 225.586 1376.45 225.658C1376.57 225.729 1376.9 225.967 1377.43 226.371L1378.47 227.12Z" fill="black"/>
<path d="M1386.93 236.331C1386.93 235.171 1387.02 234.069 1387.19 233.027C1387.35 231.984 1387.55 231.085 1387.77 230.328C1387.99 229.571 1388.3 228.832 1388.7 228.109C1389.1 227.386 1389.42 226.822 1389.66 226.419C1389.89 226.015 1390.25 225.578 1390.72 225.107C1391.19 224.636 1391.47 224.351 1391.55 224.25C1391.63 224.149 1391.84 223.972 1392.18 223.72H1392.51H1392.61C1392.84 223.72 1392.96 223.796 1392.96 223.947C1392.96 223.997 1392.82 224.174 1392.53 224.477C1392.25 224.779 1391.9 225.225 1391.5 225.813C1391.1 226.402 1390.68 227.125 1390.26 227.982C1389.84 228.84 1389.49 230 1389.2 231.463C1388.92 232.926 1388.78 234.548 1388.78 236.331C1388.78 238.113 1388.92 239.727 1389.2 241.173C1389.49 242.619 1389.83 243.788 1390.24 244.679C1390.64 245.57 1391.05 246.293 1391.47 246.848C1391.89 247.403 1392.25 247.849 1392.53 248.185C1392.82 248.521 1392.96 248.698 1392.96 248.715C1392.96 248.866 1392.84 248.942 1392.58 248.942H1392.51H1392.18L1391.47 248.336C1389.89 246.907 1388.74 245.125 1388.02 242.989C1387.3 240.854 1386.93 238.634 1386.93 236.331Z" fill="black"/>
<path d="M1411.17 236.406C1411.14 236.457 1411.02 237.474 1410.82 239.458C1410.62 241.442 1410.5 242.468 1410.47 242.535V242.636H1403.23C1399.53 242.636 1397.38 242.636 1396.77 242.636C1396.17 242.636 1395.85 242.594 1395.81 242.51V242.485C1395.76 242.384 1395.76 242.291 1395.81 242.207L1396.22 241.728C1396.48 241.426 1396.89 240.972 1397.43 240.366C1397.96 239.761 1398.48 239.181 1398.97 238.626L1402.07 235.095L1395.79 226.393L1395.76 226.04C1395.76 225.721 1395.8 225.528 1395.89 225.46C1395.94 225.427 1398.39 225.41 1403.23 225.41H1410.47V225.511C1410.5 225.595 1410.62 226.562 1410.82 228.411C1411.02 230.261 1411.14 231.244 1411.17 231.362V231.463H1410.16V231.362C1410.03 230.387 1409.84 229.58 1409.61 228.941C1409.37 228.302 1408.99 227.781 1408.47 227.377C1407.97 227.024 1407.29 226.805 1406.43 226.721C1405.57 226.637 1404.35 226.587 1402.77 226.57H1401.79H1399.14L1401.76 230.177C1402.12 230.664 1402.55 231.27 1403.08 231.993C1404 233.271 1404.46 233.96 1404.46 234.061C1404.46 234.094 1404.45 234.12 1404.44 234.136L1398.26 241.199C1402.51 241.199 1404.82 241.19 1405.17 241.173C1405.98 241.14 1406.65 241.056 1407.19 240.921C1407.73 240.787 1408.09 240.66 1408.27 240.543C1408.46 240.425 1408.66 240.257 1408.88 240.038C1409.21 239.668 1409.49 239.172 1409.71 238.55C1409.93 237.928 1410.06 237.398 1410.11 236.961L1410.16 236.306H1411.17V236.406Z" fill="black"/>
<path d="M1414.1 223.745L1414.2 223.72C1414.28 223.72 1414.37 223.72 1414.45 223.72H1414.75L1415.46 224.325C1417.04 225.755 1418.19 227.537 1418.92 229.672C1419.64 231.808 1420 234.027 1420 236.331C1420 237.474 1419.92 238.576 1419.75 239.635C1419.58 240.694 1419.39 241.594 1419.17 242.334C1418.95 243.073 1418.64 243.813 1418.23 244.553C1417.83 245.293 1417.51 245.856 1417.28 246.243C1417.04 246.63 1416.7 247.058 1416.24 247.529C1415.79 248 1415.52 248.277 1415.43 248.361C1415.35 248.446 1415.16 248.605 1414.85 248.841C1414.8 248.891 1414.77 248.925 1414.75 248.942H1414.45C1414.32 248.942 1414.22 248.942 1414.17 248.942C1414.12 248.942 1414.08 248.916 1414.05 248.866C1414.01 248.815 1413.99 248.74 1413.97 248.639C1413.99 248.622 1414.08 248.513 1414.25 248.311C1416.86 245.604 1418.16 241.611 1418.16 236.331C1418.16 231.051 1416.86 227.058 1414.25 224.351C1414.08 224.149 1413.99 224.039 1413.97 224.023C1413.97 223.888 1414.01 223.796 1414.1 223.745Z" fill="black"/>
<path d="M1296.59 396.577C1296.59 396.475 1296.11 396.406 1295.13 396.372C1294.72 396.372 1294.46 396.364 1294.34 396.347C1294.22 396.33 1294.16 396.244 1294.16 396.09C1294.16 396.073 1294.18 395.979 1294.21 395.808C1294.23 395.757 1294.24 395.697 1294.26 395.629C1294.28 395.56 1294.29 395.518 1294.29 395.501C1294.29 395.484 1294.3 395.441 1294.34 395.372C1294.37 395.304 1294.39 395.278 1294.39 395.296C1294.39 395.313 1294.42 395.296 1294.49 395.244C1294.56 395.193 1294.6 395.176 1294.62 395.193C1294.64 395.21 1294.71 395.21 1294.83 395.193C1294.95 395.176 1295.05 395.167 1295.13 395.167C1295.24 395.167 1295.49 395.167 1295.9 395.167C1296.31 395.167 1296.7 395.176 1297.06 395.193C1298.41 395.193 1299.18 395.193 1299.39 395.193C1299.59 395.193 1299.73 395.236 1299.8 395.321C1299.82 395.39 1300.13 397.799 1300.75 402.551L1301.67 409.703L1302.26 408.755C1302.67 408.139 1303.22 407.285 1303.9 406.191C1304.59 405.097 1305.34 403.901 1306.16 402.602C1309.15 397.834 1310.66 395.432 1310.7 395.398C1310.71 395.381 1310.74 395.355 1310.77 395.321C1310.81 395.287 1310.84 395.261 1310.87 395.244L1311.03 395.193H1313.49C1313.78 395.193 1314.12 395.193 1314.51 395.193C1314.91 395.193 1315.16 395.184 1315.26 395.167C1315.84 395.167 1316.13 395.261 1316.13 395.449C1316.13 395.535 1316.1 395.68 1316.05 395.885C1316 396.09 1315.98 396.201 1315.98 396.218C1315.91 396.321 1315.59 396.372 1315.03 396.372C1314.34 396.389 1313.91 396.415 1313.72 396.449C1313.53 396.483 1313.38 396.577 1313.26 396.731C1313.21 396.817 1312.59 399.235 1311.41 403.986C1310.23 408.738 1309.64 411.139 1309.62 411.19C1309.62 411.259 1309.63 411.301 1309.64 411.318C1309.66 411.335 1309.72 411.37 1309.82 411.421C1309.93 411.472 1310.07 411.489 1310.26 411.472C1310.45 411.455 1310.73 411.472 1311.11 411.523H1311.9C1312 411.677 1312.05 411.771 1312.05 411.805C1312.05 412.079 1311.99 412.335 1311.87 412.575C1311.79 412.66 1311.65 412.703 1311.46 412.703C1311.38 412.703 1311.03 412.694 1310.41 412.677C1309.8 412.66 1309.01 412.651 1308.05 412.651C1307.01 412.651 1306.23 412.651 1305.7 412.651C1305.17 412.651 1304.87 412.66 1304.8 412.677C1304.51 412.677 1304.36 412.592 1304.36 412.421C1304.36 412.387 1304.38 412.267 1304.41 412.062C1304.48 411.788 1304.55 411.635 1304.62 411.6C1304.69 411.566 1304.88 411.541 1305.21 411.523C1305.67 411.523 1306.18 411.498 1306.75 411.447C1306.99 411.395 1307.15 411.293 1307.23 411.139C1307.27 411.071 1307.59 409.823 1308.21 407.396C1308.82 404.969 1309.43 402.551 1310.03 400.141C1310.63 397.731 1310.93 396.526 1310.93 396.526L1305.95 404.448C1302.6 409.78 1300.88 412.489 1300.8 412.575C1300.77 412.592 1300.73 412.609 1300.7 412.626C1300.61 412.677 1300.47 412.703 1300.29 412.703C1300.03 412.703 1299.88 412.643 1299.83 412.523C1299.79 412.455 1299.44 409.806 1298.77 404.576L1297.77 396.706L1296.03 403.627C1294.89 408.174 1294.31 410.524 1294.31 410.677C1294.42 411.241 1295.03 411.523 1296.16 411.523H1296.42C1296.52 411.609 1296.58 411.686 1296.59 411.754C1296.61 411.823 1296.59 411.976 1296.52 412.216C1296.45 412.489 1296.38 412.643 1296.31 412.677C1296.24 412.694 1296.15 412.703 1296.03 412.703C1296 412.703 1295.89 412.703 1295.72 412.703C1295.55 412.703 1295.26 412.694 1294.85 412.677C1294.44 412.66 1293.89 412.651 1293.21 412.651C1292.7 412.651 1292.17 412.66 1291.62 412.677C1291.07 412.694 1290.76 412.703 1290.67 412.703C1290.42 412.703 1290.25 412.686 1290.19 412.651C1290.12 412.617 1290.08 412.54 1290.08 412.421C1290.08 412.387 1290.11 412.267 1290.16 412.062C1290.21 411.857 1290.25 411.729 1290.29 411.677C1290.32 411.575 1290.51 411.523 1290.85 411.523C1292.05 411.523 1292.81 411.182 1293.13 410.498C1293.2 410.395 1293.79 408.105 1294.9 403.627C1296.01 399.15 1296.58 396.8 1296.59 396.577Z" fill="black"/>
<path d="M1319.35 397.819C1319.35 397.819 1319.35 397.741 1319.35 397.584C1319.35 397.427 1319.43 397.306 1319.6 397.221H1330.13C1330.32 397.318 1330.41 397.439 1330.41 397.584C1330.41 397.729 1330.32 397.849 1330.13 397.946H1319.6C1319.43 397.862 1319.35 397.741 1319.35 397.584V397.819Z" fill="black"/>
<path d="M1294.99 74.2617C1294.99 74.1578 1294.5 74.0885 1293.51 74.0539C1293.1 74.0539 1292.83 74.0452 1292.71 74.0279C1292.59 74.0106 1292.53 73.924 1292.53 73.768C1292.53 73.7507 1292.54 73.6555 1292.58 73.4822C1292.59 73.4303 1292.61 73.3696 1292.63 73.3003C1292.65 73.231 1292.66 73.1877 1292.66 73.1704C1292.66 73.1531 1292.67 73.1098 1292.71 73.0405C1292.74 72.9712 1292.76 72.9452 1292.76 72.9625C1292.76 72.9799 1292.79 72.9625 1292.86 72.9106C1292.93 72.8586 1292.98 72.8413 1292.99 72.8586C1293.01 72.8759 1293.08 72.8759 1293.2 72.8586C1293.32 72.8413 1293.43 72.8326 1293.51 72.8326C1293.62 72.8326 1293.88 72.8326 1294.29 72.8326C1294.71 72.8326 1295.1 72.8413 1295.46 72.8586C1296.83 72.8586 1297.62 72.8586 1297.83 72.8586C1298.03 72.8586 1298.17 72.9019 1298.24 72.9885C1298.26 73.0578 1298.58 75.5003 1299.2 80.3161L1300.14 87.5657L1300.74 86.6042C1301.15 85.9806 1301.71 85.1145 1302.4 84.0058C1303.09 82.8972 1303.85 81.6846 1304.69 80.368C1307.72 75.535 1309.25 73.1011 1309.29 73.0665C1309.3 73.0492 1309.33 73.0232 1309.36 72.9885C1309.4 72.9539 1309.43 72.9279 1309.47 72.9106L1309.62 72.8586H1312.12C1312.41 72.8586 1312.76 72.8586 1313.16 72.8586C1313.56 72.8586 1313.81 72.8499 1313.91 72.8326C1314.5 72.8326 1314.79 72.9279 1314.79 73.1184C1314.79 73.2051 1314.77 73.3523 1314.72 73.5602C1314.66 73.768 1314.64 73.8806 1314.64 73.898C1314.57 74.0019 1314.25 74.0539 1313.68 74.0539C1312.98 74.0712 1312.54 74.0972 1312.35 74.1318C1312.16 74.1665 1312.01 74.2617 1311.88 74.4177C1311.83 74.5043 1311.21 76.9554 1310.01 81.7712C1308.82 86.5869 1308.21 89.0208 1308.19 89.0727C1308.19 89.142 1308.2 89.1853 1308.22 89.2027C1308.24 89.22 1308.3 89.2546 1308.4 89.3066C1308.51 89.3586 1308.65 89.3759 1308.84 89.3586C1309.03 89.3412 1309.32 89.3586 1309.7 89.4105H1310.51C1310.61 89.5664 1310.66 89.6617 1310.66 89.6964C1310.66 89.9735 1310.6 90.2334 1310.48 90.4759C1310.39 90.5625 1310.26 90.6058 1310.06 90.6058C1309.98 90.6058 1309.62 90.5971 1309 90.5798C1308.38 90.5625 1307.58 90.5538 1306.61 90.5538C1305.55 90.5538 1304.76 90.5538 1304.22 90.5538C1303.68 90.5538 1303.38 90.5625 1303.31 90.5798C1303.01 90.5798 1302.87 90.4932 1302.87 90.32C1302.87 90.2853 1302.88 90.1641 1302.92 89.9562C1302.99 89.679 1303.06 89.5231 1303.13 89.4885C1303.2 89.4538 1303.4 89.4279 1303.72 89.4105C1304.19 89.4105 1304.71 89.3845 1305.28 89.3326C1305.53 89.2806 1305.69 89.1767 1305.78 89.0208C1305.81 88.9515 1306.14 87.6869 1306.76 85.2271C1307.39 82.7672 1308 80.3161 1308.61 77.8736C1309.22 75.431 1309.52 74.2098 1309.52 74.2098L1304.48 82.2389C1301.08 87.6436 1299.34 90.3893 1299.26 90.4759C1299.22 90.4932 1299.19 90.5105 1299.15 90.5279C1299.06 90.5798 1298.93 90.6058 1298.74 90.6058C1298.48 90.6058 1298.32 90.5452 1298.27 90.4239C1298.23 90.3546 1297.88 87.6696 1297.2 82.3688L1296.19 74.3917L1294.42 81.4074C1293.26 86.0153 1292.68 88.3971 1292.68 88.5531C1292.79 89.1247 1293.41 89.4105 1294.55 89.4105H1294.81C1294.92 89.4971 1294.98 89.5751 1294.99 89.6444C1295.01 89.7137 1294.99 89.8696 1294.92 90.1121C1294.85 90.3893 1294.78 90.5452 1294.71 90.5798C1294.64 90.5971 1294.54 90.6058 1294.42 90.6058C1294.39 90.6058 1294.28 90.6058 1294.11 90.6058C1293.94 90.6058 1293.64 90.5971 1293.23 90.5798C1292.81 90.5625 1292.26 90.5538 1291.56 90.5538C1291.04 90.5538 1290.51 90.5625 1289.95 90.5798C1289.4 90.5971 1289.08 90.6058 1288.99 90.6058C1288.73 90.6058 1288.57 90.5885 1288.5 90.5538C1288.43 90.5192 1288.39 90.4412 1288.39 90.32C1288.39 90.2853 1288.42 90.1641 1288.47 89.9562C1288.52 89.7483 1288.57 89.6184 1288.6 89.5664C1288.64 89.4625 1288.83 89.4105 1289.17 89.4105C1290.39 89.4105 1291.16 89.0641 1291.49 88.3712C1291.56 88.2672 1292.15 85.946 1293.28 81.4074C1294.41 76.8688 1294.98 74.4869 1294.99 74.2617Z" fill="black"/>
<path d="M1317.54 75.5205C1317.54 75.5205 1317.54 75.4409 1317.54 75.2817C1317.54 75.1225 1317.63 75 1317.8 74.9143H1323.29V72.1586L1323.31 69.403C1323.43 69.2438 1323.55 69.1642 1323.66 69.1642C1323.82 69.1642 1323.94 69.2561 1324.03 69.4398V74.9143H1329.5C1329.69 75.0122 1329.78 75.1347 1329.78 75.2817C1329.78 75.4287 1329.69 75.5511 1329.5 75.6491H1324.03V81.1236C1323.93 81.2951 1323.82 81.3808 1323.7 81.3808H1323.66H1323.62C1323.48 81.3808 1323.37 81.2951 1323.29 81.1236V75.6491H1317.8C1317.63 75.5634 1317.54 75.4409 1317.54 75.2817V75.5205Z" fill="black"/>
<path d="M1266.44 288.752L1272.15 289.553L1269.99 284.201L1266.44 288.752ZM1308.37 278.067L1308.37 278.567L1308.37 278.067ZM1348.37 288.117C1348.57 287.656 1348.57 287.656 1348.57 287.656C1348.57 287.655 1348.57 287.655 1348.57 287.655C1348.57 287.655 1348.56 287.654 1348.56 287.654C1348.56 287.652 1348.55 287.651 1348.55 287.648C1348.54 287.643 1348.52 287.636 1348.5 287.626C1348.45 287.607 1348.38 287.579 1348.29 287.542C1348.11 287.468 1347.85 287.361 1347.51 287.224C1346.83 286.949 1345.83 286.558 1344.59 286.088C1342.1 285.149 1338.62 283.896 1334.63 282.64C1326.65 280.134 1316.59 277.601 1308.37 277.567L1308.37 278.567C1316.43 278.601 1326.37 281.093 1334.33 283.594C1338.3 284.843 1341.76 286.089 1344.24 287.024C1345.47 287.491 1346.46 287.88 1347.14 288.152C1347.47 288.288 1347.74 288.394 1347.91 288.467C1348 288.503 1348.07 288.531 1348.11 288.55C1348.13 288.559 1348.15 288.566 1348.16 288.571C1348.17 288.573 1348.17 288.575 1348.18 288.576C1348.18 288.576 1348.18 288.577 1348.18 288.577C1348.18 288.577 1348.18 288.577 1348.18 288.577C1348.18 288.577 1348.18 288.577 1348.37 288.117ZM1308.37 277.567C1295.47 277.514 1278.22 283.577 1270.43 286.599L1270.79 287.531C1278.6 284.504 1295.68 278.515 1308.37 278.567L1308.37 277.567Z" fill="black"/>
<path d="M966 261L961 258.113V263.887L966 261ZM810 261.5H961.5V260.5H810V261.5Z" fill="black"/>
<path d="M864.421 236.199C864.421 234.836 864.889 233.686 865.825 232.75C866.761 231.814 867.837 231.346 869.053 231.346H869.397C870.793 231.346 872.009 231.863 873.043 232.898L873.561 232.134C873.643 232.019 873.725 231.896 873.807 231.765C873.889 231.633 873.971 231.526 874.053 231.444L874.127 231.346C874.144 231.346 874.177 231.346 874.226 231.346C874.275 231.346 874.324 231.338 874.374 231.321H874.472C874.521 231.321 874.595 231.37 874.694 231.469V237.307L874.546 237.455H874.103C873.922 237.455 873.815 237.431 873.782 237.381C873.75 237.332 873.708 237.168 873.659 236.889C873.38 234.819 872.551 233.448 871.171 232.775C870.563 232.512 869.948 232.38 869.323 232.38C868.453 232.38 867.747 232.676 867.205 233.267C866.663 233.858 866.392 234.548 866.392 235.337C866.392 235.895 866.532 236.404 866.811 236.864C867.09 237.324 867.484 237.693 867.993 237.973C868.157 238.038 868.864 238.227 870.112 238.539C871.36 238.851 872.05 239.04 872.181 239.106C873.117 239.467 873.881 240.083 874.472 240.953C875.063 241.824 875.367 242.834 875.384 243.983C875.384 245.314 874.957 246.513 874.103 247.58C873.249 248.648 872.042 249.19 870.481 249.206C869.562 249.206 868.74 249.066 868.018 248.787C867.295 248.508 866.794 248.253 866.515 248.024L866.072 247.679C866.006 247.761 865.883 247.925 865.702 248.171C865.522 248.418 865.357 248.648 865.209 248.861C865.062 249.075 864.988 249.19 864.988 249.206C864.955 249.222 864.873 249.231 864.741 249.231H864.643C864.594 249.231 864.52 249.181 864.421 249.083V246.201C864.421 244.246 864.429 243.253 864.446 243.22C864.479 243.138 864.643 243.097 864.938 243.097H865.259C865.357 243.195 865.407 243.302 865.407 243.417C865.407 243.942 865.489 244.46 865.653 244.969C865.817 245.478 866.096 245.979 866.49 246.472C866.885 246.964 867.427 247.358 868.116 247.654C868.806 247.95 869.627 248.097 870.58 248.097C871.352 248.097 872.017 247.785 872.575 247.161C873.134 246.537 873.413 245.774 873.413 244.87C873.413 244.164 873.232 243.524 872.871 242.949C872.51 242.374 872.033 241.98 871.442 241.766C870.522 241.536 869.915 241.38 869.619 241.298C869.537 241.282 869.315 241.233 868.954 241.15C868.593 241.068 868.322 241.003 868.141 240.953C867.96 240.904 867.698 240.814 867.353 240.682C867.008 240.551 866.737 240.403 866.54 240.239C866.343 240.075 866.105 239.878 865.825 239.648C865.546 239.418 865.324 239.13 865.16 238.785C864.667 237.981 864.421 237.118 864.421 236.199Z" fill="black"/>
<path d="M877.65 252.335H877.995C878.635 252.335 879.021 252.22 879.153 251.99V251.793C879.153 251.678 879.153 251.522 879.153 251.325C879.153 251.128 879.153 250.881 879.153 250.586C879.153 250.29 879.161 249.97 879.177 249.625C879.194 249.28 879.194 248.919 879.177 248.541C879.161 248.163 879.161 247.761 879.177 247.334C879.194 246.907 879.194 246.488 879.177 246.077C879.177 245.519 879.177 244.936 879.177 244.328C879.177 243.721 879.177 243.179 879.177 242.702C879.177 242.226 879.177 241.791 879.177 241.397C879.177 241.003 879.169 240.682 879.153 240.436C879.136 240.19 879.136 240.058 879.153 240.042C879.103 239.73 878.989 239.525 878.808 239.426C878.627 239.327 878.258 239.254 877.699 239.204H877.256V238.638C877.256 238.26 877.272 238.071 877.305 238.071L877.551 238.046C877.716 238.03 877.954 238.014 878.266 237.997C878.578 237.981 878.882 237.964 879.177 237.948C879.457 237.931 879.76 237.915 880.089 237.899C880.417 237.882 880.664 237.858 880.828 237.825C880.992 237.792 881.082 237.784 881.099 237.8H881.173V238.441L881.197 239.081L881.395 238.909C882.363 238.186 883.497 237.825 884.794 237.825C886.124 237.825 887.258 238.35 888.194 239.401C889.13 240.452 889.606 241.775 889.623 243.368C889.623 245.026 889.089 246.373 888.021 247.408C886.954 248.442 885.747 248.96 884.4 248.96C883.283 248.96 882.298 248.598 881.444 247.876L881.247 247.703V249.797V251.177C881.247 251.62 881.263 251.891 881.296 251.99C881.329 252.088 881.419 252.179 881.567 252.261C881.912 252.31 882.314 252.335 882.774 252.335H883.168V253.468H882.971L882.38 253.443C882.002 253.427 881.592 253.419 881.148 253.419C880.705 253.419 880.393 253.41 880.212 253.394C878.52 253.394 877.601 253.419 877.453 253.468H877.256V252.335H877.65ZM887.208 243.318C887.208 242.103 886.929 241.044 886.371 240.14C885.812 239.237 885.114 238.786 884.277 238.786C883.111 238.786 882.101 239.319 881.247 240.387V246.275C881.904 247.457 882.823 248.048 884.006 248.048C884.843 248.048 885.582 247.605 886.223 246.718C886.863 245.831 887.192 244.698 887.208 243.318Z" fill="black"/>
<path d="M891.495 247.556H891.84C892.48 247.556 892.866 247.441 892.998 247.211V247.014C892.998 246.866 892.998 246.677 892.998 246.447C892.998 246.217 892.998 245.946 892.998 245.634C892.998 245.322 893.006 244.969 893.022 244.575C893.039 244.181 893.039 243.77 893.022 243.343C893.006 242.916 893.006 242.464 893.022 241.988C893.039 241.512 893.039 241.044 893.022 240.584C893.022 239.976 893.022 239.336 893.022 238.662C893.022 237.989 893.022 237.373 893.022 236.815C893.022 236.256 893.022 235.764 893.022 235.337C893.022 234.91 893.014 234.548 892.998 234.253C892.981 233.957 892.981 233.817 892.998 233.834C892.948 233.522 892.833 233.317 892.653 233.218C892.472 233.119 892.103 233.046 891.544 232.996H891.101V232.43C891.101 232.052 891.117 231.863 891.15 231.863L891.396 231.838C891.561 231.822 891.799 231.806 892.111 231.789C892.423 231.773 892.727 231.756 893.022 231.74C893.301 231.723 893.605 231.707 893.934 231.691C894.262 231.674 894.509 231.65 894.673 231.617C894.837 231.584 894.927 231.576 894.944 231.592H895.018V239.352C895.018 244.558 895.026 247.178 895.042 247.211C895.108 247.342 895.207 247.432 895.338 247.482C895.683 247.531 896.085 247.556 896.545 247.556H896.939V248.689H896.742L896.175 248.664C895.798 248.648 895.395 248.639 894.968 248.639C894.541 248.639 894.229 248.631 894.032 248.615C893.835 248.598 893.523 248.598 893.096 248.615C892.669 248.631 892.259 248.648 891.864 248.664L891.298 248.689H891.101V247.556H891.495Z" fill="black"/>
<path d="M899.009 233.686C899.009 233.226 899.156 232.865 899.452 232.602C899.748 232.339 900.109 232.208 900.536 232.208C900.914 232.241 901.242 232.38 901.521 232.627C901.8 232.873 901.94 233.226 901.94 233.686C901.94 234.179 901.8 234.548 901.521 234.795C901.242 235.041 900.897 235.164 900.487 235.164C900.076 235.164 899.731 235.041 899.452 234.795C899.173 234.548 899.025 234.179 899.009 233.686ZM903.394 248.689C903.147 248.639 902.293 248.615 900.832 248.615C900.651 248.615 900.347 248.615 899.92 248.615C899.493 248.615 899.082 248.631 898.688 248.664L898.146 248.689H897.949V247.556H898.343C898.803 247.556 899.206 247.531 899.55 247.482C899.698 247.416 899.789 247.326 899.821 247.211C899.854 247.096 899.871 246.751 899.871 246.176V243.639V241.471C899.871 240.617 899.854 240.075 899.821 239.845C899.789 239.615 899.674 239.459 899.477 239.377C899.247 239.262 898.861 239.204 898.319 239.204H898.048V238.638C898.048 238.26 898.064 238.071 898.097 238.071L898.343 238.046C898.508 238.03 898.738 238.014 899.033 237.997C899.329 237.981 899.624 237.964 899.92 237.948C900.199 237.931 900.495 237.915 900.807 237.899C901.119 237.882 901.357 237.858 901.521 237.825C901.686 237.792 901.776 237.784 901.792 237.8H901.866V247.161C901.948 247.326 902.047 247.424 902.162 247.457C902.277 247.49 902.564 247.523 903.024 247.556H903.591V248.689H903.394Z" fill="black"/>
<path d="M904.822 238.293C905.693 238.227 906.366 237.767 906.842 236.913C907.319 236.059 907.581 235.057 907.631 233.908V233.538H908.616V238.071H911.942V239.204H908.616V242.752C908.632 244.805 908.641 245.963 908.641 246.225C908.641 246.488 908.698 246.751 908.813 247.014C909.043 247.654 909.445 247.974 910.02 247.974C910.743 247.974 911.186 247.391 911.351 246.225C911.367 246.094 911.375 245.716 911.375 245.092V244.23H912.361V245.092V245.388C912.361 246.652 912.016 247.613 911.326 248.27C910.882 248.713 910.308 248.935 909.601 248.935C909.043 248.935 908.559 248.837 908.148 248.64C907.737 248.442 907.425 248.188 907.212 247.876C906.998 247.564 906.842 247.276 906.744 247.014C906.645 246.751 906.588 246.488 906.571 246.225C906.555 246.11 906.547 244.895 906.547 242.579V239.204H904.601V238.293H904.822Z" fill="black"/>
</svg>
