<svg width="1863" height="829" viewBox="0 0 1863 829" fill="none" xmlns="http://www.w3.org/2000/svg">
<circle cx="201" cy="201" r="200.5" fill="#D9D9D9" fill-opacity="0.3" stroke="black"/>
<path d="M397.958 186.181C399.706 189.338 400.906 192.569 401.521 195.858L401.03 195.95C401.342 197.619 401.5 199.303 401.5 201C401.5 202.697 401.342 204.381 401.03 206.05L401.521 206.142C400.906 209.431 399.706 212.662 397.958 215.819L397.521 215.577C395.966 218.386 393.968 221.142 391.552 223.835L391.924 224.169C389.748 226.595 387.24 228.964 384.42 231.271L384.103 230.884C381.577 232.95 378.797 234.967 375.777 236.929L376.049 237.348C373.271 239.153 370.292 240.911 367.124 242.617L366.887 242.177C363.972 243.747 360.895 245.274 357.664 246.755L357.872 247.21C354.83 248.604 351.653 249.957 348.349 251.266L348.165 250.801C345.051 252.034 341.824 253.228 338.489 254.381L338.652 254.854C335.459 255.958 332.167 257.024 328.782 258.05L328.637 257.571C325.416 258.548 322.111 259.488 318.725 260.391L318.854 260.874C315.582 261.746 312.236 262.583 308.82 263.383L308.706 262.896C305.403 263.669 302.035 264.408 298.604 265.111L298.705 265.601C295.37 266.284 291.977 266.933 288.529 267.548L288.441 267.055C285.095 267.651 281.697 268.214 278.25 268.743L278.326 269.237C274.959 269.754 271.545 270.237 268.089 270.687L268.024 270.191C264.645 270.631 261.224 271.039 257.764 271.413L257.818 271.91C254.422 272.277 250.989 272.612 247.521 272.915L247.478 272.416C244.075 272.713 240.639 272.977 237.172 273.209L237.205 273.708C233.791 273.937 230.347 274.133 226.875 274.297L226.851 273.798C223.434 273.959 219.99 274.089 216.521 274.187L216.535 274.687C213.109 274.783 209.66 274.847 206.189 274.88L206.184 274.38C204.462 274.396 202.733 274.404 201 274.404C199.267 274.404 197.538 274.396 195.816 274.38L195.811 274.88C192.34 274.847 188.891 274.783 185.465 274.687L185.479 274.187C182.01 274.089 178.566 273.959 175.149 273.798L175.125 274.297C171.653 274.133 168.209 273.937 164.795 273.708L164.828 273.209C161.361 272.978 157.925 272.713 154.522 272.416L154.479 272.915C151.011 272.612 147.578 272.277 144.182 271.91L144.236 271.413C140.776 271.039 137.355 270.631 133.976 270.191L133.911 270.687C130.455 270.237 127.041 269.754 123.674 269.237L123.75 268.743C120.303 268.214 116.905 267.651 113.559 267.055L113.472 267.548C110.023 266.933 106.63 266.284 103.295 265.601L103.396 265.111C99.9652 264.408 96.5969 263.669 93.2943 262.896L93.1803 263.383C89.764 262.583 86.4178 261.746 83.1458 260.874L83.2746 260.391C79.8892 259.488 76.5837 258.548 73.3628 257.571L73.2178 258.05C69.8331 257.024 66.5414 255.958 63.3478 254.854L63.5111 254.381C60.176 253.228 56.9488 252.034 53.8354 250.801L53.6513 251.266C50.347 249.957 47.1701 248.604 44.1279 247.21L44.3362 246.755C41.1055 245.274 38.0281 243.747 35.1128 242.177L34.8757 242.617C31.7076 240.911 28.729 239.153 25.9508 237.348L26.2232 236.929C23.2027 234.967 20.4226 232.95 17.8969 230.884L17.5804 231.271C14.7598 228.964 12.2516 226.595 10.0758 224.169L10.448 223.835C8.03182 221.142 6.03426 218.386 4.47924 215.577L4.0418 215.819C2.29406 212.662 1.09376 209.431 0.478913 206.142L0.970401 206.05C0.658445 204.381 0.5 202.697 0.5 201C0.5 199.303 0.658443 197.619 0.970397 195.95L0.478909 195.858C1.09375 192.569 2.29406 189.338 4.04179 186.181L4.47924 186.423C6.03425 183.614 8.03181 180.858 10.4479 178.165L10.0758 177.831C12.2516 175.405 14.7597 173.036 17.5804 170.729L17.8969 171.116C20.4226 169.05 23.2026 167.033 26.2232 165.071L25.9508 164.652C28.729 162.847 31.7076 161.089 34.8756 159.383L35.1127 159.823C38.0281 158.253 41.1055 156.726 44.3362 155.245L44.1279 154.79C47.1701 153.396 50.347 152.043 53.6513 150.734L53.8354 151.199C56.9487 149.966 60.176 148.772 63.5111 147.619L63.3478 147.146C66.5413 146.042 69.8331 144.976 73.2177 143.95L73.3628 144.429C76.5837 143.452 79.8892 142.512 83.2746 141.609L83.1458 141.126C86.4177 140.254 89.7639 139.417 93.1803 138.617L93.2943 139.104C96.5968 138.331 99.9652 137.592 103.396 136.889L103.295 136.399C106.63 135.716 110.023 135.067 113.471 134.452L113.559 134.945C116.905 134.349 120.303 133.786 123.75 133.257L123.674 132.763C127.041 132.246 130.455 131.763 133.911 131.313L133.976 131.809C137.355 131.369 140.776 130.961 144.236 130.587L144.182 130.09C147.578 129.723 151.011 129.388 154.479 129.085L154.522 129.584C157.925 129.287 161.361 129.023 164.828 128.791L164.795 128.292C168.209 128.063 171.653 127.867 175.125 127.703L175.149 128.202C178.566 128.041 182.01 127.911 185.479 127.813L185.465 127.313C188.891 127.217 192.34 127.153 195.811 127.12L195.816 127.62C197.538 127.604 199.267 127.596 201 127.596C202.733 127.596 204.462 127.604 206.184 127.62L206.189 127.12C209.66 127.153 213.109 127.217 216.535 127.313L216.521 127.813C219.99 127.911 223.434 128.041 226.851 128.202L226.875 127.703C230.347 127.867 233.791 128.063 237.205 128.292L237.172 128.791C240.639 129.023 244.075 129.287 247.478 129.584L247.521 129.085C250.989 129.388 254.422 129.723 257.818 130.09L257.764 130.587C261.224 130.961 264.645 131.369 268.024 131.809L268.089 131.313C271.545 131.763 274.959 132.246 278.326 132.763L278.25 133.257C281.697 133.786 285.095 134.349 288.441 134.945L288.529 134.452C291.977 135.067 295.37 135.716 298.705 136.399L298.604 136.889C302.035 137.592 305.403 138.331 308.706 139.104L308.82 138.617C312.236 139.417 315.582 140.254 318.854 141.126L318.725 141.609C322.111 142.512 325.416 143.452 328.637 144.429L328.782 143.95C332.167 144.976 335.459 146.042 338.652 147.146L338.489 147.619C341.824 148.772 345.051 149.966 348.165 151.199L348.349 150.734C351.653 152.043 354.83 153.396 357.872 154.79L357.664 155.245C360.895 156.726 363.972 158.253 366.887 159.823L367.124 159.383C370.292 161.089 373.271 162.847 376.049 164.652L375.777 165.071C378.797 167.033 381.577 169.05 384.103 171.116L384.42 170.729C387.24 173.036 389.748 175.405 391.924 177.831L391.552 178.165C393.968 180.858 395.966 183.614 397.521 186.423L397.958 186.181Z" stroke="black" stroke-dasharray="10 10"/>
<circle cx="98" cy="100" r="3" fill="black"/>
<path d="M105.805 116.881C104.381 116.881 103.23 116.409 102.35 115.467C101.471 114.525 101.021 113.342 101 111.919C101 109.825 101.764 107.878 103.292 106.078C104.821 104.277 106.6 103.262 108.631 103.031C108.652 103.01 110.118 103 113.028 103H117.361C117.382 103.021 117.414 103.042 117.456 103.063C117.498 103.084 117.539 103.105 117.581 103.126C117.623 103.147 117.655 103.167 117.675 103.188C117.696 103.209 117.728 103.241 117.77 103.283C117.812 103.325 117.833 103.345 117.833 103.345C117.833 103.345 117.853 103.387 117.895 103.471C117.937 103.555 117.948 103.597 117.927 103.597C117.906 103.597 117.916 103.649 117.958 103.754C118 103.858 118.01 103.921 117.99 103.942C117.99 104.863 117.309 105.324 115.948 105.324C115.802 105.324 115.624 105.324 115.414 105.324C115.205 105.324 115.058 105.313 114.975 105.292H113.091L113.248 105.607C113.624 106.402 113.813 107.292 113.813 108.276C113.813 110.579 112.975 112.589 111.3 114.305C109.626 116.022 107.794 116.881 105.805 116.881ZM111.363 107.805C111.363 106.13 110.474 105.292 108.694 105.292C106.098 105.292 104.413 107.114 103.638 110.757C103.617 110.841 103.607 110.903 103.607 110.945C103.439 111.72 103.355 112.358 103.355 112.861C103.355 113.908 103.617 114.64 104.14 115.059C104.664 115.478 105.26 115.698 105.93 115.719C107.061 115.719 108.097 115.227 109.039 114.243C109.647 113.615 110.139 112.777 110.515 111.73C110.892 110.683 111.123 109.846 111.206 109.218C111.29 108.59 111.342 108.119 111.363 107.805Z" fill="black"/>
<circle cx="158" cy="330" r="3" fill="black"/>
<path d="M165.805 346.881C164.381 346.881 163.23 346.409 162.35 345.467C161.471 344.525 161.021 343.342 161 341.919C161 339.825 161.764 337.878 163.292 336.078C164.821 334.277 166.6 333.262 168.631 333.031C168.652 333.01 170.118 333 173.028 333H177.361C177.382 333.021 177.414 333.042 177.456 333.063C177.498 333.084 177.539 333.105 177.581 333.126C177.623 333.147 177.655 333.167 177.675 333.188C177.696 333.209 177.728 333.241 177.77 333.283C177.812 333.325 177.833 333.345 177.833 333.345C177.833 333.345 177.853 333.387 177.895 333.471C177.937 333.555 177.948 333.597 177.927 333.597C177.906 333.597 177.916 333.649 177.958 333.754C178 333.858 178.01 333.921 177.99 333.942C177.99 334.863 177.309 335.324 175.948 335.324C175.802 335.324 175.624 335.324 175.414 335.324C175.205 335.324 175.058 335.313 174.975 335.292H173.091L173.248 335.607C173.624 336.402 173.813 337.292 173.813 338.276C173.813 340.579 172.975 342.589 171.3 344.305C169.626 346.022 167.794 346.881 165.805 346.881ZM171.363 337.805C171.363 336.13 170.474 335.292 168.694 335.292C166.098 335.292 164.413 337.114 163.638 340.757C163.617 340.841 163.607 340.903 163.607 340.945C163.439 341.72 163.355 342.358 163.355 342.861C163.355 343.908 163.617 344.64 164.14 345.059C164.664 345.478 165.26 345.698 165.93 345.719C167.061 345.719 168.097 345.227 169.039 344.243C169.647 343.615 170.139 342.777 170.515 341.73C170.892 340.683 171.123 339.846 171.206 339.218C171.29 338.59 171.342 338.119 171.363 337.805Z" fill="black"/>
<circle cx="298" cy="204" r="3" fill="black"/>
<path d="M305.805 220.881C304.381 220.881 303.23 220.409 302.35 219.467C301.471 218.525 301.021 217.342 301 215.919C301 213.825 301.764 211.878 303.292 210.078C304.821 208.277 306.6 207.262 308.631 207.031C308.652 207.01 310.118 207 313.028 207H317.361C317.382 207.021 317.414 207.042 317.456 207.063C317.498 207.084 317.539 207.105 317.581 207.126C317.623 207.147 317.655 207.167 317.675 207.188C317.696 207.209 317.728 207.241 317.77 207.283C317.812 207.325 317.833 207.345 317.833 207.345C317.833 207.345 317.853 207.387 317.895 207.471C317.937 207.555 317.948 207.597 317.927 207.597C317.906 207.597 317.916 207.649 317.958 207.754C318 207.858 318.01 207.921 317.99 207.942C317.99 208.863 317.309 209.324 315.948 209.324C315.802 209.324 315.624 209.324 315.414 209.324C315.205 209.324 315.058 209.313 314.975 209.292H313.091L313.248 209.607C313.624 210.402 313.813 211.292 313.813 212.276C313.813 214.579 312.975 216.589 311.3 218.305C309.626 220.022 307.794 220.881 305.805 220.881ZM311.363 211.805C311.363 210.13 310.474 209.292 308.694 209.292C306.098 209.292 304.413 211.114 303.638 214.757C303.617 214.841 303.607 214.903 303.607 214.945C303.439 215.72 303.355 216.358 303.355 216.861C303.355 217.908 303.617 218.64 304.14 219.059C304.664 219.478 305.26 219.698 305.93 219.719C307.061 219.719 308.097 219.227 309.039 218.243C309.647 217.615 310.139 216.777 310.515 215.73C310.892 214.683 311.123 213.846 311.206 213.218C311.29 212.59 311.342 212.119 311.363 211.805Z" fill="black"/>
<path d="M427 195.904C427 195.449 427.245 195.099 427.735 194.854H461.198C461.724 195.134 461.986 195.484 461.986 195.904C461.986 196.29 461.741 196.622 461.251 196.903L444.546 196.955H427.841C427.28 196.78 427 196.43 427 195.904ZM427 206.096C427 205.57 427.28 205.22 427.841 205.045H461.251C461.741 205.395 461.986 205.745 461.986 206.096C461.986 206.551 461.724 206.901 461.198 207.146H427.735C427.245 206.901 427 206.551 427 206.096Z" fill="black"/>
<circle cx="687.986" cy="201" r="200.5" fill="#D9D9D9" fill-opacity="0.3" stroke="black"/>
<path d="M884.944 186.181C886.692 189.338 887.892 192.569 888.507 195.858L888.016 195.95C888.328 197.619 888.486 199.303 888.486 201C888.486 202.697 888.328 204.381 888.016 206.05L888.507 206.142C887.892 209.431 886.692 212.662 884.944 215.819L884.507 215.577C882.952 218.386 880.954 221.142 878.538 223.835L878.91 224.169C876.735 226.595 874.226 228.964 871.406 231.271L871.089 230.884C868.564 232.95 865.784 234.967 862.763 236.929L863.035 237.348C860.257 239.153 857.279 240.911 854.111 242.617L853.873 242.177C850.958 243.747 847.881 245.274 844.65 246.755L844.858 247.21C841.816 248.604 838.639 249.957 835.335 251.266L835.151 250.801C832.037 252.034 828.81 253.228 825.475 254.381L825.638 254.854C822.445 255.958 819.153 257.024 815.768 258.05L815.623 257.571C812.403 258.548 809.097 259.488 805.712 260.391L805.84 260.874C802.568 261.746 799.222 262.583 795.806 263.383L795.692 262.896C792.389 263.669 789.021 264.408 785.591 265.111L785.691 265.601C782.356 266.284 778.963 266.933 775.515 267.548L775.427 267.055C772.081 267.651 768.683 268.214 765.236 268.743L765.312 269.237C761.945 269.754 758.532 270.237 755.075 270.687L755.01 270.191C751.631 270.631 748.21 271.039 744.75 271.413L744.804 271.91C741.408 272.277 737.975 272.612 734.507 272.915L734.464 272.416C731.061 272.713 727.625 272.977 724.158 273.209L724.191 273.708C720.777 273.937 717.333 274.133 713.861 274.297L713.837 273.798C710.42 273.959 706.976 274.089 703.507 274.187L703.521 274.687C700.096 274.783 696.646 274.847 693.175 274.88L693.171 274.38C691.448 274.396 689.72 274.404 687.986 274.404C686.253 274.404 684.525 274.396 682.802 274.38L682.797 274.88C679.326 274.847 675.877 274.783 672.452 274.687L672.466 274.187C668.997 274.089 665.552 273.959 662.135 273.798L662.111 274.297C658.64 274.133 655.195 273.937 651.781 273.708L651.814 273.209C648.347 272.978 644.911 272.713 641.508 272.416L641.465 272.915C637.997 272.612 634.564 272.277 631.168 271.91L631.222 271.413C627.762 271.039 624.341 270.631 620.962 270.191L620.898 270.687C617.441 270.237 614.028 269.754 610.661 269.237L610.736 268.743C607.29 268.214 603.892 267.651 600.545 267.055L600.458 267.548C597.01 266.933 593.616 266.284 590.282 265.601L590.382 265.111C586.951 264.408 583.583 263.669 580.281 262.896L580.167 263.383C576.75 262.583 573.404 261.746 570.132 260.874L570.261 260.391C566.875 259.488 563.57 258.548 560.349 257.571L560.204 258.05C556.819 257.024 553.528 255.958 550.334 254.854L550.497 254.381C547.162 253.228 543.935 252.034 540.822 250.801L540.637 251.266C537.333 249.957 534.156 248.604 531.114 247.21L531.322 246.755C528.092 245.274 525.014 243.747 522.099 242.177L521.862 242.617C518.694 240.911 515.715 239.153 512.937 237.348L513.209 236.929C510.189 234.967 507.409 232.95 504.883 230.884L504.567 231.271C501.746 228.964 499.238 226.595 497.062 224.169L497.434 223.835C495.018 221.142 493.02 218.386 491.465 215.577L491.028 215.819C489.28 212.662 488.08 209.431 487.465 206.142L487.957 206.05C487.645 204.381 487.486 202.697 487.486 201C487.486 199.303 487.645 197.619 487.957 195.95L487.465 195.858C488.08 192.569 489.28 189.338 491.028 186.181L491.465 186.423C493.02 183.614 495.018 180.858 497.434 178.165L497.062 177.831C499.238 175.405 501.746 173.036 504.567 170.729L504.883 171.116C507.409 169.05 510.189 167.033 513.209 165.071L512.937 164.652C515.715 162.847 518.694 161.089 521.862 159.383L522.099 159.823C525.014 158.253 528.092 156.726 531.322 155.245L531.114 154.79C534.156 153.396 537.333 152.043 540.637 150.734L540.822 151.199C543.935 149.966 547.162 148.772 550.497 147.619L550.334 147.146C553.528 146.042 556.819 144.976 560.204 143.95L560.349 144.429C563.57 143.452 566.875 142.512 570.261 141.609L570.132 141.126C573.404 140.254 576.75 139.417 580.167 138.617L580.28 139.104C583.583 138.331 586.951 137.592 590.382 136.889L590.282 136.399C593.616 135.716 597.01 135.067 600.458 134.452L600.545 134.945C603.891 134.349 607.29 133.786 610.736 133.257L610.661 132.763C614.028 132.246 617.441 131.763 620.898 131.313L620.962 131.809C624.341 131.369 627.762 130.961 631.222 130.587L631.168 130.09C634.564 129.723 637.997 129.388 641.465 129.085L641.508 129.584C644.911 129.287 648.347 129.023 651.814 128.791L651.781 128.292C655.195 128.063 658.639 127.867 662.111 127.703L662.135 128.202C665.552 128.041 668.997 127.911 672.466 127.813L672.452 127.313C675.877 127.217 679.326 127.153 682.797 127.12L682.802 127.62C684.525 127.604 686.253 127.596 687.986 127.596C689.72 127.596 691.448 127.604 693.171 127.62L693.175 127.12C696.646 127.153 700.096 127.217 703.521 127.313L703.507 127.813C706.976 127.911 710.42 128.041 713.837 128.202L713.861 127.703C717.333 127.867 720.777 128.063 724.191 128.292L724.158 128.791C727.625 129.023 731.061 129.287 734.464 129.584L734.507 129.085C737.975 129.388 741.408 129.723 744.804 130.09L744.75 130.587C748.21 130.961 751.631 131.369 755.01 131.809L755.075 131.313C758.532 131.763 761.945 132.246 765.312 132.763L765.236 133.257C768.683 133.786 772.081 134.349 775.427 134.945L775.515 134.452C778.963 135.067 782.356 135.716 785.691 136.399L785.591 136.889C789.021 137.592 792.389 138.331 795.692 139.104L795.806 138.617C799.222 139.417 802.568 140.254 805.84 141.126L805.712 141.609C809.097 142.512 812.402 143.452 815.623 144.429L815.768 143.95C819.153 144.976 822.445 146.042 825.638 147.146L825.475 147.619C828.81 148.772 832.037 149.966 835.151 151.199L835.335 150.734C838.639 152.043 841.816 153.396 844.858 154.79L844.65 155.245C847.881 156.726 850.958 158.253 853.873 159.823L854.111 159.383C857.279 161.089 860.257 162.847 863.035 164.652L862.763 165.071C865.784 167.033 868.564 169.05 871.089 171.116L871.406 170.729C874.226 173.036 876.735 175.405 878.91 177.831L878.538 178.165C880.954 180.858 882.952 183.614 884.507 186.423L884.944 186.181Z" stroke="black" stroke-dasharray="10 10"/>
<circle cx="584.986" cy="100" r="3" fill="black"/>
<path d="M592.791 116.881C591.367 116.881 590.216 116.409 589.337 115.467C588.457 114.525 588.007 113.342 587.986 111.919C587.986 109.825 588.75 107.878 590.279 106.078C591.807 104.277 593.587 103.262 595.617 103.031C595.638 103.01 597.104 103 600.014 103H604.348C604.369 103.021 604.4 103.042 604.442 103.063C604.484 103.084 604.526 103.105 604.567 103.126C604.609 103.147 604.641 103.167 604.662 103.188C604.683 103.209 604.714 103.241 604.756 103.283C604.798 103.325 604.819 103.345 604.819 103.345C604.819 103.345 604.84 103.387 604.882 103.471C604.923 103.555 604.934 103.597 604.913 103.597C604.892 103.597 604.902 103.649 604.944 103.754C604.986 103.858 604.997 103.921 604.976 103.942C604.976 104.863 604.295 105.324 602.934 105.324C602.788 105.324 602.61 105.324 602.401 105.324C602.191 105.324 602.045 105.313 601.961 105.292H600.077L600.234 105.607C600.611 106.402 600.799 107.292 600.799 108.276C600.799 110.579 599.962 112.589 598.287 114.305C596.612 116.022 594.78 116.881 592.791 116.881ZM598.35 107.805C598.35 106.13 597.46 105.292 595.68 105.292C593.084 105.292 591.399 107.114 590.624 110.757C590.603 110.841 590.593 110.903 590.593 110.945C590.425 111.72 590.342 112.358 590.342 112.861C590.342 113.908 590.603 114.64 591.127 115.059C591.65 115.478 592.247 115.698 592.917 115.719C594.047 115.719 595.083 115.227 596.026 114.243C596.633 113.615 597.125 112.777 597.502 111.73C597.878 110.683 598.109 109.846 598.192 109.218C598.276 108.59 598.329 108.119 598.35 107.805Z" fill="black"/>
<circle cx="644.986" cy="330" r="3" fill="black"/>
<path d="M652.791 346.881C651.367 346.881 650.216 346.409 649.337 345.467C648.457 344.525 648.007 343.342 647.986 341.919C647.986 339.825 648.75 337.878 650.279 336.078C651.807 334.277 653.587 333.262 655.617 333.031C655.638 333.01 657.104 333 660.014 333H664.348C664.369 333.021 664.4 333.042 664.442 333.063C664.484 333.084 664.526 333.105 664.567 333.126C664.609 333.147 664.641 333.167 664.662 333.188C664.683 333.209 664.714 333.241 664.756 333.283C664.798 333.325 664.819 333.345 664.819 333.345C664.819 333.345 664.84 333.387 664.882 333.471C664.923 333.555 664.934 333.597 664.913 333.597C664.892 333.597 664.902 333.649 664.944 333.754C664.986 333.858 664.997 333.921 664.976 333.942C664.976 334.863 664.295 335.324 662.934 335.324C662.788 335.324 662.61 335.324 662.401 335.324C662.191 335.324 662.045 335.313 661.961 335.292H660.077L660.234 335.607C660.611 336.402 660.799 337.292 660.799 338.276C660.799 340.579 659.962 342.589 658.287 344.305C656.612 346.022 654.78 346.881 652.791 346.881ZM658.35 337.805C658.35 336.13 657.46 335.292 655.68 335.292C653.084 335.292 651.399 337.114 650.624 340.757C650.603 340.841 650.593 340.903 650.593 340.945C650.425 341.72 650.342 342.358 650.342 342.861C650.342 343.908 650.603 344.64 651.127 345.059C651.65 345.478 652.247 345.698 652.917 345.719C654.047 345.719 655.083 345.227 656.026 344.243C656.633 343.615 657.125 342.777 657.502 341.73C657.878 340.683 658.109 339.846 658.192 339.218C658.276 338.59 658.329 338.119 658.35 337.805Z" fill="black"/>
<circle cx="784.986" cy="204" r="3" fill="black"/>
<path d="M792.791 220.881C791.367 220.881 790.216 220.409 789.337 219.467C788.457 218.525 788.007 217.342 787.986 215.919C787.986 213.825 788.75 211.878 790.279 210.078C791.807 208.277 793.587 207.262 795.617 207.031C795.638 207.01 797.104 207 800.014 207H804.348C804.369 207.021 804.4 207.042 804.442 207.063C804.484 207.084 804.526 207.105 804.567 207.126C804.609 207.147 804.641 207.167 804.662 207.188C804.683 207.209 804.714 207.241 804.756 207.283C804.798 207.325 804.819 207.345 804.819 207.345C804.819 207.345 804.84 207.387 804.882 207.471C804.923 207.555 804.934 207.597 804.913 207.597C804.892 207.597 804.902 207.649 804.944 207.754C804.986 207.858 804.997 207.921 804.976 207.942C804.976 208.863 804.295 209.324 802.934 209.324C802.788 209.324 802.61 209.324 802.401 209.324C802.191 209.324 802.045 209.313 801.961 209.292H800.077L800.234 209.607C800.611 210.402 800.799 211.292 800.799 212.276C800.799 214.579 799.962 216.589 798.287 218.305C796.612 220.022 794.78 220.881 792.791 220.881ZM798.35 211.805C798.35 210.13 797.46 209.292 795.68 209.292C793.084 209.292 791.399 211.114 790.624 214.757C790.603 214.841 790.593 214.903 790.593 214.945C790.425 215.72 790.342 216.358 790.342 216.861C790.342 217.908 790.603 218.64 791.127 219.059C791.65 219.478 792.247 219.698 792.917 219.719C794.047 219.719 795.083 219.227 796.026 218.243C796.633 217.615 797.125 216.777 797.502 215.73C797.878 214.683 798.109 213.846 798.192 213.218C798.276 212.59 798.329 212.119 798.35 211.805Z" fill="black"/>
<circle cx="755.986" cy="286" r="27" stroke="#55A4EE" stroke-width="3"/>
<path d="M780.986 315.833C781.007 315.771 781.028 315.688 781.048 315.584C781.069 315.481 781.121 315.252 781.204 314.9C781.287 314.547 781.391 314.225 781.515 313.935C781.64 313.644 781.795 313.302 781.982 312.908C782.169 312.514 782.376 312.203 782.604 311.974C782.833 311.746 783.102 311.518 783.414 311.29C783.725 311.061 784.067 310.968 784.441 311.01C784.938 311.01 785.385 311.082 785.779 311.227C786.173 311.373 786.484 311.559 786.712 311.788C786.941 312.016 787.107 312.244 787.21 312.472C787.314 312.7 787.397 312.898 787.459 313.064L787.521 313.281C787.521 313.323 787.532 313.344 787.553 313.344L787.895 313.001C789.16 311.673 790.602 311.01 792.221 311.01C793.341 311.01 794.243 311.29 794.928 311.85C795.613 312.41 795.965 313.229 795.986 314.308V314.62C795.986 315.117 795.322 317.949 793.995 323.115C792.791 327.991 792.148 330.501 792.065 330.647C791.795 331.207 791.329 331.487 790.665 331.487C790.395 331.487 790.167 331.404 789.98 331.238C789.793 331.072 789.679 330.844 789.638 330.553C789.638 330.366 790.25 327.846 791.474 322.991L793.403 315.211C793.465 314.9 793.497 314.505 793.497 314.028C793.497 312.804 793.04 312.192 792.127 312.192H791.972C790.187 312.192 788.683 313.24 787.459 315.335L787.241 315.709L786.214 319.879C785.53 322.597 785.136 324.059 785.032 324.267C784.762 324.827 784.316 325.107 783.694 325.107C783.424 325.107 783.206 325.045 783.04 324.92C782.874 324.796 782.76 324.671 782.698 324.547C782.636 324.422 782.615 324.319 782.636 324.236C782.636 323.966 783.051 322.182 783.88 318.883C784.71 315.584 785.125 313.748 785.125 313.375C785.125 312.566 784.856 312.161 784.316 312.161C783.88 312.161 783.507 312.451 783.196 313.032C782.885 313.613 782.636 314.246 782.449 314.931C782.262 315.615 782.148 315.989 782.107 316.051C782.065 316.093 781.899 316.113 781.609 316.113H781.173C781.048 315.989 780.986 315.895 780.986 315.833Z" fill="#55A4EE"/>
<path d="M913.986 195.904C913.986 195.449 914.231 195.099 914.722 194.854H948.184C948.71 195.134 948.972 195.484 948.972 195.904C948.972 196.29 948.727 196.622 948.237 196.903L931.532 196.955H914.827C914.266 196.78 913.986 196.43 913.986 195.904ZM913.986 206.096C913.986 205.57 914.266 205.22 914.827 205.045H948.237C948.727 205.395 948.972 205.745 948.972 206.096C948.972 206.551 948.71 206.901 948.184 207.146H914.722C914.231 206.901 913.986 206.551 913.986 206.096Z" fill="black"/>
<circle cx="1174.97" cy="201" r="200.5" fill="#D9D9D9" fill-opacity="0.3" stroke="black"/>
<path d="M1371.93 186.181C1373.68 189.338 1374.88 192.569 1375.49 195.858L1375 195.95C1375.31 197.619 1375.47 199.303 1375.47 201C1375.47 202.697 1375.31 204.381 1375 206.05L1375.49 206.142C1374.88 209.431 1373.68 212.662 1371.93 215.819L1371.49 215.577C1369.94 218.386 1367.94 221.142 1365.52 223.835L1365.9 224.169C1363.72 226.595 1361.21 228.964 1358.39 231.271L1358.08 230.884C1355.55 232.95 1352.77 234.967 1349.75 236.929L1350.02 237.348C1347.24 239.153 1344.26 240.911 1341.1 242.617L1340.86 242.177C1337.94 243.747 1334.87 245.274 1331.64 246.755L1331.84 247.21C1328.8 248.604 1325.63 249.957 1322.32 251.266L1322.14 250.801C1319.02 252.034 1315.8 253.228 1312.46 254.381L1312.62 254.854C1309.43 255.958 1306.14 257.024 1302.75 258.05L1302.61 257.571C1299.39 258.548 1296.08 259.488 1292.7 260.391L1292.83 260.874C1289.55 261.746 1286.21 262.583 1282.79 263.383L1282.68 262.896C1279.38 263.669 1276.01 264.408 1272.58 265.111L1272.68 265.601C1269.34 266.284 1265.95 266.933 1262.5 267.548L1262.41 267.055C1259.07 267.651 1255.67 268.214 1252.22 268.743L1252.3 269.237C1248.93 269.754 1245.52 270.237 1242.06 270.687L1242 270.191C1238.62 270.631 1235.2 271.039 1231.74 271.413L1231.79 271.91C1228.39 272.277 1224.96 272.612 1221.49 272.915L1221.45 272.416C1218.05 272.713 1214.61 272.977 1211.14 273.209L1211.18 273.708C1207.76 273.937 1204.32 274.133 1200.85 274.297L1200.82 273.798C1197.41 273.959 1193.96 274.089 1190.49 274.187L1190.51 274.687C1187.08 274.783 1183.63 274.847 1180.16 274.88L1180.16 274.38C1178.43 274.396 1176.71 274.404 1174.97 274.404C1173.24 274.404 1171.51 274.396 1169.79 274.38L1169.78 274.88C1166.31 274.847 1162.86 274.783 1159.44 274.687L1159.45 274.187C1155.98 274.089 1152.54 273.959 1149.12 273.798L1149.1 274.297C1145.63 274.133 1142.18 273.937 1138.77 273.708L1138.8 273.209C1135.33 272.978 1131.9 272.713 1128.49 272.416L1128.45 272.915C1124.98 272.612 1121.55 272.277 1118.15 271.91L1118.21 271.413C1114.75 271.039 1111.33 270.631 1107.95 270.191L1107.88 270.687C1104.43 270.237 1101.01 269.754 1097.65 269.237L1097.72 268.743C1094.28 268.214 1090.88 267.651 1087.53 267.055L1087.44 267.548C1084 266.933 1080.6 266.284 1077.27 265.601L1077.37 265.111C1073.94 264.408 1070.57 263.669 1067.27 262.896L1067.15 263.383C1063.74 262.583 1060.39 261.746 1057.12 260.874L1057.25 260.391C1053.86 259.488 1050.56 258.548 1047.34 257.571L1047.19 258.05C1043.81 257.024 1040.51 255.958 1037.32 254.854L1037.48 254.381C1034.15 253.228 1030.92 252.034 1027.81 250.801L1027.62 251.266C1024.32 249.957 1021.14 248.604 1018.1 247.21L1018.31 246.755C1015.08 245.274 1012 243.747 1009.09 242.177L1008.85 242.617C1005.68 240.911 1002.7 239.153 999.923 237.348L1000.2 236.929C997.175 234.967 994.395 232.95 991.869 230.884L991.553 231.271C988.732 228.964 986.224 226.595 984.048 224.169L984.42 223.835C982.004 221.142 980.007 218.386 978.452 215.577L978.014 215.819C976.266 212.662 975.066 209.431 974.451 206.142L974.943 206.05C974.631 204.381 974.472 202.697 974.472 201C974.472 199.303 974.631 197.619 974.943 195.95L974.451 195.858C975.066 192.569 976.266 189.338 978.014 186.181L978.452 186.423C980.007 183.614 982.004 180.858 984.42 178.165L984.048 177.831C986.224 175.405 988.732 173.036 991.553 170.729L991.869 171.116C994.395 169.05 997.175 167.033 1000.2 165.071L999.923 164.652C1002.7 162.847 1005.68 161.089 1008.85 159.383L1009.09 159.823C1012 158.253 1015.08 156.726 1018.31 155.245L1018.1 154.79C1021.14 153.396 1024.32 152.043 1027.62 150.734L1027.81 151.199C1030.92 149.966 1034.15 148.772 1037.48 147.619L1037.32 147.146C1040.51 146.042 1043.81 144.976 1047.19 143.95L1047.34 144.429C1050.56 143.452 1053.86 142.512 1057.25 141.609L1057.12 141.126C1060.39 140.254 1063.74 139.417 1067.15 138.617L1067.27 139.104C1070.57 138.331 1073.94 137.592 1077.37 136.889L1077.27 136.399C1080.6 135.716 1084 135.067 1087.44 134.452L1087.53 134.945C1090.88 134.349 1094.28 133.786 1097.72 133.257L1097.65 132.763C1101.01 132.246 1104.43 131.763 1107.88 131.313L1107.95 131.809C1111.33 131.369 1114.75 130.961 1118.21 130.587L1118.15 130.09C1121.55 129.723 1124.98 129.388 1128.45 129.085L1128.49 129.584C1131.9 129.287 1135.33 129.023 1138.8 128.791L1138.77 128.292C1142.18 128.063 1145.63 127.867 1149.1 127.703L1149.12 128.202C1152.54 128.041 1155.98 127.911 1159.45 127.813L1159.44 127.313C1162.86 127.217 1166.31 127.153 1169.78 127.12L1169.79 127.62C1171.51 127.604 1173.24 127.596 1174.97 127.596C1176.71 127.596 1178.43 127.604 1180.16 127.62L1180.16 127.12C1183.63 127.153 1187.08 127.217 1190.51 127.313L1190.49 127.813C1193.96 127.911 1197.41 128.041 1200.82 128.202L1200.85 127.703C1204.32 127.867 1207.76 128.063 1211.18 128.292L1211.14 128.791C1214.61 129.023 1218.05 129.287 1221.45 129.584L1221.49 129.085C1224.96 129.388 1228.39 129.723 1231.79 130.09L1231.74 130.587C1235.2 130.961 1238.62 131.369 1242 131.809L1242.06 131.313C1245.52 131.763 1248.93 132.246 1252.3 132.763L1252.22 133.257C1255.67 133.786 1259.07 134.349 1262.41 134.945L1262.5 134.452C1265.95 135.067 1269.34 135.716 1272.68 136.399L1272.58 136.889C1276.01 137.592 1279.38 138.331 1282.68 139.104L1282.79 138.617C1286.21 139.417 1289.55 140.254 1292.83 141.126L1292.7 141.609C1296.08 142.512 1299.39 143.452 1302.61 144.429L1302.75 143.95C1306.14 144.976 1309.43 146.042 1312.62 147.146L1312.46 147.619C1315.8 148.772 1319.02 149.966 1322.14 151.199L1322.32 150.734C1325.63 152.043 1328.8 153.396 1331.84 154.79L1331.64 155.245C1334.87 156.726 1337.94 158.253 1340.86 159.823L1341.1 159.383C1344.26 161.089 1347.24 162.847 1350.02 164.652L1349.75 165.071C1352.77 167.033 1355.55 169.05 1358.08 171.116L1358.39 170.729C1361.21 173.036 1363.72 175.405 1365.9 177.831L1365.52 178.165C1367.94 180.858 1369.94 183.614 1371.49 186.423L1371.93 186.181Z" stroke="black" stroke-dasharray="10 10"/>
<circle cx="1071.97" cy="100" r="3" fill="black"/>
<path d="M1079.78 116.881C1078.35 116.881 1077.2 116.409 1076.32 115.467C1075.44 114.525 1074.99 113.342 1074.97 111.919C1074.97 109.825 1075.74 107.878 1077.26 106.078C1078.79 104.277 1080.57 103.262 1082.6 103.031C1082.62 103.01 1084.09 103 1087 103H1091.33C1091.35 103.021 1091.39 103.042 1091.43 103.063C1091.47 103.084 1091.51 103.105 1091.55 103.126C1091.6 103.147 1091.63 103.167 1091.65 103.188C1091.67 103.209 1091.7 103.241 1091.74 103.283C1091.78 103.325 1091.8 103.345 1091.8 103.345C1091.8 103.345 1091.83 103.387 1091.87 103.471C1091.91 103.555 1091.92 103.597 1091.9 103.597C1091.88 103.597 1091.89 103.649 1091.93 103.754C1091.97 103.858 1091.98 103.921 1091.96 103.942C1091.96 104.863 1091.28 105.324 1089.92 105.324C1089.77 105.324 1089.6 105.324 1089.39 105.324C1089.18 105.324 1089.03 105.313 1088.95 105.292H1087.06L1087.22 105.607C1087.6 106.402 1087.79 107.292 1087.79 108.276C1087.79 110.579 1086.95 112.589 1085.27 114.305C1083.6 116.022 1081.77 116.881 1079.78 116.881ZM1085.34 107.805C1085.34 106.13 1084.45 105.292 1082.67 105.292C1080.07 105.292 1078.38 107.114 1077.61 110.757C1077.59 110.841 1077.58 110.903 1077.58 110.945C1077.41 111.72 1077.33 112.358 1077.33 112.861C1077.33 113.908 1077.59 114.64 1078.11 115.059C1078.64 115.478 1079.23 115.698 1079.9 115.719C1081.03 115.719 1082.07 115.227 1083.01 114.243C1083.62 113.615 1084.11 112.777 1084.49 111.73C1084.86 110.683 1085.09 109.846 1085.18 109.218C1085.26 108.59 1085.31 108.119 1085.34 107.805Z" fill="black"/>
<circle cx="1131.97" cy="330" r="3" fill="black"/>
<path d="M1139.78 346.881C1138.35 346.881 1137.2 346.409 1136.32 345.467C1135.44 344.525 1134.99 343.342 1134.97 341.919C1134.97 339.825 1135.74 337.878 1137.26 336.078C1138.79 334.277 1140.57 333.262 1142.6 333.031C1142.62 333.01 1144.09 333 1147 333H1151.33C1151.35 333.021 1151.39 333.042 1151.43 333.063C1151.47 333.084 1151.51 333.105 1151.55 333.126C1151.6 333.147 1151.63 333.167 1151.65 333.188C1151.67 333.209 1151.7 333.241 1151.74 333.283C1151.78 333.325 1151.8 333.345 1151.8 333.345C1151.8 333.345 1151.83 333.387 1151.87 333.471C1151.91 333.555 1151.92 333.597 1151.9 333.597C1151.88 333.597 1151.89 333.649 1151.93 333.754C1151.97 333.858 1151.98 333.921 1151.96 333.942C1151.96 334.863 1151.28 335.324 1149.92 335.324C1149.77 335.324 1149.6 335.324 1149.39 335.324C1149.18 335.324 1149.03 335.313 1148.95 335.292H1147.06L1147.22 335.607C1147.6 336.402 1147.79 337.292 1147.79 338.276C1147.79 340.579 1146.95 342.589 1145.27 344.305C1143.6 346.022 1141.77 346.881 1139.78 346.881ZM1145.34 337.805C1145.34 336.13 1144.45 335.292 1142.67 335.292C1140.07 335.292 1138.38 337.114 1137.61 340.757C1137.59 340.841 1137.58 340.903 1137.58 340.945C1137.41 341.72 1137.33 342.358 1137.33 342.861C1137.33 343.908 1137.59 344.64 1138.11 345.059C1138.64 345.478 1139.23 345.698 1139.9 345.719C1141.03 345.719 1142.07 345.227 1143.01 344.243C1143.62 343.615 1144.11 342.777 1144.49 341.73C1144.86 340.683 1145.09 339.846 1145.18 339.218C1145.26 338.59 1145.31 338.119 1145.34 337.805Z" fill="black"/>
<circle cx="1271.97" cy="204" r="3" fill="black"/>
<path d="M1279.78 220.881C1278.35 220.881 1277.2 220.409 1276.32 219.467C1275.44 218.525 1274.99 217.342 1274.97 215.919C1274.97 213.825 1275.74 211.878 1277.26 210.078C1278.79 208.277 1280.57 207.262 1282.6 207.031C1282.62 207.01 1284.09 207 1287 207H1291.33C1291.35 207.021 1291.39 207.042 1291.43 207.063C1291.47 207.084 1291.51 207.105 1291.55 207.126C1291.6 207.147 1291.63 207.167 1291.65 207.188C1291.67 207.209 1291.7 207.241 1291.74 207.283C1291.78 207.325 1291.8 207.345 1291.8 207.345C1291.8 207.345 1291.83 207.387 1291.87 207.471C1291.91 207.555 1291.92 207.597 1291.9 207.597C1291.88 207.597 1291.89 207.649 1291.93 207.754C1291.97 207.858 1291.98 207.921 1291.96 207.942C1291.96 208.863 1291.28 209.324 1289.92 209.324C1289.77 209.324 1289.6 209.324 1289.39 209.324C1289.18 209.324 1289.03 209.313 1288.95 209.292H1287.06L1287.22 209.607C1287.6 210.402 1287.79 211.292 1287.79 212.276C1287.79 214.579 1286.95 216.589 1285.27 218.305C1283.6 220.022 1281.77 220.881 1279.78 220.881ZM1285.34 211.805C1285.34 210.13 1284.45 209.292 1282.67 209.292C1280.07 209.292 1278.38 211.114 1277.61 214.757C1277.59 214.841 1277.58 214.903 1277.58 214.945C1277.41 215.72 1277.33 216.358 1277.33 216.861C1277.33 217.908 1277.59 218.64 1278.11 219.059C1278.64 219.478 1279.23 219.698 1279.9 219.719C1281.03 219.719 1282.07 219.227 1283.01 218.243C1283.62 217.615 1284.11 216.777 1284.49 215.73C1284.86 214.683 1285.09 213.846 1285.18 213.218C1285.26 212.59 1285.31 212.119 1285.34 211.805Z" fill="black"/>
<path d="M1261.97 327.833C1261.99 327.771 1262.01 327.688 1262.03 327.584C1262.06 327.481 1262.11 327.252 1262.19 326.9C1262.27 326.547 1262.38 326.225 1262.5 325.935C1262.63 325.644 1262.78 325.302 1262.97 324.908C1263.15 324.514 1263.36 324.203 1263.59 323.974C1263.82 323.746 1264.09 323.518 1264.4 323.29C1264.71 323.061 1265.05 322.968 1265.43 323.01C1265.92 323.01 1266.37 323.082 1266.76 323.227C1267.16 323.373 1267.47 323.559 1267.7 323.788C1267.93 324.016 1268.09 324.244 1268.2 324.472C1268.3 324.7 1268.38 324.898 1268.45 325.064L1268.51 325.281C1268.51 325.323 1268.52 325.344 1268.54 325.344L1268.88 325.001C1270.15 323.673 1271.59 323.01 1273.21 323.01C1274.33 323.01 1275.23 323.29 1275.91 323.85C1276.6 324.41 1276.95 325.229 1276.97 326.308V326.62C1276.97 327.117 1276.31 329.949 1274.98 335.115C1273.78 339.991 1273.13 342.501 1273.05 342.647C1272.78 343.207 1272.31 343.487 1271.65 343.487C1271.38 343.487 1271.15 343.404 1270.97 343.238C1270.78 343.072 1270.67 342.844 1270.62 342.553C1270.62 342.366 1271.24 339.846 1272.46 334.991L1274.39 327.211C1274.45 326.9 1274.48 326.505 1274.48 326.028C1274.48 324.804 1274.03 324.192 1273.11 324.192H1272.96C1271.17 324.192 1269.67 325.24 1268.45 327.335L1268.23 327.709L1267.2 331.879C1266.52 334.597 1266.12 336.059 1266.02 336.267C1265.75 336.827 1265.3 337.107 1264.68 337.107C1264.41 337.107 1264.19 337.045 1264.03 336.92C1263.86 336.796 1263.75 336.671 1263.68 336.547C1263.62 336.422 1263.6 336.319 1263.62 336.236C1263.62 335.966 1264.04 334.182 1264.87 330.883C1265.7 327.584 1266.11 325.748 1266.11 325.375C1266.11 324.566 1265.84 324.161 1265.3 324.161C1264.87 324.161 1264.49 324.451 1264.18 325.032C1263.87 325.613 1263.62 326.246 1263.44 326.931C1263.25 327.615 1263.13 327.989 1263.09 328.051C1263.05 328.093 1262.89 328.113 1262.59 328.113H1262.16C1262.03 327.989 1261.97 327.895 1261.97 327.833Z" fill="#55A4EE"/>
<path d="M1072.47 126C1086 126 1096.97 115.031 1096.97 101.5C1096.97 87.969 1086 77 1072.47 77C1070.22 77 1068.04 77.3034 1065.97 77.8716C1064.47 78.2833 1062.8 75.8909 1063.97 75.1151C1087.96 59.2352 1116.65 50 1147.47 50C1229.05 50 1295.67 114.687 1299.77 196.04C1299.72 199.5 1295.56 199 1294.47 196.04C1291.03 186.678 1282.03 180 1271.47 180C1257.94 180 1246.97 190.969 1246.97 204.5C1246.97 218.031 1257.94 229 1271.47 229C1282.03 229 1291.03 222.322 1294.47 212.96C1295.31 210.693 1299.72 210 1299.72 212.96C1295.12 293.842 1228.72 358 1147.47 358C1143.77 358 1140.11 357.867 1136.47 357.606C1134.85 357.489 1134.7 354.966 1136.47 354.675C1148.1 352.766 1156.97 342.669 1156.97 330.5C1156.97 316.969 1146 306 1132.47 306C1118.94 306 1107.97 316.969 1107.97 330.5C1107.97 340.075 1113.47 348.368 1121.47 352.398C1123.88 353.608 1122.57 355.971 1120.47 355.594C1049.13 342.722 994.972 279.748 994.972 204C994.972 155.688 1017 112.571 1051.47 84.3364C1052.47 83.5173 1053.97 85.3744 1053.1 86.5C1049.89 90.6449 1047.97 95.849 1047.97 101.5C1047.97 115.031 1058.94 126 1072.47 126Z" stroke="#55A4EE" stroke-width="3"/>
<path d="M1400.97 195.904C1400.97 195.449 1401.22 195.099 1401.71 194.854H1435.17C1435.7 195.134 1435.96 195.484 1435.96 195.904C1435.96 196.29 1435.71 196.622 1435.22 196.903L1418.52 196.955H1401.81C1401.25 196.78 1400.97 196.43 1400.97 195.904ZM1400.97 206.096C1400.97 205.57 1401.25 205.22 1401.81 205.045H1435.22C1435.71 205.395 1435.96 205.745 1435.96 206.096C1435.96 206.551 1435.7 206.901 1435.17 207.146H1401.71C1401.22 206.901 1400.97 206.551 1400.97 206.096Z" fill="black"/>
<circle cx="1681.96" cy="95" r="40" stroke="#55A4EE" stroke-width="3" stroke-dasharray="2 2"/>
<path d="M1720.31 137.747C1720.32 137.691 1720.34 137.615 1720.36 137.521C1720.38 137.426 1720.43 137.218 1720.5 136.897C1720.58 136.576 1720.67 136.283 1720.79 136.019C1720.9 135.754 1721.04 135.443 1721.21 135.084C1721.38 134.725 1721.57 134.441 1721.78 134.234C1721.99 134.026 1722.23 133.818 1722.52 133.61C1722.8 133.403 1723.11 133.318 1723.45 133.355C1723.9 133.355 1724.31 133.421 1724.67 133.554C1725.03 133.686 1725.31 133.856 1725.52 134.064C1725.73 134.271 1725.88 134.479 1725.97 134.687C1726.07 134.895 1726.14 135.074 1726.2 135.225L1726.26 135.424C1726.26 135.462 1726.27 135.48 1726.28 135.48L1726.6 135.169C1727.75 133.96 1729.06 133.355 1730.53 133.355C1731.55 133.355 1732.38 133.61 1733 134.12C1733.62 134.63 1733.94 135.377 1733.96 136.359V136.642C1733.96 137.096 1733.36 139.674 1732.15 144.378C1731.05 148.817 1730.47 151.103 1730.39 151.235C1730.15 151.745 1729.72 152 1729.12 152C1728.87 152 1728.66 151.924 1728.49 151.773C1728.32 151.622 1728.22 151.414 1728.18 151.15C1728.18 150.98 1728.74 148.685 1729.85 144.264L1731.61 137.181C1731.67 136.897 1731.7 136.538 1731.7 136.104C1731.7 134.989 1731.28 134.432 1730.45 134.432H1730.31C1728.68 134.432 1727.31 135.386 1726.2 137.294L1726 137.634L1725.07 141.431C1724.44 143.906 1724.08 145.237 1723.99 145.426C1723.74 145.936 1723.34 146.191 1722.77 146.191C1722.52 146.191 1722.33 146.135 1722.18 146.021C1722.02 145.908 1721.92 145.795 1721.86 145.681C1721.81 145.568 1721.79 145.473 1721.81 145.398C1721.81 145.152 1722.18 143.528 1722.94 140.524C1723.7 137.521 1724.07 135.849 1724.07 135.509C1724.07 134.772 1723.83 134.404 1723.34 134.404C1722.94 134.404 1722.6 134.668 1722.32 135.197C1722.03 135.726 1721.81 136.302 1721.64 136.926C1721.47 137.549 1721.36 137.889 1721.33 137.946C1721.29 137.983 1721.14 138.002 1720.87 138.002H1720.48C1720.36 137.889 1720.31 137.804 1720.31 137.747Z" fill="#55A4EE"/>
<circle cx="1661.96" cy="201" r="200.5" fill="#D9D9D9" fill-opacity="0.3" stroke="black"/>
<path d="M1858.92 186.181C1860.66 189.338 1861.86 192.569 1862.48 195.858L1861.99 195.95C1862.3 197.619 1862.46 199.303 1862.46 201C1862.46 202.697 1862.3 204.381 1861.99 206.05L1862.48 206.142C1861.86 209.431 1860.66 212.662 1858.92 215.819L1858.48 215.577C1856.92 218.386 1854.93 221.142 1852.51 223.835L1852.88 224.169C1850.71 226.595 1848.2 228.964 1845.38 231.271L1845.06 230.884C1842.54 232.95 1839.76 234.967 1836.74 236.929L1837.01 237.348C1834.23 239.153 1831.25 240.911 1828.08 242.617L1827.85 242.177C1824.93 243.747 1821.85 245.274 1818.62 246.755L1818.83 247.21C1815.79 248.604 1812.61 249.957 1809.31 251.266L1809.12 250.801C1806.01 252.034 1802.78 253.228 1799.45 254.381L1799.61 254.854C1796.42 255.958 1793.13 257.024 1789.74 258.05L1789.6 257.571C1786.37 258.548 1783.07 259.488 1779.68 260.391L1779.81 260.874C1776.54 261.746 1773.19 262.583 1769.78 263.383L1769.66 262.896C1766.36 263.669 1762.99 264.408 1759.56 265.111L1759.66 265.601C1756.33 266.284 1752.94 266.933 1749.49 267.548L1749.4 267.055C1746.05 267.651 1742.66 268.214 1739.21 268.743L1739.28 269.237C1735.92 269.754 1732.5 270.237 1729.05 270.687L1728.98 270.191C1725.6 270.631 1722.18 271.039 1718.72 271.413L1718.78 271.91C1715.38 272.277 1711.95 272.612 1708.48 272.915L1708.44 272.416C1705.03 272.713 1701.6 272.977 1698.13 273.209L1698.16 273.708C1694.75 273.937 1691.31 274.133 1687.83 274.297L1687.81 273.798C1684.39 273.959 1680.95 274.089 1677.48 274.187L1677.49 274.687C1674.07 274.783 1670.62 274.847 1667.15 274.88L1667.14 274.38C1665.42 274.396 1663.69 274.404 1661.96 274.404C1660.23 274.404 1658.5 274.396 1656.77 274.38L1656.77 274.88C1653.3 274.847 1649.85 274.783 1646.42 274.687L1646.44 274.187C1642.97 274.089 1639.52 273.959 1636.11 273.798L1636.08 274.297C1632.61 274.133 1629.17 273.937 1625.75 273.708L1625.79 273.209C1622.32 272.978 1618.88 272.713 1615.48 272.416L1615.44 272.915C1611.97 272.612 1608.54 272.277 1605.14 271.91L1605.19 271.413C1601.73 271.039 1598.31 270.631 1594.93 270.191L1594.87 270.687C1591.41 270.237 1588 269.754 1584.63 269.237L1584.71 268.743C1581.26 268.214 1577.86 267.651 1574.52 267.055L1574.43 267.548C1570.98 266.933 1567.59 266.284 1564.25 265.601L1564.35 265.111C1560.92 264.408 1557.56 263.669 1554.25 262.896L1554.14 263.383C1550.72 262.583 1547.38 261.746 1544.1 260.874L1544.23 260.391C1540.85 259.488 1537.54 258.548 1534.32 257.571L1534.18 258.05C1530.79 257.024 1527.5 255.958 1524.31 254.854L1524.47 254.381C1521.13 253.228 1517.91 252.034 1514.79 250.801L1514.61 251.266C1511.31 249.957 1508.13 248.604 1505.09 247.21L1505.29 246.755C1502.06 245.274 1498.99 243.747 1496.07 242.177L1495.83 242.617C1492.67 240.911 1489.69 239.153 1486.91 237.348L1487.18 236.929C1484.16 234.967 1481.38 232.95 1478.86 230.884L1478.54 231.271C1475.72 228.964 1473.21 226.595 1471.03 224.169L1471.41 223.835C1468.99 221.142 1466.99 218.386 1465.44 215.577L1465 215.819C1463.25 212.662 1462.05 209.431 1461.44 206.142L1461.93 206.05C1461.62 204.381 1461.46 202.697 1461.46 201C1461.46 199.303 1461.62 197.619 1461.93 195.95L1461.44 195.858C1462.05 192.569 1463.25 189.338 1465 186.181L1465.44 186.423C1466.99 183.614 1468.99 180.858 1471.41 178.165L1471.03 177.831C1473.21 175.405 1475.72 173.036 1478.54 170.729L1478.86 171.116C1481.38 169.05 1484.16 167.033 1487.18 165.071L1486.91 164.652C1489.69 162.847 1492.67 161.089 1495.83 159.383L1496.07 159.823C1498.99 158.253 1502.06 156.726 1505.29 155.245L1505.09 154.79C1508.13 153.396 1511.31 152.043 1514.61 150.734L1514.79 151.199C1517.91 149.966 1521.13 148.772 1524.47 147.619L1524.31 147.146C1527.5 146.042 1530.79 144.976 1534.18 143.95L1534.32 144.429C1537.54 143.452 1540.85 142.512 1544.23 141.609L1544.1 141.126C1547.38 140.254 1550.72 139.417 1554.14 138.617L1554.25 139.104C1557.56 138.331 1560.92 137.592 1564.35 136.889L1564.25 136.399C1567.59 135.716 1570.98 135.067 1574.43 134.452L1574.52 134.945C1577.86 134.349 1581.26 133.786 1584.71 133.257L1584.63 132.763C1588 132.246 1591.41 131.763 1594.87 131.313L1594.93 131.809C1598.31 131.369 1601.73 130.961 1605.19 130.587L1605.14 130.09C1608.54 129.723 1611.97 129.388 1615.44 129.085L1615.48 129.584C1618.88 129.287 1622.32 129.023 1625.79 128.791L1625.75 128.292C1629.17 128.063 1632.61 127.867 1636.08 127.703L1636.11 128.202C1639.52 128.041 1642.97 127.911 1646.44 127.813L1646.42 127.313C1649.85 127.217 1653.3 127.153 1656.77 127.12L1656.77 127.62C1658.5 127.604 1660.23 127.596 1661.96 127.596C1663.69 127.596 1665.42 127.604 1667.14 127.62L1667.15 127.12C1670.62 127.153 1674.07 127.217 1677.49 127.313L1677.48 127.813C1680.95 127.911 1684.39 128.041 1687.81 128.202L1687.83 127.703C1691.31 127.867 1694.75 128.063 1698.16 128.292L1698.13 128.791C1701.6 129.023 1705.03 129.287 1708.44 129.584L1708.48 129.085C1711.95 129.388 1715.38 129.723 1718.78 130.09L1718.72 130.587C1722.18 130.961 1725.6 131.369 1728.98 131.809L1729.05 131.313C1732.5 131.763 1735.92 132.246 1739.28 132.763L1739.21 133.257C1742.66 133.786 1746.05 134.349 1749.4 134.945L1749.49 134.452C1752.94 135.067 1756.33 135.716 1759.66 136.399L1759.56 136.889C1762.99 137.592 1766.36 138.331 1769.66 139.104L1769.78 138.617C1773.19 139.417 1776.54 140.254 1779.81 141.126L1779.68 141.609C1783.07 142.512 1786.37 143.452 1789.6 144.429L1789.74 143.95C1793.13 144.976 1796.42 146.042 1799.61 147.146L1799.45 147.619C1802.78 148.772 1806.01 149.966 1809.12 151.199L1809.31 150.734C1812.61 152.043 1815.79 153.396 1818.83 154.79L1818.62 155.245C1821.85 156.726 1824.93 158.253 1827.85 159.823L1828.08 159.383C1831.25 161.089 1834.23 162.847 1837.01 164.652L1836.74 165.071C1839.76 167.033 1842.54 169.05 1845.06 171.116L1845.38 170.729C1848.2 173.036 1850.71 175.405 1852.88 177.831L1852.51 178.165C1854.93 180.858 1856.92 183.614 1858.48 186.423L1858.92 186.181Z" stroke="black" stroke-dasharray="10 10"/>
<circle cx="1558.96" cy="100" r="3" fill="black"/>
<path d="M1566.76 116.881C1565.34 116.881 1564.19 116.409 1563.31 115.467C1562.43 114.525 1561.98 113.342 1561.96 111.919C1561.96 109.825 1562.72 107.878 1564.25 106.078C1565.78 104.277 1567.56 103.262 1569.59 103.031C1569.61 103.01 1571.08 103 1573.99 103H1578.32C1578.34 103.021 1578.37 103.042 1578.41 103.063C1578.46 103.084 1578.5 103.105 1578.54 103.126C1578.58 103.147 1578.61 103.167 1578.63 103.188C1578.66 103.209 1578.69 103.241 1578.73 103.283C1578.77 103.325 1578.79 103.345 1578.79 103.345C1578.79 103.345 1578.81 103.387 1578.85 103.471C1578.9 103.555 1578.91 103.597 1578.89 103.597C1578.86 103.597 1578.87 103.649 1578.92 103.754C1578.96 103.858 1578.97 103.921 1578.95 103.942C1578.95 104.863 1578.27 105.324 1576.91 105.324C1576.76 105.324 1576.58 105.324 1576.37 105.324C1576.16 105.324 1576.02 105.313 1575.93 105.292H1574.05L1574.21 105.607C1574.58 106.402 1574.77 107.292 1574.77 108.276C1574.77 110.579 1573.93 112.589 1572.26 114.305C1570.58 116.022 1568.75 116.881 1566.76 116.881ZM1572.32 107.805C1572.32 106.13 1571.43 105.292 1569.65 105.292C1567.06 105.292 1565.37 107.114 1564.6 110.757C1564.58 110.841 1564.57 110.903 1564.57 110.945C1564.4 111.72 1564.31 112.358 1564.31 112.861C1564.31 113.908 1564.58 114.64 1565.1 115.059C1565.62 115.478 1566.22 115.698 1566.89 115.719C1568.02 115.719 1569.06 115.227 1570 114.243C1570.61 113.615 1571.1 112.777 1571.47 111.73C1571.85 110.683 1572.08 109.846 1572.16 109.218C1572.25 108.59 1572.3 108.119 1572.32 107.805Z" fill="black"/>
<circle cx="1618.96" cy="330" r="3" fill="black"/>
<path d="M1626.76 346.881C1625.34 346.881 1624.19 346.409 1623.31 345.467C1622.43 344.525 1621.98 343.342 1621.96 341.919C1621.96 339.825 1622.72 337.878 1624.25 336.078C1625.78 334.277 1627.56 333.262 1629.59 333.031C1629.61 333.01 1631.08 333 1633.99 333H1638.32C1638.34 333.021 1638.37 333.042 1638.41 333.063C1638.46 333.084 1638.5 333.105 1638.54 333.126C1638.58 333.147 1638.61 333.167 1638.63 333.188C1638.66 333.209 1638.69 333.241 1638.73 333.283C1638.77 333.325 1638.79 333.345 1638.79 333.345C1638.79 333.345 1638.81 333.387 1638.85 333.471C1638.9 333.555 1638.91 333.597 1638.89 333.597C1638.86 333.597 1638.87 333.649 1638.92 333.754C1638.96 333.858 1638.97 333.921 1638.95 333.942C1638.95 334.863 1638.27 335.324 1636.91 335.324C1636.76 335.324 1636.58 335.324 1636.37 335.324C1636.16 335.324 1636.02 335.313 1635.93 335.292H1634.05L1634.21 335.607C1634.58 336.402 1634.77 337.292 1634.77 338.276C1634.77 340.579 1633.93 342.589 1632.26 344.305C1630.58 346.022 1628.75 346.881 1626.76 346.881ZM1632.32 337.805C1632.32 336.13 1631.43 335.292 1629.65 335.292C1627.06 335.292 1625.37 337.114 1624.6 340.757C1624.58 340.841 1624.57 340.903 1624.57 340.945C1624.4 341.72 1624.31 342.358 1624.31 342.861C1624.31 343.908 1624.58 344.64 1625.1 345.059C1625.62 345.478 1626.22 345.698 1626.89 345.719C1628.02 345.719 1629.06 345.227 1630 344.243C1630.61 343.615 1631.1 342.777 1631.47 341.73C1631.85 340.683 1632.08 339.846 1632.16 339.218C1632.25 338.59 1632.3 338.119 1632.32 337.805Z" fill="black"/>
<circle cx="1758.96" cy="204" r="3" fill="black"/>
<path d="M1766.76 220.881C1765.34 220.881 1764.19 220.409 1763.31 219.467C1762.43 218.525 1761.98 217.342 1761.96 215.919C1761.96 213.825 1762.72 211.878 1764.25 210.078C1765.78 208.277 1767.56 207.262 1769.59 207.031C1769.61 207.01 1771.08 207 1773.99 207H1778.32C1778.34 207.021 1778.37 207.042 1778.41 207.063C1778.46 207.084 1778.5 207.105 1778.54 207.126C1778.58 207.147 1778.61 207.167 1778.63 207.188C1778.66 207.209 1778.69 207.241 1778.73 207.283C1778.77 207.325 1778.79 207.345 1778.79 207.345C1778.79 207.345 1778.81 207.387 1778.85 207.471C1778.9 207.555 1778.91 207.597 1778.89 207.597C1778.86 207.597 1778.87 207.649 1778.92 207.754C1778.96 207.858 1778.97 207.921 1778.95 207.942C1778.95 208.863 1778.27 209.324 1776.91 209.324C1776.76 209.324 1776.58 209.324 1776.37 209.324C1776.16 209.324 1776.02 209.313 1775.93 209.292H1774.05L1774.21 209.607C1774.58 210.402 1774.77 211.292 1774.77 212.276C1774.77 214.579 1773.93 216.589 1772.26 218.305C1770.58 220.022 1768.75 220.881 1766.76 220.881ZM1772.32 211.805C1772.32 210.13 1771.43 209.292 1769.65 209.292C1767.06 209.292 1765.37 211.114 1764.6 214.757C1764.58 214.841 1764.57 214.903 1764.57 214.945C1764.4 215.72 1764.31 216.358 1764.31 216.861C1764.31 217.908 1764.58 218.64 1765.1 219.059C1765.62 219.478 1766.22 219.698 1766.89 219.719C1768.02 219.719 1769.06 219.227 1770 218.243C1770.61 217.615 1771.1 216.777 1771.47 215.73C1771.85 214.683 1772.08 213.846 1772.16 213.218C1772.25 212.59 1772.3 212.119 1772.32 211.805Z" fill="black"/>
<circle cx="1758.54" cy="204.584" r="24.5838" stroke="#55A4EE" stroke-width="3"/>
<path d="M1781.3 231.747C1781.32 231.691 1781.34 231.615 1781.36 231.521C1781.38 231.426 1781.42 231.218 1781.5 230.897C1781.57 230.576 1781.67 230.283 1781.78 230.019C1781.9 229.754 1782.04 229.443 1782.21 229.084C1782.38 228.725 1782.57 228.441 1782.77 228.234C1782.98 228.026 1783.23 227.818 1783.51 227.61C1783.79 227.403 1784.11 227.318 1784.45 227.355C1784.9 227.355 1785.31 227.421 1785.66 227.554C1786.02 227.686 1786.31 227.856 1786.51 228.064C1786.72 228.271 1786.87 228.479 1786.97 228.687C1787.06 228.895 1787.14 229.074 1787.19 229.225L1787.25 229.424C1787.25 229.462 1787.26 229.48 1787.28 229.48L1787.59 229.169C1788.74 227.96 1790.06 227.355 1791.53 227.355C1792.55 227.355 1793.37 227.61 1794 228.12C1794.62 228.63 1794.94 229.377 1794.96 230.359V230.642C1794.96 231.096 1794.35 233.674 1793.15 238.378C1792.05 242.817 1791.46 245.103 1791.39 245.235C1791.14 245.745 1790.72 246 1790.11 246C1789.87 246 1789.66 245.924 1789.49 245.773C1789.32 245.622 1789.22 245.414 1789.18 245.15C1789.18 244.98 1789.74 242.685 1790.85 238.264L1792.61 231.181C1792.66 230.897 1792.69 230.538 1792.69 230.104C1792.69 228.989 1792.28 228.432 1791.44 228.432H1791.3C1789.68 228.432 1788.31 229.386 1787.19 231.294L1787 231.634L1786.06 235.431C1785.44 237.906 1785.08 239.237 1784.98 239.426C1784.74 239.936 1784.33 240.191 1783.77 240.191C1783.52 240.191 1783.32 240.135 1783.17 240.021C1783.02 239.908 1782.92 239.795 1782.86 239.681C1782.8 239.568 1782.78 239.473 1782.8 239.398C1782.8 239.152 1783.18 237.528 1783.94 234.524C1784.69 231.521 1785.07 229.849 1785.07 229.509C1785.07 228.772 1784.82 228.404 1784.33 228.404C1783.94 228.404 1783.6 228.668 1783.31 229.197C1783.03 229.726 1782.8 230.302 1782.63 230.926C1782.46 231.549 1782.36 231.889 1782.32 231.946C1782.28 231.983 1782.13 232.002 1781.87 232.002H1781.47C1781.36 231.889 1781.3 231.804 1781.3 231.747Z" fill="#55A4EE"/>
<circle cx="1619.54" cy="330.584" r="24.5838" stroke="#55A4EE" stroke-width="3"/>
<path d="M1642.31 357.747C1642.32 357.691 1642.34 357.615 1642.36 357.521C1642.38 357.426 1642.43 357.218 1642.5 356.897C1642.58 356.576 1642.67 356.283 1642.79 356.019C1642.9 355.754 1643.04 355.443 1643.21 355.084C1643.38 354.725 1643.57 354.441 1643.78 354.234C1643.99 354.026 1644.23 353.818 1644.52 353.61C1644.8 353.403 1645.11 353.318 1645.45 353.355C1645.9 353.355 1646.31 353.421 1646.67 353.554C1647.03 353.686 1647.31 353.856 1647.52 354.064C1647.73 354.271 1647.88 354.479 1647.97 354.687C1648.07 354.895 1648.14 355.074 1648.2 355.225L1648.26 355.424C1648.26 355.462 1648.27 355.48 1648.28 355.48L1648.6 355.169C1649.75 353.96 1651.06 353.355 1652.53 353.355C1653.55 353.355 1654.38 353.61 1655 354.12C1655.62 354.63 1655.94 355.377 1655.96 356.359V356.642C1655.96 357.096 1655.36 359.674 1654.15 364.378C1653.05 368.817 1652.47 371.103 1652.39 371.235C1652.15 371.745 1651.72 372 1651.12 372C1650.87 372 1650.66 371.924 1650.49 371.773C1650.32 371.622 1650.22 371.414 1650.18 371.15C1650.18 370.98 1650.74 368.685 1651.85 364.264L1653.61 357.181C1653.67 356.897 1653.7 356.538 1653.7 356.104C1653.7 354.989 1653.28 354.432 1652.45 354.432H1652.31C1650.68 354.432 1649.31 355.386 1648.2 357.294L1648 357.634L1647.07 361.431C1646.44 363.906 1646.08 365.237 1645.99 365.426C1645.74 365.936 1645.34 366.191 1644.77 366.191C1644.52 366.191 1644.33 366.135 1644.18 366.021C1644.02 365.908 1643.92 365.795 1643.86 365.681C1643.81 365.568 1643.79 365.473 1643.81 365.398C1643.81 365.152 1644.18 363.528 1644.94 360.524C1645.7 357.521 1646.07 355.849 1646.07 355.509C1646.07 354.772 1645.83 354.404 1645.34 354.404C1644.94 354.404 1644.6 354.668 1644.32 355.197C1644.03 355.726 1643.81 356.302 1643.64 356.926C1643.47 357.549 1643.36 357.889 1643.33 357.946C1643.29 357.983 1643.14 358.002 1642.87 358.002H1642.48C1642.36 357.889 1642.31 357.804 1642.31 357.747Z" fill="#55A4EE"/>
<circle cx="1559.54" cy="101.584" r="24.5838" stroke="#55A4EE" stroke-width="3"/>
<path d="M1582.31 128.747C1582.32 128.691 1582.34 128.615 1582.36 128.521C1582.38 128.426 1582.43 128.218 1582.5 127.897C1582.58 127.576 1582.67 127.283 1582.79 127.019C1582.9 126.754 1583.04 126.443 1583.21 126.084C1583.38 125.725 1583.57 125.441 1583.78 125.234C1583.99 125.026 1584.23 124.818 1584.52 124.61C1584.8 124.403 1585.11 124.318 1585.45 124.355C1585.9 124.355 1586.31 124.421 1586.67 124.554C1587.03 124.686 1587.31 124.856 1587.52 125.064C1587.73 125.271 1587.88 125.479 1587.97 125.687C1588.07 125.895 1588.14 126.074 1588.2 126.225L1588.26 126.424C1588.26 126.462 1588.27 126.48 1588.28 126.48L1588.6 126.169C1589.75 124.96 1591.06 124.355 1592.53 124.355C1593.55 124.355 1594.38 124.61 1595 125.12C1595.62 125.63 1595.94 126.377 1595.96 127.359V127.642C1595.96 128.096 1595.36 130.674 1594.15 135.378C1593.05 139.817 1592.47 142.103 1592.39 142.235C1592.15 142.745 1591.72 143 1591.12 143C1590.87 143 1590.66 142.924 1590.49 142.773C1590.32 142.622 1590.22 142.414 1590.18 142.15C1590.18 141.98 1590.74 139.685 1591.85 135.264L1593.61 128.181C1593.67 127.897 1593.7 127.538 1593.7 127.104C1593.7 125.989 1593.28 125.432 1592.45 125.432H1592.31C1590.68 125.432 1589.31 126.386 1588.2 128.294L1588 128.634L1587.07 132.431C1586.44 134.906 1586.08 136.237 1585.99 136.426C1585.74 136.936 1585.34 137.191 1584.77 137.191C1584.52 137.191 1584.33 137.135 1584.18 137.021C1584.02 136.908 1583.92 136.795 1583.86 136.681C1583.81 136.568 1583.79 136.473 1583.81 136.398C1583.81 136.152 1584.18 134.528 1584.94 131.524C1585.7 128.521 1586.07 126.849 1586.07 126.509C1586.07 125.772 1585.83 125.404 1585.34 125.404C1584.94 125.404 1584.6 125.668 1584.32 126.197C1584.03 126.726 1583.81 127.302 1583.64 127.926C1583.47 128.549 1583.36 128.889 1583.33 128.946C1583.29 128.983 1583.14 129.002 1582.87 129.002H1582.48C1582.36 128.889 1582.31 128.804 1582.31 128.747Z" fill="#55A4EE"/>
<path d="M427 622.904C427 622.449 427.245 622.099 427.735 621.854H461.198C461.724 622.134 461.986 622.484 461.986 622.904C461.986 623.29 461.741 623.622 461.251 623.903L444.546 623.955H427.841C427.28 623.78 427 623.43 427 622.904ZM427 633.096C427 632.57 427.28 632.22 427.841 632.045H461.251C461.741 632.395 461.986 632.745 461.986 633.096C461.986 633.551 461.724 633.901 461.198 634.146H427.735C427.245 633.901 427 633.551 427 633.096Z" fill="black"/>
<circle cx="687.986" cy="628" r="200.5" fill="#D9D9D9" fill-opacity="0.3" stroke="black"/>
<path d="M884.944 613.181C886.692 616.338 887.892 619.569 888.507 622.858L888.016 622.95C888.328 624.619 888.486 626.303 888.486 628C888.486 629.697 888.328 631.381 888.016 633.05L888.507 633.142C887.892 636.431 886.692 639.662 884.944 642.819L884.507 642.577C882.952 645.386 880.954 648.142 878.538 650.835L878.91 651.169C876.735 653.595 874.226 655.964 871.406 658.271L871.089 657.884C868.564 659.95 865.784 661.967 862.763 663.929L863.035 664.348C860.257 666.153 857.279 667.911 854.111 669.617L853.873 669.177C850.958 670.747 847.881 672.274 844.65 673.755L844.858 674.21C841.816 675.604 838.639 676.957 835.335 678.266L835.151 677.801C832.037 679.034 828.81 680.228 825.475 681.381L825.638 681.854C822.445 682.958 819.153 684.024 815.768 685.05L815.623 684.571C812.403 685.548 809.097 686.488 805.712 687.391L805.84 687.874C802.568 688.746 799.222 689.583 795.806 690.383L795.692 689.896C792.389 690.669 789.021 691.408 785.591 692.111L785.691 692.601C782.356 693.284 778.963 693.933 775.515 694.548L775.427 694.055C772.081 694.651 768.683 695.214 765.236 695.743L765.312 696.237C761.945 696.754 758.532 697.237 755.075 697.687L755.01 697.191C751.631 697.631 748.21 698.039 744.75 698.413L744.804 698.91C741.408 699.277 737.975 699.612 734.507 699.915L734.464 699.416C731.061 699.713 727.625 699.977 724.158 700.209L724.191 700.708C720.777 700.937 717.333 701.133 713.861 701.297L713.837 700.798C710.42 700.959 706.976 701.089 703.507 701.187L703.521 701.687C700.096 701.783 696.646 701.847 693.175 701.88L693.171 701.38C691.448 701.396 689.72 701.404 687.986 701.404C686.253 701.404 684.525 701.396 682.802 701.38L682.797 701.88C679.326 701.847 675.877 701.783 672.452 701.687L672.466 701.187C668.997 701.089 665.552 700.959 662.135 700.798L662.111 701.297C658.64 701.133 655.195 700.937 651.781 700.708L651.814 700.209C648.347 699.977 644.911 699.713 641.508 699.416L641.465 699.915C637.997 699.612 634.564 699.277 631.168 698.91L631.222 698.413C627.762 698.039 624.341 697.631 620.962 697.191L620.898 697.687C617.441 697.237 614.028 696.754 610.661 696.237L610.736 695.743C607.29 695.214 603.892 694.651 600.545 694.055L600.458 694.548C597.01 693.933 593.616 693.284 590.282 692.601L590.382 692.111C586.951 691.408 583.583 690.669 580.281 689.896L580.167 690.383C576.75 689.583 573.404 688.746 570.132 687.874L570.261 687.391C566.875 686.488 563.57 685.548 560.349 684.571L560.204 685.05C556.819 684.024 553.528 682.958 550.334 681.854L550.497 681.381C547.162 680.228 543.935 679.034 540.822 677.801L540.637 678.266C537.333 676.957 534.156 675.604 531.114 674.21L531.322 673.755C528.092 672.274 525.014 670.747 522.099 669.177L521.862 669.617C518.694 667.911 515.715 666.153 512.937 664.348L513.209 663.929C510.189 661.967 507.409 659.95 504.883 657.884L504.567 658.271C501.746 655.964 499.238 653.595 497.062 651.169L497.434 650.835C495.018 648.142 493.02 645.386 491.465 642.577L491.028 642.819C489.28 639.662 488.08 636.431 487.465 633.142L487.957 633.05C487.645 631.381 487.486 629.697 487.486 628C487.486 626.303 487.645 624.619 487.957 622.95L487.465 622.858C488.08 619.569 489.28 616.338 491.028 613.181L491.465 613.423C493.02 610.614 495.018 607.858 497.434 605.165L497.062 604.831C499.238 602.405 501.746 600.036 504.567 597.729L504.883 598.116C507.409 596.05 510.189 594.033 513.209 592.071L512.937 591.652C515.715 589.847 518.694 588.089 521.862 586.383L522.099 586.823C525.014 585.253 528.092 583.726 531.322 582.245L531.114 581.79C534.156 580.396 537.333 579.043 540.637 577.734L540.822 578.199C543.935 576.966 547.162 575.772 550.497 574.619L550.334 574.146C553.528 573.042 556.819 571.976 560.204 570.95L560.349 571.429C563.57 570.452 566.875 569.512 570.261 568.609L570.132 568.126C573.404 567.254 576.75 566.417 580.167 565.617L580.28 566.104C583.583 565.331 586.951 564.592 590.382 563.889L590.282 563.399C593.616 562.716 597.01 562.067 600.458 561.452L600.545 561.945C603.891 561.349 607.29 560.786 610.736 560.257L610.661 559.763C614.028 559.246 617.441 558.763 620.898 558.313L620.962 558.809C624.341 558.369 627.762 557.961 631.222 557.587L631.168 557.09C634.564 556.723 637.997 556.388 641.465 556.085L641.508 556.584C644.911 556.287 648.347 556.023 651.814 555.791L651.781 555.292C655.195 555.063 658.639 554.867 662.111 554.703L662.135 555.202C665.552 555.041 668.997 554.911 672.466 554.813L672.452 554.313C675.877 554.217 679.326 554.152 682.797 554.12L682.802 554.62C684.525 554.604 686.253 554.596 687.986 554.596C689.72 554.596 691.448 554.604 693.171 554.62L693.175 554.12C696.646 554.152 700.096 554.217 703.521 554.313L703.507 554.813C706.976 554.911 710.42 555.041 713.837 555.202L713.861 554.703C717.333 554.867 720.777 555.063 724.191 555.292L724.158 555.791C727.625 556.022 731.061 556.287 734.464 556.584L734.507 556.085C737.975 556.388 741.408 556.723 744.804 557.09L744.75 557.587C748.21 557.961 751.631 558.369 755.01 558.809L755.075 558.313C758.532 558.763 761.945 559.246 765.312 559.763L765.236 560.257C768.683 560.786 772.081 561.349 775.427 561.945L775.515 561.452C778.963 562.067 782.356 562.716 785.691 563.399L785.591 563.889C789.021 564.592 792.389 565.331 795.692 566.104L795.806 565.617C799.222 566.417 802.568 567.254 805.84 568.126L805.712 568.609C809.097 569.512 812.402 570.452 815.623 571.429L815.768 570.95C819.153 571.976 822.445 573.042 825.638 574.146L825.475 574.619C828.81 575.772 832.037 576.966 835.151 578.199L835.335 577.734C838.639 579.043 841.816 580.396 844.858 581.79L844.65 582.245C847.881 583.726 850.958 585.253 853.873 586.823L854.111 586.383C857.279 588.089 860.257 589.847 863.035 591.652L862.763 592.071C865.784 594.033 868.564 596.05 871.089 598.116L871.406 597.729C874.226 600.036 876.735 602.405 878.91 604.831L878.538 605.165C880.954 607.858 882.952 610.614 884.507 613.423L884.944 613.181Z" stroke="black" stroke-dasharray="10 10"/>
<path d="M566.986 544.944C566.986 544.944 566.986 544.803 566.986 544.522C566.986 544.24 567.138 544.023 567.441 543.872H586.315C586.639 544.045 586.802 544.262 586.802 544.522C586.802 544.781 586.639 544.998 586.315 545.171H567.441C567.138 545.02 566.986 544.803 566.986 544.522V544.944Z" fill="black"/>
<path d="M595.508 553C594.035 553 592.844 552.513 591.934 551.538C591.025 550.564 590.559 549.34 590.538 547.867C590.538 545.702 591.328 543.688 592.909 541.825C594.49 539.963 596.331 538.912 598.431 538.674C598.453 538.653 599.969 538.642 602.979 538.642H607.462C607.484 538.663 607.516 538.685 607.56 538.707C607.603 538.728 607.646 538.75 607.689 538.772C607.733 538.793 607.765 538.815 607.787 538.837C607.809 538.858 607.841 538.891 607.884 538.934C607.928 538.977 607.949 538.999 607.949 538.999C607.949 538.999 607.971 539.042 608.014 539.129C608.058 539.216 608.068 539.259 608.047 539.259C608.025 539.259 608.036 539.313 608.079 539.421C608.123 539.53 608.133 539.595 608.112 539.616C608.112 540.569 607.408 541.046 606 541.046C605.849 541.046 605.665 541.046 605.448 541.046C605.231 541.046 605.08 541.035 604.993 541.013H603.044L603.207 541.338C603.596 542.161 603.791 543.081 603.791 544.099C603.791 546.481 602.925 548.56 601.193 550.336C599.46 552.112 597.565 553 595.508 553ZM601.257 543.612C601.257 541.879 600.337 541.013 598.496 541.013C595.811 541.013 594.068 542.897 593.266 546.665C593.245 546.752 593.234 546.817 593.234 546.86C593.061 547.662 592.974 548.322 592.974 548.842C592.974 549.925 593.245 550.683 593.786 551.116C594.327 551.549 594.945 551.776 595.638 551.798C596.807 551.798 597.879 551.289 598.854 550.271C599.482 549.622 599.991 548.755 600.38 547.673C600.77 546.59 601.008 545.723 601.095 545.074C601.182 544.424 601.236 543.937 601.257 543.612Z" fill="black"/>
<circle cx="585.114" cy="526.789" r="2.78891" fill="black"/>
<path d="M766.986 648.944C766.986 648.944 766.986 648.803 766.986 648.522C766.986 648.24 767.138 648.023 767.441 647.872H786.315C786.639 648.045 786.802 648.262 786.802 648.522C786.802 648.781 786.639 648.998 786.315 649.171H767.441C767.138 649.02 766.986 648.803 766.986 648.522V648.944Z" fill="black"/>
<path d="M795.508 657C794.035 657 792.844 656.513 791.934 655.538C791.025 654.564 790.559 653.34 790.538 651.867C790.538 649.702 791.328 647.688 792.909 645.825C794.49 643.963 796.331 642.912 798.431 642.674C798.453 642.653 799.969 642.642 802.979 642.642H807.462C807.484 642.663 807.516 642.685 807.56 642.707C807.603 642.728 807.646 642.75 807.689 642.772C807.733 642.793 807.765 642.815 807.787 642.837C807.809 642.858 807.841 642.891 807.884 642.934C807.928 642.977 807.949 642.999 807.949 642.999C807.949 642.999 807.971 643.042 808.014 643.129C808.058 643.216 808.068 643.259 808.047 643.259C808.025 643.259 808.036 643.313 808.079 643.421C808.123 643.53 808.133 643.595 808.112 643.616C808.112 644.569 807.408 645.046 806 645.046C805.849 645.046 805.665 645.046 805.448 645.046C805.231 645.046 805.08 645.035 804.993 645.013H803.044L803.207 645.338C803.596 646.161 803.791 647.081 803.791 648.099C803.791 650.481 802.925 652.56 801.193 654.336C799.46 656.112 797.565 657 795.508 657ZM801.258 647.612C801.258 645.879 800.337 645.013 798.496 645.013C795.811 645.013 794.068 646.897 793.266 650.665C793.245 650.752 793.234 650.817 793.234 650.86C793.061 651.662 792.974 652.322 792.974 652.842C792.974 653.925 793.245 654.683 793.786 655.116C794.327 655.549 794.945 655.776 795.638 655.798C796.807 655.798 797.879 655.289 798.854 654.271C799.482 653.622 799.991 652.755 800.38 651.673C800.77 650.59 801.008 649.723 801.095 649.074C801.182 648.424 801.236 647.937 801.258 647.612Z" fill="black"/>
<circle cx="785.114" cy="630.789" r="2.78891" fill="black"/>
<path d="M626.986 774.944C626.986 774.944 626.986 774.803 626.986 774.522C626.986 774.24 627.138 774.023 627.441 773.872H646.315C646.639 774.045 646.802 774.262 646.802 774.522C646.802 774.781 646.639 774.998 646.315 775.171H627.441C627.138 775.02 626.986 774.803 626.986 774.522V774.944Z" fill="black"/>
<path d="M655.508 783C654.035 783 652.844 782.513 651.934 781.538C651.025 780.564 650.559 779.34 650.538 777.867C650.538 775.702 651.328 773.688 652.909 771.825C654.49 769.963 656.331 768.912 658.431 768.674C658.453 768.653 659.969 768.642 662.979 768.642H667.462C667.484 768.663 667.516 768.685 667.56 768.707C667.603 768.728 667.646 768.75 667.689 768.772C667.733 768.793 667.765 768.815 667.787 768.837C667.809 768.858 667.841 768.891 667.884 768.934C667.928 768.977 667.949 768.999 667.949 768.999C667.949 768.999 667.971 769.042 668.014 769.129C668.058 769.216 668.068 769.259 668.047 769.259C668.025 769.259 668.036 769.313 668.079 769.421C668.123 769.53 668.133 769.595 668.112 769.616C668.112 770.569 667.408 771.046 666 771.046C665.849 771.046 665.665 771.046 665.448 771.046C665.231 771.046 665.08 771.035 664.993 771.013H663.044L663.207 771.338C663.596 772.161 663.791 773.081 663.791 774.099C663.791 776.481 662.925 778.56 661.193 780.336C659.46 782.112 657.565 783 655.508 783ZM661.257 773.612C661.257 771.879 660.337 771.013 658.496 771.013C655.811 771.013 654.068 772.897 653.266 776.665C653.245 776.752 653.234 776.817 653.234 776.86C653.061 777.662 652.974 778.322 652.974 778.842C652.974 779.925 653.245 780.683 653.786 781.116C654.327 781.549 654.945 781.776 655.638 781.798C656.807 781.798 657.879 781.289 658.854 780.271C659.482 779.622 659.991 778.755 660.38 777.673C660.77 776.59 661.008 775.723 661.095 775.074C661.182 774.424 661.236 773.937 661.257 773.612Z" fill="black"/>
<circle cx="645.114" cy="756.789" r="2.78891" fill="black"/>
<path d="M913.986 622.904C913.986 622.449 914.231 622.099 914.722 621.854H948.184C948.71 622.134 948.972 622.484 948.972 622.904C948.972 623.29 948.727 623.622 948.237 623.903L931.532 623.955H914.827C914.266 623.78 913.986 623.43 913.986 622.904ZM913.986 633.096C913.986 632.57 914.266 632.22 914.827 632.045H948.237C948.727 632.395 948.972 632.745 948.972 633.096C948.972 633.551 948.71 633.901 948.184 634.146H914.722C914.231 633.901 913.986 633.551 913.986 633.096Z" fill="black"/>
<path d="M973.972 628.554C973.972 628.554 973.972 628.37 973.972 628C973.972 627.63 974.171 627.346 974.569 627.147H999.334C999.76 627.374 999.974 627.659 999.974 628C999.974 628.341 999.76 628.626 999.334 628.853H974.569C974.171 628.654 973.972 628.37 973.972 628V628.554Z" fill="black"/>
<circle cx="1225.97" cy="628" r="200.5" fill="#D9D9D9" fill-opacity="0.3" stroke="black"/>
<path d="M1422.93 613.181C1424.68 616.338 1425.88 619.569 1426.49 622.858L1426 622.95C1426.32 624.619 1426.47 626.303 1426.47 628C1426.47 629.697 1426.32 631.381 1426 633.05L1426.49 633.142C1425.88 636.431 1424.68 639.662 1422.93 642.819L1422.49 642.577C1420.94 645.386 1418.94 648.142 1416.53 650.835L1416.9 651.169C1414.72 653.595 1412.21 655.964 1409.39 658.271L1409.08 657.884C1406.55 659.95 1403.77 661.967 1400.75 663.929L1401.02 664.348C1398.24 666.153 1395.27 667.911 1392.1 669.617L1391.86 669.177C1388.95 670.747 1385.87 672.274 1382.64 673.755L1382.85 674.21C1379.8 675.604 1376.63 676.957 1373.32 678.266L1373.14 677.801C1370.02 679.034 1366.8 680.228 1363.46 681.381L1363.63 681.854C1360.43 682.958 1357.14 684.024 1353.76 685.05L1353.61 684.571C1350.39 685.548 1347.08 686.488 1343.7 687.391L1343.83 687.874C1340.56 688.746 1337.21 689.583 1333.79 690.383L1333.68 689.896C1330.38 690.669 1327.01 691.408 1323.58 692.111L1323.68 692.601C1320.34 693.284 1316.95 693.933 1313.5 694.548L1313.41 694.055C1310.07 694.651 1306.67 695.214 1303.22 695.743L1303.3 696.237C1299.93 696.754 1296.52 697.237 1293.06 697.687L1293 697.191C1289.62 697.631 1286.2 698.039 1282.74 698.413L1282.79 698.91C1279.4 699.277 1275.96 699.612 1272.49 699.915L1272.45 699.416C1269.05 699.713 1265.61 699.977 1262.15 700.209L1262.18 700.708C1258.76 700.937 1255.32 701.133 1251.85 701.297L1251.82 700.798C1248.41 700.959 1244.96 701.089 1241.49 701.187L1241.51 701.687C1238.08 701.783 1234.63 701.847 1231.16 701.88L1231.16 701.38C1229.44 701.396 1227.71 701.404 1225.97 701.404C1224.24 701.404 1222.51 701.396 1220.79 701.38L1220.78 701.88C1217.31 701.847 1213.86 701.783 1210.44 701.687L1210.45 701.187C1206.98 701.089 1203.54 700.959 1200.12 700.798L1200.1 701.297C1196.63 701.133 1193.18 700.937 1189.77 700.708L1189.8 700.209C1186.33 699.977 1182.9 699.713 1179.5 699.416L1179.45 699.915C1175.98 699.612 1172.55 699.277 1169.16 698.91L1169.21 698.413C1165.75 698.039 1162.33 697.631 1158.95 697.191L1158.89 697.687C1155.43 697.237 1152.01 696.754 1148.65 696.237L1148.72 695.743C1145.28 695.214 1141.88 694.651 1138.53 694.055L1138.45 694.548C1135 693.933 1131.6 693.284 1128.27 692.601L1128.37 692.111C1124.94 691.408 1121.57 690.669 1118.27 689.896L1118.15 690.383C1114.74 689.583 1111.39 688.746 1108.12 687.874L1108.25 687.391C1104.86 686.488 1101.56 685.548 1098.34 684.571L1098.19 685.05C1094.81 684.024 1091.51 682.958 1088.32 681.854L1088.48 681.381C1085.15 680.228 1081.92 679.034 1078.81 677.801L1078.62 678.266C1075.32 676.957 1072.14 675.604 1069.1 674.21L1069.31 673.755C1066.08 672.274 1063 670.747 1060.09 669.177L1059.85 669.617C1056.68 667.911 1053.7 666.153 1050.92 664.348L1051.2 663.929C1048.18 661.967 1045.4 659.95 1042.87 657.884L1042.55 658.271C1039.73 655.964 1037.23 653.595 1035.05 651.169L1035.42 650.835C1033.01 648.142 1031.01 645.386 1029.45 642.577L1029.02 642.819C1027.27 639.662 1026.07 636.431 1025.45 633.142L1025.94 633.05C1025.63 631.381 1025.47 629.697 1025.47 628C1025.47 626.303 1025.63 624.619 1025.94 622.95L1025.45 622.858C1026.07 619.569 1027.27 616.338 1029.02 613.181L1029.45 613.423C1031.01 610.614 1033.01 607.858 1035.42 605.165L1035.05 604.831C1037.23 602.405 1039.73 600.036 1042.55 597.729L1042.87 598.116C1045.4 596.05 1048.18 594.033 1051.2 592.071L1050.92 591.652C1053.7 589.847 1056.68 588.089 1059.85 586.383L1060.09 586.823C1063 585.253 1066.08 583.726 1069.31 582.245L1069.1 581.79C1072.14 580.396 1075.32 579.043 1078.62 577.734L1078.81 578.199C1081.92 576.966 1085.15 575.772 1088.48 574.619L1088.32 574.146C1091.51 573.042 1094.81 571.976 1098.19 570.95L1098.34 571.429C1101.56 570.452 1104.86 569.512 1108.25 568.609L1108.12 568.126C1111.39 567.254 1114.74 566.417 1118.15 565.617L1118.27 566.104C1121.57 565.331 1124.94 564.592 1128.37 563.889L1128.27 563.399C1131.6 562.716 1135 562.067 1138.45 561.452L1138.53 561.945C1141.88 561.349 1145.28 560.786 1148.72 560.257L1148.65 559.763C1152.01 559.246 1155.43 558.763 1158.89 558.313L1158.95 558.809C1162.33 558.369 1165.75 557.961 1169.21 557.587L1169.16 557.09C1172.55 556.723 1175.98 556.388 1179.45 556.085L1179.5 556.584C1182.9 556.287 1186.33 556.023 1189.8 555.791L1189.77 555.292C1193.18 555.063 1196.63 554.867 1200.1 554.703L1200.12 555.202C1203.54 555.041 1206.98 554.911 1210.45 554.813L1210.44 554.313C1213.86 554.217 1217.31 554.152 1220.78 554.12L1220.79 554.62C1222.51 554.604 1224.24 554.596 1225.97 554.596C1227.71 554.596 1229.44 554.604 1231.16 554.62L1231.16 554.12C1234.63 554.152 1238.08 554.217 1241.51 554.313L1241.49 554.813C1244.96 554.911 1248.41 555.041 1251.82 555.202L1251.85 554.703C1255.32 554.867 1258.76 555.063 1262.18 555.292L1262.15 555.791C1265.61 556.022 1269.05 556.287 1272.45 556.584L1272.49 556.085C1275.96 556.388 1279.4 556.723 1282.79 557.09L1282.74 557.587C1286.2 557.961 1289.62 558.369 1293 558.809L1293.06 558.313C1296.52 558.763 1299.93 559.246 1303.3 559.763L1303.22 560.257C1306.67 560.786 1310.07 561.349 1313.41 561.945L1313.5 561.452C1316.95 562.067 1320.34 562.716 1323.68 563.399L1323.58 563.889C1327.01 564.592 1330.38 565.331 1333.68 566.104L1333.79 565.617C1337.21 566.417 1340.56 567.254 1343.83 568.126L1343.7 568.609C1347.08 569.512 1350.39 570.452 1353.61 571.429L1353.76 570.95C1357.14 571.976 1360.43 573.042 1363.63 574.146L1363.46 574.619C1366.8 575.772 1370.02 576.966 1373.14 578.199L1373.32 577.734C1376.63 579.043 1379.8 580.396 1382.85 581.79L1382.64 582.245C1385.87 583.726 1388.95 585.253 1391.86 586.823L1392.1 586.383C1395.27 588.089 1398.24 589.847 1401.02 591.652L1400.75 592.071C1403.77 594.033 1406.55 596.05 1409.08 598.116L1409.39 597.729C1412.21 600.036 1414.72 602.405 1416.9 604.831L1416.53 605.165C1418.94 607.858 1420.94 610.614 1422.49 613.423L1422.93 613.181Z" stroke="black" stroke-dasharray="10 10"/>
<circle cx="1122.97" cy="527" r="3" fill="black"/>
<path d="M1130.78 543.881C1129.35 543.881 1128.2 543.409 1127.32 542.467C1126.44 541.525 1125.99 540.342 1125.97 538.919C1125.97 536.825 1126.74 534.878 1128.27 533.078C1129.79 531.277 1131.57 530.262 1133.6 530.031C1133.63 530.01 1135.09 530 1138 530H1142.34C1142.36 530.021 1142.39 530.042 1142.43 530.063C1142.47 530.084 1142.51 530.105 1142.55 530.126C1142.6 530.147 1142.63 530.167 1142.65 530.188C1142.67 530.209 1142.7 530.241 1142.74 530.283C1142.79 530.325 1142.81 530.345 1142.81 530.345C1142.81 530.345 1142.83 530.387 1142.87 530.471C1142.91 530.555 1142.92 530.597 1142.9 530.597C1142.88 530.597 1142.89 530.649 1142.93 530.754C1142.97 530.858 1142.98 530.921 1142.96 530.942C1142.96 531.863 1142.28 532.324 1140.92 532.324C1140.78 532.324 1140.6 532.324 1140.39 532.324C1140.18 532.324 1140.03 532.313 1139.95 532.292H1138.06L1138.22 532.607C1138.6 533.402 1138.79 534.292 1138.79 535.276C1138.79 537.579 1137.95 539.589 1136.27 541.305C1134.6 543.022 1132.77 543.881 1130.78 543.881ZM1136.34 534.805C1136.34 533.13 1135.45 532.292 1133.67 532.292C1131.07 532.292 1129.39 534.114 1128.61 537.757C1128.59 537.841 1128.58 537.903 1128.58 537.945C1128.41 538.72 1128.33 539.358 1128.33 539.861C1128.33 540.908 1128.59 541.64 1129.11 542.059C1129.64 542.478 1130.23 542.698 1130.9 542.719C1132.03 542.719 1133.07 542.227 1134.01 541.243C1134.62 540.615 1135.11 539.777 1135.49 538.73C1135.87 537.684 1136.1 536.846 1136.18 536.218C1136.26 535.59 1136.32 535.119 1136.34 534.805Z" fill="black"/>
<circle cx="1182.97" cy="757" r="3" fill="black"/>
<path d="M1190.78 773.881C1189.35 773.881 1188.2 773.409 1187.32 772.467C1186.44 771.525 1185.99 770.342 1185.97 768.919C1185.97 766.825 1186.74 764.878 1188.27 763.078C1189.79 761.277 1191.57 760.262 1193.6 760.031C1193.63 760.01 1195.09 760 1198 760H1202.34C1202.36 760.021 1202.39 760.042 1202.43 760.063C1202.47 760.084 1202.51 760.105 1202.55 760.126C1202.6 760.147 1202.63 760.167 1202.65 760.188C1202.67 760.209 1202.7 760.241 1202.74 760.283C1202.79 760.325 1202.81 760.345 1202.81 760.345C1202.81 760.345 1202.83 760.387 1202.87 760.471C1202.91 760.555 1202.92 760.597 1202.9 760.597C1202.88 760.597 1202.89 760.649 1202.93 760.754C1202.97 760.858 1202.98 760.921 1202.96 760.942C1202.96 761.863 1202.28 762.324 1200.92 762.324C1200.78 762.324 1200.6 762.324 1200.39 762.324C1200.18 762.324 1200.03 762.313 1199.95 762.292H1198.06L1198.22 762.607C1198.6 763.402 1198.79 764.292 1198.79 765.276C1198.79 767.579 1197.95 769.589 1196.27 771.305C1194.6 773.022 1192.77 773.881 1190.78 773.881ZM1196.34 764.805C1196.34 763.13 1195.45 762.292 1193.67 762.292C1191.07 762.292 1189.39 764.114 1188.61 767.757C1188.59 767.841 1188.58 767.903 1188.58 767.945C1188.41 768.72 1188.33 769.358 1188.33 769.861C1188.33 770.908 1188.59 771.64 1189.11 772.059C1189.64 772.478 1190.23 772.698 1190.9 772.719C1192.03 772.719 1193.07 772.227 1194.01 771.243C1194.62 770.615 1195.11 769.777 1195.49 768.73C1195.87 767.684 1196.1 766.846 1196.18 766.218C1196.26 765.59 1196.32 765.119 1196.34 764.805Z" fill="black"/>
<circle cx="1322.97" cy="631" r="3" fill="black"/>
<path d="M1330.78 647.881C1329.35 647.881 1328.2 647.409 1327.32 646.467C1326.44 645.525 1325.99 644.342 1325.97 642.919C1325.97 640.825 1326.74 638.878 1328.27 637.078C1329.79 635.277 1331.57 634.262 1333.6 634.031C1333.63 634.01 1335.09 634 1338 634H1342.34C1342.36 634.021 1342.39 634.042 1342.43 634.063C1342.47 634.084 1342.51 634.105 1342.55 634.126C1342.6 634.147 1342.63 634.167 1342.65 634.188C1342.67 634.209 1342.7 634.241 1342.74 634.283C1342.79 634.325 1342.81 634.345 1342.81 634.345C1342.81 634.345 1342.83 634.387 1342.87 634.471C1342.91 634.555 1342.92 634.597 1342.9 634.597C1342.88 634.597 1342.89 634.649 1342.93 634.754C1342.97 634.858 1342.98 634.921 1342.96 634.942C1342.96 635.863 1342.28 636.324 1340.92 636.324C1340.78 636.324 1340.6 636.324 1340.39 636.324C1340.18 636.324 1340.03 636.313 1339.95 636.292H1338.06L1338.22 636.607C1338.6 637.402 1338.79 638.292 1338.79 639.276C1338.79 641.579 1337.95 643.589 1336.27 645.305C1334.6 647.022 1332.77 647.881 1330.78 647.881ZM1336.34 638.805C1336.34 637.13 1335.45 636.292 1333.67 636.292C1331.07 636.292 1329.39 638.114 1328.61 641.757C1328.59 641.841 1328.58 641.903 1328.58 641.945C1328.41 642.72 1328.33 643.358 1328.33 643.861C1328.33 644.908 1328.59 645.64 1329.11 646.059C1329.64 646.478 1330.23 646.698 1330.9 646.719C1332.03 646.719 1333.07 646.227 1334.01 645.243C1334.62 644.615 1335.11 643.777 1335.49 642.73C1335.87 641.684 1336.1 640.846 1336.18 640.218C1336.26 639.59 1336.32 639.119 1336.34 638.805Z" fill="black"/>
<path d="M1455.01 625.059C1455.01 624.595 1455.26 624.239 1455.76 623.989H1490.15C1490.69 624.275 1490.96 624.631 1490.96 625.059C1490.96 625.451 1490.7 625.79 1490.2 626.075L1473.03 626.128H1455.87C1455.29 625.95 1455.01 625.594 1455.01 625.059ZM1455.01 635.433C1455.01 634.898 1455.29 634.542 1455.87 634.364H1490.2C1490.7 634.72 1490.96 635.077 1490.96 635.433C1490.96 635.897 1490.69 636.253 1490.15 636.503H1455.76C1455.26 636.253 1455.01 635.897 1455.01 635.433Z" fill="black"/>
<path d="M1514.16 612.332C1516.17 609.444 1518.93 608 1522.42 608C1524.14 608 1525.87 608.463 1527.6 609.39C1529.33 610.317 1530.73 611.957 1531.81 614.31C1533.14 617.269 1533.81 621.333 1533.81 626.503C1533.81 632.029 1533.03 636.253 1531.48 639.176C1530.76 640.674 1529.78 641.868 1528.52 642.759C1527.26 643.651 1526.16 644.203 1525.22 644.417C1524.29 644.631 1523.37 644.756 1522.47 644.791C1521.53 644.791 1520.6 644.684 1519.66 644.471C1518.73 644.257 1517.63 643.686 1516.37 642.759C1515.11 641.832 1514.12 640.638 1513.4 639.176C1511.85 636.253 1511.08 632.029 1511.08 626.503C1511.08 620.299 1512.11 615.576 1514.16 612.332ZM1526.3 611.69C1525.22 610.549 1523.95 609.979 1522.47 609.979C1520.96 609.979 1519.66 610.549 1518.58 611.69C1517.68 612.617 1517.09 613.9 1516.8 615.54C1516.51 617.18 1516.37 620.602 1516.37 625.807C1516.37 631.44 1516.51 635.148 1516.8 636.93C1517.09 638.713 1517.74 640.121 1518.75 641.155C1519.75 642.225 1520.99 642.759 1522.47 642.759C1523.91 642.759 1525.13 642.225 1526.14 641.155C1527.18 640.086 1527.83 638.588 1528.08 636.663C1528.34 634.738 1528.48 631.119 1528.52 625.807C1528.52 620.638 1528.37 617.234 1528.08 615.594C1527.8 613.954 1527.2 612.652 1526.3 611.69Z" fill="black"/>
</svg>
