<svg width="890" height="522" viewBox="0 0 890 522" fill="none" xmlns="http://www.w3.org/2000/svg">
<g clip-path="url(#clip0_1_83)">
<circle cx="425.861" cy="269.54" r="186" stroke="black" stroke-dasharray="2 2"/>
<path d="M370.501 103L364.831 101.911L366.722 107.366L370.501 103ZM287.313 161.815L286.919 161.508L286.919 161.508L287.313 161.815ZM250.815 256.931L254.114 252.194L248.362 251.705L250.815 256.931ZM366.084 104.002C334.82 115.292 307.36 135.218 286.919 161.508L287.708 162.122C308.033 135.981 335.337 116.168 366.424 104.943L366.084 104.002ZM286.919 161.508C266.478 187.798 253.934 219.322 250.698 252.404L251.693 252.501C254.911 219.607 267.383 188.262 287.708 162.122L286.919 161.508Z" fill="black"/>
<circle cx="611.861" cy="272.54" r="3.5" fill="black"/>
<path d="M603.469 188.382C636.433 197.404 667.668 198.552 685.909 244.074C706.09 294.44 693.93 349.784 674.185 389.757C651.323 436.043 582.733 378.073 511.187 353.515C439.64 328.956 377.567 462.192 258.008 406.896C218.56 388.652 175.681 374.29 153.801 212.614C131.921 50.9372 251.621 64.0434 302.235 68.4322C352.848 72.821 400.351 97.5183 468.343 138.532C524.688 172.521 570.506 179.359 603.469 188.382Z" stroke="#2865B6"/>
<path d="M633.862 119.803C659.574 142.317 697.336 223.622 693.861 272.54C687.326 364.54 633.862 458.54 536.361 490.04C442.361 520.409 439.506 355.54 359.861 355.54C316.399 355.54 172.927 327.036 223.861 172.04C297.577 -52.2773 405.831 -5.23521 493.361 129.54C529.202 184.726 608.15 97.2884 633.862 119.803Z" stroke="#2865B6"/>
<line x1="612.361" y1="272.54" x2="694.361" y2="272.54" stroke="black" stroke-dasharray="1 5"/>
<circle cx="693.861" cy="272.54" r="3.5" fill="black"/>
<path d="M285.655 182.092C285.26 182.092 284.946 181.96 284.712 181.697C284.478 181.434 284.361 181.112 284.361 180.732C284.361 179.694 284.749 178.795 285.523 178.035C286.298 177.275 287.263 176.895 288.418 176.895C289.748 176.895 290.859 177.304 291.75 178.123C292.642 178.941 293.095 180.001 293.11 181.302C293.11 181.931 292.964 182.53 292.671 183.1C292.379 183.67 292.028 184.167 291.619 184.591C291.21 185.015 290.625 185.556 289.865 186.214C289.339 186.667 288.608 187.339 287.672 188.231L286.379 189.459L288.045 189.481C290.34 189.481 291.56 189.444 291.707 189.371C291.809 189.342 291.984 188.691 292.233 187.42V187.354H293.11V187.42C293.095 187.463 293 188.128 292.825 189.415C292.649 190.701 292.54 191.374 292.496 191.432V191.498H284.361V191.081V190.818C284.361 190.716 284.405 190.606 284.493 190.489C284.581 190.372 284.8 190.116 285.151 189.722C285.575 189.254 285.94 188.845 286.247 188.494C286.379 188.348 286.627 188.077 286.993 187.683C287.358 187.288 287.606 187.018 287.738 186.871C287.87 186.725 288.082 186.484 288.374 186.148C288.666 185.812 288.871 185.563 288.988 185.402C289.105 185.242 289.273 185.022 289.492 184.745C289.711 184.467 289.865 184.233 289.953 184.043C290.04 183.853 290.15 183.641 290.281 183.407C290.413 183.173 290.508 182.939 290.566 182.705C290.625 182.472 290.676 182.252 290.72 182.048C290.764 181.843 290.786 181.602 290.786 181.324C290.786 180.403 290.537 179.607 290.04 178.934C289.543 178.262 288.834 177.926 287.913 177.926C287.431 177.926 287.007 178.05 286.642 178.298C286.276 178.547 286.02 178.788 285.874 179.022C285.728 179.256 285.655 179.395 285.655 179.438C285.655 179.453 285.692 179.46 285.765 179.46C286.028 179.46 286.298 179.563 286.576 179.767C286.854 179.972 286.993 180.308 286.993 180.776C286.993 181.141 286.876 181.448 286.642 181.697C286.408 181.945 286.079 182.077 285.655 182.092Z" fill="black"/>
<path d="M297.122 191.739C296.625 191.739 296.377 191.498 296.377 191.015V190.774L296.662 190.16C297.758 187.851 298.555 185.855 299.052 184.174L299.227 183.648H298.526C297.97 183.648 297.575 183.67 297.342 183.714C297.108 183.758 296.823 183.897 296.486 184.131C296.326 184.233 296.165 184.365 296.004 184.525C295.843 184.686 295.704 184.84 295.588 184.986C295.471 185.132 295.405 185.22 295.39 185.249C295.361 185.263 295.251 185.271 295.061 185.271C294.784 185.271 294.645 185.198 294.645 185.052C294.645 184.964 294.784 184.708 295.061 184.284C295.339 183.86 295.741 183.407 296.267 182.925C296.793 182.442 297.312 182.165 297.824 182.092C297.926 182.062 299.571 182.048 302.757 182.048C305.096 182.048 306.295 182.055 306.353 182.07C306.646 182.172 306.792 182.377 306.792 182.684C306.792 183.137 306.558 183.444 306.09 183.604C306.002 183.634 305.498 183.648 304.577 183.648H303.174L303.108 184.021C302.933 185.073 302.845 185.943 302.845 186.63C302.845 187.39 302.911 188.07 303.042 188.669C303.174 189.269 303.313 189.736 303.459 190.073C303.605 190.409 303.678 190.613 303.678 190.687C303.678 190.935 303.576 191.169 303.371 191.388C303.167 191.607 302.903 191.717 302.582 191.717C302.421 191.717 302.29 191.695 302.187 191.651C302.085 191.607 301.968 191.432 301.836 191.125C301.705 190.818 301.588 190.38 301.486 189.809C301.471 189.678 301.464 189.356 301.464 188.845C301.464 188.128 301.529 187.361 301.661 186.542C301.793 185.724 301.924 185.052 302.056 184.525C302.187 183.999 302.26 183.707 302.275 183.648H300.126L300.104 183.736C300.104 183.78 299.965 184.357 299.688 185.468C299.41 186.579 299.096 187.756 298.745 188.998C298.394 190.241 298.167 190.95 298.065 191.125C297.904 191.534 297.59 191.739 297.122 191.739Z" fill="black"/>
<path d="M307.186 185.205C307.201 185.161 307.216 185.103 307.23 185.03C307.245 184.957 307.281 184.796 307.34 184.547C307.398 184.299 307.471 184.072 307.559 183.868C307.647 183.663 307.756 183.422 307.888 183.144C308.02 182.866 308.166 182.647 308.327 182.486C308.487 182.325 308.677 182.165 308.897 182.004C309.116 181.843 309.357 181.777 309.62 181.806C310.044 181.806 310.417 181.894 310.738 182.07C311.06 182.245 311.287 182.406 311.418 182.552C311.55 182.698 311.63 182.844 311.659 182.99C311.689 183.078 311.71 183.122 311.725 183.122C311.74 183.122 311.798 183.071 311.9 182.969C312.602 182.208 313.413 181.828 314.334 181.828H314.4C315.102 181.828 315.628 182.128 315.979 182.727C316.096 183.005 316.154 183.276 316.154 183.539C316.154 183.977 316.059 184.328 315.869 184.591C315.679 184.854 315.489 185.022 315.299 185.095C315.109 185.168 314.926 185.198 314.751 185.183C314.458 185.183 314.225 185.103 314.049 184.942C313.874 184.781 313.786 184.569 313.786 184.306C313.786 183.604 314.195 183.137 315.014 182.903C314.692 182.713 314.429 182.618 314.225 182.618C313.406 182.618 312.653 183.159 311.966 184.24C311.82 184.474 311.71 184.715 311.637 184.964C311.564 185.212 311.316 186.184 310.892 187.88C310.395 189.926 310.11 191.015 310.037 191.147C309.847 191.542 309.532 191.739 309.094 191.739C308.904 191.739 308.75 191.695 308.633 191.607C308.517 191.52 308.436 191.432 308.392 191.344C308.348 191.257 308.334 191.183 308.348 191.125C308.348 190.935 308.641 189.678 309.225 187.354C309.81 185.03 310.103 183.736 310.103 183.473C310.103 182.903 309.913 182.618 309.532 182.618C309.225 182.618 308.962 182.822 308.743 183.232C308.524 183.641 308.348 184.087 308.217 184.569C308.085 185.052 308.005 185.315 307.976 185.358C307.946 185.388 307.83 185.402 307.625 185.402H307.318C307.23 185.315 307.186 185.249 307.186 185.205Z" fill="black"/>
<path d="M323.933 183.889C323.933 183.699 324.036 183.553 324.24 183.451H338.207C338.426 183.568 338.536 183.714 338.536 183.889C338.536 184.05 338.434 184.189 338.229 184.306L331.257 184.328H324.284C324.05 184.255 323.933 184.109 323.933 183.889ZM323.933 188.143C323.933 187.924 324.05 187.778 324.284 187.705H338.229C338.434 187.851 338.536 187.997 338.536 188.143C338.536 188.333 338.426 188.479 338.207 188.582H324.24C324.036 188.479 323.933 188.333 323.933 188.143Z" fill="black"/>
<path d="M346.491 195.751C346.403 195.664 346.359 195.605 346.359 195.576C346.359 195.532 346.937 193.193 348.091 188.56C349.246 183.926 349.86 181.507 349.933 181.302C350.255 180.308 350.671 179.438 351.183 178.693C351.695 177.948 352.177 177.407 352.63 177.07C353.449 176.383 354.326 176.04 355.261 176.04H355.305C356.211 176.04 356.957 176.318 357.542 176.873C358.126 177.429 358.419 178.138 358.419 179C358.419 180.535 357.659 181.806 356.138 182.815L356.423 183.1C357.169 183.846 357.542 184.803 357.542 185.972C357.542 187.624 356.92 188.991 355.678 190.073C354.435 191.154 353.039 191.702 351.49 191.717C351.051 191.717 350.657 191.659 350.306 191.542C349.955 191.425 349.677 191.286 349.473 191.125C349.268 190.964 349.107 190.796 348.99 190.621C348.873 190.445 348.786 190.306 348.727 190.204C348.669 190.102 348.632 190.058 348.618 190.073L347.214 195.62C347.185 195.708 347.039 195.751 346.776 195.751H346.491ZM353.595 182.048C354.165 182.048 354.706 182.135 355.217 182.311L355.327 182.245C355.386 182.187 355.437 182.135 355.481 182.092C355.524 182.048 355.597 181.975 355.7 181.872C355.802 181.77 355.89 181.668 355.963 181.565C356.036 181.463 356.116 181.331 356.204 181.171C356.292 181.01 356.379 180.834 356.467 180.644C356.555 180.454 356.621 180.242 356.665 180.009C356.708 179.775 356.767 179.512 356.84 179.219C356.869 179.088 356.884 178.846 356.884 178.496C356.884 178.233 356.876 178.064 356.862 177.991C356.643 177.246 356.087 176.873 355.195 176.873C354.582 176.873 354.004 177.049 353.463 177.399C352.922 177.75 352.477 178.196 352.126 178.737C351.775 179.278 351.49 179.775 351.271 180.228C351.051 180.681 350.883 181.112 350.766 181.521C350.693 181.755 350.416 182.83 349.933 184.745C349.451 186.659 349.202 187.683 349.188 187.814C349.173 187.887 349.166 188.041 349.166 188.275C349.166 188.976 349.327 189.554 349.648 190.007C350.101 190.621 350.737 190.928 351.556 190.928C352.17 190.928 352.82 190.745 353.507 190.38C354.194 190.014 354.75 189.386 355.174 188.494C355.407 187.997 355.583 187.434 355.7 186.806C355.817 186.177 355.875 185.702 355.875 185.38C355.875 184.533 355.619 183.853 355.108 183.341C354.494 183.546 353.946 183.648 353.463 183.648H353.244C352.089 183.648 351.512 183.422 351.512 182.969C351.512 182.866 351.534 182.764 351.578 182.662C351.782 182.252 352.455 182.048 353.595 182.048Z" fill="black"/>
<path d="M529.819 272.213C529.514 272.213 529.361 272.141 529.361 271.996C529.361 271.894 529.558 271.574 529.95 271.037C530.342 270.499 530.734 270.064 531.126 269.729C531.635 269.337 532.107 269.112 532.543 269.054C532.63 269.025 533.85 269.01 536.203 269.01C538.528 269.01 539.726 269.025 539.799 269.054C540.089 269.127 540.235 269.323 540.235 269.642C540.235 269.846 540.169 270.034 540.038 270.209C539.908 270.383 539.741 270.499 539.537 270.557C539.45 270.586 538.753 270.601 537.445 270.601C536.138 270.601 535.484 270.616 535.484 270.645C535.47 270.659 535.354 271.255 535.136 272.431C534.918 273.608 534.685 274.806 534.438 276.027C534.192 277.247 534.061 277.893 534.046 277.966C533.974 278.184 533.843 278.358 533.654 278.489C533.465 278.62 533.255 278.685 533.022 278.685C532.543 278.685 532.303 278.445 532.303 277.966V277.748L533.393 274.218C533.552 273.695 533.727 273.114 533.916 272.475C534.104 271.836 534.257 271.371 534.373 271.08L534.504 270.623C534.504 270.608 534.17 270.601 533.502 270.601C533.472 270.601 533.393 270.601 533.262 270.601C533.131 270.601 533.029 270.594 532.957 270.579C531.824 270.579 530.938 271.044 530.298 271.974C530.226 272.09 530.168 272.155 530.124 272.17C530.081 272.184 529.979 272.199 529.819 272.213Z" fill="black"/>
<path d="M547.508 270.841C547.508 270.652 547.61 270.507 547.813 270.405H561.693C561.911 270.521 562.02 270.666 562.02 270.841C562.02 271 561.918 271.138 561.715 271.255L554.786 271.276H547.857C547.624 271.204 547.508 271.059 547.508 270.841ZM547.508 275.068C547.508 274.85 547.624 274.705 547.857 274.632H561.715C561.918 274.777 562.02 274.923 562.02 275.068C562.02 275.257 561.911 275.402 561.693 275.504H547.813C547.61 275.402 547.508 275.257 547.508 275.068Z" fill="black"/>
<path d="M571.385 265.655C572.199 264.478 573.31 263.89 574.719 263.89C575.416 263.89 576.114 264.079 576.811 264.456C577.508 264.834 578.075 265.502 578.51 266.461C579.048 267.667 579.317 269.323 579.317 271.429C579.317 273.681 579.004 275.402 578.38 276.593C578.089 277.203 577.69 277.69 577.181 278.053C576.673 278.416 576.23 278.641 575.852 278.729C575.474 278.816 575.104 278.867 574.741 278.881C574.363 278.881 573.985 278.838 573.608 278.75C573.23 278.663 572.787 278.431 572.279 278.053C571.77 277.675 571.371 277.189 571.08 276.593C570.455 275.402 570.143 273.681 570.143 271.429C570.143 268.901 570.557 266.977 571.385 265.655ZM576.288 265.393C575.852 264.928 575.336 264.696 574.741 264.696C574.131 264.696 573.608 264.928 573.172 265.393C572.809 265.771 572.569 266.294 572.453 266.962C572.337 267.63 572.279 269.025 572.279 271.146C572.279 273.441 572.337 274.952 572.453 275.678C572.569 276.404 572.831 276.978 573.237 277.399C573.644 277.835 574.145 278.053 574.741 278.053C575.322 278.053 575.816 277.835 576.222 277.399C576.644 276.964 576.905 276.353 577.007 275.569C577.109 274.785 577.167 273.31 577.181 271.146C577.181 269.039 577.123 267.652 577.007 266.984C576.891 266.316 576.651 265.785 576.288 265.393Z" fill="black"/>
<path d="M581.888 277.639C581.888 277.639 581.888 277.458 581.888 277.094C581.888 276.731 582.004 276.419 582.236 276.157C582.469 275.896 582.781 275.765 583.173 275.765C583.58 275.765 583.943 275.947 584.263 276.31C584.582 276.673 584.75 277.312 584.764 278.227C584.764 278.736 584.699 279.23 584.568 279.709C584.437 280.188 584.285 280.602 584.11 280.951C583.936 281.3 583.747 281.598 583.544 281.845C583.34 282.091 583.166 282.288 583.021 282.433C582.876 282.578 582.781 282.643 582.738 282.629C582.68 282.629 582.585 282.564 582.454 282.433C582.324 282.302 582.258 282.208 582.258 282.15C582.258 282.091 582.338 281.975 582.498 281.801C582.658 281.627 582.839 281.409 583.043 281.147C583.246 280.886 583.435 280.523 583.609 280.058C583.784 279.593 583.9 279.063 583.958 278.467V278.206L583.936 278.227C583.907 278.242 583.871 278.256 583.827 278.271C583.784 278.286 583.74 278.307 583.696 278.336C583.653 278.365 583.587 278.38 583.5 278.38C583.413 278.38 583.326 278.387 583.239 278.402C582.847 278.402 582.527 278.278 582.28 278.031L581.888 277.639Z" fill="black"/>
<path d="M590.508 282.629C590.421 282.542 590.377 282.484 590.377 282.455C590.377 282.411 590.951 280.087 592.098 275.482C593.246 270.877 593.856 268.473 593.929 268.269C594.248 267.282 594.662 266.417 595.171 265.677C595.679 264.936 596.159 264.398 596.609 264.064C597.422 263.381 598.294 263.04 599.224 263.04H599.267C600.168 263.04 600.909 263.316 601.49 263.868C602.071 264.42 602.361 265.125 602.361 265.982C602.361 267.507 601.606 268.771 600.095 269.773L600.379 270.056C601.119 270.797 601.49 271.749 601.49 272.911C601.49 274.552 600.872 275.91 599.638 276.985C598.403 278.06 597.016 278.605 595.476 278.62C595.04 278.62 594.648 278.562 594.299 278.445C593.951 278.329 593.675 278.191 593.471 278.031C593.268 277.872 593.108 277.704 592.992 277.53C592.876 277.356 592.788 277.218 592.73 277.116C592.672 277.014 592.636 276.971 592.621 276.985L591.227 282.498C591.198 282.585 591.053 282.629 590.791 282.629H590.508ZM597.568 269.01C598.134 269.01 598.672 269.098 599.18 269.272L599.289 269.206C599.347 269.148 599.398 269.098 599.442 269.054C599.485 269.01 599.558 268.938 599.66 268.836C599.761 268.734 599.848 268.633 599.921 268.531C599.994 268.429 600.074 268.299 600.161 268.139C600.248 267.979 600.335 267.805 600.422 267.616C600.509 267.427 600.575 267.216 600.618 266.984C600.662 266.751 600.72 266.49 600.793 266.199C600.822 266.069 600.836 265.829 600.836 265.48C600.836 265.219 600.829 265.052 600.814 264.979C600.596 264.238 600.044 263.868 599.158 263.868C598.548 263.868 597.974 264.042 597.437 264.391C596.899 264.74 596.456 265.183 596.108 265.72C595.759 266.258 595.476 266.751 595.258 267.202C595.04 267.652 594.873 268.081 594.757 268.487C594.684 268.72 594.408 269.788 593.929 271.69C593.449 273.593 593.202 274.61 593.188 274.741C593.173 274.814 593.166 274.966 593.166 275.199C593.166 275.896 593.326 276.47 593.646 276.92C594.096 277.53 594.728 277.835 595.541 277.835C596.151 277.835 596.798 277.654 597.481 277.29C598.163 276.927 598.715 276.303 599.137 275.417C599.369 274.923 599.543 274.363 599.66 273.739C599.776 273.114 599.834 272.642 599.834 272.322C599.834 271.48 599.58 270.804 599.071 270.296C598.461 270.499 597.916 270.601 597.437 270.601H597.219C596.071 270.601 595.498 270.376 595.498 269.926C595.498 269.824 595.519 269.722 595.563 269.62C595.766 269.214 596.435 269.01 597.568 269.01Z" fill="black"/>
<path d="M706.361 275.026C706.361 273.435 706.961 272.04 708.161 270.84C709.361 269.64 710.68 269.04 712.117 269.04C713.094 269.04 713.875 269.319 714.461 269.877C715.047 270.435 715.445 271.119 715.654 271.928C715.738 272.333 715.787 272.8 715.801 273.331V273.938C716.485 272.905 717.008 271.747 717.371 270.463C717.426 270.268 717.468 270.156 717.496 270.128C717.524 270.1 717.636 270.079 717.831 270.066C718.124 270.066 718.271 270.121 718.271 270.233C718.271 270.359 718.208 270.631 718.082 271.049C717.957 271.468 717.705 272.061 717.329 272.828C716.952 273.596 716.526 274.293 716.052 274.921L715.822 275.214L715.843 275.717C715.871 276.498 715.926 277.028 716.01 277.307C716.094 277.586 716.226 277.733 716.408 277.747C716.603 277.719 716.785 277.642 716.952 277.517C717.119 277.391 717.238 277.231 717.308 277.035C717.336 276.938 717.371 276.882 717.412 276.868C717.454 276.854 717.559 276.84 717.726 276.826C718.005 276.826 718.145 276.882 718.145 276.993C718.145 277.077 718.103 277.21 718.019 277.391C717.852 277.726 717.608 277.991 717.287 278.186C716.966 278.382 716.659 278.486 716.366 278.5H716.219C715.285 278.5 714.65 277.998 714.315 276.993L714.252 276.847L714.022 277.014C713.882 277.126 713.673 277.265 713.394 277.433C713.115 277.6 712.801 277.761 712.452 277.914C712.103 278.068 711.699 278.207 711.238 278.333C710.778 278.458 710.331 278.521 709.899 278.521C708.796 278.521 707.931 278.172 707.303 277.475C706.675 276.777 706.361 275.961 706.361 275.026ZM710.003 277.747C710.687 277.747 711.371 277.6 712.054 277.307C712.738 277.014 713.247 276.714 713.582 276.407L714.085 275.947C714.057 273.952 714.008 272.71 713.938 272.221C713.743 270.617 713.101 269.814 712.013 269.814C711.05 269.814 710.206 270.324 709.48 271.342C709.103 271.9 708.796 272.654 708.559 273.603C708.322 274.552 708.196 275.277 708.182 275.779C708.182 276.463 708.357 276.958 708.706 277.265C709.054 277.572 709.487 277.733 710.003 277.747Z" fill="black"/>
<path d="M329.386 28.3926C329.445 28.3049 329.532 28.2611 329.649 28.2611H329.825H330.11C330.197 28.3487 330.241 28.4072 330.241 28.4364C330.241 28.5387 330.022 29.4372 329.584 31.132C329.481 31.5411 329.379 31.9721 329.277 32.4251C329.175 32.878 329.087 33.214 329.014 33.4332L328.926 33.7838C328.926 33.7984 328.992 33.8057 329.123 33.8057C329.255 33.8057 329.489 33.8496 329.825 33.9372C330.161 34.0249 330.511 34.1491 330.877 34.3098C331.52 34.6166 332.053 35.0622 332.476 35.6467C332.9 36.2311 333.112 36.9397 333.112 37.7725C333.112 38.6053 332.886 39.4016 332.433 40.1613C331.98 40.921 331.417 41.5493 330.745 42.046C330.073 42.5428 329.364 42.9373 328.619 43.2295C327.874 43.5217 327.18 43.6751 326.537 43.6897H326.45L325.924 45.7717C325.836 46.1078 325.741 46.5095 325.639 46.9771C325.522 47.4446 325.442 47.7222 325.398 47.8099C325.354 47.8975 325.266 47.9487 325.135 47.9633H325.003C324.711 47.9633 324.565 47.9122 324.565 47.8099C324.565 47.7368 324.726 47.0428 325.047 45.7279L325.551 43.7116C325.551 43.697 325.493 43.6897 325.376 43.6897C325.303 43.6897 325.157 43.6751 324.937 43.6459C324.718 43.6167 324.39 43.5144 323.951 43.3391C323.513 43.1638 323.118 42.9446 322.768 42.6816C322.417 42.4186 322.088 42.0314 321.782 41.5201C321.475 41.0087 321.336 40.4097 321.365 39.723C321.365 38.8464 321.606 38.0209 322.088 37.2465C322.571 36.4722 323.162 35.8439 323.864 35.3618C324.565 34.8796 325.274 34.4997 325.989 34.2221C326.705 33.9445 327.348 33.8057 327.918 33.8057C327.991 33.8057 328.035 33.7765 328.05 33.7181L328.707 31.0444C329.16 29.3057 329.386 28.4218 329.386 28.3926ZM323.097 40.1832C323.097 40.68 323.184 41.111 323.36 41.4762C323.535 41.8415 323.776 42.1191 324.083 42.309C324.39 42.499 324.653 42.6305 324.872 42.7035C325.091 42.7766 325.339 42.835 325.617 42.8788H325.77L327.808 34.6166C327.75 34.6166 327.67 34.6239 327.567 34.6385C327.465 34.6532 327.253 34.7116 326.932 34.8139C326.61 34.9161 326.304 35.033 326.011 35.1645C325.719 35.296 325.398 35.5079 325.047 35.8001C324.696 36.0923 324.397 36.4283 324.149 36.8082C323.886 37.2173 323.644 37.7067 323.425 38.2766C323.206 38.9486 323.097 39.5842 323.097 40.1832ZM331.381 37.2903C331.381 36.7351 331.264 36.2603 331.03 35.8658C330.796 35.4713 330.504 35.1937 330.153 35.033C329.803 34.8723 329.518 34.7627 329.299 34.7043C329.08 34.6459 328.904 34.6166 328.773 34.6166H328.707L327.699 38.7149L326.647 42.835C326.647 42.8642 326.654 42.8788 326.669 42.8788C326.786 42.8788 327.019 42.835 327.37 42.7474C327.721 42.6597 328.013 42.5574 328.247 42.4405C328.875 42.1629 329.416 41.7758 329.869 41.279C330.321 40.7822 330.643 40.2709 330.833 39.7449C331.023 39.2189 331.162 38.7514 331.249 38.3423C331.337 37.9332 331.381 37.5826 331.381 37.2903Z" fill="black"/>
<path d="M341.414 37.9916C341.414 36.2092 342.013 34.7481 343.211 33.6085C344.409 32.4689 345.826 31.8187 347.462 31.658C347.477 31.658 347.601 31.658 347.835 31.658C348.069 31.658 348.376 31.6507 348.755 31.6361C349.135 31.6215 349.501 31.6215 349.851 31.6361H352.021C352.24 31.753 352.35 31.8991 352.35 32.0744C352.35 32.2059 352.255 32.3447 352.065 32.4908L349.786 32.5127C348.164 32.5273 347.163 32.5712 346.783 32.6442C346.067 32.8195 345.432 33.0825 344.876 33.4332C344.321 33.7838 343.89 34.1418 343.583 34.507C343.277 34.8723 343.014 35.2741 342.794 35.7124C342.575 36.1507 342.444 36.5014 342.4 36.7644C342.356 37.0274 342.32 37.2757 342.29 37.5095V37.5533H352.021C352.24 37.6702 352.35 37.8163 352.35 37.9916C352.35 38.167 352.24 38.3131 352.021 38.43H342.29V38.4738C342.29 38.7806 342.363 39.1532 342.509 39.5915C342.656 40.0298 342.897 40.5046 343.233 41.016C343.569 41.5274 344.036 41.9949 344.635 42.4186C345.234 42.8423 345.943 43.1418 346.761 43.3172C347.156 43.4048 348.164 43.456 349.786 43.4706H352.065C352.255 43.6167 352.35 43.7628 352.35 43.9089C352.35 44.0842 352.24 44.2303 352.021 44.3472H349.895C349.793 44.3472 349.61 44.3472 349.347 44.3472C349.084 44.3472 348.872 44.3545 348.712 44.3691C346.447 44.3691 344.657 43.7409 343.342 42.4844C342.057 41.2863 341.414 39.7887 341.414 37.9916Z" fill="black"/>
<path d="M361.484 33.5208C361.484 32.8049 361.63 32.1328 361.922 31.5046C362.215 30.8763 362.594 30.3577 363.062 29.9486C363.53 29.5395 364.041 29.1888 364.596 28.8966C365.151 28.6044 365.699 28.3853 366.24 28.2392C366.78 28.0931 367.255 28.0273 367.664 28.0419H367.993C368.636 28.0419 369.016 28.0492 369.133 28.0638C370.93 28.2976 372.332 28.9405 373.34 29.9924C374.349 31.0444 374.86 32.2205 374.875 33.5208C374.875 34.4267 374.648 35.3325 374.195 36.2384C373.742 37.1442 373.187 38.0939 372.53 39.0874C371.872 40.0809 371.434 40.9356 371.215 41.6516V41.7173H372.179C372.851 41.7027 373.267 41.6808 373.428 41.6516C373.589 41.6223 373.713 41.5493 373.801 41.4324C373.874 41.3009 373.961 40.9941 374.064 40.5119C374.166 40.0298 374.217 39.7595 374.217 39.7011L374.239 39.5915H375.116V39.6353L374.743 41.5201C374.524 42.7766 374.407 43.4121 374.392 43.4267V43.4706H372.376H370.974C370.579 43.4706 370.345 43.4487 370.272 43.4048C370.199 43.361 370.163 43.2368 370.163 43.0323C370.163 42.0241 370.513 40.4535 371.215 38.3204C371.916 36.1872 372.274 34.5801 372.289 33.4989C372.289 32.6661 372.157 31.9356 371.894 31.3074C371.631 30.6791 371.288 30.1897 370.864 29.839C370.44 29.4884 370.009 29.24 369.571 29.0939C369.133 28.9478 368.672 28.8601 368.19 28.8309C367.767 28.8309 367.343 28.9039 366.919 29.05C366.495 29.1961 366.057 29.4299 365.604 29.7513C365.151 30.0728 364.786 30.5549 364.508 31.1978C364.231 31.8406 364.092 32.6004 364.092 33.477C364.092 34.5874 364.443 36.2165 365.144 38.3642C365.845 40.5119 366.196 42.068 366.196 43.0323C366.196 43.2222 366.145 43.3683 366.043 43.4706H361.966V43.4267C361.952 43.4121 361.835 42.7766 361.616 41.5201L361.243 39.6353V39.5915H362.12L362.142 39.7011C362.142 39.7157 362.163 39.8399 362.207 40.0736C362.251 40.3074 362.31 40.5704 362.383 40.8626C362.456 41.1548 362.514 41.3447 362.558 41.4324C362.631 41.5347 362.748 41.6004 362.909 41.6296C363.069 41.6589 363.493 41.6881 364.18 41.7173H365.144V41.6516C364.91 40.9356 364.472 40.0882 363.829 39.1093C363.186 38.1304 362.638 37.1808 362.185 36.2603C361.732 35.3398 361.499 34.4267 361.484 33.5208Z" fill="black"/>
<path d="M376.629 44.3408C376.629 43.1632 377.073 42.1303 377.961 41.2419C378.85 40.3536 379.826 39.9094 380.89 39.9094C381.613 39.9094 382.191 40.116 382.625 40.5292C383.059 40.9424 383.353 41.4485 383.508 42.0476C383.57 42.3472 383.606 42.6932 383.617 43.0858V43.5351C384.123 42.7707 384.51 41.9134 384.779 40.963C384.82 40.8184 384.851 40.7358 384.872 40.7151C384.892 40.6945 384.975 40.679 385.12 40.6686C385.337 40.6686 385.445 40.71 385.445 40.7926C385.445 40.8856 385.398 41.087 385.306 41.3969C385.213 41.7068 385.027 42.1458 384.748 42.7139C384.469 43.282 384.154 43.7985 383.803 44.2633L383.632 44.4803L383.648 44.8521C383.668 45.4306 383.71 45.8231 383.772 46.0297C383.834 46.2363 383.932 46.3448 384.066 46.3551C384.211 46.3344 384.345 46.2776 384.469 46.1846C384.593 46.0917 384.681 45.9729 384.732 45.8283C384.753 45.756 384.779 45.7146 384.81 45.7043C384.841 45.694 384.918 45.6837 385.042 45.6733C385.249 45.6733 385.352 45.7146 385.352 45.7973C385.352 45.8593 385.321 45.9574 385.259 46.0917C385.135 46.3396 384.954 46.5359 384.717 46.6805C384.479 46.8251 384.252 46.9026 384.035 46.9129H383.927C383.234 46.9129 382.764 46.541 382.517 45.7973L382.47 45.6888L382.3 45.8128C382.196 45.8954 382.041 45.9987 381.835 46.1227C381.628 46.2466 381.396 46.3654 381.138 46.479C380.879 46.5927 380.58 46.696 380.239 46.7889C379.898 46.8819 379.567 46.9284 379.247 46.9284C378.431 46.9284 377.791 46.6701 377.326 46.1537C376.861 45.6372 376.629 45.0329 376.629 44.3408ZM379.325 46.3551C379.831 46.3551 380.337 46.2466 380.843 46.0297C381.349 45.8128 381.726 45.5907 381.974 45.3634L382.346 45.0226C382.325 43.5454 382.289 42.6261 382.238 42.2646C382.093 41.0767 381.618 40.4827 380.812 40.4827C380.099 40.4827 379.474 40.8597 378.937 41.6138C378.658 42.027 378.431 42.5848 378.256 43.2872C378.08 43.9896 377.987 44.5267 377.977 44.8986C377.977 45.4048 378.106 45.7715 378.364 45.9987C378.622 46.226 378.942 46.3448 379.325 46.3551Z" fill="black"/>
<path d="M386.545 44.3408C386.545 43.1632 386.989 42.1303 387.878 41.2419C388.766 40.3536 389.742 39.9094 390.806 39.9094C391.529 39.9094 392.108 40.116 392.541 40.5292C392.975 40.9424 393.27 41.4485 393.425 42.0476C393.487 42.3472 393.523 42.6932 393.533 43.0858V43.5351C394.039 42.7707 394.427 41.9134 394.695 40.963C394.736 40.8184 394.767 40.7358 394.788 40.7151C394.809 40.6945 394.891 40.679 395.036 40.6686C395.253 40.6686 395.361 40.71 395.361 40.7926C395.361 40.8856 395.315 41.087 395.222 41.3969C395.129 41.7068 394.943 42.1458 394.664 42.7139C394.385 43.282 394.07 43.7985 393.719 44.2633L393.549 44.4803L393.564 44.8521C393.585 45.4306 393.626 45.8231 393.688 46.0297C393.75 46.2363 393.848 46.3448 393.982 46.3551C394.127 46.3344 394.261 46.2776 394.385 46.1846C394.509 46.0917 394.597 45.9729 394.649 45.8283C394.669 45.756 394.695 45.7146 394.726 45.7043C394.757 45.694 394.835 45.6837 394.959 45.6733C395.165 45.6733 395.268 45.7146 395.268 45.7973C395.268 45.8593 395.237 45.9574 395.175 46.0917C395.051 46.3396 394.871 46.5359 394.633 46.6805C394.396 46.8251 394.168 46.9026 393.951 46.9129H393.843C393.151 46.9129 392.681 46.541 392.433 45.7973L392.386 45.6888L392.216 45.8128C392.113 45.8954 391.958 45.9987 391.751 46.1227C391.545 46.2466 391.312 46.3654 391.054 46.479C390.796 46.5927 390.496 46.696 390.155 46.7889C389.814 46.8819 389.484 46.9284 389.164 46.9284C388.348 46.9284 387.707 46.6701 387.242 46.1537C386.777 45.6372 386.545 45.0329 386.545 44.3408ZM389.241 46.3551C389.747 46.3551 390.253 46.2466 390.76 46.0297C391.266 45.8128 391.643 45.5907 391.891 45.3634L392.263 45.0226C392.242 43.5454 392.206 42.6261 392.154 42.2646C392.009 41.0767 391.534 40.4827 390.729 40.4827C390.016 40.4827 389.391 40.8597 388.854 41.6138C388.575 42.027 388.348 42.5848 388.172 43.2872C387.996 43.9896 387.903 44.5267 387.893 44.8986C387.893 45.4048 388.022 45.7715 388.28 45.9987C388.539 46.226 388.859 46.3448 389.241 46.3551Z" fill="black"/>
<path d="M467.441 373.828C468.043 373.828 468.519 374.004 468.871 374.356C469.223 374.708 469.399 375.141 469.399 375.654C469.399 375.947 469.165 376.725 468.695 377.986C468.226 379.247 467.999 380.164 468.013 380.736C468.057 381.352 468.255 381.836 468.607 382.188C468.915 382.452 469.231 382.628 469.553 382.716C469.817 382.833 470.045 382.892 470.235 382.892H470.257L472.061 375.61C473.293 370.755 473.917 368.321 473.931 368.306C473.975 368.277 474.093 368.262 474.283 368.262C474.577 368.262 474.723 368.313 474.723 368.416C474.723 368.548 474.129 370.975 472.941 375.698C471.739 380.509 471.137 382.921 471.137 382.936C471.137 382.951 471.181 382.958 471.269 382.958C472.531 382.958 473.726 382.313 474.855 381.022C475.985 379.731 476.557 378.529 476.571 377.414C476.571 377.062 476.513 376.761 476.395 376.512C476.278 376.263 476.146 376.087 475.999 375.984C475.853 375.881 475.721 375.749 475.603 375.588C475.486 375.427 475.427 375.258 475.427 375.082C475.427 374.774 475.552 374.481 475.801 374.202C476.051 373.923 476.359 373.784 476.725 373.784C477.004 373.784 477.261 373.916 477.495 374.18C477.73 374.444 477.847 374.877 477.847 375.478C477.847 375.903 477.767 376.475 477.605 377.194C477.444 377.913 477.312 378.411 477.209 378.69C476.74 380.083 475.911 381.279 474.723 382.276C473.535 383.273 472.34 383.772 471.137 383.772H470.917L470.411 385.818C470.059 387.197 469.883 387.893 469.883 387.908C469.854 387.996 469.707 388.04 469.443 388.04H469.157C469.069 387.952 469.025 387.893 469.025 387.864C469.025 387.791 469.194 387.094 469.531 385.774C469.869 384.454 470.037 383.772 470.037 383.728C469.935 383.713 469.832 383.706 469.729 383.706C467.397 383.383 466.231 382.305 466.231 380.472C466.231 379.959 466.473 379.042 466.957 377.722C467.441 376.402 467.691 375.559 467.705 375.192C467.705 375.177 467.705 375.163 467.705 375.148C467.705 375.016 467.705 374.928 467.705 374.884C467.705 374.84 467.676 374.789 467.617 374.73C467.559 374.671 467.478 374.642 467.375 374.642H467.287C466.95 374.642 466.642 374.781 466.363 375.06C466.085 375.339 465.865 375.639 465.703 375.962C465.542 376.285 465.417 376.593 465.329 376.886C465.241 377.179 465.183 377.341 465.153 377.37C465.124 377.399 465.007 377.414 464.801 377.414H464.493C464.405 377.326 464.361 377.26 464.361 377.216C464.361 377.04 464.457 376.703 464.647 376.204C464.838 375.705 465.19 375.185 465.703 374.642C466.217 374.099 466.796 373.828 467.441 373.828Z" fill="black"/>
<path d="M486.181 378.03C486.181 376.241 486.782 374.774 487.985 373.63C489.188 372.486 490.61 371.833 492.253 371.672C492.268 371.672 492.392 371.672 492.627 371.672C492.862 371.672 493.17 371.665 493.551 371.65C493.932 371.635 494.299 371.635 494.651 371.65H496.829C497.049 371.767 497.159 371.914 497.159 372.09C497.159 372.222 497.064 372.361 496.873 372.508L494.585 372.53C492.957 372.545 491.952 372.589 491.571 372.662C490.852 372.838 490.214 373.102 489.657 373.454C489.1 373.806 488.667 374.165 488.359 374.532C488.051 374.899 487.787 375.302 487.567 375.742C487.347 376.182 487.215 376.534 487.171 376.798C487.127 377.062 487.09 377.311 487.061 377.546V377.59H496.829C497.049 377.707 497.159 377.854 497.159 378.03C497.159 378.206 497.049 378.353 496.829 378.47H487.061V378.514C487.061 378.822 487.134 379.196 487.281 379.636C487.428 380.076 487.67 380.553 488.007 381.066C488.344 381.579 488.814 382.049 489.415 382.474C490.016 382.899 490.728 383.2 491.549 383.376C491.945 383.464 492.957 383.515 494.585 383.53H496.873C497.064 383.677 497.159 383.823 497.159 383.97C497.159 384.146 497.049 384.293 496.829 384.41H494.695C494.592 384.41 494.409 384.41 494.145 384.41C493.881 384.41 493.668 384.417 493.507 384.432C491.234 384.432 489.437 383.801 488.117 382.54C486.826 381.337 486.181 379.834 486.181 378.03Z" fill="black"/>
<path d="M506.329 373.542C506.329 372.823 506.475 372.149 506.769 371.518C507.062 370.887 507.443 370.367 507.913 369.956C508.382 369.545 508.895 369.193 509.453 368.9C510.01 368.607 510.56 368.387 511.103 368.24C511.645 368.093 512.122 368.027 512.533 368.042H512.863C513.508 368.042 513.889 368.049 514.007 368.064C515.811 368.299 517.219 368.944 518.231 370C519.243 371.056 519.756 372.237 519.771 373.542C519.771 374.451 519.543 375.361 519.089 376.27C518.634 377.179 518.077 378.133 517.417 379.13C516.757 380.127 516.317 380.985 516.097 381.704V381.77H517.065C517.739 381.755 518.157 381.733 518.319 381.704C518.48 381.675 518.605 381.601 518.693 381.484C518.766 381.352 518.854 381.044 518.957 380.56C519.059 380.076 519.111 379.805 519.111 379.746L519.133 379.636H520.013V379.68L519.639 381.572C519.419 382.833 519.301 383.471 519.287 383.486V383.53H517.263H515.855C515.459 383.53 515.224 383.508 515.151 383.464C515.077 383.42 515.041 383.295 515.041 383.09C515.041 382.078 515.393 380.501 516.097 378.36C516.801 376.219 517.16 374.605 517.175 373.52C517.175 372.684 517.043 371.951 516.779 371.32C516.515 370.689 516.17 370.198 515.745 369.846C515.319 369.494 514.887 369.245 514.447 369.098C514.007 368.951 513.545 368.863 513.061 368.834C512.635 368.834 512.21 368.907 511.785 369.054C511.359 369.201 510.919 369.435 510.465 369.758C510.01 370.081 509.643 370.565 509.365 371.21C509.086 371.855 508.947 372.618 508.947 373.498C508.947 374.613 509.299 376.248 510.003 378.404C510.707 380.56 511.059 382.122 511.059 383.09C511.059 383.281 511.007 383.427 510.905 383.53H506.813V383.486C506.798 383.471 506.681 382.833 506.461 381.572L506.087 379.68V379.636H506.967L506.989 379.746C506.989 379.761 507.011 379.885 507.055 380.12C507.099 380.355 507.157 380.619 507.231 380.912C507.304 381.205 507.363 381.396 507.407 381.484C507.48 381.587 507.597 381.653 507.759 381.682C507.92 381.711 508.345 381.741 509.035 381.77H510.003V381.704C509.768 380.985 509.328 380.135 508.683 379.152C508.037 378.169 507.487 377.216 507.033 376.292C506.578 375.368 506.343 374.451 506.329 373.542Z" fill="black"/>
<path d="M521.531 384.404C521.531 383.221 521.977 382.184 522.869 381.293C523.761 380.401 524.741 379.955 525.809 379.955C526.535 379.955 527.115 380.162 527.551 380.577C527.986 380.992 528.282 381.5 528.437 382.102C528.5 382.402 528.536 382.75 528.546 383.144V383.595C529.054 382.827 529.443 381.967 529.713 381.013C529.754 380.868 529.785 380.785 529.806 380.764C529.827 380.743 529.91 380.728 530.055 380.717C530.273 380.717 530.382 380.759 530.382 380.842C530.382 380.935 530.335 381.137 530.242 381.448C530.148 381.759 529.962 382.2 529.682 382.77C529.402 383.341 529.085 383.859 528.733 384.326L528.562 384.544L528.577 384.917C528.598 385.497 528.64 385.892 528.702 386.099C528.764 386.306 528.863 386.415 528.997 386.426C529.143 386.405 529.277 386.348 529.402 386.254C529.526 386.161 529.614 386.042 529.666 385.897C529.687 385.824 529.713 385.783 529.744 385.772C529.775 385.762 529.853 385.752 529.977 385.741C530.185 385.741 530.288 385.783 530.288 385.866C530.288 385.928 530.257 386.026 530.195 386.161C530.071 386.41 529.889 386.607 529.651 386.752C529.412 386.897 529.184 386.975 528.966 386.985H528.857C528.163 386.985 527.691 386.612 527.442 385.866L527.395 385.757L527.224 385.881C527.121 385.964 526.965 386.068 526.758 386.192C526.55 386.317 526.317 386.436 526.058 386.55C525.798 386.664 525.498 386.768 525.156 386.861C524.813 386.954 524.482 387.001 524.16 387.001C523.341 387.001 522.698 386.742 522.231 386.223C521.765 385.705 521.531 385.098 521.531 384.404ZM524.238 386.426C524.746 386.426 525.254 386.317 525.762 386.099C526.27 385.881 526.649 385.658 526.898 385.43L527.271 385.088C527.25 383.605 527.214 382.682 527.162 382.319C527.017 381.127 526.54 380.531 525.731 380.531C525.016 380.531 524.388 380.909 523.849 381.666C523.569 382.081 523.341 382.641 523.165 383.346C522.988 384.051 522.895 384.59 522.885 384.963C522.885 385.472 523.014 385.84 523.273 386.068C523.533 386.296 523.854 386.415 524.238 386.426Z" fill="black"/>
<path d="M531.486 384.404C531.486 383.221 531.932 382.184 532.824 381.293C533.715 380.401 534.695 379.955 535.763 379.955C536.489 379.955 537.07 380.162 537.505 380.577C537.941 380.992 538.236 381.5 538.392 382.102C538.454 382.402 538.49 382.75 538.501 383.144V383.595C539.009 382.827 539.398 381.967 539.667 381.013C539.709 380.868 539.74 380.785 539.761 380.764C539.781 380.743 539.864 380.728 540.01 380.717C540.227 380.717 540.336 380.759 540.336 380.842C540.336 380.935 540.29 381.137 540.196 381.448C540.103 381.759 539.916 382.2 539.636 382.77C539.356 383.341 539.04 383.859 538.687 384.326L538.516 384.544L538.532 384.917C538.553 385.497 538.594 385.892 538.656 386.099C538.719 386.306 538.817 386.415 538.952 386.426C539.097 386.405 539.232 386.348 539.356 386.254C539.481 386.161 539.569 386.042 539.621 385.897C539.641 385.824 539.667 385.783 539.699 385.772C539.73 385.762 539.807 385.752 539.932 385.741C540.139 385.741 540.243 385.783 540.243 385.866C540.243 385.928 540.212 386.026 540.15 386.161C540.025 386.41 539.844 386.607 539.605 386.752C539.367 386.897 539.139 386.975 538.921 386.985H538.812C538.117 386.985 537.645 386.612 537.397 385.866L537.35 385.757L537.179 385.881C537.075 385.964 536.92 386.068 536.712 386.192C536.505 386.317 536.271 386.436 536.012 386.55C535.753 386.664 535.452 386.768 535.11 386.861C534.768 386.954 534.436 387.001 534.115 387.001C533.295 387.001 532.653 386.742 532.186 386.223C531.719 385.705 531.486 385.098 531.486 384.404ZM534.192 386.426C534.7 386.426 535.209 386.317 535.717 386.099C536.225 385.881 536.603 385.658 536.852 385.43L537.225 385.088C537.205 383.605 537.168 382.682 537.117 382.319C536.971 381.127 536.494 380.531 535.686 380.531C534.97 380.531 534.343 380.909 533.804 381.666C533.524 382.081 533.295 382.641 533.119 383.346C532.943 384.051 532.85 384.59 532.839 384.963C532.839 385.472 532.969 385.84 533.228 386.068C533.487 386.296 533.809 386.415 534.192 386.426Z" fill="black"/>
</g>
<defs>
<clipPath id="clip0_1_83">
<rect width="890" height="522" fill="white"/>
</clipPath>
</defs>
</svg>
