<svg width="826" height="524" viewBox="0 0 826 524" fill="none" xmlns="http://www.w3.org/2000/svg">
<path d="M413.5 49L410.619 54.0034L416.393 53.9966L413.5 49ZM413.005 53.5006L413.499 474.001L414.499 473.999L414.005 53.4994L413.005 53.5006Z" fill="black"/>
<path d="M691 261.5L686 258.613V264.387L691 261.5ZM135 262L686.5 262V261L135 261V262Z" fill="black"/>
<line x1="222" y1="261.5" x2="603" y2="261.5" stroke="#0A3392"/>
<line x1="222" y1="261.5" x2="603" y2="261.5" stroke="#0A3392"/>
<path d="M332 261.5L327 258.613V264.387L332 261.5ZM222 262H327.5V261H222V262Z" fill="#0A3392"/>
<line x1="413.5" y1="262" x2="413.5" y2="72" stroke="#0A3392"/>
<line x1="413.5" y1="451" x2="413.5" y2="332" stroke="#0A3392"/>
<path d="M414 400L416.887 395H411.113L414 400ZM414.5 395.5V332H413.5V395.5H414.5Z" fill="#0A3392"/>
<path d="M413.5 72C438.517 72 463.289 76.9274 486.401 86.501C509.514 96.0745 530.514 110.107 548.204 127.796C565.893 145.486 579.926 166.486 589.499 189.599C599.073 212.711 604 237.483 604 262.5" stroke="#0A3392"/>
<path d="M413.5 72C438.517 72 463.289 76.9274 486.401 86.501C509.514 96.0745 530.514 110.107 548.204 127.796C565.893 145.486 579.926 166.486 589.499 189.599C599.073 212.711 604 237.483 604 262.5" stroke="#0A3392"/>
<path d="M544.277 124.66L546.187 129.861L550.221 125.731L544.976 123.945L544.277 124.66ZM413.5 72.5C438.451 72.5 463.158 77.4145 486.21 86.9629L486.593 86.039C463.419 76.4404 438.582 71.5 413.5 71.5V72.5ZM486.21 86.9629C507.878 95.9383 527.686 108.843 544.639 125.013L545.329 124.289C528.287 108.034 508.375 95.0617 486.593 86.039L486.21 86.9629Z" fill="#0A3392"/>
<path d="M414.5 452C389.483 452 364.711 447.073 341.599 437.499C318.486 427.926 297.486 413.893 279.796 396.204C262.107 378.514 248.074 357.514 238.501 334.401C228.927 311.289 224 286.517 224 261.5" stroke="#0A3392"/>
<path d="M279.796 396.204L281.356 401.763L285.39 397.632L279.796 396.204ZM414.5 451.5C389.549 451.5 364.842 446.586 341.79 437.037L341.407 437.961C364.581 447.56 389.418 452.5 414.5 452.5L414.5 451.5ZM341.79 437.037C320.122 428.062 300.314 415.157 283.361 398.987L282.671 399.711C299.713 415.966 319.625 428.938 341.407 437.961L341.79 437.037Z" fill="#0A3392"/>
<path d="M421.379 54.6513C421.126 54.6513 421 54.5912 421 54.471C421 54.3868 421.162 54.1223 421.487 53.6774C421.812 53.2325 422.136 52.8718 422.461 52.5952C422.882 52.2706 423.273 52.0842 423.633 52.0361C423.705 52.012 424.715 52 426.663 52C428.587 52 429.579 52.012 429.639 52.0361C429.88 52.0962 430 52.2585 430 52.5231C430 52.6914 429.946 52.8477 429.838 52.992C429.729 53.1363 429.591 53.2325 429.423 53.2806C429.351 53.3046 428.774 53.3166 427.691 53.3166C426.609 53.3166 426.068 53.3287 426.068 53.3527C426.056 53.3647 425.96 53.8577 425.78 54.8317C425.599 55.8056 425.407 56.7976 425.202 57.8076C424.998 58.8176 424.89 59.3527 424.878 59.4128C424.818 59.5932 424.709 59.7375 424.553 59.8457C424.397 59.9539 424.222 60.008 424.03 60.008C423.633 60.008 423.435 59.8096 423.435 59.4128V59.2325L424.337 56.3106C424.469 55.8778 424.613 55.3968 424.77 54.8677C424.926 54.3387 425.052 53.9539 425.148 53.7134L425.257 53.3347C425.257 53.3227 424.98 53.3166 424.427 53.3166C424.403 53.3166 424.337 53.3166 424.228 53.3166C424.12 53.3166 424.036 53.3106 423.976 53.2986C423.038 53.2986 422.305 53.6834 421.776 54.4529C421.715 54.5491 421.667 54.6032 421.631 54.6152C421.595 54.6273 421.511 54.6393 421.379 54.6513Z" fill="black"/>
<path d="M675.155 271.297C675.052 271.194 675 271.121 675 271.077C675 271.018 675.022 270.901 675.066 270.725C675.111 270.549 675.148 270.447 675.177 270.418C675.207 270.344 675.273 270.308 675.377 270.308C675.48 270.308 675.857 270.3 676.506 270.286H677.68L678.101 268.527C678.145 268.366 678.197 268.154 678.256 267.89C678.315 267.626 678.367 267.436 678.411 267.319C678.456 267.201 678.5 267.055 678.544 266.879C678.588 266.703 678.648 266.579 678.721 266.505C678.795 266.432 678.869 266.344 678.943 266.242C679.017 266.139 679.12 266.073 679.253 266.044C679.386 266.015 679.519 266 679.652 266C679.918 266.015 680.102 266.095 680.205 266.242C680.309 266.388 680.361 266.527 680.361 266.659C680.361 266.762 680.294 267.106 680.161 267.692C680.028 268.278 679.881 268.857 679.718 269.429L679.497 270.242C679.497 270.271 679.866 270.286 680.604 270.286H681.734C681.837 270.388 681.889 270.469 681.889 270.527C681.889 270.85 681.793 271.106 681.601 271.297H679.231L678.433 274.484C677.857 276.828 677.57 278.088 677.57 278.264C677.57 278.879 677.769 279.187 678.168 279.187C678.684 279.187 679.187 278.938 679.674 278.44C680.161 277.941 680.553 277.326 680.848 276.593C680.877 276.505 680.914 276.454 680.959 276.44C681.003 276.425 681.114 276.41 681.291 276.396H681.379C681.601 276.396 681.712 276.454 681.712 276.571C681.712 276.615 681.69 276.703 681.645 276.835C681.571 277.07 681.439 277.348 681.247 277.67C681.055 277.993 680.804 278.337 680.493 278.703C680.183 279.07 679.807 279.377 679.364 279.626C678.921 279.875 678.47 280 678.013 280C677.57 280 677.149 279.89 676.75 279.67C676.351 279.451 676.063 279.07 675.886 278.527C675.857 278.41 675.842 278.212 675.842 277.934V277.538L676.617 274.462C677.134 272.396 677.4 271.355 677.414 271.341C677.414 271.311 677.038 271.297 676.285 271.297H675.155Z" fill="black"/>
<line x1="414" y1="261.5" x2="523" y2="261.5" stroke="#92180A"/>
<path d="M469 261.5L464 258.613L464 264.387L469 261.5ZM414 262L464.5 262L464.5 261L414 261L414 262Z" fill="#92180A"/>
<line x1="522.5" y1="331" x2="522.5" y2="262" stroke="#92180A"/>
<path d="M523 297L525.815 291.959L520.042 292.042L523 297ZM523.436 292.493L523 261.993L522 262.007L522.436 292.508L523.436 292.493Z" fill="#92180A"/>
<line x1="523" y1="331.5" x2="414" y2="331.5" stroke="#92180A"/>
<line x1="523" y1="331.5" x2="414" y2="331.5" stroke="#92180A"/>
<path d="M466 331.5L471 334.387L471 328.613L466 331.5ZM523 331L470.5 331L470.5 332L523 332L523 331Z" fill="#92180A"/>
<circle cx="522.5" cy="261.5" r="2.5" fill="black"/>
<circle cx="413.5" cy="331.5" r="2.5" fill="black"/>
<circle cx="414" cy="262" r="3" fill="black"/>
<circle cx="414" cy="262" r="3" fill="black"/>
<path d="M419.156 245.358C419.052 245.254 419 245.18 419 245.136C419 245.076 419.022 244.958 419.067 244.78C419.111 244.602 419.148 244.498 419.178 244.469C419.208 244.395 419.274 244.358 419.378 244.358C419.482 244.358 419.86 244.35 420.512 244.335H421.69L422.113 242.557C422.157 242.394 422.209 242.179 422.268 241.912C422.327 241.645 422.379 241.453 422.424 241.334C422.468 241.215 422.513 241.067 422.557 240.889C422.602 240.711 422.661 240.585 422.735 240.511C422.809 240.437 422.883 240.348 422.957 240.245C423.032 240.141 423.135 240.074 423.269 240.044C423.402 240.015 423.535 240 423.669 240C423.936 240.015 424.121 240.096 424.225 240.245C424.328 240.393 424.38 240.534 424.38 240.667C424.38 240.771 424.314 241.119 424.18 241.712C424.047 242.305 423.899 242.89 423.736 243.468L423.513 244.291C423.513 244.321 423.884 244.335 424.625 244.335H425.759C425.862 244.439 425.914 244.521 425.914 244.58C425.914 244.906 425.818 245.165 425.625 245.358H423.246L422.446 248.582C421.868 250.953 421.579 252.228 421.579 252.406C421.579 253.028 421.779 253.34 422.179 253.34C422.698 253.34 423.202 253.088 423.691 252.584C424.18 252.08 424.573 251.457 424.869 250.716C424.899 250.627 424.936 250.575 424.981 250.561C425.025 250.546 425.136 250.531 425.314 250.516H425.403C425.625 250.516 425.737 250.575 425.737 250.694C425.737 250.738 425.714 250.827 425.67 250.961C425.596 251.198 425.462 251.479 425.27 251.806C425.077 252.132 424.825 252.48 424.514 252.851C424.202 253.221 423.824 253.532 423.38 253.784C422.935 254.036 422.483 254.162 422.024 254.162C421.579 254.162 421.157 254.051 420.756 253.829C420.356 253.606 420.067 253.221 419.889 252.673C419.86 252.554 419.845 252.354 419.845 252.072V251.672L420.623 248.56C421.142 246.47 421.409 245.417 421.423 245.403C421.423 245.373 421.045 245.358 420.289 245.358H419.156Z" fill="black"/>
<path d="M428.113 248.057C428.699 247.208 429.501 246.784 430.518 246.784C431.02 246.784 431.523 246.92 432.026 247.193C432.529 247.465 432.938 247.947 433.253 248.639C433.64 249.509 433.834 250.703 433.834 252.223C433.834 253.847 433.609 255.089 433.158 255.948C432.949 256.388 432.66 256.739 432.294 257.001C431.927 257.263 431.607 257.425 431.335 257.488C431.062 257.551 430.795 257.588 430.533 257.598C430.261 257.598 429.988 257.567 429.716 257.504C429.443 257.441 429.124 257.274 428.757 257.001C428.39 256.729 428.102 256.378 427.893 255.948C427.442 255.089 427.217 253.847 427.217 252.223C427.217 250.399 427.515 249.011 428.113 248.057ZM431.649 247.869C431.335 247.533 430.963 247.366 430.533 247.366C430.093 247.366 429.716 247.533 429.401 247.869C429.14 248.141 428.967 248.518 428.883 249C428.799 249.482 428.757 250.488 428.757 252.018C428.757 253.674 428.799 254.764 428.883 255.288C428.967 255.812 429.155 256.226 429.449 256.53C429.742 256.844 430.104 257.001 430.533 257.001C430.952 257.001 431.309 256.844 431.602 256.53C431.906 256.215 432.095 255.775 432.168 255.209C432.241 254.643 432.283 253.58 432.294 252.018C432.294 250.499 432.252 249.498 432.168 249.016C432.084 248.534 431.911 248.152 431.649 247.869Z" fill="black"/>
<path d="M492.158 246.591C492.053 246.486 492 246.41 492 246.365C492 246.305 492.023 246.185 492.068 246.004C492.113 245.824 492.15 245.718 492.181 245.688C492.211 245.613 492.278 245.575 492.384 245.575C492.489 245.575 492.873 245.568 493.535 245.553H494.731L495.16 243.747C495.205 243.581 495.258 243.363 495.318 243.092C495.378 242.821 495.431 242.626 495.476 242.505C495.521 242.385 495.566 242.235 495.611 242.054C495.657 241.873 495.717 241.746 495.792 241.67C495.867 241.595 495.943 241.505 496.018 241.399C496.093 241.294 496.198 241.226 496.334 241.196C496.469 241.166 496.605 241.151 496.74 241.151C497.011 241.166 497.199 241.249 497.304 241.399C497.41 241.55 497.462 241.693 497.462 241.828C497.462 241.934 497.395 242.287 497.259 242.889C497.124 243.491 496.973 244.085 496.808 244.672L496.582 245.508C496.582 245.538 496.958 245.553 497.711 245.553H498.862C498.967 245.658 499.02 245.741 499.02 245.801C499.02 246.132 498.922 246.395 498.726 246.591H496.311L495.499 249.864C494.912 252.271 494.618 253.566 494.618 253.746C494.618 254.378 494.821 254.694 495.228 254.694C495.754 254.694 496.266 254.438 496.763 253.927C497.259 253.415 497.658 252.783 497.959 252.031C497.989 251.94 498.027 251.888 498.072 251.873C498.117 251.858 498.23 251.843 498.41 251.828H498.501C498.726 251.828 498.839 251.888 498.839 252.008C498.839 252.053 498.817 252.144 498.772 252.279C498.696 252.52 498.561 252.806 498.365 253.137C498.17 253.468 497.914 253.821 497.598 254.198C497.282 254.574 496.898 254.89 496.447 255.146C495.995 255.401 495.536 255.529 495.07 255.529C494.618 255.529 494.189 255.416 493.783 255.191C493.377 254.965 493.083 254.574 492.903 254.017C492.873 253.897 492.858 253.693 492.858 253.408V253.001L493.648 249.841C494.174 247.72 494.445 246.651 494.46 246.636C494.46 246.606 494.077 246.591 493.309 246.591H492.158Z" fill="black"/>
<path d="M501.251 249.331C501.847 248.47 502.661 248.039 503.693 248.039C504.204 248.039 504.714 248.177 505.225 248.454C505.736 248.73 506.151 249.22 506.47 249.922C506.863 250.805 507.06 252.018 507.06 253.56C507.06 255.209 506.832 256.47 506.374 257.342C506.161 257.789 505.869 258.145 505.496 258.411C505.124 258.677 504.8 258.842 504.523 258.906C504.246 258.97 503.975 259.007 503.709 259.018C503.432 259.018 503.156 258.986 502.879 258.922C502.603 258.858 502.278 258.688 501.906 258.411C501.533 258.135 501.241 257.778 501.028 257.342C500.571 256.47 500.342 255.209 500.342 253.56C500.342 251.709 500.645 250.299 501.251 249.331ZM504.842 249.14C504.523 248.799 504.145 248.629 503.709 248.629C503.262 248.629 502.879 248.799 502.56 249.14C502.294 249.416 502.119 249.799 502.033 250.289C501.948 250.778 501.906 251.799 501.906 253.353C501.906 255.034 501.948 256.14 502.033 256.672C502.119 257.204 502.31 257.624 502.608 257.933C502.906 258.252 503.273 258.411 503.709 258.411C504.135 258.411 504.496 258.252 504.794 257.933C505.103 257.614 505.294 257.167 505.369 256.592C505.443 256.018 505.486 254.938 505.496 253.353C505.496 251.81 505.454 250.794 505.369 250.305C505.284 249.815 505.108 249.427 504.842 249.14Z" fill="black"/>
<path d="M515.109 249.932C515.109 249.932 515.109 249.834 515.109 249.638C515.109 249.442 515.214 249.292 515.425 249.187H522.174V245.801L522.196 242.415C522.347 242.22 522.49 242.122 522.625 242.122C522.821 242.122 522.971 242.235 523.077 242.46V249.187H529.803C530.029 249.307 530.142 249.458 530.142 249.638C530.142 249.819 530.029 249.969 529.803 250.09H523.077V256.816C522.956 257.027 522.821 257.132 522.67 257.132H522.625H522.58C522.4 257.132 522.264 257.027 522.174 256.816V250.09H515.425C515.214 249.984 515.109 249.834 515.109 249.638V249.932Z" fill="black"/>
<path d="M537.324 245.417C537.038 245.417 536.895 245.357 536.895 245.237C536.895 245.161 537.015 244.74 537.256 243.973C537.497 243.205 537.753 242.445 538.024 241.693L538.407 240.587C538.483 240.316 538.58 240.12 538.701 240H549.264H551.296C551.777 240 552.063 240.008 552.153 240.023C552.244 240.038 552.296 240.105 552.311 240.226C552.311 240.316 552.184 241.174 551.928 242.799C551.672 244.424 551.529 245.244 551.499 245.259C551.499 245.365 551.356 245.417 551.07 245.417C550.935 245.417 550.844 245.417 550.799 245.417C550.754 245.417 550.709 245.38 550.664 245.304L550.619 245.237C550.619 245.146 550.664 244.808 550.754 244.221C550.844 243.634 550.889 243.175 550.889 242.844C550.889 242.317 550.792 241.919 550.596 241.648C550.4 241.377 549.987 241.189 549.355 241.083C549.279 241.068 548.843 241.053 548.045 241.038C547.353 241.038 546.917 241.046 546.736 241.061C546.556 241.076 546.42 241.136 546.33 241.241C546.315 241.257 545.781 243.356 544.727 247.539C543.674 251.722 543.147 253.851 543.147 253.927C543.147 254.107 543.809 254.213 545.134 254.243C545.615 254.243 545.924 254.25 546.059 254.265C546.195 254.28 546.262 254.348 546.262 254.468C546.262 254.544 546.24 254.649 546.195 254.784C546.134 255.055 546.067 255.213 545.991 255.258L545.946 255.281C545.901 255.281 545.848 255.281 545.788 255.281C545.713 255.281 545.322 255.274 544.615 255.258C543.907 255.243 542.892 255.236 541.567 255.236C539.626 255.236 538.392 255.251 537.866 255.281H537.527C537.437 255.191 537.392 255.123 537.392 255.078C537.392 255.033 537.407 254.897 537.437 254.672C537.497 254.476 537.572 254.333 537.662 254.243H538.294H538.543C539.747 254.243 540.461 254.175 540.687 254.04C540.702 254.025 540.717 254.017 540.732 254.017C540.807 253.972 540.883 253.821 540.958 253.566C541.033 253.31 541.334 252.129 541.861 250.022C542.117 248.999 542.327 248.163 542.493 247.516C543.546 243.378 544.073 241.264 544.073 241.174C544.073 241.099 543.855 241.061 543.418 241.061H542.719C541.71 241.061 541.048 241.106 540.732 241.196C540.055 241.347 539.528 241.655 539.152 242.122C538.776 242.588 538.37 243.461 537.933 244.74C537.828 245.071 537.753 245.267 537.708 245.327C537.662 245.387 537.557 245.417 537.392 245.417H537.324Z" fill="black"/>
<path d="M419.156 344.119C419.052 344.015 419 343.941 419 343.897C419 343.837 419.022 343.719 419.067 343.541C419.111 343.363 419.148 343.259 419.178 343.229C419.208 343.155 419.274 343.118 419.378 343.118C419.482 343.118 419.86 343.111 420.513 343.096H421.692L422.115 341.316C422.159 341.153 422.211 340.938 422.27 340.671C422.33 340.404 422.382 340.211 422.426 340.092C422.471 339.974 422.515 339.825 422.56 339.647C422.604 339.469 422.663 339.343 422.737 339.269C422.812 339.195 422.886 339.106 422.96 339.002C423.034 338.898 423.138 338.832 423.271 338.802C423.405 338.772 423.538 338.758 423.672 338.758C423.939 338.772 424.124 338.854 424.228 339.002C424.332 339.151 424.384 339.291 424.384 339.425C424.384 339.529 424.317 339.877 424.184 340.471C424.05 341.064 423.902 341.65 423.739 342.228L423.516 343.051C423.516 343.081 423.887 343.096 424.628 343.096H425.763C425.867 343.2 425.919 343.281 425.919 343.34C425.919 343.667 425.822 343.926 425.63 344.119H423.249L422.448 347.345C421.87 349.718 421.581 350.993 421.581 351.171C421.581 351.794 421.781 352.106 422.181 352.106C422.7 352.106 423.205 351.854 423.694 351.349C424.184 350.845 424.577 350.222 424.873 349.481C424.903 349.392 424.94 349.34 424.984 349.325C425.029 349.31 425.14 349.295 425.318 349.28H425.407C425.63 349.28 425.741 349.34 425.741 349.458C425.741 349.503 425.719 349.592 425.674 349.725C425.6 349.963 425.466 350.244 425.274 350.571C425.081 350.897 424.829 351.245 424.517 351.616C424.206 351.987 423.828 352.299 423.383 352.551C422.938 352.803 422.485 352.929 422.026 352.929C421.581 352.929 421.158 352.818 420.758 352.595C420.357 352.373 420.068 351.987 419.89 351.438C419.86 351.32 419.845 351.119 419.845 350.838V350.437L420.624 347.323C421.143 345.231 421.41 344.178 421.425 344.164C421.425 344.134 421.047 344.119 420.29 344.119H419.156Z" fill="black"/>
<path d="M428.118 346.82C428.706 345.971 429.508 345.546 430.525 345.546C431.028 345.546 431.531 345.682 432.035 345.955C432.538 346.227 432.947 346.71 433.262 347.402C433.65 348.272 433.844 349.468 433.844 350.988C433.844 352.613 433.618 353.856 433.167 354.716C432.958 355.156 432.669 355.507 432.302 355.77C431.935 356.032 431.615 356.194 431.343 356.257C431.07 356.32 430.803 356.357 430.541 356.367C430.268 356.367 429.995 356.336 429.723 356.273C429.45 356.21 429.13 356.042 428.763 355.77C428.396 355.497 428.108 355.146 427.898 354.716C427.447 353.856 427.222 352.613 427.222 350.988C427.222 349.163 427.521 347.774 428.118 346.82ZM431.657 346.631C431.343 346.296 430.971 346.128 430.541 346.128C430.1 346.128 429.723 346.296 429.408 346.631C429.146 346.904 428.973 347.281 428.889 347.764C428.805 348.246 428.763 349.253 428.763 350.784C428.763 352.44 428.805 353.531 428.889 354.055C428.973 354.579 429.162 354.994 429.455 355.298C429.749 355.612 430.111 355.77 430.541 355.77C430.96 355.77 431.317 355.612 431.61 355.298C431.914 354.983 432.103 354.543 432.176 353.976C432.25 353.41 432.292 352.346 432.302 350.784C432.302 349.263 432.26 348.262 432.176 347.779C432.092 347.297 431.919 346.914 431.657 346.631Z" fill="black"/>
<path d="M442.399 347.412C442.399 347.412 442.399 347.315 442.399 347.122C442.399 346.93 442.503 346.781 442.711 346.677H455.636C455.859 346.796 455.97 346.944 455.97 347.122C455.97 347.3 455.859 347.449 455.636 347.567H442.711C442.503 347.464 442.399 347.315 442.399 347.122V347.412Z" fill="black"/>
<path d="M466.875 339.336C466.875 338.98 467.016 338.669 467.298 338.402C467.58 338.135 467.906 337.994 468.277 337.979C468.544 337.979 468.766 338.068 468.944 338.246C469.122 338.424 469.219 338.646 469.234 338.913C469.234 339.254 469.085 339.566 468.789 339.848C468.492 340.129 468.166 340.278 467.81 340.293C467.587 340.293 467.38 340.218 467.187 340.07C466.994 339.922 466.89 339.677 466.875 339.336ZM463.249 346.299C463.249 346.181 463.316 345.951 463.449 345.61C463.583 345.268 463.761 344.89 463.983 344.475C464.206 344.06 464.532 343.682 464.962 343.34C465.392 342.999 465.837 342.836 466.297 342.851C466.875 342.851 467.357 343.022 467.743 343.363C468.129 343.704 468.329 344.164 468.344 344.742C468.344 344.994 468.24 345.409 468.032 345.988C467.825 346.566 467.528 347.345 467.142 348.324C466.757 349.303 466.445 350.141 466.208 350.838C466.134 351.164 466.097 351.401 466.097 351.55C466.097 351.92 466.223 352.106 466.475 352.106C466.608 352.106 466.749 352.083 466.898 352.039C467.046 351.994 467.217 351.891 467.409 351.727C467.602 351.564 467.802 351.305 468.01 350.949C468.218 350.593 468.403 350.155 468.566 349.636C468.611 349.458 468.648 349.354 468.677 349.325C468.707 349.295 468.833 349.28 469.056 349.28C469.352 349.28 469.501 349.354 469.501 349.503C469.501 349.621 469.434 349.851 469.3 350.192C469.167 350.534 468.981 350.912 468.744 351.327C468.507 351.742 468.173 352.113 467.743 352.439C467.313 352.766 466.853 352.929 466.364 352.929C465.889 352.929 465.452 352.773 465.051 352.462C464.651 352.15 464.443 351.676 464.428 351.038C464.428 350.786 464.465 350.548 464.539 350.326C464.614 350.103 464.932 349.258 465.496 347.79C466.06 346.292 466.386 345.395 466.475 345.098C466.564 344.801 466.616 344.512 466.631 344.23C466.631 343.874 466.505 343.696 466.252 343.696H466.208C465.763 343.696 465.355 343.941 464.984 344.431C464.614 344.92 464.332 345.543 464.139 346.299C464.124 346.314 464.109 346.336 464.095 346.366C464.08 346.396 464.072 346.418 464.072 346.433C464.072 346.448 464.057 346.462 464.028 346.477C463.998 346.492 463.976 346.499 463.961 346.499C463.946 346.499 463.917 346.499 463.872 346.499C463.828 346.499 463.768 346.499 463.694 346.499H463.383C463.294 346.41 463.249 346.344 463.249 346.299Z" fill="black"/>
<path d="M471.102 357C471.013 356.911 470.969 356.852 470.969 356.822C470.969 356.778 471.555 354.405 472.726 349.703C473.898 345.001 474.521 342.547 474.595 342.339C474.921 341.331 475.344 340.448 475.863 339.692C476.382 338.935 476.872 338.387 477.331 338.046C478.162 337.349 479.052 337 480.001 337H480.046C480.965 337 481.721 337.282 482.315 337.845C482.908 338.409 483.205 339.128 483.205 340.003C483.205 341.561 482.433 342.851 480.891 343.874L481.18 344.164C481.937 344.92 482.315 345.891 482.315 347.078C482.315 348.754 481.684 350.141 480.424 351.238C479.163 352.336 477.747 352.892 476.175 352.907C475.73 352.907 475.329 352.847 474.973 352.729C474.617 352.61 474.336 352.469 474.128 352.306C473.92 352.143 473.757 351.972 473.638 351.794C473.52 351.616 473.431 351.475 473.371 351.372C473.312 351.268 473.275 351.223 473.26 351.238L471.836 356.867C471.807 356.956 471.658 357 471.392 357H471.102ZM478.31 343.096C478.889 343.096 479.437 343.185 479.957 343.363L480.068 343.296C480.127 343.237 480.179 343.185 480.224 343.14C480.268 343.096 480.342 343.022 480.446 342.918C480.55 342.814 480.639 342.71 480.713 342.606C480.787 342.502 480.869 342.369 480.958 342.206C481.047 342.043 481.136 341.865 481.225 341.672C481.314 341.479 481.38 341.264 481.425 341.027C481.469 340.789 481.529 340.522 481.603 340.226C481.633 340.092 481.647 339.848 481.647 339.492C481.647 339.225 481.64 339.054 481.625 338.98C481.403 338.224 480.839 337.845 479.934 337.845C479.311 337.845 478.726 338.023 478.177 338.379C477.628 338.735 477.176 339.188 476.82 339.736C476.464 340.285 476.175 340.789 475.952 341.249C475.73 341.709 475.559 342.146 475.44 342.562C475.366 342.799 475.084 343.889 474.595 345.832C474.106 347.775 473.853 348.813 473.839 348.947C473.824 349.021 473.816 349.176 473.816 349.414C473.816 350.126 473.98 350.712 474.306 351.171C474.766 351.794 475.411 352.106 476.241 352.106C476.864 352.106 477.524 351.92 478.221 351.55C478.918 351.179 479.482 350.541 479.912 349.636C480.149 349.132 480.327 348.561 480.446 347.923C480.565 347.286 480.624 346.803 480.624 346.477C480.624 345.617 480.364 344.927 479.845 344.408C479.222 344.616 478.666 344.72 478.177 344.72H477.954C476.783 344.72 476.197 344.49 476.197 344.03C476.197 343.926 476.219 343.822 476.264 343.719C476.471 343.303 477.153 343.096 478.31 343.096Z" fill="black"/>
</svg>
