<svg width="826" height="523" viewBox="0 0 826 523" fill="none" xmlns="http://www.w3.org/2000/svg">
<path d="M691 262L686 259.113L686 264.887L691 262ZM223 262.5L686.5 262.5L686.5 261.5L223 261.5L223 262.5Z" fill="#0A3392"/>
<path d="M593 259L588 256.113L588 261.887L593 259ZM320 259.5L588.5 259.5L588.5 258.5L320 258.5L320 259.5Z" fill="#920A0A"/>
<path d="M320 265L325 262.113L325 267.887L320 265ZM593 265.5L324.5 265.5L324.5 264.5L593 264.5L593 265.5Z" fill="#920A0A"/>
<path d="M179 113L647 113" stroke="black"/>
<path d="M180 411L648 411" stroke="black"/>
<path d="M300.379 124.651C300.126 124.651 300 124.591 300 124.471C300 124.387 300.162 124.122 300.487 123.677C300.812 123.232 301.136 122.872 301.461 122.595C301.882 122.271 302.273 122.084 302.633 122.036C302.705 122.012 303.715 122 305.663 122C307.587 122 308.579 122.012 308.639 122.036C308.88 122.096 309 122.259 309 122.523C309 122.691 308.946 122.848 308.838 122.992C308.729 123.136 308.591 123.232 308.423 123.281C308.351 123.305 307.774 123.317 306.691 123.317C305.609 123.317 305.068 123.329 305.068 123.353C305.056 123.365 304.96 123.858 304.78 124.832C304.599 125.806 304.407 126.798 304.202 127.808C303.998 128.818 303.89 129.353 303.878 129.413C303.818 129.593 303.709 129.737 303.553 129.846C303.397 129.954 303.222 130.008 303.03 130.008C302.633 130.008 302.435 129.81 302.435 129.413V129.232L303.337 126.311C303.469 125.878 303.613 125.397 303.77 124.868C303.926 124.339 304.052 123.954 304.148 123.713L304.257 123.335C304.257 123.323 303.98 123.317 303.427 123.317C303.403 123.317 303.337 123.317 303.228 123.317C303.12 123.317 303.036 123.311 302.976 123.299C302.038 123.299 301.305 123.683 300.776 124.453C300.715 124.549 300.667 124.603 300.631 124.615C300.595 124.627 300.511 124.639 300.379 124.651Z" fill="black"/>
<path d="M675.155 278.297C675.052 278.194 675 278.121 675 278.077C675 278.018 675.022 277.901 675.066 277.725C675.111 277.549 675.148 277.447 675.177 277.418C675.207 277.344 675.273 277.308 675.377 277.308C675.48 277.308 675.857 277.3 676.506 277.286H677.68L678.101 275.527C678.145 275.366 678.197 275.154 678.256 274.89C678.315 274.626 678.367 274.436 678.411 274.319C678.456 274.201 678.5 274.055 678.544 273.879C678.588 273.703 678.648 273.579 678.721 273.505C678.795 273.432 678.869 273.344 678.943 273.242C679.017 273.139 679.12 273.073 679.253 273.044C679.386 273.015 679.519 273 679.652 273C679.918 273.015 680.102 273.095 680.205 273.242C680.309 273.388 680.361 273.527 680.361 273.659C680.361 273.762 680.294 274.106 680.161 274.692C680.028 275.278 679.881 275.857 679.718 276.429L679.497 277.242C679.497 277.271 679.866 277.286 680.604 277.286H681.734C681.837 277.388 681.889 277.469 681.889 277.527C681.889 277.85 681.793 278.106 681.601 278.297H679.231L678.433 281.484C677.857 283.828 677.57 285.088 677.57 285.264C677.57 285.879 677.769 286.187 678.168 286.187C678.684 286.187 679.187 285.938 679.674 285.44C680.161 284.941 680.553 284.326 680.848 283.593C680.877 283.505 680.914 283.454 680.959 283.44C681.003 283.425 681.114 283.41 681.291 283.396H681.379C681.601 283.396 681.712 283.454 681.712 283.571C681.712 283.615 681.69 283.703 681.645 283.835C681.571 284.07 681.439 284.348 681.247 284.67C681.055 284.993 680.804 285.337 680.493 285.703C680.183 286.07 679.807 286.377 679.364 286.626C678.921 286.875 678.47 287 678.013 287C677.57 287 677.149 286.89 676.75 286.67C676.351 286.451 676.063 286.07 675.886 285.527C675.857 285.41 675.842 285.212 675.842 284.934V284.538L676.617 281.462C677.134 279.396 677.4 278.355 677.414 278.341C677.414 278.311 677.038 278.297 676.285 278.297H675.155Z" fill="black"/>
<path d="M647 411C622.699 411 603 344.29 603 262C603 179.71 622.699 113 647 113" stroke="black" stroke-dasharray="2 2"/>
<path d="M647 411C671.301 411 691 344.29 691 262C691 179.71 671.301 113 647 113" stroke="black"/>
<path d="M276 411C251.699 411 232 344.29 232 262C232 179.71 251.699 113 276 113" stroke="#0A3392" stroke-dasharray="2 2"/>
<path d="M276 411C300.301 411 320 344.29 320 262C320 179.71 300.301 113 276 113" stroke="#0A3392"/>
<path d="M549 411C524.699 411 505 344.29 505 262C505 179.71 524.699 113 549 113" stroke="#92180A" stroke-dasharray="2 2"/>
<path d="M549 411C573.301 411 593 344.29 593 262C593 179.71 573.301 113 549 113" stroke="#92180A"/>
<path d="M222.5 262C222.5 303.111 217.579 340.311 209.633 367.217C205.66 380.674 200.938 391.527 195.717 399.005C190.486 406.497 184.829 410.5 179 410.5C173.171 410.5 167.514 406.497 162.283 399.005C157.062 391.527 152.341 380.674 148.367 367.217C140.421 340.311 135.5 303.111 135.5 262C135.5 220.889 140.421 183.689 148.367 156.783C152.341 143.326 157.062 132.473 162.283 124.995C167.514 117.503 173.171 113.5 179 113.5C184.829 113.5 190.486 117.503 195.717 124.995C200.938 132.473 205.66 143.326 209.633 156.783C217.579 183.689 222.5 220.889 222.5 262Z" fill="#DEDEDE" fill-opacity="0.3" stroke="black"/>
<circle cx="320" cy="262" r="3" fill="black"/>
<circle cx="593" cy="262" r="3" fill="black"/>
<path d="M300.156 276.358C300.052 276.254 300 276.18 300 276.136C300 276.076 300.022 275.958 300.067 275.78C300.111 275.602 300.148 275.498 300.178 275.469C300.208 275.395 300.274 275.358 300.378 275.358C300.482 275.358 300.86 275.35 301.512 275.335H302.69L303.113 273.557C303.157 273.394 303.209 273.179 303.268 272.912C303.327 272.645 303.379 272.453 303.424 272.334C303.468 272.215 303.513 272.067 303.557 271.889C303.602 271.711 303.661 271.585 303.735 271.511C303.809 271.437 303.883 271.348 303.957 271.245C304.032 271.141 304.135 271.074 304.269 271.044C304.402 271.015 304.535 271 304.669 271C304.936 271.015 305.121 271.096 305.225 271.245C305.328 271.393 305.38 271.534 305.38 271.667C305.38 271.771 305.314 272.119 305.18 272.712C305.047 273.305 304.899 273.89 304.736 274.468L304.513 275.291C304.513 275.321 304.884 275.335 305.625 275.335H306.759C306.862 275.439 306.914 275.521 306.914 275.58C306.914 275.906 306.818 276.165 306.625 276.358H304.246L303.446 279.582C302.868 281.953 302.579 283.228 302.579 283.406C302.579 284.028 302.779 284.34 303.179 284.34C303.698 284.34 304.202 284.088 304.691 283.584C305.18 283.08 305.573 282.457 305.869 281.716C305.899 281.627 305.936 281.575 305.981 281.561C306.025 281.546 306.136 281.531 306.314 281.516H306.403C306.625 281.516 306.737 281.575 306.737 281.694C306.737 281.738 306.714 281.827 306.67 281.961C306.596 282.198 306.462 282.479 306.27 282.806C306.077 283.132 305.825 283.48 305.514 283.851C305.202 284.221 304.824 284.532 304.38 284.784C303.935 285.036 303.483 285.162 303.024 285.162C302.579 285.162 302.157 285.051 301.756 284.829C301.356 284.606 301.067 284.221 300.889 283.673C300.86 283.554 300.845 283.354 300.845 283.072V282.672L301.623 279.56C302.142 277.47 302.409 276.417 302.423 276.403C302.423 276.373 302.045 276.358 301.289 276.358H300.156Z" fill="black"/>
<path d="M309.113 279.057C309.699 278.208 310.501 277.784 311.517 277.784C312.02 277.784 312.523 277.92 313.026 278.193C313.529 278.465 313.938 278.947 314.252 279.639C314.64 280.509 314.834 281.703 314.834 283.223C314.834 284.847 314.609 286.089 314.158 286.948C313.949 287.388 313.66 287.739 313.294 288.001C312.927 288.263 312.607 288.425 312.335 288.488C312.062 288.551 311.795 288.588 311.533 288.598C311.261 288.598 310.988 288.567 310.716 288.504C310.443 288.441 310.124 288.274 309.757 288.001C309.39 287.729 309.102 287.378 308.892 286.948C308.442 286.089 308.217 284.847 308.217 283.223C308.217 281.399 308.515 280.011 309.113 279.057ZM312.649 278.869C312.335 278.533 311.963 278.366 311.533 278.366C311.093 278.366 310.716 278.533 310.401 278.869C310.139 279.141 309.967 279.518 309.883 280C309.799 280.482 309.757 281.488 309.757 283.018C309.757 284.674 309.799 285.764 309.883 286.288C309.967 286.812 310.155 287.226 310.449 287.53C310.742 287.844 311.104 288.001 311.533 288.001C311.952 288.001 312.309 287.844 312.602 287.53C312.906 287.215 313.095 286.775 313.168 286.209C313.241 285.643 313.283 284.58 313.294 283.018C313.294 281.499 313.252 280.498 313.168 280.016C313.084 279.534 312.911 279.152 312.649 278.869Z" fill="black"/>
<path d="M527.158 277.591C527.053 277.486 527 277.41 527 277.365C527 277.305 527.023 277.185 527.068 277.004C527.113 276.824 527.15 276.718 527.181 276.688C527.211 276.613 527.278 276.575 527.384 276.575C527.489 276.575 527.873 276.568 528.535 276.553H529.731L530.16 274.747C530.205 274.581 530.258 274.363 530.318 274.092C530.378 273.821 530.431 273.626 530.476 273.505C530.521 273.385 530.566 273.235 530.611 273.054C530.657 272.873 530.717 272.746 530.792 272.67C530.867 272.595 530.943 272.505 531.018 272.399C531.093 272.294 531.198 272.226 531.334 272.196C531.469 272.166 531.605 272.151 531.74 272.151C532.011 272.166 532.199 272.249 532.304 272.399C532.41 272.55 532.462 272.693 532.462 272.828C532.462 272.934 532.395 273.287 532.259 273.889C532.124 274.491 531.973 275.085 531.808 275.672L531.582 276.508C531.582 276.538 531.958 276.553 532.711 276.553H533.862C533.967 276.658 534.02 276.741 534.02 276.801C534.02 277.132 533.922 277.395 533.726 277.591H531.311L530.499 280.864C529.912 283.271 529.618 284.566 529.618 284.746C529.618 285.378 529.821 285.694 530.228 285.694C530.754 285.694 531.266 285.438 531.763 284.927C532.259 284.415 532.658 283.783 532.959 283.031C532.989 282.94 533.027 282.888 533.072 282.873C533.117 282.858 533.23 282.843 533.41 282.828H533.501C533.726 282.828 533.839 282.888 533.839 283.008C533.839 283.053 533.817 283.144 533.772 283.279C533.696 283.52 533.561 283.806 533.365 284.137C533.17 284.468 532.914 284.821 532.598 285.198C532.282 285.574 531.898 285.89 531.447 286.146C530.995 286.401 530.536 286.529 530.07 286.529C529.618 286.529 529.189 286.416 528.783 286.191C528.377 285.965 528.083 285.574 527.903 285.017C527.873 284.897 527.858 284.693 527.858 284.408V284.001L528.648 280.841C529.174 278.72 529.445 277.651 529.46 277.636C529.46 277.606 529.077 277.591 528.309 277.591H527.158Z" fill="black"/>
<path d="M536.252 280.331C536.847 279.47 537.661 279.039 538.693 279.039C539.204 279.039 539.714 279.177 540.225 279.454C540.736 279.73 541.151 280.22 541.47 280.922C541.863 281.805 542.06 283.018 542.06 284.56C542.06 286.209 541.832 287.47 541.374 288.342C541.161 288.789 540.869 289.145 540.496 289.411C540.124 289.677 539.8 289.842 539.523 289.906C539.246 289.97 538.975 290.007 538.709 290.018C538.432 290.018 538.156 289.986 537.879 289.922C537.603 289.858 537.278 289.688 536.906 289.411C536.533 289.135 536.241 288.778 536.028 288.342C535.571 287.47 535.342 286.209 535.342 284.56C535.342 282.709 535.645 281.299 536.252 280.331ZM539.842 280.14C539.523 279.799 539.145 279.629 538.709 279.629C538.262 279.629 537.879 279.799 537.56 280.14C537.294 280.416 537.119 280.799 537.033 281.289C536.948 281.778 536.906 282.799 536.906 284.353C536.906 286.034 536.948 287.14 537.033 287.672C537.119 288.204 537.31 288.624 537.608 288.933C537.906 289.252 538.273 289.411 538.709 289.411C539.135 289.411 539.496 289.252 539.794 288.933C540.103 288.614 540.294 288.167 540.369 287.592C540.443 287.018 540.486 285.938 540.496 284.353C540.496 282.81 540.454 281.794 540.369 281.305C540.284 280.815 540.108 280.427 539.842 280.14Z" fill="black"/>
<path d="M550.109 280.932C550.109 280.932 550.109 280.834 550.109 280.638C550.109 280.442 550.214 280.292 550.425 280.187H557.174V276.801L557.196 273.415C557.347 273.22 557.49 273.122 557.625 273.122C557.821 273.122 557.971 273.235 558.077 273.46V280.187H564.803C565.029 280.307 565.142 280.458 565.142 280.638C565.142 280.819 565.029 280.969 564.803 281.09H558.077V287.816C557.956 288.027 557.821 288.132 557.67 288.132H557.625H557.58C557.4 288.132 557.264 288.027 557.174 287.816V281.09H550.425C550.214 280.984 550.109 280.834 550.109 280.638V280.932Z" fill="black"/>
<path d="M572.324 276.417C572.038 276.417 571.895 276.357 571.895 276.237C571.895 276.161 572.015 275.74 572.256 274.973C572.497 274.205 572.753 273.445 573.024 272.693L573.407 271.587C573.483 271.316 573.58 271.12 573.701 271H584.264H586.296C586.777 271 587.063 271.008 587.153 271.023C587.244 271.038 587.296 271.105 587.311 271.226C587.311 271.316 587.184 272.174 586.928 273.799C586.672 275.424 586.529 276.244 586.499 276.259C586.499 276.365 586.356 276.417 586.07 276.417C585.935 276.417 585.844 276.417 585.799 276.417C585.754 276.417 585.709 276.38 585.664 276.304L585.619 276.237C585.619 276.146 585.664 275.808 585.754 275.221C585.844 274.634 585.889 274.175 585.889 273.844C585.889 273.317 585.792 272.919 585.596 272.648C585.4 272.377 584.987 272.189 584.355 272.083C584.279 272.068 583.843 272.053 583.045 272.038C582.353 272.038 581.917 272.046 581.736 272.061C581.556 272.076 581.42 272.136 581.33 272.241C581.315 272.256 580.781 274.356 579.727 278.539C578.674 282.722 578.147 284.851 578.147 284.927C578.147 285.107 578.809 285.213 580.134 285.243C580.615 285.243 580.924 285.25 581.059 285.265C581.195 285.28 581.262 285.348 581.262 285.468C581.262 285.544 581.24 285.649 581.195 285.784C581.134 286.055 581.067 286.213 580.991 286.258L580.946 286.281C580.901 286.281 580.848 286.281 580.788 286.281C580.713 286.281 580.322 286.273 579.615 286.258C578.907 286.243 577.892 286.236 576.567 286.236C574.626 286.236 573.392 286.251 572.866 286.281H572.527C572.437 286.191 572.392 286.123 572.392 286.078C572.392 286.033 572.407 285.897 572.437 285.672C572.497 285.476 572.572 285.333 572.662 285.243H573.294H573.543C574.747 285.243 575.461 285.175 575.687 285.04C575.702 285.025 575.717 285.017 575.732 285.017C575.807 284.972 575.883 284.821 575.958 284.566C576.033 284.31 576.334 283.128 576.861 281.022C577.117 279.999 577.327 279.163 577.493 278.516C578.546 274.378 579.073 272.264 579.073 272.174C579.073 272.098 578.855 272.061 578.418 272.061H577.719C576.71 272.061 576.048 272.106 575.732 272.196C575.055 272.347 574.528 272.655 574.152 273.122C573.776 273.588 573.37 274.461 572.933 275.74C572.828 276.071 572.753 276.267 572.708 276.327C572.662 276.387 572.557 276.417 572.392 276.417H572.324Z" fill="black"/>
</svg>
