<svg width="557" height="537" viewBox="0 0 557 537" fill="none" xmlns="http://www.w3.org/2000/svg">
<rect x="96" y="92" width="360" height="360" fill="#D9D9D9"/>
<line x1="311.682" y1="205.814" x2="331.814" y2="217.318" stroke="#2D548D" stroke-linecap="square" stroke-dasharray="1 3"/>
<line x1="330.655" y1="216.266" x2="341.266" y2="241.345" stroke="#2D548D" stroke-linecap="square" stroke-dasharray="1 3"/>
<circle cx="115" cy="433" r="3" fill="black"/>
<circle cx="169" cy="433" r="3" fill="black"/>
<circle cx="223" cy="433" r="3" fill="black"/>
<circle cx="331" cy="433" r="3" fill="black"/>
<circle cx="385" cy="433" r="3" fill="black"/>
<circle cx="439" cy="433" r="3" fill="black"/>
<circle cx="277" cy="433" r="3" fill="black"/>
<circle cx="115" cy="379" r="3" transform="rotate(-90 115 379)" fill="black"/>
<circle cx="115" cy="325" r="3" transform="rotate(-90 115 325)" fill="black"/>
<circle cx="115" cy="217" r="3" transform="rotate(-90 115 217)" fill="black"/>
<circle cx="115" cy="163" r="3" transform="rotate(-90 115 163)" fill="black"/>
<circle cx="115" cy="109" r="3" transform="rotate(-90 115 109)" fill="black"/>
<circle cx="115" cy="271" r="3" transform="rotate(-90 115 271)" fill="black"/>
<circle cx="169" cy="379" r="3" transform="rotate(-90 169 379)" fill="black"/>
<circle cx="169" cy="325" r="3" transform="rotate(-90 169 325)" fill="black"/>
<circle cx="169" cy="217" r="3" transform="rotate(-90 169 217)" fill="black"/>
<circle cx="169" cy="163" r="3" transform="rotate(-90 169 163)" fill="black"/>
<circle cx="169" cy="109" r="3" transform="rotate(-90 169 109)" fill="black"/>
<circle cx="169" cy="271" r="3" transform="rotate(-90 169 271)" fill="black"/>
<circle cx="223" cy="379" r="3" transform="rotate(-90 223 379)" fill="black"/>
<circle cx="223" cy="325" r="3" transform="rotate(-90 223 325)" fill="black"/>
<circle cx="223" cy="217" r="3" transform="rotate(-90 223 217)" fill="black"/>
<circle cx="223" cy="163" r="3" transform="rotate(-90 223 163)" fill="black"/>
<circle cx="223" cy="109" r="3" transform="rotate(-90 223 109)" fill="black"/>
<circle cx="223" cy="271" r="3" transform="rotate(-90 223 271)" fill="black"/>
<circle cx="277" cy="379" r="3" transform="rotate(-90 277 379)" fill="black"/>
<circle cx="277" cy="325" r="3" transform="rotate(-90 277 325)" fill="black"/>
<circle cx="277" cy="217" r="3" transform="rotate(-90 277 217)" fill="black"/>
<circle cx="277" cy="163" r="3" transform="rotate(-90 277 163)" fill="black"/>
<circle cx="277" cy="109" r="3" transform="rotate(-90 277 109)" fill="black"/>
<circle cx="277" cy="271" r="3" transform="rotate(-90 277 271)" fill="black"/>
<circle cx="331" cy="379" r="3" transform="rotate(-90 331 379)" fill="black"/>
<circle cx="331" cy="325" r="3" transform="rotate(-90 331 325)" fill="black"/>
<circle cx="331" cy="217" r="3" transform="rotate(-90 331 217)" fill="black"/>
<circle cx="331" cy="163" r="3" transform="rotate(-90 331 163)" fill="black"/>
<circle cx="331" cy="109" r="3" transform="rotate(-90 331 109)" fill="black"/>
<circle cx="331" cy="271" r="3" transform="rotate(-90 331 271)" fill="black"/>
<circle cx="385" cy="379" r="3" transform="rotate(-90 385 379)" fill="black"/>
<circle cx="385" cy="325" r="3" transform="rotate(-90 385 325)" fill="black"/>
<circle cx="385" cy="217" r="3" transform="rotate(-90 385 217)" fill="black"/>
<circle cx="385" cy="163" r="3" transform="rotate(-90 385 163)" fill="black"/>
<circle cx="385" cy="109" r="3" transform="rotate(-90 385 109)" fill="black"/>
<circle cx="385" cy="271" r="3" transform="rotate(-90 385 271)" fill="black"/>
<circle cx="439" cy="379" r="3" transform="rotate(-90 439 379)" fill="black"/>
<circle cx="439" cy="325" r="3" transform="rotate(-90 439 325)" fill="black"/>
<circle cx="439" cy="217" r="3" transform="rotate(-90 439 217)" fill="black"/>
<circle cx="439" cy="163" r="3" transform="rotate(-90 439 163)" fill="black"/>
<circle cx="439" cy="109" r="3" transform="rotate(-90 439 109)" fill="black"/>
<circle cx="439" cy="271" r="3" transform="rotate(-90 439 271)" fill="black"/>
<line x1="50.7988" y1="370.542" x2="505.799" y2="170.542" stroke="black" stroke-dasharray="2 2"/>
<line x1="169.553" y1="484.775" x2="384.553" y2="56.7756" stroke="black" stroke-dasharray="2 2"/>
<path d="M386.673 76.1746C386.597 76.0988 386.537 76.0501 386.494 76.0284C386.451 76.0068 386.364 75.9905 386.234 75.9797C386.104 75.9689 385.871 75.9526 385.536 75.931H385V75.184H387.842H388.394H389.433C390.256 75.184 390.889 75.2165 391.333 75.2815C391.777 75.3464 392.226 75.5034 392.681 75.7524C393.709 76.272 394.299 76.9811 394.451 77.8796C394.461 77.9337 394.467 78.0203 394.467 78.1394C394.467 78.4966 394.38 78.8322 394.207 79.1461C394.034 79.4601 393.828 79.7145 393.59 79.9093C393.352 80.1042 393.108 80.272 392.859 80.4127C392.61 80.5535 392.399 80.6509 392.226 80.705L391.966 80.7862C391.999 80.8187 392.058 80.8512 392.145 80.8836C392.47 81.0568 392.735 81.2409 392.94 81.4357C393.146 81.6306 393.303 81.8687 393.411 82.1502C393.52 82.4317 393.595 82.6644 393.639 82.8484C393.682 83.0325 393.731 83.3356 393.785 83.7578C393.839 84.18 393.893 84.5101 393.947 84.7483C394.055 85.2679 394.185 85.6089 394.337 85.7713C394.488 85.9337 394.694 86.0149 394.954 86.0149H395.035C395.198 86.0149 395.355 85.9283 395.506 85.7551C395.658 85.5819 395.755 85.2842 395.798 84.862C395.798 84.7429 395.82 84.6671 395.863 84.6346C395.907 84.6022 395.993 84.5805 396.123 84.5697C396.253 84.5589 396.34 84.5697 396.383 84.6022C396.426 84.6346 396.448 84.705 396.448 84.8133C396.448 85.1488 396.361 85.4899 396.188 85.8363C396.015 86.1827 395.777 86.4154 395.474 86.5345C395.3 86.5995 395.073 86.6319 394.792 86.6319C393.179 86.567 392.248 85.9608 391.999 84.8133C391.977 84.6942 391.966 84.2991 391.966 83.6279C391.966 82.9567 391.928 82.5074 391.853 82.2801C391.647 81.6522 391.235 81.2517 390.618 81.0785L390.456 81.046L389.384 81.0298H388.313V83.157L388.329 85.2842C388.394 85.3924 388.486 85.4574 388.605 85.479C388.724 85.5007 389.005 85.5169 389.449 85.5277H389.985V86.2747H389.806C389.579 86.2422 388.811 86.226 387.501 86.226C386.18 86.226 385.406 86.2422 385.179 86.2747H385V85.5277H385.536C385.991 85.5169 386.267 85.5007 386.364 85.479C386.461 85.4574 386.564 85.3924 386.673 85.2842V76.1746ZM392.535 78.1719V78.0095C392.535 77.8146 392.529 77.6522 392.518 77.5223C392.507 77.3924 392.459 77.2246 392.372 77.0189C392.286 76.8133 392.183 76.6455 392.064 76.5156C391.945 76.3857 391.739 76.2666 391.447 76.1583C391.154 76.0501 390.819 75.9797 390.44 75.9472C390.418 75.9472 390.299 75.9472 390.083 75.9472C389.866 75.9472 389.671 75.9418 389.498 75.931H389.157C388.67 75.931 388.405 75.9797 388.361 76.0771C388.329 76.1204 388.313 76.8566 388.313 78.2855V80.429H389.254C390.348 80.429 391.133 80.3315 391.609 80.1367C392.085 79.9418 392.383 79.5196 392.502 78.8701C392.524 78.751 392.535 78.5183 392.535 78.1719Z" fill="black"/>
<path d="M398.737 81.322C398.737 81.322 398.618 81.322 398.38 81.322C398.142 81.322 397.942 81.2409 397.779 81.0785C397.617 80.9161 397.536 80.705 397.536 80.4452C397.536 80.0663 397.72 79.7307 398.088 79.4384C398.456 79.1461 399.111 79 400.053 79C400.843 79 401.482 79.1732 401.969 79.5196C402.456 79.866 402.781 80.2774 402.943 80.7537C402.997 80.9053 403.024 81.0731 403.024 81.2571C403.024 81.4411 403.03 82.0636 403.041 83.1245V84.2612C403.041 84.7808 403.068 85.138 403.122 85.3329C403.176 85.5277 403.29 85.6252 403.463 85.6252C403.625 85.6252 403.733 85.5386 403.788 85.3654C403.842 85.1921 403.869 84.9053 403.869 84.5047V83.9202H404.518V84.5534C404.507 84.9865 404.491 85.2409 404.47 85.3166C404.372 85.6414 404.183 85.8958 403.901 86.0798C403.62 86.2639 403.322 86.3613 403.008 86.3721C402.694 86.3829 402.44 86.2855 402.245 86.0798C402.05 85.8741 401.92 85.6468 401.855 85.3978V85.3329L401.823 85.3816C401.801 85.4141 401.774 85.4465 401.742 85.479C401.709 85.5115 401.666 85.5602 401.612 85.6252C401.557 85.6901 401.493 85.7497 401.417 85.8038C401.341 85.8579 401.26 85.9229 401.173 85.9986C401.087 86.0744 400.989 86.134 400.881 86.1773C400.773 86.2206 400.654 86.2639 400.524 86.3072C400.394 86.3505 400.253 86.3829 400.101 86.4046C399.95 86.4262 399.782 86.4425 399.598 86.4533C398.949 86.4533 398.364 86.2855 397.844 85.9499C397.325 85.6143 397.065 85.1434 397.065 84.5372C397.065 84.3099 397.103 84.0934 397.179 83.8877C397.254 83.682 397.401 83.4601 397.617 83.2219C397.834 82.9838 398.093 82.7835 398.396 82.6211C398.7 82.4587 399.122 82.3072 399.663 82.1664C400.204 82.0257 400.8 81.9445 401.449 81.9229H401.677V81.5656C401.677 81.1976 401.644 80.9269 401.579 80.7537C401.341 79.9851 400.816 79.6008 400.004 79.6008C399.809 79.6008 399.625 79.6062 399.452 79.617C399.279 79.6279 399.143 79.6495 399.046 79.682C398.949 79.7145 398.905 79.7307 398.916 79.7307C399.154 79.8931 399.273 80.1313 399.273 80.4452C399.273 80.7158 399.187 80.9269 399.014 81.0785L398.737 81.322ZM398.559 84.5534C398.559 84.889 398.689 85.1867 398.949 85.4465C399.208 85.7064 399.528 85.8417 399.907 85.8525C400.318 85.8525 400.681 85.728 400.995 85.479C401.309 85.23 401.52 84.9053 401.628 84.5047C401.65 84.429 401.666 84.0717 401.677 83.433C401.677 82.8051 401.671 82.4912 401.66 82.4912C401.574 82.4912 401.46 82.4966 401.319 82.5074C401.179 82.5183 400.935 82.567 400.589 82.6536C400.242 82.7402 399.928 82.8484 399.647 82.9783C399.365 83.1082 399.116 83.3085 398.9 83.5792C398.683 83.8498 398.57 84.1746 398.559 84.5534Z" fill="black"/>
<path d="M405.07 79.4222C405.644 79.3789 406.088 79.0758 406.402 78.5129C406.716 77.9499 406.889 77.2896 406.921 76.5318V76.2882H407.571V79.276H409.763V80.023H407.571V82.3613C407.582 83.7145 407.587 84.4777 407.587 84.6509C407.587 84.8241 407.625 84.9973 407.701 85.1705C407.852 85.5927 408.118 85.8038 408.497 85.8038C408.973 85.8038 409.265 85.4195 409.373 84.6509C409.384 84.5643 409.39 84.3153 409.39 83.9039V83.3356H410.039V83.9039V84.0988C410.039 84.9323 409.812 85.5656 409.357 85.9986C409.065 86.2909 408.686 86.4371 408.221 86.4371C407.852 86.4371 407.533 86.3721 407.262 86.2422C406.992 86.1123 406.786 85.9445 406.645 85.7388C406.505 85.5331 406.402 85.3437 406.337 85.1705C406.272 84.9973 406.234 84.8241 406.223 84.6509C406.212 84.5751 406.207 83.774 406.207 82.2476V80.023H404.924V79.4222H405.07Z" fill="black"/>
<path d="M412.069 76.3857C412.069 76.0825 412.166 75.8444 412.361 75.6712C412.556 75.498 412.794 75.4114 413.076 75.4114C413.325 75.433 413.541 75.525 413.725 75.6874C413.909 75.8498 414.001 76.0825 414.001 76.3857C414.001 76.7104 413.909 76.954 413.725 77.1164C413.541 77.2788 413.314 77.3599 413.043 77.3599C412.773 77.3599 412.545 77.2788 412.361 77.1164C412.177 76.954 412.08 76.7104 412.069 76.3857ZM414.959 86.2747C414.797 86.2422 414.234 86.226 413.271 86.226C413.152 86.226 412.951 86.226 412.67 86.226C412.388 86.226 412.118 86.2368 411.858 86.2585L411.501 86.2747H411.371V85.5277H411.631C411.934 85.5277 412.199 85.5115 412.426 85.479C412.524 85.4357 412.583 85.3762 412.605 85.3004C412.627 85.2246 412.637 84.9973 412.637 84.6184V82.9459V81.5169C412.637 80.954 412.627 80.5968 412.605 80.4452C412.583 80.2936 412.507 80.1908 412.378 80.1367C412.226 80.0609 411.972 80.023 411.614 80.023H411.436V79.6495C411.436 79.4005 411.447 79.276 411.468 79.276L411.631 79.2598C411.739 79.249 411.89 79.2382 412.085 79.2273C412.28 79.2165 412.475 79.2057 412.67 79.1949C412.854 79.184 413.049 79.1732 413.254 79.1624C413.46 79.1516 413.617 79.1353 413.725 79.1137C413.834 79.092 413.893 79.0866 413.904 79.0974H413.953V85.2679C414.007 85.3762 414.072 85.4411 414.148 85.4628C414.223 85.4844 414.413 85.5061 414.716 85.5277H415.089V86.2747H414.959Z" fill="black"/>
<path d="M415.917 82.7997C415.917 81.7713 416.269 80.8836 416.973 80.1367C417.677 79.3897 418.526 79.0108 419.522 79C420.497 79 421.336 79.3681 422.039 80.1042C422.743 80.8403 423.1 81.7334 423.111 82.7835C423.111 83.8119 422.765 84.6779 422.072 85.3816C421.379 86.0852 420.529 86.4371 419.522 86.4371C418.472 86.4371 417.612 86.0744 416.94 85.3491C416.269 84.6238 415.928 83.774 415.917 82.7997ZM419.522 85.7875C420.843 85.7875 421.503 84.9053 421.503 83.1407V82.6211V82.2152C421.503 81.977 421.498 81.7713 421.487 81.5981C421.476 81.4249 421.438 81.2192 421.373 80.9811C421.308 80.7429 421.222 80.548 421.114 80.3965C421.005 80.2449 420.838 80.0934 420.61 79.9418C420.383 79.7903 420.118 79.682 419.815 79.617C419.76 79.6062 419.674 79.6008 419.555 79.6008C419.23 79.6008 418.921 79.6658 418.629 79.7957C418.164 80.0338 417.861 80.364 417.72 80.7862C417.579 81.2084 417.509 81.7064 417.509 82.2801V82.6049C417.509 83.6441 417.612 84.3748 417.817 84.797C418.164 85.4574 418.732 85.7875 419.522 85.7875Z" fill="black"/>
<path d="M424.248 85.5277H424.475C424.897 85.5277 425.152 85.452 425.238 85.3004V85.1705C425.238 85.0731 425.238 84.9486 425.238 84.797C425.238 84.6455 425.238 84.4777 425.238 84.2936C425.238 84.1096 425.244 83.8985 425.254 83.6604C425.265 83.4222 425.265 83.1949 425.254 82.9783C425.254 82.6428 425.254 82.2855 425.254 81.9066C425.254 81.5277 425.249 81.2084 425.238 80.9486V80.5751C425.206 80.3694 425.13 80.2341 425.011 80.1691C424.892 80.1042 424.648 80.0555 424.28 80.023H423.988V79.6495C423.988 79.4005 423.999 79.276 424.02 79.276L424.183 79.2598C424.291 79.249 424.443 79.2382 424.637 79.2273C424.832 79.2165 425.033 79.2057 425.238 79.1949C425.422 79.184 425.617 79.1732 425.823 79.1624C426.028 79.1516 426.185 79.1353 426.294 79.1137C426.402 79.092 426.461 79.0866 426.472 79.0974H426.521V79.747C426.521 80.1583 426.526 80.364 426.537 80.364C426.548 80.364 426.575 80.3369 426.618 80.2828C426.662 80.2287 426.727 80.1475 426.813 80.0392C426.9 79.931 427.003 79.8336 427.122 79.747C427.241 79.6604 427.398 79.5575 427.593 79.4384C427.788 79.3194 427.993 79.2327 428.21 79.1786C428.426 79.1245 428.702 79.0974 429.038 79.0974C430.272 79.1407 430.959 79.7524 431.1 80.9323C431.111 81.0081 431.116 81.7605 431.116 83.1894V84.5859C431.116 84.9973 431.127 85.2409 431.149 85.3166C431.171 85.3924 431.23 85.4466 431.328 85.479C431.555 85.5115 431.82 85.5277 432.123 85.5277H432.383V86.2747H432.253L431.863 86.2585C431.614 86.2476 431.344 86.2422 431.051 86.2422C430.759 86.2422 430.553 86.2368 430.434 86.226C429.319 86.226 428.713 86.2422 428.616 86.2747H428.486V85.5277H428.746C429.406 85.5277 429.736 85.4411 429.736 85.2679C429.747 85.2463 429.752 84.4993 429.752 83.0271C429.742 81.5656 429.731 80.7916 429.72 80.705C429.655 80.4019 429.547 80.1746 429.395 80.023C429.244 79.8714 429.114 79.7794 429.005 79.747C428.897 79.7145 428.756 79.7037 428.583 79.7145C428.096 79.7145 427.669 79.8985 427.3 80.2666C427.008 80.5589 426.824 80.8566 426.748 81.1597C426.673 81.4628 426.629 81.912 426.618 82.5074V83.5467V84.521C426.618 84.8457 426.624 85.0622 426.635 85.1705C426.645 85.2788 426.662 85.3491 426.683 85.3816C426.705 85.4141 426.754 85.4466 426.83 85.479C427.057 85.5115 427.322 85.5277 427.625 85.5277H427.885V86.2747H427.755L427.382 86.2585C427.122 86.2476 426.846 86.2422 426.553 86.2422C426.261 86.2422 426.056 86.2368 425.936 86.226C424.821 86.226 424.215 86.2422 424.118 86.2747H423.988V85.5277H424.248Z" fill="black"/>
<path d="M434.835 81.322C434.835 81.322 434.716 81.322 434.478 81.322C434.239 81.322 434.039 81.2409 433.877 81.0785C433.714 80.9161 433.633 80.705 433.633 80.4452C433.633 80.0663 433.817 79.7307 434.185 79.4384C434.553 79.1461 435.208 79 436.15 79C436.94 79 437.579 79.1732 438.066 79.5196C438.553 79.866 438.878 80.2774 439.041 80.7537C439.095 80.9053 439.122 81.0731 439.122 81.2571C439.122 81.4411 439.127 82.0636 439.138 83.1245V84.2612C439.138 84.7808 439.165 85.138 439.219 85.3329C439.273 85.5277 439.387 85.6252 439.56 85.6252C439.723 85.6252 439.831 85.5386 439.885 85.3654C439.939 85.1921 439.966 84.9053 439.966 84.5047V83.9202H440.616V84.5534C440.605 84.9865 440.589 85.2409 440.567 85.3166C440.47 85.6414 440.28 85.8958 439.999 86.0798C439.717 86.2639 439.419 86.3613 439.106 86.3721C438.792 86.3829 438.537 86.2855 438.342 86.0798C438.147 85.8741 438.018 85.6468 437.953 85.3978V85.3329L437.92 85.3816C437.898 85.4141 437.871 85.4465 437.839 85.479C437.806 85.5115 437.763 85.5602 437.709 85.6252C437.655 85.6901 437.59 85.7497 437.514 85.8038C437.438 85.8579 437.357 85.9229 437.271 85.9986C437.184 86.0744 437.087 86.134 436.978 86.1773C436.87 86.2206 436.751 86.2639 436.621 86.3072C436.491 86.3505 436.35 86.3829 436.199 86.4046C436.047 86.4262 435.88 86.4425 435.696 86.4533C435.046 86.4533 434.461 86.2855 433.942 85.9499C433.422 85.6143 433.162 85.1434 433.162 84.5372C433.162 84.3099 433.2 84.0934 433.276 83.8877C433.352 83.682 433.498 83.4601 433.714 83.2219C433.931 82.9838 434.191 82.7835 434.494 82.6211C434.797 82.4587 435.219 82.3072 435.76 82.1664C436.302 82.0257 436.897 81.9445 437.547 81.9229H437.774V81.5656C437.774 81.1976 437.742 80.9269 437.677 80.7537C437.438 79.9851 436.913 79.6008 436.101 79.6008C435.907 79.6008 435.723 79.6062 435.549 79.617C435.376 79.6279 435.241 79.6495 435.143 79.682C435.046 79.7145 435.003 79.7307 435.014 79.7307C435.252 79.8931 435.371 80.1313 435.371 80.4452C435.371 80.7158 435.284 80.9269 435.111 81.0785L434.835 81.322ZM434.656 84.5534C434.656 84.889 434.786 85.1867 435.046 85.4465C435.306 85.7064 435.625 85.8417 436.004 85.8525C436.415 85.8525 436.778 85.728 437.092 85.479C437.406 85.23 437.617 84.9053 437.725 84.5047C437.747 84.429 437.763 84.0717 437.774 83.433C437.774 82.8051 437.769 82.4912 437.758 82.4912C437.671 82.4912 437.557 82.4966 437.417 82.5074C437.276 82.5183 437.032 82.567 436.686 82.6536C436.34 82.7402 436.026 82.8484 435.744 82.9783C435.463 83.1082 435.214 83.3085 434.997 83.5792C434.781 83.8498 434.667 84.1746 434.656 84.5534Z" fill="black"/>
<path d="M441.411 85.5277H441.639C442.061 85.5277 442.315 85.452 442.402 85.3004V85.1705C442.402 85.0731 442.402 84.9486 442.402 84.797C442.402 84.6455 442.402 84.4668 442.402 84.2612C442.402 84.0555 442.407 83.8227 442.418 83.5629C442.429 83.3031 442.429 83.0325 442.418 82.751C442.407 82.4696 442.407 82.1719 442.418 81.8579C442.429 81.544 442.429 81.2355 442.418 80.9323C442.418 80.5318 442.418 80.1096 442.418 79.6658C442.418 79.2219 442.418 78.816 442.418 78.4479C442.418 78.0798 442.418 77.7551 442.418 77.4736C442.418 77.1922 442.413 76.954 442.402 76.7591C442.391 76.5643 442.391 76.4723 442.402 76.4831C442.369 76.2774 442.294 76.1421 442.175 76.0771C442.055 76.0122 441.812 75.9635 441.444 75.931H441.152V75.5575C441.152 75.3085 441.162 75.184 441.184 75.184L441.346 75.1678C441.455 75.157 441.612 75.1461 441.817 75.1353C442.023 75.1245 442.223 75.1137 442.418 75.1028C442.602 75.092 442.802 75.0812 443.019 75.0704C443.235 75.0595 443.398 75.0433 443.506 75.0217C443.614 75 443.674 74.9946 443.685 75.0054H443.733V80.1204C443.733 83.5521 443.739 85.2788 443.75 85.3004C443.793 85.387 443.858 85.4466 443.945 85.479C444.172 85.5115 444.437 85.5277 444.74 85.5277H445V86.2747H444.87L444.497 86.2585C444.248 86.2476 443.982 86.2422 443.701 86.2422C443.419 86.2422 443.214 86.2368 443.084 86.226C442.954 86.2152 442.748 86.2152 442.467 86.226C442.185 86.2368 441.915 86.2476 441.655 86.2585L441.281 86.2747H441.152V85.5277H441.411Z" fill="black"/>
<path d="M470.005 204.319C469.776 204.286 468.972 204.27 467.592 204.27C466.212 204.27 465.408 204.286 465.179 204.319H465V203.569H465.359C465.891 203.569 466.233 203.553 466.386 203.52C466.538 203.487 466.646 203.428 466.712 203.341C466.733 203.308 466.744 201.776 466.744 198.744C466.744 195.722 466.733 194.195 466.712 194.163C466.668 194.109 466.625 194.07 466.581 194.049C466.538 194.027 466.418 194 466.223 193.967C466.027 193.935 465.739 193.924 465.359 193.935H465V193.185H465.179C465.408 193.217 466.212 193.234 467.592 193.234C468.972 193.234 469.776 193.217 470.005 193.185H470.184V193.935H469.825C469.293 193.935 468.95 193.951 468.798 193.984C468.646 194.016 468.537 194.076 468.472 194.163C468.451 194.195 468.44 195.722 468.44 198.744C468.44 201.776 468.451 203.308 468.472 203.341C468.516 203.395 468.559 203.433 468.603 203.455C468.646 203.477 468.766 203.504 468.961 203.536C469.157 203.569 469.445 203.58 469.825 203.569H470.184V204.319H470.005Z" fill="black"/>
<path d="M471.129 203.569H471.358C471.781 203.569 472.037 203.493 472.124 203.341V203.21C472.124 203.112 472.124 202.988 472.124 202.835C472.124 202.683 472.129 202.515 472.14 202.33C472.151 202.145 472.151 201.933 472.14 201.694C472.129 201.455 472.129 201.227 472.14 201.01C472.14 200.673 472.14 200.314 472.14 199.934C472.14 199.553 472.14 199.233 472.14 198.972L472.124 198.597C472.091 198.39 472.015 198.255 471.896 198.189C471.776 198.124 471.532 198.075 471.162 198.043H470.869V197.668C470.869 197.418 470.879 197.293 470.901 197.293L471.064 197.276C471.173 197.266 471.325 197.255 471.521 197.244C471.716 197.233 471.912 197.222 472.108 197.211C472.281 197.2 472.472 197.19 472.678 197.179C472.885 197.168 473.042 197.151 473.151 197.13C473.26 197.108 473.319 197.103 473.33 197.113H473.379V198.238C473.803 197.499 474.33 197.13 474.96 197.13H475.058C475.547 197.13 475.906 197.249 476.134 197.488C476.362 197.727 476.476 197.977 476.476 198.238C476.476 198.467 476.406 198.662 476.264 198.825C476.123 198.988 475.917 199.07 475.645 199.07C475.373 199.07 475.172 198.983 475.042 198.809C474.911 198.635 474.841 198.45 474.83 198.255C474.83 198.157 474.841 198.07 474.863 197.994C474.884 197.918 474.911 197.852 474.944 197.798C474.977 197.744 474.993 197.717 474.993 197.717C474.971 197.695 474.846 197.717 474.618 197.782C474.444 197.869 474.314 197.95 474.227 198.026C473.716 198.515 473.461 199.488 473.461 200.944V201.808C473.461 201.95 473.461 202.096 473.461 202.248C473.461 202.401 473.461 202.542 473.461 202.672C473.461 202.803 473.466 202.911 473.477 202.998C473.488 203.085 473.488 203.167 473.477 203.243V203.324C473.488 203.346 473.504 203.368 473.526 203.39C473.548 203.411 473.575 203.428 473.607 203.439C473.64 203.449 473.667 203.466 473.689 203.487C473.711 203.509 473.749 203.52 473.803 203.52C473.857 203.52 473.895 203.525 473.917 203.536C473.939 203.547 473.988 203.553 474.064 203.553C474.14 203.553 474.189 203.553 474.21 203.553C474.232 203.553 474.287 203.558 474.373 203.569C474.46 203.58 474.515 203.58 474.536 203.569H475.042V204.319H474.895C474.699 204.286 474.009 204.27 472.825 204.27C471.705 204.27 471.097 204.286 470.999 204.319H470.869V203.569H471.129Z" fill="black"/>
<path d="M477.52 203.569H477.748C478.172 203.569 478.427 203.493 478.514 203.341V203.21C478.514 203.112 478.514 202.988 478.514 202.835C478.514 202.683 478.52 202.515 478.53 202.33C478.541 202.145 478.541 201.933 478.53 201.694C478.52 201.455 478.52 201.227 478.53 201.01C478.53 200.673 478.53 200.314 478.53 199.934C478.53 199.553 478.53 199.233 478.53 198.972L478.514 198.597C478.481 198.39 478.405 198.255 478.286 198.189C478.166 198.124 477.922 198.075 477.552 198.043H477.259V197.668C477.259 197.418 477.27 197.293 477.291 197.293L477.454 197.276C477.563 197.266 477.715 197.255 477.911 197.244C478.107 197.233 478.302 197.222 478.498 197.211C478.672 197.2 478.862 197.19 479.068 197.179C479.275 197.168 479.432 197.151 479.541 197.13C479.65 197.108 479.71 197.103 479.72 197.113H479.769V198.238C480.193 197.499 480.72 197.13 481.351 197.13H481.448C481.937 197.13 482.296 197.249 482.524 197.488C482.753 197.727 482.867 197.977 482.867 198.238C482.867 198.467 482.796 198.662 482.655 198.825C482.513 198.988 482.307 199.07 482.035 199.07C481.764 199.07 481.563 198.983 481.432 198.809C481.302 198.635 481.231 198.45 481.22 198.255C481.22 198.157 481.231 198.07 481.253 197.994C481.275 197.918 481.302 197.852 481.334 197.798C481.367 197.744 481.383 197.717 481.383 197.717C481.361 197.695 481.236 197.717 481.008 197.782C480.834 197.869 480.704 197.95 480.617 198.026C480.106 198.515 479.851 199.488 479.851 200.944V201.808C479.851 201.95 479.851 202.096 479.851 202.248C479.851 202.401 479.851 202.542 479.851 202.672C479.851 202.803 479.856 202.911 479.867 202.998C479.878 203.085 479.878 203.167 479.867 203.243V203.324C479.878 203.346 479.894 203.368 479.916 203.39C479.938 203.411 479.965 203.428 479.998 203.439C480.03 203.449 480.057 203.466 480.079 203.487C480.101 203.509 480.139 203.52 480.193 203.52C480.247 203.52 480.286 203.525 480.307 203.536C480.329 203.547 480.378 203.553 480.454 203.553C480.53 203.553 480.579 203.553 480.601 203.553C480.622 203.553 480.677 203.558 480.764 203.569C480.851 203.58 480.905 203.58 480.927 203.569H481.432V204.319H481.285C481.09 204.286 480.4 204.27 479.215 204.27C478.096 204.27 477.487 204.286 477.389 204.319H477.259V203.569H477.52Z" fill="black"/>
<path d="M485.556 199.347C485.556 199.347 485.437 199.347 485.198 199.347C484.959 199.347 484.758 199.265 484.595 199.102C484.432 198.939 484.35 198.727 484.35 198.467C484.35 198.086 484.535 197.749 484.904 197.456C485.274 197.162 485.931 197.016 486.877 197.016C487.67 197.016 488.311 197.19 488.8 197.537C489.29 197.885 489.616 198.298 489.779 198.776C489.833 198.928 489.86 199.097 489.86 199.282C489.86 199.466 489.866 200.091 489.876 201.156V202.297C489.876 202.819 489.904 203.178 489.958 203.373C490.012 203.569 490.126 203.667 490.3 203.667C490.463 203.667 490.572 203.58 490.626 203.406C490.681 203.232 490.708 202.944 490.708 202.542V201.955H491.36V202.591C491.349 203.026 491.333 203.281 491.311 203.357C491.213 203.683 491.023 203.938 490.74 204.123C490.458 204.308 490.159 204.406 489.844 204.417C489.529 204.427 489.273 204.33 489.078 204.123C488.882 203.917 488.752 203.688 488.686 203.439V203.373L488.654 203.422C488.632 203.455 488.605 203.487 488.572 203.52C488.54 203.553 488.496 203.602 488.442 203.667C488.388 203.732 488.322 203.792 488.246 203.846C488.17 203.9 488.089 203.966 488.002 204.042C487.915 204.118 487.817 204.178 487.708 204.221C487.6 204.264 487.48 204.308 487.35 204.351C487.219 204.395 487.078 204.427 486.926 204.449C486.774 204.471 486.605 204.487 486.42 204.498C485.768 204.498 485.182 204.33 484.66 203.993C484.138 203.656 483.877 203.183 483.877 202.575C483.877 202.346 483.915 202.129 483.991 201.922C484.068 201.716 484.214 201.493 484.432 201.254C484.649 201.015 484.91 200.814 485.214 200.651C485.518 200.488 485.942 200.336 486.486 200.194C487.029 200.053 487.627 199.972 488.279 199.95H488.507V199.591C488.507 199.222 488.474 198.95 488.409 198.776C488.17 198.005 487.643 197.619 486.828 197.619C486.632 197.619 486.448 197.624 486.274 197.635C486.1 197.646 485.964 197.668 485.866 197.7C485.768 197.733 485.725 197.749 485.736 197.749C485.975 197.912 486.094 198.151 486.094 198.467C486.094 198.738 486.007 198.95 485.834 199.102L485.556 199.347ZM485.377 202.591C485.377 202.928 485.508 203.227 485.768 203.487C486.029 203.748 486.35 203.884 486.73 203.895C487.143 203.895 487.507 203.77 487.822 203.52C488.138 203.27 488.349 202.944 488.458 202.542C488.48 202.466 488.496 202.107 488.507 201.466C488.507 200.836 488.502 200.521 488.491 200.521C488.404 200.521 488.29 200.526 488.148 200.537C488.007 200.548 487.763 200.597 487.415 200.684C487.067 200.77 486.752 200.879 486.469 201.01C486.187 201.14 485.937 201.341 485.719 201.613C485.502 201.884 485.388 202.21 485.377 202.591Z" fill="black"/>
<path d="M491.914 197.439C492.49 197.396 492.936 197.092 493.251 196.527C493.566 195.961 493.74 195.299 493.773 194.538V194.293H494.425V197.293H496.625V198.043H494.425V200.39C494.435 201.749 494.441 202.515 494.441 202.689C494.441 202.863 494.479 203.036 494.555 203.21C494.707 203.634 494.973 203.846 495.354 203.846C495.832 203.846 496.125 203.46 496.234 202.689C496.245 202.602 496.25 202.352 496.25 201.939V201.368H496.902V201.939V202.134C496.902 202.971 496.674 203.607 496.218 204.042C495.924 204.335 495.544 204.482 495.077 204.482C494.707 204.482 494.387 204.417 494.115 204.286C493.843 204.156 493.637 203.987 493.495 203.781C493.354 203.574 493.251 203.384 493.186 203.21C493.12 203.036 493.082 202.863 493.072 202.689C493.061 202.613 493.055 201.808 493.055 200.276V198.043H491.767V197.439H491.914Z" fill="black"/>
<path d="M498.94 194.391C498.94 194.087 499.038 193.848 499.234 193.674C499.429 193.5 499.668 193.413 499.951 193.413C500.201 193.435 500.418 193.527 500.603 193.69C500.788 193.853 500.88 194.087 500.88 194.391C500.88 194.717 500.788 194.962 500.603 195.125C500.418 195.288 500.19 195.369 499.918 195.369C499.647 195.369 499.418 195.288 499.234 195.125C499.049 194.962 498.951 194.717 498.94 194.391ZM501.842 204.319C501.679 204.286 501.114 204.27 500.146 204.27C500.027 204.27 499.826 204.27 499.543 204.27C499.261 204.27 498.989 204.281 498.728 204.303L498.37 204.319H498.239V203.569H498.5C498.804 203.569 499.071 203.553 499.299 203.52C499.397 203.477 499.456 203.417 499.478 203.341C499.5 203.265 499.511 203.036 499.511 202.656V200.977V199.542C499.511 198.977 499.5 198.619 499.478 198.467C499.456 198.314 499.38 198.211 499.25 198.157C499.098 198.081 498.842 198.043 498.484 198.043H498.304V197.668C498.304 197.418 498.315 197.293 498.337 197.293L498.5 197.276C498.609 197.266 498.761 197.255 498.956 197.244C499.152 197.233 499.348 197.222 499.543 197.211C499.728 197.2 499.924 197.19 500.13 197.179C500.337 197.168 500.494 197.151 500.603 197.13C500.712 197.108 500.771 197.103 500.782 197.113H500.831V203.308C500.885 203.417 500.951 203.482 501.027 203.504C501.103 203.525 501.293 203.547 501.597 203.569H501.972V204.319H501.842Z" fill="black"/>
<path d="M502.804 200.83C502.804 199.798 503.157 198.907 503.863 198.157C504.57 197.407 505.423 197.027 506.423 197.016C507.401 197.016 508.243 197.385 508.949 198.124C509.656 198.863 510.014 199.76 510.025 200.814C510.025 201.846 509.678 202.716 508.982 203.422C508.286 204.129 507.433 204.482 506.423 204.482C505.368 204.482 504.504 204.118 503.831 203.39C503.157 202.661 502.815 201.808 502.804 200.83ZM506.423 203.83C507.748 203.83 508.411 202.944 508.411 201.173V200.651V200.243C508.411 200.004 508.406 199.798 508.395 199.624C508.384 199.45 508.346 199.244 508.281 199.004C508.216 198.765 508.129 198.57 508.02 198.418C507.912 198.265 507.743 198.113 507.515 197.961C507.287 197.809 507.02 197.7 506.716 197.635C506.662 197.624 506.575 197.619 506.455 197.619C506.129 197.619 505.819 197.684 505.526 197.814C505.059 198.054 504.754 198.385 504.613 198.809C504.472 199.233 504.401 199.733 504.401 200.309V200.635C504.401 201.678 504.504 202.412 504.711 202.835C505.059 203.498 505.629 203.83 506.423 203.83Z" fill="black"/>
<path d="M511.166 203.569H511.395C511.818 203.569 512.074 203.493 512.161 203.341V203.21C512.161 203.112 512.161 202.988 512.161 202.835C512.161 202.683 512.161 202.515 512.161 202.33C512.161 202.145 512.166 201.933 512.177 201.694C512.188 201.455 512.188 201.227 512.177 201.01C512.177 200.673 512.177 200.314 512.177 199.934C512.177 199.553 512.172 199.233 512.161 198.972V198.597C512.128 198.39 512.052 198.255 511.933 198.189C511.813 198.124 511.569 198.075 511.199 198.043H510.906V197.668C510.906 197.418 510.916 197.293 510.938 197.293L511.101 197.276C511.21 197.266 511.362 197.255 511.558 197.244C511.753 197.233 511.954 197.222 512.161 197.211C512.346 197.2 512.541 197.19 512.748 197.179C512.954 197.168 513.112 197.151 513.22 197.13C513.329 197.108 513.389 197.103 513.4 197.113H513.449V197.766C513.449 198.179 513.454 198.385 513.465 198.385C513.476 198.385 513.503 198.358 513.546 198.303C513.59 198.249 513.655 198.168 513.742 198.059C513.829 197.95 513.932 197.852 514.052 197.766C514.171 197.679 514.329 197.575 514.525 197.456C514.72 197.336 514.927 197.249 515.144 197.195C515.361 197.141 515.639 197.113 515.975 197.113C517.214 197.157 517.904 197.771 518.046 198.956C518.057 199.032 518.062 199.787 518.062 201.221V202.623C518.062 203.036 518.073 203.281 518.095 203.357C518.116 203.433 518.176 203.487 518.274 203.52C518.502 203.553 518.768 203.569 519.073 203.569H519.334V204.319H519.203L518.812 204.303C518.562 204.292 518.29 204.286 517.997 204.286C517.703 204.286 517.497 204.281 517.377 204.27C516.258 204.27 515.649 204.286 515.552 204.319H515.421V203.569H515.682C516.345 203.569 516.676 203.482 516.676 203.308C516.687 203.286 516.693 202.536 516.693 201.058C516.682 199.591 516.671 198.814 516.66 198.727C516.595 198.423 516.486 198.195 516.334 198.043C516.182 197.891 516.051 197.798 515.943 197.766C515.834 197.733 515.693 197.722 515.519 197.733C515.03 197.733 514.601 197.918 514.231 198.287C513.938 198.581 513.753 198.879 513.677 199.184C513.601 199.488 513.557 199.939 513.546 200.537V201.58V202.558C513.546 202.884 513.552 203.102 513.563 203.21C513.574 203.319 513.59 203.39 513.612 203.422C513.633 203.455 513.682 203.487 513.758 203.52C513.987 203.553 514.253 203.569 514.557 203.569H514.818V204.319H514.688L514.313 204.303C514.052 204.292 513.775 204.286 513.481 204.286C513.188 204.286 512.981 204.281 512.862 204.27C511.742 204.27 511.134 204.286 511.036 204.319H510.906V203.569H511.166Z" fill="black"/>
<path d="M521.795 199.347C521.795 199.347 521.676 199.347 521.437 199.347C521.197 199.347 520.996 199.265 520.833 199.102C520.67 198.939 520.589 198.727 520.589 198.467C520.589 198.086 520.774 197.749 521.143 197.456C521.513 197.162 522.17 197.016 523.116 197.016C523.909 197.016 524.55 197.19 525.039 197.537C525.528 197.885 525.854 198.298 526.017 198.776C526.072 198.928 526.099 199.097 526.099 199.282C526.099 199.466 526.104 200.091 526.115 201.156V202.297C526.115 202.819 526.142 203.178 526.197 203.373C526.251 203.569 526.365 203.667 526.539 203.667C526.702 203.667 526.811 203.58 526.865 203.406C526.919 203.232 526.947 202.944 526.947 202.542V201.955H527.599V202.591C527.588 203.026 527.571 203.281 527.55 203.357C527.452 203.683 527.262 203.938 526.979 204.123C526.697 204.308 526.398 204.406 526.083 204.417C525.767 204.427 525.512 204.33 525.316 204.123C525.121 203.917 524.99 203.688 524.925 203.439V203.373L524.892 203.422C524.871 203.455 524.844 203.487 524.811 203.52C524.778 203.553 524.735 203.602 524.681 203.667C524.626 203.732 524.561 203.792 524.485 203.846C524.409 203.9 524.327 203.966 524.24 204.042C524.153 204.118 524.056 204.178 523.947 204.221C523.838 204.264 523.719 204.308 523.588 204.351C523.458 204.395 523.317 204.427 523.165 204.449C523.012 204.471 522.844 204.487 522.659 204.498C522.007 204.498 521.42 204.33 520.899 203.993C520.377 203.656 520.116 203.183 520.116 202.575C520.116 202.346 520.154 202.129 520.23 201.922C520.306 201.716 520.453 201.493 520.67 201.254C520.888 201.015 521.149 200.814 521.453 200.651C521.757 200.488 522.181 200.336 522.724 200.194C523.268 200.053 523.865 199.972 524.518 199.95H524.746V199.591C524.746 199.222 524.713 198.95 524.648 198.776C524.409 198.005 523.882 197.619 523.067 197.619C522.871 197.619 522.686 197.624 522.512 197.635C522.339 197.646 522.203 197.668 522.105 197.7C522.007 197.733 521.964 197.749 521.974 197.749C522.214 197.912 522.333 198.151 522.333 198.467C522.333 198.738 522.246 198.95 522.072 199.102L521.795 199.347ZM521.616 202.591C521.616 202.928 521.746 203.227 522.007 203.487C522.268 203.748 522.589 203.884 522.969 203.895C523.382 203.895 523.746 203.77 524.061 203.52C524.376 203.27 524.588 202.944 524.697 202.542C524.719 202.466 524.735 202.107 524.746 201.466C524.746 200.836 524.74 200.521 524.729 200.521C524.643 200.521 524.528 200.526 524.387 200.537C524.246 200.548 524.001 200.597 523.654 200.684C523.306 200.77 522.991 200.879 522.708 201.01C522.425 201.14 522.176 201.341 521.958 201.613C521.741 201.884 521.627 202.21 521.616 202.591Z" fill="black"/>
<path d="M528.397 203.569H528.626C529.049 203.569 529.305 203.493 529.392 203.341V203.21C529.392 203.112 529.392 202.988 529.392 202.835C529.392 202.683 529.392 202.504 529.392 202.297C529.392 202.091 529.397 201.857 529.408 201.596C529.419 201.336 529.419 201.064 529.408 200.781C529.397 200.499 529.397 200.2 529.408 199.885C529.419 199.57 529.419 199.26 529.408 198.956C529.408 198.553 529.408 198.13 529.408 197.684C529.408 197.238 529.408 196.831 529.408 196.461C529.408 196.092 529.408 195.766 529.408 195.483C529.408 195.201 529.403 194.962 529.392 194.766C529.381 194.57 529.381 194.478 529.392 194.489C529.359 194.282 529.283 194.147 529.164 194.081C529.044 194.016 528.799 193.967 528.43 193.935H528.137V193.56C528.137 193.31 528.147 193.185 528.169 193.185L528.332 193.168C528.441 193.158 528.598 193.147 528.805 193.136C529.011 193.125 529.212 193.114 529.408 193.103C529.593 193.092 529.794 193.082 530.011 193.071C530.229 193.06 530.392 193.043 530.5 193.022C530.609 193 530.669 192.995 530.68 193.005H530.729V198.14C530.729 201.586 530.734 203.319 530.745 203.341C530.788 203.428 530.853 203.487 530.94 203.52C531.169 203.553 531.435 203.569 531.739 203.569H532V204.319H531.87L531.495 204.303C531.245 204.292 530.978 204.286 530.696 204.286C530.413 204.286 530.207 204.281 530.076 204.27C529.946 204.259 529.74 204.259 529.457 204.27C529.174 204.281 528.903 204.292 528.642 204.303L528.267 204.319H528.137V203.569H528.397Z" fill="black"/>
<path d="M103.251 86.2271C103.084 86.0596 103 85.9507 103 85.9005C103 85.7163 103.26 85.1721 103.779 84.2678C104.298 83.3635 105.629 81.1865 107.773 77.7368L112.57 69.9247H111.415C109.69 69.9247 108.401 70.0921 107.547 70.4271C106.843 70.695 106.274 71.0299 105.838 71.4318C105.403 71.8337 105.127 72.1938 105.01 72.512C104.892 72.8301 104.792 73.1316 104.708 73.4162C104.624 73.7009 104.549 73.86 104.482 73.8935C104.432 73.9103 104.365 73.9186 104.281 73.9186C104.147 73.9186 103.988 73.8014 103.804 73.567L104.03 71.4318C104.063 71.1136 104.105 70.7787 104.155 70.4271C104.206 70.0754 104.239 69.7907 104.256 69.573C104.273 69.3553 104.289 69.2465 104.306 69.2465C104.356 69.213 104.415 69.1627 104.482 69.0957C104.516 69.0622 106.634 69.0455 110.837 69.0455H117.142C117.343 69.213 117.444 69.3553 117.444 69.4725C117.444 69.5395 115.836 72.2021 112.621 77.4604L107.823 85.2725C107.823 85.306 108.493 85.3228 109.832 85.3228C111.591 85.3228 112.805 85.2139 113.475 84.9962C114.446 84.6613 115.258 84.1338 115.911 83.4137C116.564 82.6936 117.017 81.8479 117.268 80.8767C117.351 80.4245 117.519 80.1984 117.77 80.1984C117.887 80.1984 117.988 80.2403 118.072 80.324C118.155 80.4078 118.206 80.4999 118.222 80.6003C118.222 80.7343 118.105 81.6554 117.871 83.3635C117.636 85.0716 117.494 85.9507 117.444 86.001L117.268 86.1768C117.234 86.2103 114.89 86.2271 110.234 86.2271H103.251ZM105.989 70.201L106.441 69.9247H105.085V70.3266C105.068 70.3768 105.051 70.4605 105.035 70.5778C105.018 70.695 105.001 70.7787 104.984 70.829C104.984 70.8959 105.001 70.9294 105.035 70.9294C105.068 70.9294 105.118 70.8959 105.185 70.829C105.252 70.762 105.361 70.6699 105.512 70.5527C105.663 70.4354 105.822 70.3182 105.989 70.201ZM116.137 69.9749C116.137 69.9414 115.735 69.9247 114.932 69.9247C114.061 69.9247 113.609 69.9665 113.575 70.0503C113.542 70.1173 112.001 72.6292 108.953 77.586C105.905 82.5429 104.323 85.1051 104.206 85.2725C104.206 85.306 104.633 85.3228 105.487 85.3228H106.768L111.465 77.6865L116.137 69.9749ZM116.64 85.3228C116.79 84.4185 116.866 83.8993 116.866 83.7654L116.363 84.2678C116.045 84.5692 115.752 84.812 115.484 84.9962L115.032 85.2725L115.811 85.3228H116.64Z" fill="black"/>
<path d="M120.962 68.209C120.642 68.209 120.388 68.1024 120.198 67.8893C120.009 67.6762 119.914 67.4157 119.914 67.1079C119.914 66.2673 120.228 65.5391 120.855 64.9235C121.483 64.3078 122.264 64 123.2 64C124.277 64 125.177 64.3315 125.899 64.9945C126.621 65.6575 126.988 66.5159 127 67.5696C127 68.0787 126.882 68.5641 126.645 69.0259C126.408 69.4876 126.124 69.8902 125.792 70.2335C125.461 70.5769 124.987 71.0149 124.372 71.5477C123.945 71.9147 123.353 72.4594 122.596 73.1816L121.548 74.1761L122.898 74.1938C124.756 74.1938 125.745 74.1642 125.863 74.105C125.946 74.0814 126.088 73.5545 126.29 72.5245V72.4712H127V72.5245C126.988 72.56 126.911 73.0987 126.769 74.1406C126.627 75.1824 126.538 75.7271 126.503 75.7744V75.8277H119.914V75.4903V75.2772C119.914 75.1943 119.95 75.1055 120.021 75.0108C120.092 74.9161 120.269 74.7089 120.553 74.3892C120.897 74.0103 121.193 73.6788 121.441 73.3947C121.548 73.2763 121.749 73.0572 122.045 72.7376C122.341 72.4179 122.542 72.1989 122.649 72.0805C122.756 71.9621 122.927 71.7667 123.164 71.4944C123.401 71.2221 123.567 71.0208 123.661 70.8906C123.756 70.7604 123.892 70.5828 124.07 70.3578C124.247 70.1329 124.372 69.9434 124.443 69.7895C124.514 69.6356 124.602 69.4639 124.709 69.2745C124.816 69.0851 124.893 68.8957 124.94 68.7062C124.987 68.5168 125.029 68.3392 125.064 68.1734C125.1 68.0077 125.118 67.8123 125.118 67.5874C125.118 66.8415 124.916 66.1962 124.514 65.6516C124.111 65.107 123.537 64.8347 122.791 64.8347C122.4 64.8347 122.057 64.9353 121.761 65.1366C121.465 65.3379 121.258 65.5332 121.139 65.7227C121.021 65.9121 120.962 66.0246 120.962 66.0601C120.962 66.0719 120.991 66.0778 121.051 66.0778C121.264 66.0778 121.483 66.1607 121.708 66.3265C121.933 66.4922 122.045 66.7645 122.045 67.1434C122.045 67.4394 121.95 67.688 121.761 67.8893C121.572 68.0906 121.305 68.1971 120.962 68.209Z" fill="black"/>
<path d="M343.299 221.634C343.299 221.16 343.453 220.772 343.761 220.469C344.07 220.166 344.431 220.01 344.846 220C345.01 220.01 345.246 220.05 345.554 220.121C345.863 220.192 346.133 220.252 346.364 220.303C346.595 220.353 346.72 220.388 346.74 220.409C346.913 220.489 347 220.63 347 220.832C347 221.014 346.937 221.185 346.812 221.347C346.687 221.508 346.518 221.589 346.306 221.589C346.104 221.589 345.839 221.442 345.511 221.15C345.183 220.857 344.894 220.706 344.643 220.696C344.393 220.686 344.205 220.757 344.08 220.908C343.954 221.059 343.887 221.205 343.877 221.347C343.877 221.79 344.354 222.623 345.308 223.843C345.954 224.691 346.277 225.553 346.277 226.431C346.277 227.671 345.983 228.74 345.395 229.638C344.807 230.536 344.157 230.99 343.443 231H343.342C342.658 231 342.104 230.768 341.68 230.304C341.255 229.84 341.029 229.25 341 228.534C341 227.192 341.554 226.037 342.663 225.069C343.048 224.756 343.535 224.494 344.123 224.282C344.123 224.272 344.089 224.196 344.022 224.055C343.954 223.914 343.882 223.752 343.805 223.571C343.728 223.389 343.651 223.188 343.573 222.966C343.496 222.744 343.434 222.517 343.386 222.285C343.337 222.053 343.308 221.836 343.299 221.634ZM342.099 228.882C342.099 229.356 342.214 229.734 342.446 230.017C342.677 230.299 343.005 230.44 343.429 230.44C343.708 230.44 343.959 230.319 344.181 230.077C344.402 229.835 344.571 229.532 344.687 229.169C344.802 228.806 344.889 228.468 344.947 228.155C345.005 227.843 345.039 227.57 345.048 227.338C345.048 226.985 345.014 226.652 344.947 226.34C344.88 226.027 344.812 225.795 344.745 225.644C344.677 225.492 344.552 225.21 344.369 224.796L344.224 224.857C343.8 225.008 343.434 225.281 343.125 225.674C342.817 226.067 342.595 226.501 342.46 226.975C342.325 227.449 342.234 227.838 342.186 228.14C342.137 228.443 342.108 228.69 342.099 228.882Z" fill="black"/>
<path d="M321.299 198.634C321.299 198.16 321.453 197.772 321.761 197.469C322.07 197.166 322.431 197.01 322.846 197C323.01 197.01 323.246 197.05 323.554 197.121C323.863 197.192 324.133 197.252 324.364 197.303C324.595 197.353 324.72 197.388 324.74 197.409C324.913 197.489 325 197.63 325 197.832C325 198.014 324.937 198.185 324.812 198.347C324.687 198.508 324.518 198.589 324.306 198.589C324.104 198.589 323.839 198.442 323.511 198.15C323.183 197.857 322.894 197.706 322.643 197.696C322.393 197.686 322.205 197.757 322.08 197.908C321.954 198.059 321.887 198.205 321.877 198.347C321.877 198.79 322.354 199.623 323.308 200.843C323.954 201.691 324.277 202.553 324.277 203.431C324.277 204.671 323.983 205.74 323.395 206.638C322.807 207.536 322.157 207.99 321.443 208H321.342C320.658 208 320.104 207.768 319.68 207.304C319.255 206.84 319.029 206.25 319 205.534C319 204.192 319.554 203.037 320.663 202.069C321.048 201.756 321.535 201.494 322.123 201.282C322.123 201.272 322.089 201.196 322.022 201.055C321.954 200.914 321.882 200.752 321.805 200.571C321.728 200.389 321.651 200.188 321.573 199.966C321.496 199.744 321.434 199.517 321.386 199.285C321.337 199.053 321.308 198.836 321.299 198.634ZM320.099 205.882C320.099 206.356 320.214 206.734 320.446 207.017C320.677 207.299 321.005 207.44 321.429 207.44C321.708 207.44 321.959 207.319 322.181 207.077C322.402 206.835 322.571 206.532 322.687 206.169C322.802 205.806 322.889 205.468 322.947 205.155C323.005 204.843 323.039 204.57 323.048 204.338C323.048 203.985 323.014 203.652 322.947 203.34C322.88 203.027 322.812 202.795 322.745 202.644C322.677 202.492 322.552 202.21 322.369 201.796L322.224 201.857C321.8 202.008 321.434 202.281 321.125 202.674C320.817 203.067 320.595 203.501 320.46 203.975C320.325 204.449 320.234 204.838 320.186 205.14C320.137 205.443 320.108 205.69 320.099 205.882Z" fill="black"/>
<path d="M289.043 277.526C289.043 278.53 288.764 279.5 288.204 280.435C287.645 281.37 286.924 282.117 286.042 282.676C285.159 283.235 284.255 283.515 283.329 283.515C282.481 283.515 281.756 283.266 281.153 282.768C280.55 282.27 280.17 281.545 280.013 280.592C280.004 280.523 280 280.335 280 280.029C280 279.138 280.21 278.29 280.629 277.486C281.048 276.682 281.612 275.97 282.32 275.35C283.403 274.45 284.491 274 285.583 274C285.915 274 286.125 274.004 286.212 274.013C287.06 274.135 287.741 274.511 288.257 275.14C288.772 275.769 289.035 276.564 289.043 277.526ZM287.693 276.988C287.693 276.211 287.492 275.603 287.09 275.166C286.689 274.73 286.186 274.511 285.583 274.511C284.884 274.511 284.211 274.773 283.565 275.298C282.866 275.848 282.333 276.621 281.966 277.617C281.599 278.613 281.411 279.54 281.402 280.396C281.402 281.182 281.59 281.807 281.966 282.27C282.342 282.733 282.84 282.969 283.46 282.978C284.246 282.978 284.993 282.633 285.701 281.942C286.409 281.252 286.946 280.313 287.313 279.125C287.567 278.294 287.693 277.582 287.693 276.988Z" fill="black"/>
</svg>
