<svg width="1026" height="454" viewBox="0 0 1026 454" fill="none" xmlns="http://www.w3.org/2000/svg">
<g clip-path="url(#clip0_1_5)">
<path d="M726 123L512.5 227H784L998 123H726Z" fill="#D9D9D9" fill-opacity="0.3"/>
<path d="M514 -71L508.226 -61L519.774 -61L514 -71ZM513 -62L513 574L515 574L515 -62L513 -62Z" fill="black"/>
<path d="M1026 227L1016 221.226V232.774L1026 227ZM-88 228H1017V226H-88V228Z" fill="black"/>
<path d="M-143 545.203L1125.46 -71" stroke="#555555" stroke-dasharray="4 4"/>
<path d="M-143 545.203L1125.46 -71" stroke="#555555" stroke-dasharray="4 4"/>
<path d="M-42 628.203L1226.46 12" stroke="#555555" stroke-dasharray="4 4"/>
<path d="M-313 365.203L955.456 -251" stroke="#555555" stroke-dasharray="4 4"/>
<path d="M-212 448.203L1056.46 -168" stroke="#555555" stroke-dasharray="4 4"/>
<path d="M89 698.203L1357.46 82" stroke="#555555" stroke-dasharray="4 4"/>
<path d="M190 781.203L1458.46 165" stroke="#555555" stroke-dasharray="4 4"/>
<path d="M-406 278.203L862.456 -338" stroke="#555555" stroke-dasharray="4 4"/>
<path d="M-88 123L1113 123" stroke="#555555" stroke-dasharray="4 4"/>
<path d="M-88 20L1113 20" stroke="#555555" stroke-dasharray="4 4"/>
<path d="M-88 433L1113 433" stroke="#555555" stroke-dasharray="4 4"/>
<path d="M-110 330L1091 330" stroke="#555555" stroke-dasharray="4 4"/>
<path d="M725.563 123.101L714.045 122.278L719.091 132.664L725.563 123.101ZM514 227L717.905 127.933L717.031 126.134L513.126 225.201L514 227Z" fill="#3BA1DD"/>
<path d="M786 227L776 221.226V232.774L786 227ZM514 228L777 228V226L514 226V228Z" fill="#3BA1DD"/>
<circle cx="4.5" cy="4.5" r="4.5" transform="matrix(-1 0 0 1 518 222)" fill="black"/>
<path d="M589.894 160.108C589.298 160.108 589 159.999 589 159.782C589 159.631 589.383 159.154 590.149 158.351C590.915 157.549 591.681 156.899 592.447 156.4C593.44 155.814 594.362 155.478 595.213 155.392C595.383 155.348 597.766 155.327 602.362 155.327C606.901 155.327 609.241 155.348 609.383 155.392C609.95 155.5 610.234 155.793 610.234 156.27C610.234 156.573 610.106 156.855 609.851 157.115C609.596 157.376 609.27 157.549 608.872 157.636C608.702 157.679 607.34 157.701 604.787 157.701C602.234 157.701 600.957 157.723 600.957 157.766C600.929 157.788 600.702 158.677 600.277 160.433C599.851 162.189 599.397 163.978 598.915 165.799C598.433 167.621 598.177 168.585 598.149 168.694C598.007 169.019 597.752 169.279 597.383 169.474C597.014 169.67 596.603 169.767 596.149 169.767C595.213 169.767 594.745 169.409 594.745 168.694V168.369L596.872 163.1C597.184 162.319 597.525 161.452 597.894 160.498C598.262 159.544 598.56 158.85 598.787 158.416L599.043 157.733C599.043 157.712 598.39 157.701 597.085 157.701C597.028 157.701 596.872 157.701 596.617 157.701C596.362 157.701 596.163 157.69 596.021 157.668C593.809 157.668 592.078 158.362 590.83 159.75C590.688 159.923 590.574 160.021 590.489 160.043C590.404 160.064 590.206 160.086 589.894 160.108Z" fill="black"/>
</g>
<defs>
<clipPath id="clip0_1_5">
<rect width="1026" height="454" fill="white"/>
</clipPath>
</defs>
</svg>
